<?xml version="1.0" encoding="utf-8"?>
<svg xmlns="http://www.w3.org/2000/svg" xmlns:xlink="http://www.w3.org/1999/xlink" width="600" height="400" viewBox="0 0 2400 1600">
<defs>
  <clipPath id="clip610">
    <rect x="0" y="0" width="2400" height="1600"/>
  </clipPath>
</defs>
<path clip-path="url(#clip610)" d="M0 1600 L2400 1600 L2400 0 L0 0  Z" fill="#ffffff" fill-rule="evenodd" fill-opacity="1"/>
<defs>
  <clipPath id="clip611">
    <rect x="275" y="110" width="2016" height="1251"/>
  </clipPath>
</defs>
<path clip-path="url(#clip610)" d="M275.159 1360.19 L2289.76 1360.19 L2289.76 110.236 L275.159 110.236  Z" fill="#ffffff" fill-rule="evenodd" fill-opacity="1"/>
<polyline clip-path="url(#clip610)" style="stroke:#000000; stroke-linecap:round; stroke-linejoin:round; stroke-width:4; stroke-opacity:1; fill:none" points="275.159,1360.19 2289.76,1360.19 "/>
<polyline clip-path="url(#clip610)" style="stroke:#000000; stroke-linecap:round; stroke-linejoin:round; stroke-width:4; stroke-opacity:1; fill:none" points="275.159,110.236 2289.76,110.236 "/>
<polyline clip-path="url(#clip610)" style="stroke:#000000; stroke-linecap:round; stroke-linejoin:round; stroke-width:4; stroke-opacity:1; fill:none" points="522.233,1360.19 522.233,1341.29 "/>
<polyline clip-path="url(#clip610)" style="stroke:#000000; stroke-linecap:round; stroke-linejoin:round; stroke-width:4; stroke-opacity:1; fill:none" points="902.347,1360.19 902.347,1341.29 "/>
<polyline clip-path="url(#clip610)" style="stroke:#000000; stroke-linecap:round; stroke-linejoin:round; stroke-width:4; stroke-opacity:1; fill:none" points="1282.46,1360.19 1282.46,1341.29 "/>
<polyline clip-path="url(#clip610)" style="stroke:#000000; stroke-linecap:round; stroke-linejoin:round; stroke-width:4; stroke-opacity:1; fill:none" points="1662.58,1360.19 1662.58,1341.29 "/>
<polyline clip-path="url(#clip610)" style="stroke:#000000; stroke-linecap:round; stroke-linejoin:round; stroke-width:4; stroke-opacity:1; fill:none" points="2042.69,1360.19 2042.69,1341.29 "/>
<polyline clip-path="url(#clip610)" style="stroke:#000000; stroke-linecap:round; stroke-linejoin:round; stroke-width:4; stroke-opacity:1; fill:none" points="522.233,110.236 522.233,129.134 "/>
<polyline clip-path="url(#clip610)" style="stroke:#000000; stroke-linecap:round; stroke-linejoin:round; stroke-width:4; stroke-opacity:1; fill:none" points="902.347,110.236 902.347,129.134 "/>
<polyline clip-path="url(#clip610)" style="stroke:#000000; stroke-linecap:round; stroke-linejoin:round; stroke-width:4; stroke-opacity:1; fill:none" points="1282.46,110.236 1282.46,129.134 "/>
<polyline clip-path="url(#clip610)" style="stroke:#000000; stroke-linecap:round; stroke-linejoin:round; stroke-width:4; stroke-opacity:1; fill:none" points="1662.58,110.236 1662.58,129.134 "/>
<polyline clip-path="url(#clip610)" style="stroke:#000000; stroke-linecap:round; stroke-linejoin:round; stroke-width:4; stroke-opacity:1; fill:none" points="2042.69,110.236 2042.69,129.134 "/>
<path clip-path="url(#clip610)" d="M513.883 1393.71 L513.883 1392.13 Q519.96 1392.13 523.098 1388.89 Q523.962 1388.89 524.111 1389.09 Q524.259 1389.29 524.259 1390.2 L524.259 1418.59 Q524.259 1420.09 525 1420.56 Q525.741 1421.03 528.977 1421.03 L530.583 1421.03 L530.583 1422.59 Q528.804 1422.44 522.381 1422.44 Q515.958 1422.44 514.204 1422.59 L514.204 1421.03 L515.81 1421.03 Q518.997 1421.03 519.763 1420.59 Q520.529 1420.12 520.529 1418.59 L520.529 1392.38 Q517.885 1393.71 513.883 1393.71 Z" fill="#000000" fill-rule="nonzero" fill-opacity="1" /><path clip-path="url(#clip610)" d="M892.244 1422.59 Q892.244 1421.67 892.318 1421.4 Q892.416 1421.13 892.812 1420.71 L902.52 1409.89 Q907.831 1403.91 907.831 1398.7 Q907.831 1395.32 906.053 1392.89 Q904.299 1390.47 901.063 1390.47 Q898.839 1390.47 896.962 1391.83 Q895.084 1393.19 894.22 1395.61 Q894.368 1395.56 894.887 1395.56 Q896.147 1395.56 896.838 1396.35 Q897.555 1397.14 897.555 1398.21 Q897.555 1399.56 896.665 1400.23 Q895.801 1400.87 894.936 1400.87 Q894.59 1400.87 894.121 1400.8 Q893.676 1400.73 892.96 1400.03 Q892.244 1399.32 892.244 1398.06 Q892.244 1394.52 894.912 1391.71 Q897.604 1388.89 901.705 1388.89 Q906.349 1388.89 909.388 1391.66 Q912.451 1394.4 912.451 1398.7 Q912.451 1400.21 911.982 1401.59 Q911.537 1402.95 910.919 1404.01 Q910.326 1405.07 908.696 1406.78 Q907.066 1408.48 905.756 1409.69 Q904.447 1410.9 901.507 1413.47 L896.147 1418.68 L905.262 1418.68 Q909.709 1418.68 910.055 1418.29 Q910.549 1417.57 911.166 1413.79 L912.451 1413.79 L911.018 1422.59 L892.244 1422.59 Z" fill="#000000" fill-rule="nonzero" fill-opacity="1" /><path clip-path="url(#clip610)" d="M1271.96 1415.77 Q1271.96 1414.26 1272.83 1413.55 Q1273.69 1412.83 1274.8 1412.83 Q1275.96 1412.83 1276.78 1413.6 Q1277.62 1414.34 1277.62 1415.65 Q1277.62 1417.05 1276.63 1417.84 Q1275.67 1418.64 1274.28 1418.44 Q1275.49 1420.46 1277.72 1421.38 Q1279.97 1422.29 1282.04 1422.29 Q1284.22 1422.29 1285.97 1420.41 Q1287.75 1418.54 1287.75 1413.94 Q1287.75 1410.04 1286.22 1407.79 Q1284.71 1405.54 1281.72 1405.54 L1279.5 1405.54 Q1278.73 1405.54 1278.51 1405.47 Q1278.29 1405.39 1278.29 1404.97 Q1278.29 1404.48 1279.05 1404.38 Q1279.82 1404.38 1281.03 1404.23 Q1283.97 1404.13 1285.52 1401.59 Q1286.93 1399.22 1286.93 1395.83 Q1286.93 1392.75 1285.45 1391.46 Q1283.99 1390.15 1282.09 1390.15 Q1280.31 1390.15 1278.36 1390.89 Q1276.41 1391.63 1275.35 1393.29 Q1278.48 1393.29 1278.48 1395.83 Q1278.48 1396.95 1277.77 1397.69 Q1277.08 1398.4 1275.91 1398.4 Q1274.8 1398.4 1274.06 1397.71 Q1273.32 1397 1273.32 1395.78 Q1273.32 1392.89 1275.89 1390.89 Q1278.48 1388.89 1282.29 1388.89 Q1286.04 1388.89 1288.81 1390.87 Q1291.6 1392.84 1291.6 1395.88 Q1291.6 1398.87 1289.63 1401.32 Q1287.65 1403.76 1284.51 1404.78 Q1288.37 1405.54 1290.66 1408.16 Q1292.96 1410.75 1292.96 1413.94 Q1292.96 1417.89 1289.85 1420.81 Q1286.74 1423.7 1282.19 1423.7 Q1277.99 1423.7 1274.98 1421.43 Q1271.96 1419.15 1271.96 1415.77 Z" fill="#000000" fill-rule="nonzero" fill-opacity="1" /><path clip-path="url(#clip610)" d="M1651.36 1414.24 L1651.36 1412.68 L1666.9 1388.94 Q1667.29 1388.32 1667.91 1388.35 Q1668.48 1388.35 1668.6 1388.57 Q1668.73 1388.79 1668.73 1389.66 L1668.73 1412.68 L1673.79 1412.68 L1673.79 1414.24 L1668.73 1414.24 L1668.73 1418.64 Q1668.73 1420.09 1669.32 1420.56 Q1669.94 1421.03 1672.56 1421.03 L1673.62 1421.03 L1673.62 1422.59 Q1671.54 1422.44 1666.75 1422.44 Q1661.98 1422.44 1659.91 1422.59 L1659.91 1421.03 L1660.97 1421.03 Q1663.59 1421.03 1664.21 1420.59 Q1664.82 1420.12 1664.82 1418.64 L1664.82 1414.24 L1651.36 1414.24 M1652.79 1412.68 L1665.12 1412.68 L1665.12 1393.81 L1652.79 1412.68 Z" fill="#000000" fill-rule="nonzero" fill-opacity="1" /><path clip-path="url(#clip610)" d="M2032.59 1414.44 Q2032.59 1412.93 2033.4 1412.36 Q2034.22 1411.77 2035.08 1411.77 Q2036.24 1411.77 2036.91 1412.51 Q2037.6 1413.23 2037.6 1414.24 Q2037.6 1415.25 2036.91 1415.99 Q2036.24 1416.71 2035.08 1416.71 Q2034.51 1416.71 2034.22 1416.61 Q2034.88 1418.93 2036.91 1420.61 Q2038.96 1422.29 2041.65 1422.29 Q2045.04 1422.29 2047.06 1419.01 Q2048.27 1416.88 2048.27 1412.06 Q2048.27 1407.82 2047.36 1405.69 Q2045.95 1402.45 2043.06 1402.45 Q2038.96 1402.45 2036.54 1405.99 Q2036.24 1406.43 2035.9 1406.46 Q2035.4 1406.46 2035.28 1406.18 Q2035.18 1405.89 2035.18 1405.12 L2035.18 1390.15 Q2035.18 1388.94 2035.67 1388.94 Q2035.87 1388.94 2036.29 1389.09 Q2039.48 1390.5 2043.01 1390.52 Q2046.64 1390.52 2049.9 1389.04 Q2050.15 1388.89 2050.3 1388.89 Q2050.79 1388.89 2050.82 1389.46 Q2050.82 1389.66 2050.4 1390.25 Q2050 1390.82 2049.14 1391.59 Q2048.27 1392.33 2047.16 1393.04 Q2046.05 1393.76 2044.42 1394.25 Q2042.81 1394.72 2041.03 1394.72 Q2038.91 1394.72 2036.74 1394.06 L2036.74 1403.91 Q2039.35 1401.34 2043.16 1401.34 Q2047.21 1401.34 2050 1404.6 Q2052.79 1407.86 2052.79 1412.41 Q2052.79 1417.18 2049.48 1420.44 Q2046.2 1423.7 2041.75 1423.7 Q2037.7 1423.7 2035.13 1420.81 Q2032.59 1417.92 2032.59 1414.44 Z" fill="#000000" fill-rule="nonzero" fill-opacity="1" /><path clip-path="url(#clip610)" d="M865.43 1505.05 L865.43 1502.91 L867.094 1502.91 Q870.865 1502.91 871.714 1502.3 Q872.597 1501.66 872.597 1499.62 L872.597 1462.97 Q872.597 1460.96 871.714 1460.35 Q870.831 1459.71 867.094 1459.71 L865.43 1459.71 L865.43 1457.53 L890.871 1457.53 Q899.771 1457.53 905.953 1464.63 Q912.169 1471.73 912.169 1481.68 Q912.169 1491.43 905.919 1498.26 Q899.703 1505.05 890.871 1505.05 L865.43 1505.05 M878.575 1500.13 Q878.575 1501.93 879.085 1502.44 Q879.594 1502.91 881.972 1502.91 L889.003 1502.91 Q893.589 1502.91 896.68 1501.04 Q899.771 1499.14 901.367 1496.97 Q905.206 1491.74 905.206 1481.68 Q905.206 1471.12 901.605 1466.16 Q896.952 1459.71 888.935 1459.71 L881.972 1459.71 Q879.594 1459.71 879.085 1460.18 Q878.575 1460.66 878.575 1462.49 L878.575 1500.13 Z" fill="#000000" fill-rule="nonzero" fill-opacity="1" /><path clip-path="url(#clip610)" d="M918.351 1505.05 L918.351 1502.91 Q922.053 1502.91 922.902 1502.47 Q923.752 1501.99 923.752 1499.75 L923.752 1481.04 Q923.752 1478.46 922.868 1477.84 Q922.019 1477.23 918.623 1477.23 L918.623 1475.06 L928.337 1474.31 L928.337 1499.82 Q928.337 1501.89 929.084 1502.4 Q929.832 1502.91 933.228 1502.91 L933.228 1505.05 Q926.129 1504.85 925.993 1504.85 Q925.042 1504.85 918.351 1505.05 M921.272 1462.19 Q921.272 1460.79 922.325 1459.67 Q923.412 1458.52 924.94 1458.52 Q926.469 1458.52 927.556 1459.57 Q928.643 1460.59 928.643 1462.22 Q928.643 1463.82 927.556 1464.87 Q926.469 1465.89 924.94 1465.89 Q923.344 1465.89 922.291 1464.77 Q921.272 1463.65 921.272 1462.19 Z" fill="#000000" fill-rule="nonzero" fill-opacity="1" /><path clip-path="url(#clip610)" d="M937.61 1504.13 L937.61 1494.96 Q937.61 1494.18 937.644 1493.91 Q937.678 1493.64 937.882 1493.43 Q938.086 1493.23 938.493 1493.23 Q938.969 1493.23 939.139 1493.43 Q939.342 1493.64 939.478 1494.42 Q940.531 1499.21 942.773 1501.76 Q945.049 1504.27 949.159 1504.27 Q953.065 1504.27 955.035 1502.54 Q957.005 1500.81 957.005 1497.95 Q957.005 1492.86 949.77 1491.57 Q945.592 1490.72 943.86 1490.17 Q942.128 1489.6 940.599 1488.34 Q937.61 1485.89 937.61 1482.43 Q937.61 1478.96 940.226 1476.42 Q942.875 1473.87 948.717 1473.87 Q952.624 1473.87 955.273 1475.84 Q956.054 1475.23 956.462 1474.72 Q957.379 1473.87 957.855 1473.87 Q958.398 1473.87 958.5 1474.24 Q958.602 1474.58 958.602 1475.57 L958.602 1482.57 Q958.602 1483.35 958.568 1483.62 Q958.534 1483.89 958.33 1484.09 Q958.126 1484.26 957.685 1484.26 Q956.903 1484.26 956.87 1483.62 Q956.326 1475.19 948.717 1475.19 Q944.607 1475.19 942.773 1476.79 Q940.939 1478.35 940.939 1480.49 Q940.939 1481.68 941.482 1482.6 Q942.06 1483.48 942.773 1484.03 Q943.52 1484.54 944.879 1485.05 Q946.238 1485.52 947.053 1485.69 Q947.902 1485.86 949.499 1486.2 Q955.069 1487.25 957.413 1489.53 Q960.334 1492.45 960.334 1496.15 Q960.334 1500.26 957.549 1503.05 Q954.764 1505.83 949.159 1505.83 Q944.641 1505.83 941.482 1502.81 Q941.075 1503.22 940.769 1503.59 Q940.463 1503.93 940.328 1504.07 Q940.226 1504.2 940.192 1504.3 Q940.158 1504.37 940.09 1504.44 Q938.697 1505.83 938.357 1505.83 Q937.814 1505.83 937.712 1505.46 Q937.61 1505.12 937.61 1504.13 Z" fill="#000000" fill-rule="nonzero" fill-opacity="1" /><path clip-path="url(#clip610)" d="M964.003 1477.23 L964.003 1475.7 Q967.196 1475.57 969.301 1473.33 Q971.441 1471.05 972.155 1468.27 Q972.902 1465.48 972.97 1462.25 L974.702 1462.25 L974.702 1475.06 L984.655 1475.06 L984.655 1477.23 L974.702 1477.23 L974.702 1496.56 Q974.702 1504.07 979.39 1504.07 Q981.394 1504.07 982.718 1502.03 Q984.043 1499.96 984.043 1496.29 L984.043 1492.45 L985.776 1492.45 L985.776 1496.42 Q985.776 1500.19 984.043 1503.01 Q982.311 1505.83 978.88 1505.83 Q977.623 1505.83 976.367 1505.49 Q975.144 1505.19 973.513 1504.37 Q971.917 1503.52 970.898 1501.49 Q969.913 1499.41 969.913 1496.42 L969.913 1477.23 L964.003 1477.23 Z" fill="#000000" fill-rule="nonzero" fill-opacity="1" /><path clip-path="url(#clip610)" d="M992.569 1498.43 Q992.569 1492.52 999.532 1489.39 Q1003.71 1487.39 1012.34 1486.88 L1012.34 1484.33 Q1012.34 1480.02 1010.06 1477.74 Q1007.82 1475.43 1004.97 1475.43 Q999.872 1475.43 997.426 1478.63 Q999.498 1478.69 1000.25 1479.75 Q1000.99 1480.77 1000.99 1481.82 Q1000.99 1483.21 1000.11 1484.13 Q999.26 1485.01 997.8 1485.01 Q996.407 1485.01 995.49 1484.16 Q994.573 1483.28 994.573 1481.75 Q994.573 1478.35 997.63 1476.11 Q1000.72 1473.87 1005.1 1473.87 Q1010.81 1473.87 1014.61 1477.71 Q1015.8 1478.9 1016.38 1480.43 Q1016.99 1481.95 1017.06 1482.97 Q1017.13 1483.96 1017.13 1485.93 L1017.13 1499.82 Q1017.13 1500.23 1017.26 1500.91 Q1017.4 1501.59 1018.01 1502.47 Q1018.66 1503.32 1019.71 1503.32 Q1022.22 1503.32 1022.19 1498.87 L1022.19 1494.96 L1023.95 1494.96 L1023.95 1498.87 Q1023.95 1502.57 1021.98 1504.03 Q1020.05 1505.46 1018.25 1505.46 Q1015.94 1505.46 1014.48 1503.76 Q1013.02 1502.06 1012.81 1499.75 Q1011.76 1502.4 1009.35 1504.13 Q1006.97 1505.83 1003.71 1505.83 Q1001.2 1505.83 998.819 1505.19 Q996.475 1504.58 994.505 1502.84 Q992.569 1501.08 992.569 1498.43 M997.936 1498.36 Q997.936 1500.94 999.77 1502.61 Q1001.6 1504.27 1004.19 1504.27 Q1007.11 1504.27 1009.72 1502.03 Q1012.34 1499.75 1012.34 1495.3 L1012.34 1488.34 Q1004.63 1488.61 1001.26 1491.7 Q997.936 1494.76 997.936 1498.36 Z" fill="#000000" fill-rule="nonzero" fill-opacity="1" /><path clip-path="url(#clip610)" d="M1026.67 1505.05 L1026.67 1502.91 Q1030.37 1502.91 1031.22 1502.47 Q1032.07 1501.99 1032.07 1499.75 L1032.07 1481.1 Q1032.07 1478.52 1031.16 1477.88 Q1030.27 1477.23 1026.67 1477.23 L1026.67 1475.06 L1036.45 1474.31 L1036.45 1481.61 Q1039.72 1474.31 1046.75 1474.31 Q1051.98 1474.31 1054.05 1476.89 Q1055.58 1478.63 1055.88 1480.56 Q1056.22 1482.5 1056.22 1487.52 L1056.22 1500.81 Q1056.29 1502.27 1057.41 1502.61 Q1058.53 1502.91 1061.66 1502.91 L1061.66 1505.05 Q1054.56 1504.85 1053.85 1504.85 Q1053.3 1504.85 1046 1505.05 L1046 1502.91 Q1049.7 1502.91 1050.55 1502.47 Q1051.43 1501.99 1051.43 1499.75 L1051.43 1483.55 Q1051.43 1480.02 1050.35 1477.95 Q1049.26 1475.84 1046.27 1475.84 Q1042.67 1475.84 1039.78 1478.86 Q1036.9 1481.89 1036.9 1486.98 L1036.9 1499.75 Q1036.9 1501.99 1037.75 1502.47 Q1038.63 1502.91 1042.3 1502.91 L1042.3 1505.05 Q1035.2 1504.85 1034.52 1504.85 Q1033.97 1504.85 1026.67 1505.05 Z" fill="#000000" fill-rule="nonzero" fill-opacity="1" /><path clip-path="url(#clip610)" d="M1069.81 1501.25 Q1065.39 1496.63 1065.39 1490.04 Q1065.39 1483.41 1069.74 1478.66 Q1074.09 1473.87 1080.48 1473.87 Q1084.72 1473.87 1087.91 1475.91 Q1091.11 1477.91 1091.11 1481.34 Q1091.11 1482.87 1090.19 1483.75 Q1089.31 1484.6 1087.91 1484.6 Q1086.45 1484.6 1085.57 1483.72 Q1084.72 1482.8 1084.72 1481.41 Q1084.72 1480.8 1084.93 1480.19 Q1085.13 1479.58 1085.88 1478.93 Q1086.66 1478.29 1087.98 1478.18 Q1085.5 1475.64 1080.68 1475.64 Q1080.61 1475.64 1080.54 1475.64 Q1077.01 1475.64 1074.09 1478.96 Q1071.17 1482.29 1071.17 1489.9 Q1071.17 1493.88 1072.12 1496.8 Q1073.11 1499.68 1074.7 1501.18 Q1076.3 1502.67 1077.86 1503.39 Q1079.42 1504.07 1080.95 1504.07 Q1087.78 1504.07 1090.09 1496.76 Q1090.29 1496.08 1090.97 1496.08 Q1091.89 1496.08 1091.89 1496.76 Q1091.89 1497.1 1091.62 1497.99 Q1091.35 1498.87 1090.5 1500.26 Q1089.65 1501.66 1088.42 1502.88 Q1087.24 1504.07 1085.1 1504.95 Q1082.99 1505.83 1080.34 1505.83 Q1074.23 1505.83 1069.81 1501.25 Z" fill="#000000" fill-rule="nonzero" fill-opacity="1" /><path clip-path="url(#clip610)" d="M1095.83 1489.73 Q1095.83 1483.18 1100.04 1478.52 Q1104.25 1473.87 1110.3 1473.87 Q1116.41 1473.87 1119.57 1477.84 Q1122.76 1481.82 1122.76 1487.52 Q1122.76 1488.58 1122.49 1488.78 Q1122.22 1488.99 1121.03 1488.99 L1101.6 1488.99 Q1101.6 1496.08 1103.71 1499.41 Q1106.63 1504.07 1111.56 1504.07 Q1112.24 1504.07 1113.05 1503.93 Q1113.87 1503.79 1115.53 1503.22 Q1117.19 1502.61 1118.65 1501.01 Q1120.12 1499.41 1120.96 1496.9 Q1121.17 1495.91 1121.85 1495.95 Q1122.76 1495.95 1122.76 1496.76 Q1122.76 1497.38 1122.09 1498.77 Q1121.44 1500.13 1120.18 1501.76 Q1118.93 1503.39 1116.48 1504.61 Q1114.07 1505.83 1111.15 1505.83 Q1105.03 1505.83 1100.41 1501.21 Q1095.83 1496.56 1095.83 1489.73 M1101.67 1487.52 L1118.18 1487.52 Q1118.18 1486.06 1117.91 1484.43 Q1117.67 1482.8 1116.92 1480.56 Q1116.21 1478.29 1114.51 1476.86 Q1112.81 1475.43 1110.3 1475.43 Q1109.18 1475.43 1107.96 1475.91 Q1106.77 1476.38 1105.31 1477.54 Q1103.85 1478.69 1102.83 1481.31 Q1101.81 1483.92 1101.67 1487.52 Z" fill="#000000" fill-rule="nonzero" fill-opacity="1" /><path clip-path="url(#clip610)" d="M1149.23 1477.23 L1149.23 1475.7 Q1152.42 1475.57 1154.52 1473.33 Q1156.66 1471.05 1157.38 1468.27 Q1158.12 1465.48 1158.19 1462.25 L1159.92 1462.25 L1159.92 1475.06 L1169.88 1475.06 L1169.88 1477.23 L1159.92 1477.23 L1159.92 1496.56 Q1159.92 1504.07 1164.61 1504.07 Q1166.62 1504.07 1167.94 1502.03 Q1169.27 1499.96 1169.27 1496.29 L1169.27 1492.45 L1171 1492.45 L1171 1496.42 Q1171 1500.19 1169.27 1503.01 Q1167.53 1505.83 1164.1 1505.83 Q1162.85 1505.83 1161.59 1505.49 Q1160.37 1505.19 1158.74 1504.37 Q1157.14 1503.52 1156.12 1501.49 Q1155.14 1499.41 1155.14 1496.42 L1155.14 1477.23 L1149.23 1477.23 Z" fill="#000000" fill-rule="nonzero" fill-opacity="1" /><path clip-path="url(#clip610)" d="M1181.39 1501.32 Q1176.81 1496.76 1176.81 1490.17 Q1176.81 1483.55 1181.29 1478.73 Q1185.81 1473.87 1192.26 1473.87 Q1198.58 1473.87 1203.1 1478.69 Q1207.65 1483.48 1207.65 1490.17 Q1207.65 1496.73 1203.06 1501.28 Q1198.51 1505.83 1192.19 1505.83 Q1186.01 1505.83 1181.39 1501.32 M1182.58 1489.6 Q1182.58 1496.36 1184.35 1499.41 Q1187.06 1504.07 1192.26 1504.07 Q1194.84 1504.07 1196.98 1502.67 Q1199.16 1501.28 1200.35 1498.94 Q1201.87 1495.88 1201.87 1489.6 Q1201.87 1482.91 1200.04 1479.95 Q1197.32 1475.43 1192.19 1475.43 Q1189.95 1475.43 1187.74 1476.62 Q1185.57 1477.78 1184.25 1480.09 Q1182.58 1483.14 1182.58 1489.6 Z" fill="#000000" fill-rule="nonzero" fill-opacity="1" /><path clip-path="url(#clip610)" d="M1234.11 1477.23 L1234.11 1475.7 Q1237.3 1475.57 1239.41 1473.33 Q1241.55 1471.05 1242.26 1468.27 Q1243.01 1465.48 1243.08 1462.25 L1244.81 1462.25 L1244.81 1475.06 L1254.76 1475.06 L1254.76 1477.23 L1244.81 1477.23 L1244.81 1496.56 Q1244.81 1504.07 1249.5 1504.07 Q1251.5 1504.07 1252.83 1502.03 Q1254.15 1499.96 1254.15 1496.29 L1254.15 1492.45 L1255.88 1492.45 L1255.88 1496.42 Q1255.88 1500.19 1254.15 1503.01 Q1252.42 1505.83 1248.99 1505.83 Q1247.73 1505.83 1246.47 1505.49 Q1245.25 1505.19 1243.62 1504.37 Q1242.02 1503.52 1241 1501.49 Q1240.02 1499.41 1240.02 1496.42 L1240.02 1477.23 L1234.11 1477.23 Z" fill="#000000" fill-rule="nonzero" fill-opacity="1" /><path clip-path="url(#clip610)" d="M1262 1505.05 L1262 1502.91 Q1265.7 1502.91 1266.55 1502.47 Q1267.4 1501.99 1267.4 1499.75 L1267.4 1463.58 Q1267.4 1461 1266.48 1460.35 Q1265.6 1459.71 1262 1459.71 L1262 1457.53 L1271.98 1456.78 L1271.98 1480.97 L1272.05 1480.97 Q1273.17 1478.46 1275.68 1476.38 Q1278.2 1474.31 1282.07 1474.31 Q1287.3 1474.31 1289.37 1476.89 Q1290.9 1478.63 1291.21 1480.56 Q1291.55 1482.5 1291.55 1487.52 L1291.55 1500.81 Q1291.62 1502.27 1292.74 1502.61 Q1293.86 1502.91 1296.98 1502.91 L1296.98 1505.05 Q1289.88 1504.85 1289.17 1504.85 Q1288.63 1504.85 1281.32 1505.05 L1281.32 1502.91 Q1285.03 1502.91 1285.88 1502.47 Q1286.76 1501.99 1286.76 1499.75 L1286.76 1483.55 Q1286.76 1480.02 1285.67 1477.95 Q1284.58 1475.84 1281.6 1475.84 Q1277.99 1475.84 1275.11 1478.86 Q1272.22 1481.89 1272.22 1486.98 L1272.22 1499.75 Q1272.22 1501.99 1273.07 1502.47 Q1273.95 1502.91 1277.62 1502.91 L1277.62 1505.05 Q1270.52 1504.85 1269.84 1504.85 Q1269.3 1504.85 1262 1505.05 Z" fill="#000000" fill-rule="nonzero" fill-opacity="1" /><path clip-path="url(#clip610)" d="M1300.28 1489.73 Q1300.28 1483.18 1304.49 1478.52 Q1308.7 1473.87 1314.75 1473.87 Q1320.86 1473.87 1324.02 1477.84 Q1327.21 1481.82 1327.21 1487.52 Q1327.21 1488.58 1326.94 1488.78 Q1326.67 1488.99 1325.48 1488.99 L1306.05 1488.99 Q1306.05 1496.08 1308.16 1499.41 Q1311.08 1504.07 1316 1504.07 Q1316.68 1504.07 1317.5 1503.93 Q1318.31 1503.79 1319.98 1503.22 Q1321.64 1502.61 1323.1 1501.01 Q1324.56 1499.41 1325.41 1496.9 Q1325.62 1495.91 1326.3 1495.95 Q1327.21 1495.95 1327.21 1496.76 Q1327.21 1497.38 1326.53 1498.77 Q1325.89 1500.13 1324.63 1501.76 Q1323.37 1503.39 1320.93 1504.61 Q1318.52 1505.83 1315.6 1505.83 Q1309.48 1505.83 1304.86 1501.21 Q1300.28 1496.56 1300.28 1489.73 M1306.12 1487.52 L1322.63 1487.52 Q1322.63 1486.06 1322.36 1484.43 Q1322.12 1482.8 1321.37 1480.56 Q1320.66 1478.29 1318.96 1476.86 Q1317.26 1475.43 1314.75 1475.43 Q1313.63 1475.43 1312.4 1475.91 Q1311.21 1476.38 1309.75 1477.54 Q1308.29 1478.69 1307.27 1481.31 Q1306.26 1483.92 1306.12 1487.52 Z" fill="#000000" fill-rule="nonzero" fill-opacity="1" /><path clip-path="url(#clip610)" d="M1354.28 1516.4 Q1357.99 1516.4 1358.84 1515.92 Q1359.72 1515.48 1359.72 1513.27 L1359.72 1480.7 Q1359.72 1478.39 1358.84 1477.81 Q1357.99 1477.23 1354.28 1477.23 L1354.28 1475.06 L1364.31 1474.31 L1364.31 1478.9 Q1368.48 1474.31 1374.05 1474.31 Q1379.96 1474.31 1384.28 1478.9 Q1388.59 1483.48 1388.59 1490.04 Q1388.59 1496.66 1384.01 1501.25 Q1379.42 1505.83 1373.07 1505.83 Q1369.6 1505.83 1367.26 1504.07 Q1364.95 1502.27 1364.51 1500.94 L1364.51 1501.59 L1364.51 1513.27 Q1364.51 1515.51 1365.39 1515.96 Q1366.28 1516.4 1369.94 1516.4 L1369.94 1518.54 Q1362.64 1518.33 1362.1 1518.33 Q1361.42 1518.33 1354.28 1518.54 L1354.28 1516.4 M1364.51 1497.14 Q1364.51 1498.19 1364.64 1498.56 Q1364.81 1498.94 1365.49 1500.06 Q1368.25 1504.27 1372.73 1504.27 Q1372.76 1504.27 1372.8 1504.27 Q1376.77 1504.27 1379.79 1500.23 Q1382.82 1496.15 1382.82 1490.04 Q1382.82 1484.2 1380.07 1480.12 Q1377.31 1476.04 1373.51 1476.04 Q1370.79 1476.04 1368.42 1477.5 Q1366.04 1478.96 1364.51 1481.61 L1364.51 1497.14 Z" fill="#000000" fill-rule="nonzero" fill-opacity="1" /><path clip-path="url(#clip610)" d="M1392.87 1505.05 L1392.87 1502.91 Q1396.57 1502.91 1397.42 1502.47 Q1398.31 1501.99 1398.31 1499.75 L1398.31 1481.1 Q1398.31 1478.52 1397.39 1477.88 Q1396.51 1477.23 1392.87 1477.23 L1392.87 1475.06 L1402.55 1474.31 L1402.55 1481.95 Q1403.54 1478.96 1405.61 1476.66 Q1407.72 1474.31 1411.11 1474.31 Q1413.35 1474.31 1414.78 1475.57 Q1416.24 1476.83 1416.24 1478.56 Q1416.24 1480.09 1415.29 1480.87 Q1414.37 1481.61 1413.25 1481.61 Q1411.99 1481.61 1411.11 1480.83 Q1410.26 1480.02 1410.26 1478.63 Q1410.26 1477.78 1410.64 1477.13 Q1411.04 1476.45 1411.35 1476.21 Q1411.66 1475.98 1411.86 1475.91 Q1411.72 1475.84 1411.11 1475.84 Q1407.27 1475.84 1405.07 1479.68 Q1402.89 1483.48 1402.89 1488.92 L1402.89 1499.62 Q1402.89 1501.62 1403.71 1502.27 Q1404.56 1502.91 1408.19 1502.91 L1409.65 1502.91 L1409.65 1505.05 Q1406.87 1504.85 1400.82 1504.85 Q1399.97 1504.85 1398.65 1504.88 Q1397.32 1504.92 1395.59 1504.98 Q1393.86 1505.05 1392.87 1505.05 Z" fill="#000000" fill-rule="nonzero" fill-opacity="1" /><path clip-path="url(#clip610)" d="M1424.63 1501.32 Q1420.05 1496.76 1420.05 1490.17 Q1420.05 1483.55 1424.53 1478.73 Q1429.05 1473.87 1435.5 1473.87 Q1441.82 1473.87 1446.34 1478.69 Q1450.89 1483.48 1450.89 1490.17 Q1450.89 1496.73 1446.3 1501.28 Q1441.75 1505.83 1435.43 1505.83 Q1429.25 1505.83 1424.63 1501.32 M1425.82 1489.6 Q1425.82 1496.36 1427.59 1499.41 Q1430.3 1504.07 1435.5 1504.07 Q1438.08 1504.07 1440.22 1502.67 Q1442.4 1501.28 1443.58 1498.94 Q1445.11 1495.88 1445.11 1489.6 Q1445.11 1482.91 1443.28 1479.95 Q1440.56 1475.43 1435.43 1475.43 Q1433.19 1475.43 1430.98 1476.62 Q1428.81 1477.78 1427.48 1480.09 Q1425.82 1483.14 1425.82 1489.6 Z" fill="#000000" fill-rule="nonzero" fill-opacity="1" /><path clip-path="url(#clip610)" d="M1454.22 1477.23 L1454.22 1475.7 Q1457.41 1475.57 1459.51 1473.33 Q1461.65 1471.05 1462.37 1468.27 Q1463.12 1465.48 1463.18 1462.25 L1464.92 1462.25 L1464.92 1475.06 L1474.87 1475.06 L1474.87 1477.23 L1464.92 1477.23 L1464.92 1496.56 Q1464.92 1504.07 1469.6 1504.07 Q1471.61 1504.07 1472.93 1502.03 Q1474.26 1499.96 1474.26 1496.29 L1474.26 1492.45 L1475.99 1492.45 L1475.99 1496.42 Q1475.99 1500.19 1474.26 1503.01 Q1472.52 1505.83 1469.09 1505.83 Q1467.84 1505.83 1466.58 1505.49 Q1465.36 1505.19 1463.73 1504.37 Q1462.13 1503.52 1461.11 1501.49 Q1460.13 1499.41 1460.13 1496.42 L1460.13 1477.23 L1454.22 1477.23 Z" fill="#000000" fill-rule="nonzero" fill-opacity="1" /><path clip-path="url(#clip610)" d="M1481.8 1489.73 Q1481.8 1483.18 1486.01 1478.52 Q1490.22 1473.87 1496.27 1473.87 Q1502.38 1473.87 1505.54 1477.84 Q1508.73 1481.82 1508.73 1487.52 Q1508.73 1488.58 1508.46 1488.78 Q1508.19 1488.99 1507 1488.99 L1487.57 1488.99 Q1487.57 1496.08 1489.68 1499.41 Q1492.6 1504.07 1497.52 1504.07 Q1498.2 1504.07 1499.02 1503.93 Q1499.83 1503.79 1501.5 1503.22 Q1503.16 1502.61 1504.62 1501.01 Q1506.08 1499.41 1506.93 1496.9 Q1507.14 1495.91 1507.82 1495.95 Q1508.73 1495.95 1508.73 1496.76 Q1508.73 1497.38 1508.05 1498.77 Q1507.41 1500.13 1506.15 1501.76 Q1504.9 1503.39 1502.45 1504.61 Q1500.04 1505.83 1497.12 1505.83 Q1491 1505.83 1486.38 1501.21 Q1481.8 1496.56 1481.8 1489.73 M1487.64 1487.52 L1504.15 1487.52 Q1504.15 1486.06 1503.88 1484.43 Q1503.64 1482.8 1502.89 1480.56 Q1502.18 1478.29 1500.48 1476.86 Q1498.78 1475.43 1496.27 1475.43 Q1495.15 1475.43 1493.92 1475.91 Q1492.73 1476.38 1491.27 1477.54 Q1489.81 1478.69 1488.79 1481.31 Q1487.78 1483.92 1487.64 1487.52 Z" fill="#000000" fill-rule="nonzero" fill-opacity="1" /><path clip-path="url(#clip610)" d="M1513.05 1505.05 L1513.05 1502.91 Q1516.75 1502.91 1517.6 1502.47 Q1518.45 1501.99 1518.45 1499.75 L1518.45 1481.04 Q1518.45 1478.46 1517.56 1477.84 Q1516.72 1477.23 1513.32 1477.23 L1513.32 1475.06 L1523.03 1474.31 L1523.03 1499.82 Q1523.03 1501.89 1523.78 1502.4 Q1524.53 1502.91 1527.92 1502.91 L1527.92 1505.05 Q1520.83 1504.85 1520.69 1504.85 Q1519.74 1504.85 1513.05 1505.05 M1515.97 1462.19 Q1515.97 1460.79 1517.02 1459.67 Q1518.11 1458.52 1519.64 1458.52 Q1521.17 1458.52 1522.25 1459.57 Q1523.34 1460.59 1523.34 1462.22 Q1523.34 1463.82 1522.25 1464.87 Q1521.17 1465.89 1519.64 1465.89 Q1518.04 1465.89 1516.99 1464.77 Q1515.97 1463.65 1515.97 1462.19 Z" fill="#000000" fill-rule="nonzero" fill-opacity="1" /><path clip-path="url(#clip610)" d="M1532.24 1505.05 L1532.24 1502.91 Q1535.94 1502.91 1536.79 1502.47 Q1537.64 1501.99 1537.64 1499.75 L1537.64 1481.1 Q1537.64 1478.52 1536.72 1477.88 Q1535.84 1477.23 1532.24 1477.23 L1532.24 1475.06 L1542.02 1474.31 L1542.02 1481.61 Q1545.28 1474.31 1552.31 1474.31 Q1557.54 1474.31 1559.62 1476.89 Q1561.14 1478.63 1561.45 1480.56 Q1561.79 1482.5 1561.79 1487.52 L1561.79 1500.81 Q1561.86 1502.27 1562.98 1502.61 Q1564.1 1502.91 1567.22 1502.91 L1567.22 1505.05 Q1560.13 1504.85 1559.41 1504.85 Q1558.87 1504.85 1551.57 1505.05 L1551.57 1502.91 Q1555.27 1502.91 1556.12 1502.47 Q1557 1501.99 1557 1499.75 L1557 1483.55 Q1557 1480.02 1555.91 1477.95 Q1554.83 1475.84 1551.84 1475.84 Q1548.24 1475.84 1545.35 1478.86 Q1542.46 1481.89 1542.46 1486.98 L1542.46 1499.75 Q1542.46 1501.99 1543.31 1502.47 Q1544.19 1502.91 1547.86 1502.91 L1547.86 1505.05 Q1540.76 1504.85 1540.08 1504.85 Q1539.54 1504.85 1532.24 1505.05 Z" fill="#000000" fill-rule="nonzero" fill-opacity="1" /><path clip-path="url(#clip610)" d="M1595.69 1521.46 Q1595.69 1521.12 1595.96 1520.37 L1620.52 1454.75 Q1620.52 1454.68 1620.69 1454.3 Q1620.86 1453.93 1620.96 1453.69 Q1621.06 1453.42 1621.27 1453.22 Q1621.5 1453.01 1621.78 1453.01 Q1622.46 1453.01 1622.46 1453.86 Q1622.46 1453.93 1622.25 1454.75 L1597.63 1520.44 Q1597.22 1521.63 1596.95 1521.97 Q1596.71 1522.31 1596.3 1522.31 Q1595.69 1522.31 1595.69 1521.46 Z" fill="#000000" fill-rule="nonzero" fill-opacity="1" /><path clip-path="url(#clip610)" d="M1651.87 1505.05 L1651.87 1502.91 Q1654.11 1502.84 1655.57 1502.44 Q1657.07 1501.99 1657.92 1500.91 Q1658.8 1499.82 1659.14 1499.11 Q1659.51 1498.36 1660.12 1496.63 L1672.52 1461.1 Q1672.73 1460.32 1673.27 1458.82 Q1673.85 1457.33 1674.05 1456.58 Q1669.06 1454.64 1669.02 1449.11 Q1669.02 1446.19 1670.82 1443.88 Q1672.66 1441.53 1675.65 1441.53 Q1678.57 1441.53 1680.44 1443.84 Q1682.34 1446.12 1682.34 1449.11 Q1682.34 1454.61 1677.31 1456.58 L1691.92 1498.8 Q1692.97 1501.72 1693.96 1502.33 Q1694.98 1502.91 1699.22 1502.91 L1699.49 1502.91 L1699.49 1505.05 Q1695.04 1504.85 1690.59 1504.85 Q1685.5 1504.85 1680.37 1505.05 L1680.37 1502.91 L1680.51 1502.91 Q1686.01 1502.91 1686.01 1500.67 Q1686.01 1500.13 1682.27 1489.19 L1665.02 1489.19 Q1664.61 1490.58 1663.69 1493.1 Q1662.77 1495.57 1662.23 1497.24 Q1661.72 1498.87 1661.72 1499.41 Q1661.72 1500.67 1662.94 1501.76 Q1664.17 1502.81 1666.88 1502.91 L1666.88 1505.05 Q1662.84 1504.85 1658.73 1504.85 Q1655.34 1504.85 1651.87 1505.05 M1665.76 1487.05 L1681.49 1487.05 L1673.64 1464.43 L1665.76 1487.05 M1670.79 1449.04 Q1670.79 1452.5 1672.28 1453.86 Q1673.78 1455.19 1675.72 1455.19 Q1677.65 1455.19 1679.11 1453.86 Q1680.57 1452.54 1680.57 1449.18 Q1680.57 1445.71 1679.08 1444.39 Q1677.58 1443.06 1675.65 1443.06 Q1673.71 1443.06 1672.25 1444.39 Q1670.79 1445.71 1670.79 1449.04 Z" fill="#000000" fill-rule="nonzero" fill-opacity="1" /><polyline clip-path="url(#clip610)" style="stroke:#000000; stroke-linecap:round; stroke-linejoin:round; stroke-width:4; stroke-opacity:1; fill:none" points="275.159,1360.19 275.159,110.236 "/>
<polyline clip-path="url(#clip610)" style="stroke:#000000; stroke-linecap:round; stroke-linejoin:round; stroke-width:4; stroke-opacity:1; fill:none" points="2289.76,1360.19 2289.76,110.236 "/>
<polyline clip-path="url(#clip610)" style="stroke:#000000; stroke-linecap:round; stroke-linejoin:round; stroke-width:4; stroke-opacity:1; fill:none" points="275.159,1355.99 294.057,1355.99 "/>
<polyline clip-path="url(#clip610)" style="stroke:#000000; stroke-linecap:round; stroke-linejoin:round; stroke-width:4; stroke-opacity:1; fill:none" points="275.159,981.872 294.057,981.872 "/>
<polyline clip-path="url(#clip610)" style="stroke:#000000; stroke-linecap:round; stroke-linejoin:round; stroke-width:4; stroke-opacity:1; fill:none" points="275.159,607.756 294.057,607.756 "/>
<polyline clip-path="url(#clip610)" style="stroke:#000000; stroke-linecap:round; stroke-linejoin:round; stroke-width:4; stroke-opacity:1; fill:none" points="275.159,233.64 294.057,233.64 "/>
<polyline clip-path="url(#clip610)" style="stroke:#000000; stroke-linecap:round; stroke-linejoin:round; stroke-width:4; stroke-opacity:1; fill:none" points="2289.76,1355.99 2270.87,1355.99 "/>
<polyline clip-path="url(#clip610)" style="stroke:#000000; stroke-linecap:round; stroke-linejoin:round; stroke-width:4; stroke-opacity:1; fill:none" points="2289.76,981.872 2270.87,981.872 "/>
<polyline clip-path="url(#clip610)" style="stroke:#000000; stroke-linecap:round; stroke-linejoin:round; stroke-width:4; stroke-opacity:1; fill:none" points="2289.76,607.756 2270.87,607.756 "/>
<polyline clip-path="url(#clip610)" style="stroke:#000000; stroke-linecap:round; stroke-linejoin:round; stroke-width:4; stroke-opacity:1; fill:none" points="2289.76,233.64 2270.87,233.64 "/>
<path clip-path="url(#clip610)" d="M179.056 1357.09 Q179.056 1349.65 180.933 1345.6 Q183.552 1339.57 189.727 1339.57 Q191.037 1339.57 192.395 1339.94 Q193.779 1340.29 195.508 1341.65 Q197.262 1343.01 198.324 1345.23 Q200.35 1349.53 200.35 1357.09 Q200.35 1364.47 198.472 1368.5 Q195.73 1374.38 189.678 1374.38 Q187.405 1374.38 185.083 1373.22 Q182.786 1372.06 181.328 1369.27 Q179.056 1365.09 179.056 1357.09 M183.255 1356.47 Q183.255 1364.1 183.799 1367.14 Q184.416 1370.43 186.096 1371.86 Q187.801 1373.27 189.678 1373.27 Q191.704 1373.27 193.384 1371.76 Q195.088 1370.23 195.607 1366.94 Q196.175 1363.71 196.15 1356.47 Q196.15 1349.43 195.656 1346.61 Q194.989 1343.33 193.211 1342.02 Q191.457 1340.68 189.678 1340.68 Q189.011 1340.68 188.295 1340.88 Q187.603 1341.08 186.59 1341.65 Q185.577 1342.22 184.787 1343.62 Q184.021 1345.03 183.65 1347.16 Q183.255 1349.9 183.255 1356.47 Z" fill="#000000" fill-rule="nonzero" fill-opacity="1" /><path clip-path="url(#clip610)" d="M207.44 1372.45 Q206.674 1371.64 206.674 1370.58 Q206.674 1369.51 207.44 1368.75 Q208.206 1367.96 209.367 1367.96 Q210.478 1367.96 211.219 1368.7 Q211.985 1369.41 211.985 1370.6 Q211.985 1371.76 211.17 1372.53 Q210.379 1373.27 209.367 1373.27 Q208.206 1373.27 207.44 1372.45 Z" fill="#000000" fill-rule="nonzero" fill-opacity="1" /><path clip-path="url(#clip610)" d="M218.952 1365.12 Q218.952 1363.61 219.767 1363.04 Q220.582 1362.45 221.447 1362.45 Q222.608 1362.45 223.275 1363.19 Q223.966 1363.91 223.966 1364.92 Q223.966 1365.93 223.275 1366.67 Q222.608 1367.39 221.447 1367.39 Q220.878 1367.39 220.582 1367.29 Q221.249 1369.61 223.275 1371.29 Q225.325 1372.97 228.018 1372.97 Q231.402 1372.97 233.428 1369.69 Q234.638 1367.56 234.638 1362.74 Q234.638 1358.5 233.724 1356.37 Q232.316 1353.13 229.426 1353.13 Q225.325 1353.13 222.904 1356.67 Q222.608 1357.11 222.262 1357.14 Q221.768 1357.14 221.644 1356.87 Q221.545 1356.57 221.545 1355.8 L221.545 1340.83 Q221.545 1339.62 222.039 1339.62 Q222.237 1339.62 222.657 1339.77 Q225.844 1341.18 229.376 1341.2 Q233.008 1341.2 236.269 1339.72 Q236.516 1339.57 236.664 1339.57 Q237.158 1339.57 237.183 1340.14 Q237.183 1340.34 236.763 1340.93 Q236.367 1341.5 235.503 1342.27 Q234.638 1343.01 233.527 1343.72 Q232.415 1344.44 230.784 1344.93 Q229.179 1345.4 227.4 1345.4 Q225.276 1345.4 223.102 1344.74 L223.102 1354.59 Q225.72 1352.02 229.525 1352.02 Q233.576 1352.02 236.367 1355.28 Q239.159 1358.54 239.159 1363.09 Q239.159 1367.86 235.849 1371.12 Q232.563 1374.38 228.117 1374.38 Q224.065 1374.38 221.496 1371.49 Q218.952 1368.6 218.952 1365.12 Z" fill="#000000" fill-rule="nonzero" fill-opacity="1" /><path clip-path="url(#clip610)" d="M178.66 982.971 Q178.66 975.535 180.538 971.484 Q183.156 965.457 189.332 965.457 Q190.642 965.457 192 965.827 Q193.384 966.173 195.113 967.532 Q196.867 968.89 197.929 971.114 Q199.955 975.412 199.955 982.971 Q199.955 990.358 198.077 994.384 Q195.335 1000.26 189.283 1000.26 Q187.01 1000.26 184.688 999.102 Q182.391 997.941 180.933 995.15 Q178.66 990.975 178.66 982.971 M182.86 982.354 Q182.86 989.987 183.403 993.025 Q184.021 996.311 185.701 997.744 Q187.405 999.152 189.283 999.152 Q191.308 999.152 192.988 997.645 Q194.693 996.113 195.212 992.828 Q195.78 989.592 195.755 982.354 Q195.755 975.313 195.261 972.497 Q194.594 969.211 192.815 967.902 Q191.061 966.568 189.283 966.568 Q188.616 966.568 187.899 966.766 Q187.208 966.963 186.195 967.532 Q185.182 968.1 184.392 969.508 Q183.626 970.916 183.255 973.04 Q182.86 975.783 182.86 982.354 Z" fill="#000000" fill-rule="nonzero" fill-opacity="1" /><path clip-path="url(#clip610)" d="M207.045 998.337 Q206.279 997.521 206.279 996.459 Q206.279 995.397 207.045 994.631 Q207.81 993.841 208.971 993.841 Q210.083 993.841 210.824 994.582 Q211.59 995.298 211.59 996.484 Q211.59 997.645 210.775 998.411 Q209.984 999.152 208.971 999.152 Q207.81 999.152 207.045 998.337 Z" fill="#000000" fill-rule="nonzero" fill-opacity="1" /><path clip-path="url(#clip610)" d="M218.161 983.169 Q218.161 975.214 222.212 970.348 Q226.264 965.457 231.476 965.457 Q234.515 965.457 236.194 967.013 Q237.899 968.544 237.899 970.916 Q237.899 972.225 237.133 972.793 Q236.367 973.362 235.577 973.362 Q234.663 973.362 233.946 972.744 Q233.23 972.126 233.23 971.015 Q233.23 968.742 236.022 968.742 Q234.712 966.716 231.575 966.716 Q230.612 966.716 229.623 967.013 Q228.635 967.285 227.351 968.223 Q226.066 969.162 225.078 970.644 Q224.09 972.126 223.398 974.918 Q222.706 977.709 222.706 981.341 L222.706 982.551 Q224.782 977.536 229.031 977.561 Q233.28 977.561 236.219 980.797 Q239.159 984.033 239.159 988.826 Q239.159 993.742 236.096 997.003 Q233.032 1000.26 228.734 1000.26 Q226.807 1000.26 225.053 999.448 Q223.324 998.658 221.694 996.83 Q220.088 995.002 219.124 991.494 Q218.161 987.986 218.161 983.169 M222.805 987.714 Q222.805 992.68 223.719 995.051 Q223.868 995.446 224.189 995.99 Q224.535 996.533 225.103 997.25 Q225.696 997.941 226.659 998.411 Q227.622 998.855 228.734 998.855 Q232.118 998.855 233.749 995.57 Q234.613 993.742 234.613 988.776 Q234.613 983.712 233.699 981.86 Q232.143 978.722 228.981 978.722 Q226.857 978.722 225.374 980.18 Q223.917 981.637 223.349 983.589 Q222.805 985.54 222.805 987.714 Z" fill="#000000" fill-rule="nonzero" fill-opacity="1" /><path clip-path="url(#clip610)" d="M177.252 608.855 Q177.252 601.419 179.13 597.368 Q181.748 591.34 187.924 591.34 Q189.233 591.34 190.592 591.711 Q191.975 592.057 193.705 593.415 Q195.459 594.774 196.521 596.997 Q198.547 601.296 198.547 608.855 Q198.547 616.241 196.669 620.268 Q193.927 626.147 187.875 626.147 Q185.602 626.147 183.28 624.986 Q180.982 623.825 179.525 621.034 Q177.252 616.859 177.252 608.855 M181.452 608.237 Q181.452 615.871 181.995 618.909 Q182.613 622.195 184.293 623.628 Q185.997 625.036 187.875 625.036 Q189.9 625.036 191.58 623.529 Q193.285 621.997 193.804 618.712 Q194.372 615.476 194.347 608.237 Q194.347 601.197 193.853 598.381 Q193.186 595.095 191.407 593.786 Q189.653 592.452 187.875 592.452 Q187.208 592.452 186.491 592.65 Q185.8 592.847 184.787 593.415 Q183.774 593.984 182.983 595.392 Q182.218 596.8 181.847 598.924 Q181.452 601.666 181.452 608.237 Z" fill="#000000" fill-rule="nonzero" fill-opacity="1" /><path clip-path="url(#clip610)" d="M205.636 624.221 Q204.871 623.405 204.871 622.343 Q204.871 621.281 205.636 620.515 Q206.402 619.724 207.563 619.724 Q208.675 619.724 209.416 620.466 Q210.182 621.182 210.182 622.368 Q210.182 623.529 209.367 624.295 Q208.576 625.036 207.563 625.036 Q206.402 625.036 205.636 624.221 Z" fill="#000000" fill-rule="nonzero" fill-opacity="1" /><path clip-path="url(#clip610)" d="M217.469 601.246 L219.124 590.846 L220.384 590.846 Q220.533 591.464 220.78 591.736 Q221.051 592.007 222.484 592.23 Q223.942 592.452 226.881 592.452 L239.159 592.452 Q239.159 593.613 238.714 594.231 L231.871 603.84 Q229.698 606.879 228.734 612.486 Q228.166 616.241 228.191 620.787 L228.191 623.356 Q228.191 626.147 225.844 626.147 Q223.522 626.147 223.522 623.356 Q223.522 613.697 229.747 604.334 Q230.414 603.371 232.86 599.937 Q235.33 596.503 235.429 596.355 L224.954 596.355 Q220.36 596.355 219.989 596.652 Q219.495 597.096 218.729 601.246 L217.469 601.246 Z" fill="#000000" fill-rule="nonzero" fill-opacity="1" /><path clip-path="url(#clip610)" d="M178.66 234.739 Q178.66 227.303 180.538 223.252 Q183.156 217.224 189.332 217.224 Q190.642 217.224 192 217.595 Q193.384 217.941 195.113 219.299 Q196.867 220.658 197.929 222.881 Q199.955 227.18 199.955 234.739 Q199.955 242.125 198.077 246.152 Q195.335 252.031 189.283 252.031 Q187.01 252.031 184.688 250.87 Q182.391 249.709 180.933 246.918 Q178.66 242.743 178.66 234.739 M182.86 234.121 Q182.86 241.755 183.403 244.793 Q184.021 248.079 185.701 249.511 Q187.405 250.92 189.283 250.92 Q191.308 250.92 192.988 249.413 Q194.693 247.881 195.212 244.595 Q195.78 241.359 195.755 234.121 Q195.755 227.081 195.261 224.265 Q194.594 220.979 192.815 219.67 Q191.061 218.336 189.283 218.336 Q188.616 218.336 187.899 218.533 Q187.208 218.731 186.195 219.299 Q185.182 219.867 184.392 221.276 Q183.626 222.684 183.255 224.808 Q182.86 227.55 182.86 234.121 Z" fill="#000000" fill-rule="nonzero" fill-opacity="1" /><path clip-path="url(#clip610)" d="M207.045 250.104 Q206.279 249.289 206.279 248.227 Q206.279 247.165 207.045 246.399 Q207.81 245.608 208.971 245.608 Q210.083 245.608 210.824 246.349 Q211.59 247.066 211.59 248.252 Q211.59 249.413 210.775 250.178 Q209.984 250.92 208.971 250.92 Q207.81 250.92 207.045 250.104 Z" fill="#000000" fill-rule="nonzero" fill-opacity="1" /><path clip-path="url(#clip610)" d="M218.161 243.286 Q218.161 237.629 225.449 233.973 Q222.311 231.849 221.743 231.231 Q219.52 228.761 219.52 225.673 Q219.52 222.14 222.188 219.694 Q224.88 217.224 228.685 217.224 Q232.316 217.224 235.058 219.324 Q237.8 221.424 237.8 224.759 Q237.8 229.452 231.674 232.614 Q235.725 235.134 236.689 236.196 Q239.159 238.938 239.159 242.422 Q239.159 246.473 236.046 249.264 Q232.934 252.031 228.635 252.031 Q224.436 252.031 221.298 249.586 Q218.161 247.14 218.161 243.286 M220.681 243.286 Q220.681 246.424 223.028 248.523 Q225.399 250.623 228.685 250.623 Q231.871 250.623 234.243 248.795 Q236.639 246.967 236.639 244.25 Q236.639 243.187 236.269 242.273 Q235.923 241.359 235.206 240.643 Q234.515 239.902 234.07 239.581 Q233.65 239.235 232.835 238.667 L226.61 234.739 Q220.681 238.024 220.681 243.286 M221.743 223.696 Q221.743 226.117 224.287 227.797 L230.562 231.849 Q235.577 228.909 235.577 224.759 Q235.577 222.066 233.527 220.287 Q231.476 218.484 228.635 218.484 Q225.844 218.484 223.793 219.966 Q221.743 221.424 221.743 223.696 Z" fill="#000000" fill-rule="nonzero" fill-opacity="1" /><path clip-path="url(#clip610)" d="M115.787 1164.11 Q113.715 1164.11 112.934 1162.99 Q112.119 1161.87 112.119 1160.68 Q112.119 1159.09 113.138 1158.17 Q114.123 1157.22 115.515 1157.22 Q116.908 1157.22 117.927 1158.17 Q118.912 1159.09 118.912 1160.68 Q118.912 1161.47 118.776 1161.87 Q121.969 1160.96 124.279 1158.17 Q126.589 1155.35 126.589 1151.65 Q126.589 1147 122.071 1144.21 Q119.15 1142.55 112.526 1142.55 Q106.684 1142.55 103.763 1143.8 Q99.3131 1145.74 99.3131 1149.71 Q99.3131 1155.35 104.17 1158.68 Q104.782 1159.09 104.816 1159.56 Q104.816 1160.24 104.442 1160.41 Q104.035 1160.55 102.982 1160.55 L82.3975 1160.55 Q80.7331 1160.55 80.7331 1159.87 Q80.7331 1159.6 80.9369 1159.02 Q82.873 1154.64 82.907 1149.78 Q82.907 1144.79 80.8689 1140.3 Q80.6651 1139.96 80.6651 1139.76 Q80.6651 1139.08 81.4464 1139.05 Q81.7181 1139.05 82.5333 1139.62 Q83.3146 1140.17 84.3675 1141.36 Q85.3866 1142.55 86.3716 1144.07 Q87.3567 1145.6 88.036 1147.84 Q88.6814 1150.05 88.6814 1152.5 Q88.6814 1155.42 87.7643 1158.41 L101.317 1158.41 Q97.7846 1154.81 97.7846 1149.58 Q97.7846 1144.01 102.268 1140.17 Q106.752 1136.33 113.002 1136.33 Q119.557 1136.33 124.041 1140.88 Q128.525 1145.4 128.525 1151.51 Q128.525 1157.08 124.551 1160.62 Q120.576 1164.11 115.787 1164.11 Z" fill="#000000" fill-rule="nonzero" fill-opacity="1" /><path clip-path="url(#clip610)" d="M104.748 1130.08 Q94.5237 1130.08 88.9531 1127.5 Q80.6651 1123.9 80.6651 1115.41 Q80.6651 1113.61 81.1746 1111.74 Q81.6502 1109.84 83.5184 1107.46 Q85.3866 1105.05 88.4436 1103.59 Q94.3539 1100.8 104.748 1100.8 Q114.904 1100.8 120.441 1103.38 Q128.525 1107.15 128.525 1115.47 Q128.525 1118.6 126.928 1121.79 Q125.332 1124.95 121.494 1126.95 Q115.753 1130.08 104.748 1130.08 M103.899 1124.31 Q114.394 1124.31 118.572 1123.56 Q123.09 1122.71 125.06 1120.4 Q126.996 1118.06 126.996 1115.47 Q126.996 1112.69 124.924 1110.38 Q122.818 1108.04 118.301 1107.32 Q113.851 1106.54 103.899 1106.57 Q94.218 1106.57 90.3458 1107.25 Q85.8281 1108.17 84.0279 1110.62 Q82.1937 1113.03 82.1937 1115.47 Q82.1937 1116.39 82.4654 1117.38 Q82.7371 1118.33 83.5184 1119.72 Q84.2996 1121.11 86.2357 1122.2 Q88.1719 1123.25 91.093 1123.76 Q94.8634 1124.31 103.899 1124.31 Z" fill="#000000" fill-rule="nonzero" fill-opacity="1" /><path clip-path="url(#clip610)" d="M88.8172 1094.11 Q82.839 1094.11 78.8309 1091.05 Q74.8228 1087.99 74.8228 1083.88 Q74.8228 1081.37 77.0646 1078.89 Q82.4314 1073.25 82.3975 1065.88 Q82.3975 1057.53 75.8078 1052.67 Q74.8228 1051.82 74.8228 1051.21 Q74.8228 1050.66 75.2644 1050.26 Q75.672 1049.82 76.2154 1049.82 Q76.623 1049.82 77.4722 1050.36 L129.85 1085.55 Q130.903 1086.33 130.903 1086.94 Q130.903 1087.48 130.461 1087.93 Q130.053 1088.33 129.51 1088.33 Q129.034 1088.33 128.117 1087.72 L81.5822 1056.47 L81.5143 1056.54 Q83.9599 1060.14 83.926 1065.81 Q83.926 1071.18 81.0048 1076.31 Q84.6053 1074.85 88.8852 1074.85 Q94.7275 1074.85 98.8036 1077.46 Q102.846 1080.08 102.846 1083.88 Q102.846 1087.99 98.9055 1091.05 Q94.9313 1094.11 88.8172 1094.11 M83.1447 1089.32 Q85.5904 1089.79 88.8852 1089.79 Q92.146 1089.79 94.5917 1089.32 Q97.0033 1088.84 98.2601 1088.16 Q99.5169 1087.45 100.264 1086.5 Q100.977 1085.55 101.147 1084.97 Q101.317 1084.39 101.317 1083.82 Q101.317 1080.96 97.7846 1078.79 Q94.218 1076.58 88.8172 1076.58 Q83.5184 1076.58 79.9518 1078.79 Q76.3513 1080.96 76.3513 1083.82 Q76.3513 1084.43 76.5211 1085.04 Q76.691 1085.62 77.4383 1086.53 Q78.1516 1087.45 79.4083 1088.16 Q80.6651 1088.84 83.1447 1089.32 M116.84 1063.3 Q110.862 1063.3 106.854 1060.24 Q102.846 1057.19 102.846 1053.08 Q102.846 1049.31 106.922 1046.69 Q110.998 1044.04 116.908 1044.04 Q122.75 1044.04 126.826 1046.66 Q130.903 1049.24 130.903 1053.08 Q130.903 1057.19 126.928 1060.24 Q122.954 1063.3 116.84 1063.3 M111.168 1058.51 Q113.647 1058.99 116.908 1058.99 Q120.169 1058.99 122.615 1058.51 Q125.06 1058 126.317 1057.32 Q127.54 1056.61 128.253 1055.69 Q129 1054.74 129.17 1054.16 Q129.374 1053.55 129.374 1053.01 Q129.374 1050.16 125.841 1047.98 Q122.275 1045.77 116.84 1045.77 Q111.541 1045.77 107.975 1047.98 Q104.374 1050.16 104.374 1053.01 Q104.374 1053.62 104.578 1054.23 Q104.748 1054.81 105.495 1055.73 Q106.208 1056.61 107.465 1057.32 Q108.688 1058 111.168 1058.51 Z" fill="#000000" fill-rule="nonzero" fill-opacity="1" /><path clip-path="url(#clip610)" d="M126.996 1015.03 L124.856 1015.03 Q124.856 1011.33 124.415 1010.48 Q123.939 1009.6 121.697 1009.6 L103.049 1009.6 Q100.468 1009.6 99.8226 1010.52 Q99.1772 1011.4 99.1772 1015.03 L97.0033 1015.03 L96.256 1005.35 L103.899 1005.35 Q100.91 1004.37 98.5998 1002.3 Q96.256 1000.19 96.256 996.793 Q96.256 994.551 97.5128 993.124 Q98.7696 991.664 100.502 991.664 Q102.03 991.664 102.812 992.615 Q103.559 993.532 103.559 994.653 Q103.559 995.91 102.778 996.793 Q101.963 997.642 100.57 997.642 Q99.7207 997.642 99.0753 997.268 Q98.396 996.861 98.1582 996.555 Q97.9204 996.249 97.8525 996.045 Q97.7846 996.181 97.7846 996.793 Q97.7846 1000.63 101.623 1002.84 Q105.427 1005.01 110.862 1005.01 L121.562 1005.01 Q123.566 1005.01 124.211 1004.2 Q124.856 1003.35 124.856 999.714 L124.856 998.253 L126.996 998.253 Q126.792 1001.04 126.792 1007.08 Q126.792 1007.93 126.826 1009.26 Q126.86 1010.58 126.928 1012.32 Q126.996 1014.05 126.996 1015.03 Z" fill="#000000" fill-rule="nonzero" fill-opacity="1" /><path clip-path="url(#clip610)" d="M111.677 987.859 Q105.121 987.859 100.468 983.647 Q95.8145 979.436 95.8145 973.389 Q95.8145 967.275 99.7886 964.116 Q103.763 960.923 109.469 960.923 Q110.522 960.923 110.726 961.195 Q110.93 961.467 110.93 962.656 L110.93 982.085 Q118.029 982.085 121.358 979.979 Q126.011 977.058 126.011 972.133 Q126.011 971.453 125.875 970.638 Q125.74 969.823 125.162 968.158 Q124.551 966.494 122.954 965.033 Q121.358 963.573 118.844 962.724 Q117.859 962.52 117.893 961.841 Q117.893 960.923 118.708 960.923 Q119.32 960.923 120.712 961.603 Q122.071 962.248 123.701 963.505 Q125.332 964.762 126.555 967.207 Q127.778 969.619 127.778 972.54 Q127.778 978.654 123.158 983.274 Q118.505 987.859 111.677 987.859 M109.469 982.017 L109.469 965.509 Q108.009 965.509 106.378 965.781 Q104.748 966.019 102.506 966.766 Q100.23 967.479 98.8036 969.177 Q97.377 970.876 97.377 973.389 Q97.377 974.51 97.8525 975.733 Q98.328 976.922 99.4829 978.383 Q100.638 979.843 103.253 980.862 Q105.869 981.881 109.469 982.017 Z" fill="#000000" fill-rule="nonzero" fill-opacity="1" /><path clip-path="url(#clip610)" d="M126.079 956.61 L116.908 956.61 Q116.127 956.61 115.855 956.576 Q115.583 956.542 115.38 956.338 Q115.176 956.134 115.176 955.727 Q115.176 955.251 115.38 955.081 Q115.583 954.877 116.365 954.741 Q121.154 953.688 123.701 951.447 Q126.215 949.171 126.215 945.061 Q126.215 941.155 124.483 939.185 Q122.75 937.214 119.897 937.214 Q114.802 937.214 113.511 944.449 Q112.662 948.627 112.119 950.36 Q111.541 952.092 110.284 953.621 Q107.839 956.61 104.374 956.61 Q100.91 956.61 98.362 953.994 Q95.8145 951.345 95.8145 945.502 Q95.8145 941.596 97.7846 938.947 Q97.1732 938.166 96.6636 937.758 Q95.8145 936.841 95.8145 936.365 Q95.8145 935.822 96.1881 935.72 Q96.5278 935.618 97.5128 935.618 L104.51 935.618 Q105.291 935.618 105.563 935.652 Q105.835 935.686 106.039 935.89 Q106.208 936.094 106.208 936.535 Q106.208 937.316 105.563 937.35 Q97.1392 937.894 97.1392 945.502 Q97.1392 949.612 98.7356 951.447 Q100.298 953.281 102.438 953.281 Q103.627 953.281 104.544 952.737 Q105.427 952.16 105.971 951.447 Q106.48 950.699 106.99 949.341 Q107.465 947.982 107.635 947.167 Q107.805 946.318 108.145 944.721 Q109.198 939.151 111.473 936.807 Q114.394 933.886 118.097 933.886 Q122.207 933.886 124.992 936.671 Q127.778 939.456 127.778 945.061 Q127.778 949.578 124.754 952.737 Q125.162 953.145 125.536 953.451 Q125.875 953.756 126.011 953.892 Q126.147 953.994 126.249 954.028 Q126.317 954.062 126.385 954.13 Q127.778 955.523 127.778 955.862 Q127.778 956.406 127.404 956.508 Q127.064 956.61 126.079 956.61 Z" fill="#000000" fill-rule="nonzero" fill-opacity="1" /><path clip-path="url(#clip610)" d="M126.996 929.232 L124.856 929.232 Q124.856 925.53 124.415 924.681 Q123.939 923.831 121.697 923.831 L102.982 923.831 Q100.4 923.831 99.7886 924.715 Q99.1772 925.564 99.1772 928.96 L97.0033 928.96 L96.256 919.246 L121.765 919.246 Q123.837 919.246 124.347 918.499 Q124.856 917.751 124.856 914.355 L126.996 914.355 Q126.792 921.454 126.792 921.59 Q126.792 922.541 126.996 929.232 M84.1298 926.311 Q82.7371 926.311 81.6162 925.258 Q80.4613 924.171 80.4613 922.643 Q80.4613 921.114 81.5143 920.027 Q82.5333 918.94 84.1637 918.94 Q85.7602 918.94 86.8132 920.027 Q87.8322 921.114 87.8322 922.643 Q87.8322 924.239 86.7113 925.292 Q85.5904 926.311 84.1298 926.311 Z" fill="#000000" fill-rule="nonzero" fill-opacity="1" /><path clip-path="url(#clip610)" d="M112.051 909.905 Q105.427 909.905 100.842 905.285 Q96.256 900.666 96.256 894.416 Q96.256 889.117 100.57 885.652 L85.5224 885.652 Q82.9409 885.652 82.2956 886.569 Q81.6502 887.453 81.6502 891.053 L79.4763 891.053 L78.729 881.033 L120.95 881.033 Q123.532 881.033 124.211 880.15 Q124.856 879.233 124.856 875.632 L126.996 875.632 L127.778 885.856 L123.158 885.856 Q127.744 889.457 127.778 895.163 Q127.778 901.141 123.192 905.523 Q118.606 909.905 112.051 909.905 M112.119 904.13 Q118.572 904.13 121.765 902.126 Q126.215 899.341 126.215 894.823 Q126.215 889.66 121.358 886.603 Q120.169 885.822 118.776 885.856 L104.51 885.856 Q103.117 885.856 101.963 886.603 Q97.7846 889.457 97.7846 894.11 Q97.7846 898.967 102.234 901.991 Q105.563 904.13 112.119 904.13 Z" fill="#000000" fill-rule="nonzero" fill-opacity="1" /><path clip-path="url(#clip610)" d="M111.677 871.76 Q105.121 871.76 100.468 867.548 Q95.8145 863.336 95.8145 857.29 Q95.8145 851.176 99.7886 848.017 Q103.763 844.824 109.469 844.824 Q110.522 844.824 110.726 845.096 Q110.93 845.367 110.93 846.556 L110.93 865.985 Q118.029 865.985 121.358 863.879 Q126.011 860.958 126.011 856.033 Q126.011 855.354 125.875 854.538 Q125.74 853.723 125.162 852.059 Q124.551 850.394 122.954 848.934 Q121.358 847.473 118.844 846.624 Q117.859 846.42 117.893 845.741 Q117.893 844.824 118.708 844.824 Q119.32 844.824 120.712 845.503 Q122.071 846.149 123.701 847.405 Q125.332 848.662 126.555 851.108 Q127.778 853.519 127.778 856.441 Q127.778 862.555 123.158 867.174 Q118.505 871.76 111.677 871.76 M109.469 865.917 L109.469 849.409 Q108.009 849.409 106.378 849.681 Q104.748 849.919 102.506 850.666 Q100.23 851.38 98.8036 853.078 Q97.377 854.776 97.377 857.29 Q97.377 858.411 97.8525 859.634 Q98.328 860.822 99.4829 862.283 Q100.638 863.744 103.253 864.763 Q105.869 865.782 109.469 865.917 Z" fill="#000000" fill-rule="nonzero" fill-opacity="1" /><path clip-path="url(#clip610)" d="M126.996 840.578 L124.856 840.578 Q124.856 836.876 124.415 836.026 Q123.939 835.177 121.697 835.177 L103.049 835.177 Q100.468 835.177 99.8226 836.094 Q99.1772 836.977 99.1772 840.578 L97.0033 840.578 L96.256 830.795 L103.559 830.795 Q96.256 827.535 96.256 820.503 Q96.256 815.272 98.8375 813.2 Q100.57 811.672 102.506 811.366 Q104.442 811.027 109.469 811.027 L122.75 811.027 Q124.211 810.959 124.551 809.838 Q124.856 808.717 124.856 805.592 L126.996 805.592 Q126.792 812.691 126.792 813.404 Q126.792 813.948 126.996 821.251 L124.856 821.251 Q124.856 817.548 124.415 816.699 Q123.939 815.816 121.697 815.816 L105.495 815.816 Q101.963 815.816 99.8905 816.903 Q97.7846 817.99 97.7846 820.979 Q97.7846 824.579 100.808 827.467 Q103.831 830.354 108.926 830.354 L121.697 830.354 Q123.939 830.354 124.415 829.505 Q124.856 828.622 124.856 824.953 L126.996 824.953 Q126.792 832.052 126.792 832.732 Q126.792 833.275 126.996 840.578 Z" fill="#000000" fill-rule="nonzero" fill-opacity="1" /><path clip-path="url(#clip610)" d="M123.192 797.44 Q118.572 801.855 111.983 801.855 Q105.359 801.855 100.604 797.508 Q95.8145 793.16 95.8145 786.774 Q95.8145 782.528 97.8525 779.335 Q99.8566 776.142 103.287 776.142 Q104.816 776.142 105.699 777.059 Q106.548 777.943 106.548 779.335 Q106.548 780.796 105.665 781.679 Q104.748 782.528 103.355 782.528 Q102.744 782.528 102.132 782.324 Q101.521 782.121 100.876 781.373 Q100.23 780.592 100.128 779.267 Q97.5808 781.747 97.5808 786.57 Q97.5808 786.638 97.5808 786.706 Q97.5808 790.239 100.91 793.16 Q104.238 796.081 111.847 796.081 Q115.821 796.081 118.742 795.13 Q121.629 794.145 123.124 792.548 Q124.619 790.952 125.332 789.39 Q126.011 787.827 126.011 786.299 Q126.011 779.471 118.708 777.161 Q118.029 776.958 118.029 776.278 Q118.029 775.361 118.708 775.361 Q119.048 775.361 119.931 775.633 Q120.814 775.905 122.207 776.754 Q123.6 777.603 124.822 778.826 Q126.011 780.015 126.894 782.155 Q127.778 784.26 127.778 786.91 Q127.778 793.024 123.192 797.44 Z" fill="#000000" fill-rule="nonzero" fill-opacity="1" /><path clip-path="url(#clip610)" d="M111.677 771.421 Q105.121 771.421 100.468 767.209 Q95.8145 762.997 95.8145 756.951 Q95.8145 750.837 99.7886 747.678 Q103.763 744.485 109.469 744.485 Q110.522 744.485 110.726 744.757 Q110.93 745.028 110.93 746.217 L110.93 765.647 Q118.029 765.647 121.358 763.541 Q126.011 760.619 126.011 755.694 Q126.011 755.015 125.875 754.2 Q125.74 753.384 125.162 751.72 Q124.551 750.056 122.954 748.595 Q121.358 747.134 118.844 746.285 Q117.859 746.081 117.893 745.402 Q117.893 744.485 118.708 744.485 Q119.32 744.485 120.712 745.164 Q122.071 745.81 123.701 747.066 Q125.332 748.323 126.555 750.769 Q127.778 753.181 127.778 756.102 Q127.778 762.216 123.158 766.835 Q118.505 771.421 111.677 771.421 M109.469 765.579 L109.469 749.071 Q108.009 749.071 106.378 749.342 Q104.748 749.58 102.506 750.327 Q100.23 751.041 98.8036 752.739 Q97.377 754.437 97.377 756.951 Q97.377 758.072 97.8525 759.295 Q98.328 760.484 99.4829 761.944 Q100.638 763.405 103.253 764.424 Q105.869 765.443 109.469 765.579 Z" fill="#000000" fill-rule="nonzero" fill-opacity="1" /><path clip-path="url(#clip610)" d="M99.1772 718.025 L97.6487 718.025 Q97.5128 714.832 95.271 712.726 Q92.9952 710.586 90.2099 709.872 Q87.4246 709.125 84.1977 709.057 L84.1977 707.325 L97.0033 707.325 L97.0033 697.373 L99.1772 697.373 L99.1772 707.325 L118.505 707.325 Q126.011 707.325 126.011 702.638 Q126.011 700.633 123.973 699.309 Q121.901 697.984 118.233 697.984 L114.394 697.984 L114.394 696.252 L118.369 696.252 Q122.139 696.252 124.958 697.984 Q127.778 699.716 127.778 703.147 Q127.778 704.404 127.438 705.661 Q127.132 706.883 126.317 708.514 Q125.468 710.11 123.43 711.129 Q121.358 712.114 118.369 712.114 L99.1772 712.114 L99.1772 718.025 Z" fill="#000000" fill-rule="nonzero" fill-opacity="1" /><path clip-path="url(#clip610)" d="M126.996 690.07 L124.856 690.07 Q124.856 686.367 124.415 685.518 Q123.939 684.669 121.697 684.669 L102.982 684.669 Q100.4 684.669 99.7886 685.552 Q99.1772 686.401 99.1772 689.798 L97.0033 689.798 L96.256 680.083 L121.765 680.083 Q123.837 680.083 124.347 679.336 Q124.856 678.589 124.856 675.192 L126.996 675.192 Q126.792 682.291 126.792 682.427 Q126.792 683.378 126.996 690.07 M84.1298 687.148 Q82.7371 687.148 81.6162 686.096 Q80.4613 685.009 80.4613 683.48 Q80.4613 681.952 81.5143 680.865 Q82.5333 679.778 84.1637 679.778 Q85.7602 679.778 86.8132 680.865 Q87.8322 681.952 87.8322 683.48 Q87.8322 685.077 86.7113 686.129 Q85.5904 687.148 84.1298 687.148 Z" fill="#000000" fill-rule="nonzero" fill-opacity="1" /><path clip-path="url(#clip610)" d="M126.996 670.878 L124.856 670.878 Q124.856 667.176 124.415 666.327 Q123.939 665.477 121.697 665.477 L103.049 665.477 Q100.468 665.477 99.8226 666.395 Q99.1772 667.278 99.1772 670.878 L97.0033 670.878 L96.256 661.096 L103.559 661.096 Q96.256 657.835 96.256 650.804 Q96.256 642.652 103.049 641.531 Q100.4 640.342 98.328 637.862 Q96.256 635.349 96.256 631.442 Q96.256 626.211 98.8375 624.139 Q100.57 622.611 102.506 622.305 Q104.442 622 109.469 622 L122.75 622 Q124.211 621.932 124.551 620.811 Q124.856 619.69 124.856 616.565 L126.996 616.565 Q126.792 623.664 126.792 624.343 Q126.792 624.887 126.996 632.224 L124.856 632.224 Q124.856 628.521 124.415 627.672 Q123.939 626.789 121.697 626.789 L105.495 626.789 Q101.963 626.789 99.8905 627.876 Q97.7846 628.963 97.7846 631.952 Q97.7846 635.552 100.808 638.44 Q103.831 641.327 108.926 641.327 L121.697 641.327 Q123.939 641.327 124.415 640.478 Q124.856 639.595 124.856 635.892 L126.996 635.892 Q126.792 642.991 126.792 643.705 Q126.792 644.248 126.996 651.551 L124.856 651.551 Q124.856 647.849 124.415 646.999 Q123.939 646.116 121.697 646.116 L105.495 646.116 Q101.963 646.116 99.8905 647.203 Q97.7846 648.29 97.7846 651.279 Q97.7846 654.88 100.808 657.767 Q103.831 660.654 108.926 660.654 L121.697 660.654 Q123.939 660.654 124.415 659.805 Q124.856 658.922 124.856 655.253 L126.996 655.253 Q126.792 662.352 126.792 663.032 Q126.792 663.575 126.996 670.878 Z" fill="#000000" fill-rule="nonzero" fill-opacity="1" /><path clip-path="url(#clip610)" d="M111.677 613.27 Q105.121 613.27 100.468 609.058 Q95.8145 604.846 95.8145 598.8 Q95.8145 592.686 99.7886 589.527 Q103.763 586.334 109.469 586.334 Q110.522 586.334 110.726 586.606 Q110.93 586.878 110.93 588.066 L110.93 607.496 Q118.029 607.496 121.358 605.39 Q126.011 602.468 126.011 597.543 Q126.011 596.864 125.875 596.049 Q125.74 595.233 125.162 593.569 Q124.551 591.905 122.954 590.444 Q121.358 588.984 118.844 588.134 Q117.859 587.931 117.893 587.251 Q117.893 586.334 118.708 586.334 Q119.32 586.334 120.712 587.013 Q122.071 587.659 123.701 588.916 Q125.332 590.172 126.555 592.618 Q127.778 595.03 127.778 597.951 Q127.778 604.065 123.158 608.684 Q118.505 613.27 111.677 613.27 M109.469 607.428 L109.469 590.92 Q108.009 590.92 106.378 591.191 Q104.748 591.429 102.506 592.176 Q100.23 592.89 98.8036 594.588 Q97.377 596.286 97.377 598.8 Q97.377 599.921 97.8525 601.144 Q98.328 602.333 99.4829 603.793 Q100.638 605.254 103.253 606.273 Q105.869 607.292 109.469 607.428 Z" fill="#000000" fill-rule="nonzero" fill-opacity="1" /><path clip-path="url(#clip610)" d="M143.402 557.224 Q143.063 557.224 142.315 556.953 L76.691 532.394 Q76.623 532.394 76.2494 532.224 Q75.8758 532.055 75.638 531.953 Q75.3663 531.851 75.1625 531.647 Q74.9587 531.409 74.9587 531.138 Q74.9587 530.458 75.8078 530.458 Q75.8758 530.458 76.691 530.662 L142.383 555.288 Q143.572 555.696 143.912 555.967 Q144.252 556.205 144.252 556.613 Q144.252 557.224 143.402 557.224 Z" fill="#000000" fill-rule="nonzero" fill-opacity="1" /><path clip-path="url(#clip610)" d="M99.1772 500.975 L97.0033 500.975 L97.0033 495.506 L89.021 495.506 Q83.858 495.506 80.9029 492.177 Q77.9478 488.814 77.9478 484.704 Q77.9478 481.987 79.4083 480.221 Q80.8689 478.455 82.839 478.455 Q84.1637 478.455 85.0469 479.27 Q85.8961 480.051 85.8961 481.512 Q85.8961 482.904 85.0129 483.719 Q84.1298 484.501 82.907 484.501 Q80.6651 484.501 79.9858 482.429 Q79.5103 483.482 79.4763 484.704 Q79.4763 487.218 82.0578 489.188 Q84.6393 491.124 88.9531 491.124 L97.0033 491.124 L97.0033 482.972 L99.1772 482.972 L99.1772 490.886 L121.562 490.886 Q123.566 490.886 124.211 490.071 Q124.856 489.222 124.856 485.622 L124.856 484.161 L126.996 484.161 Q126.792 486.946 126.792 492.992 Q126.792 493.842 126.826 495.166 Q126.86 496.457 126.928 498.223 Q126.996 499.956 126.996 500.907 L124.856 500.907 Q124.856 497.204 124.415 496.355 Q123.939 495.506 121.697 495.506 L99.1772 495.506 L99.1772 500.975 Z" fill="#000000" fill-rule="nonzero" fill-opacity="1" /><path clip-path="url(#clip610)" d="M126.996 480.153 L124.856 480.153 Q124.856 476.45 124.415 475.601 Q123.939 474.718 121.697 474.718 L103.049 474.718 Q100.468 474.718 99.8226 475.635 Q99.1772 476.518 99.1772 480.153 L97.0033 480.153 L96.256 470.472 L103.899 470.472 Q100.91 469.487 98.5998 467.415 Q96.256 465.309 96.256 461.913 Q96.256 459.671 97.5128 458.244 Q98.7696 456.783 100.502 456.783 Q102.03 456.783 102.812 457.735 Q103.559 458.652 103.559 459.773 Q103.559 461.029 102.778 461.913 Q101.963 462.762 100.57 462.762 Q99.7207 462.762 99.0753 462.388 Q98.396 461.98 98.1582 461.675 Q97.9204 461.369 97.8525 461.165 Q97.7846 461.301 97.7846 461.913 Q97.7846 465.751 101.623 467.959 Q105.427 470.133 110.862 470.133 L121.562 470.133 Q123.566 470.133 124.211 469.317 Q124.856 468.468 124.856 464.834 L124.856 463.373 L126.996 463.373 Q126.792 466.158 126.792 472.205 Q126.792 473.054 126.826 474.378 Q126.86 475.703 126.928 477.435 Q126.996 479.168 126.996 480.153 Z" fill="#000000" fill-rule="nonzero" fill-opacity="1" /><path clip-path="url(#clip610)" d="M120.373 451.994 Q114.462 451.994 111.337 445.031 Q109.333 440.853 108.824 432.225 L106.276 432.225 Q101.963 432.225 99.6867 434.501 Q97.377 436.743 97.377 439.596 Q97.377 444.691 100.57 447.137 Q100.638 445.065 101.691 444.318 Q102.71 443.57 103.763 443.57 Q105.155 443.57 106.073 444.453 Q106.956 445.303 106.956 446.763 Q106.956 448.156 106.107 449.073 Q105.223 449.99 103.695 449.99 Q100.298 449.99 98.0563 446.933 Q95.8145 443.842 95.8145 439.46 Q95.8145 433.754 99.6528 429.949 Q100.842 428.761 102.37 428.183 Q103.899 427.572 104.918 427.504 Q105.903 427.436 107.873 427.436 L121.765 427.436 Q122.173 427.436 122.852 427.3 Q123.532 427.164 124.415 426.553 Q125.264 425.907 125.264 424.854 Q125.264 422.341 120.814 422.375 L116.908 422.375 L116.908 420.609 L120.814 420.609 Q124.517 420.609 125.977 422.579 Q127.404 424.515 127.404 426.315 Q127.404 428.625 125.706 430.085 Q124.007 431.546 121.697 431.75 Q124.347 432.803 126.079 435.214 Q127.778 437.592 127.778 440.853 Q127.778 443.366 127.132 445.744 Q126.521 448.088 124.788 450.058 Q123.022 451.994 120.373 451.994 M120.305 446.627 Q122.886 446.627 124.551 444.793 Q126.215 442.959 126.215 440.377 Q126.215 437.456 123.973 434.841 Q121.697 432.225 117.248 432.225 L110.284 432.225 Q110.556 439.936 113.647 443.299 Q116.704 446.627 120.305 446.627 Z" fill="#000000" fill-rule="nonzero" fill-opacity="1" /><path clip-path="url(#clip610)" d="M126.996 417.891 L124.856 417.891 Q124.856 414.189 124.415 413.34 Q123.939 412.49 121.697 412.49 L103.049 412.49 Q100.468 412.49 99.8226 413.407 Q99.1772 414.291 99.1772 417.891 L97.0033 417.891 L96.256 408.109 L103.559 408.109 Q96.256 404.848 96.256 397.817 Q96.256 389.664 103.049 388.544 Q100.4 387.355 98.328 384.875 Q96.256 382.362 96.256 378.455 Q96.256 373.224 98.8375 371.152 Q100.57 369.624 102.506 369.318 Q104.442 369.012 109.469 369.012 L122.75 369.012 Q124.211 368.945 124.551 367.824 Q124.856 366.703 124.856 363.578 L126.996 363.578 Q126.792 370.677 126.792 371.356 Q126.792 371.9 126.996 379.237 L124.856 379.237 Q124.856 375.534 124.415 374.685 Q123.939 373.802 121.697 373.802 L105.495 373.802 Q101.963 373.802 99.8905 374.889 Q97.7846 375.976 97.7846 378.965 Q97.7846 382.565 100.808 385.453 Q103.831 388.34 108.926 388.34 L121.697 388.34 Q123.939 388.34 124.415 387.491 Q124.856 386.607 124.856 382.905 L126.996 382.905 Q126.792 390.004 126.792 390.717 Q126.792 391.261 126.996 398.564 L124.856 398.564 Q124.856 394.861 124.415 394.012 Q123.939 393.129 121.697 393.129 L105.495 393.129 Q101.963 393.129 99.8905 394.216 Q97.7846 395.303 97.7846 398.292 Q97.7846 401.893 100.808 404.78 Q103.831 407.667 108.926 407.667 L121.697 407.667 Q123.939 407.667 124.415 406.818 Q124.856 405.935 124.856 402.266 L126.996 402.266 Q126.792 409.365 126.792 410.045 Q126.792 410.588 126.996 417.891 Z" fill="#000000" fill-rule="nonzero" fill-opacity="1" /><path clip-path="url(#clip610)" d="M111.677 360.283 Q105.121 360.283 100.468 356.071 Q95.8145 351.859 95.8145 345.813 Q95.8145 339.699 99.7886 336.54 Q103.763 333.347 109.469 333.347 Q110.522 333.347 110.726 333.619 Q110.93 333.89 110.93 335.079 L110.93 354.508 Q118.029 354.508 121.358 352.403 Q126.011 349.481 126.011 344.556 Q126.011 343.877 125.875 343.062 Q125.74 342.246 125.162 340.582 Q124.551 338.918 122.954 337.457 Q121.358 335.996 118.844 335.147 Q117.859 334.943 117.893 334.264 Q117.893 333.347 118.708 333.347 Q119.32 333.347 120.712 334.026 Q122.071 334.672 123.701 335.928 Q125.332 337.185 126.555 339.631 Q127.778 342.043 127.778 344.964 Q127.778 351.078 123.158 355.697 Q118.505 360.283 111.677 360.283 M109.469 354.441 L109.469 337.933 Q108.009 337.933 106.378 338.204 Q104.748 338.442 102.506 339.189 Q100.23 339.903 98.8036 341.601 Q97.377 343.299 97.377 345.813 Q97.377 346.934 97.8525 348.157 Q98.328 349.345 99.4829 350.806 Q100.638 352.267 103.253 353.286 Q105.869 354.305 109.469 354.441 Z" fill="#000000" fill-rule="nonzero" fill-opacity="1" /><path clip-path="url(#clip610)" d="M126.079 329.033 L116.908 329.033 Q116.127 329.033 115.855 328.999 Q115.583 328.965 115.38 328.761 Q115.176 328.558 115.176 328.15 Q115.176 327.674 115.38 327.505 Q115.583 327.301 116.365 327.165 Q121.154 326.112 123.701 323.87 Q126.215 321.594 126.215 317.484 Q126.215 313.578 124.483 311.608 Q122.75 309.638 119.897 309.638 Q114.802 309.638 113.511 316.873 Q112.662 321.051 112.119 322.783 Q111.541 324.516 110.284 326.044 Q107.839 329.033 104.374 329.033 Q100.91 329.033 98.362 326.418 Q95.8145 323.768 95.8145 317.926 Q95.8145 314.02 97.7846 311.37 Q97.1732 310.589 96.6636 310.181 Q95.8145 309.264 95.8145 308.789 Q95.8145 308.245 96.1881 308.143 Q96.5278 308.041 97.5128 308.041 L104.51 308.041 Q105.291 308.041 105.563 308.075 Q105.835 308.109 106.039 308.313 Q106.208 308.517 106.208 308.959 Q106.208 309.74 105.563 309.774 Q97.1392 310.317 97.1392 317.926 Q97.1392 322.036 98.7356 323.87 Q100.298 325.704 102.438 325.704 Q103.627 325.704 104.544 325.161 Q105.427 324.583 105.971 323.87 Q106.48 323.123 106.99 321.764 Q107.465 320.406 107.635 319.59 Q107.805 318.741 108.145 317.145 Q109.198 311.574 111.473 309.23 Q114.394 306.309 118.097 306.309 Q122.207 306.309 124.992 309.094 Q127.778 311.88 127.778 317.484 Q127.778 322.002 124.754 325.161 Q125.162 325.569 125.536 325.874 Q125.875 326.18 126.011 326.316 Q126.147 326.418 126.249 326.452 Q126.317 326.486 126.385 326.554 Q127.778 327.946 127.778 328.286 Q127.778 328.829 127.404 328.931 Q127.064 329.033 126.079 329.033 Z" fill="#000000" fill-rule="nonzero" fill-opacity="1" /><polyline clip-path="url(#clip611)" style="stroke:#009af9; stroke-linecap:round; stroke-linejoin:round; stroke-width:8; stroke-opacity:1; fill:none" points="617.262,420.698 712.29,732.461 807.319,585.749 902.347,398.947 997.376,145.612 1092.4,732.461 1187.43,1093.45 1282.46,1104.18 1377.49,1088.76 1472.52,1212.1 1567.55,1127.87 1662.58,1177.84 1757.6,1177.84 1852.63,1168.93 1947.66,1248.07 2042.69,1324.81 2137.72,1262.46 2232.75,1250.11 "/>
<circle clip-path="url(#clip611)" cx="617.262" cy="420.698" r="14.4" fill="#009af9" fill-rule="evenodd" fill-opacity="1" stroke="#000000" stroke-opacity="1" stroke-width="3.2"/>
<circle clip-path="url(#clip611)" cx="712.29" cy="732.461" r="14.4" fill="#009af9" fill-rule="evenodd" fill-opacity="1" stroke="#000000" stroke-opacity="1" stroke-width="3.2"/>
<circle clip-path="url(#clip611)" cx="807.319" cy="585.749" r="14.4" fill="#009af9" fill-rule="evenodd" fill-opacity="1" stroke="#000000" stroke-opacity="1" stroke-width="3.2"/>
<circle clip-path="url(#clip611)" cx="902.347" cy="398.947" r="14.4" fill="#009af9" fill-rule="evenodd" fill-opacity="1" stroke="#000000" stroke-opacity="1" stroke-width="3.2"/>
<circle clip-path="url(#clip611)" cx="997.376" cy="145.612" r="14.4" fill="#009af9" fill-rule="evenodd" fill-opacity="1" stroke="#000000" stroke-opacity="1" stroke-width="3.2"/>
<circle clip-path="url(#clip611)" cx="1092.4" cy="732.461" r="14.4" fill="#009af9" fill-rule="evenodd" fill-opacity="1" stroke="#000000" stroke-opacity="1" stroke-width="3.2"/>
<circle clip-path="url(#clip611)" cx="1187.43" cy="1093.45" r="14.4" fill="#009af9" fill-rule="evenodd" fill-opacity="1" stroke="#000000" stroke-opacity="1" stroke-width="3.2"/>
<circle clip-path="url(#clip611)" cx="1282.46" cy="1104.18" r="14.4" fill="#009af9" fill-rule="evenodd" fill-opacity="1" stroke="#000000" stroke-opacity="1" stroke-width="3.2"/>
<circle clip-path="url(#clip611)" cx="1377.49" cy="1088.76" r="14.4" fill="#009af9" fill-rule="evenodd" fill-opacity="1" stroke="#000000" stroke-opacity="1" stroke-width="3.2"/>
<circle clip-path="url(#clip611)" cx="1472.52" cy="1212.1" r="14.4" fill="#009af9" fill-rule="evenodd" fill-opacity="1" stroke="#000000" stroke-opacity="1" stroke-width="3.2"/>
<circle clip-path="url(#clip611)" cx="1567.55" cy="1127.87" r="14.4" fill="#009af9" fill-rule="evenodd" fill-opacity="1" stroke="#000000" stroke-opacity="1" stroke-width="3.2"/>
<circle clip-path="url(#clip611)" cx="1662.58" cy="1177.84" r="14.4" fill="#009af9" fill-rule="evenodd" fill-opacity="1" stroke="#000000" stroke-opacity="1" stroke-width="3.2"/>
<circle clip-path="url(#clip611)" cx="1757.6" cy="1177.84" r="14.4" fill="#009af9" fill-rule="evenodd" fill-opacity="1" stroke="#000000" stroke-opacity="1" stroke-width="3.2"/>
<circle clip-path="url(#clip611)" cx="1852.63" cy="1168.93" r="14.4" fill="#009af9" fill-rule="evenodd" fill-opacity="1" stroke="#000000" stroke-opacity="1" stroke-width="3.2"/>
<circle clip-path="url(#clip611)" cx="1947.66" cy="1248.07" r="14.4" fill="#009af9" fill-rule="evenodd" fill-opacity="1" stroke="#000000" stroke-opacity="1" stroke-width="3.2"/>
<circle clip-path="url(#clip611)" cx="2042.69" cy="1324.81" r="14.4" fill="#009af9" fill-rule="evenodd" fill-opacity="1" stroke="#000000" stroke-opacity="1" stroke-width="3.2"/>
<circle clip-path="url(#clip611)" cx="2137.72" cy="1262.46" r="14.4" fill="#009af9" fill-rule="evenodd" fill-opacity="1" stroke="#000000" stroke-opacity="1" stroke-width="3.2"/>
<circle clip-path="url(#clip611)" cx="2232.75" cy="1250.11" r="14.4" fill="#009af9" fill-rule="evenodd" fill-opacity="1" stroke="#000000" stroke-opacity="1" stroke-width="3.2"/>
</svg>
