<?xml version="1.0" encoding="utf-8"?>
<svg xmlns="http://www.w3.org/2000/svg" xmlns:xlink="http://www.w3.org/1999/xlink" width="400" height="300" viewBox="0 0 1600 1200">
<defs>
  <clipPath id="clip360">
    <rect x="0" y="0" width="1600" height="1200"/>
  </clipPath>
</defs>
<path clip-path="url(#clip360)" d="M0 1200 L1600 1200 L1600 0 L0 0  Z" fill="#ffffff" fill-rule="evenodd" fill-opacity="1"/>
<defs>
  <clipPath id="clip361">
    <rect x="297" y="47" width="1194" height="971"/>
  </clipPath>
</defs>
<path clip-path="url(#clip360)" d="M297.135 1016.92 L1489.76 1016.92 L1489.76 47.2441 L297.135 47.2441  Z" fill="#ffffff" fill-rule="evenodd" fill-opacity="1"/>
<polyline clip-path="url(#clip361)" style="stroke:#000000; stroke-linecap:round; stroke-linejoin:round; stroke-width:2; stroke-opacity:0.1; fill:none" points="362.732,1016.92 362.732,47.2441 "/>
<polyline clip-path="url(#clip361)" style="stroke:#000000; stroke-linecap:round; stroke-linejoin:round; stroke-width:2; stroke-opacity:0.1; fill:none" points="539.638,1016.92 539.638,47.2441 "/>
<polyline clip-path="url(#clip361)" style="stroke:#000000; stroke-linecap:round; stroke-linejoin:round; stroke-width:2; stroke-opacity:0.1; fill:none" points="716.544,1016.92 716.544,47.2441 "/>
<polyline clip-path="url(#clip361)" style="stroke:#000000; stroke-linecap:round; stroke-linejoin:round; stroke-width:2; stroke-opacity:0.1; fill:none" points="893.45,1016.92 893.45,47.2441 "/>
<polyline clip-path="url(#clip361)" style="stroke:#000000; stroke-linecap:round; stroke-linejoin:round; stroke-width:2; stroke-opacity:0.1; fill:none" points="1070.36,1016.92 1070.36,47.2441 "/>
<polyline clip-path="url(#clip361)" style="stroke:#000000; stroke-linecap:round; stroke-linejoin:round; stroke-width:2; stroke-opacity:0.1; fill:none" points="1247.26,1016.92 1247.26,47.2441 "/>
<polyline clip-path="url(#clip361)" style="stroke:#000000; stroke-linecap:round; stroke-linejoin:round; stroke-width:2; stroke-opacity:0.1; fill:none" points="1424.17,1016.92 1424.17,47.2441 "/>
<polyline clip-path="url(#clip361)" style="stroke:#000000; stroke-linecap:round; stroke-linejoin:round; stroke-width:2; stroke-opacity:0.1; fill:none" points="362.732,1016.92 362.732,47.2441 "/>
<polyline clip-path="url(#clip361)" style="stroke:#000000; stroke-linecap:round; stroke-linejoin:round; stroke-width:2; stroke-opacity:0.1; fill:none" points="539.638,1016.92 539.638,47.2441 "/>
<polyline clip-path="url(#clip361)" style="stroke:#000000; stroke-linecap:round; stroke-linejoin:round; stroke-width:2; stroke-opacity:0.1; fill:none" points="716.544,1016.92 716.544,47.2441 "/>
<polyline clip-path="url(#clip361)" style="stroke:#000000; stroke-linecap:round; stroke-linejoin:round; stroke-width:2; stroke-opacity:0.1; fill:none" points="893.45,1016.92 893.45,47.2441 "/>
<polyline clip-path="url(#clip361)" style="stroke:#000000; stroke-linecap:round; stroke-linejoin:round; stroke-width:2; stroke-opacity:0.1; fill:none" points="1070.36,1016.92 1070.36,47.2441 "/>
<polyline clip-path="url(#clip361)" style="stroke:#000000; stroke-linecap:round; stroke-linejoin:round; stroke-width:2; stroke-opacity:0.1; fill:none" points="1247.26,1016.92 1247.26,47.2441 "/>
<polyline clip-path="url(#clip361)" style="stroke:#000000; stroke-linecap:round; stroke-linejoin:round; stroke-width:2; stroke-opacity:0.1; fill:none" points="1424.17,1016.92 1424.17,47.2441 "/>
<polyline clip-path="url(#clip361)" style="stroke:#000000; stroke-linecap:round; stroke-linejoin:round; stroke-width:2; stroke-opacity:0.1; fill:none" points="297.135,1016.92 1489.76,1016.92 "/>
<polyline clip-path="url(#clip361)" style="stroke:#000000; stroke-linecap:round; stroke-linejoin:round; stroke-width:2; stroke-opacity:0.1; fill:none" points="297.135,793.05 1489.76,793.05 "/>
<polyline clip-path="url(#clip361)" style="stroke:#000000; stroke-linecap:round; stroke-linejoin:round; stroke-width:2; stroke-opacity:0.1; fill:none" points="297.135,569.18 1489.76,569.18 "/>
<polyline clip-path="url(#clip361)" style="stroke:#000000; stroke-linecap:round; stroke-linejoin:round; stroke-width:2; stroke-opacity:0.1; fill:none" points="297.135,345.309 1489.76,345.309 "/>
<polyline clip-path="url(#clip361)" style="stroke:#000000; stroke-linecap:round; stroke-linejoin:round; stroke-width:2; stroke-opacity:0.1; fill:none" points="297.135,121.439 1489.76,121.439 "/>
<polyline clip-path="url(#clip361)" style="stroke:#000000; stroke-linecap:round; stroke-linejoin:round; stroke-width:2; stroke-opacity:0.1; fill:none" points="297.135,1016.92 1489.76,1016.92 "/>
<polyline clip-path="url(#clip361)" style="stroke:#000000; stroke-linecap:round; stroke-linejoin:round; stroke-width:2; stroke-opacity:0.1; fill:none" points="297.135,793.05 1489.76,793.05 "/>
<polyline clip-path="url(#clip361)" style="stroke:#000000; stroke-linecap:round; stroke-linejoin:round; stroke-width:2; stroke-opacity:0.1; fill:none" points="297.135,569.18 1489.76,569.18 "/>
<polyline clip-path="url(#clip361)" style="stroke:#000000; stroke-linecap:round; stroke-linejoin:round; stroke-width:2; stroke-opacity:0.1; fill:none" points="297.135,345.309 1489.76,345.309 "/>
<polyline clip-path="url(#clip361)" style="stroke:#000000; stroke-linecap:round; stroke-linejoin:round; stroke-width:2; stroke-opacity:0.1; fill:none" points="297.135,121.439 1489.76,121.439 "/>
<polyline clip-path="url(#clip360)" style="stroke:#000000; stroke-linecap:round; stroke-linejoin:round; stroke-width:4; stroke-opacity:1; fill:none" points="297.135,1016.92 1489.76,1016.92 "/>
<polyline clip-path="url(#clip360)" style="stroke:#000000; stroke-linecap:round; stroke-linejoin:round; stroke-width:4; stroke-opacity:1; fill:none" points="297.135,47.2441 1489.76,47.2441 "/>
<polyline clip-path="url(#clip360)" style="stroke:#000000; stroke-linecap:round; stroke-linejoin:round; stroke-width:4; stroke-opacity:1; fill:none" points="362.732,1016.92 362.732,998.022 "/>
<polyline clip-path="url(#clip360)" style="stroke:#000000; stroke-linecap:round; stroke-linejoin:round; stroke-width:4; stroke-opacity:1; fill:none" points="539.638,1016.92 539.638,998.022 "/>
<polyline clip-path="url(#clip360)" style="stroke:#000000; stroke-linecap:round; stroke-linejoin:round; stroke-width:4; stroke-opacity:1; fill:none" points="716.544,1016.92 716.544,998.022 "/>
<polyline clip-path="url(#clip360)" style="stroke:#000000; stroke-linecap:round; stroke-linejoin:round; stroke-width:4; stroke-opacity:1; fill:none" points="893.45,1016.92 893.45,998.022 "/>
<polyline clip-path="url(#clip360)" style="stroke:#000000; stroke-linecap:round; stroke-linejoin:round; stroke-width:4; stroke-opacity:1; fill:none" points="1070.36,1016.92 1070.36,998.022 "/>
<polyline clip-path="url(#clip360)" style="stroke:#000000; stroke-linecap:round; stroke-linejoin:round; stroke-width:4; stroke-opacity:1; fill:none" points="1247.26,1016.92 1247.26,998.022 "/>
<polyline clip-path="url(#clip360)" style="stroke:#000000; stroke-linecap:round; stroke-linejoin:round; stroke-width:4; stroke-opacity:1; fill:none" points="1424.17,1016.92 1424.17,998.022 "/>
<polyline clip-path="url(#clip360)" style="stroke:#000000; stroke-linecap:round; stroke-linejoin:round; stroke-width:4; stroke-opacity:1; fill:none" points="362.732,47.2441 362.732,66.1417 "/>
<polyline clip-path="url(#clip360)" style="stroke:#000000; stroke-linecap:round; stroke-linejoin:round; stroke-width:4; stroke-opacity:1; fill:none" points="539.638,47.2441 539.638,66.1417 "/>
<polyline clip-path="url(#clip360)" style="stroke:#000000; stroke-linecap:round; stroke-linejoin:round; stroke-width:4; stroke-opacity:1; fill:none" points="716.544,47.2441 716.544,66.1417 "/>
<polyline clip-path="url(#clip360)" style="stroke:#000000; stroke-linecap:round; stroke-linejoin:round; stroke-width:4; stroke-opacity:1; fill:none" points="893.45,47.2441 893.45,66.1417 "/>
<polyline clip-path="url(#clip360)" style="stroke:#000000; stroke-linecap:round; stroke-linejoin:round; stroke-width:4; stroke-opacity:1; fill:none" points="1070.36,47.2441 1070.36,66.1417 "/>
<polyline clip-path="url(#clip360)" style="stroke:#000000; stroke-linecap:round; stroke-linejoin:round; stroke-width:4; stroke-opacity:1; fill:none" points="1247.26,47.2441 1247.26,66.1417 "/>
<polyline clip-path="url(#clip360)" style="stroke:#000000; stroke-linecap:round; stroke-linejoin:round; stroke-width:4; stroke-opacity:1; fill:none" points="1424.17,47.2441 1424.17,66.1417 "/>
<path clip-path="url(#clip360)" d="M346.835 1059.56 Q347.132 1059.85 347.132 1060.27 Q347.132 1060.69 346.835 1060.99 Q346.539 1061.28 346.119 1061.28 L314.449 1061.28 Q314.029 1061.28 313.733 1060.99 Q313.436 1060.69 313.436 1060.27 Q313.436 1059.85 313.733 1059.56 Q314.029 1059.26 314.449 1059.26 L346.119 1059.26 Q346.539 1059.26 346.835 1059.56 Z" fill="#000000" fill-rule="nonzero" fill-opacity="1" /><path clip-path="url(#clip360)" d="M354.444 1044.04 L354.444 1042.46 Q360.521 1042.46 363.658 1039.22 Q364.523 1039.22 364.671 1039.42 Q364.819 1039.62 364.819 1040.53 L364.819 1068.92 Q364.819 1070.42 365.56 1070.89 Q366.302 1071.36 369.538 1071.36 L371.143 1071.36 L371.143 1072.92 Q369.365 1072.77 362.942 1072.77 Q356.519 1072.77 354.765 1072.92 L354.765 1071.36 L356.371 1071.36 Q359.558 1071.36 360.323 1070.92 Q361.089 1070.45 361.089 1068.92 L361.089 1042.71 Q358.446 1044.04 354.444 1044.04 Z" fill="#000000" fill-rule="nonzero" fill-opacity="1" /><path clip-path="url(#clip360)" d="M380.308 1072.1 Q379.543 1071.29 379.543 1070.23 Q379.543 1069.16 380.308 1068.4 Q381.074 1067.61 382.235 1067.61 Q383.347 1067.61 384.088 1068.35 Q384.854 1069.07 384.854 1070.25 Q384.854 1071.41 384.039 1072.18 Q383.248 1072.92 382.235 1072.92 Q381.074 1072.92 380.308 1072.1 Z" fill="#000000" fill-rule="nonzero" fill-opacity="1" /><path clip-path="url(#clip360)" d="M391.82 1064.77 Q391.82 1063.26 392.635 1062.69 Q393.451 1062.1 394.315 1062.1 Q395.476 1062.1 396.143 1062.84 Q396.835 1063.56 396.835 1064.57 Q396.835 1065.58 396.143 1066.32 Q395.476 1067.04 394.315 1067.04 Q393.747 1067.04 393.451 1066.94 Q394.118 1069.26 396.143 1070.94 Q398.194 1072.62 400.886 1072.62 Q404.271 1072.62 406.296 1069.34 Q407.507 1067.21 407.507 1062.4 Q407.507 1058.15 406.593 1056.02 Q405.185 1052.79 402.294 1052.79 Q398.194 1052.79 395.773 1056.32 Q395.476 1056.76 395.13 1056.79 Q394.636 1056.79 394.513 1056.52 Q394.414 1056.22 394.414 1055.45 L394.414 1040.48 Q394.414 1039.27 394.908 1039.27 Q395.106 1039.27 395.526 1039.42 Q398.712 1040.83 402.245 1040.85 Q405.876 1040.85 409.137 1039.37 Q409.384 1039.22 409.532 1039.22 Q410.027 1039.22 410.051 1039.79 Q410.051 1039.99 409.631 1040.58 Q409.236 1041.15 408.371 1041.92 Q407.507 1042.66 406.395 1043.37 Q405.283 1044.09 403.653 1044.59 Q402.047 1045.05 400.269 1045.05 Q398.144 1045.05 395.97 1044.39 L395.97 1054.24 Q398.589 1051.67 402.393 1051.67 Q406.445 1051.67 409.236 1054.94 Q412.028 1058.2 412.028 1062.74 Q412.028 1067.51 408.717 1070.77 Q405.432 1074.03 400.985 1074.03 Q396.934 1074.03 394.365 1071.14 Q391.82 1068.25 391.82 1064.77 Z" fill="#000000" fill-rule="nonzero" fill-opacity="1" /><path clip-path="url(#clip360)" d="M523.469 1059.56 Q523.766 1059.85 523.766 1060.27 Q523.766 1060.69 523.469 1060.99 Q523.173 1061.28 522.753 1061.28 L491.083 1061.28 Q490.663 1061.28 490.367 1060.99 Q490.071 1060.69 490.071 1060.27 Q490.071 1059.85 490.367 1059.56 Q490.663 1059.26 491.083 1059.26 L522.753 1059.26 Q523.173 1059.26 523.469 1059.56 Z" fill="#000000" fill-rule="nonzero" fill-opacity="1" /><path clip-path="url(#clip360)" d="M531.078 1044.04 L531.078 1042.46 Q537.155 1042.46 540.292 1039.22 Q541.157 1039.22 541.305 1039.42 Q541.454 1039.62 541.454 1040.53 L541.454 1068.92 Q541.454 1070.42 542.195 1070.89 Q542.936 1071.36 546.172 1071.36 L547.778 1071.36 L547.778 1072.92 Q545.999 1072.77 539.576 1072.77 Q533.153 1072.77 531.399 1072.92 L531.399 1071.36 L533.005 1071.36 Q536.192 1071.36 536.958 1070.92 Q537.723 1070.45 537.723 1068.92 L537.723 1042.71 Q535.08 1044.04 531.078 1044.04 Z" fill="#000000" fill-rule="nonzero" fill-opacity="1" /><path clip-path="url(#clip360)" d="M556.943 1072.1 Q556.177 1071.29 556.177 1070.23 Q556.177 1069.16 556.943 1068.4 Q557.708 1067.61 558.869 1067.61 Q559.981 1067.61 560.722 1068.35 Q561.488 1069.07 561.488 1070.25 Q561.488 1071.41 560.673 1072.18 Q559.882 1072.92 558.869 1072.92 Q557.708 1072.92 556.943 1072.1 Z" fill="#000000" fill-rule="nonzero" fill-opacity="1" /><path clip-path="url(#clip360)" d="M567.911 1056.74 Q567.911 1049.3 569.788 1045.25 Q572.407 1039.22 578.583 1039.22 Q579.892 1039.22 581.251 1039.6 Q582.634 1039.94 584.363 1041.3 Q586.117 1042.66 587.179 1044.88 Q589.205 1049.18 589.205 1056.74 Q589.205 1064.13 587.328 1068.15 Q584.586 1074.03 578.533 1074.03 Q576.261 1074.03 573.938 1072.87 Q571.641 1071.71 570.184 1068.92 Q567.911 1064.74 567.911 1056.74 M572.11 1056.12 Q572.11 1063.75 572.654 1066.79 Q573.271 1070.08 574.951 1071.51 Q576.656 1072.92 578.533 1072.92 Q580.559 1072.92 582.239 1071.41 Q583.943 1069.88 584.462 1066.6 Q585.03 1063.36 585.006 1056.12 Q585.006 1049.08 584.511 1046.26 Q583.844 1042.98 582.066 1041.67 Q580.312 1040.34 578.533 1040.34 Q577.866 1040.34 577.15 1040.53 Q576.458 1040.73 575.445 1041.3 Q574.432 1041.87 573.642 1043.28 Q572.876 1044.68 572.506 1046.81 Q572.11 1049.55 572.11 1056.12 Z" fill="#000000" fill-rule="nonzero" fill-opacity="1" /><path clip-path="url(#clip360)" d="M700.647 1059.56 Q700.943 1059.85 700.943 1060.27 Q700.943 1060.69 700.647 1060.99 Q700.351 1061.28 699.931 1061.28 L668.261 1061.28 Q667.841 1061.28 667.545 1060.99 Q667.248 1060.69 667.248 1060.27 Q667.248 1059.85 667.545 1059.56 Q667.841 1059.26 668.261 1059.26 L699.931 1059.26 Q700.351 1059.26 700.647 1059.56 Z" fill="#000000" fill-rule="nonzero" fill-opacity="1" /><path clip-path="url(#clip360)" d="M705.736 1056.74 Q705.736 1049.3 707.613 1045.25 Q710.232 1039.22 716.408 1039.22 Q717.717 1039.22 719.076 1039.6 Q720.459 1039.94 722.188 1041.3 Q723.942 1042.66 725.005 1044.88 Q727.03 1049.18 727.03 1056.74 Q727.03 1064.13 725.153 1068.15 Q722.411 1074.03 716.358 1074.03 Q714.086 1074.03 711.764 1072.87 Q709.466 1071.71 708.009 1068.92 Q705.736 1064.74 705.736 1056.74 M709.936 1056.12 Q709.936 1063.75 710.479 1066.79 Q711.097 1070.08 712.776 1071.51 Q714.481 1072.92 716.358 1072.92 Q718.384 1072.92 720.064 1071.41 Q721.768 1069.88 722.287 1066.6 Q722.855 1063.36 722.831 1056.12 Q722.831 1049.08 722.337 1046.26 Q721.67 1042.98 719.891 1041.67 Q718.137 1040.34 716.358 1040.34 Q715.691 1040.34 714.975 1040.53 Q714.283 1040.73 713.27 1041.3 Q712.258 1041.87 711.467 1043.28 Q710.701 1044.68 710.331 1046.81 Q709.936 1049.55 709.936 1056.12 Z" fill="#000000" fill-rule="nonzero" fill-opacity="1" /><path clip-path="url(#clip360)" d="M734.12 1072.1 Q733.354 1071.29 733.354 1070.23 Q733.354 1069.16 734.12 1068.4 Q734.886 1067.61 736.047 1067.61 Q737.159 1067.61 737.9 1068.35 Q738.666 1069.07 738.666 1070.25 Q738.666 1071.41 737.85 1072.18 Q737.06 1072.92 736.047 1072.92 Q734.886 1072.92 734.12 1072.1 Z" fill="#000000" fill-rule="nonzero" fill-opacity="1" /><path clip-path="url(#clip360)" d="M745.632 1064.77 Q745.632 1063.26 746.447 1062.69 Q747.262 1062.1 748.127 1062.1 Q749.288 1062.1 749.955 1062.84 Q750.647 1063.56 750.647 1064.57 Q750.647 1065.58 749.955 1066.32 Q749.288 1067.04 748.127 1067.04 Q747.559 1067.04 747.262 1066.94 Q747.929 1069.26 749.955 1070.94 Q752.005 1072.62 754.698 1072.62 Q758.082 1072.62 760.108 1069.34 Q761.319 1067.21 761.319 1062.4 Q761.319 1058.15 760.404 1056.02 Q758.996 1052.79 756.106 1052.79 Q752.005 1052.79 749.584 1056.32 Q749.288 1056.76 748.942 1056.79 Q748.448 1056.79 748.325 1056.52 Q748.226 1056.22 748.226 1055.45 L748.226 1040.48 Q748.226 1039.27 748.72 1039.27 Q748.917 1039.27 749.337 1039.42 Q752.524 1040.83 756.057 1040.85 Q759.688 1040.85 762.949 1039.37 Q763.196 1039.22 763.344 1039.22 Q763.838 1039.22 763.863 1039.79 Q763.863 1039.99 763.443 1040.58 Q763.048 1041.15 762.183 1041.92 Q761.319 1042.66 760.207 1043.37 Q759.095 1044.09 757.465 1044.59 Q755.859 1045.05 754.08 1045.05 Q751.956 1045.05 749.782 1044.39 L749.782 1054.24 Q752.401 1051.67 756.205 1051.67 Q760.256 1051.67 763.048 1054.94 Q765.839 1058.2 765.839 1062.74 Q765.839 1067.51 762.529 1070.77 Q759.243 1074.03 754.797 1074.03 Q750.745 1074.03 748.176 1071.14 Q745.632 1068.25 745.632 1064.77 Z" fill="#000000" fill-rule="nonzero" fill-opacity="1" /><path clip-path="url(#clip360)" d="M863.126 1056.74 Q863.126 1049.3 865.004 1045.25 Q867.622 1039.22 873.798 1039.22 Q875.107 1039.22 876.466 1039.6 Q877.849 1039.94 879.579 1041.3 Q881.333 1042.66 882.395 1044.88 Q884.42 1049.18 884.42 1056.74 Q884.42 1064.13 882.543 1068.15 Q879.801 1074.03 873.749 1074.03 Q871.476 1074.03 869.154 1072.87 Q866.856 1071.71 865.399 1068.92 Q863.126 1064.74 863.126 1056.74 M867.326 1056.12 Q867.326 1063.75 867.869 1066.79 Q868.487 1070.08 870.167 1071.51 Q871.871 1072.92 873.749 1072.92 Q875.774 1072.92 877.454 1071.41 Q879.159 1069.88 879.677 1066.6 Q880.246 1063.36 880.221 1056.12 Q880.221 1049.08 879.727 1046.26 Q879.06 1042.98 877.281 1041.67 Q875.527 1040.34 873.749 1040.34 Q873.082 1040.34 872.365 1040.53 Q871.674 1040.73 870.661 1041.3 Q869.648 1041.87 868.857 1043.28 Q868.092 1044.68 867.721 1046.81 Q867.326 1049.55 867.326 1056.12 Z" fill="#000000" fill-rule="nonzero" fill-opacity="1" /><path clip-path="url(#clip360)" d="M891.51 1072.1 Q890.745 1071.29 890.745 1070.23 Q890.745 1069.16 891.51 1068.4 Q892.276 1067.61 893.437 1067.61 Q894.549 1067.61 895.29 1068.35 Q896.056 1069.07 896.056 1070.25 Q896.056 1071.41 895.241 1072.18 Q894.45 1072.92 893.437 1072.92 Q892.276 1072.92 891.51 1072.1 Z" fill="#000000" fill-rule="nonzero" fill-opacity="1" /><path clip-path="url(#clip360)" d="M902.479 1056.74 Q902.479 1049.3 904.356 1045.25 Q906.975 1039.22 913.15 1039.22 Q914.46 1039.22 915.818 1039.6 Q917.202 1039.94 918.931 1041.3 Q920.685 1042.66 921.747 1044.88 Q923.773 1049.18 923.773 1056.74 Q923.773 1064.13 921.895 1068.15 Q919.153 1074.03 913.101 1074.03 Q910.828 1074.03 908.506 1072.87 Q906.209 1071.71 904.751 1068.92 Q902.479 1064.74 902.479 1056.74 M906.678 1056.12 Q906.678 1063.75 907.222 1066.79 Q907.839 1070.08 909.519 1071.51 Q911.224 1072.92 913.101 1072.92 Q915.127 1072.92 916.807 1071.41 Q918.511 1069.88 919.03 1066.6 Q919.598 1063.36 919.573 1056.12 Q919.573 1049.08 919.079 1046.26 Q918.412 1042.98 916.634 1041.67 Q914.88 1040.34 913.101 1040.34 Q912.434 1040.34 911.718 1040.53 Q911.026 1040.73 910.013 1041.3 Q909 1041.87 908.21 1043.28 Q907.444 1044.68 907.073 1046.81 Q906.678 1049.55 906.678 1056.12 Z" fill="#000000" fill-rule="nonzero" fill-opacity="1" /><path clip-path="url(#clip360)" d="M1040.3 1056.74 Q1040.3 1049.3 1042.18 1045.25 Q1044.8 1039.22 1050.98 1039.22 Q1052.28 1039.22 1053.64 1039.6 Q1055.03 1039.94 1056.76 1041.3 Q1058.51 1042.66 1059.57 1044.88 Q1061.6 1049.18 1061.6 1056.74 Q1061.6 1064.13 1059.72 1068.15 Q1056.98 1074.03 1050.93 1074.03 Q1048.65 1074.03 1046.33 1072.87 Q1044.03 1071.71 1042.58 1068.92 Q1040.3 1064.74 1040.3 1056.74 M1044.5 1056.12 Q1044.5 1063.75 1045.05 1066.79 Q1045.66 1070.08 1047.34 1071.51 Q1049.05 1072.92 1050.93 1072.92 Q1052.95 1072.92 1054.63 1071.41 Q1056.34 1069.88 1056.85 1066.6 Q1057.42 1063.36 1057.4 1056.12 Q1057.4 1049.08 1056.9 1046.26 Q1056.24 1042.98 1054.46 1041.67 Q1052.7 1040.34 1050.93 1040.34 Q1050.26 1040.34 1049.54 1040.53 Q1048.85 1040.73 1047.84 1041.3 Q1046.83 1041.87 1046.03 1043.28 Q1045.27 1044.68 1044.9 1046.81 Q1044.5 1049.55 1044.5 1056.12 Z" fill="#000000" fill-rule="nonzero" fill-opacity="1" /><path clip-path="url(#clip360)" d="M1068.69 1072.1 Q1067.92 1071.29 1067.92 1070.23 Q1067.92 1069.16 1068.69 1068.4 Q1069.45 1067.61 1070.61 1067.61 Q1071.73 1067.61 1072.47 1068.35 Q1073.23 1069.07 1073.23 1070.25 Q1073.23 1071.41 1072.42 1072.18 Q1071.63 1072.92 1070.61 1072.92 Q1069.45 1072.92 1068.69 1072.1 Z" fill="#000000" fill-rule="nonzero" fill-opacity="1" /><path clip-path="url(#clip360)" d="M1080.2 1064.77 Q1080.2 1063.26 1081.01 1062.69 Q1081.83 1062.1 1082.69 1062.1 Q1083.86 1062.1 1084.52 1062.84 Q1085.21 1063.56 1085.21 1064.57 Q1085.21 1065.58 1084.52 1066.32 Q1083.86 1067.04 1082.69 1067.04 Q1082.13 1067.04 1081.83 1066.94 Q1082.5 1069.26 1084.52 1070.94 Q1086.57 1072.62 1089.27 1072.62 Q1092.65 1072.62 1094.68 1069.34 Q1095.89 1067.21 1095.89 1062.4 Q1095.89 1058.15 1094.97 1056.02 Q1093.56 1052.79 1090.67 1052.79 Q1086.57 1052.79 1084.15 1056.32 Q1083.86 1056.76 1083.51 1056.79 Q1083.02 1056.79 1082.89 1056.52 Q1082.79 1056.22 1082.79 1055.45 L1082.79 1040.48 Q1082.79 1039.27 1083.29 1039.27 Q1083.49 1039.27 1083.91 1039.42 Q1087.09 1040.83 1090.62 1040.85 Q1094.26 1040.85 1097.52 1039.37 Q1097.76 1039.22 1097.91 1039.22 Q1098.41 1039.22 1098.43 1039.79 Q1098.43 1039.99 1098.01 1040.58 Q1097.62 1041.15 1096.75 1041.92 Q1095.89 1042.66 1094.77 1043.37 Q1093.66 1044.09 1092.03 1044.59 Q1090.43 1045.05 1088.65 1045.05 Q1086.52 1045.05 1084.35 1044.39 L1084.35 1054.24 Q1086.97 1051.67 1090.77 1051.67 Q1094.82 1051.67 1097.62 1054.94 Q1100.41 1058.2 1100.41 1062.74 Q1100.41 1067.51 1097.1 1070.77 Q1093.81 1074.03 1089.36 1074.03 Q1085.31 1074.03 1082.74 1071.14 Q1080.2 1068.25 1080.2 1064.77 Z" fill="#000000" fill-rule="nonzero" fill-opacity="1" /><path clip-path="url(#clip360)" d="M1218.2 1044.04 L1218.2 1042.46 Q1224.27 1042.46 1227.41 1039.22 Q1228.28 1039.22 1228.42 1039.42 Q1228.57 1039.62 1228.57 1040.53 L1228.57 1068.92 Q1228.57 1070.42 1229.31 1070.89 Q1230.06 1071.36 1233.29 1071.36 L1234.9 1071.36 L1234.9 1072.92 Q1233.12 1072.77 1226.7 1072.77 Q1220.27 1072.77 1218.52 1072.92 L1218.52 1071.36 L1220.12 1071.36 Q1223.31 1071.36 1224.08 1070.92 Q1224.84 1070.45 1224.84 1068.92 L1224.84 1042.71 Q1222.2 1044.04 1218.2 1044.04 Z" fill="#000000" fill-rule="nonzero" fill-opacity="1" /><path clip-path="url(#clip360)" d="M1244.06 1072.1 Q1243.3 1071.29 1243.3 1070.23 Q1243.3 1069.16 1244.06 1068.4 Q1244.83 1067.61 1245.99 1067.61 Q1247.1 1067.61 1247.84 1068.35 Q1248.61 1069.07 1248.61 1070.25 Q1248.61 1071.41 1247.79 1072.18 Q1247 1072.92 1245.99 1072.92 Q1244.83 1072.92 1244.06 1072.1 Z" fill="#000000" fill-rule="nonzero" fill-opacity="1" /><path clip-path="url(#clip360)" d="M1255.03 1056.74 Q1255.03 1049.3 1256.91 1045.25 Q1259.53 1039.22 1265.7 1039.22 Q1267.01 1039.22 1268.37 1039.6 Q1269.75 1039.94 1271.48 1041.3 Q1273.24 1042.66 1274.3 1044.88 Q1276.32 1049.18 1276.32 1056.74 Q1276.32 1064.13 1274.45 1068.15 Q1271.71 1074.03 1265.65 1074.03 Q1263.38 1074.03 1261.06 1072.87 Q1258.76 1071.71 1257.3 1068.92 Q1255.03 1064.74 1255.03 1056.74 M1259.23 1056.12 Q1259.23 1063.75 1259.77 1066.79 Q1260.39 1070.08 1262.07 1071.51 Q1263.78 1072.92 1265.65 1072.92 Q1267.68 1072.92 1269.36 1071.41 Q1271.06 1069.88 1271.58 1066.6 Q1272.15 1063.36 1272.13 1056.12 Q1272.13 1049.08 1271.63 1046.26 Q1270.96 1042.98 1269.19 1041.67 Q1267.43 1040.34 1265.65 1040.34 Q1264.99 1040.34 1264.27 1040.53 Q1263.58 1040.73 1262.56 1041.3 Q1261.55 1041.87 1260.76 1043.28 Q1260 1044.68 1259.63 1046.81 Q1259.23 1049.55 1259.23 1056.12 Z" fill="#000000" fill-rule="nonzero" fill-opacity="1" /><path clip-path="url(#clip360)" d="M1395.38 1044.04 L1395.38 1042.46 Q1401.45 1042.46 1404.59 1039.22 Q1405.45 1039.22 1405.6 1039.42 Q1405.75 1039.62 1405.75 1040.53 L1405.75 1068.92 Q1405.75 1070.42 1406.49 1070.89 Q1407.23 1071.36 1410.47 1071.36 L1412.07 1071.36 L1412.07 1072.92 Q1410.3 1072.77 1403.87 1072.77 Q1397.45 1072.77 1395.7 1072.92 L1395.7 1071.36 L1397.3 1071.36 Q1400.49 1071.36 1401.25 1070.92 Q1402.02 1070.45 1402.02 1068.92 L1402.02 1042.71 Q1399.38 1044.04 1395.38 1044.04 Z" fill="#000000" fill-rule="nonzero" fill-opacity="1" /><path clip-path="url(#clip360)" d="M1421.24 1072.1 Q1420.47 1071.29 1420.47 1070.23 Q1420.47 1069.16 1421.24 1068.4 Q1422.01 1067.61 1423.17 1067.61 Q1424.28 1067.61 1425.02 1068.35 Q1425.79 1069.07 1425.79 1070.25 Q1425.79 1071.41 1424.97 1072.18 Q1424.18 1072.92 1423.17 1072.92 Q1422.01 1072.92 1421.24 1072.1 Z" fill="#000000" fill-rule="nonzero" fill-opacity="1" /><path clip-path="url(#clip360)" d="M1432.75 1064.77 Q1432.75 1063.26 1433.57 1062.69 Q1434.38 1062.1 1435.25 1062.1 Q1436.41 1062.1 1437.07 1062.84 Q1437.77 1063.56 1437.77 1064.57 Q1437.77 1065.58 1437.07 1066.32 Q1436.41 1067.04 1435.25 1067.04 Q1434.68 1067.04 1434.38 1066.94 Q1435.05 1069.26 1437.07 1070.94 Q1439.12 1072.62 1441.82 1072.62 Q1445.2 1072.62 1447.23 1069.34 Q1448.44 1067.21 1448.44 1062.4 Q1448.44 1058.15 1447.52 1056.02 Q1446.12 1052.79 1443.23 1052.79 Q1439.12 1052.79 1436.7 1056.32 Q1436.41 1056.76 1436.06 1056.79 Q1435.57 1056.79 1435.44 1056.52 Q1435.35 1056.22 1435.35 1055.45 L1435.35 1040.48 Q1435.35 1039.27 1435.84 1039.27 Q1436.04 1039.27 1436.46 1039.42 Q1439.64 1040.83 1443.18 1040.85 Q1446.81 1040.85 1450.07 1039.37 Q1450.32 1039.22 1450.46 1039.22 Q1450.96 1039.22 1450.98 1039.79 Q1450.98 1039.99 1450.56 1040.58 Q1450.17 1041.15 1449.3 1041.92 Q1448.44 1042.66 1447.33 1043.37 Q1446.21 1044.09 1444.58 1044.59 Q1442.98 1045.05 1441.2 1045.05 Q1439.08 1045.05 1436.9 1044.39 L1436.9 1054.24 Q1439.52 1051.67 1443.32 1051.67 Q1447.38 1051.67 1450.17 1054.94 Q1452.96 1058.2 1452.96 1062.74 Q1452.96 1067.51 1449.65 1070.77 Q1446.36 1074.03 1441.92 1074.03 Q1437.87 1074.03 1435.3 1071.14 Q1432.75 1068.25 1432.75 1064.77 Z" fill="#000000" fill-rule="nonzero" fill-opacity="1" /><path clip-path="url(#clip360)" d="M753.811 1121.96 L753.811 1119.79 Q756.936 1119.99 760.57 1119.99 Q761.895 1119.99 768.145 1119.79 L768.145 1121.96 Q764.171 1121.96 764.171 1123.77 Q764.171 1124.04 764.578 1124.95 L772.391 1144.35 L779.49 1126.62 Q779.897 1125.43 779.897 1124.95 Q779.897 1123.77 779.082 1122.92 Q778.301 1122.03 776.569 1121.96 L776.569 1119.79 Q780.101 1119.99 782.615 1119.99 Q785.468 1119.99 787.812 1119.79 L787.812 1121.96 Q785.74 1121.96 784.279 1122.92 Q782.819 1123.83 782.343 1124.65 Q781.902 1125.43 781.426 1126.62 L772.323 1149.24 Q771.779 1150.57 770.862 1150.57 Q770.251 1150.57 769.979 1150.29 Q769.741 1150.06 769.402 1149.24 L759.381 1124.55 Q758.702 1122.81 757.819 1122.41 Q756.936 1121.96 753.811 1121.96 Z" fill="#000000" fill-rule="nonzero" fill-opacity="1" /><path clip-path="url(#clip360)" d="M790.122 1143.16 Q790.122 1137.25 797.085 1134.13 Q801.263 1132.12 809.89 1131.61 L809.89 1129.06 Q809.89 1124.75 807.615 1122.47 Q805.373 1120.16 802.52 1120.16 Q797.424 1120.16 794.979 1123.36 Q797.051 1123.43 797.798 1124.48 Q798.545 1125.5 798.545 1126.55 Q798.545 1127.94 797.662 1128.86 Q796.813 1129.74 795.352 1129.74 Q793.96 1129.74 793.043 1128.89 Q792.126 1128.01 792.126 1126.48 Q792.126 1123.09 795.183 1120.84 Q798.274 1118.6 802.655 1118.6 Q808.362 1118.6 812.166 1122.44 Q813.355 1123.63 813.932 1125.16 Q814.544 1126.69 814.612 1127.71 Q814.68 1128.69 814.68 1130.66 L814.68 1144.55 Q814.68 1144.96 814.816 1145.64 Q814.952 1146.32 815.563 1147.2 Q816.208 1148.05 817.261 1148.05 Q819.775 1148.05 819.741 1143.6 L819.741 1139.7 L821.507 1139.7 L821.507 1143.6 Q821.507 1147.3 819.537 1148.76 Q817.601 1150.19 815.801 1150.19 Q813.491 1150.19 812.03 1148.49 Q810.57 1146.79 810.366 1144.48 Q809.313 1147.13 806.901 1148.87 Q804.524 1150.57 801.263 1150.57 Q798.749 1150.57 796.371 1149.92 Q794.028 1149.31 792.058 1147.58 Q790.122 1145.81 790.122 1143.16 M795.488 1143.09 Q795.488 1145.67 797.323 1147.34 Q799.157 1149 801.738 1149 Q804.659 1149 807.275 1146.76 Q809.89 1144.48 809.89 1140.04 L809.89 1133.07 Q802.18 1133.34 798.817 1136.43 Q795.488 1139.49 795.488 1143.09 Z" fill="#000000" fill-rule="nonzero" fill-opacity="1" /><path clip-path="url(#clip360)" d="M824.292 1149.78 L824.292 1147.64 Q827.995 1147.64 828.844 1147.2 Q829.693 1146.73 829.693 1144.48 L829.693 1108.31 Q829.693 1105.73 828.776 1105.08 Q827.893 1104.44 824.292 1104.44 L824.292 1102.26 L834.279 1101.52 L834.279 1144.48 Q834.279 1146.73 835.162 1147.2 Q836.045 1147.64 839.714 1147.64 L839.714 1149.78 Q838.864 1149.78 837.098 1149.72 Q835.332 1149.65 834.041 1149.61 Q832.75 1149.58 832.003 1149.58 Q831.188 1149.58 824.292 1149.78 Z" fill="#000000" fill-rule="nonzero" fill-opacity="1" /><path clip-path="url(#clip360)" d="M843.484 1121.96 L843.484 1119.79 L853.708 1119.04 L853.708 1142.14 Q853.708 1143.81 853.844 1144.79 Q853.98 1145.74 854.523 1146.86 Q855.101 1147.98 856.391 1148.49 Q857.716 1149 859.822 1149 Q863.592 1149 865.902 1145.91 Q868.246 1142.82 868.246 1138.24 L868.246 1125.84 Q868.246 1123.26 867.329 1122.61 Q866.412 1121.96 862.811 1121.96 L862.811 1119.79 L873.035 1119.04 L873.035 1143.74 Q873.035 1146.32 873.918 1147 Q874.836 1147.64 878.47 1147.64 L878.47 1149.78 L868.45 1150.57 L868.45 1144.28 Q865.529 1150.53 859.482 1150.57 Q856.425 1150.57 854.319 1149.78 Q852.247 1149 851.194 1148.05 Q850.141 1147.07 849.564 1145.2 Q849.021 1143.33 848.953 1142.18 Q848.885 1141.02 848.885 1138.78 L848.885 1128.35 Q848.885 1123.63 848.205 1122.81 Q847.526 1121.96 843.484 1121.96 Z" fill="#000000" fill-rule="nonzero" fill-opacity="1" /><path clip-path="url(#clip360)" d="M881.765 1134.46 Q881.765 1127.91 885.977 1123.26 Q890.189 1118.6 896.235 1118.6 Q902.349 1118.6 905.508 1122.58 Q908.701 1126.55 908.701 1132.26 Q908.701 1133.31 908.429 1133.51 Q908.157 1133.72 906.968 1133.72 L887.539 1133.72 Q887.539 1140.82 889.645 1144.15 Q892.566 1148.8 897.492 1148.8 Q898.171 1148.8 898.986 1148.66 Q899.801 1148.53 901.466 1147.95 Q903.13 1147.34 904.591 1145.74 Q906.051 1144.15 906.901 1141.63 Q907.104 1140.65 907.784 1140.68 Q908.701 1140.68 908.701 1141.5 Q908.701 1142.11 908.021 1143.5 Q907.376 1144.86 906.119 1146.49 Q904.862 1148.12 902.417 1149.34 Q900.005 1150.57 897.084 1150.57 Q890.97 1150.57 886.35 1145.95 Q881.765 1141.29 881.765 1134.46 M887.607 1132.26 L904.115 1132.26 Q904.115 1130.8 903.843 1129.17 Q903.606 1127.54 902.858 1125.29 Q902.145 1123.02 900.447 1121.59 Q898.748 1120.16 896.235 1120.16 Q895.114 1120.16 893.891 1120.64 Q892.702 1121.12 891.242 1122.27 Q889.781 1123.43 888.762 1126.04 Q887.743 1128.66 887.607 1132.26 Z" fill="#000000" fill-rule="nonzero" fill-opacity="1" /><path clip-path="url(#clip360)" d="M940.732 1132.39 Q940.732 1120.64 945.114 1111.16 Q946.982 1107.19 949.597 1103.86 Q952.213 1100.53 953.945 1099.07 Q955.677 1097.61 956.153 1097.61 Q956.832 1097.61 956.866 1098.29 Q956.866 1098.63 955.949 1099.48 Q944.74 1110.89 944.774 1132.39 Q944.774 1153.96 955.677 1164.93 Q956.866 1166.12 956.866 1166.5 Q956.866 1167.18 956.153 1167.18 Q955.677 1167.18 954.013 1165.78 Q952.349 1164.39 949.767 1161.2 Q947.186 1158 945.317 1154.1 Q940.732 1144.62 940.732 1132.39 Z" fill="#000000" fill-rule="nonzero" fill-opacity="1" /><path clip-path="url(#clip360)" d="M963.048 1149.78 L963.048 1147.64 Q965.29 1147.58 966.751 1147.17 Q968.245 1146.73 969.094 1145.64 Q969.977 1144.55 970.317 1143.84 Q970.691 1143.09 971.302 1141.36 L983.7 1105.83 Q983.904 1105.05 984.447 1103.55 Q985.025 1102.06 985.229 1101.31 Q980.236 1099.38 980.202 1093.84 Q980.202 1090.92 982.002 1088.61 Q983.836 1086.27 986.825 1086.27 Q989.746 1086.27 991.615 1088.58 Q993.517 1090.85 993.517 1093.84 Q993.517 1099.34 988.49 1101.31 L1003.1 1143.53 Q1004.15 1146.46 1005.13 1147.07 Q1006.15 1147.64 1010.4 1147.64 L1010.67 1147.64 L1010.67 1149.78 Q1006.22 1149.58 1001.77 1149.58 Q996.676 1149.58 991.547 1149.78 L991.547 1147.64 L991.682 1147.64 Q997.185 1147.64 997.185 1145.4 Q997.185 1144.86 993.449 1133.92 L976.193 1133.92 Q975.786 1135.31 974.869 1137.83 Q973.952 1140.31 973.408 1141.97 Q972.899 1143.6 972.899 1144.15 Q972.899 1145.4 974.121 1146.49 Q975.344 1147.54 978.062 1147.64 L978.062 1149.78 Q974.02 1149.58 969.91 1149.58 Q966.513 1149.58 963.048 1149.78 M976.941 1131.78 L992.667 1131.78 L984.821 1109.16 L976.941 1131.78 M981.968 1093.77 Q981.968 1097.24 983.462 1098.6 Q984.957 1099.92 986.893 1099.92 Q988.829 1099.92 990.29 1098.6 Q991.75 1097.27 991.75 1093.91 Q991.75 1090.44 990.256 1089.12 Q988.761 1087.79 986.825 1087.79 Q984.889 1087.79 983.428 1089.12 Q981.968 1090.44 981.968 1093.77 Z" fill="#000000" fill-rule="nonzero" fill-opacity="1" /><path clip-path="url(#clip360)" d="M1016.95 1166.5 Q1016.95 1166.16 1017.84 1165.31 Q1029.05 1153.89 1029.05 1132.39 Q1029.05 1110.82 1018.28 1099.92 Q1016.95 1098.66 1016.95 1098.29 Q1016.95 1097.61 1017.63 1097.61 Q1018.11 1097.61 1019.77 1099 Q1021.47 1100.4 1024.02 1103.59 Q1026.6 1106.78 1028.5 1110.69 Q1033.09 1120.16 1033.09 1132.39 Q1033.09 1144.15 1028.71 1153.62 Q1026.84 1157.6 1024.22 1160.93 Q1021.61 1164.25 1019.88 1165.71 Q1018.14 1167.18 1017.63 1167.18 Q1016.95 1167.18 1016.95 1166.5 Z" fill="#000000" fill-rule="nonzero" fill-opacity="1" /><polyline clip-path="url(#clip360)" style="stroke:#000000; stroke-linecap:round; stroke-linejoin:round; stroke-width:4; stroke-opacity:1; fill:none" points="297.135,1016.92 297.135,47.2441 "/>
<polyline clip-path="url(#clip360)" style="stroke:#000000; stroke-linecap:round; stroke-linejoin:round; stroke-width:4; stroke-opacity:1; fill:none" points="1489.76,1016.92 1489.76,47.2441 "/>
<polyline clip-path="url(#clip360)" style="stroke:#000000; stroke-linecap:round; stroke-linejoin:round; stroke-width:4; stroke-opacity:1; fill:none" points="297.135,1016.92 316.033,1016.92 "/>
<polyline clip-path="url(#clip360)" style="stroke:#000000; stroke-linecap:round; stroke-linejoin:round; stroke-width:4; stroke-opacity:1; fill:none" points="297.135,793.05 316.033,793.05 "/>
<polyline clip-path="url(#clip360)" style="stroke:#000000; stroke-linecap:round; stroke-linejoin:round; stroke-width:4; stroke-opacity:1; fill:none" points="297.135,569.18 316.033,569.18 "/>
<polyline clip-path="url(#clip360)" style="stroke:#000000; stroke-linecap:round; stroke-linejoin:round; stroke-width:4; stroke-opacity:1; fill:none" points="297.135,345.309 316.033,345.309 "/>
<polyline clip-path="url(#clip360)" style="stroke:#000000; stroke-linecap:round; stroke-linejoin:round; stroke-width:4; stroke-opacity:1; fill:none" points="297.135,121.439 316.033,121.439 "/>
<polyline clip-path="url(#clip360)" style="stroke:#000000; stroke-linecap:round; stroke-linejoin:round; stroke-width:4; stroke-opacity:1; fill:none" points="1489.76,1016.92 1470.87,1016.92 "/>
<polyline clip-path="url(#clip360)" style="stroke:#000000; stroke-linecap:round; stroke-linejoin:round; stroke-width:4; stroke-opacity:1; fill:none" points="1489.76,793.05 1470.87,793.05 "/>
<polyline clip-path="url(#clip360)" style="stroke:#000000; stroke-linecap:round; stroke-linejoin:round; stroke-width:4; stroke-opacity:1; fill:none" points="1489.76,569.18 1470.87,569.18 "/>
<polyline clip-path="url(#clip360)" style="stroke:#000000; stroke-linecap:round; stroke-linejoin:round; stroke-width:4; stroke-opacity:1; fill:none" points="1489.76,345.309 1470.87,345.309 "/>
<polyline clip-path="url(#clip360)" style="stroke:#000000; stroke-linecap:round; stroke-linejoin:round; stroke-width:4; stroke-opacity:1; fill:none" points="1489.76,121.439 1470.87,121.439 "/>
<path clip-path="url(#clip360)" d="M187.192 1018.02 Q187.192 1010.58 189.07 1006.53 Q191.688 1000.5 197.864 1000.5 Q199.173 1000.5 200.532 1000.88 Q201.915 1001.22 203.645 1002.58 Q205.399 1003.94 206.461 1006.16 Q208.487 1010.46 208.487 1018.02 Q208.487 1025.41 206.609 1029.43 Q203.867 1035.31 197.815 1035.31 Q195.542 1035.31 193.22 1034.15 Q190.922 1032.99 189.465 1030.2 Q187.192 1026.02 187.192 1018.02 M191.392 1017.4 Q191.392 1025.03 191.935 1028.07 Q192.553 1031.36 194.233 1032.79 Q195.937 1034.2 197.815 1034.2 Q199.84 1034.2 201.52 1032.69 Q203.225 1031.16 203.744 1027.88 Q204.312 1024.64 204.287 1017.4 Q204.287 1010.36 203.793 1007.54 Q203.126 1004.26 201.347 1002.95 Q199.593 1001.62 197.815 1001.62 Q197.148 1001.62 196.431 1001.81 Q195.74 1002.01 194.727 1002.58 Q193.714 1003.15 192.923 1004.56 Q192.158 1005.96 191.787 1008.09 Q191.392 1010.83 191.392 1017.4 Z" fill="#000000" fill-rule="nonzero" fill-opacity="1" /><path clip-path="url(#clip360)" d="M215.576 1033.38 Q214.811 1032.57 214.811 1031.51 Q214.811 1030.44 215.576 1029.68 Q216.342 1028.89 217.503 1028.89 Q218.615 1028.89 219.356 1029.63 Q220.122 1030.35 220.122 1031.53 Q220.122 1032.69 219.307 1033.46 Q218.516 1034.2 217.503 1034.2 Q216.342 1034.2 215.576 1033.38 Z" fill="#000000" fill-rule="nonzero" fill-opacity="1" /><path clip-path="url(#clip360)" d="M226.545 1018.02 Q226.545 1010.58 228.422 1006.53 Q231.041 1000.5 237.217 1000.5 Q238.526 1000.5 239.885 1000.88 Q241.268 1001.22 242.997 1002.58 Q244.751 1003.94 245.813 1006.16 Q247.839 1010.46 247.839 1018.02 Q247.839 1025.41 245.962 1029.43 Q243.22 1035.31 237.167 1035.31 Q234.894 1035.31 232.572 1034.15 Q230.275 1032.99 228.817 1030.2 Q226.545 1026.02 226.545 1018.02 M230.744 1017.4 Q230.744 1025.03 231.288 1028.07 Q231.905 1031.36 233.585 1032.79 Q235.29 1034.2 237.167 1034.2 Q239.193 1034.2 240.873 1032.69 Q242.577 1031.16 243.096 1027.88 Q243.664 1024.64 243.639 1017.4 Q243.639 1010.36 243.145 1007.54 Q242.478 1004.26 240.7 1002.95 Q238.946 1001.62 237.167 1001.62 Q236.5 1001.62 235.784 1001.81 Q235.092 1002.01 234.079 1002.58 Q233.066 1003.15 232.276 1004.56 Q231.51 1005.96 231.14 1008.09 Q230.744 1010.83 230.744 1017.4 Z" fill="#000000" fill-rule="nonzero" fill-opacity="1" /><path clip-path="url(#clip360)" d="M251.841 1018.02 Q251.841 1010.58 253.718 1006.53 Q256.337 1000.5 262.513 1000.5 Q263.822 1000.5 265.181 1000.88 Q266.564 1001.22 268.293 1002.58 Q270.047 1003.94 271.11 1006.16 Q273.135 1010.46 273.135 1018.02 Q273.135 1025.41 271.258 1029.43 Q268.516 1035.31 262.463 1035.31 Q260.191 1035.31 257.869 1034.15 Q255.571 1032.99 254.114 1030.2 Q251.841 1026.02 251.841 1018.02 M256.041 1017.4 Q256.041 1025.03 256.584 1028.07 Q257.202 1031.36 258.881 1032.79 Q260.586 1034.2 262.463 1034.2 Q264.489 1034.2 266.169 1032.69 Q267.873 1031.16 268.392 1027.88 Q268.96 1024.64 268.936 1017.4 Q268.936 1010.36 268.442 1007.54 Q267.775 1004.26 265.996 1002.95 Q264.242 1001.62 262.463 1001.62 Q261.796 1001.62 261.08 1001.81 Q260.388 1002.01 259.376 1002.58 Q258.363 1003.15 257.572 1004.56 Q256.806 1005.96 256.436 1008.09 Q256.041 1010.83 256.041 1017.4 Z" fill="#000000" fill-rule="nonzero" fill-opacity="1" /><path clip-path="url(#clip360)" d="M187.736 794.149 Q187.736 786.713 189.613 782.662 Q192.232 776.634 198.408 776.634 Q199.717 776.634 201.076 777.005 Q202.459 777.351 204.188 778.709 Q205.942 780.068 207.004 782.291 Q209.03 786.59 209.03 794.149 Q209.03 801.535 207.153 805.562 Q204.411 811.441 198.358 811.441 Q196.085 811.441 193.763 810.28 Q191.466 809.119 190.008 806.328 Q187.736 802.153 187.736 794.149 M191.935 793.531 Q191.935 801.165 192.479 804.203 Q193.096 807.489 194.776 808.922 Q196.481 810.33 198.358 810.33 Q200.384 810.33 202.064 808.823 Q203.768 807.291 204.287 804.006 Q204.855 800.77 204.83 793.531 Q204.83 786.491 204.336 783.675 Q203.669 780.389 201.891 779.08 Q200.137 777.746 198.358 777.746 Q197.691 777.746 196.975 777.944 Q196.283 778.141 195.27 778.709 Q194.257 779.278 193.467 780.686 Q192.701 782.094 192.331 784.218 Q191.935 786.96 191.935 793.531 Z" fill="#000000" fill-rule="nonzero" fill-opacity="1" /><path clip-path="url(#clip360)" d="M216.12 809.514 Q215.354 808.699 215.354 807.637 Q215.354 806.575 216.12 805.809 Q216.886 805.018 218.047 805.018 Q219.158 805.018 219.9 805.76 Q220.665 806.476 220.665 807.662 Q220.665 808.823 219.85 809.589 Q219.06 810.33 218.047 810.33 Q216.886 810.33 216.12 809.514 Z" fill="#000000" fill-rule="nonzero" fill-opacity="1" /><path clip-path="url(#clip360)" d="M227.632 810.33 Q227.632 809.416 227.706 809.144 Q227.805 808.872 228.2 808.452 L237.908 797.632 Q243.22 791.654 243.22 786.442 Q243.22 783.057 241.441 780.636 Q239.687 778.215 236.451 778.215 Q234.227 778.215 232.35 779.574 Q230.473 780.933 229.608 783.354 Q229.756 783.304 230.275 783.304 Q231.535 783.304 232.227 784.095 Q232.943 784.885 232.943 785.947 Q232.943 787.306 232.054 787.973 Q231.189 788.615 230.324 788.615 Q229.979 788.615 229.509 788.541 Q229.064 788.467 228.348 787.776 Q227.632 787.059 227.632 785.799 Q227.632 782.267 230.3 779.451 Q232.992 776.634 237.093 776.634 Q241.737 776.634 244.776 779.401 Q247.839 782.143 247.839 786.442 Q247.839 787.948 247.37 789.332 Q246.925 790.691 246.307 791.753 Q245.715 792.815 244.084 794.52 Q242.454 796.224 241.144 797.435 Q239.835 798.645 236.895 801.214 L231.535 806.427 L240.65 806.427 Q245.097 806.427 245.443 806.031 Q245.937 805.315 246.554 801.535 L247.839 801.535 L246.406 810.33 L227.632 810.33 Z" fill="#000000" fill-rule="nonzero" fill-opacity="1" /><path clip-path="url(#clip360)" d="M252.928 802.178 Q252.928 800.671 253.743 800.103 Q254.558 799.51 255.423 799.51 Q256.584 799.51 257.251 800.251 Q257.943 800.967 257.943 801.98 Q257.943 802.993 257.251 803.734 Q256.584 804.45 255.423 804.45 Q254.855 804.45 254.558 804.351 Q255.225 806.674 257.251 808.353 Q259.301 810.033 261.994 810.033 Q265.378 810.033 267.404 806.748 Q268.615 804.623 268.615 799.806 Q268.615 795.557 267.701 793.433 Q266.292 790.196 263.402 790.196 Q259.301 790.196 256.88 793.729 Q256.584 794.174 256.238 794.198 Q255.744 794.198 255.621 793.927 Q255.522 793.63 255.522 792.864 L255.522 777.894 Q255.522 776.684 256.016 776.684 Q256.213 776.684 256.633 776.832 Q259.82 778.24 263.353 778.265 Q266.984 778.265 270.245 776.783 Q270.492 776.634 270.64 776.634 Q271.134 776.634 271.159 777.203 Q271.159 777.4 270.739 777.993 Q270.344 778.561 269.479 779.327 Q268.615 780.068 267.503 780.784 Q266.391 781.501 264.761 781.995 Q263.155 782.464 261.376 782.464 Q259.252 782.464 257.078 781.797 L257.078 791.654 Q259.697 789.085 263.501 789.085 Q267.552 789.085 270.344 792.346 Q273.135 795.607 273.135 800.152 Q273.135 804.92 269.825 808.181 Q266.539 811.441 262.093 811.441 Q258.042 811.441 255.472 808.551 Q252.928 805.661 252.928 802.178 Z" fill="#000000" fill-rule="nonzero" fill-opacity="1" /><path clip-path="url(#clip360)" d="M187.192 570.279 Q187.192 562.843 189.07 558.792 Q191.688 552.764 197.864 552.764 Q199.173 552.764 200.532 553.135 Q201.915 553.481 203.645 554.839 Q205.399 556.198 206.461 558.421 Q208.487 562.72 208.487 570.279 Q208.487 577.665 206.609 581.692 Q203.867 587.571 197.815 587.571 Q195.542 587.571 193.22 586.41 Q190.922 585.249 189.465 582.458 Q187.192 578.283 187.192 570.279 M191.392 569.661 Q191.392 577.295 191.935 580.333 Q192.553 583.619 194.233 585.051 Q195.937 586.46 197.815 586.46 Q199.84 586.46 201.52 584.953 Q203.225 583.421 203.744 580.136 Q204.312 576.899 204.287 569.661 Q204.287 562.621 203.793 559.805 Q203.126 556.519 201.347 555.21 Q199.593 553.876 197.815 553.876 Q197.148 553.876 196.431 554.073 Q195.74 554.271 194.727 554.839 Q193.714 555.407 192.923 556.816 Q192.158 558.224 191.787 560.348 Q191.392 563.09 191.392 569.661 Z" fill="#000000" fill-rule="nonzero" fill-opacity="1" /><path clip-path="url(#clip360)" d="M215.576 585.644 Q214.811 584.829 214.811 583.767 Q214.811 582.705 215.576 581.939 Q216.342 581.148 217.503 581.148 Q218.615 581.148 219.356 581.889 Q220.122 582.606 220.122 583.792 Q220.122 584.953 219.307 585.718 Q218.516 586.46 217.503 586.46 Q216.342 586.46 215.576 585.644 Z" fill="#000000" fill-rule="nonzero" fill-opacity="1" /><path clip-path="url(#clip360)" d="M227.088 578.307 Q227.088 576.801 227.903 576.232 Q228.719 575.64 229.583 575.64 Q230.744 575.64 231.411 576.381 Q232.103 577.097 232.103 578.11 Q232.103 579.123 231.411 579.864 Q230.744 580.58 229.583 580.58 Q229.015 580.58 228.719 580.481 Q229.386 582.803 231.411 584.483 Q233.462 586.163 236.154 586.163 Q239.539 586.163 241.564 582.878 Q242.775 580.753 242.775 575.936 Q242.775 571.687 241.861 569.562 Q240.453 566.326 237.562 566.326 Q233.462 566.326 231.041 569.859 Q230.744 570.304 230.398 570.328 Q229.904 570.328 229.781 570.057 Q229.682 569.76 229.682 568.994 L229.682 554.024 Q229.682 552.814 230.176 552.814 Q230.374 552.814 230.794 552.962 Q233.98 554.37 237.513 554.395 Q241.144 554.395 244.405 552.912 Q244.652 552.764 244.801 552.764 Q245.295 552.764 245.319 553.332 Q245.319 553.53 244.899 554.123 Q244.504 554.691 243.639 555.457 Q242.775 556.198 241.663 556.914 Q240.552 557.631 238.921 558.125 Q237.315 558.594 235.537 558.594 Q233.412 558.594 231.238 557.927 L231.238 567.784 Q233.857 565.215 237.661 565.215 Q241.713 565.215 244.504 568.476 Q247.296 571.736 247.296 576.282 Q247.296 581.05 243.985 584.31 Q240.7 587.571 236.253 587.571 Q232.202 587.571 229.633 584.681 Q227.088 581.791 227.088 578.307 Z" fill="#000000" fill-rule="nonzero" fill-opacity="1" /><path clip-path="url(#clip360)" d="M251.841 570.279 Q251.841 562.843 253.718 558.792 Q256.337 552.764 262.513 552.764 Q263.822 552.764 265.181 553.135 Q266.564 553.481 268.293 554.839 Q270.047 556.198 271.11 558.421 Q273.135 562.72 273.135 570.279 Q273.135 577.665 271.258 581.692 Q268.516 587.571 262.463 587.571 Q260.191 587.571 257.869 586.41 Q255.571 585.249 254.114 582.458 Q251.841 578.283 251.841 570.279 M256.041 569.661 Q256.041 577.295 256.584 580.333 Q257.202 583.619 258.881 585.051 Q260.586 586.46 262.463 586.46 Q264.489 586.46 266.169 584.953 Q267.873 583.421 268.392 580.136 Q268.96 576.899 268.936 569.661 Q268.936 562.621 268.442 559.805 Q267.775 556.519 265.996 555.21 Q264.242 553.876 262.463 553.876 Q261.796 553.876 261.08 554.073 Q260.388 554.271 259.376 554.839 Q258.363 555.407 257.572 556.816 Q256.806 558.224 256.436 560.348 Q256.041 563.09 256.041 569.661 Z" fill="#000000" fill-rule="nonzero" fill-opacity="1" /><path clip-path="url(#clip360)" d="M187.736 346.409 Q187.736 338.973 189.613 334.922 Q192.232 328.894 198.408 328.894 Q199.717 328.894 201.076 329.265 Q202.459 329.61 204.188 330.969 Q205.942 332.328 207.004 334.551 Q209.03 338.85 209.03 346.409 Q209.03 353.795 207.153 357.822 Q204.411 363.701 198.358 363.701 Q196.085 363.701 193.763 362.54 Q191.466 361.379 190.008 358.587 Q187.736 354.413 187.736 346.409 M191.935 345.791 Q191.935 353.424 192.479 356.463 Q193.096 359.749 194.776 361.181 Q196.481 362.589 198.358 362.589 Q200.384 362.589 202.064 361.083 Q203.768 359.551 204.287 356.265 Q204.855 353.029 204.83 345.791 Q204.83 338.751 204.336 335.935 Q203.669 332.649 201.891 331.34 Q200.137 330.006 198.358 330.006 Q197.691 330.006 196.975 330.203 Q196.283 330.401 195.27 330.969 Q194.257 331.537 193.467 332.945 Q192.701 334.354 192.331 336.478 Q191.935 339.22 191.935 345.791 Z" fill="#000000" fill-rule="nonzero" fill-opacity="1" /><path clip-path="url(#clip360)" d="M216.12 361.774 Q215.354 360.959 215.354 359.897 Q215.354 358.835 216.12 358.069 Q216.886 357.278 218.047 357.278 Q219.158 357.278 219.9 358.019 Q220.665 358.736 220.665 359.921 Q220.665 361.083 219.85 361.848 Q219.06 362.589 218.047 362.589 Q216.886 362.589 216.12 361.774 Z" fill="#000000" fill-rule="nonzero" fill-opacity="1" /><path clip-path="url(#clip360)" d="M227.953 338.8 L229.608 328.4 L230.868 328.4 Q231.016 329.018 231.263 329.289 Q231.535 329.561 232.968 329.783 Q234.425 330.006 237.365 330.006 L249.642 330.006 Q249.642 331.167 249.198 331.784 L242.355 341.394 Q240.181 344.432 239.218 350.04 Q238.649 353.795 238.674 358.34 L238.674 360.91 Q238.674 363.701 236.327 363.701 Q234.005 363.701 234.005 360.91 Q234.005 351.251 240.23 341.888 Q240.897 340.925 243.343 337.491 Q245.813 334.057 245.912 333.909 L235.438 333.909 Q230.843 333.909 230.473 334.205 Q229.979 334.65 229.213 338.8 L227.953 338.8 Z" fill="#000000" fill-rule="nonzero" fill-opacity="1" /><path clip-path="url(#clip360)" d="M252.928 354.437 Q252.928 352.93 253.743 352.362 Q254.558 351.769 255.423 351.769 Q256.584 351.769 257.251 352.51 Q257.943 353.227 257.943 354.24 Q257.943 355.253 257.251 355.994 Q256.584 356.71 255.423 356.71 Q254.855 356.71 254.558 356.611 Q255.225 358.933 257.251 360.613 Q259.301 362.293 261.994 362.293 Q265.378 362.293 267.404 359.007 Q268.615 356.883 268.615 352.066 Q268.615 347.817 267.701 345.692 Q266.292 342.456 263.402 342.456 Q259.301 342.456 256.88 345.989 Q256.584 346.433 256.238 346.458 Q255.744 346.458 255.621 346.186 Q255.522 345.89 255.522 345.124 L255.522 330.154 Q255.522 328.943 256.016 328.943 Q256.213 328.943 256.633 329.092 Q259.82 330.5 263.353 330.524 Q266.984 330.524 270.245 329.042 Q270.492 328.894 270.64 328.894 Q271.134 328.894 271.159 329.462 Q271.159 329.66 270.739 330.253 Q270.344 330.821 269.479 331.587 Q268.615 332.328 267.503 333.044 Q266.391 333.761 264.761 334.255 Q263.155 334.724 261.376 334.724 Q259.252 334.724 257.078 334.057 L257.078 343.914 Q259.697 341.345 263.501 341.345 Q267.552 341.345 270.344 344.605 Q273.135 347.866 273.135 352.412 Q273.135 357.179 269.825 360.44 Q266.539 363.701 262.093 363.701 Q258.042 363.701 255.472 360.811 Q252.928 357.921 252.928 354.437 Z" fill="#000000" fill-rule="nonzero" fill-opacity="1" /><path clip-path="url(#clip360)" d="M189.712 109.841 L189.712 108.26 Q195.789 108.26 198.926 105.024 Q199.791 105.024 199.939 105.222 Q200.087 105.419 200.087 106.333 L200.087 134.717 Q200.087 136.224 200.829 136.694 Q201.57 137.163 204.806 137.163 L206.411 137.163 L206.411 138.719 Q204.633 138.571 198.21 138.571 Q191.787 138.571 190.033 138.719 L190.033 137.163 L191.639 137.163 Q194.826 137.163 195.591 136.718 Q196.357 136.249 196.357 134.717 L196.357 108.507 Q193.714 109.841 189.712 109.841 Z" fill="#000000" fill-rule="nonzero" fill-opacity="1" /><path clip-path="url(#clip360)" d="M215.576 137.904 Q214.811 137.089 214.811 136.027 Q214.811 134.964 215.576 134.199 Q216.342 133.408 217.503 133.408 Q218.615 133.408 219.356 134.149 Q220.122 134.866 220.122 136.051 Q220.122 137.212 219.307 137.978 Q218.516 138.719 217.503 138.719 Q216.342 138.719 215.576 137.904 Z" fill="#000000" fill-rule="nonzero" fill-opacity="1" /><path clip-path="url(#clip360)" d="M226.545 122.539 Q226.545 115.103 228.422 111.052 Q231.041 105.024 237.217 105.024 Q238.526 105.024 239.885 105.394 Q241.268 105.74 242.997 107.099 Q244.751 108.458 245.813 110.681 Q247.839 114.979 247.839 122.539 Q247.839 129.925 245.962 133.952 Q243.22 139.831 237.167 139.831 Q234.894 139.831 232.572 138.67 Q230.275 137.509 228.817 134.717 Q226.545 130.542 226.545 122.539 M230.744 121.921 Q230.744 129.554 231.288 132.593 Q231.905 135.878 233.585 137.311 Q235.29 138.719 237.167 138.719 Q239.193 138.719 240.873 137.212 Q242.577 135.681 243.096 132.395 Q243.664 129.159 243.639 121.921 Q243.639 114.881 243.145 112.064 Q242.478 108.779 240.7 107.47 Q238.946 106.136 237.167 106.136 Q236.5 106.136 235.784 106.333 Q235.092 106.531 234.079 107.099 Q233.066 107.667 232.276 109.075 Q231.51 110.483 231.14 112.608 Q230.744 115.35 230.744 121.921 Z" fill="#000000" fill-rule="nonzero" fill-opacity="1" /><path clip-path="url(#clip360)" d="M251.841 122.539 Q251.841 115.103 253.718 111.052 Q256.337 105.024 262.513 105.024 Q263.822 105.024 265.181 105.394 Q266.564 105.74 268.293 107.099 Q270.047 108.458 271.11 110.681 Q273.135 114.979 273.135 122.539 Q273.135 129.925 271.258 133.952 Q268.516 139.831 262.463 139.831 Q260.191 139.831 257.869 138.67 Q255.571 137.509 254.114 134.717 Q251.841 130.542 251.841 122.539 M256.041 121.921 Q256.041 129.554 256.584 132.593 Q257.202 135.878 258.881 137.311 Q260.586 138.719 262.463 138.719 Q264.489 138.719 266.169 137.212 Q267.873 135.681 268.392 132.395 Q268.96 129.159 268.936 121.921 Q268.936 114.881 268.442 112.064 Q267.775 108.779 265.996 107.47 Q264.242 106.136 262.463 106.136 Q261.796 106.136 261.08 106.333 Q260.388 106.531 259.376 107.099 Q258.363 107.667 257.572 109.075 Q256.806 110.483 256.436 112.608 Q256.041 115.35 256.041 121.921 Z" fill="#000000" fill-rule="nonzero" fill-opacity="1" /><path clip-path="url(#clip360)" d="M133.991 750.474 Q127.367 750.474 122.782 745.854 Q118.196 741.235 118.196 734.985 Q118.196 729.686 122.51 726.221 L107.462 726.221 Q104.881 726.221 104.236 727.138 Q103.59 728.021 103.59 731.622 L101.416 731.622 L100.669 721.602 L142.89 721.602 Q145.472 721.602 146.151 720.718 Q146.796 719.801 146.796 716.201 L148.936 716.201 L149.718 726.425 L145.098 726.425 Q149.684 730.025 149.718 735.732 Q149.718 741.71 145.132 746.092 Q140.546 750.474 133.991 750.474 M134.059 744.699 Q140.512 744.699 143.705 742.695 Q148.155 739.91 148.155 735.392 Q148.155 730.229 143.298 727.172 Q142.109 726.391 140.716 726.425 L126.45 726.425 Q125.057 726.425 123.903 727.172 Q119.725 730.025 119.725 734.679 Q119.725 739.536 124.174 742.559 Q127.503 744.699 134.059 744.699 Z" fill="#000000" fill-rule="nonzero" fill-opacity="1" /><path clip-path="url(#clip360)" d="M133.617 712.328 Q127.061 712.328 122.408 708.117 Q117.754 703.905 117.754 697.858 Q117.754 691.744 121.729 688.585 Q125.703 685.393 131.409 685.393 Q132.462 685.393 132.666 685.664 Q132.87 685.936 132.87 687.125 L132.87 706.554 Q139.969 706.554 143.298 704.448 Q147.951 701.527 147.951 696.602 Q147.951 695.922 147.815 695.107 Q147.68 694.292 147.102 692.628 Q146.491 690.963 144.894 689.503 Q143.298 688.042 140.784 687.193 Q139.799 686.989 139.833 686.31 Q139.833 685.393 140.648 685.393 Q141.26 685.393 142.652 686.072 Q144.011 686.717 145.641 687.974 Q147.272 689.231 148.495 691.676 Q149.718 694.088 149.718 697.009 Q149.718 703.123 145.098 707.743 Q140.445 712.328 133.617 712.328 M131.409 706.486 L131.409 689.978 Q129.949 689.978 128.318 690.25 Q126.688 690.488 124.446 691.235 Q122.17 691.948 120.744 693.647 Q119.317 695.345 119.317 697.858 Q119.317 698.979 119.792 700.202 Q120.268 701.391 121.423 702.852 Q122.578 704.312 125.193 705.331 Q127.809 706.35 131.409 706.486 Z" fill="#000000" fill-rule="nonzero" fill-opacity="1" /><path clip-path="url(#clip360)" d="M148.936 681.147 L146.796 681.147 Q146.796 677.444 146.355 676.595 Q145.879 675.746 143.637 675.746 L124.989 675.746 Q122.408 675.746 121.763 676.663 Q121.117 677.546 121.117 681.147 L118.943 681.147 L118.196 671.364 L125.499 671.364 Q118.196 668.103 118.196 661.072 Q118.196 655.841 120.778 653.769 Q122.51 652.241 124.446 651.935 Q126.382 651.595 131.409 651.595 L144.69 651.595 Q146.151 651.527 146.491 650.406 Q146.796 649.286 146.796 646.161 L148.936 646.161 Q148.732 653.26 148.732 653.973 Q148.732 654.516 148.936 661.819 L146.796 661.819 Q146.796 658.117 146.355 657.268 Q145.879 656.385 143.637 656.385 L127.435 656.385 Q123.903 656.385 121.831 657.472 Q119.725 658.559 119.725 661.548 Q119.725 665.148 122.748 668.035 Q125.771 670.923 130.866 670.923 L143.637 670.923 Q145.879 670.923 146.355 670.073 Q146.796 669.19 146.796 665.522 L148.936 665.522 Q148.732 672.621 148.732 673.3 Q148.732 673.844 148.936 681.147 Z" fill="#000000" fill-rule="nonzero" fill-opacity="1" /><path clip-path="url(#clip360)" d="M148.019 642.492 L138.848 642.492 Q138.067 642.492 137.795 642.458 Q137.523 642.424 137.32 642.22 Q137.116 642.017 137.116 641.609 Q137.116 641.133 137.32 640.964 Q137.523 640.76 138.305 640.624 Q143.094 639.571 145.641 637.329 Q148.155 635.053 148.155 630.943 Q148.155 627.037 146.423 625.067 Q144.69 623.097 141.837 623.097 Q136.742 623.097 135.451 630.332 Q134.602 634.51 134.059 636.242 Q133.481 637.974 132.224 639.503 Q129.779 642.492 126.314 642.492 Q122.85 642.492 120.302 639.877 Q117.754 637.227 117.754 631.385 Q117.754 627.479 119.725 624.829 Q119.113 624.048 118.604 623.64 Q117.754 622.723 117.754 622.248 Q117.754 621.704 118.128 621.602 Q118.468 621.5 119.453 621.5 L126.45 621.5 Q127.231 621.5 127.503 621.534 Q127.775 621.568 127.979 621.772 Q128.148 621.976 128.148 622.418 Q128.148 623.199 127.503 623.233 Q119.079 623.776 119.079 631.385 Q119.079 635.495 120.676 637.329 Q122.238 639.163 124.378 639.163 Q125.567 639.163 126.484 638.62 Q127.367 638.042 127.911 637.329 Q128.42 636.582 128.93 635.223 Q129.405 633.864 129.575 633.049 Q129.745 632.2 130.085 630.604 Q131.138 625.033 133.413 622.689 Q136.334 619.768 140.037 619.768 Q144.147 619.768 146.932 622.553 Q149.718 625.339 149.718 630.943 Q149.718 635.461 146.694 638.62 Q147.102 639.027 147.476 639.333 Q147.815 639.639 147.951 639.775 Q148.087 639.877 148.189 639.911 Q148.257 639.945 148.325 640.012 Q149.718 641.405 149.718 641.745 Q149.718 642.288 149.344 642.39 Q149.004 642.492 148.019 642.492 Z" fill="#000000" fill-rule="nonzero" fill-opacity="1" /><path clip-path="url(#clip360)" d="M148.936 615.115 L146.796 615.115 Q146.796 611.412 146.355 610.563 Q145.879 609.714 143.637 609.714 L124.922 609.714 Q122.34 609.714 121.729 610.597 Q121.117 611.446 121.117 614.843 L118.943 614.843 L118.196 605.128 L143.705 605.128 Q145.777 605.128 146.287 604.381 Q146.796 603.634 146.796 600.237 L148.936 600.237 Q148.732 607.336 148.732 607.472 Q148.732 608.423 148.936 615.115 M106.07 612.193 Q104.677 612.193 103.556 611.14 Q102.401 610.053 102.401 608.525 Q102.401 606.996 103.454 605.91 Q104.473 604.823 106.104 604.823 Q107.7 604.823 108.753 605.91 Q109.772 606.996 109.772 608.525 Q109.772 610.121 108.651 611.174 Q107.53 612.193 106.07 612.193 Z" fill="#000000" fill-rule="nonzero" fill-opacity="1" /><path clip-path="url(#clip360)" d="M121.117 596.84 L119.589 596.84 Q119.453 593.647 117.211 591.541 Q114.935 589.401 112.15 588.688 Q109.365 587.941 106.138 587.873 L106.138 586.141 L118.943 586.141 L118.943 576.188 L121.117 576.188 L121.117 586.141 L140.445 586.141 Q147.951 586.141 147.951 581.453 Q147.951 579.449 145.913 578.124 Q143.841 576.8 140.173 576.8 L136.334 576.8 L136.334 575.067 L140.309 575.067 Q144.079 575.067 146.898 576.8 Q149.718 578.532 149.718 581.963 Q149.718 583.219 149.378 584.476 Q149.072 585.699 148.257 587.329 Q147.408 588.926 145.37 589.945 Q143.298 590.93 140.309 590.93 L121.117 590.93 L121.117 596.84 Z" fill="#000000" fill-rule="nonzero" fill-opacity="1" /><path clip-path="url(#clip360)" d="M157.564 571.807 Q156.103 571.807 155.322 570.957 Q154.575 570.074 154.575 568.885 Q154.575 567.629 155.356 566.813 Q156.171 565.964 157.496 565.964 Q160.077 565.964 160.417 568.682 Q161.674 567.357 161.674 565.421 Q161.674 563.349 160.145 561.684 Q158.617 559.986 157.156 559.273 Q155.696 558.525 153.046 557.472 Q150.974 556.487 148.936 555.74 L123.529 566.168 Q121.864 566.847 121.491 567.9 Q121.117 568.953 121.117 571.807 L118.943 571.807 Q119.147 568.682 119.147 565.047 Q119.147 562.907 118.943 557.472 L121.117 557.472 Q121.117 561.379 122.917 561.379 Q123.121 561.379 124.174 560.971 L142.89 553.227 L125.771 546.195 Q124.786 545.788 124.106 545.788 Q121.253 545.788 121.117 549.049 L118.943 549.049 Q119.147 544.463 119.147 543.002 Q119.147 540.149 118.943 537.805 L121.117 537.805 Q121.117 542.459 125.567 544.259 L155.254 556.521 Q163.169 559.85 163.202 565.421 Q163.202 568.07 161.572 569.938 Q159.942 571.807 157.564 571.807 Z" fill="#000000" fill-rule="nonzero" fill-opacity="1" /><path clip-path="url(#clip360)" d="M131.545 506.454 Q119.792 506.454 110.316 502.072 Q106.342 500.204 103.013 497.588 Q99.684 494.973 98.2234 493.241 Q96.7628 491.508 96.7628 491.033 Q96.7628 490.353 97.4421 490.319 Q97.7818 490.319 98.631 491.237 Q110.044 502.446 131.545 502.412 Q153.114 502.412 164.086 491.508 Q165.274 490.319 165.648 490.319 Q166.327 490.319 166.327 491.033 Q166.327 491.508 164.935 493.173 Q163.542 494.837 160.349 497.419 Q157.156 500 153.25 501.868 Q143.773 506.454 131.545 506.454 Z" fill="#000000" fill-rule="nonzero" fill-opacity="1" /><path clip-path="url(#clip360)" d="M148.936 484.137 L146.796 484.137 Q146.728 481.896 146.321 480.435 Q145.879 478.94 144.792 478.091 Q143.705 477.208 142.992 476.868 Q142.245 476.495 140.512 475.883 L104.983 463.485 Q104.202 463.282 102.707 462.738 Q101.212 462.161 100.465 461.957 Q98.5291 466.95 92.9924 466.984 Q90.0713 466.984 87.7615 465.184 Q85.4178 463.35 85.4178 460.36 Q85.4178 457.439 87.7275 455.571 Q90.0033 453.669 92.9924 453.669 Q98.4951 453.669 100.465 458.696 L142.686 444.09 Q145.608 443.037 146.219 442.052 Q146.796 441.033 146.796 436.787 L146.796 436.515 L148.936 436.515 Q148.732 440.965 148.732 445.415 Q148.732 450.51 148.936 455.639 L146.796 455.639 L146.796 455.503 Q146.796 450 144.555 450 Q144.011 450 133.074 453.737 L133.074 470.992 Q134.466 471.4 136.98 472.317 Q139.459 473.234 141.124 473.777 Q142.754 474.287 143.298 474.287 Q144.555 474.287 145.641 473.064 Q146.694 471.841 146.796 469.124 L148.936 469.124 Q148.732 473.166 148.732 477.276 Q148.732 480.673 148.936 484.137 M130.934 470.245 L130.934 454.518 L108.312 462.364 L130.934 470.245 M92.9245 465.218 Q96.3891 465.218 97.7478 463.723 Q99.0726 462.229 99.0726 460.292 Q99.0726 458.356 97.7478 456.896 Q96.4231 455.435 93.0604 455.435 Q89.5957 455.435 88.271 456.93 Q86.9463 458.424 86.9463 460.36 Q86.9463 462.297 88.271 463.757 Q89.5957 465.218 92.9245 465.218 Z" fill="#000000" fill-rule="nonzero" fill-opacity="1" /><path clip-path="url(#clip360)" d="M115.275 426.054 L105.255 413.044 L115.275 399.967 L116.735 401.02 L108.923 413.044 L116.735 425.035 L115.275 426.054 Z" fill="#000000" fill-rule="nonzero" fill-opacity="1" /><path clip-path="url(#clip360)" d="M135.995 391.034 L131.885 391.034 L131.885 372.521 L135.995 372.521 L135.995 391.034 Z" fill="#000000" fill-rule="nonzero" fill-opacity="1" /><path clip-path="url(#clip360)" d="M109.229 362.399 L107.055 362.399 Q107.055 354.043 102.605 349.729 Q102.605 348.541 102.877 348.337 Q103.149 348.133 104.405 348.133 L143.434 348.133 Q145.506 348.133 146.151 347.114 Q146.796 346.095 146.796 341.645 L146.796 339.437 L148.936 339.437 Q148.732 341.883 148.732 350.715 Q148.732 359.546 148.936 361.958 L146.796 361.958 L146.796 359.75 Q146.796 355.368 146.185 354.315 Q145.54 353.262 143.434 353.262 L107.394 353.262 Q109.229 356.897 109.229 362.399 Z" fill="#000000" fill-rule="nonzero" fill-opacity="1" /><path clip-path="url(#clip360)" d="M165.648 329.825 Q165.308 329.825 164.459 328.942 Q153.046 317.732 131.545 317.732 Q109.976 317.732 99.0726 328.5 Q97.8158 329.825 97.4421 329.825 Q96.7628 329.825 96.7628 329.145 Q96.7628 328.67 98.1554 327.005 Q99.5481 325.307 102.741 322.76 Q105.934 320.178 109.84 318.276 Q119.317 313.69 131.545 313.69 Q143.298 313.69 152.775 318.072 Q156.749 319.94 160.077 322.556 Q163.406 325.171 164.867 326.904 Q166.327 328.636 166.327 329.145 Q166.327 329.825 165.648 329.825 Z" fill="#000000" fill-rule="nonzero" fill-opacity="1" /><path clip-path="url(#clip361)" d="M362.732 972.146 L362.732 1016.92 L539.638 1016.92 L539.638 972.146 L362.732 972.146 L362.732 972.146  Z" fill="#808080" fill-rule="evenodd" fill-opacity="1"/>
<polyline clip-path="url(#clip361)" style="stroke:#000000; stroke-linecap:round; stroke-linejoin:round; stroke-width:4; stroke-opacity:1; fill:none" points="362.732,972.146 362.732,1016.92 539.638,1016.92 539.638,972.146 362.732,972.146 "/>
<path clip-path="url(#clip361)" d="M539.638 882.598 L539.638 1016.92 L716.544 1016.92 L716.544 882.598 L539.638 882.598 L539.638 882.598  Z" fill="#808080" fill-rule="evenodd" fill-opacity="1"/>
<polyline clip-path="url(#clip361)" style="stroke:#000000; stroke-linecap:round; stroke-linejoin:round; stroke-width:4; stroke-opacity:1; fill:none" points="539.638,882.598 539.638,1016.92 716.544,1016.92 716.544,882.598 539.638,882.598 "/>
<path clip-path="url(#clip361)" d="M716.544 479.632 L716.544 1016.92 L893.45 1016.92 L893.45 479.632 L716.544 479.632 L716.544 479.632  Z" fill="#808080" fill-rule="evenodd" fill-opacity="1"/>
<polyline clip-path="url(#clip361)" style="stroke:#000000; stroke-linecap:round; stroke-linejoin:round; stroke-width:4; stroke-opacity:1; fill:none" points="716.544,479.632 716.544,1016.92 893.45,1016.92 893.45,479.632 716.544,479.632 "/>
<path clip-path="url(#clip361)" d="M893.45 300.535 L893.45 1016.92 L1070.36 1016.92 L1070.36 300.535 L893.45 300.535 L893.45 300.535  Z" fill="#808080" fill-rule="evenodd" fill-opacity="1"/>
<polyline clip-path="url(#clip361)" style="stroke:#000000; stroke-linecap:round; stroke-linejoin:round; stroke-width:4; stroke-opacity:1; fill:none" points="893.45,300.535 893.45,1016.92 1070.36,1016.92 1070.36,300.535 893.45,300.535 "/>
<path clip-path="url(#clip361)" d="M1070.36 748.276 L1070.36 1016.92 L1247.26 1016.92 L1247.26 748.276 L1070.36 748.276 L1070.36 748.276  Z" fill="#808080" fill-rule="evenodd" fill-opacity="1"/>
<polyline clip-path="url(#clip361)" style="stroke:#000000; stroke-linecap:round; stroke-linejoin:round; stroke-width:4; stroke-opacity:1; fill:none" points="1070.36,748.276 1070.36,1016.92 1247.26,1016.92 1247.26,748.276 1070.36,748.276 "/>
<path clip-path="url(#clip361)" d="M1247.26 927.372 L1247.26 1016.92 L1424.17 1016.92 L1424.17 927.372 L1247.26 927.372 L1247.26 927.372  Z" fill="#808080" fill-rule="evenodd" fill-opacity="1"/>
<polyline clip-path="url(#clip361)" style="stroke:#000000; stroke-linecap:round; stroke-linejoin:round; stroke-width:4; stroke-opacity:1; fill:none" points="1247.26,927.372 1247.26,1016.92 1424.17,1016.92 1424.17,927.372 1247.26,927.372 "/>
<circle clip-path="url(#clip361)" style="fill:#808080; stroke:none; fill-opacity:0" cx="451.185" cy="972.146" r="2"/>
<circle clip-path="url(#clip361)" style="fill:#808080; stroke:none; fill-opacity:0" cx="628.091" cy="882.598" r="2"/>
<circle clip-path="url(#clip361)" style="fill:#808080; stroke:none; fill-opacity:0" cx="804.997" cy="479.632" r="2"/>
<circle clip-path="url(#clip361)" style="fill:#808080; stroke:none; fill-opacity:0" cx="981.902" cy="300.535" r="2"/>
<circle clip-path="url(#clip361)" style="fill:#808080; stroke:none; fill-opacity:0" cx="1158.81" cy="748.276" r="2"/>
<circle clip-path="url(#clip361)" style="fill:#808080; stroke:none; fill-opacity:0" cx="1335.71" cy="927.372" r="2"/>
<polyline clip-path="url(#clip361)" style="stroke:#000000; stroke-linecap:round; stroke-linejoin:round; stroke-width:8; stroke-opacity:1; fill:none" points="330.889,1016.9 342.504,1016.89 410.535,1016.64 442.183,1016.21 484.602,1014.59 502.128,1013.24 519.654,1011.2 535.952,1008.45 552.249,1004.57 562.478,1001.4 572.708,997.529 582.937,992.843 593.167,987.209 602.342,981.228 611.518,974.256 620.694,966.175 629.87,956.86 640.373,944.524 650.876,930.218 661.379,913.758 671.882,894.967 679.733,879.303 687.584,862.189 695.435,843.577 703.286,823.43 713.327,795.386 723.369,764.778 733.41,731.64 743.452,696.056 752.617,661.564 761.782,625.305 770.947,587.474 780.112,548.312 800.973,455.773 821.835,361.954 830.104,325.483 838.372,289.913 846.641,255.583 854.91,222.834 860.046,203.436 865.183,184.857 870.319,167.174 875.456,150.461 880.592,134.791 885.729,120.231 890.865,106.845 896.002,94.6929 899.935,86.2541 903.869,78.5932 907.803,71.7305 911.736,65.6843 915.67,60.471 919.604,56.1046 923.537,52.5969 927.471,49.9576 933.017,47.7249 938.563,47.2441 944.109,48.5178 949.655,51.5391 955.201,56.2917 960.747,62.7498 966.293,70.8788 971.838,80.635 975.983,88.9573 980.127,98.135 984.272,108.141 988.416,118.947 992.56,130.52 996.705,142.828 1000.85,155.837 1004.99,169.509 1009.71,185.815 1014.42,202.873 1019.13,220.622 1023.85,239.002 1033.27,277.405 1042.7,317.58 1061.37,400.416 1080.04,484.478 1090.31,530.005 1100.58,574.396 1110.85,617.229 1121.12,658.15 1128.96,687.94 1136.81,716.347 1144.65,743.294 1152.5,768.726 1162.4,798.604 1172.3,825.991 1182.2,850.902 1192.1,873.393 1201.25,892.116 1210.41,908.93 1219.57,923.939 1228.72,937.256 1238.16,949.346 1247.61,959.901 1257.05,969.059 1266.49,976.957 1276.06,983.811 1285.63,989.636 1295.21,994.558 1304.78,998.691 1324.77,1005.23 1344.75,1009.59 1360.5,1011.93 1376.25,1013.58 1412.11,1015.65 1447.96,1016.47 1451.99,1016.52 1456.01,1016.57 "/>
</svg>
