<svg xmlns="http://www.w3.org/2000/svg" xmlns:xlink="http://www.w3.org/1999/xlink" width="600" height="400" viewBox="0 0 2400 1600">
<defs>
  <clipPath id="clip780">
    <rect x="0" y="0" width="2400" height="1600"></rect>
  </clipPath>
</defs>
<path clip-path="url(#clip780)" d="M0 1600 L2400 1600 L2400 0 L0 0  Z" fill="#ffffff" fill-rule="evenodd" fill-opacity="1"></path>
<defs>
  <clipPath id="clip781">
    <rect x="480" y="0" width="1681" height="1600"></rect>
  </clipPath>
</defs>
<path clip-path="url(#clip780)" d="M238.437 1347.9 L2289.76 1347.9 L2289.76 110.236 L238.437 110.236  Z" fill="#ffffff" fill-rule="evenodd" fill-opacity="1"></path>
<defs>
  <clipPath id="clip782">
    <rect x="238" y="110" width="2052" height="1239"></rect>
  </clipPath>
</defs>
<polyline clip-path="url(#clip782)" style="stroke:#000000; stroke-linecap:round; stroke-linejoin:round; stroke-width:2; stroke-opacity:0.1; fill:none" points="296.494,1347.9 296.494,110.236 "></polyline>
<polyline clip-path="url(#clip782)" style="stroke:#000000; stroke-linecap:round; stroke-linejoin:round; stroke-width:2; stroke-opacity:0.1; fill:none" points="780.297,1347.9 780.297,110.236 "></polyline>
<polyline clip-path="url(#clip782)" style="stroke:#000000; stroke-linecap:round; stroke-linejoin:round; stroke-width:2; stroke-opacity:0.1; fill:none" points="1264.1,1347.9 1264.1,110.236 "></polyline>
<polyline clip-path="url(#clip782)" style="stroke:#000000; stroke-linecap:round; stroke-linejoin:round; stroke-width:2; stroke-opacity:0.1; fill:none" points="1747.9,1347.9 1747.9,110.236 "></polyline>
<polyline clip-path="url(#clip782)" style="stroke:#000000; stroke-linecap:round; stroke-linejoin:round; stroke-width:2; stroke-opacity:0.1; fill:none" points="2231.71,1347.9 2231.71,110.236 "></polyline>
<polyline clip-path="url(#clip780)" style="stroke:#000000; stroke-linecap:round; stroke-linejoin:round; stroke-width:4; stroke-opacity:1; fill:none" points="238.437,1347.9 2289.76,1347.9 "></polyline>
<polyline clip-path="url(#clip780)" style="stroke:#000000; stroke-linecap:round; stroke-linejoin:round; stroke-width:4; stroke-opacity:1; fill:none" points="296.494,1347.9 296.494,1329.01 "></polyline>
<polyline clip-path="url(#clip780)" style="stroke:#000000; stroke-linecap:round; stroke-linejoin:round; stroke-width:4; stroke-opacity:1; fill:none" points="780.297,1347.9 780.297,1329.01 "></polyline>
<polyline clip-path="url(#clip780)" style="stroke:#000000; stroke-linecap:round; stroke-linejoin:round; stroke-width:4; stroke-opacity:1; fill:none" points="1264.1,1347.9 1264.1,1329.01 "></polyline>
<polyline clip-path="url(#clip780)" style="stroke:#000000; stroke-linecap:round; stroke-linejoin:round; stroke-width:4; stroke-opacity:1; fill:none" points="1747.9,1347.9 1747.9,1329.01 "></polyline>
<polyline clip-path="url(#clip780)" style="stroke:#000000; stroke-linecap:round; stroke-linejoin:round; stroke-width:4; stroke-opacity:1; fill:none" points="2231.71,1347.9 2231.71,1329.01 "></polyline>
<path clip-path="url(#clip780)" d="M296.494 1378.82 Q292.883 1378.82 291.054 1382.39 Q289.248 1385.93 289.248 1393.06 Q289.248 1400.17 291.054 1403.73 Q292.883 1407.27 296.494 1407.27 Q300.128 1407.27 301.934 1403.73 Q303.762 1400.17 303.762 1393.06 Q303.762 1385.93 301.934 1382.39 Q300.128 1378.82 296.494 1378.82 M296.494 1375.12 Q302.304 1375.12 305.359 1379.73 Q308.438 1384.31 308.438 1393.06 Q308.438 1401.79 305.359 1406.39 Q302.304 1410.98 296.494 1410.98 Q290.684 1410.98 287.605 1406.39 Q284.549 1401.79 284.549 1393.06 Q284.549 1384.31 287.605 1379.73 Q290.684 1375.12 296.494 1375.12 Z" fill="#000000" fill-rule="nonzero" fill-opacity="1"></path><path clip-path="url(#clip780)" d="M676.2 1422.03 L692.52 1422.03 L692.52 1425.96 L670.576 1425.96 L670.576 1422.03 Q673.238 1419.27 677.821 1414.65 Q682.427 1409.99 683.608 1408.65 Q685.853 1406.13 686.733 1404.39 Q687.636 1402.63 687.636 1400.94 Q687.636 1398.19 685.691 1396.45 Q683.77 1394.71 680.668 1394.71 Q678.469 1394.71 676.015 1395.48 Q673.585 1396.24 670.807 1397.79 L670.807 1393.07 Q673.631 1391.94 676.085 1391.36 Q678.538 1390.78 680.575 1390.78 Q685.946 1390.78 689.14 1393.46 Q692.335 1396.15 692.335 1400.64 Q692.335 1402.77 691.524 1404.69 Q690.737 1406.59 688.631 1409.18 Q688.052 1409.85 684.95 1413.07 Q681.849 1416.27 676.2 1422.03 Z" fill="#000000" fill-rule="nonzero" fill-opacity="1"></path><path clip-path="url(#clip780)" d="M702.335 1420.08 L707.219 1420.08 L707.219 1425.96 L702.335 1425.96 L702.335 1420.08 Z" fill="#000000" fill-rule="nonzero" fill-opacity="1"></path><path clip-path="url(#clip780)" d="M717.45 1391.4 L735.807 1391.4 L735.807 1395.34 L721.733 1395.34 L721.733 1403.81 Q722.751 1403.46 723.77 1403.3 Q724.788 1403.12 725.807 1403.12 Q731.594 1403.12 734.973 1406.29 Q738.353 1409.46 738.353 1414.88 Q738.353 1420.46 734.881 1423.56 Q731.409 1426.64 725.089 1426.64 Q722.913 1426.64 720.645 1426.27 Q718.399 1425.9 715.992 1425.15 L715.992 1420.46 Q718.075 1421.59 720.297 1422.15 Q722.52 1422.7 724.997 1422.7 Q729.001 1422.7 731.339 1420.59 Q733.677 1418.49 733.677 1414.88 Q733.677 1411.27 731.339 1409.16 Q729.001 1407.05 724.997 1407.05 Q723.122 1407.05 721.247 1407.47 Q719.395 1407.89 717.45 1408.77 L717.45 1391.4 Z" fill="#000000" fill-rule="nonzero" fill-opacity="1"></path><path clip-path="url(#clip780)" d="M757.566 1394.48 Q753.955 1394.48 752.126 1398.05 Q750.32 1401.59 750.32 1408.72 Q750.32 1415.83 752.126 1419.39 Q753.955 1422.93 757.566 1422.93 Q761.2 1422.93 763.006 1419.39 Q764.834 1415.83 764.834 1408.72 Q764.834 1401.59 763.006 1398.05 Q761.2 1394.48 757.566 1394.48 M757.566 1390.78 Q763.376 1390.78 766.431 1395.39 Q769.51 1399.97 769.51 1408.72 Q769.51 1417.45 766.431 1422.05 Q763.376 1426.64 757.566 1426.64 Q751.756 1426.64 748.677 1422.05 Q745.621 1417.45 745.621 1408.72 Q745.621 1399.97 748.677 1395.39 Q751.756 1390.78 757.566 1390.78 Z" fill="#000000" fill-rule="nonzero" fill-opacity="1"></path><path clip-path="url(#clip780)" d="M805.899 1400.5 L795.32 1411.13 L805.899 1421.71 L803.144 1424.51 L792.519 1413.88 L781.894 1424.51 L779.163 1421.71 L789.718 1411.13 L779.163 1400.5 L781.894 1397.7 L792.519 1408.33 L803.144 1397.7 L805.899 1400.5 Z" fill="#000000" fill-rule="nonzero" fill-opacity="1"></path><path clip-path="url(#clip780)" d="M818.26 1422.03 L825.899 1422.03 L825.899 1395.66 L817.589 1397.33 L817.589 1393.07 L825.852 1391.4 L830.528 1391.4 L830.528 1422.03 L838.167 1422.03 L838.167 1425.96 L818.26 1425.96 L818.26 1422.03 Z" fill="#000000" fill-rule="nonzero" fill-opacity="1"></path><path clip-path="url(#clip780)" d="M857.612 1394.48 Q854 1394.48 852.172 1398.05 Q850.366 1401.59 850.366 1408.72 Q850.366 1415.83 852.172 1419.39 Q854 1422.93 857.612 1422.93 Q861.246 1422.93 863.051 1419.39 Q864.88 1415.83 864.88 1408.72 Q864.88 1401.59 863.051 1398.05 Q861.246 1394.48 857.612 1394.48 M857.612 1390.78 Q863.422 1390.78 866.477 1395.39 Q869.556 1399.97 869.556 1408.72 Q869.556 1417.45 866.477 1422.05 Q863.422 1426.64 857.612 1426.64 Q851.801 1426.64 848.723 1422.05 Q845.667 1417.45 845.667 1408.72 Q845.667 1399.97 848.723 1395.39 Q851.801 1390.78 857.612 1390.78 Z" fill="#000000" fill-rule="nonzero" fill-opacity="1"></path><path clip-path="url(#clip780)" d="M882.232 1373.78 L872.64 1388.77 L882.232 1388.77 L882.232 1373.78 M881.236 1370.47 L886.013 1370.47 L886.013 1388.77 L890.019 1388.77 L890.019 1391.93 L886.013 1391.93 L886.013 1398.55 L882.232 1398.55 L882.232 1391.93 L869.556 1391.93 L869.556 1388.27 L881.236 1370.47 Z" fill="#000000" fill-rule="nonzero" fill-opacity="1"></path><path clip-path="url(#clip780)" d="M1155.93 1391.4 L1174.29 1391.4 L1174.29 1395.34 L1160.21 1395.34 L1160.21 1403.81 Q1161.23 1403.46 1162.25 1403.3 Q1163.27 1403.12 1164.29 1403.12 Q1170.07 1403.12 1173.45 1406.29 Q1176.83 1409.46 1176.83 1414.88 Q1176.83 1420.46 1173.36 1423.56 Q1169.89 1426.64 1163.57 1426.64 Q1161.39 1426.64 1159.12 1426.27 Q1156.88 1425.9 1154.47 1425.15 L1154.47 1420.46 Q1156.55 1421.59 1158.78 1422.15 Q1161 1422.7 1163.48 1422.7 Q1167.48 1422.7 1169.82 1420.59 Q1172.16 1418.49 1172.16 1414.88 Q1172.16 1411.27 1169.82 1409.16 Q1167.48 1407.05 1163.48 1407.05 Q1161.6 1407.05 1159.73 1407.47 Q1157.87 1407.89 1155.93 1408.77 L1155.93 1391.4 Z" fill="#000000" fill-rule="nonzero" fill-opacity="1"></path><path clip-path="url(#clip780)" d="M1186.05 1420.08 L1190.93 1420.08 L1190.93 1425.96 L1186.05 1425.96 L1186.05 1420.08 Z" fill="#000000" fill-rule="nonzero" fill-opacity="1"></path><path clip-path="url(#clip780)" d="M1211.11 1394.48 Q1207.5 1394.48 1205.67 1398.05 Q1203.87 1401.59 1203.87 1408.72 Q1203.87 1415.83 1205.67 1419.39 Q1207.5 1422.93 1211.11 1422.93 Q1214.75 1422.93 1216.55 1419.39 Q1218.38 1415.83 1218.38 1408.72 Q1218.38 1401.59 1216.55 1398.05 Q1214.75 1394.48 1211.11 1394.48 M1211.11 1390.78 Q1216.92 1390.78 1219.98 1395.39 Q1223.06 1399.97 1223.06 1408.72 Q1223.06 1417.45 1219.98 1422.05 Q1216.92 1426.64 1211.11 1426.64 Q1205.3 1426.64 1202.23 1422.05 Q1199.17 1417.45 1199.17 1408.72 Q1199.17 1399.97 1202.23 1395.39 Q1205.3 1390.78 1211.11 1390.78 Z" fill="#000000" fill-rule="nonzero" fill-opacity="1"></path><path clip-path="url(#clip780)" d="M1241.28 1394.48 Q1237.67 1394.48 1235.84 1398.05 Q1234.03 1401.59 1234.03 1408.72 Q1234.03 1415.83 1235.84 1419.39 Q1237.67 1422.93 1241.28 1422.93 Q1244.91 1422.93 1246.72 1419.39 Q1248.55 1415.83 1248.55 1408.72 Q1248.55 1401.59 1246.72 1398.05 Q1244.91 1394.48 1241.28 1394.48 M1241.28 1390.78 Q1247.09 1390.78 1250.14 1395.39 Q1253.22 1399.97 1253.22 1408.72 Q1253.22 1417.45 1250.14 1422.05 Q1247.09 1426.64 1241.28 1426.64 Q1235.47 1426.64 1232.39 1422.05 Q1229.33 1417.45 1229.33 1408.72 Q1229.33 1399.97 1232.39 1395.39 Q1235.47 1390.78 1241.28 1390.78 Z" fill="#000000" fill-rule="nonzero" fill-opacity="1"></path><path clip-path="url(#clip780)" d="M1289.61 1400.5 L1279.03 1411.13 L1289.61 1421.71 L1286.86 1424.51 L1276.23 1413.88 L1265.61 1424.51 L1262.87 1421.71 L1273.43 1411.13 L1262.87 1400.5 L1265.61 1397.7 L1276.23 1408.33 L1286.86 1397.7 L1289.61 1400.5 Z" fill="#000000" fill-rule="nonzero" fill-opacity="1"></path><path clip-path="url(#clip780)" d="M1301.97 1422.03 L1309.61 1422.03 L1309.61 1395.66 L1301.3 1397.33 L1301.3 1393.07 L1309.56 1391.4 L1314.24 1391.4 L1314.24 1422.03 L1321.88 1422.03 L1321.88 1425.96 L1301.97 1425.96 L1301.97 1422.03 Z" fill="#000000" fill-rule="nonzero" fill-opacity="1"></path><path clip-path="url(#clip780)" d="M1341.32 1394.48 Q1337.71 1394.48 1335.88 1398.05 Q1334.08 1401.59 1334.08 1408.72 Q1334.08 1415.83 1335.88 1419.39 Q1337.71 1422.93 1341.32 1422.93 Q1344.96 1422.93 1346.76 1419.39 Q1348.59 1415.83 1348.59 1408.72 Q1348.59 1401.59 1346.76 1398.05 Q1344.96 1394.48 1341.32 1394.48 M1341.32 1390.78 Q1347.13 1390.78 1350.19 1395.39 Q1353.27 1399.97 1353.27 1408.72 Q1353.27 1417.45 1350.19 1422.05 Q1347.13 1426.64 1341.32 1426.64 Q1335.51 1426.64 1332.43 1422.05 Q1329.38 1417.45 1329.38 1408.72 Q1329.38 1399.97 1332.43 1395.39 Q1335.51 1390.78 1341.32 1390.78 Z" fill="#000000" fill-rule="nonzero" fill-opacity="1"></path><path clip-path="url(#clip780)" d="M1365.94 1373.78 L1356.35 1388.77 L1365.94 1388.77 L1365.94 1373.78 M1364.95 1370.47 L1369.72 1370.47 L1369.72 1388.77 L1373.73 1388.77 L1373.73 1391.93 L1369.72 1391.93 L1369.72 1398.55 L1365.94 1398.55 L1365.94 1391.93 L1353.27 1391.93 L1353.27 1388.27 L1364.95 1370.47 Z" fill="#000000" fill-rule="nonzero" fill-opacity="1"></path><path clip-path="url(#clip780)" d="M1638.39 1391.4 L1660.61 1391.4 L1660.61 1393.4 L1648.07 1425.96 L1643.18 1425.96 L1654.99 1395.34 L1638.39 1395.34 L1638.39 1391.4 Z" fill="#000000" fill-rule="nonzero" fill-opacity="1"></path><path clip-path="url(#clip780)" d="M1669.73 1420.08 L1674.62 1420.08 L1674.62 1425.96 L1669.73 1425.96 L1669.73 1420.08 Z" fill="#000000" fill-rule="nonzero" fill-opacity="1"></path><path clip-path="url(#clip780)" d="M1684.85 1391.4 L1703.21 1391.4 L1703.21 1395.34 L1689.13 1395.34 L1689.13 1403.81 Q1690.15 1403.46 1691.17 1403.3 Q1692.19 1403.12 1693.21 1403.12 Q1698.99 1403.12 1702.37 1406.29 Q1705.75 1409.46 1705.75 1414.88 Q1705.75 1420.46 1702.28 1423.56 Q1698.81 1426.64 1692.49 1426.64 Q1690.31 1426.64 1688.04 1426.27 Q1685.8 1425.9 1683.39 1425.15 L1683.39 1420.46 Q1685.47 1421.59 1687.7 1422.15 Q1689.92 1422.7 1692.4 1422.7 Q1696.4 1422.7 1698.74 1420.59 Q1701.08 1418.49 1701.08 1414.88 Q1701.08 1411.27 1698.74 1409.16 Q1696.4 1407.05 1692.4 1407.05 Q1690.52 1407.05 1688.65 1407.47 Q1686.79 1407.89 1684.85 1408.77 L1684.85 1391.4 Z" fill="#000000" fill-rule="nonzero" fill-opacity="1"></path><path clip-path="url(#clip780)" d="M1724.96 1394.48 Q1721.35 1394.48 1719.52 1398.05 Q1717.72 1401.59 1717.72 1408.72 Q1717.72 1415.83 1719.52 1419.39 Q1721.35 1422.93 1724.96 1422.93 Q1728.6 1422.93 1730.4 1419.39 Q1732.23 1415.83 1732.23 1408.72 Q1732.23 1401.59 1730.4 1398.05 Q1728.6 1394.48 1724.96 1394.48 M1724.96 1390.78 Q1730.77 1390.78 1733.83 1395.39 Q1736.91 1399.97 1736.91 1408.72 Q1736.91 1417.45 1733.83 1422.05 Q1730.77 1426.64 1724.96 1426.64 Q1719.15 1426.64 1716.08 1422.05 Q1713.02 1417.45 1713.02 1408.72 Q1713.02 1399.97 1716.08 1395.39 Q1719.15 1390.78 1724.96 1390.78 Z" fill="#000000" fill-rule="nonzero" fill-opacity="1"></path><path clip-path="url(#clip780)" d="M1773.3 1400.5 L1762.72 1411.13 L1773.3 1421.71 L1770.54 1424.51 L1759.92 1413.88 L1749.29 1424.51 L1746.56 1421.71 L1757.12 1411.13 L1746.56 1400.5 L1749.29 1397.7 L1759.92 1408.33 L1770.54 1397.7 L1773.3 1400.5 Z" fill="#000000" fill-rule="nonzero" fill-opacity="1"></path><path clip-path="url(#clip780)" d="M1785.66 1422.03 L1793.3 1422.03 L1793.3 1395.66 L1784.99 1397.33 L1784.99 1393.07 L1793.25 1391.4 L1797.93 1391.4 L1797.93 1422.03 L1805.57 1422.03 L1805.57 1425.96 L1785.66 1425.96 L1785.66 1422.03 Z" fill="#000000" fill-rule="nonzero" fill-opacity="1"></path><path clip-path="url(#clip780)" d="M1825.01 1394.48 Q1821.4 1394.48 1819.57 1398.05 Q1817.76 1401.59 1817.76 1408.72 Q1817.76 1415.83 1819.57 1419.39 Q1821.4 1422.93 1825.01 1422.93 Q1828.64 1422.93 1830.45 1419.39 Q1832.28 1415.83 1832.28 1408.72 Q1832.28 1401.59 1830.45 1398.05 Q1828.64 1394.48 1825.01 1394.48 M1825.01 1390.78 Q1830.82 1390.78 1833.88 1395.39 Q1836.95 1399.97 1836.95 1408.72 Q1836.95 1417.45 1833.88 1422.05 Q1830.82 1426.64 1825.01 1426.64 Q1819.2 1426.64 1816.12 1422.05 Q1813.07 1417.45 1813.07 1408.72 Q1813.07 1399.97 1816.12 1395.39 Q1819.2 1390.78 1825.01 1390.78 Z" fill="#000000" fill-rule="nonzero" fill-opacity="1"></path><path clip-path="url(#clip780)" d="M1849.63 1373.78 L1840.04 1388.77 L1849.63 1388.77 L1849.63 1373.78 M1848.63 1370.47 L1853.41 1370.47 L1853.41 1388.77 L1857.42 1388.77 L1857.42 1391.93 L1853.41 1391.93 L1853.41 1398.55 L1849.63 1398.55 L1849.63 1391.93 L1836.95 1391.93 L1836.95 1388.27 L1848.63 1370.47 Z" fill="#000000" fill-rule="nonzero" fill-opacity="1"></path><path clip-path="url(#clip780)" d="M2124.67 1422.03 L2132.31 1422.03 L2132.31 1395.66 L2124 1397.33 L2124 1393.07 L2132.26 1391.4 L2136.94 1391.4 L2136.94 1422.03 L2144.58 1422.03 L2144.58 1425.96 L2124.67 1425.96 L2124.67 1422.03 Z" fill="#000000" fill-rule="nonzero" fill-opacity="1"></path><path clip-path="url(#clip780)" d="M2154.02 1420.08 L2158.91 1420.08 L2158.91 1425.96 L2154.02 1425.96 L2154.02 1420.08 Z" fill="#000000" fill-rule="nonzero" fill-opacity="1"></path><path clip-path="url(#clip780)" d="M2179.09 1394.48 Q2175.48 1394.48 2173.65 1398.05 Q2171.85 1401.59 2171.85 1408.72 Q2171.85 1415.83 2173.65 1419.39 Q2175.48 1422.93 2179.09 1422.93 Q2182.73 1422.93 2184.53 1419.39 Q2186.36 1415.83 2186.36 1408.72 Q2186.36 1401.59 2184.53 1398.05 Q2182.73 1394.48 2179.09 1394.48 M2179.09 1390.78 Q2184.9 1390.78 2187.96 1395.39 Q2191.04 1399.97 2191.04 1408.72 Q2191.04 1417.45 2187.96 1422.05 Q2184.9 1426.64 2179.09 1426.64 Q2173.28 1426.64 2170.2 1422.05 Q2167.15 1417.45 2167.15 1408.72 Q2167.15 1399.97 2170.2 1395.39 Q2173.28 1390.78 2179.09 1390.78 Z" fill="#000000" fill-rule="nonzero" fill-opacity="1"></path><path clip-path="url(#clip780)" d="M2209.26 1394.48 Q2205.64 1394.48 2203.82 1398.05 Q2202.01 1401.59 2202.01 1408.72 Q2202.01 1415.83 2203.82 1419.39 Q2205.64 1422.93 2209.26 1422.93 Q2212.89 1422.93 2214.7 1419.39 Q2216.52 1415.83 2216.52 1408.72 Q2216.52 1401.59 2214.7 1398.05 Q2212.89 1394.48 2209.26 1394.48 M2209.26 1390.78 Q2215.07 1390.78 2218.12 1395.39 Q2221.2 1399.97 2221.2 1408.72 Q2221.2 1417.45 2218.12 1422.05 Q2215.07 1426.64 2209.26 1426.64 Q2203.45 1426.64 2200.37 1422.05 Q2197.31 1417.45 2197.31 1408.72 Q2197.31 1399.97 2200.37 1395.39 Q2203.45 1390.78 2209.26 1390.78 Z" fill="#000000" fill-rule="nonzero" fill-opacity="1"></path><path clip-path="url(#clip780)" d="M2257.59 1400.5 L2247.01 1411.13 L2257.59 1421.71 L2254.83 1424.51 L2244.21 1413.88 L2233.58 1424.51 L2230.85 1421.71 L2241.41 1411.13 L2230.85 1400.5 L2233.58 1397.7 L2244.21 1408.33 L2254.83 1397.7 L2257.59 1400.5 Z" fill="#000000" fill-rule="nonzero" fill-opacity="1"></path><path clip-path="url(#clip780)" d="M2269.95 1422.03 L2277.59 1422.03 L2277.59 1395.66 L2269.28 1397.33 L2269.28 1393.07 L2277.54 1391.4 L2282.22 1391.4 L2282.22 1422.03 L2289.86 1422.03 L2289.86 1425.96 L2269.95 1425.96 L2269.95 1422.03 Z" fill="#000000" fill-rule="nonzero" fill-opacity="1"></path><path clip-path="url(#clip780)" d="M2309.3 1394.48 Q2305.69 1394.48 2303.86 1398.05 Q2302.06 1401.59 2302.06 1408.72 Q2302.06 1415.83 2303.86 1419.39 Q2305.69 1422.93 2309.3 1422.93 Q2312.94 1422.93 2314.74 1419.39 Q2316.57 1415.83 2316.57 1408.72 Q2316.57 1401.59 2314.74 1398.05 Q2312.94 1394.48 2309.3 1394.48 M2309.3 1390.78 Q2315.11 1390.78 2318.17 1395.39 Q2321.25 1399.97 2321.25 1408.72 Q2321.25 1417.45 2318.17 1422.05 Q2315.11 1426.64 2309.3 1426.64 Q2303.49 1426.64 2300.41 1422.05 Q2297.36 1417.45 2297.36 1408.72 Q2297.36 1399.97 2300.41 1395.39 Q2303.49 1390.78 2309.3 1390.78 Z" fill="#000000" fill-rule="nonzero" fill-opacity="1"></path><path clip-path="url(#clip780)" d="M2322.43 1370.47 L2337.34 1370.47 L2337.34 1373.67 L2325.91 1373.67 L2325.91 1380.56 Q2326.74 1380.27 2327.56 1380.14 Q2328.39 1379.99 2329.22 1379.99 Q2333.92 1379.99 2336.67 1382.57 Q2339.41 1385.14 2339.41 1389.55 Q2339.41 1394.08 2336.59 1396.6 Q2333.77 1399.1 2328.64 1399.1 Q2326.87 1399.1 2325.03 1398.8 Q2323.2 1398.5 2321.25 1397.9 L2321.25 1394.08 Q2322.94 1395 2324.74 1395.45 Q2326.55 1395.9 2328.56 1395.9 Q2331.82 1395.9 2333.71 1394.19 Q2335.61 1392.48 2335.61 1389.55 Q2335.61 1386.61 2333.71 1384.9 Q2331.82 1383.19 2328.56 1383.19 Q2327.04 1383.19 2325.51 1383.53 Q2324.01 1383.87 2322.43 1384.58 L2322.43 1370.47 Z" fill="#000000" fill-rule="nonzero" fill-opacity="1"></path><path clip-path="url(#clip780)" d="M1025.24 1476.6 L1025.24 1482.13 Q1022.76 1480.86 1020.09 1480.22 Q1017.41 1479.59 1014.55 1479.59 Q1010.19 1479.59 1007.99 1480.92 Q1005.83 1482.26 1005.83 1484.93 Q1005.83 1486.97 1007.39 1488.15 Q1008.95 1489.3 1013.66 1490.35 L1015.66 1490.79 Q1021.9 1492.13 1024.51 1494.58 Q1027.15 1497 1027.15 1501.36 Q1027.15 1506.32 1023.21 1509.22 Q1019.29 1512.12 1012.42 1512.12 Q1009.55 1512.12 1006.43 1511.54 Q1003.35 1511 999.908 1509.89 L999.908 1503.84 Q1003.15 1505.53 1006.31 1506.39 Q1009.46 1507.21 1012.54 1507.21 Q1016.68 1507.21 1018.91 1505.81 Q1021.14 1504.38 1021.14 1501.8 Q1021.14 1499.42 1019.51 1498.14 Q1017.92 1496.87 1012.48 1495.69 L1010.44 1495.22 Q1005 1494.07 1002.58 1491.71 Q1000.16 1489.33 1000.16 1485.19 Q1000.16 1480.16 1003.73 1477.42 Q1007.29 1474.69 1013.85 1474.69 Q1017.1 1474.69 1019.96 1475.16 Q1022.82 1475.64 1025.24 1476.6 Z" fill="#000000" fill-rule="nonzero" fill-opacity="1"></path><path clip-path="url(#clip780)" d="M1036.48 1475.55 L1042.34 1475.55 L1042.34 1511.19 L1036.48 1511.19 L1036.48 1475.55 M1036.48 1461.67 L1042.34 1461.67 L1042.34 1469.08 L1036.48 1469.08 L1036.48 1461.67 Z" fill="#000000" fill-rule="nonzero" fill-opacity="1"></path><path clip-path="url(#clip780)" d="M1082.34 1482.39 Q1084.54 1478.44 1087.6 1476.56 Q1090.65 1474.69 1094.79 1474.69 Q1100.36 1474.69 1103.38 1478.6 Q1106.41 1482.48 1106.41 1489.68 L1106.41 1511.19 L1100.52 1511.19 L1100.52 1489.87 Q1100.52 1484.74 1098.7 1482.26 Q1096.89 1479.78 1093.17 1479.78 Q1088.61 1479.78 1085.97 1482.8 Q1083.33 1485.83 1083.33 1491.05 L1083.33 1511.19 L1077.44 1511.19 L1077.44 1489.87 Q1077.44 1484.71 1075.63 1482.26 Q1073.81 1479.78 1070.03 1479.78 Q1065.54 1479.78 1062.9 1482.83 Q1060.25 1485.86 1060.25 1491.05 L1060.25 1511.19 L1054.37 1511.19 L1054.37 1475.55 L1060.25 1475.55 L1060.25 1481.08 Q1062.26 1477.81 1065.06 1476.25 Q1067.86 1474.69 1071.71 1474.69 Q1075.6 1474.69 1078.3 1476.66 Q1081.04 1478.63 1082.34 1482.39 Z" fill="#000000" fill-rule="nonzero" fill-opacity="1"></path><path clip-path="url(#clip780)" d="M1117.48 1497.13 L1117.48 1475.55 L1123.34 1475.55 L1123.34 1496.9 Q1123.34 1501.96 1125.31 1504.51 Q1127.29 1507.02 1131.23 1507.02 Q1135.97 1507.02 1138.71 1504 Q1141.48 1500.98 1141.48 1495.76 L1141.48 1475.55 L1147.34 1475.55 L1147.34 1511.19 L1141.48 1511.19 L1141.48 1505.72 Q1139.35 1508.97 1136.52 1510.56 Q1133.71 1512.12 1129.99 1512.12 Q1123.85 1512.12 1120.67 1508.3 Q1117.48 1504.48 1117.48 1497.13 M1132.22 1474.69 L1132.22 1474.69 Z" fill="#000000" fill-rule="nonzero" fill-opacity="1"></path><path clip-path="url(#clip780)" d="M1159.4 1461.67 L1165.26 1461.67 L1165.26 1511.19 L1159.4 1511.19 L1159.4 1461.67 Z" fill="#000000" fill-rule="nonzero" fill-opacity="1"></path><path clip-path="url(#clip780)" d="M1193.71 1493.27 Q1186.61 1493.27 1183.88 1494.9 Q1181.14 1496.52 1181.14 1500.44 Q1181.14 1503.55 1183.18 1505.4 Q1185.25 1507.21 1188.78 1507.21 Q1193.65 1507.21 1196.58 1503.78 Q1199.54 1500.31 1199.54 1494.58 L1199.54 1493.27 L1193.71 1493.27 M1205.39 1490.85 L1205.39 1511.19 L1199.54 1511.19 L1199.54 1505.78 Q1197.53 1509.03 1194.54 1510.59 Q1191.55 1512.12 1187.22 1512.12 Q1181.74 1512.12 1178.5 1509.06 Q1175.28 1505.97 1175.28 1500.82 Q1175.28 1494.8 1179.29 1491.75 Q1183.34 1488.69 1191.32 1488.69 L1199.54 1488.69 L1199.54 1488.12 Q1199.54 1484.08 1196.86 1481.88 Q1194.22 1479.65 1189.41 1479.65 Q1186.36 1479.65 1183.46 1480.38 Q1180.57 1481.12 1177.89 1482.58 L1177.89 1477.17 Q1181.11 1475.93 1184.13 1475.32 Q1187.16 1474.69 1190.02 1474.69 Q1197.75 1474.69 1201.57 1478.7 Q1205.39 1482.71 1205.39 1490.85 Z" fill="#000000" fill-rule="nonzero" fill-opacity="1"></path><path clip-path="url(#clip780)" d="M1223.25 1465.42 L1223.25 1475.55 L1235.31 1475.55 L1235.31 1480.1 L1223.25 1480.1 L1223.25 1499.45 Q1223.25 1503.81 1224.43 1505.05 Q1225.64 1506.29 1229.3 1506.29 L1235.31 1506.29 L1235.31 1511.19 L1229.3 1511.19 Q1222.52 1511.19 1219.94 1508.68 Q1217.36 1506.13 1217.36 1499.45 L1217.36 1480.1 L1213.06 1480.1 L1213.06 1475.55 L1217.36 1475.55 L1217.36 1465.42 L1223.25 1465.42 Z" fill="#000000" fill-rule="nonzero" fill-opacity="1"></path><path clip-path="url(#clip780)" d="M1243.01 1475.55 L1248.87 1475.55 L1248.87 1511.19 L1243.01 1511.19 L1243.01 1475.55 M1243.01 1461.67 L1248.87 1461.67 L1248.87 1469.08 L1243.01 1469.08 L1243.01 1461.67 Z" fill="#000000" fill-rule="nonzero" fill-opacity="1"></path><path clip-path="url(#clip780)" d="M1274.94 1479.65 Q1270.23 1479.65 1267.49 1483.34 Q1264.75 1487 1264.75 1493.4 Q1264.75 1499.8 1267.46 1503.49 Q1270.2 1507.15 1274.94 1507.15 Q1279.62 1507.15 1282.35 1503.46 Q1285.09 1499.77 1285.09 1493.4 Q1285.09 1487.07 1282.35 1483.38 Q1279.62 1479.65 1274.94 1479.65 M1274.94 1474.69 Q1282.58 1474.69 1286.94 1479.65 Q1291.3 1484.62 1291.3 1493.4 Q1291.3 1502.15 1286.94 1507.15 Q1282.58 1512.12 1274.94 1512.12 Q1267.27 1512.12 1262.91 1507.15 Q1258.58 1502.15 1258.58 1493.4 Q1258.58 1484.62 1262.91 1479.65 Q1267.27 1474.69 1274.94 1474.69 Z" fill="#000000" fill-rule="nonzero" fill-opacity="1"></path><path clip-path="url(#clip780)" d="M1330.64 1489.68 L1330.64 1511.19 L1324.78 1511.19 L1324.78 1489.87 Q1324.78 1484.81 1322.81 1482.29 Q1320.83 1479.78 1316.89 1479.78 Q1312.15 1479.78 1309.41 1482.8 Q1306.67 1485.83 1306.67 1491.05 L1306.67 1511.19 L1300.78 1511.19 L1300.78 1475.55 L1306.67 1475.55 L1306.67 1481.08 Q1308.77 1477.87 1311.6 1476.28 Q1314.47 1474.69 1318.19 1474.69 Q1324.34 1474.69 1327.49 1478.51 Q1330.64 1482.29 1330.64 1489.68 Z" fill="#000000" fill-rule="nonzero" fill-opacity="1"></path><path clip-path="url(#clip780)" d="M1365.04 1476.6 L1365.04 1482.13 Q1362.56 1480.86 1359.89 1480.22 Q1357.21 1479.59 1354.35 1479.59 Q1349.99 1479.59 1347.79 1480.92 Q1345.63 1482.26 1345.63 1484.93 Q1345.63 1486.97 1347.19 1488.15 Q1348.75 1489.3 1353.46 1490.35 L1355.46 1490.79 Q1361.7 1492.13 1364.31 1494.58 Q1366.95 1497 1366.95 1501.36 Q1366.95 1506.32 1363.01 1509.22 Q1359.09 1512.12 1352.22 1512.12 Q1349.35 1512.12 1346.23 1511.54 Q1343.15 1511 1339.71 1509.89 L1339.71 1503.84 Q1342.96 1505.53 1346.11 1506.39 Q1349.26 1507.21 1352.35 1507.21 Q1356.48 1507.21 1358.71 1505.81 Q1360.94 1504.38 1360.94 1501.8 Q1360.94 1499.42 1359.32 1498.14 Q1357.72 1496.87 1352.28 1495.69 L1350.24 1495.22 Q1344.8 1494.07 1342.38 1491.71 Q1339.96 1489.33 1339.96 1485.19 Q1339.96 1480.16 1343.53 1477.42 Q1347.09 1474.69 1353.65 1474.69 Q1356.9 1474.69 1359.76 1475.16 Q1362.63 1475.64 1365.04 1476.6 Z" fill="#000000" fill-rule="nonzero" fill-opacity="1"></path><path clip-path="url(#clip780)" d="M1419.73 1476.6 L1419.73 1482.13 Q1417.24 1480.86 1414.57 1480.22 Q1411.9 1479.59 1409.03 1479.59 Q1404.67 1479.59 1402.48 1480.92 Q1400.31 1482.26 1400.31 1484.93 Q1400.31 1486.97 1401.87 1488.15 Q1403.43 1489.3 1408.14 1490.35 L1410.15 1490.79 Q1416.38 1492.13 1418.99 1494.58 Q1421.64 1497 1421.64 1501.36 Q1421.64 1506.32 1417.69 1509.22 Q1413.77 1512.12 1406.9 1512.12 Q1404.03 1512.12 1400.92 1511.54 Q1397.83 1511 1394.39 1509.89 L1394.39 1503.84 Q1397.64 1505.53 1400.79 1506.39 Q1403.94 1507.21 1407.03 1507.21 Q1411.16 1507.21 1413.39 1505.81 Q1415.62 1504.38 1415.62 1501.8 Q1415.62 1499.42 1414 1498.14 Q1412.41 1496.87 1406.96 1495.69 L1404.93 1495.22 Q1399.48 1494.07 1397.06 1491.71 Q1394.65 1489.33 1394.65 1485.19 Q1394.65 1480.16 1398.21 1477.42 Q1401.77 1474.69 1408.33 1474.69 Q1411.58 1474.69 1414.44 1475.16 Q1417.31 1475.64 1419.73 1476.6 Z" fill="#000000" fill-rule="nonzero" fill-opacity="1"></path><path clip-path="url(#clip780)" d="M1436.75 1465.42 L1436.75 1475.55 L1448.82 1475.55 L1448.82 1480.1 L1436.75 1480.1 L1436.75 1499.45 Q1436.75 1503.81 1437.93 1505.05 Q1439.14 1506.29 1442.8 1506.29 L1448.82 1506.29 L1448.82 1511.19 L1442.8 1511.19 Q1436.02 1511.19 1433.44 1508.68 Q1430.87 1506.13 1430.87 1499.45 L1430.87 1480.1 L1426.57 1480.1 L1426.57 1475.55 L1430.87 1475.55 L1430.87 1465.42 L1436.75 1465.42 Z" fill="#000000" fill-rule="nonzero" fill-opacity="1"></path><path clip-path="url(#clip780)" d="M1487.01 1491.91 L1487.01 1494.77 L1460.08 1494.77 Q1460.47 1500.82 1463.71 1504 Q1466.99 1507.15 1472.82 1507.15 Q1476.19 1507.15 1479.34 1506.32 Q1482.52 1505.5 1485.64 1503.84 L1485.64 1509.38 Q1482.49 1510.72 1479.18 1511.42 Q1475.87 1512.12 1472.47 1512.12 Q1463.94 1512.12 1458.94 1507.15 Q1453.97 1502.19 1453.97 1493.72 Q1453.97 1484.97 1458.68 1479.84 Q1463.43 1474.69 1471.45 1474.69 Q1478.64 1474.69 1482.81 1479.33 Q1487.01 1483.95 1487.01 1491.91 M1481.16 1490.19 Q1481.09 1485.38 1478.45 1482.52 Q1475.84 1479.65 1471.51 1479.65 Q1466.61 1479.65 1463.65 1482.42 Q1460.72 1485.19 1460.28 1490.22 L1481.16 1490.19 Z" fill="#000000" fill-rule="nonzero" fill-opacity="1"></path><path clip-path="url(#clip780)" d="M1502.29 1505.85 L1502.29 1524.75 L1496.4 1524.75 L1496.4 1475.55 L1502.29 1475.55 L1502.29 1480.96 Q1504.14 1477.77 1506.94 1476.25 Q1509.77 1474.69 1513.68 1474.69 Q1520.18 1474.69 1524.22 1479.84 Q1528.29 1485 1528.29 1493.4 Q1528.29 1501.8 1524.22 1506.96 Q1520.18 1512.12 1513.68 1512.12 Q1509.77 1512.12 1506.94 1510.59 Q1504.14 1509.03 1502.29 1505.85 M1522.21 1493.4 Q1522.21 1486.94 1519.54 1483.28 Q1516.9 1479.59 1512.25 1479.59 Q1507.6 1479.59 1504.93 1483.28 Q1502.29 1486.94 1502.29 1493.4 Q1502.29 1499.86 1504.93 1503.55 Q1507.6 1507.21 1512.25 1507.21 Q1516.9 1507.21 1519.54 1503.55 Q1522.21 1499.86 1522.21 1493.4 Z" fill="#000000" fill-rule="nonzero" fill-opacity="1"></path><polyline clip-path="url(#clip782)" style="stroke:#000000; stroke-linecap:round; stroke-linejoin:round; stroke-width:2; stroke-opacity:0.1; fill:none" points="238.437,1347.9 2289.76,1347.9 "></polyline>
<polyline clip-path="url(#clip782)" style="stroke:#000000; stroke-linecap:round; stroke-linejoin:round; stroke-width:2; stroke-opacity:0.1; fill:none" points="238.437,1210.39 2289.76,1210.39 "></polyline>
<polyline clip-path="url(#clip782)" style="stroke:#000000; stroke-linecap:round; stroke-linejoin:round; stroke-width:2; stroke-opacity:0.1; fill:none" points="238.437,1072.87 2289.76,1072.87 "></polyline>
<polyline clip-path="url(#clip782)" style="stroke:#000000; stroke-linecap:round; stroke-linejoin:round; stroke-width:2; stroke-opacity:0.1; fill:none" points="238.437,935.348 2289.76,935.348 "></polyline>
<polyline clip-path="url(#clip782)" style="stroke:#000000; stroke-linecap:round; stroke-linejoin:round; stroke-width:2; stroke-opacity:0.1; fill:none" points="238.437,797.83 2289.76,797.83 "></polyline>
<polyline clip-path="url(#clip782)" style="stroke:#000000; stroke-linecap:round; stroke-linejoin:round; stroke-width:2; stroke-opacity:0.1; fill:none" points="238.437,660.311 2289.76,660.311 "></polyline>
<polyline clip-path="url(#clip782)" style="stroke:#000000; stroke-linecap:round; stroke-linejoin:round; stroke-width:2; stroke-opacity:0.1; fill:none" points="238.437,522.792 2289.76,522.792 "></polyline>
<polyline clip-path="url(#clip782)" style="stroke:#000000; stroke-linecap:round; stroke-linejoin:round; stroke-width:2; stroke-opacity:0.1; fill:none" points="238.437,385.274 2289.76,385.274 "></polyline>
<polyline clip-path="url(#clip782)" style="stroke:#000000; stroke-linecap:round; stroke-linejoin:round; stroke-width:2; stroke-opacity:0.1; fill:none" points="238.437,247.755 2289.76,247.755 "></polyline>
<polyline clip-path="url(#clip782)" style="stroke:#000000; stroke-linecap:round; stroke-linejoin:round; stroke-width:2; stroke-opacity:0.1; fill:none" points="238.437,110.236 2289.76,110.236 "></polyline>
<polyline clip-path="url(#clip780)" style="stroke:#000000; stroke-linecap:round; stroke-linejoin:round; stroke-width:4; stroke-opacity:1; fill:none" points="238.437,1347.9 238.437,110.236 "></polyline>
<polyline clip-path="url(#clip780)" style="stroke:#000000; stroke-linecap:round; stroke-linejoin:round; stroke-width:4; stroke-opacity:1; fill:none" points="238.437,1347.9 257.335,1347.9 "></polyline>
<polyline clip-path="url(#clip780)" style="stroke:#000000; stroke-linecap:round; stroke-linejoin:round; stroke-width:4; stroke-opacity:1; fill:none" points="238.437,1210.39 257.335,1210.39 "></polyline>
<polyline clip-path="url(#clip780)" style="stroke:#000000; stroke-linecap:round; stroke-linejoin:round; stroke-width:4; stroke-opacity:1; fill:none" points="238.437,1072.87 257.335,1072.87 "></polyline>
<polyline clip-path="url(#clip780)" style="stroke:#000000; stroke-linecap:round; stroke-linejoin:round; stroke-width:4; stroke-opacity:1; fill:none" points="238.437,935.348 257.335,935.348 "></polyline>
<polyline clip-path="url(#clip780)" style="stroke:#000000; stroke-linecap:round; stroke-linejoin:round; stroke-width:4; stroke-opacity:1; fill:none" points="238.437,797.83 257.335,797.83 "></polyline>
<polyline clip-path="url(#clip780)" style="stroke:#000000; stroke-linecap:round; stroke-linejoin:round; stroke-width:4; stroke-opacity:1; fill:none" points="238.437,660.311 257.335,660.311 "></polyline>
<polyline clip-path="url(#clip780)" style="stroke:#000000; stroke-linecap:round; stroke-linejoin:round; stroke-width:4; stroke-opacity:1; fill:none" points="238.437,522.792 257.335,522.792 "></polyline>
<polyline clip-path="url(#clip780)" style="stroke:#000000; stroke-linecap:round; stroke-linejoin:round; stroke-width:4; stroke-opacity:1; fill:none" points="238.437,385.274 257.335,385.274 "></polyline>
<polyline clip-path="url(#clip780)" style="stroke:#000000; stroke-linecap:round; stroke-linejoin:round; stroke-width:4; stroke-opacity:1; fill:none" points="238.437,247.755 257.335,247.755 "></polyline>
<polyline clip-path="url(#clip780)" style="stroke:#000000; stroke-linecap:round; stroke-linejoin:round; stroke-width:4; stroke-opacity:1; fill:none" points="238.437,110.236 257.335,110.236 "></polyline>
<path clip-path="url(#clip780)" d="M190.493 1333.7 Q186.882 1333.7 185.053 1337.27 Q183.248 1340.81 183.248 1347.94 Q183.248 1355.05 185.053 1358.61 Q186.882 1362.15 190.493 1362.15 Q194.127 1362.15 195.933 1358.61 Q197.761 1355.05 197.761 1347.94 Q197.761 1340.81 195.933 1337.27 Q194.127 1333.7 190.493 1333.7 M190.493 1330 Q196.303 1330 199.359 1334.61 Q202.437 1339.19 202.437 1347.94 Q202.437 1356.67 199.359 1361.27 Q196.303 1365.86 190.493 1365.86 Q184.683 1365.86 181.604 1361.27 Q178.549 1356.67 178.549 1347.94 Q178.549 1339.19 181.604 1334.61 Q184.683 1330 190.493 1330 Z" fill="#000000" fill-rule="nonzero" fill-opacity="1"></path><path clip-path="url(#clip780)" d="M182.53 1223.73 L190.169 1223.73 L190.169 1197.37 L181.859 1199.03 L181.859 1194.77 L190.123 1193.11 L194.798 1193.11 L194.798 1223.73 L202.437 1223.73 L202.437 1227.67 L182.53 1227.67 L182.53 1223.73 Z" fill="#000000" fill-rule="nonzero" fill-opacity="1"></path><path clip-path="url(#clip780)" d="M186.118 1086.21 L202.437 1086.21 L202.437 1090.15 L180.493 1090.15 L180.493 1086.21 Q183.155 1083.46 187.738 1078.83 Q192.345 1074.17 193.525 1072.83 Q195.771 1070.31 196.65 1068.57 Q197.553 1066.81 197.553 1065.12 Q197.553 1062.37 195.609 1060.63 Q193.687 1058.9 190.586 1058.9 Q188.386 1058.9 185.933 1059.66 Q183.502 1060.43 180.724 1061.98 L180.724 1057.25 Q183.549 1056.12 186.002 1055.54 Q188.456 1054.96 190.493 1054.96 Q195.863 1054.96 199.058 1057.65 Q202.252 1060.33 202.252 1064.82 Q202.252 1066.95 201.442 1068.87 Q200.655 1070.77 198.548 1073.36 Q197.97 1074.04 194.868 1077.25 Q191.766 1080.45 186.118 1086.21 Z" fill="#000000" fill-rule="nonzero" fill-opacity="1"></path><path clip-path="url(#clip780)" d="M195.308 933.994 Q198.664 934.712 200.539 936.98 Q202.437 939.249 202.437 942.582 Q202.437 947.698 198.919 950.499 Q195.4 953.3 188.919 953.3 Q186.743 953.3 184.428 952.86 Q182.137 952.443 179.683 951.587 L179.683 947.073 Q181.627 948.207 183.942 948.786 Q186.257 949.365 188.78 949.365 Q193.178 949.365 195.47 947.628 Q197.785 945.892 197.785 942.582 Q197.785 939.527 195.632 937.814 Q193.502 936.078 189.683 936.078 L185.655 936.078 L185.655 932.235 L189.868 932.235 Q193.317 932.235 195.146 930.869 Q196.974 929.48 196.974 926.888 Q196.974 924.226 195.076 922.814 Q193.201 921.379 189.683 921.379 Q187.761 921.379 185.562 921.795 Q183.363 922.212 180.724 923.092 L180.724 918.925 Q183.387 918.184 185.701 917.814 Q188.039 917.443 190.099 917.443 Q195.423 917.443 198.525 919.874 Q201.627 922.281 201.627 926.402 Q201.627 929.272 199.984 931.263 Q198.34 933.23 195.308 933.994 Z" fill="#000000" fill-rule="nonzero" fill-opacity="1"></path><path clip-path="url(#clip780)" d="M192.854 784.624 L181.049 803.073 L192.854 803.073 L192.854 784.624 M191.627 780.55 L197.507 780.55 L197.507 803.073 L202.437 803.073 L202.437 806.962 L197.507 806.962 L197.507 815.11 L192.854 815.11 L192.854 806.962 L177.252 806.962 L177.252 802.448 L191.627 780.55 Z" fill="#000000" fill-rule="nonzero" fill-opacity="1"></path><path clip-path="url(#clip780)" d="M181.535 643.031 L199.891 643.031 L199.891 646.966 L185.817 646.966 L185.817 655.438 Q186.836 655.091 187.854 654.929 Q188.873 654.744 189.891 654.744 Q195.678 654.744 199.058 657.915 Q202.437 661.086 202.437 666.503 Q202.437 672.082 198.965 675.184 Q195.493 678.262 189.174 678.262 Q186.998 678.262 184.729 677.892 Q182.484 677.522 180.076 676.781 L180.076 672.082 Q182.16 673.216 184.382 673.772 Q186.604 674.327 189.081 674.327 Q193.086 674.327 195.423 672.221 Q197.761 670.114 197.761 666.503 Q197.761 662.892 195.423 660.786 Q193.086 658.679 189.081 658.679 Q187.206 658.679 185.331 659.096 Q183.479 659.512 181.535 660.392 L181.535 643.031 Z" fill="#000000" fill-rule="nonzero" fill-opacity="1"></path><path clip-path="url(#clip780)" d="M190.91 520.929 Q187.761 520.929 185.91 523.082 Q184.081 525.234 184.081 528.984 Q184.081 532.711 185.91 534.887 Q187.761 537.04 190.91 537.04 Q194.058 537.04 195.886 534.887 Q197.738 532.711 197.738 528.984 Q197.738 525.234 195.886 523.082 Q194.058 520.929 190.91 520.929 M200.192 506.276 L200.192 510.535 Q198.433 509.702 196.627 509.262 Q194.845 508.822 193.086 508.822 Q188.456 508.822 186.002 511.947 Q183.572 515.072 183.224 521.392 Q184.59 519.378 186.65 518.313 Q188.711 517.225 191.187 517.225 Q196.396 517.225 199.405 520.396 Q202.437 523.545 202.437 528.984 Q202.437 534.308 199.289 537.526 Q196.141 540.744 190.91 540.744 Q184.914 540.744 181.743 536.16 Q178.572 531.554 178.572 522.827 Q178.572 514.633 182.461 509.772 Q186.349 504.887 192.9 504.887 Q194.66 504.887 196.442 505.235 Q198.248 505.582 200.192 506.276 Z" fill="#000000" fill-rule="nonzero" fill-opacity="1"></path><path clip-path="url(#clip780)" d="M180.215 367.994 L202.437 367.994 L202.437 369.984 L189.891 402.554 L185.007 402.554 L196.812 371.929 L180.215 371.929 L180.215 367.994 Z" fill="#000000" fill-rule="nonzero" fill-opacity="1"></path><path clip-path="url(#clip780)" d="M190.586 248.623 Q187.252 248.623 185.331 250.405 Q183.433 252.188 183.433 255.313 Q183.433 258.438 185.331 260.22 Q187.252 262.003 190.586 262.003 Q193.919 262.003 195.84 260.22 Q197.761 258.415 197.761 255.313 Q197.761 252.188 195.84 250.405 Q193.942 248.623 190.586 248.623 M185.91 246.632 Q182.9 245.892 181.211 243.831 Q179.544 241.771 179.544 238.808 Q179.544 234.665 182.484 232.257 Q185.447 229.85 190.586 229.85 Q195.748 229.85 198.687 232.257 Q201.627 234.665 201.627 238.808 Q201.627 241.771 199.937 243.831 Q198.271 245.892 195.285 246.632 Q198.664 247.419 200.539 249.711 Q202.437 252.003 202.437 255.313 Q202.437 260.336 199.359 263.021 Q196.303 265.706 190.586 265.706 Q184.868 265.706 181.789 263.021 Q178.734 260.336 178.734 255.313 Q178.734 252.003 180.632 249.711 Q182.53 247.419 185.91 246.632 M184.197 239.248 Q184.197 241.933 185.863 243.438 Q187.553 244.942 190.586 244.942 Q193.595 244.942 195.285 243.438 Q196.998 241.933 196.998 239.248 Q196.998 236.563 195.285 235.058 Q193.595 233.554 190.586 233.554 Q187.553 233.554 185.863 235.058 Q184.197 236.563 184.197 239.248 Z" fill="#000000" fill-rule="nonzero" fill-opacity="1"></path><path clip-path="url(#clip780)" d="M180.817 126.799 L180.817 122.539 Q182.576 123.373 184.382 123.813 Q186.187 124.252 187.924 124.252 Q192.553 124.252 194.984 121.151 Q197.437 118.026 197.785 111.683 Q196.442 113.674 194.382 114.739 Q192.322 115.803 189.822 115.803 Q184.637 115.803 181.604 112.678 Q178.595 109.53 178.595 104.09 Q178.595 98.7664 181.743 95.5488 Q184.891 92.3312 190.123 92.3312 Q196.118 92.3312 199.266 96.9377 Q202.437 101.521 202.437 110.271 Q202.437 118.442 198.548 123.326 Q194.683 128.188 188.132 128.188 Q186.373 128.188 184.567 127.84 Q182.762 127.493 180.817 126.799 M190.123 112.146 Q193.271 112.146 195.099 109.993 Q196.951 107.84 196.951 104.09 Q196.951 100.364 195.099 98.2108 Q193.271 96.0349 190.123 96.0349 Q186.974 96.0349 185.123 98.2108 Q183.294 100.364 183.294 104.09 Q183.294 107.84 185.123 109.993 Q186.974 112.146 190.123 112.146 Z" fill="#000000" fill-rule="nonzero" fill-opacity="1"></path><path clip-path="url(#clip780)" d="M96.8228 994.457 Q96.2499 995.443 95.9953 996.621 Q95.7088 997.767 95.7088 999.167 Q95.7088 1004.13 98.9553 1006.81 Q102.17 1009.45 108.217 1009.45 L126.996 1009.45 L126.996 1015.34 L91.3483 1015.34 L91.3483 1009.45 L96.8865 1009.45 Q93.64 1007.6 92.0804 1004.64 Q90.489 1001.68 90.489 997.449 Q90.489 996.844 90.5844 996.112 Q90.6481 995.38 90.8072 994.489 L96.8228 994.457 Z" fill="#000000" fill-rule="nonzero" fill-opacity="1"></path><path clip-path="url(#clip780)" d="M107.708 959.254 L110.573 959.254 L110.573 986.181 Q116.62 985.799 119.803 982.553 Q122.954 979.274 122.954 973.45 Q122.954 970.076 122.127 966.925 Q121.299 963.742 119.644 960.623 L125.182 960.623 Q126.519 963.774 127.219 967.084 Q127.919 970.394 127.919 973.8 Q127.919 982.33 122.954 987.327 Q117.989 992.292 109.522 992.292 Q100.77 992.292 95.6452 987.582 Q90.489 982.839 90.489 974.818 Q90.489 967.625 95.1359 963.456 Q99.7511 959.254 107.708 959.254 M105.989 965.111 Q101.183 965.174 98.3188 967.816 Q95.4542 970.426 95.4542 974.755 Q95.4542 979.656 98.2233 982.616 Q100.992 985.545 106.021 985.99 L105.989 965.111 Z" fill="#000000" fill-rule="nonzero" fill-opacity="1"></path><path clip-path="url(#clip780)" d="M121.649 943.977 L140.555 943.977 L140.555 949.865 L91.3483 949.865 L91.3483 943.977 L96.7592 943.977 Q93.5763 942.131 92.0486 939.33 Q90.489 936.497 90.489 932.582 Q90.489 926.089 95.6452 922.047 Q100.801 917.973 109.204 917.973 Q117.607 917.973 122.763 922.047 Q127.919 926.089 127.919 932.582 Q127.919 936.497 126.392 939.33 Q124.832 942.131 121.649 943.977 M109.204 924.052 Q102.743 924.052 99.0827 926.726 Q95.3906 929.367 95.3906 934.014 Q95.3906 938.661 99.0827 941.335 Q102.743 943.977 109.204 943.977 Q115.665 943.977 119.357 941.335 Q123.018 938.661 123.018 934.014 Q123.018 929.367 119.357 926.726 Q115.665 924.052 109.204 924.052 Z" fill="#000000" fill-rule="nonzero" fill-opacity="1"></path><path clip-path="url(#clip780)" d="M77.4711 908.265 L77.4711 902.409 L126.996 902.409 L126.996 908.265 L77.4711 908.265 Z" fill="#000000" fill-rule="nonzero" fill-opacity="1"></path><path clip-path="url(#clip780)" d="M91.3483 890.155 L91.3483 884.298 L126.996 884.298 L126.996 890.155 L91.3483 890.155 M77.4711 890.155 L77.4711 884.298 L84.8871 884.298 L84.8871 890.155 L77.4711 890.155 Z" fill="#000000" fill-rule="nonzero" fill-opacity="1"></path><path clip-path="url(#clip780)" d="M92.717 846.39 L98.1915 846.39 Q96.8228 848.873 96.1544 851.387 Q95.4542 853.87 95.4542 856.416 Q95.4542 862.114 99.0827 865.265 Q102.679 868.416 109.204 868.416 Q115.729 868.416 119.357 865.265 Q122.954 862.114 122.954 856.416 Q122.954 853.87 122.286 851.387 Q121.585 848.873 120.217 846.39 L125.628 846.39 Q126.773 848.841 127.346 851.483 Q127.919 854.093 127.919 857.053 Q127.919 865.106 122.859 869.848 Q117.798 874.59 109.204 874.59 Q100.483 874.59 95.486 869.816 Q90.489 865.01 90.489 856.671 Q90.489 853.966 91.0619 851.387 Q91.603 848.809 92.717 846.39 Z" fill="#000000" fill-rule="nonzero" fill-opacity="1"></path><path clip-path="url(#clip780)" d="M109.077 820.004 Q109.077 827.102 110.7 829.84 Q112.323 832.577 116.238 832.577 Q119.357 832.577 121.203 830.54 Q123.018 828.471 123.018 824.938 Q123.018 820.068 119.58 817.14 Q116.111 814.18 110.382 814.18 L109.077 814.18 L109.077 820.004 M106.658 808.323 L126.996 808.323 L126.996 814.18 L121.585 814.18 Q124.832 816.185 126.392 819.177 Q127.919 822.169 127.919 826.498 Q127.919 831.972 124.864 835.219 Q121.776 838.433 116.62 838.433 Q110.605 838.433 107.549 834.423 Q104.494 830.381 104.494 822.392 L104.494 814.18 L103.921 814.18 Q99.8784 814.18 97.6822 816.853 Q95.4542 819.495 95.4542 824.301 Q95.4542 827.357 96.1863 830.253 Q96.9183 833.15 98.3824 835.823 L92.9716 835.823 Q91.7303 832.609 91.1255 829.585 Q90.489 826.561 90.489 823.697 Q90.489 815.962 94.4994 812.143 Q98.5097 808.323 106.658 808.323 Z" fill="#000000" fill-rule="nonzero" fill-opacity="1"></path><path clip-path="url(#clip780)" d="M109.077 759.339 Q109.077 766.437 110.7 769.174 Q112.323 771.912 116.238 771.912 Q119.357 771.912 121.203 769.875 Q123.018 767.806 123.018 764.273 Q123.018 759.403 119.58 756.475 Q116.111 753.515 110.382 753.515 L109.077 753.515 L109.077 759.339 M106.658 747.658 L126.996 747.658 L126.996 753.515 L121.585 753.515 Q124.832 755.52 126.392 758.512 Q127.919 761.504 127.919 765.832 Q127.919 771.307 124.864 774.553 Q121.776 777.768 116.62 777.768 Q110.605 777.768 107.549 773.758 Q104.494 769.715 104.494 761.726 L104.494 753.515 L103.921 753.515 Q99.8784 753.515 97.6822 756.188 Q95.4542 758.83 95.4542 763.636 Q95.4542 766.692 96.1863 769.588 Q96.9183 772.484 98.3824 775.158 L92.9716 775.158 Q91.7303 771.943 91.1255 768.92 Q90.489 765.896 90.489 763.031 Q90.489 755.297 94.4994 751.478 Q98.5097 747.658 106.658 747.658 Z" fill="#000000" fill-rule="nonzero" fill-opacity="1"></path><path clip-path="url(#clip780)" d="M81.2269 729.802 L91.3483 729.802 L91.3483 717.739 L95.8998 717.739 L95.8998 729.802 L115.252 729.802 Q119.612 729.802 120.853 728.625 Q122.095 727.415 122.095 723.755 L122.095 717.739 L126.996 717.739 L126.996 723.755 Q126.996 730.534 124.482 733.113 Q121.936 735.691 115.252 735.691 L95.8998 735.691 L95.8998 739.988 L91.3483 739.988 L91.3483 735.691 L81.2269 735.691 L81.2269 729.802 Z" fill="#000000" fill-rule="nonzero" fill-opacity="1"></path><path clip-path="url(#clip780)" d="M121.649 683.651 L140.555 683.651 L140.555 689.539 L91.3483 689.539 L91.3483 683.651 L96.7592 683.651 Q93.5763 681.805 92.0486 679.004 Q90.489 676.171 90.489 672.256 Q90.489 665.763 95.6452 661.721 Q100.801 657.647 109.204 657.647 Q117.607 657.647 122.763 661.721 Q127.919 665.763 127.919 672.256 Q127.919 676.171 126.392 679.004 Q124.832 681.805 121.649 683.651 M109.204 663.726 Q102.743 663.726 99.0827 666.4 Q95.3906 669.042 95.3906 673.689 Q95.3906 678.336 99.0827 681.009 Q102.743 683.651 109.204 683.651 Q115.665 683.651 119.357 681.009 Q123.018 678.336 123.018 673.689 Q123.018 669.042 119.357 666.4 Q115.665 663.726 109.204 663.726 Z" fill="#000000" fill-rule="nonzero" fill-opacity="1"></path><path clip-path="url(#clip780)" d="M95.4542 634.126 Q95.4542 638.836 99.1463 641.574 Q102.807 644.311 109.204 644.311 Q115.602 644.311 119.294 641.606 Q122.954 638.868 122.954 634.126 Q122.954 629.447 119.262 626.71 Q115.57 623.973 109.204 623.973 Q102.87 623.973 99.1781 626.71 Q95.4542 629.447 95.4542 634.126 M90.489 634.126 Q90.489 626.487 95.4542 622.126 Q100.419 617.766 109.204 617.766 Q117.957 617.766 122.954 622.126 Q127.919 626.487 127.919 634.126 Q127.919 641.797 122.954 646.157 Q117.957 650.486 109.204 650.486 Q100.419 650.486 95.4542 646.157 Q90.489 641.797 90.489 634.126 Z" fill="#000000" fill-rule="nonzero" fill-opacity="1"></path><path clip-path="url(#clip780)" d="M92.3987 585.333 L97.9368 585.333 Q96.6637 587.815 96.0271 590.489 Q95.3906 593.163 95.3906 596.027 Q95.3906 600.388 96.7273 602.584 Q98.0641 604.748 100.738 604.748 Q102.775 604.748 103.952 603.189 Q105.098 601.629 106.149 596.918 L106.594 594.913 Q107.931 588.675 110.382 586.065 Q112.801 583.423 117.161 583.423 Q122.127 583.423 125.023 587.37 Q127.919 591.285 127.919 598.16 Q127.919 601.024 127.346 604.143 Q126.805 607.231 125.691 610.668 L119.644 610.668 Q121.331 607.422 122.19 604.271 Q123.018 601.12 123.018 598.032 Q123.018 593.895 121.617 591.667 Q120.185 589.439 117.607 589.439 Q115.22 589.439 113.947 591.062 Q112.673 592.653 111.496 598.096 L111.018 600.133 Q109.873 605.576 107.517 607.995 Q105.13 610.414 100.992 610.414 Q95.9635 610.414 93.2262 606.849 Q90.489 603.284 90.489 596.727 Q90.489 593.481 90.9664 590.616 Q91.4438 587.752 92.3987 585.333 Z" fill="#000000" fill-rule="nonzero" fill-opacity="1"></path><path clip-path="url(#clip780)" d="M91.3483 574.097 L91.3483 568.241 L126.996 568.241 L126.996 574.097 L91.3483 574.097 M77.4711 574.097 L77.4711 568.241 L84.8871 568.241 L84.8871 574.097 L77.4711 574.097 Z" fill="#000000" fill-rule="nonzero" fill-opacity="1"></path><path clip-path="url(#clip780)" d="M81.2269 550.194 L91.3483 550.194 L91.3483 538.131 L95.8998 538.131 L95.8998 550.194 L115.252 550.194 Q119.612 550.194 120.853 549.016 Q122.095 547.807 122.095 544.147 L122.095 538.131 L126.996 538.131 L126.996 544.147 Q126.996 550.926 124.482 553.504 Q121.936 556.082 115.252 556.082 L95.8998 556.082 L95.8998 560.379 L91.3483 560.379 L91.3483 556.082 L81.2269 556.082 L81.2269 550.194 Z" fill="#000000" fill-rule="nonzero" fill-opacity="1"></path><path clip-path="url(#clip780)" d="M91.3483 530.428 L91.3483 524.572 L126.996 524.572 L126.996 530.428 L91.3483 530.428 M77.4711 530.428 L77.4711 524.572 L84.8871 524.572 L84.8871 530.428 L77.4711 530.428 Z" fill="#000000" fill-rule="nonzero" fill-opacity="1"></path><path clip-path="url(#clip780)" d="M95.4542 498.504 Q95.4542 503.215 99.1463 505.952 Q102.807 508.69 109.204 508.69 Q115.602 508.69 119.294 505.984 Q122.954 503.247 122.954 498.504 Q122.954 493.826 119.262 491.088 Q115.57 488.351 109.204 488.351 Q102.87 488.351 99.1781 491.088 Q95.4542 493.826 95.4542 498.504 M90.489 498.504 Q90.489 490.866 95.4542 486.505 Q100.419 482.145 109.204 482.145 Q117.957 482.145 122.954 486.505 Q127.919 490.866 127.919 498.504 Q127.919 506.175 122.954 510.536 Q117.957 514.864 109.204 514.864 Q100.419 514.864 95.4542 510.536 Q90.489 506.175 90.489 498.504 Z" fill="#000000" fill-rule="nonzero" fill-opacity="1"></path><path clip-path="url(#clip780)" d="M105.48 442.805 L126.996 442.805 L126.996 448.661 L105.671 448.661 Q100.61 448.661 98.096 450.634 Q95.5815 452.608 95.5815 456.554 Q95.5815 461.297 98.6052 464.034 Q101.629 466.771 106.849 466.771 L126.996 466.771 L126.996 472.66 L91.3483 472.66 L91.3483 466.771 L96.8865 466.771 Q93.6718 464.671 92.0804 461.838 Q90.489 458.973 90.489 455.249 Q90.489 449.107 94.3084 445.956 Q98.096 442.805 105.48 442.805 Z" fill="#000000" fill-rule="nonzero" fill-opacity="1"></path><polyline clip-path="url(#clip782)" style="stroke:#ff0000; stroke-linecap:round; stroke-linejoin:round; stroke-width:8; stroke-opacity:1; fill:none" points="296.494,1347.9 304.235,1347.9 311.975,1347.9 319.716,1347.9 327.457,1347.9 335.198,1210.39 342.939,1210.39 350.68,660.311 358.421,660.311 366.161,1072.87 373.902,1072.87 381.643,797.83 389.384,797.83 397.125,1072.87 404.866,1072.87 412.607,1072.87 420.347,1072.87 428.088,1210.39 435.829,1210.39 443.57,1072.87 451.311,1072.87 459.052,1072.87 466.793,1072.87 474.533,1210.39 482.274,1210.39 490.015,1210.39 497.756,1210.39 505.497,1210.39 513.238,1210.39 520.979,1210.39 528.719,1210.39 536.46,1210.39 544.201,1210.39 551.942,1072.87 559.683,1072.87 567.424,797.83 575.165,797.83 582.905,1210.39 590.646,1210.39 598.387,1072.87 606.128,1072.87 613.869,797.83 621.61,797.83 629.35,1347.9 637.091,1347.9 644.832,1347.9 652.573,1347.9 660.314,1072.87 668.055,1072.87 675.796,1347.9 683.536,1347.9 691.277,1347.9 699.018,1347.9 706.759,1347.9 714.5,1347.9 722.241,1347.9 729.982,1347.9 737.722,1210.39 745.463,1210.39 753.204,1210.39 760.945,1210.39 768.686,1210.39 776.427,1210.39 784.168,1210.39 791.908,1210.39 799.649,1210.39 807.39,1210.39 815.131,1072.87 822.872,1072.87 830.613,1072.87 838.354,1072.87 846.094,1072.87 853.835,1072.87 861.576,1072.87 869.317,1072.87 877.058,1072.87 884.799,1072.87 892.54,1072.87 900.28,1072.87 908.021,1072.87 915.762,1072.87 923.503,1347.9 931.244,1347.9 938.985,1072.87 946.726,1072.87 954.466,1072.87 962.207,1072.87 969.948,1072.87 977.689,1072.87 985.43,1072.87 993.171,1072.87 1000.91,110.236 1008.65,110.236 1016.39,1072.87 1024.13,1072.87 1031.87,1072.87 1039.62,1072.87 1047.36,1072.87 1055.1,1072.87 1062.84,1072.87 1070.58,1072.87 1078.32,1072.87 1086.06,1072.87 1093.8,1072.87 1101.54,1072.87 1109.28,1072.87 1117.02,1072.87 1124.77,1072.87 1132.51,1072.87 1140.25,110.236 1147.99,110.236 1155.73,110.236 1163.47,110.236 1171.21,797.83 1178.95,797.83 1186.69,797.83 1194.43,797.83 1202.17,1072.87 1209.91,1072.87 1217.66,1072.87 1225.4,1072.87 1233.14,1072.87 1240.88,1072.87 1248.62,1072.87 1256.36,1072.87 1264.1,1072.87 1271.84,1072.87 1279.58,1072.87 1287.32,1072.87 1295.06,797.83 1302.8,797.83 1310.55,1072.87 1318.29,1072.87 1326.03,1072.87 1333.77,1072.87 1341.51,1072.87 1349.25,1072.87 1356.99,1072.87 1364.73,1072.87 1372.47,797.83 1380.21,797.83 1387.95,1072.87 1395.7,1072.87 1403.44,1072.87 1411.18,1072.87 1418.92,1072.87 1426.66,1072.87 1434.4,660.311 1442.14,660.311 1449.88,660.311 1457.62,660.311 1465.36,1072.87 1473.1,1072.87 1480.84,660.311 1488.59,660.311 1496.33,660.311 1504.07,660.311 1511.81,660.311 1519.55,660.311 1527.29,660.311 1535.03,660.311 1542.77,660.311 1550.51,660.311 1558.25,1072.87 1565.99,1072.87 1573.73,1072.87 1581.48,1072.87 1589.22,660.311 1596.96,660.311 1604.7,1072.87 1612.44,1072.87 1620.18,1210.39 1627.92,1210.39 1635.66,1072.87 1643.4,1072.87 1651.14,1072.87 1658.88,1072.87 1666.62,1072.87 1674.37,1072.87 1682.11,1072.87 1689.85,1072.87 1697.59,1072.87 1705.33,1072.87 1713.07,1210.39 1720.81,1210.39 1728.55,1072.87 1736.29,1072.87 1744.03,1072.87 1751.77,1072.87 1759.52,935.348 1767.26,935.348 1775,935.348 1782.74,935.348 1790.48,1210.39 1798.22,1210.39 1805.96,1210.39 1813.7,1210.39 1821.44,935.348 1829.18,935.348 1836.92,935.348 1844.66,935.348 1852.41,935.348 1860.15,935.348 1867.89,935.348 1875.63,935.348 1883.37,935.348 1891.11,935.348 1898.85,935.348 1906.59,935.348 1914.33,1347.9 1922.07,1347.9 1929.81,1347.9 1937.55,1347.9 1945.3,1347.9 1953.04,1347.9 1960.78,1347.9 1968.52,1347.9 1976.26,660.311 1984,660.311 1991.74,660.311 1999.48,660.311 2007.22,1072.87 2014.96,1072.87 2022.7,1072.87 2030.45,1072.87 2038.19,1072.87 2045.93,1072.87 2053.67,1072.87 2061.41,1072.87 2069.15,660.311 2076.89,660.311 2084.63,660.311 2092.37,660.311 2100.11,1347.9 2107.85,1347.9 2115.59,1347.9 2123.34,1347.9 2131.08,1347.9 2138.82,1347.9 2146.56,1347.9 2154.3,1347.9 2162.04,1347.9 2169.78,1347.9 2177.52,1347.9 2185.26,1347.9 2193,110.236 2200.74,110.236 2208.48,1347.9 2216.23,1347.9 2223.97,110.236 2231.71,110.236 "></polyline>
<polyline clip-path="url(#clip782)" style="stroke:#800080; stroke-linecap:round; stroke-linejoin:round; stroke-width:8; stroke-opacity:1; fill:none" points="296.494,1210.39 304.235,1210.39 311.975,1210.39 319.716,1210.39 327.457,1210.39 335.198,1347.9 342.939,660.311 350.68,1210.39 358.421,1072.87 366.161,660.311 373.902,797.83 381.643,1072.87 389.384,1072.87 397.125,797.83 404.866,1210.39 412.607,1210.39 420.347,1210.39 428.088,1072.87 435.829,1072.87 443.57,1210.39 451.311,1210.39 459.052,1210.39 466.793,1210.39 474.533,1072.87 482.274,1072.87 490.015,1072.87 497.756,1072.87 505.497,1072.87 513.238,1072.87 520.979,1072.87 528.719,1072.87 536.46,1072.87 544.201,1072.87 551.942,1210.39 559.683,797.83 567.424,1072.87 575.165,1210.39 582.905,797.83 590.646,1072.87 598.387,1210.39 606.128,797.83 613.869,1072.87 621.61,1347.9 629.35,797.83 637.091,1072.87 644.832,1072.87 652.573,1072.87 660.314,1347.9 668.055,1347.9 675.796,1072.87 683.536,797.83 691.277,797.83 699.018,1072.87 706.759,1072.87 714.5,1072.87 722.241,1072.87 729.982,1210.39 737.722,1347.9 745.463,1347.9 753.204,1347.9 760.945,1347.9 768.686,1347.9 776.427,1347.9 784.168,1347.9 791.908,110.236 799.649,110.236 807.39,1072.87 815.131,1210.39 822.872,1210.39 830.613,1210.39 838.354,110.236 846.094,110.236 853.835,110.236 861.576,110.236 869.317,110.236 877.058,110.236 884.799,110.236 892.54,110.236 900.28,1347.9 908.021,1347.9 915.762,1347.9 923.503,1072.87 931.244,1072.87 938.985,1347.9 946.726,1347.9 954.466,1347.9 962.207,110.236 969.948,110.236 977.689,110.236 985.43,110.236 993.171,110.236 1000.91,1072.87 1008.65,1072.87 1016.39,110.236 1024.13,1347.9 1031.87,1347.9 1039.62,110.236 1047.36,110.236 1055.1,110.236 1062.84,110.236 1070.58,110.236 1078.32,110.236 1086.06,110.236 1093.8,110.236 1101.54,660.311 1109.28,660.311 1117.02,110.236 1124.77,110.236 1132.51,110.236 1140.25,1072.87 1147.99,1072.87 1155.73,1072.87 1163.47,797.83 1171.21,110.236 1178.95,1072.87 1186.69,1072.87 1194.43,1072.87 1202.17,797.83 1209.91,797.83 1217.66,797.83 1225.4,797.83 1233.14,797.83 1240.88,660.311 1248.62,660.311 1256.36,797.83 1264.1,797.83 1271.84,797.83 1279.58,797.83 1287.32,797.83 1295.06,1072.87 1302.8,1072.87 1310.55,797.83 1318.29,797.83 1326.03,797.83 1333.77,797.83 1341.51,797.83 1349.25,797.83 1356.99,797.83 1364.73,797.83 1372.47,1072.87 1380.21,1072.87 1387.95,797.83 1395.7,660.311 1403.44,660.311 1411.18,797.83 1418.92,797.83 1426.66,660.311 1434.4,1072.87 1442.14,1072.87 1449.88,1072.87 1457.62,1072.87 1465.36,660.311 1473.1,660.311 1480.84,1072.87 1488.59,797.83 1496.33,797.83 1504.07,1072.87 1511.81,1072.87 1519.55,1072.87 1527.29,1072.87 1535.03,1072.87 1542.77,1072.87 1550.51,1072.87 1558.25,660.311 1565.99,660.311 1573.73,660.311 1581.48,660.311 1589.22,1072.87 1596.96,1072.87 1604.7,660.311 1612.44,1210.39 1620.18,1072.87 1627.92,1072.87 1635.66,1210.39 1643.4,1210.39 1651.14,1210.39 1658.88,1210.39 1666.62,1210.39 1674.37,660.311 1682.11,660.311 1689.85,1210.39 1697.59,1210.39 1705.33,1210.39 1713.07,1072.87 1720.81,1072.87 1728.55,1210.39 1736.29,660.311 1744.03,660.311 1751.77,935.348 1759.52,1072.87 1767.26,1210.39 1775,1210.39 1782.74,1210.39 1790.48,935.348 1798.22,1072.87 1805.96,1072.87 1813.7,935.348 1821.44,1210.39 1829.18,1072.87 1836.92,1072.87 1844.66,1072.87 1852.41,1072.87 1860.15,1072.87 1867.89,1072.87 1875.63,1210.39 1883.37,1210.39 1891.11,1347.9 1898.85,1347.9 1906.59,1347.9 1914.33,935.348 1922.07,935.348 1929.81,935.348 1937.55,935.348 1945.3,935.348 1953.04,660.311 1960.78,660.311 1968.52,660.311 1976.26,1347.9 1984,1347.9 1991.74,1347.9 1999.48,1072.87 2007.22,660.311 2014.96,660.311 2022.7,660.311 2030.45,660.311 2038.19,660.311 2045.93,660.311 2053.67,660.311 2061.41,660.311 2069.15,1072.87 2076.89,1072.87 2084.63,1072.87 2092.37,1347.9 2100.11,660.311 2107.85,660.311 2115.59,660.311 2123.34,1072.87 2131.08,1072.87 2138.82,1210.39 2146.56,1210.39 2154.3,1210.39 2162.04,1210.39 2169.78,1210.39 2177.52,1210.39 2185.26,110.236 2193,1347.9 2200.74,1347.9 2208.48,110.236 2216.23,110.236 2223.97,1347.9 2231.71,1347.9 "></polyline>
<polyline clip-path="url(#clip782)" style="stroke:#008000; stroke-linecap:round; stroke-linejoin:round; stroke-width:8; stroke-opacity:1; fill:none" points="296.494,1072.87 304.235,1072.87 311.975,1072.87 319.716,660.311 327.457,660.311 335.198,660.311 342.939,1347.9 350.68,1072.87 358.421,1210.39 366.161,797.83 373.902,660.311 381.643,660.311 389.384,660.311 397.125,1210.39 404.866,797.83 412.607,660.311 420.347,660.311 428.088,660.311 435.829,660.311 443.57,797.83 451.311,797.83 459.052,797.83 466.793,797.83 474.533,797.83 482.274,797.83 490.015,1347.9 497.756,1347.9 505.497,1347.9 513.238,1347.9 520.979,1347.9 528.719,1347.9 536.46,1347.9 544.201,1347.9 551.942,797.83 559.683,1210.39 567.424,1210.39 575.165,1072.87 582.905,1072.87 590.646,797.83 598.387,797.83 606.128,1210.39 613.869,1347.9 621.61,1072.87 629.35,1072.87 637.091,797.83 644.832,797.83 652.573,797.83 660.314,797.83 668.055,797.83 675.796,797.83 683.536,1072.87 691.277,1072.87 699.018,797.83 706.759,110.236 714.5,110.236 722.241,1210.39 729.982,1072.87 737.722,1072.87 745.463,1072.87 753.204,1072.87 760.945,1072.87 768.686,1072.87 776.427,1072.87 784.168,110.236 791.908,1347.9 799.649,1072.87 807.39,110.236 815.131,110.236 822.872,110.236 830.613,110.236 838.354,1210.39 846.094,1347.9 853.835,1347.9 861.576,1347.9 869.317,1347.9 877.058,1347.9 884.799,1347.9 892.54,1347.9 900.28,110.236 908.021,110.236 915.762,110.236 923.503,1210.39 931.244,1210.39 938.985,1210.39 946.726,1210.39 954.466,110.236 962.207,1347.9 969.948,1347.9 977.689,1347.9 985.43,1347.9 993.171,1347.9 1000.91,1347.9 1008.65,1347.9 1016.39,1347.9 1024.13,110.236 1031.87,110.236 1039.62,1347.9 1047.36,1347.9 1055.1,1347.9 1062.84,1210.39 1070.58,1210.39 1078.32,660.311 1086.06,660.311 1093.8,660.311 1101.54,110.236 1109.28,110.236 1117.02,660.311 1124.77,797.83 1132.51,797.83 1140.25,797.83 1147.99,797.83 1155.73,797.83 1163.47,1072.87 1171.21,1072.87 1178.95,110.236 1186.69,660.311 1194.43,660.311 1202.17,660.311 1209.91,660.311 1217.66,660.311 1225.4,660.311 1233.14,660.311 1240.88,797.83 1248.62,797.83 1256.36,660.311 1264.1,660.311 1271.84,660.311 1279.58,660.311 1287.32,660.311 1295.06,660.311 1302.8,660.311 1310.55,660.311 1318.29,660.311 1326.03,660.311 1333.77,660.311 1341.51,660.311 1349.25,660.311 1356.99,935.348 1364.73,935.348 1372.47,935.348 1380.21,935.348 1387.95,660.311 1395.7,797.83 1403.44,797.83 1411.18,660.311 1418.92,660.311 1426.66,797.83 1434.4,797.83 1442.14,797.83 1449.88,797.83 1457.62,797.83 1465.36,797.83 1473.1,797.83 1480.84,797.83 1488.59,1072.87 1496.33,1072.87 1504.07,797.83 1511.81,797.83 1519.55,797.83 1527.29,935.348 1535.03,935.348 1542.77,935.348 1550.51,935.348 1558.25,1347.9 1565.99,1347.9 1573.73,1347.9 1581.48,1347.9 1589.22,1347.9 1596.96,1347.9 1604.7,1210.39 1612.44,660.311 1620.18,660.311 1627.92,660.311 1635.66,660.311 1643.4,660.311 1651.14,935.348 1658.88,935.348 1666.62,660.311 1674.37,1210.39 1682.11,1210.39 1689.85,660.311 1697.59,660.311 1705.33,660.311 1713.07,660.311 1720.81,660.311 1728.55,660.311 1736.29,1210.39 1744.03,935.348 1751.77,660.311 1759.52,1210.39 1767.26,1072.87 1775,1072.87 1782.74,1072.87 1790.48,1072.87 1798.22,935.348 1805.96,935.348 1813.7,1072.87 1821.44,1072.87 1829.18,1210.39 1836.92,1210.39 1844.66,1210.39 1852.41,1210.39 1860.15,1210.39 1867.89,1210.39 1875.63,1072.87 1883.37,1347.9 1891.11,1210.39 1898.85,1210.39 1906.59,1210.39 1914.33,1072.87 1922.07,1072.87 1929.81,1072.87 1937.55,1072.87 1945.3,660.311 1953.04,935.348 1960.78,1072.87 1968.52,1072.87 1976.26,1072.87 1984,1072.87 1991.74,1072.87 1999.48,1347.9 2007.22,1347.9 2014.96,1347.9 2022.7,1347.9 2030.45,1347.9 2038.19,1210.39 2045.93,1210.39 2053.67,1210.39 2061.41,1210.39 2069.15,1347.9 2076.89,1347.9 2084.63,1347.9 2092.37,1072.87 2100.11,1072.87 2107.85,1072.87 2115.59,1072.87 2123.34,660.311 2131.08,1210.39 2138.82,1072.87 2146.56,1072.87 2154.3,1072.87 2162.04,1072.87 2169.78,1072.87 2177.52,110.236 2185.26,1210.39 2193,660.311 2200.74,660.311 2208.48,660.311 2216.23,660.311 2223.97,1072.87 2231.71,1072.87 "></polyline>
<polyline clip-path="url(#clip782)" style="stroke:#ffa500; stroke-linecap:round; stroke-linejoin:round; stroke-width:8; stroke-opacity:1; fill:none" points="296.494,935.348 304.235,935.348 311.975,660.311 319.716,1072.87 327.457,1072.87 335.198,1072.87 342.939,1072.87 350.68,1347.9 358.421,797.83 366.161,1210.39 373.902,1210.39 381.643,1210.39 389.384,1210.39 397.125,660.311 404.866,660.311 412.607,797.83 420.347,797.83 428.088,797.83 435.829,797.83 443.57,660.311 451.311,1347.9 459.052,1347.9 466.793,1347.9 474.533,1347.9 482.274,1347.9 490.015,797.83 497.756,797.83 505.497,797.83 513.238,797.83 520.979,797.83 528.719,797.83 536.46,797.83 544.201,797.83 551.942,1347.9 559.683,660.311 567.424,660.311 575.165,660.311 582.905,660.311 590.646,1347.9 598.387,1347.9 606.128,1347.9 613.869,1210.39 621.61,1210.39 629.35,1210.39 637.091,1210.39 644.832,1210.39 652.573,660.311 660.314,660.311 668.055,660.311 675.796,660.311 683.536,1210.39 691.277,1210.39 699.018,110.236 706.759,797.83 714.5,1210.39 722.241,110.236 729.982,110.236 737.722,110.236 745.463,110.236 753.204,110.236 760.945,110.236 768.686,110.236 776.427,110.236 784.168,1072.87 791.908,1072.87 799.649,1347.9 807.39,1347.9 815.131,1347.9 822.872,1347.9 830.613,1347.9 838.354,1347.9 846.094,1210.39 853.835,1210.39 861.576,1210.39 869.317,1210.39 877.058,1210.39 884.799,935.348 892.54,935.348 900.28,1210.39 908.021,1210.39 915.762,1210.39 923.503,110.236 931.244,110.236 938.985,110.236 946.726,110.236 954.466,1210.39 962.207,935.348 969.948,935.348 977.689,660.311 985.43,660.311 993.171,660.311 1000.91,660.311 1008.65,660.311 1016.39,660.311 1024.13,1210.39 1031.87,1210.39 1039.62,1210.39 1047.36,1210.39 1055.1,1210.39 1062.84,1347.9 1070.58,660.311 1078.32,1210.39 1086.06,935.348 1093.8,935.348 1101.54,935.348 1109.28,935.348 1117.02,797.83 1124.77,660.311 1132.51,935.348 1140.25,935.348 1147.99,1210.39 1155.73,1210.39 1163.47,1210.39 1171.21,1210.39 1178.95,660.311 1186.69,110.236 1194.43,110.236 1202.17,110.236 1209.91,1210.39 1217.66,1210.39 1225.4,1210.39 1233.14,1210.39 1240.88,110.236 1248.62,110.236 1256.36,110.236 1264.1,110.236 1271.84,110.236 1279.58,110.236 1287.32,110.236 1295.06,110.236 1302.8,522.792 1310.55,522.792 1318.29,522.792 1326.03,522.792 1333.77,935.348 1341.51,935.348 1349.25,935.348 1356.99,660.311 1364.73,660.311 1372.47,660.311 1380.21,660.311 1387.95,935.348 1395.7,935.348 1403.44,935.348 1411.18,935.348 1418.92,935.348 1426.66,935.348 1434.4,935.348 1442.14,935.348 1449.88,935.348 1457.62,935.348 1465.36,935.348 1473.1,1347.9 1480.84,1347.9 1488.59,1347.9 1496.33,1347.9 1504.07,935.348 1511.81,935.348 1519.55,935.348 1527.29,797.83 1535.03,1347.9 1542.77,1347.9 1550.51,1347.9 1558.25,935.348 1565.99,1210.39 1573.73,1210.39 1581.48,1210.39 1589.22,1210.39 1596.96,1210.39 1604.7,1347.9 1612.44,935.348 1620.18,935.348 1627.92,935.348 1635.66,935.348 1643.4,935.348 1651.14,660.311 1658.88,660.311 1666.62,935.348 1674.37,935.348 1682.11,935.348 1689.85,935.348 1697.59,935.348 1705.33,935.348 1713.07,935.348 1720.81,935.348 1728.55,935.348 1736.29,935.348 1744.03,1210.39 1751.77,1210.39 1759.52,660.311 1767.26,660.311 1775,660.311 1782.74,797.83 1790.48,797.83 1798.22,797.83 1805.96,797.83 1813.7,797.83 1821.44,797.83 1829.18,797.83 1836.92,797.83 1844.66,1347.9 1852.41,1347.9 1860.15,1347.9 1867.89,1347.9 1875.63,1347.9 1883.37,1072.87 1891.11,660.311 1898.85,660.311 1906.59,1072.87 1914.33,1210.39 1922.07,660.311 1929.81,660.311 1937.55,660.311 1945.3,1072.87 1953.04,1072.87 1960.78,935.348 1968.52,935.348 1976.26,935.348 1984,935.348 1991.74,935.348 1999.48,110.236 2007.22,110.236 2014.96,110.236 2022.7,110.236 2030.45,1210.39 2038.19,1347.9 2045.93,1347.9 2053.67,1347.9 2061.41,1347.9 2069.15,1210.39 2076.89,1210.39 2084.63,1210.39 2092.37,935.348 2100.11,935.348 2107.85,935.348 2115.59,935.348 2123.34,1210.39 2131.08,660.311 2138.82,660.311 2146.56,660.311 2154.3,110.236 2162.04,110.236 2169.78,110.236 2177.52,1072.87 2185.26,660.311 2193,1210.39 2200.74,1072.87 2208.48,1072.87 2216.23,1072.87 2223.97,660.311 2231.71,660.311 "></polyline>
<polyline clip-path="url(#clip782)" style="stroke:#0000ff; stroke-linecap:round; stroke-linejoin:round; stroke-width:8; stroke-opacity:1; fill:none" points="296.494,797.83 304.235,660.311 311.975,935.348 319.716,935.348 327.457,935.348 335.198,935.348 342.939,935.348 350.68,797.83 358.421,1347.9 366.161,935.348 373.902,935.348 381.643,935.348 389.384,935.348 397.125,1347.9 404.866,1347.9 412.607,1347.9 420.347,1347.9 428.088,1347.9 435.829,1347.9 443.57,1347.9 451.311,660.311 459.052,660.311 466.793,660.311 474.533,110.236 482.274,110.236 490.015,110.236 497.756,110.236 505.497,660.311 513.238,660.311 520.979,660.311 528.719,660.311 536.46,247.755 544.201,247.755 551.942,660.311 559.683,1347.9 567.424,1347.9 575.165,1347.9 582.905,1347.9 590.646,660.311 598.387,660.311 606.128,660.311 613.869,660.311 621.61,660.311 629.35,110.236 637.091,110.236 644.832,660.311 652.573,1210.39 660.314,110.236 668.055,110.236 675.796,1210.39 683.536,660.311 691.277,110.236 699.018,1210.39 706.759,1210.39 714.5,797.83 722.241,797.83 729.982,797.83 737.722,660.311 745.463,660.311 753.204,797.83 760.945,797.83 768.686,935.348 776.427,935.348 784.168,935.348 791.908,935.348 799.649,660.311 807.39,660.311 815.131,797.83 822.872,797.83 830.613,797.83 838.354,797.83 846.094,935.348 853.835,935.348 861.576,935.348 869.317,935.348 877.058,935.348 884.799,1210.39 892.54,1210.39 900.28,935.348 908.021,935.348 915.762,935.348 923.503,935.348 931.244,935.348 938.985,935.348 946.726,935.348 954.466,935.348 962.207,1210.39 969.948,660.311 977.689,935.348 985.43,935.348 993.171,935.348 1000.91,1210.39 1008.65,1210.39 1016.39,1210.39 1024.13,660.311 1031.87,935.348 1039.62,935.348 1047.36,660.311 1055.1,660.311 1062.84,660.311 1070.58,1347.9 1078.32,935.348 1086.06,1210.39 1093.8,1210.39 1101.54,1210.39 1109.28,797.83 1117.02,935.348 1124.77,935.348 1132.51,660.311 1140.25,1210.39 1147.99,935.348 1155.73,935.348 1163.47,935.348 1171.21,660.311 1178.95,1210.39 1186.69,1210.39 1194.43,1210.39 1202.17,1210.39 1209.91,110.236 1217.66,522.792 1225.4,522.792 1233.14,110.236 1240.88,1210.39 1248.62,522.792 1256.36,522.792 1264.1,522.792 1271.84,522.792 1279.58,522.792 1287.32,522.792 1295.06,522.792 1302.8,110.236 1310.55,935.348 1318.29,935.348 1326.03,935.348 1333.77,522.792 1341.51,1210.39 1349.25,1210.39 1356.99,1210.39 1364.73,1210.39 1372.47,1210.39 1380.21,1210.39 1387.95,1210.39 1395.7,1210.39 1403.44,1210.39 1411.18,1210.39 1418.92,385.274 1426.66,385.274 1434.4,1210.39 1442.14,1210.39 1449.88,1210.39 1457.62,1210.39 1465.36,1347.9 1473.1,935.348 1480.84,935.348 1488.59,935.348 1496.33,935.348 1504.07,1347.9 1511.81,110.236 1519.55,110.236 1527.29,1347.9 1535.03,797.83 1542.77,797.83 1550.51,797.83 1558.25,1210.39 1565.99,935.348 1573.73,110.236 1581.48,110.236 1589.22,935.348 1596.96,935.348 1604.7,935.348 1612.44,1347.9 1620.18,1347.9 1627.92,1347.9 1635.66,1347.9 1643.4,1347.9 1651.14,522.792 1658.88,522.792 1666.62,522.792 1674.37,522.792 1682.11,522.792 1689.85,522.792 1697.59,1347.9 1705.33,1347.9 1713.07,110.236 1720.81,110.236 1728.55,110.236 1736.29,110.236 1744.03,110.236 1751.77,110.236 1759.52,110.236 1767.26,110.236 1775,797.83 1782.74,660.311 1790.48,660.311 1798.22,660.311 1805.96,660.311 1813.7,660.311 1821.44,660.311 1829.18,660.311 1836.92,1347.9 1844.66,797.83 1852.41,660.311 1860.15,660.311 1867.89,660.311 1875.63,660.311 1883.37,660.311 1891.11,1072.87 1898.85,1072.87 1906.59,660.311 1914.33,660.311 1922.07,1210.39 1929.81,1210.39 1937.55,1210.39 1945.3,1210.39 1953.04,1210.39 1960.78,1210.39 1968.52,1210.39 1976.26,110.236 1984,110.236 1991.74,110.236 1999.48,935.348 2007.22,935.348 2014.96,935.348 2022.7,1210.39 2030.45,110.236 2038.19,935.348 2045.93,935.348 2053.67,110.236 2061.41,110.236 2069.15,935.348 2076.89,935.348 2084.63,935.348 2092.37,1210.39 2100.11,1210.39 2107.85,1210.39 2115.59,1210.39 2123.34,935.348 2131.08,935.348 2138.82,935.348 2146.56,110.236 2154.3,660.311 2162.04,660.311 2169.78,660.311 2177.52,660.311 2185.26,1072.87 2193,1072.87 2200.74,1210.39 2208.48,1210.39 2216.23,1210.39 2223.97,935.348 2231.71,935.348 "></polyline>
<polyline clip-path="url(#clip782)" style="stroke:#ff5200; stroke-linecap:round; stroke-linejoin:round; stroke-width:8; stroke-opacity:1; fill:none" points="296.494,660.311 304.235,797.83 311.975,522.792 319.716,522.792 327.457,797.83 335.198,797.83 342.939,797.83 350.68,935.348 358.421,935.348 366.161,1347.9 373.902,1347.9 381.643,1347.9 389.384,1347.9 397.125,935.348 404.866,247.755 412.607,247.755 420.347,247.755 428.088,247.755 435.829,247.755 443.57,247.755 451.311,247.755 459.052,247.755 466.793,110.236 474.533,660.311 482.274,247.755 490.015,247.755 497.756,660.311 505.497,110.236 513.238,110.236 520.979,110.236 528.719,247.755 536.46,660.311 544.201,660.311 551.942,247.755 559.683,110.236 567.424,110.236 575.165,247.755 582.905,247.755 590.646,110.236 598.387,110.236 606.128,110.236 613.869,110.236 621.61,110.236 629.35,660.311 637.091,660.311 644.832,110.236 652.573,110.236 660.314,1210.39 668.055,1210.39 675.796,110.236 683.536,110.236 691.277,660.311 699.018,660.311 706.759,660.311 714.5,660.311 722.241,660.311 729.982,660.311 737.722,797.83 745.463,797.83 753.204,660.311 760.945,935.348 768.686,797.83 776.427,797.83 784.168,797.83 791.908,660.311 799.649,935.348 807.39,797.83 815.131,660.311 822.872,935.348 830.613,935.348 838.354,935.348 846.094,797.83 853.835,797.83 861.576,797.83 869.317,660.311 877.058,660.311 884.799,660.311 892.54,660.311 900.28,660.311 908.021,660.311 915.762,660.311 923.503,660.311 931.244,660.311 938.985,660.311 946.726,660.311 954.466,660.311 962.207,660.311 969.948,1210.39 977.689,797.83 985.43,797.83 993.171,1210.39 1000.91,935.348 1008.65,935.348 1016.39,935.348 1024.13,935.348 1031.87,660.311 1039.62,660.311 1047.36,935.348 1055.1,935.348 1062.84,935.348 1070.58,935.348 1078.32,1347.9 1086.06,1347.9 1093.8,1347.9 1101.54,797.83 1109.28,1210.39 1117.02,1210.39 1124.77,1210.39 1132.51,1210.39 1140.25,660.311 1147.99,660.311 1155.73,660.311 1163.47,660.311 1171.21,935.348 1178.95,1347.9 1186.69,1347.9 1194.43,1347.9 1202.17,1347.9 1209.91,522.792 1217.66,110.236 1225.4,110.236 1233.14,522.792 1240.88,522.792 1248.62,1210.39 1256.36,1210.39 1264.1,1210.39 1271.84,935.348 1279.58,935.348 1287.32,1210.39 1295.06,1210.39 1302.8,935.348 1310.55,110.236 1318.29,1210.39 1326.03,1210.39 1333.77,1210.39 1341.51,522.792 1349.25,247.755 1356.99,247.755 1364.73,247.755 1372.47,247.755 1380.21,522.792 1387.95,522.792 1395.7,522.792 1403.44,522.792 1411.18,385.274 1418.92,1210.39 1426.66,1210.39 1434.4,385.274 1442.14,1347.9 1449.88,1347.9 1457.62,1347.9 1465.36,1210.39 1473.1,1210.39 1480.84,1210.39 1488.59,110.236 1496.33,110.236 1504.07,110.236 1511.81,1347.9 1519.55,1347.9 1527.29,110.236 1535.03,1210.39 1542.77,1210.39 1550.51,1210.39 1558.25,797.83 1565.99,110.236 1573.73,935.348 1581.48,935.348 1589.22,110.236 1596.96,797.83 1604.7,797.83 1612.44,110.236 1620.18,110.236 1627.92,522.792 1635.66,522.792 1643.4,522.792 1651.14,1347.9 1658.88,110.236 1666.62,110.236 1674.37,110.236 1682.11,110.236 1689.85,1347.9 1697.59,522.792 1705.33,110.236 1713.07,1347.9 1720.81,522.792 1728.55,522.792 1736.29,522.792 1744.03,522.792 1751.77,797.83 1759.52,797.83 1767.26,797.83 1775,110.236 1782.74,110.236 1790.48,110.236 1798.22,522.792 1805.96,522.792 1813.7,1347.9 1821.44,1347.9 1829.18,1347.9 1836.92,660.311 1844.66,660.311 1852.41,797.83 1860.15,110.236 1867.89,110.236 1875.63,797.83 1883.37,797.83 1891.11,797.83 1898.85,797.83 1906.59,797.83 1914.33,797.83 1922.07,247.755 1929.81,247.755 1937.55,110.236 1945.3,110.236 1953.04,110.236 1960.78,110.236 1968.52,110.236 1976.26,1210.39 1984,797.83 1991.74,797.83 1999.48,1210.39 2007.22,1210.39 2014.96,1210.39 2022.7,935.348 2030.45,935.348 2038.19,110.236 2045.93,110.236 2053.67,935.348 2061.41,935.348 2069.15,110.236 2076.89,110.236 2084.63,110.236 2092.37,247.755 2100.11,247.755 2107.85,247.755 2115.59,247.755 2123.34,110.236 2131.08,110.236 2138.82,110.236 2146.56,935.348 2154.3,935.348 2162.04,935.348 2169.78,935.348 2177.52,935.348 2185.26,935.348 2193,935.348 2200.74,935.348 2208.48,935.348 2216.23,935.348 2223.97,1210.39 2231.71,1210.39 "></polyline>
<polyline clip-path="url(#clip782)" style="stroke:#00407f; stroke-linecap:round; stroke-linejoin:round; stroke-width:8; stroke-opacity:1; fill:none" points="296.494,522.792 304.235,522.792 311.975,797.83 319.716,797.83 327.457,522.792 335.198,522.792 342.939,522.792 350.68,385.274 358.421,385.274 366.161,522.792 373.902,522.792 381.643,247.755 389.384,247.755 397.125,247.755 404.866,935.348 412.607,935.348 420.347,935.348 428.088,385.274 435.829,385.274 443.57,935.348 451.311,935.348 459.052,110.236 466.793,247.755 474.533,247.755 482.274,660.311 490.015,660.311 497.756,247.755 505.497,247.755 513.238,247.755 520.979,247.755 528.719,110.236 536.46,935.348 544.201,935.348 551.942,110.236 559.683,247.755 567.424,247.755 575.165,110.236 582.905,110.236 590.646,247.755 598.387,247.755 606.128,247.755 613.869,247.755 621.61,247.755 629.35,247.755 637.091,247.755 644.832,247.755 652.573,247.755 660.314,385.274 668.055,385.274 675.796,385.274 683.536,385.274 691.277,935.348 699.018,935.348 706.759,935.348 714.5,935.348 722.241,935.348 729.982,935.348 737.722,247.755 745.463,247.755 753.204,935.348 760.945,660.311 768.686,660.311 776.427,660.311 784.168,660.311 791.908,797.83 799.649,797.83 807.39,935.348 815.131,935.348 822.872,660.311 830.613,660.311 838.354,660.311 846.094,385.274 853.835,385.274 861.576,660.311 869.317,797.83 877.058,797.83 884.799,797.83 892.54,247.755 900.28,247.755 908.021,385.274 915.762,385.274 923.503,797.83 931.244,797.83 938.985,797.83 946.726,797.83 954.466,522.792 962.207,522.792 969.948,797.83 977.689,1210.39 985.43,1210.39 993.171,797.83 1000.91,522.792 1008.65,522.792 1016.39,522.792 1024.13,522.792 1031.87,522.792 1039.62,522.792 1047.36,522.792 1055.1,522.792 1062.84,522.792 1070.58,522.792 1078.32,522.792 1086.06,522.792 1093.8,797.83 1101.54,1347.9 1109.28,1347.9 1117.02,1347.9 1124.77,1347.9 1132.51,1347.9 1140.25,522.792 1147.99,522.792 1155.73,1347.9 1163.47,1347.9 1171.21,1347.9 1178.95,935.348 1186.69,935.348 1194.43,935.348 1202.17,522.792 1209.91,1347.9 1217.66,935.348 1225.4,935.348 1233.14,935.348 1240.88,935.348 1248.62,935.348 1256.36,935.348 1264.1,935.348 1271.84,1210.39 1279.58,1210.39 1287.32,935.348 1295.06,935.348 1302.8,1210.39 1310.55,1210.39 1318.29,110.236 1326.03,1347.9 1333.77,1347.9 1341.51,247.755 1349.25,522.792 1356.99,522.792 1364.73,522.792 1372.47,522.792 1380.21,247.755 1387.95,385.274 1395.7,385.274 1403.44,385.274 1411.18,522.792 1418.92,247.755 1426.66,247.755 1434.4,1347.9 1442.14,385.274 1449.88,110.236 1457.62,110.236 1465.36,110.236 1473.1,110.236 1480.84,110.236 1488.59,1210.39 1496.33,1210.39 1504.07,1210.39 1511.81,1210.39 1519.55,1210.39 1527.29,1210.39 1535.03,110.236 1542.77,110.236 1550.51,110.236 1558.25,110.236 1565.99,797.83 1573.73,797.83 1581.48,797.83 1589.22,797.83 1596.96,110.236 1604.7,110.236 1612.44,797.83 1620.18,522.792 1627.92,110.236 1635.66,247.755 1643.4,247.755 1651.14,110.236 1658.88,1347.9 1666.62,1347.9 1674.37,1347.9 1682.11,1347.9 1689.85,110.236 1697.59,110.236 1705.33,522.792 1713.07,522.792 1720.81,1347.9 1728.55,1347.9 1736.29,1347.9 1744.03,797.83 1751.77,522.792 1759.52,522.792 1767.26,522.792 1775,522.792 1782.74,522.792 1790.48,522.792 1798.22,110.236 1805.96,1347.9 1813.7,522.792 1821.44,110.236 1829.18,110.236 1836.92,110.236 1844.66,110.236 1852.41,110.236 1860.15,797.83 1867.89,797.83 1875.63,110.236 1883.37,110.236 1891.11,110.236 1898.85,110.236 1906.59,110.236 1914.33,247.755 1922.07,797.83 1929.81,110.236 1937.55,247.755 1945.3,247.755 1953.04,247.755 1960.78,797.83 1968.52,797.83 1976.26,797.83 1984,1210.39 1991.74,1210.39 1999.48,797.83 2007.22,522.792 2014.96,522.792 2022.7,522.792 2030.45,522.792 2038.19,247.755 2045.93,247.755 2053.67,247.755 2061.41,247.755 2069.15,797.83 2076.89,797.83 2084.63,247.755 2092.37,110.236 2100.11,110.236 2107.85,110.236 2115.59,110.236 2123.34,247.755 2131.08,247.755 2138.82,247.755 2146.56,797.83 2154.3,797.83 2162.04,797.83 2169.78,797.83 2177.52,247.755 2185.26,247.755 2193,247.755 2200.74,247.755 2208.48,797.83 2216.23,797.83 2223.97,522.792 2231.71,522.792 "></polyline>
<polyline clip-path="url(#clip782)" style="stroke:#7f9200; stroke-linecap:round; stroke-linejoin:round; stroke-width:8; stroke-opacity:1; fill:none" points="296.494,385.274 304.235,385.274 311.975,385.274 319.716,385.274 327.457,110.236 335.198,110.236 342.939,385.274 350.68,522.792 358.421,522.792 366.161,385.274 373.902,247.755 381.643,522.792 389.384,385.274 397.125,385.274 404.866,385.274 412.607,385.274 420.347,385.274 428.088,935.348 435.829,935.348 443.57,385.274 451.311,110.236 459.052,935.348 466.793,385.274 474.533,385.274 482.274,385.274 490.015,385.274 497.756,522.792 505.497,522.792 513.238,935.348 520.979,935.348 528.719,935.348 536.46,110.236 544.201,110.236 551.942,935.348 559.683,522.792 567.424,522.792 575.165,522.792 582.905,522.792 590.646,935.348 598.387,935.348 606.128,522.792 613.869,522.792 621.61,522.792 629.35,522.792 637.091,385.274 644.832,385.274 652.573,385.274 660.314,247.755 668.055,247.755 675.796,247.755 683.536,935.348 691.277,385.274 699.018,247.755 706.759,247.755 714.5,247.755 722.241,247.755 729.982,247.755 737.722,935.348 745.463,935.348 753.204,247.755 760.945,247.755 768.686,247.755 776.427,247.755 784.168,247.755 791.908,247.755 799.649,247.755 807.39,385.274 815.131,385.274 822.872,385.274 830.613,385.274 838.354,385.274 846.094,660.311 853.835,660.311 861.576,385.274 869.317,385.274 877.058,385.274 884.799,247.755 892.54,797.83 900.28,385.274 908.021,247.755 915.762,797.83 923.503,385.274 931.244,247.755 938.985,247.755 946.726,522.792 954.466,797.83 962.207,797.83 969.948,522.792 977.689,522.792 985.43,522.792 993.171,522.792 1000.91,797.83 1008.65,247.755 1016.39,247.755 1024.13,247.755 1031.87,247.755 1039.62,385.274 1047.36,385.274 1055.1,797.83 1062.84,797.83 1070.58,797.83 1078.32,797.83 1086.06,797.83 1093.8,522.792 1101.54,522.792 1109.28,522.792 1117.02,522.792 1124.77,522.792 1132.51,522.792 1140.25,1347.9 1147.99,1347.9 1155.73,522.792 1163.47,522.792 1171.21,522.792 1178.95,385.274 1186.69,385.274 1194.43,522.792 1202.17,935.348 1209.91,935.348 1217.66,1347.9 1225.4,247.755 1233.14,247.755 1240.88,247.755 1248.62,247.755 1256.36,247.755 1264.1,247.755 1271.84,247.755 1279.58,247.755 1287.32,1347.9 1295.06,1347.9 1302.8,1347.9 1310.55,1347.9 1318.29,1347.9 1326.03,110.236 1333.77,247.755 1341.51,1347.9 1349.25,1347.9 1356.99,1347.9 1364.73,1347.9 1372.47,1347.9 1380.21,385.274 1387.95,247.755 1395.7,1347.9 1403.44,1347.9 1411.18,247.755 1418.92,522.792 1426.66,1347.9 1434.4,247.755 1442.14,110.236 1449.88,385.274 1457.62,385.274 1465.36,385.274 1473.1,247.755 1480.84,247.755 1488.59,522.792 1496.33,522.792 1504.07,247.755 1511.81,247.755 1519.55,385.274 1527.29,385.274 1535.03,247.755 1542.77,247.755 1550.51,522.792 1558.25,522.792 1565.99,522.792 1573.73,522.792 1581.48,522.792 1589.22,522.792 1596.96,385.274 1604.7,385.274 1612.44,522.792 1620.18,797.83 1627.92,247.755 1635.66,110.236 1643.4,110.236 1651.14,247.755 1658.88,385.274 1666.62,385.274 1674.37,797.83 1682.11,797.83 1689.85,385.274 1697.59,385.274 1705.33,385.274 1713.07,385.274 1720.81,385.274 1728.55,385.274 1736.29,797.83 1744.03,1347.9 1751.77,1347.9 1759.52,1347.9 1767.26,247.755 1775,247.755 1782.74,1347.9 1790.48,1347.9 1798.22,1347.9 1805.96,110.236 1813.7,110.236 1821.44,522.792 1829.18,522.792 1836.92,522.792 1844.66,247.755 1852.41,247.755 1860.15,247.755 1867.89,247.755 1875.63,247.755 1883.37,247.755 1891.11,247.755 1898.85,247.755 1906.59,247.755 1914.33,110.236 1922.07,110.236 1929.81,797.83 1937.55,797.83 1945.3,797.83 1953.04,797.83 1960.78,247.755 1968.52,247.755 1976.26,247.755 1984,522.792 1991.74,522.792 1999.48,522.792 2007.22,797.83 2014.96,247.755 2022.7,247.755 2030.45,247.755 2038.19,522.792 2045.93,385.274 2053.67,385.274 2061.41,797.83 2069.15,247.755 2076.89,247.755 2084.63,797.83 2092.37,522.792 2100.11,522.792 2107.85,797.83 2115.59,797.83 2123.34,797.83 2131.08,797.83 2138.82,797.83 2146.56,247.755 2154.3,247.755 2162.04,247.755 2169.78,247.755 2177.52,797.83 2185.26,797.83 2193,797.83 2200.74,797.83 2208.48,247.755 2216.23,522.792 2223.97,797.83 2231.71,797.83 "></polyline>
<polyline clip-path="url(#clip782)" style="stroke:#4000bf; stroke-linecap:round; stroke-linejoin:round; stroke-width:8; stroke-opacity:1; fill:none" points="296.494,247.755 304.235,247.755 311.975,247.755 319.716,110.236 327.457,385.274 335.198,385.274 342.939,110.236 350.68,110.236 358.421,110.236 366.161,247.755 373.902,385.274 381.643,385.274 389.384,522.792 397.125,522.792 404.866,522.792 412.607,110.236 420.347,110.236 428.088,522.792 435.829,522.792 443.57,110.236 451.311,385.274 459.052,385.274 466.793,935.348 474.533,935.348 482.274,935.348 490.015,522.792 497.756,385.274 505.497,935.348 513.238,522.792 520.979,385.274 528.719,385.274 536.46,385.274 544.201,385.274 551.942,522.792 559.683,935.348 567.424,935.348 575.165,935.348 582.905,935.348 590.646,522.792 598.387,522.792 606.128,935.348 613.869,385.274 621.61,385.274 629.35,385.274 637.091,522.792 644.832,935.348 652.573,935.348 660.314,522.792 668.055,522.792 675.796,935.348 683.536,247.755 691.277,247.755 699.018,385.274 706.759,522.792 714.5,522.792 722.241,385.274 729.982,385.274 737.722,522.792 745.463,522.792 753.204,522.792 760.945,522.792 768.686,385.274 776.427,385.274 784.168,385.274 791.908,385.274 799.649,385.274 807.39,247.755 815.131,247.755 822.872,247.755 830.613,247.755 838.354,247.755 846.094,522.792 853.835,522.792 861.576,522.792 869.317,522.792 877.058,247.755 884.799,385.274 892.54,385.274 900.28,797.83 908.021,797.83 915.762,247.755 923.503,247.755 931.244,385.274 938.985,522.792 946.726,247.755 954.466,247.755 962.207,247.755 969.948,385.274 977.689,385.274 985.43,247.755 993.171,247.755 1000.91,247.755 1008.65,797.83 1016.39,797.83 1024.13,797.83 1031.87,385.274 1039.62,247.755 1047.36,797.83 1055.1,385.274 1062.84,247.755 1070.58,247.755 1078.32,385.274 1086.06,385.274 1093.8,247.755 1101.54,247.755 1109.28,385.274 1117.02,385.274 1124.77,385.274 1132.51,385.274 1140.25,385.274 1147.99,385.274 1155.73,247.755 1163.47,247.755 1171.21,385.274 1178.95,522.792 1186.69,522.792 1194.43,385.274 1202.17,247.755 1209.91,247.755 1217.66,247.755 1225.4,1347.9 1233.14,1347.9 1240.88,1347.9 1248.62,1347.9 1256.36,1347.9 1264.1,1347.9 1271.84,1347.9 1279.58,1347.9 1287.32,247.755 1295.06,247.755 1302.8,247.755 1310.55,385.274 1318.29,385.274 1326.03,247.755 1333.77,110.236 1341.51,110.236 1349.25,110.236 1356.99,385.274 1364.73,385.274 1372.47,385.274 1380.21,1347.9 1387.95,1347.9 1395.7,247.755 1403.44,247.755 1411.18,1347.9 1418.92,1347.9 1426.66,522.792 1434.4,110.236 1442.14,247.755 1449.88,247.755 1457.62,247.755 1465.36,247.755 1473.1,385.274 1480.84,522.792 1488.59,247.755 1496.33,247.755 1504.07,522.792 1511.81,385.274 1519.55,247.755 1527.29,247.755 1535.03,385.274 1542.77,522.792 1550.51,247.755 1558.25,385.274 1565.99,385.274 1573.73,247.755 1581.48,247.755 1589.22,385.274 1596.96,522.792 1604.7,522.792 1612.44,385.274 1620.18,247.755 1627.92,797.83 1635.66,385.274 1643.4,385.274 1651.14,385.274 1658.88,247.755 1666.62,797.83 1674.37,385.274 1682.11,385.274 1689.85,797.83 1697.59,247.755 1705.33,247.755 1713.07,797.83 1720.81,797.83 1728.55,797.83 1736.29,385.274 1744.03,247.755 1751.77,247.755 1759.52,247.755 1767.26,1347.9 1775,1347.9 1782.74,247.755 1790.48,385.274 1798.22,385.274 1805.96,247.755 1813.7,247.755 1821.44,385.274 1829.18,385.274 1836.92,247.755 1844.66,522.792 1852.41,522.792 1860.15,522.792 1867.89,522.792 1875.63,522.792 1883.37,522.792 1891.11,522.792 1898.85,385.274 1906.59,385.274 1914.33,385.274 1922.07,385.274 1929.81,522.792 1937.55,522.792 1945.3,385.274 1953.04,385.274 1960.78,385.274 1968.52,385.274 1976.26,522.792 1984,247.755 1991.74,385.274 1999.48,385.274 2007.22,247.755 2014.96,797.83 2022.7,385.274 2030.45,385.274 2038.19,385.274 2045.93,522.792 2053.67,797.83 2061.41,385.274 2069.15,385.274 2076.89,385.274 2084.63,522.792 2092.37,797.83 2100.11,797.83 2107.85,522.792 2115.59,385.274 2123.34,385.274 2131.08,522.792 2138.82,522.792 2146.56,522.792 2154.3,522.792 2162.04,385.274 2169.78,385.274 2177.52,385.274 2185.26,385.274 2193,385.274 2200.74,385.274 2208.48,522.792 2216.23,247.755 2223.97,247.755 2231.71,247.755 "></polyline>
<polyline clip-path="url(#clip782)" style="stroke:#ff2900; stroke-linecap:round; stroke-linejoin:round; stroke-width:8; stroke-opacity:1; fill:none" points="296.494,110.236 304.235,110.236 311.975,110.236 319.716,247.755 327.457,247.755 335.198,247.755 342.939,247.755 350.68,247.755 358.421,247.755 366.161,110.236 373.902,110.236 381.643,110.236 389.384,110.236 397.125,110.236 404.866,110.236 412.607,522.792 420.347,522.792 428.088,110.236 435.829,110.236 443.57,522.792 451.311,522.792 459.052,522.792 466.793,522.792 474.533,522.792 482.274,522.792 490.015,935.348 497.756,935.348 505.497,385.274 513.238,385.274 520.979,522.792 528.719,522.792 536.46,522.792 544.201,522.792 551.942,385.274 559.683,385.274 567.424,385.274 575.165,385.274 582.905,385.274 590.646,385.274 598.387,385.274 606.128,385.274 613.869,935.348 621.61,935.348 629.35,935.348 637.091,935.348 644.832,522.792 652.573,522.792 660.314,935.348 668.055,935.348 675.796,522.792 683.536,522.792 691.277,522.792 699.018,522.792 706.759,385.274 714.5,385.274 722.241,522.792 729.982,522.792 737.722,385.274 745.463,385.274 753.204,385.274 760.945,385.274 768.686,522.792 776.427,522.792 784.168,522.792 791.908,522.792 799.649,522.792 807.39,522.792 815.131,522.792 822.872,522.792 830.613,522.792 838.354,522.792 846.094,247.755 853.835,247.755 861.576,247.755 869.317,247.755 877.058,522.792 884.799,522.792 892.54,522.792 900.28,522.792 908.021,522.792 915.762,522.792 923.503,522.792 931.244,522.792 938.985,385.274 946.726,385.274 954.466,385.274 962.207,385.274 969.948,247.755 977.689,247.755 985.43,385.274 993.171,385.274 1000.91,385.274 1008.65,385.274 1016.39,385.274 1024.13,385.274 1031.87,797.83 1039.62,797.83 1047.36,247.755 1055.1,247.755 1062.84,385.274 1070.58,385.274 1078.32,247.755 1086.06,247.755 1093.8,385.274 1101.54,385.274 1109.28,247.755 1117.02,247.755 1124.77,247.755 1132.51,247.755 1140.25,247.755 1147.99,247.755 1155.73,385.274 1163.47,385.274 1171.21,247.755 1178.95,247.755 1186.69,247.755 1194.43,247.755 1202.17,385.274 1209.91,385.274 1217.66,385.274 1225.4,385.274 1233.14,385.274 1240.88,385.274 1248.62,385.274 1256.36,385.274 1264.1,385.274 1271.84,385.274 1279.58,385.274 1287.32,385.274 1295.06,385.274 1302.8,385.274 1310.55,247.755 1318.29,247.755 1326.03,385.274 1333.77,385.274 1341.51,385.274 1349.25,385.274 1356.99,110.236 1364.73,110.236 1372.47,110.236 1380.21,110.236 1387.95,110.236 1395.7,110.236 1403.44,110.236 1411.18,110.236 1418.92,110.236 1426.66,110.236 1434.4,522.792 1442.14,522.792 1449.88,522.792 1457.62,522.792 1465.36,522.792 1473.1,522.792 1480.84,385.274 1488.59,385.274 1496.33,385.274 1504.07,385.274 1511.81,522.792 1519.55,522.792 1527.29,522.792 1535.03,522.792 1542.77,385.274 1550.51,385.274 1558.25,247.755 1565.99,247.755 1573.73,385.274 1581.48,385.274 1589.22,247.755 1596.96,247.755 1604.7,247.755 1612.44,247.755 1620.18,385.274 1627.92,385.274 1635.66,797.83 1643.4,797.83 1651.14,797.83 1658.88,797.83 1666.62,247.755 1674.37,247.755 1682.11,247.755 1689.85,247.755 1697.59,797.83 1705.33,797.83 1713.07,247.755 1720.81,247.755 1728.55,247.755 1736.29,247.755 1744.03,385.274 1751.77,385.274 1759.52,385.274 1767.26,385.274 1775,385.274 1782.74,385.274 1790.48,247.755 1798.22,247.755 1805.96,385.274 1813.7,385.274 1821.44,247.755 1829.18,247.755 1836.92,385.274 1844.66,385.274 1852.41,385.274 1860.15,385.274 1867.89,385.274 1875.63,385.274 1883.37,385.274 1891.11,385.274 1898.85,522.792 1906.59,522.792 1914.33,522.792 1922.07,522.792 1929.81,385.274 1937.55,385.274 1945.3,522.792 1953.04,522.792 1960.78,522.792 1968.52,522.792 1976.26,385.274 1984,385.274 1991.74,247.755 1999.48,247.755 2007.22,385.274 2014.96,385.274 2022.7,797.83 2030.45,797.83 2038.19,797.83 2045.93,797.83 2053.67,522.792 2061.41,522.792 2069.15,522.792 2076.89,522.792 2084.63,385.274 2092.37,385.274 2100.11,385.274 2107.85,385.274 2115.59,522.792 2123.34,522.792 2131.08,385.274 2138.82,385.274 2146.56,385.274 2154.3,385.274 2162.04,522.792 2169.78,522.792 2177.52,522.792 2185.26,522.792 2193,522.792 2200.74,522.792 2208.48,385.274 2216.23,385.274 2223.97,385.274 2231.71,385.274 "></polyline>
</svg>