<?xml version="1.0" encoding="utf-8"?>
<svg xmlns="http://www.w3.org/2000/svg" xmlns:xlink="http://www.w3.org/1999/xlink" width="600" height="400" viewBox="0 0 2400 1600">
<defs>
  <clipPath id="clip740">
    <rect x="0" y="0" width="2400" height="1600"/>
  </clipPath>
</defs>
<path clip-path="url(#clip740)" d="M0 1600 L2400 1600 L2400 0 L0 0  Z" fill="#ffffff" fill-rule="evenodd" fill-opacity="1"/>
<defs>
  <clipPath id="clip741">
    <rect x="480" y="0" width="1681" height="1600"/>
  </clipPath>
</defs>
<path clip-path="url(#clip740)" d="M299.195 1313.19 L2289.76 1313.19 L2289.76 110.236 L299.195 110.236  Z" fill="#ffffff" fill-rule="evenodd" fill-opacity="1"/>
<defs>
  <clipPath id="clip742">
    <rect x="299" y="110" width="1992" height="1204"/>
  </clipPath>
</defs>
<polyline clip-path="url(#clip740)" style="stroke:#000000; stroke-linecap:round; stroke-linejoin:round; stroke-width:4; stroke-opacity:1; fill:none" points="299.195,1313.19 2289.76,1313.19 "/>
<polyline clip-path="url(#clip740)" style="stroke:#000000; stroke-linecap:round; stroke-linejoin:round; stroke-width:4; stroke-opacity:1; fill:none" points="299.195,110.236 2289.76,110.236 "/>
<polyline clip-path="url(#clip740)" style="stroke:#000000; stroke-linecap:round; stroke-linejoin:round; stroke-width:4; stroke-opacity:1; fill:none" points="355.532,1313.19 355.532,1294.29 "/>
<polyline clip-path="url(#clip740)" style="stroke:#000000; stroke-linecap:round; stroke-linejoin:round; stroke-width:4; stroke-opacity:1; fill:none" points="579.091,1313.19 579.091,1294.29 "/>
<polyline clip-path="url(#clip740)" style="stroke:#000000; stroke-linecap:round; stroke-linejoin:round; stroke-width:4; stroke-opacity:1; fill:none" points="802.65,1313.19 802.65,1294.29 "/>
<polyline clip-path="url(#clip740)" style="stroke:#000000; stroke-linecap:round; stroke-linejoin:round; stroke-width:4; stroke-opacity:1; fill:none" points="1026.21,1313.19 1026.21,1294.29 "/>
<polyline clip-path="url(#clip740)" style="stroke:#000000; stroke-linecap:round; stroke-linejoin:round; stroke-width:4; stroke-opacity:1; fill:none" points="1249.77,1313.19 1249.77,1294.29 "/>
<polyline clip-path="url(#clip740)" style="stroke:#000000; stroke-linecap:round; stroke-linejoin:round; stroke-width:4; stroke-opacity:1; fill:none" points="1473.33,1313.19 1473.33,1294.29 "/>
<polyline clip-path="url(#clip740)" style="stroke:#000000; stroke-linecap:round; stroke-linejoin:round; stroke-width:4; stroke-opacity:1; fill:none" points="1696.89,1313.19 1696.89,1294.29 "/>
<polyline clip-path="url(#clip740)" style="stroke:#000000; stroke-linecap:round; stroke-linejoin:round; stroke-width:4; stroke-opacity:1; fill:none" points="1920.44,1313.19 1920.44,1294.29 "/>
<polyline clip-path="url(#clip740)" style="stroke:#000000; stroke-linecap:round; stroke-linejoin:round; stroke-width:4; stroke-opacity:1; fill:none" points="2144,1313.19 2144,1294.29 "/>
<polyline clip-path="url(#clip740)" style="stroke:#000000; stroke-linecap:round; stroke-linejoin:round; stroke-width:4; stroke-opacity:1; fill:none" points="355.532,110.236 355.532,129.134 "/>
<polyline clip-path="url(#clip740)" style="stroke:#000000; stroke-linecap:round; stroke-linejoin:round; stroke-width:4; stroke-opacity:1; fill:none" points="579.091,110.236 579.091,129.134 "/>
<polyline clip-path="url(#clip740)" style="stroke:#000000; stroke-linecap:round; stroke-linejoin:round; stroke-width:4; stroke-opacity:1; fill:none" points="802.65,110.236 802.65,129.134 "/>
<polyline clip-path="url(#clip740)" style="stroke:#000000; stroke-linecap:round; stroke-linejoin:round; stroke-width:4; stroke-opacity:1; fill:none" points="1026.21,110.236 1026.21,129.134 "/>
<polyline clip-path="url(#clip740)" style="stroke:#000000; stroke-linecap:round; stroke-linejoin:round; stroke-width:4; stroke-opacity:1; fill:none" points="1249.77,110.236 1249.77,129.134 "/>
<polyline clip-path="url(#clip740)" style="stroke:#000000; stroke-linecap:round; stroke-linejoin:round; stroke-width:4; stroke-opacity:1; fill:none" points="1473.33,110.236 1473.33,129.134 "/>
<polyline clip-path="url(#clip740)" style="stroke:#000000; stroke-linecap:round; stroke-linejoin:round; stroke-width:4; stroke-opacity:1; fill:none" points="1696.89,110.236 1696.89,129.134 "/>
<polyline clip-path="url(#clip740)" style="stroke:#000000; stroke-linecap:round; stroke-linejoin:round; stroke-width:4; stroke-opacity:1; fill:none" points="1920.44,110.236 1920.44,129.134 "/>
<polyline clip-path="url(#clip740)" style="stroke:#000000; stroke-linecap:round; stroke-linejoin:round; stroke-width:4; stroke-opacity:1; fill:none" points="2144,110.236 2144,129.134 "/>
<path clip-path="url(#clip740)" d="M326.179 1430.75 L324.831 1429.97 L325.498 1428.81 Q326.919 1426.35 326.855 1425.58 Q326.782 1424.76 325.498 1424.02 L302.414 1410.69 Q301.152 1409.97 300.434 1410.32 Q299.694 1410.66 298.286 1413.1 L297.619 1414.26 L296.249 1413.47 Q297.267 1412 300.256 1406.82 Q303.221 1401.69 303.969 1400.1 L305.338 1400.89 L304.684 1402.02 Q303.263 1404.48 303.336 1405.29 Q303.4 1406.07 304.662 1406.8 L327.746 1420.13 Q329.009 1420.86 329.736 1420.54 Q330.476 1420.19 331.897 1417.73 L332.551 1416.6 L333.899 1417.38 Q332.881 1418.84 329.905 1424 Q326.94 1429.13 326.179 1430.75 Z" fill="#000000" fill-rule="nonzero" fill-opacity="1" /><path clip-path="url(#clip740)" d="M335.863 1413.97 Q335.071 1413.52 334.873 1413.32 Q334.687 1413.1 334.521 1412.54 L330.005 1398.73 Q327.483 1391.14 322.969 1388.53 Q320.038 1386.84 317.052 1387.17 Q314.079 1387.48 312.461 1390.28 Q311.349 1392.21 311.587 1394.51 Q311.825 1396.82 313.489 1398.78 Q313.52 1398.62 313.78 1398.17 Q314.41 1397.08 315.44 1396.88 Q316.483 1396.65 317.403 1397.18 Q318.58 1397.86 318.713 1398.97 Q318.836 1400.04 318.404 1400.79 Q318.231 1401.09 317.932 1401.45 Q317.646 1401.8 316.689 1402.08 Q315.71 1402.34 314.619 1401.71 Q311.56 1399.94 310.455 1396.22 Q309.362 1392.48 311.413 1388.93 Q313.735 1384.91 317.65 1383.66 Q321.556 1382.38 325.279 1384.53 Q326.584 1385.28 327.547 1386.38 Q328.502 1387.45 329.113 1388.51 Q329.736 1389.56 330.397 1391.82 Q331.058 1394.09 331.452 1395.82 Q331.845 1397.56 332.601 1401.39 L334.434 1408.64 L338.992 1400.75 Q341.215 1396.9 341.046 1396.4 Q340.673 1395.61 337.708 1393.19 L338.35 1392.08 L345.25 1397.72 L335.863 1413.97 Z" fill="#000000" fill-rule="nonzero" fill-opacity="1" /><path clip-path="url(#clip740)" d="M324.49 1375.92 L323.121 1375.13 Q326.159 1369.86 324.925 1365.53 Q325.358 1364.78 325.603 1364.75 Q325.848 1364.72 326.64 1365.18 L351.221 1379.37 Q352.526 1380.12 353.303 1379.72 Q354.08 1379.31 355.698 1376.51 L356.501 1375.12 L357.849 1375.89 Q356.831 1377.36 353.62 1382.92 Q350.408 1388.48 349.66 1390.08 L348.312 1389.3 L349.115 1387.91 Q350.708 1385.15 350.706 1384.26 Q350.682 1383.37 349.356 1382.6 L326.657 1369.5 Q326.491 1372.45 324.49 1375.92 Z" fill="#000000" fill-rule="nonzero" fill-opacity="1" /><path clip-path="url(#clip740)" d="M337.138 1354.01 L335.769 1353.22 Q338.807 1347.96 337.573 1343.62 Q338.006 1342.87 338.251 1342.84 Q338.496 1342.81 339.288 1343.27 L363.869 1357.46 Q365.174 1358.22 365.951 1357.81 Q366.728 1357.4 368.346 1354.6 L369.149 1353.21 L370.497 1353.99 Q369.479 1355.45 366.268 1361.02 Q363.056 1366.58 362.308 1368.17 L360.96 1367.39 L361.763 1366 Q363.356 1363.24 363.354 1362.36 Q363.331 1361.46 362.004 1360.69 L339.305 1347.59 Q339.139 1350.54 337.138 1354.01 Z" fill="#000000" fill-rule="nonzero" fill-opacity="1" /><path clip-path="url(#clip740)" d="M537.709 1443.09 Q530.472 1444.9 523.819 1441.06 Q517.144 1437.2 515.142 1430 Q513.139 1422.8 516.696 1416.63 Q517.586 1415.09 518.703 1414 Q519.811 1412.87 521.122 1412.23 Q522.412 1411.58 523.191 1411.31 Q523.962 1411.02 525.143 1410.7 L523.185 1406.63 Q522.848 1405.98 523.045 1405.64 Q523.255 1405.27 523.506 1405.33 Q523.736 1405.38 524.378 1405.75 L534.775 1411.75 Q535.481 1412.16 535.603 1412.35 Q535.724 1412.53 535.416 1413.07 Q535.169 1413.49 534.991 1413.5 Q534.813 1413.52 534.259 1413.34 Q529.148 1411.27 524.793 1412.29 Q520.449 1413.3 518.374 1416.89 Q517.769 1417.94 517.325 1419.25 Q516.893 1420.54 516.804 1422.77 Q516.727 1424.98 517.449 1427.14 Q518.163 1429.26 520.443 1431.83 Q522.703 1434.39 526.425 1436.54 Q530.105 1438.67 533.472 1439.36 Q536.84 1440.04 539.069 1439.59 Q541.29 1439.11 543.198 1437.93 Q545.118 1436.72 546.079 1435.65 Q547.031 1434.55 547.661 1433.46 Q548.093 1432.71 548.45 1431.74 Q548.785 1430.77 549.068 1429.19 Q549.342 1427.58 548.668 1426.08 Q547.995 1424.58 546.283 1423.59 L543.48 1421.97 Q542.175 1421.22 541.398 1421.63 Q540.621 1422.03 539.003 1424.83 L538.2 1426.23 L536.853 1425.45 Q537.895 1423.94 541.045 1418.48 Q541.329 1417.99 544.004 1413.06 L545.352 1413.84 Q544.142 1415.94 544.191 1416.59 Q544.231 1417.21 545.536 1417.97 L553.173 1422.38 Q554.179 1422.96 553.957 1423.34 Q553.759 1423.68 552.182 1424.14 Q550.617 1424.58 549.609 1424.6 Q550.844 1426.71 550.464 1429.54 Q550.096 1432.35 548.601 1434.94 Q544.957 1441.25 537.709 1443.09 Z" fill="#000000" fill-rule="nonzero" fill-opacity="1" /><path clip-path="url(#clip740)" d="M558.458 1415.64 Q557.667 1415.19 557.469 1414.99 Q557.283 1414.76 557.117 1414.21 L552.6 1400.39 Q550.079 1392.81 545.565 1390.2 Q542.634 1388.51 539.648 1388.84 Q536.674 1389.15 535.056 1391.95 Q533.944 1393.87 534.182 1396.18 Q534.42 1398.48 536.085 1400.44 Q536.116 1400.29 536.375 1399.84 Q537.005 1398.75 538.036 1398.55 Q539.078 1398.32 539.998 1398.85 Q541.175 1399.53 541.308 1400.64 Q541.432 1401.71 541 1402.45 Q540.827 1402.75 540.528 1403.12 Q540.241 1403.47 539.284 1403.75 Q538.306 1404.01 537.214 1403.38 Q534.155 1401.61 533.05 1397.89 Q531.958 1394.15 534.008 1390.6 Q536.33 1386.58 540.246 1385.33 Q544.152 1384.05 547.874 1386.2 Q549.179 1386.95 550.143 1388.05 Q551.097 1389.12 551.708 1390.18 Q552.332 1391.23 552.993 1393.49 Q553.654 1395.75 554.047 1397.49 Q554.441 1399.23 555.196 1403.06 L557.03 1410.31 L561.588 1402.42 Q563.811 1398.57 563.641 1398.07 Q563.268 1397.28 560.304 1394.86 L560.946 1393.75 L567.846 1399.38 L558.458 1415.64 Z" fill="#000000" fill-rule="nonzero" fill-opacity="1" /><path clip-path="url(#clip740)" d="M547.085 1377.59 L545.716 1376.8 Q548.755 1371.53 547.521 1367.2 Q547.953 1366.45 548.198 1366.42 Q548.444 1366.39 549.235 1366.85 L573.817 1381.04 Q575.122 1381.79 575.899 1381.38 Q576.676 1380.98 578.294 1378.18 L579.097 1376.78 L580.444 1377.56 Q579.427 1379.03 576.215 1384.59 Q573.004 1390.15 572.255 1391.75 L570.907 1390.97 L571.71 1389.58 Q573.304 1386.82 573.301 1385.93 Q573.278 1385.03 571.951 1384.27 L549.253 1371.16 Q549.086 1374.12 547.085 1377.59 Z" fill="#000000" fill-rule="nonzero" fill-opacity="1" /><path clip-path="url(#clip740)" d="M569.715 1364.18 Q562.826 1360.2 560.638 1354.26 Q558.427 1348.31 561.034 1343.79 Q562.553 1341.16 564.74 1340.48 Q566.919 1339.77 568.973 1340.96 Q570.107 1341.61 570.216 1342.56 Q570.325 1343.51 569.93 1344.19 Q569.473 1344.99 568.58 1345.3 Q567.687 1345.61 566.724 1345.05 Q564.756 1343.92 566.152 1341.5 Q563.743 1341.62 562.174 1344.34 Q561.692 1345.17 561.455 1346.18 Q561.196 1347.17 561.367 1348.75 Q561.538 1350.33 562.327 1351.93 Q563.117 1353.52 565.188 1355.52 Q567.26 1357.51 570.405 1359.33 L571.453 1359.93 Q568.148 1355.63 570.294 1351.96 Q572.418 1348.28 576.691 1347.36 Q580.963 1346.43 585.113 1348.82 Q589.371 1351.28 590.663 1355.56 Q591.955 1359.85 589.806 1363.57 Q588.843 1365.24 587.26 1366.35 Q585.711 1367.45 583.312 1367.95 Q580.926 1368.43 577.407 1367.51 Q573.887 1366.59 569.715 1364.18 M575.974 1362.43 Q580.274 1364.91 582.785 1365.31 Q583.201 1365.38 583.832 1365.37 Q584.476 1365.34 585.381 1365.21 Q586.276 1365.04 587.164 1364.44 Q588.031 1363.83 588.587 1362.87 Q590.279 1359.94 588.249 1356.88 Q587.098 1355.22 582.798 1352.74 Q578.412 1350.2 576.351 1350.07 Q572.855 1349.85 571.274 1352.59 Q570.212 1354.43 570.733 1356.44 Q571.267 1358.43 572.673 1359.9 Q574.091 1361.34 575.974 1362.43 Z" fill="#000000" fill-rule="nonzero" fill-opacity="1" /><path clip-path="url(#clip740)" d="M773.297 1430.75 L771.949 1429.97 L772.616 1428.81 Q774.037 1426.35 773.973 1425.58 Q773.9 1424.76 772.616 1424.02 L749.532 1410.69 Q748.27 1409.97 747.551 1410.32 Q746.811 1410.66 745.403 1413.1 L744.736 1414.26 L743.367 1413.47 Q744.385 1412 747.374 1406.82 Q750.338 1401.69 751.087 1400.1 L752.456 1400.89 L751.802 1402.02 Q750.381 1404.48 750.454 1405.29 Q750.518 1406.07 751.78 1406.8 L774.864 1420.13 Q776.126 1420.86 776.854 1420.54 Q777.594 1420.19 779.014 1417.73 L779.669 1416.6 L781.017 1417.38 Q779.999 1418.84 777.022 1424 Q774.058 1429.13 773.297 1430.75 Z" fill="#000000" fill-rule="nonzero" fill-opacity="1" /><path clip-path="url(#clip740)" d="M782.981 1413.97 Q782.189 1413.52 781.991 1413.32 Q781.805 1413.1 781.639 1412.54 L777.123 1398.73 Q774.601 1391.14 770.087 1388.53 Q767.156 1386.84 764.17 1387.17 Q761.197 1387.48 759.578 1390.28 Q758.467 1392.21 758.705 1394.51 Q758.943 1396.82 760.607 1398.78 Q760.638 1398.62 760.898 1398.17 Q761.528 1397.08 762.558 1396.88 Q763.601 1396.65 764.521 1397.18 Q765.697 1397.86 765.83 1398.97 Q765.954 1400.04 765.522 1400.79 Q765.349 1401.09 765.05 1401.45 Q764.764 1401.8 763.806 1402.08 Q762.828 1402.34 761.737 1401.71 Q758.677 1399.94 757.573 1396.22 Q756.48 1392.48 758.53 1388.93 Q760.852 1384.91 764.768 1383.66 Q768.674 1382.38 772.397 1384.53 Q773.702 1385.28 774.665 1386.38 Q775.619 1387.45 776.231 1388.51 Q776.854 1389.56 777.515 1391.82 Q778.176 1394.09 778.57 1395.82 Q778.963 1397.56 779.718 1401.39 L781.552 1408.64 L786.11 1400.75 Q788.333 1396.9 788.164 1396.4 Q787.79 1395.61 784.826 1393.19 L785.468 1392.08 L792.368 1397.72 L782.981 1413.97 Z" fill="#000000" fill-rule="nonzero" fill-opacity="1" /><path clip-path="url(#clip740)" d="M795.629 1392.07 Q794.837 1391.61 794.639 1391.41 Q794.453 1391.19 794.287 1390.64 L789.771 1376.82 Q787.249 1369.23 782.735 1366.62 Q779.804 1364.93 776.818 1365.26 Q773.845 1365.57 772.227 1368.37 Q771.115 1370.3 771.353 1372.6 Q771.591 1374.91 773.255 1376.87 Q773.286 1376.71 773.546 1376.27 Q774.176 1375.17 775.206 1374.97 Q776.249 1374.75 777.169 1375.28 Q778.346 1375.96 778.478 1377.06 Q778.602 1378.13 778.17 1378.88 Q777.997 1379.18 777.698 1379.55 Q777.412 1379.9 776.455 1380.17 Q775.476 1380.43 774.385 1379.8 Q771.326 1378.04 770.221 1374.32 Q769.128 1370.58 771.178 1367.03 Q773.501 1363 777.416 1361.76 Q781.322 1360.47 785.045 1362.62 Q786.35 1363.38 787.313 1364.47 Q788.267 1365.54 788.879 1366.61 Q789.502 1367.65 790.163 1369.91 Q790.824 1372.18 791.218 1373.92 Q791.611 1375.66 792.366 1379.49 L794.2 1386.74 L798.758 1378.84 Q800.981 1374.99 800.812 1374.49 Q800.439 1373.71 797.474 1371.28 L798.116 1370.17 L805.016 1375.81 L795.629 1392.07 Z" fill="#000000" fill-rule="nonzero" fill-opacity="1" /><path clip-path="url(#clip740)" d="M784.256 1354.01 L782.887 1353.22 Q785.925 1347.96 784.691 1343.62 Q785.124 1342.87 785.369 1342.84 Q785.614 1342.81 786.406 1343.27 L810.987 1357.46 Q812.292 1358.22 813.069 1357.81 Q813.846 1357.4 815.464 1354.6 L816.267 1353.21 L817.615 1353.99 Q816.597 1355.45 813.386 1361.02 Q810.174 1366.58 809.426 1368.17 L808.078 1367.39 L808.881 1366 Q810.474 1363.24 810.472 1362.36 Q810.448 1361.46 809.122 1360.69 L786.423 1347.59 Q786.257 1350.54 784.256 1354.01 Z" fill="#000000" fill-rule="nonzero" fill-opacity="1" /><path clip-path="url(#clip740)" d="M991.62 1439.62 L982.848 1434.55 Q982.356 1434.27 982.197 1434.15 Q982.039 1434.03 981.984 1433.83 Q981.93 1433.63 982.078 1433.37 Q982.362 1432.88 982.836 1433.09 Q987.253 1435.47 991.144 1434.27 Q994.989 1433.09 997.508 1428.73 Q999.028 1426.1 998.084 1423.38 Q997.118 1420.66 994.637 1419.23 Q992.262 1417.85 989.803 1418.26 Q988.721 1418.41 987.83 1418.86 Q986.93 1419.28 986.521 1419.65 Q986.124 1419.99 985.429 1420.7 Q980.986 1425.38 980.639 1425.63 Q978.267 1427.72 975.15 1428.03 Q972.023 1428.31 969.306 1426.74 Q965.797 1424.71 964.736 1420.82 Q963.666 1416.89 965.741 1413.3 Q966.779 1411.5 968.221 1410.34 Q969.654 1409.14 970.526 1408.81 Q971.397 1408.49 972.873 1408.06 L971.247 1405.09 Q970.867 1404.42 971.052 1404.1 Q971.25 1403.76 971.501 1403.81 Q971.743 1403.84 972.385 1404.21 L981.199 1409.3 Q981.691 1409.58 981.85 1409.7 Q982.009 1409.82 982.029 1410.04 Q982.062 1410.23 981.914 1410.48 Q981.667 1410.91 981.091 1410.72 Q971.231 1406.65 967.007 1413.97 Q965.561 1416.47 966.3 1419.1 Q967.03 1421.69 969.405 1423.06 Q971.331 1424.17 973.605 1423.88 Q975.859 1423.59 977.524 1421.84 L982.108 1417.01 Q984.39 1414.59 987.958 1414.14 Q991.527 1413.69 994.757 1415.56 Q998.48 1417.71 999.767 1421.7 Q1001.07 1425.68 998.881 1429.46 Q997.312 1432.18 995.203 1433.76 Q993.094 1435.34 991.177 1435.74 Q992.126 1437.46 992.605 1438.51 L992.745 1438.76 Q993.125 1439.43 992.94 1439.75 Q992.742 1440.1 992.491 1440.04 Q992.24 1439.98 991.62 1439.62 Z" fill="#000000" fill-rule="nonzero" fill-opacity="1" /><path clip-path="url(#clip740)" d="M1005.58 1415.64 Q1004.78 1415.19 1004.59 1414.99 Q1004.4 1414.76 1004.23 1414.21 L999.718 1400.39 Q997.196 1392.81 992.682 1390.2 Q989.751 1388.51 986.766 1388.84 Q983.792 1389.15 982.174 1391.95 Q981.062 1393.87 981.3 1396.18 Q981.538 1398.48 983.202 1400.44 Q983.234 1400.29 983.493 1399.84 Q984.123 1398.75 985.153 1398.55 Q986.196 1398.32 987.116 1398.85 Q988.293 1399.53 988.426 1400.64 Q988.55 1401.71 988.117 1402.45 Q987.945 1402.75 987.646 1403.12 Q987.359 1403.47 986.402 1403.75 Q985.423 1404.01 984.332 1403.38 Q981.273 1401.61 980.168 1397.89 Q979.075 1394.15 981.126 1390.6 Q983.448 1386.58 987.363 1385.33 Q991.27 1384.05 994.992 1386.2 Q996.297 1386.95 997.261 1388.05 Q998.215 1389.12 998.826 1390.18 Q999.449 1391.23 1000.11 1393.49 Q1000.77 1395.75 1001.17 1397.49 Q1001.56 1399.23 1002.31 1403.06 L1004.15 1410.31 L1008.71 1402.42 Q1010.93 1398.57 1010.76 1398.07 Q1010.39 1397.28 1007.42 1394.86 L1008.06 1393.75 L1014.96 1399.38 L1005.58 1415.64 Z" fill="#000000" fill-rule="nonzero" fill-opacity="1" /><path clip-path="url(#clip740)" d="M1018.22 1393.74 Q1017.43 1393.28 1017.23 1393.08 Q1017.05 1392.86 1016.88 1392.31 L1012.37 1378.49 Q1009.84 1370.9 1005.33 1368.29 Q1002.4 1366.6 999.414 1366.93 Q996.44 1367.24 994.822 1370.04 Q993.71 1371.97 993.948 1374.27 Q994.186 1376.58 995.851 1378.54 Q995.882 1378.38 996.141 1377.93 Q996.771 1376.84 997.802 1376.64 Q998.844 1376.41 999.764 1376.95 Q1000.94 1377.62 1001.07 1378.73 Q1001.2 1379.8 1000.77 1380.55 Q1000.59 1380.85 1000.29 1381.22 Q1000.01 1381.56 999.05 1381.84 Q998.071 1382.1 996.98 1381.47 Q993.921 1379.7 992.816 1375.99 Q991.724 1372.25 993.774 1368.69 Q996.096 1364.67 1000.01 1363.42 Q1003.92 1362.14 1007.64 1364.29 Q1008.95 1365.05 1009.91 1366.14 Q1010.86 1367.21 1011.47 1368.27 Q1012.1 1369.32 1012.76 1371.58 Q1013.42 1373.85 1013.81 1375.59 Q1014.21 1377.33 1014.96 1381.16 L1016.8 1388.4 L1021.35 1380.51 Q1023.58 1376.66 1023.41 1376.16 Q1023.03 1375.38 1020.07 1372.95 L1020.71 1371.84 L1027.61 1377.48 L1018.22 1393.74 Z" fill="#000000" fill-rule="nonzero" fill-opacity="1" /><path clip-path="url(#clip740)" d="M1016.83 1364.18 Q1009.94 1360.2 1007.76 1354.26 Q1005.55 1348.31 1008.15 1343.79 Q1009.67 1341.16 1011.86 1340.48 Q1014.04 1339.77 1016.09 1340.96 Q1017.22 1341.61 1017.33 1342.56 Q1017.44 1343.51 1017.05 1344.19 Q1016.59 1344.99 1015.7 1345.3 Q1014.8 1345.61 1013.84 1345.05 Q1011.87 1343.92 1013.27 1341.5 Q1010.86 1341.62 1009.29 1344.34 Q1008.81 1345.17 1008.57 1346.18 Q1008.31 1347.17 1008.48 1348.75 Q1008.66 1350.33 1009.44 1351.93 Q1010.23 1353.52 1012.31 1355.52 Q1014.38 1357.51 1017.52 1359.33 L1018.57 1359.93 Q1015.27 1355.63 1017.41 1351.96 Q1019.54 1348.28 1023.81 1347.36 Q1028.08 1346.43 1032.23 1348.82 Q1036.49 1351.28 1037.78 1355.56 Q1039.07 1359.85 1036.92 1363.57 Q1035.96 1365.24 1034.38 1366.35 Q1032.83 1367.45 1030.43 1367.95 Q1028.04 1368.43 1024.52 1367.51 Q1021 1366.59 1016.83 1364.18 M1023.09 1362.43 Q1027.39 1364.91 1029.9 1365.31 Q1030.32 1365.38 1030.95 1365.37 Q1031.59 1365.34 1032.5 1365.21 Q1033.39 1365.04 1034.28 1364.44 Q1035.15 1363.83 1035.7 1362.87 Q1037.4 1359.94 1035.37 1356.88 Q1034.22 1355.22 1029.92 1352.74 Q1025.53 1350.2 1023.47 1350.07 Q1019.97 1349.85 1018.39 1352.59 Q1017.33 1354.43 1017.85 1356.44 Q1018.38 1358.43 1019.79 1359.9 Q1021.21 1361.34 1023.09 1362.43 Z" fill="#000000" fill-rule="nonzero" fill-opacity="1" /><path clip-path="url(#clip740)" d="M1213.19 1443.26 L1211.84 1442.48 L1212.45 1441.44 Q1213.82 1439.06 1213.74 1438.3 Q1213.66 1437.51 1212.37 1436.77 L1189.42 1423.52 Q1188.15 1422.79 1187.45 1423.12 Q1186.72 1423.45 1185.36 1425.8 L1184.76 1426.85 L1183.39 1426.06 L1197.27 1402.01 L1207.84 1406.48 L1207.21 1407.58 Q1204.53 1406.43 1202.88 1406.02 Q1201.23 1405.58 1199.58 1405.82 Q1197.92 1406.07 1196.62 1407.34 Q1195.31 1408.58 1193.88 1411.04 L1190.85 1416.3 Q1189.98 1417.8 1190.12 1418.3 Q1190.23 1418.8 1191.37 1419.45 L1202.45 1425.85 L1204.62 1422.09 Q1206.34 1419.11 1205.75 1417.66 Q1205.16 1416.21 1202.17 1414.48 L1202.8 1413.39 L1214.41 1420.09 L1213.78 1421.19 Q1210.77 1419.44 1209.24 1419.67 Q1207.69 1419.89 1205.97 1422.86 L1203.8 1426.63 L1214.58 1432.85 Q1215.5 1433.39 1215.95 1433.45 Q1216.38 1433.49 1217.16 1432.72 Q1217.93 1431.94 1219.09 1429.93 L1219.93 1428.47 L1221.28 1429.25 Q1220.24 1430.76 1216.9 1436.54 Q1213.95 1441.65 1213.19 1443.26 Z" fill="#000000" fill-rule="nonzero" fill-opacity="1" /><path clip-path="url(#clip740)" d="M1230.1 1413.97 Q1229.31 1413.52 1229.11 1413.32 Q1228.92 1413.1 1228.76 1412.54 L1224.24 1398.73 Q1221.72 1391.14 1217.2 1388.53 Q1214.27 1386.84 1211.29 1387.17 Q1208.31 1387.48 1206.7 1390.28 Q1205.58 1392.21 1205.82 1394.51 Q1206.06 1396.82 1207.72 1398.78 Q1207.76 1398.62 1208.02 1398.17 Q1208.65 1397.08 1209.68 1396.88 Q1210.72 1396.65 1211.64 1397.18 Q1212.82 1397.86 1212.95 1398.97 Q1213.07 1400.04 1212.64 1400.79 Q1212.47 1401.09 1212.17 1401.45 Q1211.88 1401.8 1210.92 1402.08 Q1209.95 1402.34 1208.85 1401.71 Q1205.8 1399.94 1204.69 1396.22 Q1203.6 1392.48 1205.65 1388.93 Q1207.97 1384.91 1211.89 1383.66 Q1215.79 1382.38 1219.51 1384.53 Q1220.82 1385.28 1221.78 1386.38 Q1222.74 1387.45 1223.35 1388.51 Q1223.97 1389.56 1224.63 1391.82 Q1225.29 1394.09 1225.69 1395.82 Q1226.08 1397.56 1226.84 1401.39 L1228.67 1408.64 L1233.23 1400.75 Q1235.45 1396.9 1235.28 1396.4 Q1234.91 1395.61 1231.94 1393.19 L1232.59 1392.08 L1239.49 1397.72 L1230.1 1413.97 Z" fill="#000000" fill-rule="nonzero" fill-opacity="1" /><path clip-path="url(#clip740)" d="M1236.64 1389 Q1235.34 1388.25 1235.15 1387.14 Q1234.96 1386.03 1235.52 1385.07 Q1236.1 1384.07 1237.17 1383.74 Q1238.23 1383.39 1239.37 1384.04 Q1240.59 1384.74 1240.78 1385.99 Q1240.98 1387.22 1240.12 1388.32 Q1242.48 1388.29 1244.38 1386.82 Q1246.29 1385.33 1247.33 1383.53 Q1248.42 1381.65 1247.67 1379.19 Q1246.93 1376.71 1242.95 1374.42 Q1239.57 1372.46 1236.86 1372.67 Q1234.16 1372.85 1232.67 1375.44 L1231.55 1377.36 Q1231.17 1378.03 1231 1378.18 Q1230.82 1378.34 1230.46 1378.13 Q1230.03 1377.88 1230.33 1377.17 Q1230.71 1376.5 1231.19 1375.38 Q1232.57 1372.79 1231.15 1370.17 Q1229.8 1367.76 1226.86 1366.07 Q1224.19 1364.52 1222.34 1365.17 Q1220.47 1365.77 1219.52 1367.42 Q1218.63 1368.96 1218.3 1371.02 Q1217.97 1373.08 1218.87 1374.83 Q1220.44 1372.11 1222.64 1373.39 Q1223.6 1373.94 1223.89 1374.93 Q1224.16 1375.89 1223.58 1376.89 Q1223.03 1377.86 1222.06 1378.15 Q1221.06 1378.44 1220.02 1377.83 Q1217.51 1376.39 1217.06 1373.16 Q1216.63 1369.91 1218.53 1366.62 Q1220.41 1363.37 1223.5 1361.96 Q1226.61 1360.53 1229.24 1362.05 Q1231.83 1363.54 1232.96 1366.48 Q1234.09 1369.41 1233.4 1372.64 Q1235.99 1369.68 1239.41 1369 Q1242.8 1368.31 1245.56 1369.9 Q1248.98 1371.88 1249.95 1376.03 Q1250.9 1380.17 1248.63 1384.11 Q1246.53 1387.75 1243.05 1389.22 Q1239.58 1390.69 1236.64 1389 Z" fill="#000000" fill-rule="nonzero" fill-opacity="1" /><path clip-path="url(#clip740)" d="M1231.37 1354.01 L1230 1353.22 Q1233.04 1347.96 1231.81 1343.62 Q1232.24 1342.87 1232.49 1342.84 Q1232.73 1342.81 1233.52 1343.27 L1258.1 1357.46 Q1259.41 1358.22 1260.19 1357.81 Q1260.96 1357.4 1262.58 1354.6 L1263.38 1353.21 L1264.73 1353.99 Q1263.71 1355.45 1260.5 1361.02 Q1257.29 1366.58 1256.54 1368.17 L1255.2 1367.39 L1256 1366 Q1257.59 1363.24 1257.59 1362.36 Q1257.57 1361.46 1256.24 1360.69 L1233.54 1347.59 Q1233.37 1350.54 1231.37 1354.01 Z" fill="#000000" fill-rule="nonzero" fill-opacity="1" /><path clip-path="url(#clip740)" d="M1436.46 1443.75 L1435.12 1442.98 L1435.72 1441.93 Q1437.09 1439.55 1437.02 1438.8 Q1436.93 1438.01 1435.65 1437.26 L1412.56 1423.94 Q1411.3 1423.21 1410.59 1423.54 Q1409.87 1423.86 1408.51 1426.22 L1407.9 1427.27 L1406.53 1426.47 Q1407.55 1425.01 1410.5 1419.9 Q1413.84 1414.12 1414.62 1412.46 L1415.99 1413.25 L1415.15 1414.71 Q1413.99 1416.72 1413.72 1417.79 Q1413.44 1418.85 1413.72 1419.21 Q1413.98 1419.56 1414.85 1420.07 L1438.22 1433.56 Q1439.35 1434.21 1439.86 1434.08 Q1440.35 1433.91 1441.21 1432.43 L1443.28 1428.84 Q1444.57 1426.61 1444.83 1424.62 Q1445.09 1422.64 1444.75 1421.3 Q1444.41 1419.96 1443.17 1418.5 Q1441.92 1417.01 1441.01 1416.26 Q1440.12 1415.49 1438.42 1414.28 L1439.05 1413.19 L1449.64 1420.93 L1436.46 1443.75 Z" fill="#000000" fill-rule="nonzero" fill-opacity="1" /><path clip-path="url(#clip740)" d="M1452.69 1415.64 Q1451.9 1415.19 1451.7 1414.99 Q1451.52 1414.76 1451.35 1414.21 L1446.84 1400.39 Q1444.31 1392.81 1439.8 1390.2 Q1436.87 1388.51 1433.88 1388.84 Q1430.91 1389.15 1429.29 1391.95 Q1428.18 1393.87 1428.42 1396.18 Q1428.66 1398.48 1430.32 1400.44 Q1430.35 1400.29 1430.61 1399.84 Q1431.24 1398.75 1432.27 1398.55 Q1433.31 1398.32 1434.23 1398.85 Q1435.41 1399.53 1435.54 1400.64 Q1435.67 1401.71 1435.24 1402.45 Q1435.06 1402.75 1434.76 1403.12 Q1434.48 1403.47 1433.52 1403.75 Q1432.54 1404.01 1431.45 1403.38 Q1428.39 1401.61 1427.29 1397.89 Q1426.19 1394.15 1428.24 1390.6 Q1430.57 1386.58 1434.48 1385.33 Q1438.39 1384.05 1442.11 1386.2 Q1443.41 1386.95 1444.38 1388.05 Q1445.33 1389.12 1445.94 1390.18 Q1446.57 1391.23 1447.23 1393.49 Q1447.89 1395.75 1448.28 1397.49 Q1448.68 1399.23 1449.43 1403.06 L1451.27 1410.31 L1455.82 1402.42 Q1458.05 1398.57 1457.88 1398.07 Q1457.5 1397.28 1454.54 1394.86 L1455.18 1393.75 L1462.08 1399.38 L1452.69 1415.64 Z" fill="#000000" fill-rule="nonzero" fill-opacity="1" /><path clip-path="url(#clip740)" d="M1459.24 1390.67 Q1457.93 1389.92 1457.75 1388.81 Q1457.56 1387.7 1458.11 1386.74 Q1458.69 1385.73 1459.77 1385.41 Q1460.83 1385.05 1461.96 1385.71 Q1463.18 1386.41 1463.37 1387.66 Q1463.57 1388.89 1462.71 1389.99 Q1465.07 1389.96 1466.97 1388.49 Q1468.89 1387 1469.93 1385.2 Q1471.01 1383.32 1470.27 1380.86 Q1469.53 1378.38 1465.55 1376.08 Q1462.17 1374.13 1459.46 1374.34 Q1456.76 1374.52 1455.26 1377.11 L1454.15 1379.03 Q1453.77 1379.69 1453.59 1379.85 Q1453.42 1380 1453.05 1379.79 Q1452.62 1379.55 1452.92 1378.84 Q1453.31 1378.17 1453.78 1377.05 Q1455.17 1374.45 1453.74 1371.83 Q1452.39 1369.43 1449.46 1367.74 Q1446.79 1366.19 1444.93 1366.83 Q1443.07 1367.44 1442.12 1369.09 Q1441.23 1370.63 1440.9 1372.69 Q1440.56 1374.75 1441.46 1376.5 Q1443.03 1373.78 1445.24 1375.05 Q1446.2 1375.61 1446.48 1376.6 Q1446.76 1377.56 1446.18 1378.56 Q1445.62 1379.53 1444.65 1379.82 Q1443.66 1380.11 1442.61 1379.5 Q1440.11 1378.06 1439.66 1374.83 Q1439.22 1371.58 1441.13 1368.29 Q1443 1365.04 1446.1 1363.63 Q1449.21 1362.2 1451.84 1363.72 Q1454.43 1365.21 1455.56 1368.15 Q1456.69 1371.08 1455.99 1374.3 Q1458.58 1371.35 1462 1370.67 Q1465.4 1369.98 1468.16 1371.57 Q1471.58 1373.55 1472.55 1377.7 Q1473.49 1381.84 1471.22 1385.78 Q1469.12 1389.41 1465.65 1390.89 Q1462.17 1392.36 1459.24 1390.67 Z" fill="#000000" fill-rule="nonzero" fill-opacity="1" /><path clip-path="url(#clip740)" d="M1463.95 1364.18 Q1457.06 1360.2 1454.87 1354.26 Q1452.66 1348.31 1455.27 1343.79 Q1456.79 1341.16 1458.98 1340.48 Q1461.15 1339.77 1463.21 1340.96 Q1464.34 1341.61 1464.45 1342.56 Q1464.56 1343.51 1464.17 1344.19 Q1463.71 1344.99 1462.82 1345.3 Q1461.92 1345.61 1460.96 1345.05 Q1458.99 1343.92 1460.39 1341.5 Q1457.98 1341.62 1456.41 1344.34 Q1455.93 1345.17 1455.69 1346.18 Q1455.43 1347.17 1455.6 1348.75 Q1455.77 1350.33 1456.56 1351.93 Q1457.35 1353.52 1459.42 1355.52 Q1461.5 1357.51 1464.64 1359.33 L1465.69 1359.93 Q1462.38 1355.63 1464.53 1351.96 Q1466.65 1348.28 1470.93 1347.36 Q1475.2 1346.43 1479.35 1348.82 Q1483.61 1351.28 1484.9 1355.56 Q1486.19 1359.85 1484.04 1363.57 Q1483.08 1365.24 1481.5 1366.35 Q1479.95 1367.45 1477.55 1367.95 Q1475.16 1368.43 1471.64 1367.51 Q1468.12 1366.59 1463.95 1364.18 M1470.21 1362.43 Q1474.51 1364.91 1477.02 1365.31 Q1477.44 1365.38 1478.07 1365.37 Q1478.71 1365.34 1479.62 1365.21 Q1480.51 1365.04 1481.4 1364.44 Q1482.27 1363.83 1482.82 1362.87 Q1484.51 1359.94 1482.48 1356.88 Q1481.33 1355.22 1477.03 1352.74 Q1472.65 1350.2 1470.59 1350.07 Q1467.09 1349.85 1465.51 1352.59 Q1464.45 1354.43 1464.97 1356.44 Q1465.5 1358.43 1466.91 1359.9 Q1468.33 1361.34 1470.21 1362.43 Z" fill="#000000" fill-rule="nonzero" fill-opacity="1" /><path clip-path="url(#clip740)" d="M1644.15 1436.67 Q1637.53 1432.85 1635.5 1425.66 Q1633.44 1418.45 1637.02 1412.25 Q1638.13 1410.32 1639.83 1409.02 Q1641.52 1407.72 1642.6 1407.28 Q1643.66 1406.84 1645.44 1406.36 L1643.49 1402.29 Q1643.15 1401.64 1643.35 1401.29 Q1643.56 1400.93 1643.81 1400.99 Q1644.04 1401.04 1644.68 1401.41 L1655.08 1407.41 Q1655.78 1407.82 1655.9 1408 Q1656.03 1408.19 1655.72 1408.72 Q1655.47 1409.15 1655.28 1409.18 Q1655.1 1409.19 1654.56 1409 Q1649.45 1406.93 1645.11 1407.93 Q1640.78 1408.91 1638.68 1412.55 Q1638.07 1413.6 1637.63 1414.91 Q1637.2 1416.2 1637.12 1418.41 Q1637.05 1420.6 1637.8 1422.76 Q1638.53 1424.9 1640.81 1427.47 Q1643.07 1430.03 1646.79 1432.18 Q1650.47 1434.31 1653.84 1434.99 Q1657.21 1435.68 1659.43 1435.25 Q1661.63 1434.79 1663.5 1433.64 Q1665.37 1432.47 1666.31 1431.44 Q1667.23 1430.38 1667.84 1429.33 Q1670.01 1425.56 1669.01 1421.13 Q1668 1416.7 1663.65 1413.81 Q1663.46 1413.65 1663.37 1413.6 Q1663.26 1413.54 1663.18 1413.43 Q1663.1 1413.33 1663.12 1413.19 Q1663.14 1413.06 1663.24 1412.89 Q1663.57 1412.31 1664.32 1412.75 Q1668.49 1415.16 1670.15 1420.39 Q1671.79 1425.59 1668.88 1430.64 Q1665.28 1436.87 1658.06 1438.71 Q1650.84 1440.54 1644.15 1436.67 Z" fill="#000000" fill-rule="nonzero" fill-opacity="1" /><path clip-path="url(#clip740)" d="M1677.22 1413.97 Q1676.42 1413.52 1676.23 1413.32 Q1676.04 1413.1 1675.87 1412.54 L1671.36 1398.73 Q1668.84 1391.14 1664.32 1388.53 Q1661.39 1386.84 1658.41 1387.17 Q1655.43 1387.48 1653.81 1390.28 Q1652.7 1392.21 1652.94 1394.51 Q1653.18 1396.82 1654.84 1398.78 Q1654.87 1398.62 1655.13 1398.17 Q1655.76 1397.08 1656.79 1396.88 Q1657.84 1396.65 1658.76 1397.18 Q1659.93 1397.86 1660.07 1398.97 Q1660.19 1400.04 1659.76 1400.79 Q1659.58 1401.09 1659.29 1401.45 Q1659 1401.8 1658.04 1402.08 Q1657.06 1402.34 1655.97 1401.71 Q1652.91 1399.94 1651.81 1396.22 Q1650.72 1392.48 1652.77 1388.93 Q1655.09 1384.91 1659 1383.66 Q1662.91 1382.38 1666.63 1384.53 Q1667.94 1385.28 1668.9 1386.38 Q1669.86 1387.45 1670.47 1388.51 Q1671.09 1389.56 1671.75 1391.82 Q1672.41 1394.09 1672.81 1395.82 Q1673.2 1397.56 1673.95 1401.39 L1675.79 1408.64 L1680.35 1400.75 Q1682.57 1396.9 1682.4 1396.4 Q1682.03 1395.61 1679.06 1393.19 L1679.7 1392.08 L1686.6 1397.72 L1677.22 1413.97 Z" fill="#000000" fill-rule="nonzero" fill-opacity="1" /><path clip-path="url(#clip740)" d="M1682.08 1388.86 L1680.73 1388.08 L1667.94 1362.75 Q1667.6 1362.1 1667.93 1361.58 Q1668.22 1361.08 1668.47 1361.09 Q1668.73 1361.09 1669.47 1361.53 L1689.41 1373.04 L1691.95 1368.65 L1693.29 1369.43 L1690.76 1373.82 L1694.57 1376.01 Q1695.83 1376.74 1696.53 1376.46 Q1697.25 1376.16 1698.56 1373.9 L1699.09 1372.98 L1700.44 1373.75 Q1699.27 1375.48 1696.88 1379.63 Q1694.49 1383.76 1693.58 1385.63 L1692.23 1384.85 L1692.77 1383.93 Q1694.07 1381.66 1694 1380.91 Q1693.9 1380.14 1692.62 1379.39 L1688.81 1377.2 L1682.08 1388.86 M1681.45 1386.84 L1687.61 1376.16 L1671.26 1366.72 L1681.45 1386.84 Z" fill="#000000" fill-rule="nonzero" fill-opacity="1" /><path clip-path="url(#clip740)" d="M1678.49 1354.01 L1677.12 1353.22 Q1680.16 1347.96 1678.93 1343.62 Q1679.36 1342.87 1679.6 1342.84 Q1679.85 1342.81 1680.64 1343.27 L1705.22 1357.46 Q1706.53 1358.22 1707.3 1357.81 Q1708.08 1357.4 1709.7 1354.6 L1710.5 1353.21 L1711.85 1353.99 Q1710.83 1355.45 1707.62 1361.02 Q1704.41 1366.58 1703.66 1368.17 L1702.31 1367.39 L1703.12 1366 Q1704.71 1363.24 1704.71 1362.36 Q1704.68 1361.46 1703.36 1360.69 L1680.66 1347.59 Q1680.49 1350.54 1678.49 1354.01 Z" fill="#000000" fill-rule="nonzero" fill-opacity="1" /><path clip-path="url(#clip740)" d="M1879.74 1450.41 L1878.39 1449.63 L1879 1448.58 Q1880.37 1446.21 1880.29 1445.45 Q1880.21 1444.66 1878.92 1443.92 L1855.84 1430.59 Q1854.58 1429.86 1853.87 1430.2 Q1853.14 1430.52 1851.78 1432.87 L1851.18 1433.92 L1849.81 1433.13 Q1850.83 1431.66 1853.68 1426.72 Q1856.51 1421.82 1857.27 1420.21 L1858.64 1421 L1858.03 1422.05 Q1856.66 1424.42 1856.75 1425.21 Q1856.83 1425.97 1858.09 1426.7 L1872.02 1434.74 L1866.84 1413.47 Q1866.59 1412.27 1865.84 1411.83 Q1865.59 1411.69 1865.23 1411.65 Q1864.87 1411.59 1864.28 1411.93 Q1863.69 1412.25 1863.23 1413.04 L1861.87 1412.25 Q1862.86 1410.82 1865.22 1406.74 Q1866.71 1404.15 1867.24 1402.94 L1868.61 1403.73 Q1866.55 1407.39 1867.65 1411.48 L1870.66 1423.74 L1891.39 1422.22 Q1893.27 1422.08 1894.18 1421.4 Q1895.08 1420.73 1896.17 1418.84 L1897.51 1419.62 Q1895.79 1422.31 1894.48 1424.58 Q1891.75 1429.3 1890.99 1430.92 L1889.64 1430.14 Q1891.14 1427.55 1889.81 1426.79 Q1889.32 1426.5 1887.93 1426.58 L1871.63 1427.75 L1873.51 1435.6 L1881.17 1440.02 Q1882.43 1440.75 1883.15 1440.45 Q1883.88 1440.13 1885.25 1437.76 L1885.85 1436.71 L1887.2 1437.49 Q1886.18 1438.95 1883.33 1443.89 Q1880.5 1448.79 1879.74 1450.41 Z" fill="#000000" fill-rule="nonzero" fill-opacity="1" /><path clip-path="url(#clip740)" d="M1899.81 1415.64 Q1899.02 1415.19 1898.82 1414.99 Q1898.64 1414.76 1898.47 1414.21 L1893.95 1400.39 Q1891.43 1392.81 1886.92 1390.2 Q1883.99 1388.51 1881 1388.84 Q1878.03 1389.15 1876.41 1391.95 Q1875.3 1393.87 1875.54 1396.18 Q1875.77 1398.48 1877.44 1400.44 Q1877.47 1400.29 1877.73 1399.84 Q1878.36 1398.75 1879.39 1398.55 Q1880.43 1398.32 1881.35 1398.85 Q1882.53 1399.53 1882.66 1400.64 Q1882.79 1401.71 1882.35 1402.45 Q1882.18 1402.75 1881.88 1403.12 Q1881.59 1403.47 1880.64 1403.75 Q1879.66 1404.01 1878.57 1403.38 Q1875.51 1401.61 1874.4 1397.89 Q1873.31 1394.15 1875.36 1390.6 Q1877.68 1386.58 1881.6 1385.33 Q1885.51 1384.05 1889.23 1386.2 Q1890.53 1386.95 1891.5 1388.05 Q1892.45 1389.12 1893.06 1390.18 Q1893.69 1391.23 1894.35 1393.49 Q1895.01 1395.75 1895.4 1397.49 Q1895.79 1399.23 1896.55 1403.06 L1898.38 1410.31 L1902.94 1402.42 Q1905.16 1398.57 1904.99 1398.07 Q1904.62 1397.28 1901.66 1394.86 L1902.3 1393.75 L1909.2 1399.38 L1899.81 1415.64 Z" fill="#000000" fill-rule="nonzero" fill-opacity="1" /><path clip-path="url(#clip740)" d="M1904.67 1390.52 L1903.33 1389.75 L1890.54 1364.42 Q1890.2 1363.77 1890.53 1363.25 Q1890.81 1362.75 1891.07 1362.76 Q1891.32 1362.76 1892.07 1363.19 L1912.01 1374.71 L1914.54 1370.32 L1915.89 1371.1 L1913.36 1375.48 L1917.16 1377.68 Q1918.43 1378.41 1919.13 1378.13 Q1919.84 1377.83 1921.15 1375.56 L1921.69 1374.65 L1923.03 1375.42 Q1921.87 1377.15 1919.47 1381.3 Q1917.09 1385.43 1916.18 1387.3 L1914.83 1386.52 L1915.36 1385.6 Q1916.67 1383.33 1916.59 1382.57 Q1916.5 1381.8 1915.21 1381.06 L1911.4 1378.86 L1904.67 1390.52 M1904.04 1388.51 L1910.21 1377.83 L1893.86 1368.39 L1904.04 1388.51 Z" fill="#000000" fill-rule="nonzero" fill-opacity="1" /><path clip-path="url(#clip740)" d="M1911.07 1364.18 Q1904.18 1360.2 1901.99 1354.26 Q1899.78 1348.31 1902.39 1343.79 Q1903.91 1341.16 1906.09 1340.48 Q1908.27 1339.77 1910.33 1340.96 Q1911.46 1341.61 1911.57 1342.56 Q1911.68 1343.51 1911.28 1344.19 Q1910.83 1344.99 1909.93 1345.3 Q1909.04 1345.61 1908.08 1345.05 Q1906.11 1343.92 1907.51 1341.5 Q1905.1 1341.62 1903.53 1344.34 Q1903.05 1345.17 1902.81 1346.18 Q1902.55 1347.17 1902.72 1348.75 Q1902.89 1350.33 1903.68 1351.93 Q1904.47 1353.52 1906.54 1355.52 Q1908.61 1357.51 1911.76 1359.33 L1912.81 1359.93 Q1909.5 1355.63 1911.65 1351.96 Q1913.77 1348.28 1918.04 1347.36 Q1922.32 1346.43 1926.47 1348.82 Q1930.72 1351.28 1932.02 1355.56 Q1933.31 1359.85 1931.16 1363.57 Q1930.2 1365.24 1928.61 1366.35 Q1927.06 1367.45 1924.67 1367.95 Q1922.28 1368.43 1918.76 1367.51 Q1915.24 1366.59 1911.07 1364.18 M1917.33 1362.43 Q1921.63 1364.91 1924.14 1365.31 Q1924.55 1365.38 1925.19 1365.37 Q1925.83 1365.34 1926.73 1365.21 Q1927.63 1365.04 1928.52 1364.44 Q1929.38 1363.83 1929.94 1362.87 Q1931.63 1359.94 1929.6 1356.88 Q1928.45 1355.22 1924.15 1352.74 Q1919.77 1350.2 1917.7 1350.07 Q1914.21 1349.85 1912.63 1352.59 Q1911.57 1354.43 1912.09 1356.44 Q1912.62 1358.43 1914.03 1359.9 Q1915.44 1361.34 1917.33 1362.43 Z" fill="#000000" fill-rule="nonzero" fill-opacity="1" /><path clip-path="url(#clip740)" d="M2114.65 1430.75 L2113.3 1429.97 L2113.97 1428.81 Q2115.39 1426.35 2115.33 1425.58 Q2115.25 1424.76 2113.97 1424.02 L2090.89 1410.69 Q2089.62 1409.97 2088.9 1410.32 Q2088.16 1410.66 2086.76 1413.1 L2086.09 1414.26 L2084.72 1413.47 Q2085.74 1412 2088.73 1406.82 Q2091.69 1401.69 2092.44 1400.1 L2093.81 1400.89 L2093.15 1402.02 Q2091.73 1404.48 2091.81 1405.29 Q2091.87 1406.07 2093.13 1406.8 L2116.22 1420.13 Q2117.48 1420.86 2118.21 1420.54 Q2118.95 1420.19 2120.37 1417.73 L2121.02 1416.6 L2122.37 1417.38 Q2121.35 1418.84 2118.38 1424 Q2115.41 1429.13 2114.65 1430.75 Z" fill="#000000" fill-rule="nonzero" fill-opacity="1" /><path clip-path="url(#clip740)" d="M2124.33 1413.97 Q2123.54 1413.52 2123.34 1413.32 Q2123.16 1413.1 2122.99 1412.54 L2118.48 1398.73 Q2115.95 1391.14 2111.44 1388.53 Q2108.51 1386.84 2105.52 1387.17 Q2102.55 1387.48 2100.93 1390.28 Q2099.82 1392.21 2100.06 1394.51 Q2100.3 1396.82 2101.96 1398.78 Q2101.99 1398.62 2102.25 1398.17 Q2102.88 1397.08 2103.91 1396.88 Q2104.95 1396.65 2105.87 1397.18 Q2107.05 1397.86 2107.18 1398.97 Q2107.31 1400.04 2106.88 1400.79 Q2106.7 1401.09 2106.4 1401.45 Q2106.12 1401.8 2105.16 1402.08 Q2104.18 1402.34 2103.09 1401.71 Q2100.03 1399.94 2098.93 1396.22 Q2097.83 1392.48 2099.88 1388.93 Q2102.21 1384.91 2106.12 1383.66 Q2110.03 1382.38 2113.75 1384.53 Q2115.06 1385.28 2116.02 1386.38 Q2116.97 1387.45 2117.58 1388.51 Q2118.21 1389.56 2118.87 1391.82 Q2119.53 1394.09 2119.92 1395.82 Q2120.32 1397.56 2121.07 1401.39 L2122.91 1408.64 L2127.46 1400.75 Q2129.69 1396.9 2129.52 1396.4 Q2129.14 1395.61 2126.18 1393.19 L2126.82 1392.08 L2133.72 1397.72 L2124.33 1413.97 Z" fill="#000000" fill-rule="nonzero" fill-opacity="1" /><path clip-path="url(#clip740)" d="M2129.92 1387.99 Q2128.62 1387.24 2128.53 1386.25 Q2128.43 1385.25 2128.86 1384.5 Q2129.44 1383.49 2130.42 1383.28 Q2131.38 1383.04 2132.26 1383.55 Q2133.14 1384.06 2133.43 1385.03 Q2133.72 1385.96 2133.14 1386.97 Q2132.85 1387.46 2132.62 1387.67 Q2134.96 1388.25 2137.43 1387.34 Q2139.91 1386.4 2141.26 1384.07 Q2142.95 1381.14 2141.12 1377.74 Q2139.88 1375.63 2135.71 1373.22 Q2132.03 1371.1 2129.74 1370.83 Q2126.23 1370.43 2124.78 1372.93 Q2122.73 1376.48 2124.58 1380.34 Q2124.82 1380.82 2124.67 1381.14 Q2124.42 1381.56 2124.12 1381.53 Q2123.82 1381.47 2123.15 1381.09 L2110.19 1373.6 Q2109.14 1373 2109.39 1372.57 Q2109.49 1372.4 2109.83 1372.11 Q2112.64 1370.05 2114.43 1367.01 Q2116.24 1363.86 2116.59 1360.3 Q2116.58 1360.01 2116.66 1359.88 Q2116.9 1359.45 2117.41 1359.72 Q2117.58 1359.81 2117.88 1360.47 Q2118.18 1361.1 2118.41 1362.23 Q2118.62 1363.35 2118.68 1364.67 Q2118.75 1365.99 2118.36 1367.65 Q2117.96 1369.28 2117.07 1370.82 Q2116.01 1372.66 2114.35 1374.21 L2122.88 1379.14 Q2121.97 1375.58 2123.87 1372.29 Q2125.9 1368.78 2130.12 1367.99 Q2134.34 1367.21 2138.27 1369.48 Q2142.4 1371.86 2143.57 1376.36 Q2144.75 1380.84 2142.53 1384.69 Q2140.5 1388.19 2136.71 1388.97 Q2132.94 1389.73 2129.92 1387.99 Z" fill="#000000" fill-rule="nonzero" fill-opacity="1" /><path clip-path="url(#clip740)" d="M2125.61 1354.01 L2124.24 1353.22 Q2127.28 1347.96 2126.04 1343.62 Q2126.48 1342.87 2126.72 1342.84 Q2126.97 1342.81 2127.76 1343.27 L2152.34 1357.46 Q2153.65 1358.22 2154.42 1357.81 Q2155.2 1357.4 2156.82 1354.6 L2157.62 1353.21 L2158.97 1353.99 Q2157.95 1355.45 2154.74 1361.02 Q2151.53 1366.58 2150.78 1368.17 L2149.43 1367.39 L2150.23 1366 Q2151.83 1363.24 2151.83 1362.36 Q2151.8 1361.46 2150.48 1360.69 L2127.78 1347.59 Q2127.61 1350.54 2125.61 1354.01 Z" fill="#000000" fill-rule="nonzero" fill-opacity="1" /><path clip-path="url(#clip740)" d="M1190.08 1528.55 L1190.08 1526.41 Q1193.78 1526.41 1194.63 1525.97 Q1195.52 1525.5 1195.52 1523.25 L1195.52 1504.61 Q1195.52 1502.02 1194.6 1501.38 Q1193.72 1500.73 1190.08 1500.73 L1190.08 1498.56 L1199.76 1497.81 L1199.76 1505.45 Q1200.75 1502.47 1202.82 1500.16 Q1204.93 1497.81 1208.32 1497.81 Q1210.56 1497.81 1211.99 1499.07 Q1213.45 1500.33 1213.45 1502.06 Q1213.45 1503.59 1212.5 1504.37 Q1211.58 1505.11 1210.46 1505.11 Q1209.21 1505.11 1208.32 1504.33 Q1207.47 1503.52 1207.47 1502.13 Q1207.47 1501.28 1207.85 1500.63 Q1208.25 1499.95 1208.56 1499.71 Q1208.87 1499.48 1209.07 1499.41 Q1208.93 1499.34 1208.32 1499.34 Q1204.48 1499.34 1202.28 1503.18 Q1200.1 1506.98 1200.1 1512.42 L1200.1 1523.12 Q1200.1 1525.12 1200.92 1525.77 Q1201.77 1526.41 1205.4 1526.41 L1206.86 1526.41 L1206.86 1528.55 Q1204.08 1528.35 1198.03 1528.35 Q1197.18 1528.35 1195.86 1528.38 Q1194.53 1528.42 1192.8 1528.48 Q1191.07 1528.55 1190.08 1528.55 Z" fill="#000000" fill-rule="nonzero" fill-opacity="1" /><path clip-path="url(#clip740)" d="M1217.26 1513.23 Q1217.26 1506.68 1221.47 1502.02 Q1225.68 1497.37 1231.73 1497.37 Q1237.84 1497.37 1241 1501.34 Q1244.19 1505.32 1244.19 1511.03 Q1244.19 1512.08 1243.92 1512.28 Q1243.65 1512.49 1242.46 1512.49 L1223.03 1512.49 Q1223.03 1519.58 1225.14 1522.91 Q1228.06 1527.57 1232.98 1527.57 Q1233.66 1527.57 1234.48 1527.43 Q1235.29 1527.3 1236.96 1526.72 Q1238.62 1526.11 1240.08 1524.51 Q1241.54 1522.91 1242.39 1520.4 Q1242.59 1519.42 1243.27 1519.45 Q1244.19 1519.45 1244.19 1520.26 Q1244.19 1520.88 1243.51 1522.27 Q1242.87 1523.63 1241.61 1525.26 Q1240.35 1526.89 1237.91 1528.11 Q1235.5 1529.33 1232.57 1529.33 Q1226.46 1529.33 1221.84 1524.71 Q1217.26 1520.06 1217.26 1513.23 M1223.1 1511.03 L1239.61 1511.03 Q1239.61 1509.56 1239.33 1507.93 Q1239.1 1506.3 1238.35 1504.06 Q1237.64 1501.79 1235.94 1500.36 Q1234.24 1498.93 1231.73 1498.93 Q1230.6 1498.93 1229.38 1499.41 Q1228.19 1499.88 1226.73 1501.04 Q1225.27 1502.19 1224.25 1504.81 Q1223.23 1507.42 1223.1 1511.03 Z" fill="#000000" fill-rule="nonzero" fill-opacity="1" /><path clip-path="url(#clip740)" d="M1248.51 1527.64 L1248.51 1518.46 Q1248.51 1517.68 1248.54 1517.41 Q1248.57 1517.14 1248.78 1516.94 Q1248.98 1516.73 1249.39 1516.73 Q1249.86 1516.73 1250.03 1516.94 Q1250.24 1517.14 1250.37 1517.92 Q1251.43 1522.71 1253.67 1525.26 Q1255.94 1527.77 1260.05 1527.77 Q1263.96 1527.77 1265.93 1526.04 Q1267.9 1524.31 1267.9 1521.45 Q1267.9 1516.36 1260.67 1515.07 Q1256.49 1514.22 1254.75 1513.67 Q1253.02 1513.1 1251.49 1511.84 Q1248.51 1509.39 1248.51 1505.93 Q1248.51 1502.47 1251.12 1499.92 Q1253.77 1497.37 1259.61 1497.37 Q1263.52 1497.37 1266.17 1499.34 Q1266.95 1498.73 1267.36 1498.22 Q1268.27 1497.37 1268.75 1497.37 Q1269.29 1497.37 1269.39 1497.74 Q1269.5 1498.08 1269.5 1499.07 L1269.5 1506.07 Q1269.5 1506.85 1269.46 1507.12 Q1269.43 1507.39 1269.22 1507.59 Q1269.02 1507.76 1268.58 1507.76 Q1267.8 1507.76 1267.76 1507.12 Q1267.22 1498.7 1259.61 1498.7 Q1255.5 1498.7 1253.67 1500.29 Q1251.83 1501.85 1251.83 1503.99 Q1251.83 1505.18 1252.38 1506.1 Q1252.95 1506.98 1253.67 1507.53 Q1254.42 1508.04 1255.77 1508.55 Q1257.13 1509.02 1257.95 1509.19 Q1258.8 1509.36 1260.39 1509.7 Q1265.96 1510.75 1268.31 1513.03 Q1271.23 1515.95 1271.23 1519.65 Q1271.23 1523.76 1268.44 1526.55 Q1265.66 1529.33 1260.05 1529.33 Q1255.54 1529.33 1252.38 1526.31 Q1251.97 1526.72 1251.66 1527.09 Q1251.36 1527.43 1251.22 1527.57 Q1251.12 1527.7 1251.09 1527.8 Q1251.05 1527.87 1250.98 1527.94 Q1249.59 1529.33 1249.25 1529.33 Q1248.71 1529.33 1248.61 1528.96 Q1248.51 1528.62 1248.51 1527.64 Z" fill="#000000" fill-rule="nonzero" fill-opacity="1" /><path clip-path="url(#clip740)" d="M1275.88 1528.55 L1275.88 1526.41 Q1279.58 1526.41 1280.43 1525.97 Q1281.28 1525.5 1281.28 1523.25 L1281.28 1504.54 Q1281.28 1501.96 1280.4 1501.34 Q1279.55 1500.73 1276.15 1500.73 L1276.15 1498.56 L1285.87 1497.81 L1285.87 1523.32 Q1285.87 1525.39 1286.62 1525.9 Q1287.36 1526.41 1290.76 1526.41 L1290.76 1528.55 Q1283.66 1528.35 1283.53 1528.35 Q1282.57 1528.35 1275.88 1528.55 M1278.8 1485.69 Q1278.8 1484.29 1279.86 1483.17 Q1280.94 1482.02 1282.47 1482.02 Q1284 1482.02 1285.09 1483.07 Q1286.17 1484.09 1286.17 1485.72 Q1286.17 1487.32 1285.09 1488.37 Q1284 1489.39 1282.47 1489.39 Q1280.88 1489.39 1279.82 1488.27 Q1278.8 1487.15 1278.8 1485.69 Z" fill="#000000" fill-rule="nonzero" fill-opacity="1" /><path clip-path="url(#clip740)" d="M1295.21 1513.61 Q1295.21 1506.98 1299.83 1502.4 Q1304.45 1497.81 1310.7 1497.81 Q1316 1497.81 1319.46 1502.13 L1319.46 1487.08 Q1319.46 1484.5 1318.55 1483.85 Q1317.66 1483.21 1314.06 1483.21 L1314.06 1481.03 L1324.08 1480.28 L1324.08 1522.51 Q1324.08 1525.09 1324.97 1525.77 Q1325.88 1526.41 1329.48 1526.41 L1329.48 1528.55 L1319.26 1529.33 L1319.26 1524.71 Q1315.66 1529.3 1309.95 1529.33 Q1303.97 1529.33 1299.59 1524.75 Q1295.21 1520.16 1295.21 1513.61 M1300.98 1513.67 Q1300.98 1520.13 1302.99 1523.32 Q1305.77 1527.77 1310.29 1527.77 Q1315.45 1527.77 1318.51 1522.91 Q1319.29 1521.72 1319.26 1520.33 L1319.26 1506.07 Q1319.26 1504.67 1318.51 1503.52 Q1315.66 1499.34 1311 1499.34 Q1306.15 1499.34 1303.12 1503.79 Q1300.98 1507.12 1300.98 1513.67 Z" fill="#000000" fill-rule="nonzero" fill-opacity="1" /><path clip-path="url(#clip740)" d="M1333.66 1500.73 L1333.66 1498.56 L1343.88 1497.81 L1343.88 1520.91 Q1343.88 1522.57 1344.02 1523.56 Q1344.16 1524.51 1344.7 1525.63 Q1345.28 1526.75 1346.57 1527.26 Q1347.89 1527.77 1350 1527.77 Q1353.77 1527.77 1356.08 1524.68 Q1358.42 1521.59 1358.42 1517 L1358.42 1504.61 Q1358.42 1502.02 1357.51 1501.38 Q1356.59 1500.73 1352.99 1500.73 L1352.99 1498.56 L1363.21 1497.81 L1363.21 1522.51 Q1363.21 1525.09 1364.1 1525.77 Q1365.01 1526.41 1368.65 1526.41 L1368.65 1528.55 L1358.63 1529.33 L1358.63 1523.05 Q1355.71 1529.3 1349.66 1529.33 Q1346.6 1529.33 1344.5 1528.55 Q1342.42 1527.77 1341.37 1526.82 Q1340.32 1525.83 1339.74 1523.97 Q1339.2 1522.1 1339.13 1520.94 Q1339.06 1519.79 1339.06 1517.55 L1339.06 1507.12 Q1339.06 1502.4 1338.38 1501.58 Q1337.7 1500.73 1333.66 1500.73 Z" fill="#000000" fill-rule="nonzero" fill-opacity="1" /><path clip-path="url(#clip740)" d="M1371.94 1513.23 Q1371.94 1506.68 1376.15 1502.02 Q1380.37 1497.37 1386.41 1497.37 Q1392.53 1497.37 1395.68 1501.34 Q1398.88 1505.32 1398.88 1511.03 Q1398.88 1512.08 1398.61 1512.28 Q1398.33 1512.49 1397.15 1512.49 L1377.72 1512.49 Q1377.72 1519.58 1379.82 1522.91 Q1382.74 1527.57 1387.67 1527.57 Q1388.35 1527.57 1389.16 1527.43 Q1389.98 1527.3 1391.64 1526.72 Q1393.31 1526.11 1394.77 1524.51 Q1396.23 1522.91 1397.08 1520.4 Q1397.28 1519.42 1397.96 1519.45 Q1398.88 1519.45 1398.88 1520.26 Q1398.88 1520.88 1398.2 1522.27 Q1397.55 1523.63 1396.3 1525.26 Q1395.04 1526.89 1392.59 1528.11 Q1390.18 1529.33 1387.26 1529.33 Q1381.15 1529.33 1376.53 1524.71 Q1371.94 1520.06 1371.94 1513.23 M1377.78 1511.03 L1394.29 1511.03 Q1394.29 1509.56 1394.02 1507.93 Q1393.78 1506.3 1393.04 1504.06 Q1392.32 1501.79 1390.62 1500.36 Q1388.93 1498.93 1386.41 1498.93 Q1385.29 1498.93 1384.07 1499.41 Q1382.88 1499.88 1381.42 1501.04 Q1379.96 1502.19 1378.94 1504.81 Q1377.92 1507.42 1377.78 1511.03 Z" fill="#000000" fill-rule="nonzero" fill-opacity="1" /><polyline clip-path="url(#clip740)" style="stroke:#000000; stroke-linecap:round; stroke-linejoin:round; stroke-width:4; stroke-opacity:1; fill:none" points="299.195,1313.19 299.195,110.236 "/>
<polyline clip-path="url(#clip740)" style="stroke:#000000; stroke-linecap:round; stroke-linejoin:round; stroke-width:4; stroke-opacity:1; fill:none" points="2289.76,1313.19 2289.76,110.236 "/>
<polyline clip-path="url(#clip740)" style="stroke:#000000; stroke-linecap:round; stroke-linejoin:round; stroke-width:4; stroke-opacity:1; fill:none" points="299.195,1279.14 318.093,1279.14 "/>
<polyline clip-path="url(#clip740)" style="stroke:#000000; stroke-linecap:round; stroke-linejoin:round; stroke-width:4; stroke-opacity:1; fill:none" points="299.195,995.426 318.093,995.426 "/>
<polyline clip-path="url(#clip740)" style="stroke:#000000; stroke-linecap:round; stroke-linejoin:round; stroke-width:4; stroke-opacity:1; fill:none" points="299.195,711.711 318.093,711.711 "/>
<polyline clip-path="url(#clip740)" style="stroke:#000000; stroke-linecap:round; stroke-linejoin:round; stroke-width:4; stroke-opacity:1; fill:none" points="299.195,427.997 318.093,427.997 "/>
<polyline clip-path="url(#clip740)" style="stroke:#000000; stroke-linecap:round; stroke-linejoin:round; stroke-width:4; stroke-opacity:1; fill:none" points="299.195,144.282 318.093,144.282 "/>
<polyline clip-path="url(#clip740)" style="stroke:#000000; stroke-linecap:round; stroke-linejoin:round; stroke-width:4; stroke-opacity:1; fill:none" points="2289.76,1279.14 2270.87,1279.14 "/>
<polyline clip-path="url(#clip740)" style="stroke:#000000; stroke-linecap:round; stroke-linejoin:round; stroke-width:4; stroke-opacity:1; fill:none" points="2289.76,995.426 2270.87,995.426 "/>
<polyline clip-path="url(#clip740)" style="stroke:#000000; stroke-linecap:round; stroke-linejoin:round; stroke-width:4; stroke-opacity:1; fill:none" points="2289.76,711.711 2270.87,711.711 "/>
<polyline clip-path="url(#clip740)" style="stroke:#000000; stroke-linecap:round; stroke-linejoin:round; stroke-width:4; stroke-opacity:1; fill:none" points="2289.76,427.997 2270.87,427.997 "/>
<polyline clip-path="url(#clip740)" style="stroke:#000000; stroke-linecap:round; stroke-linejoin:round; stroke-width:4; stroke-opacity:1; fill:none" points="2289.76,144.282 2270.87,144.282 "/>
<path clip-path="url(#clip740)" d="M177.252 1280.24 Q177.252 1272.8 179.13 1268.75 Q181.748 1262.73 187.924 1262.73 Q189.233 1262.73 190.592 1263.1 Q191.975 1263.44 193.705 1264.8 Q195.459 1266.16 196.521 1268.38 Q198.547 1272.68 198.547 1280.24 Q198.547 1287.63 196.669 1291.65 Q193.927 1297.53 187.875 1297.53 Q185.602 1297.53 183.28 1296.37 Q180.982 1295.21 179.525 1292.42 Q177.252 1288.24 177.252 1280.24 M181.452 1279.62 Q181.452 1287.26 181.995 1290.29 Q182.613 1293.58 184.293 1295.01 Q185.997 1296.42 187.875 1296.42 Q189.9 1296.42 191.58 1294.91 Q193.285 1293.38 193.804 1290.1 Q194.372 1286.86 194.347 1279.62 Q194.347 1272.58 193.853 1269.77 Q193.186 1266.48 191.407 1265.17 Q189.653 1263.84 187.875 1263.84 Q187.208 1263.84 186.491 1264.03 Q185.8 1264.23 184.787 1264.8 Q183.774 1265.37 182.983 1266.78 Q182.218 1268.18 181.847 1270.31 Q181.452 1273.05 181.452 1279.62 Z" fill="#000000" fill-rule="nonzero" fill-opacity="1" /><path clip-path="url(#clip740)" d="M205.636 1295.61 Q204.871 1294.79 204.871 1293.73 Q204.871 1292.67 205.636 1291.9 Q206.402 1291.11 207.563 1291.11 Q208.675 1291.11 209.416 1291.85 Q210.182 1292.57 210.182 1293.75 Q210.182 1294.91 209.367 1295.68 Q208.576 1296.42 207.563 1296.42 Q206.402 1296.42 205.636 1295.61 Z" fill="#000000" fill-rule="nonzero" fill-opacity="1" /><path clip-path="url(#clip740)" d="M216.605 1280.24 Q216.605 1272.8 218.482 1268.75 Q221.101 1262.73 227.277 1262.73 Q228.586 1262.73 229.945 1263.1 Q231.328 1263.44 233.057 1264.8 Q234.811 1266.16 235.873 1268.38 Q237.899 1272.68 237.899 1280.24 Q237.899 1287.63 236.022 1291.65 Q233.28 1297.53 227.227 1297.53 Q224.954 1297.53 222.632 1296.37 Q220.335 1295.21 218.877 1292.42 Q216.605 1288.24 216.605 1280.24 M220.804 1279.62 Q220.804 1287.26 221.348 1290.29 Q221.965 1293.58 223.645 1295.01 Q225.35 1296.42 227.227 1296.42 Q229.253 1296.42 230.933 1294.91 Q232.637 1293.38 233.156 1290.1 Q233.724 1286.86 233.699 1279.62 Q233.699 1272.58 233.205 1269.77 Q232.538 1266.48 230.76 1265.17 Q229.006 1263.84 227.227 1263.84 Q226.56 1263.84 225.844 1264.03 Q225.152 1264.23 224.139 1264.8 Q223.126 1265.37 222.336 1266.78 Q221.57 1268.18 221.2 1270.31 Q220.804 1273.05 220.804 1279.62 Z" fill="#000000" fill-rule="nonzero" fill-opacity="1" /><path clip-path="url(#clip740)" d="M241.901 1280.24 Q241.901 1272.8 243.778 1268.75 Q246.397 1262.73 252.573 1262.73 Q253.882 1262.73 255.241 1263.1 Q256.624 1263.44 258.353 1264.8 Q260.107 1266.16 261.17 1268.38 Q263.195 1272.68 263.195 1280.24 Q263.195 1287.63 261.318 1291.65 Q258.576 1297.53 252.523 1297.53 Q250.251 1297.53 247.929 1296.37 Q245.631 1295.21 244.174 1292.42 Q241.901 1288.24 241.901 1280.24 M246.101 1279.62 Q246.101 1287.26 246.644 1290.29 Q247.262 1293.58 248.941 1295.01 Q250.646 1296.42 252.523 1296.42 Q254.549 1296.42 256.229 1294.91 Q257.933 1293.38 258.452 1290.1 Q259.02 1286.86 258.996 1279.62 Q258.996 1272.58 258.502 1269.77 Q257.835 1266.48 256.056 1265.17 Q254.302 1263.84 252.523 1263.84 Q251.856 1263.84 251.14 1264.03 Q250.448 1264.23 249.436 1264.8 Q248.423 1265.37 247.632 1266.78 Q246.866 1268.18 246.496 1270.31 Q246.101 1273.05 246.101 1279.62 Z" fill="#000000" fill-rule="nonzero" fill-opacity="1" /><path clip-path="url(#clip740)" d="M177.796 996.525 Q177.796 989.09 179.673 985.038 Q182.292 979.011 188.468 979.011 Q189.777 979.011 191.136 979.381 Q192.519 979.727 194.248 981.086 Q196.002 982.445 197.064 984.668 Q199.09 988.966 199.09 996.525 Q199.09 1003.91 197.213 1007.94 Q194.471 1013.82 188.418 1013.82 Q186.145 1013.82 183.823 1012.66 Q181.526 1011.5 180.068 1008.7 Q177.796 1004.53 177.796 996.525 M181.995 995.908 Q181.995 1003.54 182.539 1006.58 Q183.156 1009.87 184.836 1011.3 Q186.541 1012.71 188.418 1012.71 Q190.444 1012.71 192.124 1011.2 Q193.828 1009.67 194.347 1006.38 Q194.915 1003.15 194.89 995.908 Q194.89 988.867 194.396 986.051 Q193.729 982.766 191.951 981.456 Q190.197 980.122 188.418 980.122 Q187.751 980.122 187.035 980.32 Q186.343 980.518 185.33 981.086 Q184.317 981.654 183.527 983.062 Q182.761 984.47 182.391 986.595 Q181.995 989.337 181.995 995.908 Z" fill="#000000" fill-rule="nonzero" fill-opacity="1" /><path clip-path="url(#clip740)" d="M206.18 1011.89 Q205.414 1011.08 205.414 1010.01 Q205.414 1008.95 206.18 1008.19 Q206.946 1007.39 208.107 1007.39 Q209.218 1007.39 209.96 1008.14 Q210.725 1008.85 210.725 1010.04 Q210.725 1011.2 209.91 1011.97 Q209.12 1012.71 208.107 1012.71 Q206.946 1012.71 206.18 1011.89 Z" fill="#000000" fill-rule="nonzero" fill-opacity="1" /><path clip-path="url(#clip740)" d="M217.692 1012.71 Q217.692 1011.79 217.766 1011.52 Q217.865 1011.25 218.26 1010.83 L227.968 1000.01 Q233.28 994.03 233.28 988.818 Q233.28 985.434 231.501 983.013 Q229.747 980.592 226.511 980.592 Q224.287 980.592 222.41 981.95 Q220.533 983.309 219.668 985.73 Q219.816 985.681 220.335 985.681 Q221.595 985.681 222.287 986.471 Q223.003 987.262 223.003 988.324 Q223.003 989.683 222.114 990.35 Q221.249 990.992 220.384 990.992 Q220.039 990.992 219.569 990.918 Q219.124 990.844 218.408 990.152 Q217.692 989.436 217.692 988.176 Q217.692 984.643 220.36 981.827 Q223.052 979.011 227.153 979.011 Q231.797 979.011 234.836 981.778 Q237.899 984.52 237.899 988.818 Q237.899 990.325 237.43 991.708 Q236.985 993.067 236.367 994.129 Q235.775 995.191 234.144 996.896 Q232.514 998.601 231.204 999.811 Q229.895 1001.02 226.955 1003.59 L221.595 1008.8 L230.71 1008.8 Q235.157 1008.8 235.503 1008.41 Q235.997 1007.69 236.614 1003.91 L237.899 1003.91 L236.466 1012.71 L217.692 1012.71 Z" fill="#000000" fill-rule="nonzero" fill-opacity="1" /><path clip-path="url(#clip740)" d="M242.988 1004.55 Q242.988 1003.05 243.803 1002.48 Q244.618 1001.89 245.483 1001.89 Q246.644 1001.89 247.311 1002.63 Q248.003 1003.34 248.003 1004.36 Q248.003 1005.37 247.311 1006.11 Q246.644 1006.83 245.483 1006.83 Q244.915 1006.83 244.618 1006.73 Q245.285 1009.05 247.311 1010.73 Q249.361 1012.41 252.054 1012.41 Q255.438 1012.41 257.464 1009.12 Q258.675 1007 258.675 1002.18 Q258.675 997.934 257.761 995.809 Q256.352 992.573 253.462 992.573 Q249.361 992.573 246.94 996.106 Q246.644 996.55 246.298 996.575 Q245.804 996.575 245.681 996.303 Q245.582 996.007 245.582 995.241 L245.582 980.271 Q245.582 979.06 246.076 979.06 Q246.273 979.06 246.693 979.208 Q249.88 980.617 253.413 980.641 Q257.044 980.641 260.305 979.159 Q260.552 979.011 260.7 979.011 Q261.194 979.011 261.219 979.579 Q261.219 979.777 260.799 980.369 Q260.404 980.938 259.539 981.703 Q258.675 982.445 257.563 983.161 Q256.451 983.877 254.821 984.371 Q253.215 984.841 251.436 984.841 Q249.312 984.841 247.138 984.174 L247.138 994.03 Q249.757 991.461 253.561 991.461 Q257.612 991.461 260.404 994.722 Q263.195 997.983 263.195 1002.53 Q263.195 1007.3 259.885 1010.56 Q256.599 1013.82 252.153 1013.82 Q248.102 1013.82 245.532 1010.93 Q242.988 1008.04 242.988 1004.55 Z" fill="#000000" fill-rule="nonzero" fill-opacity="1" /><path clip-path="url(#clip740)" d="M177.252 712.811 Q177.252 705.375 179.13 701.324 Q181.748 695.296 187.924 695.296 Q189.233 695.296 190.592 695.667 Q191.975 696.012 193.705 697.371 Q195.459 698.73 196.521 700.953 Q198.547 705.252 198.547 712.811 Q198.547 720.197 196.669 724.224 Q193.927 730.103 187.875 730.103 Q185.602 730.103 183.28 728.942 Q180.982 727.781 179.525 724.99 Q177.252 720.815 177.252 712.811 M181.452 712.193 Q181.452 719.826 181.995 722.865 Q182.613 726.151 184.293 727.583 Q185.997 728.991 187.875 728.991 Q189.9 728.991 191.58 727.485 Q193.285 725.953 193.804 722.667 Q194.372 719.431 194.347 712.193 Q194.347 705.153 193.853 702.337 Q193.186 699.051 191.407 697.742 Q189.653 696.408 187.875 696.408 Q187.208 696.408 186.491 696.605 Q185.8 696.803 184.787 697.371 Q183.774 697.939 182.983 699.347 Q182.218 700.756 181.847 702.88 Q181.452 705.622 181.452 712.193 Z" fill="#000000" fill-rule="nonzero" fill-opacity="1" /><path clip-path="url(#clip740)" d="M205.636 728.176 Q204.871 727.361 204.871 726.299 Q204.871 725.237 205.636 724.471 Q206.402 723.68 207.563 723.68 Q208.675 723.68 209.416 724.421 Q210.182 725.138 210.182 726.323 Q210.182 727.485 209.367 728.25 Q208.576 728.991 207.563 728.991 Q206.402 728.991 205.636 728.176 Z" fill="#000000" fill-rule="nonzero" fill-opacity="1" /><path clip-path="url(#clip740)" d="M217.148 720.839 Q217.148 719.332 217.963 718.764 Q218.779 718.171 219.643 718.171 Q220.804 718.171 221.471 718.912 Q222.163 719.629 222.163 720.642 Q222.163 721.655 221.471 722.396 Q220.804 723.112 219.643 723.112 Q219.075 723.112 218.779 723.013 Q219.446 725.335 221.471 727.015 Q223.522 728.695 226.214 728.695 Q229.599 728.695 231.624 725.409 Q232.835 723.285 232.835 718.468 Q232.835 714.219 231.921 712.094 Q230.513 708.858 227.622 708.858 Q223.522 708.858 221.101 712.391 Q220.804 712.835 220.458 712.86 Q219.964 712.86 219.841 712.588 Q219.742 712.292 219.742 711.526 L219.742 696.556 Q219.742 695.345 220.236 695.345 Q220.434 695.345 220.854 695.494 Q224.04 696.902 227.573 696.926 Q231.204 696.926 234.465 695.444 Q234.712 695.296 234.861 695.296 Q235.355 695.296 235.379 695.864 Q235.379 696.062 234.959 696.655 Q234.564 697.223 233.699 697.989 Q232.835 698.73 231.723 699.446 Q230.612 700.163 228.981 700.657 Q227.375 701.126 225.597 701.126 Q223.472 701.126 221.298 700.459 L221.298 710.316 Q223.917 707.747 227.721 707.747 Q231.773 707.747 234.564 711.007 Q237.356 714.268 237.356 718.814 Q237.356 723.581 234.045 726.842 Q230.76 730.103 226.313 730.103 Q222.262 730.103 219.693 727.213 Q217.148 724.323 217.148 720.839 Z" fill="#000000" fill-rule="nonzero" fill-opacity="1" /><path clip-path="url(#clip740)" d="M241.901 712.811 Q241.901 705.375 243.778 701.324 Q246.397 695.296 252.573 695.296 Q253.882 695.296 255.241 695.667 Q256.624 696.012 258.353 697.371 Q260.107 698.73 261.17 700.953 Q263.195 705.252 263.195 712.811 Q263.195 720.197 261.318 724.224 Q258.576 730.103 252.523 730.103 Q250.251 730.103 247.929 728.942 Q245.631 727.781 244.174 724.99 Q241.901 720.815 241.901 712.811 M246.101 712.193 Q246.101 719.826 246.644 722.865 Q247.262 726.151 248.941 727.583 Q250.646 728.991 252.523 728.991 Q254.549 728.991 256.229 727.485 Q257.933 725.953 258.452 722.667 Q259.02 719.431 258.996 712.193 Q258.996 705.153 258.502 702.337 Q257.835 699.051 256.056 697.742 Q254.302 696.408 252.523 696.408 Q251.856 696.408 251.14 696.605 Q250.448 696.803 249.436 697.371 Q248.423 697.939 247.632 699.347 Q246.866 700.756 246.496 702.88 Q246.101 705.622 246.101 712.193 Z" fill="#000000" fill-rule="nonzero" fill-opacity="1" /><path clip-path="url(#clip740)" d="M177.796 429.096 Q177.796 421.66 179.673 417.609 Q182.292 411.581 188.468 411.581 Q189.777 411.581 191.136 411.952 Q192.519 412.298 194.248 413.656 Q196.002 415.015 197.064 417.238 Q199.09 421.537 199.09 429.096 Q199.09 436.482 197.213 440.509 Q194.471 446.388 188.418 446.388 Q186.145 446.388 183.823 445.227 Q181.526 444.066 180.068 441.275 Q177.796 437.1 177.796 429.096 M181.995 428.478 Q181.995 436.112 182.539 439.15 Q183.156 442.436 184.836 443.869 Q186.541 445.277 188.418 445.277 Q190.444 445.277 192.124 443.77 Q193.828 442.238 194.347 438.953 Q194.915 435.717 194.89 428.478 Q194.89 421.438 194.396 418.622 Q193.729 415.336 191.951 414.027 Q190.197 412.693 188.418 412.693 Q187.751 412.693 187.035 412.891 Q186.343 413.088 185.33 413.656 Q184.317 414.225 183.527 415.633 Q182.761 417.041 182.391 419.165 Q181.995 421.907 181.995 428.478 Z" fill="#000000" fill-rule="nonzero" fill-opacity="1" /><path clip-path="url(#clip740)" d="M206.18 444.462 Q205.414 443.646 205.414 442.584 Q205.414 441.522 206.18 440.756 Q206.946 439.965 208.107 439.965 Q209.218 439.965 209.96 440.707 Q210.725 441.423 210.725 442.609 Q210.725 443.77 209.91 444.536 Q209.12 445.277 208.107 445.277 Q206.946 445.277 206.18 444.462 Z" fill="#000000" fill-rule="nonzero" fill-opacity="1" /><path clip-path="url(#clip740)" d="M218.013 421.487 L219.668 411.087 L220.928 411.087 Q221.076 411.705 221.323 411.977 Q221.595 412.248 223.028 412.471 Q224.485 412.693 227.425 412.693 L239.702 412.693 Q239.702 413.854 239.258 414.472 L232.415 424.081 Q230.241 427.12 229.278 432.727 Q228.709 436.482 228.734 441.028 L228.734 443.597 Q228.734 446.388 226.387 446.388 Q224.065 446.388 224.065 443.597 Q224.065 433.938 230.29 424.575 Q230.957 423.612 233.403 420.178 Q235.873 416.744 235.972 416.596 L225.498 416.596 Q220.903 416.596 220.533 416.893 Q220.039 417.337 219.273 421.487 L218.013 421.487 Z" fill="#000000" fill-rule="nonzero" fill-opacity="1" /><path clip-path="url(#clip740)" d="M242.988 437.125 Q242.988 435.618 243.803 435.05 Q244.618 434.457 245.483 434.457 Q246.644 434.457 247.311 435.198 Q248.003 435.914 248.003 436.927 Q248.003 437.94 247.311 438.681 Q246.644 439.397 245.483 439.397 Q244.915 439.397 244.618 439.299 Q245.285 441.621 247.311 443.3 Q249.361 444.98 252.054 444.98 Q255.438 444.98 257.464 441.695 Q258.675 439.57 258.675 434.753 Q258.675 430.504 257.761 428.38 Q256.352 425.143 253.462 425.143 Q249.361 425.143 246.94 428.676 Q246.644 429.121 246.298 429.145 Q245.804 429.145 245.681 428.874 Q245.582 428.577 245.582 427.811 L245.582 412.841 Q245.582 411.631 246.076 411.631 Q246.273 411.631 246.693 411.779 Q249.88 413.187 253.413 413.212 Q257.044 413.212 260.305 411.73 Q260.552 411.581 260.7 411.581 Q261.194 411.581 261.219 412.15 Q261.219 412.347 260.799 412.94 Q260.404 413.508 259.539 414.274 Q258.675 415.015 257.563 415.731 Q256.451 416.448 254.821 416.942 Q253.215 417.411 251.436 417.411 Q249.312 417.411 247.138 416.744 L247.138 426.601 Q249.757 424.032 253.561 424.032 Q257.612 424.032 260.404 427.293 Q263.195 430.554 263.195 435.099 Q263.195 439.867 259.885 443.128 Q256.599 446.388 252.153 446.388 Q248.102 446.388 245.532 443.498 Q242.988 440.608 242.988 437.125 Z" fill="#000000" fill-rule="nonzero" fill-opacity="1" /><path clip-path="url(#clip740)" d="M179.772 132.684 L179.772 131.103 Q185.849 131.103 188.986 127.867 Q189.851 127.867 189.999 128.064 Q190.147 128.262 190.147 129.176 L190.147 157.56 Q190.147 159.067 190.889 159.536 Q191.63 160.006 194.866 160.006 L196.471 160.006 L196.471 161.562 Q194.693 161.414 188.27 161.414 Q181.847 161.414 180.093 161.562 L180.093 160.006 L181.699 160.006 Q184.886 160.006 185.651 159.561 Q186.417 159.092 186.417 157.56 L186.417 131.35 Q183.774 132.684 179.772 132.684 Z" fill="#000000" fill-rule="nonzero" fill-opacity="1" /><path clip-path="url(#clip740)" d="M205.636 160.747 Q204.871 159.932 204.871 158.869 Q204.871 157.807 205.636 157.041 Q206.402 156.251 207.563 156.251 Q208.675 156.251 209.416 156.992 Q210.182 157.708 210.182 158.894 Q210.182 160.055 209.367 160.821 Q208.576 161.562 207.563 161.562 Q206.402 161.562 205.636 160.747 Z" fill="#000000" fill-rule="nonzero" fill-opacity="1" /><path clip-path="url(#clip740)" d="M216.605 145.381 Q216.605 137.946 218.482 133.894 Q221.101 127.867 227.277 127.867 Q228.586 127.867 229.945 128.237 Q231.328 128.583 233.057 129.942 Q234.811 131.3 235.873 133.524 Q237.899 137.822 237.899 145.381 Q237.899 152.768 236.022 156.794 Q233.28 162.674 227.227 162.674 Q224.954 162.674 222.632 161.513 Q220.335 160.352 218.877 157.56 Q216.605 153.385 216.605 145.381 M220.804 144.764 Q220.804 152.397 221.348 155.436 Q221.965 158.721 223.645 160.154 Q225.35 161.562 227.227 161.562 Q229.253 161.562 230.933 160.055 Q232.637 158.523 233.156 155.238 Q233.724 152.002 233.699 144.764 Q233.699 137.723 233.205 134.907 Q232.538 131.622 230.76 130.312 Q229.006 128.978 227.227 128.978 Q226.56 128.978 225.844 129.176 Q225.152 129.374 224.139 129.942 Q223.126 130.51 222.336 131.918 Q221.57 133.326 221.2 135.451 Q220.804 138.193 220.804 144.764 Z" fill="#000000" fill-rule="nonzero" fill-opacity="1" /><path clip-path="url(#clip740)" d="M241.901 145.381 Q241.901 137.946 243.778 133.894 Q246.397 127.867 252.573 127.867 Q253.882 127.867 255.241 128.237 Q256.624 128.583 258.353 129.942 Q260.107 131.3 261.17 133.524 Q263.195 137.822 263.195 145.381 Q263.195 152.768 261.318 156.794 Q258.576 162.674 252.523 162.674 Q250.251 162.674 247.929 161.513 Q245.631 160.352 244.174 157.56 Q241.901 153.385 241.901 145.381 M246.101 144.764 Q246.101 152.397 246.644 155.436 Q247.262 158.721 248.941 160.154 Q250.646 161.562 252.523 161.562 Q254.549 161.562 256.229 160.055 Q257.933 158.523 258.452 155.238 Q259.02 152.002 258.996 144.764 Q258.996 137.723 258.502 134.907 Q257.835 131.622 256.056 130.312 Q254.302 128.978 252.523 128.978 Q251.856 128.978 251.14 129.176 Q250.448 129.374 249.436 129.942 Q248.423 130.51 247.632 131.918 Q246.866 133.326 246.496 135.451 Q246.101 138.193 246.101 144.764 Z" fill="#000000" fill-rule="nonzero" fill-opacity="1" /><path clip-path="url(#clip740)" d="M126.996 928.558 L124.856 928.558 Q124.856 924.855 124.415 924.006 Q123.939 923.157 121.697 923.157 L85.5224 923.157 Q82.9409 923.157 82.2956 924.074 Q81.6502 924.957 81.6502 928.558 L79.4763 928.558 L78.729 918.571 L102.914 918.571 L102.914 918.503 Q100.4 917.382 98.328 914.869 Q96.256 912.355 96.256 908.483 Q96.256 903.252 98.8375 901.18 Q100.57 899.652 102.506 899.346 Q104.442 899.006 109.469 899.006 L122.75 899.006 Q124.211 898.938 124.551 897.817 Q124.856 896.696 124.856 893.571 L126.996 893.571 Q126.792 900.671 126.792 901.384 Q126.792 901.927 126.996 909.23 L124.856 909.23 Q124.856 905.528 124.415 904.679 Q123.939 903.796 121.697 903.796 L105.495 903.796 Q101.963 903.796 99.8905 904.882 Q97.7846 905.969 97.7846 908.959 Q97.7846 912.559 100.808 915.446 Q103.831 918.333 108.926 918.333 L121.697 918.333 Q123.939 918.333 124.415 917.484 Q124.856 916.601 124.856 912.933 L126.996 912.933 Q126.792 920.032 126.792 920.711 Q126.792 921.255 126.996 928.558 Z" fill="#000000" fill-rule="nonzero" fill-opacity="1" /><path clip-path="url(#clip740)" d="M111.677 890.277 Q105.121 890.277 100.468 886.065 Q95.8145 881.853 95.8145 875.807 Q95.8145 869.693 99.7886 866.534 Q103.763 863.341 109.469 863.341 Q110.522 863.341 110.726 863.612 Q110.93 863.884 110.93 865.073 L110.93 884.502 Q118.029 884.502 121.358 882.396 Q126.011 879.475 126.011 874.55 Q126.011 873.87 125.875 873.055 Q125.74 872.24 125.162 870.576 Q124.551 868.911 122.954 867.451 Q121.358 865.99 118.844 865.141 Q117.859 864.937 117.893 864.258 Q117.893 863.341 118.708 863.341 Q119.32 863.341 120.712 864.02 Q122.071 864.665 123.701 865.922 Q125.332 867.179 126.555 869.625 Q127.778 872.036 127.778 874.957 Q127.778 881.072 123.158 885.691 Q118.505 890.277 111.677 890.277 M109.469 884.434 L109.469 867.926 Q108.009 867.926 106.378 868.198 Q104.748 868.436 102.506 869.183 Q100.23 869.896 98.8036 871.595 Q97.377 873.293 97.377 875.807 Q97.377 876.928 97.8525 878.15 Q98.328 879.339 99.4829 880.8 Q100.638 882.26 103.253 883.279 Q105.869 884.298 109.469 884.434 Z" fill="#000000" fill-rule="nonzero" fill-opacity="1" /><path clip-path="url(#clip740)" d="M126.996 859.027 L124.856 859.027 Q124.856 855.324 124.415 854.475 Q123.939 853.626 121.697 853.626 L85.5224 853.626 Q82.9409 853.626 82.2956 854.543 Q81.6502 855.426 81.6502 859.027 L79.4763 859.027 L78.729 849.041 L121.697 849.041 Q123.939 849.041 124.415 848.157 Q124.856 847.274 124.856 843.606 L126.996 843.606 Q126.996 844.455 126.928 846.221 Q126.86 847.988 126.826 849.278 Q126.792 850.569 126.792 851.316 Q126.792 852.132 126.996 859.027 Z" fill="#000000" fill-rule="nonzero" fill-opacity="1" /><path clip-path="url(#clip740)" d="M126.996 839.767 L124.856 839.767 Q124.856 836.065 124.415 835.216 Q123.939 834.367 121.697 834.367 L102.982 834.367 Q100.4 834.367 99.7886 835.25 Q99.1772 836.099 99.1772 839.496 L97.0033 839.496 L96.256 829.781 L121.765 829.781 Q123.837 829.781 124.347 829.034 Q124.856 828.287 124.856 824.89 L126.996 824.89 Q126.792 831.989 126.792 832.125 Q126.792 833.076 126.996 839.767 M84.1298 836.846 Q82.7371 836.846 81.6162 835.793 Q80.4613 834.706 80.4613 833.178 Q80.4613 831.649 81.5143 830.562 Q82.5333 829.475 84.1637 829.475 Q85.7602 829.475 86.8132 830.562 Q87.8322 831.649 87.8322 833.178 Q87.8322 834.774 86.7113 835.827 Q85.5904 836.846 84.1298 836.846 Z" fill="#000000" fill-rule="nonzero" fill-opacity="1" /><path clip-path="url(#clip740)" d="M123.192 816.024 Q118.572 820.44 111.983 820.44 Q105.359 820.44 100.604 816.092 Q95.8145 811.745 95.8145 805.359 Q95.8145 801.113 97.8525 797.92 Q99.8566 794.727 103.287 794.727 Q104.816 794.727 105.699 795.644 Q106.548 796.527 106.548 797.92 Q106.548 799.381 105.665 800.264 Q104.748 801.113 103.355 801.113 Q102.744 801.113 102.132 800.909 Q101.521 800.705 100.876 799.958 Q100.23 799.177 100.128 797.852 Q97.5808 800.332 97.5808 805.155 Q97.5808 805.223 97.5808 805.291 Q97.5808 808.823 100.91 811.745 Q104.238 814.666 111.847 814.666 Q115.821 814.666 118.742 813.715 Q121.629 812.73 123.124 811.133 Q124.619 809.537 125.332 807.974 Q126.011 806.412 126.011 804.883 Q126.011 798.056 118.708 795.746 Q118.029 795.542 118.029 794.863 Q118.029 793.946 118.708 793.946 Q119.048 793.946 119.931 794.218 Q120.814 794.489 122.207 795.338 Q123.6 796.188 124.822 797.41 Q126.011 798.599 126.894 800.739 Q127.778 802.845 127.778 805.495 Q127.778 811.609 123.192 816.024 Z" fill="#000000" fill-rule="nonzero" fill-opacity="1" /><path clip-path="url(#clip740)" d="M120.373 789.021 Q114.462 789.021 111.337 782.057 Q109.333 777.879 108.824 769.252 L106.276 769.252 Q101.963 769.252 99.6867 771.528 Q97.377 773.769 97.377 776.623 Q97.377 781.718 100.57 784.163 Q100.638 782.091 101.691 781.344 Q102.71 780.597 103.763 780.597 Q105.155 780.597 106.073 781.48 Q106.956 782.329 106.956 783.79 Q106.956 785.182 106.107 786.099 Q105.223 787.017 103.695 787.017 Q100.298 787.017 98.0563 783.96 Q95.8145 780.868 95.8145 776.487 Q95.8145 770.78 99.6528 766.976 Q100.842 765.787 102.37 765.21 Q103.899 764.598 104.918 764.53 Q105.903 764.462 107.873 764.462 L121.765 764.462 Q122.173 764.462 122.852 764.327 Q123.532 764.191 124.415 763.579 Q125.264 762.934 125.264 761.881 Q125.264 759.367 120.814 759.401 L116.908 759.401 L116.908 757.635 L120.814 757.635 Q124.517 757.635 125.977 759.605 Q127.404 761.541 127.404 763.341 Q127.404 765.651 125.706 767.112 Q124.007 768.572 121.697 768.776 Q124.347 769.829 126.079 772.241 Q127.778 774.619 127.778 777.879 Q127.778 780.393 127.132 782.771 Q126.521 785.114 124.788 787.084 Q123.022 789.021 120.373 789.021 M120.305 783.654 Q122.886 783.654 124.551 781.82 Q126.215 779.985 126.215 777.404 Q126.215 774.483 123.973 771.867 Q121.697 769.252 117.248 769.252 L110.284 769.252 Q110.556 776.962 113.647 780.325 Q116.704 783.654 120.305 783.654 Z" fill="#000000" fill-rule="nonzero" fill-opacity="1" /><path clip-path="url(#clip740)" d="M126.996 754.85 L124.856 754.85 Q124.856 751.147 124.415 750.298 Q123.939 749.449 121.697 749.449 L85.5224 749.449 Q82.9409 749.449 82.2956 750.366 Q81.6502 751.249 81.6502 754.85 L79.4763 754.85 L78.729 744.863 L121.697 744.863 Q123.939 744.863 124.415 743.98 Q124.856 743.097 124.856 739.429 L126.996 739.429 Q126.996 740.278 126.928 742.044 Q126.86 743.81 126.826 745.101 Q126.792 746.392 126.792 747.139 Q126.792 747.954 126.996 754.85 Z" fill="#000000" fill-rule="nonzero" fill-opacity="1" /><path clip-path="url(#clip740)" d="M123.192 707.975 Q118.572 712.391 111.983 712.391 Q105.359 712.391 100.604 708.043 Q95.8145 703.695 95.8145 697.309 Q95.8145 693.063 97.8525 689.871 Q99.8566 686.678 103.287 686.678 Q104.816 686.678 105.699 687.595 Q106.548 688.478 106.548 689.871 Q106.548 691.331 105.665 692.214 Q104.748 693.063 103.355 693.063 Q102.744 693.063 102.132 692.86 Q101.521 692.656 100.876 691.909 Q100.23 691.127 100.128 689.803 Q97.5808 692.282 97.5808 697.106 Q97.5808 697.174 97.5808 697.241 Q97.5808 700.774 100.91 703.695 Q104.238 706.616 111.847 706.616 Q115.821 706.616 118.742 705.665 Q121.629 704.68 123.124 703.084 Q124.619 701.487 125.332 699.925 Q126.011 698.362 126.011 696.834 Q126.011 690.006 118.708 687.697 Q118.029 687.493 118.029 686.814 Q118.029 685.896 118.708 685.896 Q119.048 685.896 119.931 686.168 Q120.814 686.44 122.207 687.289 Q123.6 688.138 124.822 689.361 Q126.011 690.55 126.894 692.69 Q127.778 694.796 127.778 697.445 Q127.778 703.559 123.192 707.975 Z" fill="#000000" fill-rule="nonzero" fill-opacity="1" /><path clip-path="url(#clip740)" d="M123.26 677.371 Q118.708 681.956 112.119 681.956 Q105.495 681.956 100.672 677.473 Q95.8145 672.955 95.8145 666.501 Q95.8145 660.183 100.638 655.666 Q105.427 651.114 112.119 651.114 Q118.674 651.114 123.226 655.7 Q127.778 660.251 127.778 666.569 Q127.778 672.751 123.26 677.371 M111.541 676.182 Q118.301 676.182 121.358 674.416 Q126.011 671.698 126.011 666.501 Q126.011 663.92 124.619 661.78 Q123.226 659.606 120.882 658.417 Q117.825 656.889 111.541 656.889 Q104.85 656.889 101.895 658.723 Q97.377 661.44 97.377 666.569 Q97.377 668.811 98.5658 671.019 Q99.7207 673.193 102.03 674.517 Q105.087 676.182 111.541 676.182 Z" fill="#000000" fill-rule="nonzero" fill-opacity="1" /><path clip-path="url(#clip740)" d="M126.996 646.868 L124.856 646.868 Q124.856 643.166 124.415 642.317 Q123.939 641.467 121.697 641.467 L103.049 641.467 Q100.468 641.467 99.8226 642.385 Q99.1772 643.268 99.1772 646.868 L97.0033 646.868 L96.256 637.086 L103.559 637.086 Q96.256 633.825 96.256 626.794 Q96.256 621.563 98.8375 619.491 Q100.57 617.962 102.506 617.656 Q104.442 617.317 109.469 617.317 L122.75 617.317 Q124.211 617.249 124.551 616.128 Q124.856 615.007 124.856 611.882 L126.996 611.882 Q126.792 618.981 126.792 619.695 Q126.792 620.238 126.996 627.541 L124.856 627.541 Q124.856 623.839 124.415 622.989 Q123.939 622.106 121.697 622.106 L105.495 622.106 Q101.963 622.106 99.8905 623.193 Q97.7846 624.28 97.7846 627.269 Q97.7846 630.87 100.808 633.757 Q103.831 636.644 108.926 636.644 L121.697 636.644 Q123.939 636.644 124.415 635.795 Q124.856 634.912 124.856 631.243 L126.996 631.243 Q126.792 638.342 126.792 639.022 Q126.792 639.565 126.996 646.868 Z" fill="#000000" fill-rule="nonzero" fill-opacity="1" /><path clip-path="url(#clip740)" d="M99.1772 611.135 L97.6487 611.135 Q97.5128 607.942 95.271 605.836 Q92.9952 603.696 90.2099 602.983 Q87.4246 602.235 84.1977 602.167 L84.1977 600.435 L97.0033 600.435 L97.0033 590.483 L99.1772 590.483 L99.1772 600.435 L118.505 600.435 Q126.011 600.435 126.011 595.748 Q126.011 593.744 123.973 592.419 Q121.901 591.094 118.233 591.094 L114.394 591.094 L114.394 589.362 L118.369 589.362 Q122.139 589.362 124.958 591.094 Q127.778 592.827 127.778 596.257 Q127.778 597.514 127.438 598.771 Q127.132 599.994 126.317 601.624 Q125.468 603.22 123.43 604.239 Q121.358 605.225 118.369 605.225 L99.1772 605.225 L99.1772 611.135 Z" fill="#000000" fill-rule="nonzero" fill-opacity="1" /><path clip-path="url(#clip740)" d="M111.677 583.554 Q105.121 583.554 100.468 579.342 Q95.8145 575.13 95.8145 569.084 Q95.8145 562.969 99.7886 559.81 Q103.763 556.618 109.469 556.618 Q110.522 556.618 110.726 556.889 Q110.93 557.161 110.93 558.35 L110.93 577.779 Q118.029 577.779 121.358 575.673 Q126.011 572.752 126.011 567.827 Q126.011 567.147 125.875 566.332 Q125.74 565.517 125.162 563.853 Q124.551 562.188 122.954 560.728 Q121.358 559.267 118.844 558.418 Q117.859 558.214 117.893 557.535 Q117.893 556.618 118.708 556.618 Q119.32 556.618 120.712 557.297 Q122.071 557.942 123.701 559.199 Q125.332 560.456 126.555 562.901 Q127.778 565.313 127.778 568.234 Q127.778 574.348 123.158 578.968 Q118.505 583.554 111.677 583.554 M109.469 577.711 L109.469 561.203 Q108.009 561.203 106.378 561.475 Q104.748 561.713 102.506 562.46 Q100.23 563.173 98.8036 564.872 Q97.377 566.57 97.377 569.084 Q97.377 570.204 97.8525 571.427 Q98.328 572.616 99.4829 574.077 Q100.638 575.537 103.253 576.556 Q105.869 577.575 109.469 577.711 Z" fill="#000000" fill-rule="nonzero" fill-opacity="1" /><path clip-path="url(#clip740)" d="M126.996 552.372 L124.856 552.372 Q124.856 548.669 124.415 547.82 Q123.939 546.971 121.697 546.971 L103.049 546.971 Q100.468 546.971 99.8226 547.888 Q99.1772 548.771 99.1772 552.372 L97.0033 552.372 L96.256 542.589 L103.559 542.589 Q96.256 539.328 96.256 532.297 Q96.256 527.066 98.8375 524.994 Q100.57 523.466 102.506 523.16 Q104.442 522.82 109.469 522.82 L122.75 522.82 Q124.211 522.752 124.551 521.631 Q124.856 520.511 124.856 517.386 L126.996 517.386 Q126.792 524.485 126.792 525.198 Q126.792 525.741 126.996 533.044 L124.856 533.044 Q124.856 529.342 124.415 528.493 Q123.939 527.61 121.697 527.61 L105.495 527.61 Q101.963 527.61 99.8905 528.697 Q97.7846 529.784 97.7846 532.773 Q97.7846 536.373 100.808 539.26 Q103.831 542.148 108.926 542.148 L121.697 542.148 Q123.939 542.148 124.415 541.298 Q124.856 540.415 124.856 536.747 L126.996 536.747 Q126.792 543.846 126.792 544.525 Q126.792 545.069 126.996 552.372 Z" fill="#000000" fill-rule="nonzero" fill-opacity="1" /><path clip-path="url(#clip740)" d="M99.1772 516.638 L97.6487 516.638 Q97.5128 513.445 95.271 511.339 Q92.9952 509.199 90.2099 508.486 Q87.4246 507.739 84.1977 507.671 L84.1977 505.939 L97.0033 505.939 L97.0033 495.986 L99.1772 495.986 L99.1772 505.939 L118.505 505.939 Q126.011 505.939 126.011 501.251 Q126.011 499.247 123.973 497.922 Q121.901 496.598 118.233 496.598 L114.394 496.598 L114.394 494.865 L118.369 494.865 Q122.139 494.865 124.958 496.598 Q127.778 498.33 127.778 501.761 Q127.778 503.017 127.438 504.274 Q127.132 505.497 126.317 507.127 Q125.468 508.724 123.43 509.743 Q121.358 510.728 118.369 510.728 L99.1772 510.728 L99.1772 516.638 Z" fill="#000000" fill-rule="nonzero" fill-opacity="1" /><polyline clip-path="url(#clip742)" style="stroke:#009af9; stroke-linecap:round; stroke-linejoin:round; stroke-width:8; stroke-opacity:1; fill:none" points="355.532,1279.14 400.244,1279.14 444.956,1279.14 489.667,1279.14 534.379,1279.14 579.091,1279.14 623.803,1279.14 668.515,1279.14 713.226,1279.14 757.938,1279.14 802.65,371.254 847.362,144.282 892.073,144.282 936.785,144.282 981.497,144.282 1026.21,144.282 1070.92,144.282 1115.63,144.282 1160.34,144.282 1205.06,144.282 1249.77,144.282 1294.48,144.282 1339.19,144.282 1383.9,144.282 1428.61,144.282 1473.33,144.282 1518.04,144.282 1562.75,144.282 1607.46,144.282 1652.17,144.282 1696.89,144.282 1741.6,144.282 1786.31,144.282 1831.02,144.282 1875.73,144.282 1920.44,144.282 1965.16,825.197 2009.87,1279.14 2054.58,1279.14 2099.29,1279.14 2144,1279.14 2188.72,1279.14 2233.43,1279.14 "/>
</svg>
