<svg xmlns="http://www.w3.org/2000/svg" xmlns:xlink="http://www.w3.org/1999/xlink" width="400" height="300" viewBox="0 0 1600 1200">
<defs>
  <clipPath id="clip550">
    <rect x="0" y="0" width="1600" height="1200"></rect>
  </clipPath>
</defs>
<path clip-path="url(#clip550)" d="
M0 1200 L1600 1200 L1600 0 L0 0  Z
  " fill="#ffffff" fill-rule="evenodd" fill-opacity="1"></path>
<defs>
  <clipPath id="clip551">
    <rect x="320" y="0" width="1121" height="1121"></rect>
  </clipPath>
</defs>
<path clip-path="url(#clip550)" d="
M272.407 1016.92 L1489.76 1016.92 L1489.76 47.2441 L272.407 47.2441  Z
  " fill="#ffffff" fill-rule="evenodd" fill-opacity="1"></path>
<defs>
  <clipPath id="clip552">
    <rect x="272" y="47" width="1218" height="971"></rect>
  </clipPath>
</defs>
<polyline clip-path="url(#clip552)" style="stroke:#000000; stroke-linecap:butt; stroke-linejoin:round; stroke-width:2; stroke-opacity:0.1; fill:none" points="
  447.708,1016.92 447.708,47.2441 
  "></polyline>
<polyline clip-path="url(#clip552)" style="stroke:#000000; stroke-linecap:butt; stroke-linejoin:round; stroke-width:2; stroke-opacity:0.1; fill:none" points="
  664.397,1016.92 664.397,47.2441 
  "></polyline>
<polyline clip-path="url(#clip552)" style="stroke:#000000; stroke-linecap:butt; stroke-linejoin:round; stroke-width:2; stroke-opacity:0.1; fill:none" points="
  881.085,1016.92 881.085,47.2441 
  "></polyline>
<polyline clip-path="url(#clip552)" style="stroke:#000000; stroke-linecap:butt; stroke-linejoin:round; stroke-width:2; stroke-opacity:0.1; fill:none" points="
  1097.77,1016.92 1097.77,47.2441 
  "></polyline>
<polyline clip-path="url(#clip552)" style="stroke:#000000; stroke-linecap:butt; stroke-linejoin:round; stroke-width:2; stroke-opacity:0.1; fill:none" points="
  1314.46,1016.92 1314.46,47.2441 
  "></polyline>
<polyline clip-path="url(#clip550)" style="stroke:#000000; stroke-linecap:butt; stroke-linejoin:round; stroke-width:4; stroke-opacity:1; fill:none" points="
  272.407,1016.92 1489.76,1016.92 
  "></polyline>
<polyline clip-path="url(#clip550)" style="stroke:#000000; stroke-linecap:butt; stroke-linejoin:round; stroke-width:4; stroke-opacity:1; fill:none" points="
  272.407,47.2441 1489.76,47.2441 
  "></polyline>
<polyline clip-path="url(#clip550)" style="stroke:#000000; stroke-linecap:butt; stroke-linejoin:round; stroke-width:4; stroke-opacity:1; fill:none" points="
  447.708,1016.92 447.708,998.022 
  "></polyline>
<polyline clip-path="url(#clip550)" style="stroke:#000000; stroke-linecap:butt; stroke-linejoin:round; stroke-width:4; stroke-opacity:1; fill:none" points="
  664.397,1016.92 664.397,998.022 
  "></polyline>
<polyline clip-path="url(#clip550)" style="stroke:#000000; stroke-linecap:butt; stroke-linejoin:round; stroke-width:4; stroke-opacity:1; fill:none" points="
  881.085,1016.92 881.085,998.022 
  "></polyline>
<polyline clip-path="url(#clip550)" style="stroke:#000000; stroke-linecap:butt; stroke-linejoin:round; stroke-width:4; stroke-opacity:1; fill:none" points="
  1097.77,1016.92 1097.77,998.022 
  "></polyline>
<polyline clip-path="url(#clip550)" style="stroke:#000000; stroke-linecap:butt; stroke-linejoin:round; stroke-width:4; stroke-opacity:1; fill:none" points="
  1314.46,1016.92 1314.46,998.022 
  "></polyline>
<path clip-path="url(#clip550)" d="M451.488 1059.56 Q451.784 1059.85 451.784 1060.27 Q451.784 1060.69 451.488 1060.99 Q451.191 1061.28 450.772 1061.28 L419.102 1061.28 Q418.682 1061.28 418.385 1060.99 Q418.089 1060.69 418.089 1060.27 Q418.089 1059.85 418.385 1059.56 Q418.682 1059.26 419.102 1059.26 L450.772 1059.26 Q451.191 1059.26 451.488 1059.56 Z" fill="#000000" fill-rule="evenodd" fill-opacity="1"></path><path clip-path="url(#clip550)" d="M457.12 1072.92 Q457.12 1072.01 457.194 1071.73 Q457.293 1071.46 457.688 1071.04 L467.397 1060.22 Q472.708 1054.24 472.708 1049.03 Q472.708 1045.65 470.929 1043.23 Q469.176 1040.81 465.939 1040.81 Q463.716 1040.81 461.839 1042.16 Q459.961 1043.52 459.097 1045.94 Q459.245 1045.89 459.764 1045.89 Q461.023 1045.89 461.715 1046.68 Q462.431 1047.48 462.431 1048.54 Q462.431 1049.9 461.542 1050.56 Q460.678 1051.21 459.813 1051.21 Q459.467 1051.21 458.998 1051.13 Q458.553 1051.06 457.837 1050.37 Q457.12 1049.65 457.12 1048.39 Q457.12 1044.86 459.788 1042.04 Q462.481 1039.22 466.582 1039.22 Q471.226 1039.22 474.264 1041.99 Q477.328 1044.73 477.328 1049.03 Q477.328 1050.54 476.858 1051.92 Q476.414 1053.28 475.796 1054.34 Q475.203 1055.41 473.573 1057.11 Q471.942 1058.81 470.633 1060.02 Q469.324 1061.24 466.384 1063.8 L461.023 1069.02 L470.139 1069.02 Q474.586 1069.02 474.931 1068.62 Q475.425 1067.91 476.043 1064.13 L477.328 1064.13 L475.895 1072.92 L457.12 1072.92 Z" fill="#000000" fill-rule="evenodd" fill-opacity="1"></path><path clip-path="url(#clip550)" d="M668.942 1059.56 Q669.239 1059.85 669.239 1060.27 Q669.239 1060.69 668.942 1060.99 Q668.646 1061.28 668.226 1061.28 L636.556 1061.28 Q636.136 1061.28 635.84 1060.99 Q635.543 1060.69 635.543 1060.27 Q635.543 1059.85 635.84 1059.56 Q636.136 1059.26 636.556 1059.26 L668.226 1059.26 Q668.646 1059.26 668.942 1059.56 Z" fill="#000000" fill-rule="evenodd" fill-opacity="1"></path><path clip-path="url(#clip550)" d="M676.551 1044.04 L676.551 1042.46 Q682.628 1042.46 685.765 1039.22 Q686.63 1039.22 686.778 1039.42 Q686.926 1039.62 686.926 1040.53 L686.926 1068.92 Q686.926 1070.42 687.667 1070.89 Q688.409 1071.36 691.645 1071.36 L693.25 1071.36 L693.25 1072.92 Q691.472 1072.77 685.049 1072.77 Q678.626 1072.77 676.872 1072.92 L676.872 1071.36 L678.478 1071.36 Q681.665 1071.36 682.43 1070.92 Q683.196 1070.45 683.196 1068.92 L683.196 1042.71 Q680.553 1044.04 676.551 1044.04 Z" fill="#000000" fill-rule="evenodd" fill-opacity="1"></path><path clip-path="url(#clip550)" d="M870.438 1056.74 Q870.438 1049.3 872.316 1045.25 Q874.934 1039.22 881.11 1039.22 Q882.419 1039.22 883.778 1039.6 Q885.162 1039.94 886.891 1041.3 Q888.645 1042.66 889.707 1044.88 Q891.733 1049.18 891.733 1056.74 Q891.733 1064.13 889.855 1068.15 Q887.113 1074.03 881.061 1074.03 Q878.788 1074.03 876.466 1072.87 Q874.169 1071.71 872.711 1068.92 Q870.438 1064.74 870.438 1056.74 M874.638 1056.12 Q874.638 1063.75 875.181 1066.79 Q875.799 1070.08 877.479 1071.51 Q879.183 1072.92 881.061 1072.92 Q883.086 1072.92 884.766 1071.41 Q886.471 1069.88 886.99 1066.6 Q887.558 1063.36 887.533 1056.12 Q887.533 1049.08 887.039 1046.26 Q886.372 1042.98 884.593 1041.67 Q882.839 1040.34 881.061 1040.34 Q880.394 1040.34 879.677 1040.53 Q878.986 1040.73 877.973 1041.3 Q876.96 1041.87 876.17 1043.28 Q875.404 1044.68 875.033 1046.81 Q874.638 1049.55 874.638 1056.12 Z" fill="#000000" fill-rule="evenodd" fill-opacity="1"></path><path clip-path="url(#clip550)" d="M1089.42 1044.04 L1089.42 1042.46 Q1095.5 1042.46 1098.64 1039.22 Q1099.5 1039.22 1099.65 1039.42 Q1099.8 1039.62 1099.8 1040.53 L1099.8 1068.92 Q1099.8 1070.42 1100.54 1070.89 Q1101.28 1071.36 1104.52 1071.36 L1106.12 1071.36 L1106.12 1072.92 Q1104.35 1072.77 1097.92 1072.77 Q1091.5 1072.77 1089.75 1072.92 L1089.75 1071.36 L1091.35 1071.36 Q1094.54 1071.36 1095.3 1070.92 Q1096.07 1070.45 1096.07 1068.92 L1096.07 1042.71 Q1093.43 1044.04 1089.42 1044.04 Z" fill="#000000" fill-rule="evenodd" fill-opacity="1"></path><path clip-path="url(#clip550)" d="M1304.36 1072.92 Q1304.36 1072.01 1304.43 1071.73 Q1304.53 1071.46 1304.93 1071.04 L1314.64 1060.22 Q1319.95 1054.24 1319.95 1049.03 Q1319.95 1045.65 1318.17 1043.23 Q1316.41 1040.81 1313.18 1040.81 Q1310.95 1040.81 1309.08 1042.16 Q1307.2 1043.52 1306.34 1045.94 Q1306.48 1045.89 1307 1045.89 Q1308.26 1045.89 1308.95 1046.68 Q1309.67 1047.48 1309.67 1048.54 Q1309.67 1049.9 1308.78 1050.56 Q1307.92 1051.21 1307.05 1051.21 Q1306.71 1051.21 1306.24 1051.13 Q1305.79 1051.06 1305.08 1050.37 Q1304.36 1049.65 1304.36 1048.39 Q1304.36 1044.86 1307.03 1042.04 Q1309.72 1039.22 1313.82 1039.22 Q1318.46 1039.22 1321.5 1041.99 Q1324.57 1044.73 1324.57 1049.03 Q1324.57 1050.54 1324.1 1051.92 Q1323.65 1053.28 1323.03 1054.34 Q1322.44 1055.41 1320.81 1057.11 Q1319.18 1058.81 1317.87 1060.02 Q1316.56 1061.24 1313.62 1063.8 L1308.26 1069.02 L1317.38 1069.02 Q1321.82 1069.02 1322.17 1068.62 Q1322.66 1067.91 1323.28 1064.13 L1324.57 1064.13 L1323.13 1072.92 L1304.36 1072.92 Z" fill="#000000" fill-rule="evenodd" fill-opacity="1"></path><path clip-path="url(#clip550)" d="M803.64 1121.96 L803.64 1119.79 Q806.765 1119.99 810.4 1119.99 Q811.725 1119.99 817.975 1119.79 L817.975 1121.96 Q814 1121.96 814 1123.77 Q814 1124.04 814.408 1124.95 L822.22 1144.35 L829.32 1126.62 Q829.727 1125.43 829.727 1124.95 Q829.727 1123.77 828.912 1122.92 Q828.131 1122.03 826.398 1121.96 L826.398 1119.79 Q829.931 1119.99 832.445 1119.99 Q835.298 1119.99 837.642 1119.79 L837.642 1121.96 Q835.57 1121.96 834.109 1122.92 Q832.648 1123.83 832.173 1124.65 Q831.731 1125.43 831.256 1126.62 L822.153 1149.24 Q821.609 1150.57 820.692 1150.57 Q820.081 1150.57 819.809 1150.29 Q819.571 1150.06 819.231 1149.24 L809.211 1124.55 Q808.532 1122.81 807.649 1122.41 Q806.765 1121.96 803.64 1121.96 Z" fill="#000000" fill-rule="evenodd" fill-opacity="1"></path><path clip-path="url(#clip550)" d="M839.951 1143.16 Q839.951 1137.25 846.915 1134.13 Q851.093 1132.12 859.72 1131.61 L859.72 1129.06 Q859.72 1124.75 857.444 1122.47 Q855.203 1120.16 852.349 1120.16 Q847.254 1120.16 844.809 1123.36 Q846.881 1123.43 847.628 1124.48 Q848.375 1125.5 848.375 1126.55 Q848.375 1127.94 847.492 1128.86 Q846.643 1129.74 845.182 1129.74 Q843.79 1129.74 842.872 1128.89 Q841.955 1128.01 841.955 1126.48 Q841.955 1123.09 845.012 1120.84 Q848.103 1118.6 852.485 1118.6 Q858.192 1118.6 861.996 1122.44 Q863.185 1123.63 863.762 1125.16 Q864.374 1126.69 864.442 1127.71 Q864.51 1128.69 864.51 1130.66 L864.51 1144.55 Q864.51 1144.96 864.645 1145.64 Q864.781 1146.32 865.393 1147.2 Q866.038 1148.05 867.091 1148.05 Q869.605 1148.05 869.571 1143.6 L869.571 1139.7 L871.337 1139.7 L871.337 1143.6 Q871.337 1147.3 869.367 1148.76 Q867.431 1150.19 865.63 1150.19 Q863.321 1150.19 861.86 1148.49 Q860.4 1146.79 860.196 1144.48 Q859.143 1147.13 856.731 1148.87 Q854.353 1150.57 851.093 1150.57 Q848.579 1150.57 846.201 1149.92 Q843.858 1149.31 841.887 1147.58 Q839.951 1145.81 839.951 1143.16 M845.318 1143.09 Q845.318 1145.67 847.152 1147.34 Q848.987 1149 851.568 1149 Q854.489 1149 857.105 1146.76 Q859.72 1144.48 859.72 1140.04 L859.72 1133.07 Q852.01 1133.34 848.647 1136.43 Q845.318 1139.49 845.318 1143.09 Z" fill="#000000" fill-rule="evenodd" fill-opacity="1"></path><path clip-path="url(#clip550)" d="M874.122 1149.78 L874.122 1147.64 Q877.825 1147.64 878.674 1147.2 Q879.523 1146.73 879.523 1144.48 L879.523 1108.31 Q879.523 1105.73 878.606 1105.08 Q877.723 1104.44 874.122 1104.44 L874.122 1102.26 L884.109 1101.52 L884.109 1144.48 Q884.109 1146.73 884.992 1147.2 Q885.875 1147.64 889.543 1147.64 L889.543 1149.78 Q888.694 1149.78 886.928 1149.72 Q885.162 1149.65 883.871 1149.61 Q882.58 1149.58 881.833 1149.58 Q881.018 1149.58 874.122 1149.78 Z" fill="#000000" fill-rule="evenodd" fill-opacity="1"></path><path clip-path="url(#clip550)" d="M893.314 1121.96 L893.314 1119.79 L903.538 1119.04 L903.538 1142.14 Q903.538 1143.81 903.674 1144.79 Q903.809 1145.74 904.353 1146.86 Q904.93 1147.98 906.221 1148.49 Q907.546 1149 909.652 1149 Q913.422 1149 915.732 1145.91 Q918.076 1142.82 918.076 1138.24 L918.076 1125.84 Q918.076 1123.26 917.159 1122.61 Q916.241 1121.96 912.641 1121.96 L912.641 1119.79 L922.865 1119.04 L922.865 1143.74 Q922.865 1146.32 923.748 1147 Q924.665 1147.64 928.3 1147.64 L928.3 1149.78 L918.279 1150.57 L918.279 1144.28 Q915.358 1150.53 909.312 1150.57 Q906.255 1150.57 904.149 1149.78 Q902.077 1149 901.024 1148.05 Q899.971 1147.07 899.394 1145.2 Q898.85 1143.33 898.782 1142.18 Q898.714 1141.02 898.714 1138.78 L898.714 1128.35 Q898.714 1123.63 898.035 1122.81 Q897.356 1121.96 893.314 1121.96 Z" fill="#000000" fill-rule="evenodd" fill-opacity="1"></path><path clip-path="url(#clip550)" d="M931.595 1134.46 Q931.595 1127.91 935.807 1123.26 Q940.018 1118.6 946.065 1118.6 Q952.179 1118.6 955.338 1122.58 Q958.531 1126.55 958.531 1132.26 Q958.531 1133.31 958.259 1133.51 Q957.987 1133.72 956.798 1133.72 L937.369 1133.72 Q937.369 1140.82 939.475 1144.15 Q942.396 1148.8 947.321 1148.8 Q948.001 1148.8 948.816 1148.66 Q949.631 1148.53 951.296 1147.95 Q952.96 1147.34 954.421 1145.74 Q955.881 1144.15 956.73 1141.63 Q956.934 1140.65 957.613 1140.68 Q958.531 1140.68 958.531 1141.5 Q958.531 1142.11 957.851 1143.5 Q957.206 1144.86 955.949 1146.49 Q954.692 1148.12 952.247 1149.34 Q949.835 1150.57 946.914 1150.57 Q940.8 1150.57 936.18 1145.95 Q931.595 1141.29 931.595 1134.46 M937.437 1132.26 L953.945 1132.26 Q953.945 1130.8 953.673 1129.17 Q953.435 1127.54 952.688 1125.29 Q951.975 1123.02 950.277 1121.59 Q948.578 1120.16 946.065 1120.16 Q944.944 1120.16 943.721 1120.64 Q942.532 1121.12 941.071 1122.27 Q939.611 1123.43 938.592 1126.04 Q937.573 1128.66 937.437 1132.26 Z" fill="#000000" fill-rule="evenodd" fill-opacity="1"></path><polyline clip-path="url(#clip552)" style="stroke:#000000; stroke-linecap:butt; stroke-linejoin:round; stroke-width:2; stroke-opacity:0.1; fill:none" points="
  272.407,989.476 1489.76,989.476 
  "></polyline>
<polyline clip-path="url(#clip552)" style="stroke:#000000; stroke-linecap:butt; stroke-linejoin:round; stroke-width:2; stroke-opacity:0.1; fill:none" points="
  272.407,815.468 1489.76,815.468 
  "></polyline>
<polyline clip-path="url(#clip552)" style="stroke:#000000; stroke-linecap:butt; stroke-linejoin:round; stroke-width:2; stroke-opacity:0.1; fill:none" points="
  272.407,641.46 1489.76,641.46 
  "></polyline>
<polyline clip-path="url(#clip552)" style="stroke:#000000; stroke-linecap:butt; stroke-linejoin:round; stroke-width:2; stroke-opacity:0.1; fill:none" points="
  272.407,467.452 1489.76,467.452 
  "></polyline>
<polyline clip-path="url(#clip552)" style="stroke:#000000; stroke-linecap:butt; stroke-linejoin:round; stroke-width:2; stroke-opacity:0.1; fill:none" points="
  272.407,293.444 1489.76,293.444 
  "></polyline>
<polyline clip-path="url(#clip552)" style="stroke:#000000; stroke-linecap:butt; stroke-linejoin:round; stroke-width:2; stroke-opacity:0.1; fill:none" points="
  272.407,119.436 1489.76,119.436 
  "></polyline>
<polyline clip-path="url(#clip550)" style="stroke:#000000; stroke-linecap:butt; stroke-linejoin:round; stroke-width:4; stroke-opacity:1; fill:none" points="
  272.407,1016.92 272.407,47.2441 
  "></polyline>
<polyline clip-path="url(#clip550)" style="stroke:#000000; stroke-linecap:butt; stroke-linejoin:round; stroke-width:4; stroke-opacity:1; fill:none" points="
  1489.76,1016.92 1489.76,47.2441 
  "></polyline>
<polyline clip-path="url(#clip550)" style="stroke:#000000; stroke-linecap:butt; stroke-linejoin:round; stroke-width:4; stroke-opacity:1; fill:none" points="
  272.407,989.476 291.305,989.476 
  "></polyline>
<polyline clip-path="url(#clip550)" style="stroke:#000000; stroke-linecap:butt; stroke-linejoin:round; stroke-width:4; stroke-opacity:1; fill:none" points="
  272.407,815.468 291.305,815.468 
  "></polyline>
<polyline clip-path="url(#clip550)" style="stroke:#000000; stroke-linecap:butt; stroke-linejoin:round; stroke-width:4; stroke-opacity:1; fill:none" points="
  272.407,641.46 291.305,641.46 
  "></polyline>
<polyline clip-path="url(#clip550)" style="stroke:#000000; stroke-linecap:butt; stroke-linejoin:round; stroke-width:4; stroke-opacity:1; fill:none" points="
  272.407,467.452 291.305,467.452 
  "></polyline>
<polyline clip-path="url(#clip550)" style="stroke:#000000; stroke-linecap:butt; stroke-linejoin:round; stroke-width:4; stroke-opacity:1; fill:none" points="
  272.407,293.444 291.305,293.444 
  "></polyline>
<polyline clip-path="url(#clip550)" style="stroke:#000000; stroke-linecap:butt; stroke-linejoin:round; stroke-width:4; stroke-opacity:1; fill:none" points="
  272.407,119.436 291.305,119.436 
  "></polyline>
<path clip-path="url(#clip550)" d="M187.76 990.575 Q187.76 983.14 189.638 979.088 Q192.256 973.061 198.432 973.061 Q199.742 973.061 201.1 973.431 Q202.484 973.777 204.213 975.136 Q205.967 976.495 207.029 978.718 Q209.055 983.016 209.055 990.575 Q209.055 997.962 207.177 1001.99 Q204.435 1007.87 198.383 1007.87 Q196.11 1007.87 193.788 1006.71 Q191.491 1005.55 190.033 1002.75 Q187.76 998.579 187.76 990.575 M191.96 989.958 Q191.96 997.591 192.504 1000.63 Q193.121 1003.92 194.801 1005.35 Q196.505 1006.76 198.383 1006.76 Q200.409 1006.76 202.088 1005.25 Q203.793 1003.72 204.312 1000.43 Q204.88 997.196 204.855 989.958 Q204.855 982.917 204.361 980.101 Q203.694 976.816 201.915 975.506 Q200.162 974.172 198.383 974.172 Q197.716 974.172 197 974.37 Q196.308 974.568 195.295 975.136 Q194.282 975.704 193.492 977.112 Q192.726 978.52 192.355 980.645 Q191.96 983.387 191.96 989.958 Z" fill="#000000" fill-rule="evenodd" fill-opacity="1"></path><path clip-path="url(#clip550)" d="M216.145 1005.94 Q215.379 1005.13 215.379 1004.06 Q215.379 1003 216.145 1002.24 Q216.91 1001.44 218.071 1001.44 Q219.183 1001.44 219.924 1002.19 Q220.69 1002.9 220.69 1004.09 Q220.69 1005.25 219.875 1006.02 Q219.084 1006.76 218.071 1006.76 Q216.91 1006.76 216.145 1005.94 Z" fill="#000000" fill-rule="evenodd" fill-opacity="1"></path><path clip-path="url(#clip550)" d="M227.113 990.575 Q227.113 983.14 228.99 979.088 Q231.609 973.061 237.785 973.061 Q239.094 973.061 240.453 973.431 Q241.836 973.777 243.565 975.136 Q245.319 976.495 246.382 978.718 Q248.407 983.016 248.407 990.575 Q248.407 997.962 246.53 1001.99 Q243.788 1007.87 237.735 1007.87 Q235.463 1007.87 233.141 1006.71 Q230.843 1005.55 229.386 1002.75 Q227.113 998.579 227.113 990.575 M231.312 989.958 Q231.312 997.591 231.856 1000.63 Q232.474 1003.92 234.153 1005.35 Q235.858 1006.76 237.735 1006.76 Q239.761 1006.76 241.441 1005.25 Q243.145 1003.72 243.664 1000.43 Q244.232 997.196 244.208 989.958 Q244.208 982.917 243.714 980.101 Q243.047 976.816 241.268 975.506 Q239.514 974.172 237.735 974.172 Q237.068 974.172 236.352 974.37 Q235.66 974.568 234.647 975.136 Q233.635 975.704 232.844 977.112 Q232.078 978.52 231.708 980.645 Q231.312 983.387 231.312 989.958 Z" fill="#000000" fill-rule="evenodd" fill-opacity="1"></path><path clip-path="url(#clip550)" d="M189.836 816.567 Q189.836 809.132 191.713 805.08 Q194.332 799.053 200.507 799.053 Q201.817 799.053 203.175 799.423 Q204.559 799.769 206.288 801.128 Q208.042 802.486 209.104 804.71 Q211.13 809.008 211.13 816.567 Q211.13 823.954 209.252 827.98 Q206.51 833.86 200.458 833.86 Q198.185 833.86 195.863 832.699 Q193.566 831.538 192.108 828.746 Q189.836 824.571 189.836 816.567 M194.035 815.95 Q194.035 823.583 194.579 826.622 Q195.196 829.907 196.876 831.34 Q198.581 832.748 200.458 832.748 Q202.484 832.748 204.163 831.241 Q205.868 829.71 206.387 826.424 Q206.955 823.188 206.93 815.95 Q206.93 808.909 206.436 806.093 Q205.769 802.808 203.991 801.498 Q202.237 800.164 200.458 800.164 Q199.791 800.164 199.075 800.362 Q198.383 800.56 197.37 801.128 Q196.357 801.696 195.567 803.104 Q194.801 804.512 194.43 806.637 Q194.035 809.379 194.035 815.95 Z" fill="#000000" fill-rule="evenodd" fill-opacity="1"></path><path clip-path="url(#clip550)" d="M218.22 831.933 Q217.454 831.118 217.454 830.055 Q217.454 828.993 218.22 828.227 Q218.986 827.437 220.147 827.437 Q221.258 827.437 221.999 828.178 Q222.765 828.894 222.765 830.08 Q222.765 831.241 221.95 832.007 Q221.159 832.748 220.147 832.748 Q218.986 832.748 218.22 831.933 Z" fill="#000000" fill-rule="evenodd" fill-opacity="1"></path><path clip-path="url(#clip550)" d="M231.708 803.87 L231.708 802.289 Q237.785 802.289 240.922 799.053 Q241.787 799.053 241.935 799.25 Q242.083 799.448 242.083 800.362 L242.083 828.746 Q242.083 830.253 242.824 830.722 Q243.565 831.192 246.801 831.192 L248.407 831.192 L248.407 832.748 Q246.629 832.6 240.206 832.6 Q233.783 832.6 232.029 832.748 L232.029 831.192 L233.635 831.192 Q236.821 831.192 237.587 830.747 Q238.353 830.278 238.353 828.746 L238.353 802.536 Q235.71 803.87 231.708 803.87 Z" fill="#000000" fill-rule="evenodd" fill-opacity="1"></path><path clip-path="url(#clip550)" d="M188.304 642.559 Q188.304 635.124 190.181 631.072 Q192.8 625.045 198.976 625.045 Q200.285 625.045 201.644 625.415 Q203.027 625.761 204.756 627.12 Q206.51 628.478 207.573 630.702 Q209.598 635 209.598 642.559 Q209.598 649.946 207.721 653.972 Q204.979 659.852 198.926 659.852 Q196.654 659.852 194.332 658.691 Q192.034 657.529 190.577 654.738 Q188.304 650.563 188.304 642.559 M192.504 641.942 Q192.504 649.575 193.047 652.614 Q193.665 655.899 195.344 657.332 Q197.049 658.74 198.926 658.74 Q200.952 658.74 202.632 657.233 Q204.336 655.701 204.855 652.416 Q205.423 649.18 205.399 641.942 Q205.399 634.901 204.905 632.085 Q204.238 628.799 202.459 627.49 Q200.705 626.156 198.926 626.156 Q198.259 626.156 197.543 626.354 Q196.851 626.551 195.838 627.12 Q194.826 627.688 194.035 629.096 Q193.269 630.504 192.899 632.629 Q192.504 635.371 192.504 641.942 Z" fill="#000000" fill-rule="evenodd" fill-opacity="1"></path><path clip-path="url(#clip550)" d="M216.688 657.925 Q215.922 657.11 215.922 656.047 Q215.922 654.985 216.688 654.219 Q217.454 653.429 218.615 653.429 Q219.727 653.429 220.468 654.17 Q221.234 654.886 221.234 656.072 Q221.234 657.233 220.418 657.999 Q219.628 658.74 218.615 658.74 Q217.454 658.74 216.688 657.925 Z" fill="#000000" fill-rule="evenodd" fill-opacity="1"></path><path clip-path="url(#clip550)" d="M228.2 658.74 Q228.2 657.826 228.274 657.554 Q228.373 657.282 228.768 656.862 L238.476 646.042 Q243.788 640.064 243.788 634.852 Q243.788 631.467 242.009 629.047 Q240.255 626.626 237.019 626.626 Q234.796 626.626 232.918 627.984 Q231.041 629.343 230.176 631.764 Q230.324 631.714 230.843 631.714 Q232.103 631.714 232.795 632.505 Q233.511 633.295 233.511 634.358 Q233.511 635.716 232.622 636.383 Q231.757 637.026 230.893 637.026 Q230.547 637.026 230.077 636.952 Q229.633 636.877 228.916 636.186 Q228.2 635.469 228.2 634.21 Q228.2 630.677 230.868 627.861 Q233.56 625.045 237.661 625.045 Q242.305 625.045 245.344 627.811 Q248.407 630.553 248.407 634.852 Q248.407 636.359 247.938 637.742 Q247.493 639.101 246.876 640.163 Q246.283 641.225 244.652 642.93 Q243.022 644.634 241.713 645.845 Q240.403 647.055 237.464 649.624 L232.103 654.837 L241.219 654.837 Q245.665 654.837 246.011 654.442 Q246.505 653.725 247.123 649.946 L248.407 649.946 L246.974 658.74 L228.2 658.74 Z" fill="#000000" fill-rule="evenodd" fill-opacity="1"></path><path clip-path="url(#clip550)" d="M187.909 468.551 Q187.909 461.115 189.786 457.064 Q192.405 451.036 198.581 451.036 Q199.89 451.036 201.248 451.407 Q202.632 451.753 204.361 453.112 Q206.115 454.47 207.177 456.694 Q209.203 460.992 209.203 468.551 Q209.203 475.937 207.326 479.964 Q204.583 485.843 198.531 485.843 Q196.258 485.843 193.936 484.682 Q191.639 483.521 190.181 480.73 Q187.909 476.555 187.909 468.551 M192.108 467.934 Q192.108 475.567 192.652 478.605 Q193.269 481.891 194.949 483.324 Q196.654 484.732 198.531 484.732 Q200.557 484.732 202.237 483.225 Q203.941 481.693 204.46 478.408 Q205.028 475.172 205.003 467.934 Q205.003 460.893 204.509 458.077 Q203.842 454.791 202.064 453.482 Q200.31 452.148 198.531 452.148 Q197.864 452.148 197.148 452.346 Q196.456 452.543 195.443 453.112 Q194.43 453.68 193.64 455.088 Q192.874 456.496 192.504 458.62 Q192.108 461.362 192.108 467.934 Z" fill="#000000" fill-rule="evenodd" fill-opacity="1"></path><path clip-path="url(#clip550)" d="M216.293 483.917 Q215.527 483.101 215.527 482.039 Q215.527 480.977 216.293 480.211 Q217.059 479.421 218.22 479.421 Q219.331 479.421 220.072 480.162 Q220.838 480.878 220.838 482.064 Q220.838 483.225 220.023 483.991 Q219.233 484.732 218.22 484.732 Q217.059 484.732 216.293 483.917 Z" fill="#000000" fill-rule="evenodd" fill-opacity="1"></path><path clip-path="url(#clip550)" d="M227.409 477.914 Q227.409 476.407 228.274 475.69 Q229.139 474.974 230.25 474.974 Q231.411 474.974 232.227 475.74 Q233.066 476.481 233.066 477.79 Q233.066 479.198 232.078 479.989 Q231.115 480.779 229.731 480.582 Q230.942 482.607 233.165 483.521 Q235.413 484.435 237.488 484.435 Q239.662 484.435 241.416 482.558 Q243.195 480.68 243.195 476.086 Q243.195 472.183 241.663 469.935 Q240.156 467.687 237.167 467.687 L234.944 467.687 Q234.178 467.687 233.956 467.612 Q233.733 467.538 233.733 467.118 Q233.733 466.624 234.499 466.525 Q235.265 466.525 236.475 466.377 Q239.415 466.278 240.971 463.734 Q242.38 461.362 242.38 457.978 Q242.38 454.89 240.897 453.606 Q239.44 452.296 237.538 452.296 Q235.759 452.296 233.808 453.037 Q231.856 453.779 230.794 455.434 Q233.931 455.434 233.931 457.978 Q233.931 459.09 233.215 459.831 Q232.523 460.547 231.362 460.547 Q230.25 460.547 229.509 459.856 Q228.768 459.139 228.768 457.929 Q228.768 455.038 231.337 453.037 Q233.931 451.036 237.735 451.036 Q241.49 451.036 244.257 453.013 Q247.049 454.989 247.049 458.028 Q247.049 461.017 245.072 463.462 Q243.096 465.908 239.959 466.921 Q243.812 467.687 246.11 470.305 Q248.407 472.899 248.407 476.086 Q248.407 480.038 245.295 482.953 Q242.182 485.843 237.637 485.843 Q233.437 485.843 230.423 483.571 Q227.409 481.298 227.409 477.914 Z" fill="#000000" fill-rule="evenodd" fill-opacity="1"></path><path clip-path="url(#clip550)" d="M187.192 294.543 Q187.192 287.107 189.07 283.056 Q191.688 277.028 197.864 277.028 Q199.173 277.028 200.532 277.399 Q201.915 277.745 203.645 279.103 Q205.399 280.462 206.461 282.685 Q208.487 286.984 208.487 294.543 Q208.487 301.929 206.609 305.956 Q203.867 311.835 197.815 311.835 Q195.542 311.835 193.22 310.674 Q190.922 309.513 189.465 306.722 Q187.192 302.547 187.192 294.543 M191.392 293.925 Q191.392 301.559 191.935 304.597 Q192.553 307.883 194.233 309.316 Q195.937 310.724 197.815 310.724 Q199.84 310.724 201.52 309.217 Q203.225 307.685 203.744 304.4 Q204.312 301.164 204.287 293.925 Q204.287 286.885 203.793 284.069 Q203.126 280.783 201.347 279.474 Q199.593 278.14 197.815 278.14 Q197.148 278.14 196.431 278.338 Q195.74 278.535 194.727 279.103 Q193.714 279.672 192.923 281.08 Q192.158 282.488 191.787 284.612 Q191.392 287.354 191.392 293.925 Z" fill="#000000" fill-rule="evenodd" fill-opacity="1"></path><path clip-path="url(#clip550)" d="M215.576 309.909 Q214.811 309.093 214.811 308.031 Q214.811 306.969 215.576 306.203 Q216.342 305.412 217.503 305.412 Q218.615 305.412 219.356 306.154 Q220.122 306.87 220.122 308.056 Q220.122 309.217 219.307 309.983 Q218.516 310.724 217.503 310.724 Q216.342 310.724 215.576 309.909 Z" fill="#000000" fill-rule="evenodd" fill-opacity="1"></path><path clip-path="url(#clip550)" d="M225.977 302.374 L225.977 300.818 L241.515 277.078 Q241.91 276.46 242.528 276.485 Q243.096 276.485 243.22 276.707 Q243.343 276.93 243.343 277.794 L243.343 300.818 L248.407 300.818 L248.407 302.374 L243.343 302.374 L243.343 306.771 Q243.343 308.229 243.936 308.698 Q244.553 309.167 247.172 309.167 L248.234 309.167 L248.234 310.724 Q246.159 310.575 241.367 310.575 Q236.599 310.575 234.524 310.724 L234.524 309.167 L235.586 309.167 Q238.205 309.167 238.822 308.723 Q239.44 308.253 239.44 306.771 L239.44 302.374 L225.977 302.374 M227.409 300.818 L239.736 300.818 L239.736 281.944 L227.409 300.818 Z" fill="#000000" fill-rule="evenodd" fill-opacity="1"></path><path clip-path="url(#clip550)" d="M188.304 120.535 Q188.304 113.099 190.181 109.048 Q192.8 103.02 198.976 103.02 Q200.285 103.02 201.644 103.391 Q203.027 103.737 204.756 105.095 Q206.51 106.454 207.573 108.677 Q209.598 112.976 209.598 120.535 Q209.598 127.921 207.721 131.948 Q204.979 137.827 198.926 137.827 Q196.654 137.827 194.332 136.666 Q192.034 135.505 190.577 132.714 Q188.304 128.539 188.304 120.535 M192.504 119.917 Q192.504 127.551 193.047 130.589 Q193.665 133.875 195.344 135.308 Q197.049 136.716 198.926 136.716 Q200.952 136.716 202.632 135.209 Q204.336 133.677 204.855 130.392 Q205.423 127.155 205.399 119.917 Q205.399 112.877 204.905 110.061 Q204.238 106.775 202.459 105.466 Q200.705 104.132 198.926 104.132 Q198.259 104.132 197.543 104.329 Q196.851 104.527 195.838 105.095 Q194.826 105.663 194.035 107.072 Q193.269 108.48 192.899 110.604 Q192.504 113.346 192.504 119.917 Z" fill="#000000" fill-rule="evenodd" fill-opacity="1"></path><path clip-path="url(#clip550)" d="M216.688 135.9 Q215.922 135.085 215.922 134.023 Q215.922 132.961 216.688 132.195 Q217.454 131.404 218.615 131.404 Q219.727 131.404 220.468 132.145 Q221.234 132.862 221.234 134.048 Q221.234 135.209 220.418 135.975 Q219.628 136.716 218.615 136.716 Q217.454 136.716 216.688 135.9 Z" fill="#000000" fill-rule="evenodd" fill-opacity="1"></path><path clip-path="url(#clip550)" d="M228.2 128.563 Q228.2 127.057 229.015 126.488 Q229.83 125.896 230.695 125.896 Q231.856 125.896 232.523 126.637 Q233.215 127.353 233.215 128.366 Q233.215 129.379 232.523 130.12 Q231.856 130.836 230.695 130.836 Q230.127 130.836 229.83 130.737 Q230.497 133.06 232.523 134.739 Q234.573 136.419 237.266 136.419 Q240.65 136.419 242.676 133.134 Q243.886 131.009 243.886 126.192 Q243.886 121.943 242.972 119.819 Q241.564 116.582 238.674 116.582 Q234.573 116.582 232.152 120.115 Q231.856 120.56 231.51 120.584 Q231.016 120.584 230.893 120.313 Q230.794 120.016 230.794 119.25 L230.794 104.28 Q230.794 103.07 231.288 103.07 Q231.485 103.07 231.905 103.218 Q235.092 104.626 238.625 104.651 Q242.256 104.651 245.517 103.168 Q245.764 103.02 245.912 103.02 Q246.406 103.02 246.431 103.588 Q246.431 103.786 246.011 104.379 Q245.616 104.947 244.751 105.713 Q243.886 106.454 242.775 107.17 Q241.663 107.887 240.033 108.381 Q238.427 108.85 236.648 108.85 Q234.524 108.85 232.35 108.183 L232.35 118.04 Q234.969 115.471 238.773 115.471 Q242.824 115.471 245.616 118.732 Q248.407 121.992 248.407 126.538 Q248.407 131.306 245.097 134.566 Q241.811 137.827 237.365 137.827 Q233.313 137.827 230.744 134.937 Q228.2 132.047 228.2 128.563 Z" fill="#000000" fill-rule="evenodd" fill-opacity="1"></path><path clip-path="url(#clip550)" d="M133.991 638.416 Q127.367 638.416 122.782 633.797 Q118.196 629.177 118.196 622.927 Q118.196 617.628 122.51 614.164 L107.462 614.164 Q104.881 614.164 104.236 615.081 Q103.59 615.964 103.59 619.564 L101.416 619.564 L100.669 609.544 L142.89 609.544 Q145.472 609.544 146.151 608.661 Q146.796 607.744 146.796 604.143 L148.936 604.143 L149.718 614.367 L145.098 614.367 Q149.684 617.968 149.718 623.674 Q149.718 629.653 145.132 634.034 Q140.546 638.416 133.991 638.416 M134.059 632.642 Q140.512 632.642 143.705 630.638 Q148.155 627.852 148.155 623.335 Q148.155 618.172 143.298 615.115 Q142.109 614.333 140.716 614.367 L126.45 614.367 Q125.057 614.367 123.903 615.115 Q119.725 617.968 119.725 622.621 Q119.725 627.479 124.174 630.502 Q127.503 632.642 134.059 632.642 Z" fill="#000000" fill-rule="evenodd" fill-opacity="1"></path><path clip-path="url(#clip550)" d="M133.617 600.271 Q127.061 600.271 122.408 596.059 Q117.754 591.847 117.754 585.801 Q117.754 579.687 121.729 576.528 Q125.703 573.335 131.409 573.335 Q132.462 573.335 132.666 573.607 Q132.87 573.879 132.87 575.067 L132.87 594.497 Q139.969 594.497 143.298 592.391 Q147.951 589.469 147.951 584.544 Q147.951 583.865 147.815 583.05 Q147.68 582.234 147.102 580.57 Q146.491 578.906 144.894 577.445 Q143.298 575.984 140.784 575.135 Q139.799 574.931 139.833 574.252 Q139.833 573.335 140.648 573.335 Q141.26 573.335 142.652 574.014 Q144.011 574.66 145.641 575.917 Q147.272 577.173 148.495 579.619 Q149.718 582.031 149.718 584.952 Q149.718 591.066 145.098 595.685 Q140.445 600.271 133.617 600.271 M131.409 594.429 L131.409 577.921 Q129.949 577.921 128.318 578.192 Q126.688 578.43 124.446 579.177 Q122.17 579.891 120.744 581.589 Q119.317 583.287 119.317 585.801 Q119.317 586.922 119.792 588.145 Q120.268 589.334 121.423 590.794 Q122.578 592.255 125.193 593.274 Q127.809 594.293 131.409 594.429 Z" fill="#000000" fill-rule="evenodd" fill-opacity="1"></path><path clip-path="url(#clip550)" d="M148.936 569.089 L146.796 569.089 Q146.796 565.387 146.355 564.538 Q145.879 563.688 143.637 563.688 L124.989 563.688 Q122.408 563.688 121.763 564.605 Q121.117 565.489 121.117 569.089 L118.943 569.089 L118.196 559.307 L125.499 559.307 Q118.196 556.046 118.196 549.015 Q118.196 543.784 120.778 541.712 Q122.51 540.183 124.446 539.877 Q126.382 539.538 131.409 539.538 L144.69 539.538 Q146.151 539.47 146.491 538.349 Q146.796 537.228 146.796 534.103 L148.936 534.103 Q148.732 541.202 148.732 541.915 Q148.732 542.459 148.936 549.762 L146.796 549.762 Q146.796 546.059 146.355 545.21 Q145.879 544.327 143.637 544.327 L127.435 544.327 Q123.903 544.327 121.831 545.414 Q119.725 546.501 119.725 549.49 Q119.725 553.091 122.748 555.978 Q125.771 558.865 130.866 558.865 L143.637 558.865 Q145.879 558.865 146.355 558.016 Q146.796 557.133 146.796 553.464 L148.936 553.464 Q148.732 560.563 148.732 561.243 Q148.732 561.786 148.936 569.089 Z" fill="#000000" fill-rule="evenodd" fill-opacity="1"></path><path clip-path="url(#clip550)" d="M148.019 530.435 L138.848 530.435 Q138.067 530.435 137.795 530.401 Q137.523 530.367 137.32 530.163 Q137.116 529.959 137.116 529.551 Q137.116 529.076 137.32 528.906 Q137.523 528.702 138.305 528.566 Q143.094 527.513 145.641 525.272 Q148.155 522.996 148.155 518.886 Q148.155 514.98 146.423 513.009 Q144.69 511.039 141.837 511.039 Q136.742 511.039 135.451 518.274 Q134.602 522.452 134.059 524.185 Q133.481 525.917 132.224 527.445 Q129.779 530.435 126.314 530.435 Q122.85 530.435 120.302 527.819 Q117.754 525.17 117.754 519.327 Q117.754 515.421 119.725 512.772 Q119.113 511.99 118.604 511.583 Q117.754 510.666 117.754 510.19 Q117.754 509.647 118.128 509.545 Q118.468 509.443 119.453 509.443 L126.45 509.443 Q127.231 509.443 127.503 509.477 Q127.775 509.511 127.979 509.715 Q128.148 509.918 128.148 510.36 Q128.148 511.141 127.503 511.175 Q119.079 511.719 119.079 519.327 Q119.079 523.437 120.676 525.272 Q122.238 527.106 124.378 527.106 Q125.567 527.106 126.484 526.562 Q127.367 525.985 127.911 525.272 Q128.42 524.524 128.93 523.166 Q129.405 521.807 129.575 520.992 Q129.745 520.143 130.085 518.546 Q131.138 512.975 133.413 510.632 Q136.334 507.711 140.037 507.711 Q144.147 507.711 146.932 510.496 Q149.718 513.281 149.718 518.886 Q149.718 523.403 146.694 526.562 Q147.102 526.97 147.476 527.276 Q147.815 527.581 147.951 527.717 Q148.087 527.819 148.189 527.853 Q148.257 527.887 148.325 527.955 Q149.718 529.348 149.718 529.687 Q149.718 530.231 149.344 530.333 Q149.004 530.435 148.019 530.435 Z" fill="#000000" fill-rule="evenodd" fill-opacity="1"></path><path clip-path="url(#clip550)" d="M148.936 503.057 L146.796 503.057 Q146.796 499.355 146.355 498.505 Q145.879 497.656 143.637 497.656 L124.922 497.656 Q122.34 497.656 121.729 498.539 Q121.117 499.389 121.117 502.785 L118.943 502.785 L118.196 493.071 L143.705 493.071 Q145.777 493.071 146.287 492.323 Q146.796 491.576 146.796 488.179 L148.936 488.179 Q148.732 495.279 148.732 495.414 Q148.732 496.366 148.936 503.057 M106.07 500.136 Q104.677 500.136 103.556 499.083 Q102.401 497.996 102.401 496.467 Q102.401 494.939 103.454 493.852 Q104.473 492.765 106.104 492.765 Q107.7 492.765 108.753 493.852 Q109.772 494.939 109.772 496.467 Q109.772 498.064 108.651 499.117 Q107.53 500.136 106.07 500.136 Z" fill="#000000" fill-rule="evenodd" fill-opacity="1"></path><path clip-path="url(#clip550)" d="M121.117 484.783 L119.589 484.783 Q119.453 481.59 117.211 479.484 Q114.935 477.344 112.15 476.631 Q109.365 475.883 106.138 475.815 L106.138 474.083 L118.943 474.083 L118.943 464.131 L121.117 464.131 L121.117 474.083 L140.445 474.083 Q147.951 474.083 147.951 469.396 Q147.951 467.392 145.913 466.067 Q143.841 464.742 140.173 464.742 L136.334 464.742 L136.334 463.01 L140.309 463.01 Q144.079 463.01 146.898 464.742 Q149.718 466.474 149.718 469.905 Q149.718 471.162 149.378 472.419 Q149.072 473.642 148.257 475.272 Q147.408 476.868 145.37 477.887 Q143.298 478.872 140.309 478.872 L121.117 478.872 L121.117 484.783 Z" fill="#000000" fill-rule="evenodd" fill-opacity="1"></path><path clip-path="url(#clip550)" d="M157.564 459.749 Q156.103 459.749 155.322 458.9 Q154.575 458.017 154.575 456.828 Q154.575 455.571 155.356 454.756 Q156.171 453.907 157.496 453.907 Q160.077 453.907 160.417 456.624 Q161.674 455.299 161.674 453.363 Q161.674 451.291 160.145 449.627 Q158.617 447.928 157.156 447.215 Q155.696 446.468 153.046 445.415 Q150.974 444.43 148.936 443.683 L123.529 454.11 Q121.864 454.79 121.491 455.843 Q121.117 456.896 121.117 459.749 L118.943 459.749 Q119.147 456.624 119.147 452.99 Q119.147 450.85 118.943 445.415 L121.117 445.415 Q121.117 449.321 122.917 449.321 Q123.121 449.321 124.174 448.913 L142.89 441.169 L125.771 434.138 Q124.786 433.73 124.106 433.73 Q121.253 433.73 121.117 436.991 L118.943 436.991 Q119.147 432.405 119.147 430.945 Q119.147 428.092 118.943 425.748 L121.117 425.748 Q121.117 430.401 125.567 432.202 L155.254 444.464 Q163.169 447.793 163.202 453.363 Q163.202 456.013 161.572 457.881 Q159.942 459.749 157.564 459.749 Z" fill="#000000" fill-rule="evenodd" fill-opacity="1"></path><path clip-path="url(#clip552)" d="
M339.364 893.772 L339.364 989.476 L447.708 989.476 L447.708 893.772 L339.364 893.772 L339.364 893.772  Z
  " fill="#808080" fill-rule="evenodd" fill-opacity="1"></path>
<polyline clip-path="url(#clip552)" style="stroke:#000000; stroke-linecap:butt; stroke-linejoin:round; stroke-width:4; stroke-opacity:1; fill:none" points="
  339.364,893.772 339.364,989.476 447.708,989.476 447.708,893.772 339.364,893.772 
  "></polyline>
<path clip-path="url(#clip552)" d="
M447.708 824.168 L447.708 989.476 L556.053 989.476 L556.053 824.168 L447.708 824.168 L447.708 824.168  Z
  " fill="#808080" fill-rule="evenodd" fill-opacity="1"></path>
<polyline clip-path="url(#clip552)" style="stroke:#000000; stroke-linecap:butt; stroke-linejoin:round; stroke-width:4; stroke-opacity:1; fill:none" points="
  447.708,824.168 447.708,989.476 556.053,989.476 556.053,824.168 447.708,824.168 
  "></polyline>
<path clip-path="url(#clip552)" d="
M556.053 554.456 L556.053 989.476 L664.397 989.476 L664.397 554.456 L556.053 554.456 L556.053 554.456  Z
  " fill="#808080" fill-rule="evenodd" fill-opacity="1"></path>
<polyline clip-path="url(#clip552)" style="stroke:#000000; stroke-linecap:butt; stroke-linejoin:round; stroke-width:4; stroke-opacity:1; fill:none" points="
  556.053,554.456 556.053,989.476 664.397,989.476 664.397,554.456 556.053,554.456 
  "></polyline>
<path clip-path="url(#clip552)" d="
M664.397 528.355 L664.397 989.476 L772.741 989.476 L772.741 528.355 L664.397 528.355 L664.397 528.355  Z
  " fill="#808080" fill-rule="evenodd" fill-opacity="1"></path>
<polyline clip-path="url(#clip552)" style="stroke:#000000; stroke-linecap:butt; stroke-linejoin:round; stroke-width:4; stroke-opacity:1; fill:none" points="
  664.397,528.355 664.397,989.476 772.741,989.476 772.741,528.355 664.397,528.355 
  "></polyline>
<path clip-path="url(#clip552)" d="
M772.741 319.545 L772.741 989.476 L881.085 989.476 L881.085 319.545 L772.741 319.545 L772.741 319.545  Z
  " fill="#808080" fill-rule="evenodd" fill-opacity="1"></path>
<polyline clip-path="url(#clip552)" style="stroke:#000000; stroke-linecap:butt; stroke-linejoin:round; stroke-width:4; stroke-opacity:1; fill:none" points="
  772.741,319.545 772.741,989.476 881.085,989.476 881.085,319.545 772.741,319.545 
  "></polyline>
<path clip-path="url(#clip552)" d="
M881.085 528.355 L881.085 989.476 L989.43 989.476 L989.43 528.355 L881.085 528.355 L881.085 528.355  Z
  " fill="#808080" fill-rule="evenodd" fill-opacity="1"></path>
<polyline clip-path="url(#clip552)" style="stroke:#000000; stroke-linecap:butt; stroke-linejoin:round; stroke-width:4; stroke-opacity:1; fill:none" points="
  881.085,528.355 881.085,989.476 989.43,989.476 989.43,528.355 881.085,528.355 
  "></polyline>
<path clip-path="url(#clip552)" d="
M989.43 502.253 L989.43 989.476 L1097.77 989.476 L1097.77 502.253 L989.43 502.253 L989.43 502.253  Z
  " fill="#808080" fill-rule="evenodd" fill-opacity="1"></path>
<polyline clip-path="url(#clip552)" style="stroke:#000000; stroke-linecap:butt; stroke-linejoin:round; stroke-width:4; stroke-opacity:1; fill:none" points="
  989.43,502.253 989.43,989.476 1097.77,989.476 1097.77,502.253 989.43,502.253 
  "></polyline>
<path clip-path="url(#clip552)" d="
M1097.77 632.76 L1097.77 989.476 L1206.12 989.476 L1206.12 632.76 L1097.77 632.76 L1097.77 632.76  Z
  " fill="#808080" fill-rule="evenodd" fill-opacity="1"></path>
<polyline clip-path="url(#clip552)" style="stroke:#000000; stroke-linecap:butt; stroke-linejoin:round; stroke-width:4; stroke-opacity:1; fill:none" points="
  1097.77,632.76 1097.77,989.476 1206.12,989.476 1206.12,632.76 1097.77,632.76 
  "></polyline>
<path clip-path="url(#clip552)" d="
M1206.12 737.164 L1206.12 989.476 L1314.46 989.476 L1314.46 737.164 L1206.12 737.164 L1206.12 737.164  Z
  " fill="#808080" fill-rule="evenodd" fill-opacity="1"></path>
<polyline clip-path="url(#clip552)" style="stroke:#000000; stroke-linecap:butt; stroke-linejoin:round; stroke-width:4; stroke-opacity:1; fill:none" points="
  1206.12,737.164 1206.12,989.476 1314.46,989.476 1314.46,737.164 1206.12,737.164 
  "></polyline>
<path clip-path="url(#clip552)" d="
M1314.46 893.772 L1314.46 989.476 L1422.81 989.476 L1422.81 893.772 L1314.46 893.772 L1314.46 893.772  Z
  " fill="#808080" fill-rule="evenodd" fill-opacity="1"></path>
<polyline clip-path="url(#clip552)" style="stroke:#000000; stroke-linecap:butt; stroke-linejoin:round; stroke-width:4; stroke-opacity:1; fill:none" points="
  1314.46,893.772 1314.46,989.476 1422.81,989.476 1422.81,893.772 1314.46,893.772 
  "></polyline>
<circle clip-path="url(#clip552)" style="fill:#808080; stroke:none; fill-opacity:0" cx="393.536" cy="893.772" r="2"></circle>
<circle clip-path="url(#clip552)" style="fill:#808080; stroke:none; fill-opacity:0" cx="501.88" cy="824.168" r="2"></circle>
<circle clip-path="url(#clip552)" style="fill:#808080; stroke:none; fill-opacity:0" cx="610.225" cy="554.456" r="2"></circle>
<circle clip-path="url(#clip552)" style="fill:#808080; stroke:none; fill-opacity:0" cx="718.569" cy="528.355" r="2"></circle>
<circle clip-path="url(#clip552)" style="fill:#808080; stroke:none; fill-opacity:0" cx="826.913" cy="319.545" r="2"></circle>
<circle clip-path="url(#clip552)" style="fill:#808080; stroke:none; fill-opacity:0" cx="935.258" cy="528.355" r="2"></circle>
<circle clip-path="url(#clip552)" style="fill:#808080; stroke:none; fill-opacity:0" cx="1043.6" cy="502.253" r="2"></circle>
<circle clip-path="url(#clip552)" style="fill:#808080; stroke:none; fill-opacity:0" cx="1151.95" cy="632.76" r="2"></circle>
<circle clip-path="url(#clip552)" style="fill:#808080; stroke:none; fill-opacity:0" cx="1260.29" cy="737.164" r="2"></circle>
<circle clip-path="url(#clip552)" style="fill:#808080; stroke:none; fill-opacity:0" cx="1368.63" cy="893.772" r="2"></circle>
<polyline clip-path="url(#clip552)" style="stroke:#000000; stroke-linecap:butt; stroke-linejoin:round; stroke-width:8; stroke-opacity:1; fill:none" points="
  306.861,987.422 310.599,987.252 314.338,987.071 348.906,984.619 383.474,980.094 404.248,975.833 425.022,969.951 442.586,963.366 460.15,954.956 469.689,949.495 
  479.229,943.326 488.769,936.384 498.309,928.603 507.104,920.628 515.898,911.832 524.693,902.162 533.488,891.568 542.917,879.129 552.346,865.518 561.775,850.686 
  571.204,834.59 582.128,814.314 593.053,792.257 603.977,768.4 614.901,742.748 624.61,718.471 634.318,692.841 644.026,665.917 653.735,637.778 662.248,612.179 
  670.761,585.801 679.275,558.736 687.788,531.086 706.351,469.343 724.915,406.758 743.589,344.551 762.263,284.852 772.586,253.594 782.909,223.974 793.233,196.294 
  803.556,170.848 808.467,159.606 813.378,148.96 818.289,138.937 823.2,129.562 828.111,120.858 833.022,112.85 837.934,105.556 842.845,98.9966 847.951,92.9733 
  853.058,87.7795 858.164,83.43 863.271,79.9372 868.377,77.3113 873.483,75.5598 878.59,74.6877 883.696,74.6977 892.293,76.7056 900.89,81.1957 905.189,84.361 
  909.487,88.1315 913.786,92.4996 918.085,97.4565 923.333,104.292 928.581,111.969 933.829,120.466 939.077,129.757 944.325,139.814 949.573,150.609 954.821,162.11 
  960.069,174.285 969.684,198.221 979.299,224.077 988.914,251.616 998.529,280.592 1016.29,337.05 1034.05,395.978 1052.04,456.622 1070.03,516.764 1080.11,549.754 
  1090.19,581.976 1100.28,613.255 1110.36,643.436 1119.49,669.728 1128.63,694.933 1137.76,718.988 1146.9,741.844 1157.36,766.498 1167.82,789.508 1178.28,810.868 
  1188.74,830.591 1198.42,847.418 1208.1,862.903 1217.79,877.091 1227.47,890.034 1237.02,901.634 1246.57,912.141 1256.12,921.621 1265.66,930.139 1274.93,937.553 
  1284.2,944.185 1293.47,950.095 1302.74,955.342 1321.75,964.268 1340.75,971.107 1361.58,976.688 1382.4,980.714 1412.65,984.56 1442.9,986.81 1449.1,987.134 
  1455.31,987.422 
  "></polyline>
</svg>