<svg xmlns="http://www.w3.org/2000/svg" xmlns:xlink="http://www.w3.org/1999/xlink" width="600" height="400" viewBox="0 0 2400 1600">
<defs>
  <clipPath id="clip820">
    <rect x="0" y="0" width="2400" height="1600"></rect>
  </clipPath>
</defs>
<path clip-path="url(#clip820)" d="M0 1600 L2400 1600 L2400 0 L0 0  Z" fill="#ffffff" fill-rule="evenodd" fill-opacity="1"></path>
<defs>
  <clipPath id="clip821">
    <rect x="480" y="0" width="1681" height="1600"></rect>
  </clipPath>
</defs>
<path clip-path="url(#clip820)" d="M342.696 1360.19 L2289.76 1360.19 L2289.76 110.236 L342.696 110.236  Z" fill="#ffffff" fill-rule="evenodd" fill-opacity="1"></path>
<defs>
  <clipPath id="clip822">
    <rect x="342" y="110" width="1948" height="1251"></rect>
  </clipPath>
</defs>
<polyline clip-path="url(#clip822)" style="stroke:#000000; stroke-linecap:round; stroke-linejoin:round; stroke-width:2; stroke-opacity:0.1; fill:none" points="403.542,1360.19 403.542,110.236 "></polyline>
<polyline clip-path="url(#clip822)" style="stroke:#000000; stroke-linecap:round; stroke-linejoin:round; stroke-width:2; stroke-opacity:0.1; fill:none" points="606.361,1360.19 606.361,110.236 "></polyline>
<polyline clip-path="url(#clip822)" style="stroke:#000000; stroke-linecap:round; stroke-linejoin:round; stroke-width:2; stroke-opacity:0.1; fill:none" points="809.181,1360.19 809.181,110.236 "></polyline>
<polyline clip-path="url(#clip822)" style="stroke:#000000; stroke-linecap:round; stroke-linejoin:round; stroke-width:2; stroke-opacity:0.1; fill:none" points="1012,1360.19 1012,110.236 "></polyline>
<polyline clip-path="url(#clip822)" style="stroke:#000000; stroke-linecap:round; stroke-linejoin:round; stroke-width:2; stroke-opacity:0.1; fill:none" points="1214.82,1360.19 1214.82,110.236 "></polyline>
<polyline clip-path="url(#clip822)" style="stroke:#000000; stroke-linecap:round; stroke-linejoin:round; stroke-width:2; stroke-opacity:0.1; fill:none" points="1417.64,1360.19 1417.64,110.236 "></polyline>
<polyline clip-path="url(#clip822)" style="stroke:#000000; stroke-linecap:round; stroke-linejoin:round; stroke-width:2; stroke-opacity:0.1; fill:none" points="1620.46,1360.19 1620.46,110.236 "></polyline>
<polyline clip-path="url(#clip822)" style="stroke:#000000; stroke-linecap:round; stroke-linejoin:round; stroke-width:2; stroke-opacity:0.1; fill:none" points="1823.28,1360.19 1823.28,110.236 "></polyline>
<polyline clip-path="url(#clip822)" style="stroke:#000000; stroke-linecap:round; stroke-linejoin:round; stroke-width:2; stroke-opacity:0.1; fill:none" points="2026.1,1360.19 2026.1,110.236 "></polyline>
<polyline clip-path="url(#clip822)" style="stroke:#000000; stroke-linecap:round; stroke-linejoin:round; stroke-width:2; stroke-opacity:0.1; fill:none" points="2228.92,1360.19 2228.92,110.236 "></polyline>
<polyline clip-path="url(#clip820)" style="stroke:#000000; stroke-linecap:round; stroke-linejoin:round; stroke-width:4; stroke-opacity:1; fill:none" points="342.696,1360.19 2289.76,1360.19 "></polyline>
<polyline clip-path="url(#clip820)" style="stroke:#000000; stroke-linecap:round; stroke-linejoin:round; stroke-width:4; stroke-opacity:1; fill:none" points="342.696,110.236 2289.76,110.236 "></polyline>
<polyline clip-path="url(#clip820)" style="stroke:#000000; stroke-linecap:round; stroke-linejoin:round; stroke-width:4; stroke-opacity:1; fill:none" points="403.542,1360.19 403.542,1341.29 "></polyline>
<polyline clip-path="url(#clip820)" style="stroke:#000000; stroke-linecap:round; stroke-linejoin:round; stroke-width:4; stroke-opacity:1; fill:none" points="606.361,1360.19 606.361,1341.29 "></polyline>
<polyline clip-path="url(#clip820)" style="stroke:#000000; stroke-linecap:round; stroke-linejoin:round; stroke-width:4; stroke-opacity:1; fill:none" points="809.181,1360.19 809.181,1341.29 "></polyline>
<polyline clip-path="url(#clip820)" style="stroke:#000000; stroke-linecap:round; stroke-linejoin:round; stroke-width:4; stroke-opacity:1; fill:none" points="1012,1360.19 1012,1341.29 "></polyline>
<polyline clip-path="url(#clip820)" style="stroke:#000000; stroke-linecap:round; stroke-linejoin:round; stroke-width:4; stroke-opacity:1; fill:none" points="1214.82,1360.19 1214.82,1341.29 "></polyline>
<polyline clip-path="url(#clip820)" style="stroke:#000000; stroke-linecap:round; stroke-linejoin:round; stroke-width:4; stroke-opacity:1; fill:none" points="1417.64,1360.19 1417.64,1341.29 "></polyline>
<polyline clip-path="url(#clip820)" style="stroke:#000000; stroke-linecap:round; stroke-linejoin:round; stroke-width:4; stroke-opacity:1; fill:none" points="1620.46,1360.19 1620.46,1341.29 "></polyline>
<polyline clip-path="url(#clip820)" style="stroke:#000000; stroke-linecap:round; stroke-linejoin:round; stroke-width:4; stroke-opacity:1; fill:none" points="1823.28,1360.19 1823.28,1341.29 "></polyline>
<polyline clip-path="url(#clip820)" style="stroke:#000000; stroke-linecap:round; stroke-linejoin:round; stroke-width:4; stroke-opacity:1; fill:none" points="2026.1,1360.19 2026.1,1341.29 "></polyline>
<polyline clip-path="url(#clip820)" style="stroke:#000000; stroke-linecap:round; stroke-linejoin:round; stroke-width:4; stroke-opacity:1; fill:none" points="2228.92,1360.19 2228.92,1341.29 "></polyline>
<path clip-path="url(#clip820)" d="M403.542 1391.11 Q399.931 1391.11 398.102 1394.67 Q396.297 1398.21 396.297 1405.34 Q396.297 1412.45 398.102 1416.01 Q399.931 1419.56 403.542 1419.56 Q407.176 1419.56 408.982 1416.01 Q410.81 1412.45 410.81 1405.34 Q410.81 1398.21 408.982 1394.67 Q407.176 1391.11 403.542 1391.11 M403.542 1387.4 Q409.352 1387.4 412.408 1392.01 Q415.486 1396.59 415.486 1405.34 Q415.486 1414.07 412.408 1418.68 Q409.352 1423.26 403.542 1423.26 Q397.732 1423.26 394.653 1418.68 Q391.598 1414.07 391.598 1405.34 Q391.598 1396.59 394.653 1392.01 Q397.732 1387.4 403.542 1387.4 Z" fill="#000000" fill-rule="nonzero" fill-opacity="1"></path><path clip-path="url(#clip820)" d="M596.743 1418.65 L604.382 1418.65 L604.382 1392.29 L596.072 1393.95 L596.072 1389.69 L604.336 1388.03 L609.012 1388.03 L609.012 1418.65 L616.651 1418.65 L616.651 1422.59 L596.743 1422.59 L596.743 1418.65 Z" fill="#000000" fill-rule="nonzero" fill-opacity="1"></path><path clip-path="url(#clip820)" d="M803.834 1418.65 L820.153 1418.65 L820.153 1422.59 L798.209 1422.59 L798.209 1418.65 Q800.871 1415.9 805.454 1411.27 Q810.061 1406.62 811.241 1405.27 Q813.487 1402.75 814.366 1401.01 Q815.269 1399.25 815.269 1397.56 Q815.269 1394.81 813.325 1393.07 Q811.403 1391.34 808.301 1391.34 Q806.102 1391.34 803.649 1392.1 Q801.218 1392.87 798.44 1394.42 L798.44 1389.69 Q801.264 1388.56 803.718 1387.98 Q806.172 1387.4 808.209 1387.4 Q813.579 1387.4 816.774 1390.09 Q819.968 1392.77 819.968 1397.26 Q819.968 1399.39 819.158 1401.31 Q818.371 1403.21 816.264 1405.81 Q815.686 1406.48 812.584 1409.69 Q809.482 1412.89 803.834 1418.65 Z" fill="#000000" fill-rule="nonzero" fill-opacity="1"></path><path clip-path="url(#clip820)" d="M1016.25 1403.95 Q1019.6 1404.67 1021.48 1406.94 Q1023.38 1409.21 1023.38 1412.54 Q1023.38 1417.66 1019.86 1420.46 Q1016.34 1423.26 1009.86 1423.26 Q1007.68 1423.26 1005.37 1422.82 Q1003.08 1422.4 1000.62 1421.55 L1000.62 1417.03 Q1002.57 1418.17 1004.88 1418.75 Q1007.2 1419.32 1009.72 1419.32 Q1014.12 1419.32 1016.41 1417.59 Q1018.73 1415.85 1018.73 1412.54 Q1018.73 1409.49 1016.57 1407.77 Q1014.44 1406.04 1010.62 1406.04 L1006.6 1406.04 L1006.6 1402.19 L1010.81 1402.19 Q1014.26 1402.19 1016.09 1400.83 Q1017.91 1399.44 1017.91 1396.85 Q1017.91 1394.19 1016.02 1392.77 Q1014.14 1391.34 1010.62 1391.34 Q1008.7 1391.34 1006.5 1391.75 Q1004.3 1392.17 1001.66 1393.05 L1001.66 1388.88 Q1004.33 1388.14 1006.64 1387.77 Q1008.98 1387.4 1011.04 1387.4 Q1016.36 1387.4 1019.47 1389.83 Q1022.57 1392.24 1022.57 1396.36 Q1022.57 1399.23 1020.92 1401.22 Q1019.28 1403.19 1016.25 1403.95 Z" fill="#000000" fill-rule="nonzero" fill-opacity="1"></path><path clip-path="url(#clip820)" d="M1217.83 1392.1 L1206.02 1410.55 L1217.83 1410.55 L1217.83 1392.1 M1216.6 1388.03 L1222.48 1388.03 L1222.48 1410.55 L1227.41 1410.55 L1227.41 1414.44 L1222.48 1414.44 L1222.48 1422.59 L1217.83 1422.59 L1217.83 1414.44 L1202.23 1414.44 L1202.23 1409.93 L1216.6 1388.03 Z" fill="#000000" fill-rule="nonzero" fill-opacity="1"></path><path clip-path="url(#clip820)" d="M1407.92 1388.03 L1426.27 1388.03 L1426.27 1391.96 L1412.2 1391.96 L1412.2 1400.44 Q1413.22 1400.09 1414.24 1399.93 Q1415.26 1399.74 1416.27 1399.74 Q1422.06 1399.74 1425.44 1402.91 Q1428.82 1406.08 1428.82 1411.5 Q1428.82 1417.08 1425.35 1420.18 Q1421.88 1423.26 1415.56 1423.26 Q1413.38 1423.26 1411.11 1422.89 Q1408.87 1422.52 1406.46 1421.78 L1406.46 1417.08 Q1408.54 1418.21 1410.76 1418.77 Q1412.99 1419.32 1415.46 1419.32 Q1419.47 1419.32 1421.81 1417.22 Q1424.14 1415.11 1424.14 1411.5 Q1424.14 1407.89 1421.81 1405.78 Q1419.47 1403.68 1415.46 1403.68 Q1413.59 1403.68 1411.71 1404.09 Q1409.86 1404.51 1407.92 1405.39 L1407.92 1388.03 Z" fill="#000000" fill-rule="nonzero" fill-opacity="1"></path><path clip-path="url(#clip820)" d="M1620.86 1403.44 Q1617.72 1403.44 1615.86 1405.6 Q1614.04 1407.75 1614.04 1411.5 Q1614.04 1415.23 1615.86 1417.4 Q1617.72 1419.56 1620.86 1419.56 Q1624.01 1419.56 1625.84 1417.4 Q1627.69 1415.23 1627.69 1411.5 Q1627.69 1407.75 1625.84 1405.6 Q1624.01 1403.44 1620.86 1403.44 M1630.15 1388.79 L1630.15 1393.05 Q1628.39 1392.22 1626.58 1391.78 Q1624.8 1391.34 1623.04 1391.34 Q1618.41 1391.34 1615.96 1394.46 Q1613.53 1397.59 1613.18 1403.91 Q1614.54 1401.89 1616.61 1400.83 Q1618.67 1399.74 1621.14 1399.74 Q1626.35 1399.74 1629.36 1402.91 Q1632.39 1406.06 1632.39 1411.5 Q1632.39 1416.82 1629.24 1420.04 Q1626.1 1423.26 1620.86 1423.26 Q1614.87 1423.26 1611.7 1418.68 Q1608.53 1414.07 1608.53 1405.34 Q1608.53 1397.15 1612.42 1392.29 Q1616.3 1387.4 1622.86 1387.4 Q1624.61 1387.4 1626.4 1387.75 Q1628.2 1388.1 1630.15 1388.79 Z" fill="#000000" fill-rule="nonzero" fill-opacity="1"></path><path clip-path="url(#clip820)" d="M1812.17 1388.03 L1834.39 1388.03 L1834.39 1390.02 L1821.84 1422.59 L1816.96 1422.59 L1828.76 1391.96 L1812.17 1391.96 L1812.17 1388.03 Z" fill="#000000" fill-rule="nonzero" fill-opacity="1"></path><path clip-path="url(#clip820)" d="M2026.1 1406.18 Q2022.77 1406.18 2020.84 1407.96 Q2018.95 1409.74 2018.95 1412.87 Q2018.95 1415.99 2020.84 1417.77 Q2022.77 1419.56 2026.1 1419.56 Q2029.43 1419.56 2031.35 1417.77 Q2033.27 1415.97 2033.27 1412.87 Q2033.27 1409.74 2031.35 1407.96 Q2029.45 1406.18 2026.1 1406.18 M2021.42 1404.19 Q2018.41 1403.44 2016.72 1401.38 Q2015.06 1399.32 2015.06 1396.36 Q2015.06 1392.22 2018 1389.81 Q2020.96 1387.4 2026.1 1387.4 Q2031.26 1387.4 2034.2 1389.81 Q2037.14 1392.22 2037.14 1396.36 Q2037.14 1399.32 2035.45 1401.38 Q2033.78 1403.44 2030.8 1404.19 Q2034.18 1404.97 2036.05 1407.26 Q2037.95 1409.56 2037.95 1412.87 Q2037.95 1417.89 2034.87 1420.57 Q2031.82 1423.26 2026.1 1423.26 Q2020.38 1423.26 2017.3 1420.57 Q2014.25 1417.89 2014.25 1412.87 Q2014.25 1409.56 2016.14 1407.26 Q2018.04 1404.97 2021.42 1404.19 M2019.71 1396.8 Q2019.71 1399.49 2021.38 1400.99 Q2023.07 1402.5 2026.1 1402.5 Q2029.11 1402.5 2030.8 1400.99 Q2032.51 1399.49 2032.51 1396.8 Q2032.51 1394.12 2030.8 1392.61 Q2029.11 1391.11 2026.1 1391.11 Q2023.07 1391.11 2021.38 1392.61 Q2019.71 1394.12 2019.71 1396.8 Z" fill="#000000" fill-rule="nonzero" fill-opacity="1"></path><path clip-path="url(#clip820)" d="M2219.22 1421.87 L2219.22 1417.61 Q2220.98 1418.44 2222.78 1418.88 Q2224.59 1419.32 2226.33 1419.32 Q2230.95 1419.32 2233.39 1416.22 Q2235.84 1413.1 2236.19 1406.75 Q2234.84 1408.75 2232.78 1409.81 Q2230.72 1410.87 2228.22 1410.87 Q2223.04 1410.87 2220.01 1407.75 Q2217 1404.6 2217 1399.16 Q2217 1393.84 2220.14 1390.62 Q2223.29 1387.4 2228.52 1387.4 Q2234.52 1387.4 2237.67 1392.01 Q2240.84 1396.59 2240.84 1405.34 Q2240.84 1413.51 2236.95 1418.4 Q2233.08 1423.26 2226.53 1423.26 Q2224.77 1423.26 2222.97 1422.91 Q2221.16 1422.56 2219.22 1421.87 M2228.52 1407.22 Q2231.67 1407.22 2233.5 1405.06 Q2235.35 1402.91 2235.35 1399.16 Q2235.35 1395.44 2233.5 1393.28 Q2231.67 1391.11 2228.52 1391.11 Q2225.38 1391.11 2223.52 1393.28 Q2221.7 1395.44 2221.7 1399.16 Q2221.7 1402.91 2223.52 1405.06 Q2225.38 1407.22 2228.52 1407.22 Z" fill="#000000" fill-rule="nonzero" fill-opacity="1"></path><path clip-path="url(#clip820)" d="M1236.45 1457.53 L1242.88 1457.53 L1242.88 1499.64 L1266.02 1499.64 L1266.02 1505.05 L1236.45 1505.05 L1236.45 1457.53 Z" fill="#000000" fill-rule="nonzero" fill-opacity="1"></path><path clip-path="url(#clip820)" d="M1301.86 1485.76 L1301.86 1488.63 L1274.93 1488.63 Q1275.31 1494.68 1278.56 1497.86 Q1281.84 1501.01 1287.66 1501.01 Q1291.04 1501.01 1294.19 1500.18 Q1297.37 1499.35 1300.49 1497.7 L1300.49 1503.24 Q1297.34 1504.57 1294.03 1505.27 Q1290.72 1505.97 1287.31 1505.97 Q1278.78 1505.97 1273.79 1501.01 Q1268.82 1496.04 1268.82 1487.58 Q1268.82 1478.83 1273.53 1473.7 Q1278.27 1468.54 1286.3 1468.54 Q1293.49 1468.54 1297.66 1473.19 Q1301.86 1477.81 1301.86 1485.76 M1296 1484.04 Q1295.94 1479.24 1293.3 1476.37 Q1290.69 1473.51 1286.36 1473.51 Q1281.46 1473.51 1278.5 1476.28 Q1275.57 1479.05 1275.12 1484.08 L1296 1484.04 Z" fill="#000000" fill-rule="nonzero" fill-opacity="1"></path><path clip-path="url(#clip820)" d="M1307.27 1469.4 L1313.48 1469.4 L1324.62 1499.32 L1335.76 1469.4 L1341.96 1469.4 L1328.6 1505.05 L1320.64 1505.05 L1307.27 1469.4 Z" fill="#000000" fill-rule="nonzero" fill-opacity="1"></path><path clip-path="url(#clip820)" d="M1380.54 1485.76 L1380.54 1488.63 L1353.61 1488.63 Q1353.99 1494.68 1357.24 1497.86 Q1360.52 1501.01 1366.34 1501.01 Q1369.72 1501.01 1372.87 1500.18 Q1376.05 1499.35 1379.17 1497.7 L1379.17 1503.24 Q1376.02 1504.57 1372.71 1505.27 Q1369.4 1505.97 1365.99 1505.97 Q1357.46 1505.97 1352.47 1501.01 Q1347.5 1496.04 1347.5 1487.58 Q1347.5 1478.83 1352.21 1473.7 Q1356.95 1468.54 1364.98 1468.54 Q1372.17 1468.54 1376.34 1473.19 Q1380.54 1477.81 1380.54 1485.76 M1374.68 1484.04 Q1374.62 1479.24 1371.98 1476.37 Q1369.37 1473.51 1365.04 1473.51 Q1360.14 1473.51 1357.18 1476.28 Q1354.25 1479.05 1353.8 1484.08 L1374.68 1484.04 Z" fill="#000000" fill-rule="nonzero" fill-opacity="1"></path><path clip-path="url(#clip820)" d="M1390.15 1455.53 L1396.01 1455.53 L1396.01 1505.05 L1390.15 1505.05 L1390.15 1455.53 Z" fill="#000000" fill-rule="nonzero" fill-opacity="1"></path><polyline clip-path="url(#clip822)" style="stroke:#000000; stroke-linecap:round; stroke-linejoin:round; stroke-width:2; stroke-opacity:0.1; fill:none" points="342.696,1360.19 2289.76,1360.19 "></polyline>
<polyline clip-path="url(#clip822)" style="stroke:#000000; stroke-linecap:round; stroke-linejoin:round; stroke-width:2; stroke-opacity:0.1; fill:none" points="342.696,1099.78 2289.76,1099.78 "></polyline>
<polyline clip-path="url(#clip822)" style="stroke:#000000; stroke-linecap:round; stroke-linejoin:round; stroke-width:2; stroke-opacity:0.1; fill:none" points="342.696,839.375 2289.76,839.375 "></polyline>
<polyline clip-path="url(#clip822)" style="stroke:#000000; stroke-linecap:round; stroke-linejoin:round; stroke-width:2; stroke-opacity:0.1; fill:none" points="342.696,578.968 2289.76,578.968 "></polyline>
<polyline clip-path="url(#clip822)" style="stroke:#000000; stroke-linecap:round; stroke-linejoin:round; stroke-width:2; stroke-opacity:0.1; fill:none" points="342.696,318.561 2289.76,318.561 "></polyline>
<polyline clip-path="url(#clip820)" style="stroke:#000000; stroke-linecap:round; stroke-linejoin:round; stroke-width:4; stroke-opacity:1; fill:none" points="342.696,1360.19 342.696,110.236 "></polyline>
<polyline clip-path="url(#clip820)" style="stroke:#000000; stroke-linecap:round; stroke-linejoin:round; stroke-width:4; stroke-opacity:1; fill:none" points="2289.76,1360.19 2289.76,110.236 "></polyline>
<polyline clip-path="url(#clip820)" style="stroke:#000000; stroke-linecap:round; stroke-linejoin:round; stroke-width:4; stroke-opacity:1; fill:none" points="342.696,1360.19 361.594,1360.19 "></polyline>
<polyline clip-path="url(#clip820)" style="stroke:#000000; stroke-linecap:round; stroke-linejoin:round; stroke-width:4; stroke-opacity:1; fill:none" points="342.696,1099.78 361.594,1099.78 "></polyline>
<polyline clip-path="url(#clip820)" style="stroke:#000000; stroke-linecap:round; stroke-linejoin:round; stroke-width:4; stroke-opacity:1; fill:none" points="342.696,839.375 361.594,839.375 "></polyline>
<polyline clip-path="url(#clip820)" style="stroke:#000000; stroke-linecap:round; stroke-linejoin:round; stroke-width:4; stroke-opacity:1; fill:none" points="342.696,578.968 361.594,578.968 "></polyline>
<polyline clip-path="url(#clip820)" style="stroke:#000000; stroke-linecap:round; stroke-linejoin:round; stroke-width:4; stroke-opacity:1; fill:none" points="342.696,318.561 361.594,318.561 "></polyline>
<path clip-path="url(#clip820)" d="M189.197 1345.99 Q185.586 1345.99 183.757 1349.55 Q181.951 1353.09 181.951 1360.22 Q181.951 1367.33 183.757 1370.89 Q185.586 1374.44 189.197 1374.44 Q192.831 1374.44 194.636 1370.89 Q196.465 1367.33 196.465 1360.22 Q196.465 1353.09 194.636 1349.55 Q192.831 1345.99 189.197 1345.99 M189.197 1342.28 Q195.007 1342.28 198.062 1346.89 Q201.141 1351.47 201.141 1360.22 Q201.141 1368.95 198.062 1373.56 Q195.007 1378.14 189.197 1378.14 Q183.387 1378.14 180.308 1373.56 Q177.252 1368.95 177.252 1360.22 Q177.252 1351.47 180.308 1346.89 Q183.387 1342.28 189.197 1342.28 Z" fill="#000000" fill-rule="nonzero" fill-opacity="1"></path><path clip-path="url(#clip820)" d="M209.359 1371.59 L214.243 1371.59 L214.243 1377.47 L209.359 1377.47 L209.359 1371.59 Z" fill="#000000" fill-rule="nonzero" fill-opacity="1"></path><path clip-path="url(#clip820)" d="M234.428 1345.99 Q230.817 1345.99 228.988 1349.55 Q227.183 1353.09 227.183 1360.22 Q227.183 1367.33 228.988 1370.89 Q230.817 1374.44 234.428 1374.44 Q238.062 1374.44 239.868 1370.89 Q241.696 1367.33 241.696 1360.22 Q241.696 1353.09 239.868 1349.55 Q238.062 1345.99 234.428 1345.99 M234.428 1342.28 Q240.238 1342.28 243.294 1346.89 Q246.372 1351.47 246.372 1360.22 Q246.372 1368.95 243.294 1373.56 Q240.238 1378.14 234.428 1378.14 Q228.618 1378.14 225.539 1373.56 Q222.484 1368.95 222.484 1360.22 Q222.484 1351.47 225.539 1346.89 Q228.618 1342.28 234.428 1342.28 Z" fill="#000000" fill-rule="nonzero" fill-opacity="1"></path><path clip-path="url(#clip820)" d="M264.59 1345.99 Q260.979 1345.99 259.15 1349.55 Q257.344 1353.09 257.344 1360.22 Q257.344 1367.33 259.15 1370.89 Q260.979 1374.44 264.59 1374.44 Q268.224 1374.44 270.03 1370.89 Q271.858 1367.33 271.858 1360.22 Q271.858 1353.09 270.03 1349.55 Q268.224 1345.99 264.59 1345.99 M264.59 1342.28 Q270.4 1342.28 273.455 1346.89 Q276.534 1351.47 276.534 1360.22 Q276.534 1368.95 273.455 1373.56 Q270.4 1378.14 264.59 1378.14 Q258.78 1378.14 255.701 1373.56 Q252.645 1368.95 252.645 1360.22 Q252.645 1351.47 255.701 1346.89 Q258.78 1342.28 264.59 1342.28 Z" fill="#000000" fill-rule="nonzero" fill-opacity="1"></path><path clip-path="url(#clip820)" d="M294.752 1345.99 Q291.141 1345.99 289.312 1349.55 Q287.506 1353.09 287.506 1360.22 Q287.506 1367.33 289.312 1370.89 Q291.141 1374.44 294.752 1374.44 Q298.386 1374.44 300.191 1370.89 Q302.02 1367.33 302.02 1360.22 Q302.02 1353.09 300.191 1349.55 Q298.386 1345.99 294.752 1345.99 M294.752 1342.28 Q300.562 1342.28 303.617 1346.89 Q306.696 1351.47 306.696 1360.22 Q306.696 1368.95 303.617 1373.56 Q300.562 1378.14 294.752 1378.14 Q288.941 1378.14 285.863 1373.56 Q282.807 1368.95 282.807 1360.22 Q282.807 1351.47 285.863 1346.89 Q288.941 1342.28 294.752 1342.28 Z" fill="#000000" fill-rule="nonzero" fill-opacity="1"></path><path clip-path="url(#clip820)" d="M190.192 1085.58 Q186.581 1085.58 184.752 1089.14 Q182.947 1092.69 182.947 1099.82 Q182.947 1106.92 184.752 1110.49 Q186.581 1114.03 190.192 1114.03 Q193.826 1114.03 195.632 1110.49 Q197.461 1106.92 197.461 1099.82 Q197.461 1092.69 195.632 1089.14 Q193.826 1085.58 190.192 1085.58 M190.192 1081.88 Q196.002 1081.88 199.058 1086.48 Q202.136 1091.07 202.136 1099.82 Q202.136 1108.54 199.058 1113.15 Q196.002 1117.73 190.192 1117.73 Q184.382 1117.73 181.303 1113.15 Q178.248 1108.54 178.248 1099.82 Q178.248 1091.07 181.303 1086.48 Q184.382 1081.88 190.192 1081.88 Z" fill="#000000" fill-rule="nonzero" fill-opacity="1"></path><path clip-path="url(#clip820)" d="M210.354 1111.18 L215.238 1111.18 L215.238 1117.06 L210.354 1117.06 L210.354 1111.18 Z" fill="#000000" fill-rule="nonzero" fill-opacity="1"></path><path clip-path="url(#clip820)" d="M235.423 1085.58 Q231.812 1085.58 229.983 1089.14 Q228.178 1092.69 228.178 1099.82 Q228.178 1106.92 229.983 1110.49 Q231.812 1114.03 235.423 1114.03 Q239.058 1114.03 240.863 1110.49 Q242.692 1106.92 242.692 1099.82 Q242.692 1092.69 240.863 1089.14 Q239.058 1085.58 235.423 1085.58 M235.423 1081.88 Q241.233 1081.88 244.289 1086.48 Q247.368 1091.07 247.368 1099.82 Q247.368 1108.54 244.289 1113.15 Q241.233 1117.73 235.423 1117.73 Q229.613 1117.73 226.534 1113.15 Q223.479 1108.54 223.479 1099.82 Q223.479 1091.07 226.534 1086.48 Q229.613 1081.88 235.423 1081.88 Z" fill="#000000" fill-rule="nonzero" fill-opacity="1"></path><path clip-path="url(#clip820)" d="M259.613 1113.13 L275.932 1113.13 L275.932 1117.06 L253.988 1117.06 L253.988 1113.13 Q256.65 1110.37 261.233 1105.74 Q265.84 1101.09 267.02 1099.75 Q269.266 1097.22 270.145 1095.49 Q271.048 1093.73 271.048 1092.04 Q271.048 1089.28 269.104 1087.55 Q267.182 1085.81 264.081 1085.81 Q261.881 1085.81 259.428 1086.58 Q256.997 1087.34 254.219 1088.89 L254.219 1084.17 Q257.044 1083.03 259.497 1082.45 Q261.951 1081.88 263.988 1081.88 Q269.358 1081.88 272.553 1084.56 Q275.747 1087.25 275.747 1091.74 Q275.747 1093.87 274.937 1095.79 Q274.15 1097.69 272.043 1100.28 Q271.465 1100.95 268.363 1104.17 Q265.261 1107.36 259.613 1113.13 Z" fill="#000000" fill-rule="nonzero" fill-opacity="1"></path><path clip-path="url(#clip820)" d="M285.793 1082.5 L304.15 1082.5 L304.15 1086.44 L290.076 1086.44 L290.076 1094.91 Q291.094 1094.56 292.113 1094.4 Q293.131 1094.21 294.15 1094.21 Q299.937 1094.21 303.316 1097.39 Q306.696 1100.56 306.696 1105.97 Q306.696 1111.55 303.224 1114.65 Q299.752 1117.73 293.432 1117.73 Q291.256 1117.73 288.988 1117.36 Q286.742 1116.99 284.335 1116.25 L284.335 1111.55 Q286.418 1112.69 288.641 1113.24 Q290.863 1113.8 293.34 1113.8 Q297.344 1113.8 299.682 1111.69 Q302.02 1109.58 302.02 1105.97 Q302.02 1102.36 299.682 1100.26 Q297.344 1098.15 293.34 1098.15 Q291.465 1098.15 289.59 1098.57 Q287.738 1098.98 285.793 1099.86 L285.793 1082.5 Z" fill="#000000" fill-rule="nonzero" fill-opacity="1"></path><path clip-path="url(#clip820)" d="M189.197 825.173 Q185.586 825.173 183.757 828.738 Q181.951 832.28 181.951 839.409 Q181.951 846.516 183.757 850.081 Q185.586 853.622 189.197 853.622 Q192.831 853.622 194.636 850.081 Q196.465 846.516 196.465 839.409 Q196.465 832.28 194.636 828.738 Q192.831 825.173 189.197 825.173 M189.197 821.47 Q195.007 821.47 198.062 826.076 Q201.141 830.659 201.141 839.409 Q201.141 848.136 198.062 852.743 Q195.007 857.326 189.197 857.326 Q183.387 857.326 180.308 852.743 Q177.252 848.136 177.252 839.409 Q177.252 830.659 180.308 826.076 Q183.387 821.47 189.197 821.47 Z" fill="#000000" fill-rule="nonzero" fill-opacity="1"></path><path clip-path="url(#clip820)" d="M209.359 850.775 L214.243 850.775 L214.243 856.655 L209.359 856.655 L209.359 850.775 Z" fill="#000000" fill-rule="nonzero" fill-opacity="1"></path><path clip-path="url(#clip820)" d="M234.428 825.173 Q230.817 825.173 228.988 828.738 Q227.183 832.28 227.183 839.409 Q227.183 846.516 228.988 850.081 Q230.817 853.622 234.428 853.622 Q238.062 853.622 239.868 850.081 Q241.696 846.516 241.696 839.409 Q241.696 832.28 239.868 828.738 Q238.062 825.173 234.428 825.173 M234.428 821.47 Q240.238 821.47 243.294 826.076 Q246.372 830.659 246.372 839.409 Q246.372 848.136 243.294 852.743 Q240.238 857.326 234.428 857.326 Q228.618 857.326 225.539 852.743 Q222.484 848.136 222.484 839.409 Q222.484 830.659 225.539 826.076 Q228.618 821.47 234.428 821.47 Z" fill="#000000" fill-rule="nonzero" fill-opacity="1"></path><path clip-path="url(#clip820)" d="M254.636 822.095 L272.993 822.095 L272.993 826.03 L258.919 826.03 L258.919 834.502 Q259.937 834.155 260.956 833.993 Q261.974 833.807 262.993 833.807 Q268.78 833.807 272.159 836.979 Q275.539 840.15 275.539 845.567 Q275.539 851.145 272.067 854.247 Q268.594 857.326 262.275 857.326 Q260.099 857.326 257.831 856.956 Q255.585 856.585 253.178 855.844 L253.178 851.145 Q255.261 852.28 257.483 852.835 Q259.706 853.391 262.182 853.391 Q266.187 853.391 268.525 851.284 Q270.863 849.178 270.863 845.567 Q270.863 841.956 268.525 839.849 Q266.187 837.743 262.182 837.743 Q260.307 837.743 258.432 838.159 Q256.581 838.576 254.636 839.456 L254.636 822.095 Z" fill="#000000" fill-rule="nonzero" fill-opacity="1"></path><path clip-path="url(#clip820)" d="M294.752 825.173 Q291.141 825.173 289.312 828.738 Q287.506 832.28 287.506 839.409 Q287.506 846.516 289.312 850.081 Q291.141 853.622 294.752 853.622 Q298.386 853.622 300.191 850.081 Q302.02 846.516 302.02 839.409 Q302.02 832.28 300.191 828.738 Q298.386 825.173 294.752 825.173 M294.752 821.47 Q300.562 821.47 303.617 826.076 Q306.696 830.659 306.696 839.409 Q306.696 848.136 303.617 852.743 Q300.562 857.326 294.752 857.326 Q288.941 857.326 285.863 852.743 Q282.807 848.136 282.807 839.409 Q282.807 830.659 285.863 826.076 Q288.941 821.47 294.752 821.47 Z" fill="#000000" fill-rule="nonzero" fill-opacity="1"></path><path clip-path="url(#clip820)" d="M190.192 564.767 Q186.581 564.767 184.752 568.332 Q182.947 571.873 182.947 579.003 Q182.947 586.109 184.752 589.674 Q186.581 593.216 190.192 593.216 Q193.826 593.216 195.632 589.674 Q197.461 586.109 197.461 579.003 Q197.461 571.873 195.632 568.332 Q193.826 564.767 190.192 564.767 M190.192 561.063 Q196.002 561.063 199.058 565.669 Q202.136 570.253 202.136 579.003 Q202.136 587.73 199.058 592.336 Q196.002 596.919 190.192 596.919 Q184.382 596.919 181.303 592.336 Q178.248 587.73 178.248 579.003 Q178.248 570.253 181.303 565.669 Q184.382 561.063 190.192 561.063 Z" fill="#000000" fill-rule="nonzero" fill-opacity="1"></path><path clip-path="url(#clip820)" d="M210.354 590.368 L215.238 590.368 L215.238 596.248 L210.354 596.248 L210.354 590.368 Z" fill="#000000" fill-rule="nonzero" fill-opacity="1"></path><path clip-path="url(#clip820)" d="M235.423 564.767 Q231.812 564.767 229.983 568.332 Q228.178 571.873 228.178 579.003 Q228.178 586.109 229.983 589.674 Q231.812 593.216 235.423 593.216 Q239.058 593.216 240.863 589.674 Q242.692 586.109 242.692 579.003 Q242.692 571.873 240.863 568.332 Q239.058 564.767 235.423 564.767 M235.423 561.063 Q241.233 561.063 244.289 565.669 Q247.368 570.253 247.368 579.003 Q247.368 587.73 244.289 592.336 Q241.233 596.919 235.423 596.919 Q229.613 596.919 226.534 592.336 Q223.479 587.73 223.479 579.003 Q223.479 570.253 226.534 565.669 Q229.613 561.063 235.423 561.063 Z" fill="#000000" fill-rule="nonzero" fill-opacity="1"></path><path clip-path="url(#clip820)" d="M254.405 561.688 L276.627 561.688 L276.627 563.679 L264.081 596.248 L259.196 596.248 L271.002 565.623 L254.405 565.623 L254.405 561.688 Z" fill="#000000" fill-rule="nonzero" fill-opacity="1"></path><path clip-path="url(#clip820)" d="M285.793 561.688 L304.15 561.688 L304.15 565.623 L290.076 565.623 L290.076 574.095 Q291.094 573.748 292.113 573.586 Q293.131 573.401 294.15 573.401 Q299.937 573.401 303.316 576.572 Q306.696 579.743 306.696 585.16 Q306.696 590.739 303.224 593.841 Q299.752 596.919 293.432 596.919 Q291.256 596.919 288.988 596.549 Q286.742 596.179 284.335 595.438 L284.335 590.739 Q286.418 591.873 288.641 592.429 Q290.863 592.984 293.34 592.984 Q297.344 592.984 299.682 590.878 Q302.02 588.771 302.02 585.16 Q302.02 581.549 299.682 579.443 Q297.344 577.336 293.34 577.336 Q291.465 577.336 289.59 577.753 Q287.738 578.169 285.793 579.049 L285.793 561.688 Z" fill="#000000" fill-rule="nonzero" fill-opacity="1"></path><path clip-path="url(#clip820)" d="M189.197 304.36 Q185.586 304.36 183.757 307.925 Q181.951 311.467 181.951 318.596 Q181.951 325.703 183.757 329.267 Q185.586 332.809 189.197 332.809 Q192.831 332.809 194.636 329.267 Q196.465 325.703 196.465 318.596 Q196.465 311.467 194.636 307.925 Q192.831 304.36 189.197 304.36 M189.197 300.656 Q195.007 300.656 198.062 305.263 Q201.141 309.846 201.141 318.596 Q201.141 327.323 198.062 331.929 Q195.007 336.513 189.197 336.513 Q183.387 336.513 180.308 331.929 Q177.252 327.323 177.252 318.596 Q177.252 309.846 180.308 305.263 Q183.387 300.656 189.197 300.656 Z" fill="#000000" fill-rule="nonzero" fill-opacity="1"></path><path clip-path="url(#clip820)" d="M209.359 329.962 L214.243 329.962 L214.243 335.841 L209.359 335.841 L209.359 329.962 Z" fill="#000000" fill-rule="nonzero" fill-opacity="1"></path><path clip-path="url(#clip820)" d="M225.238 331.906 L232.877 331.906 L232.877 305.541 L224.567 307.207 L224.567 302.948 L232.831 301.281 L237.507 301.281 L237.507 331.906 L245.145 331.906 L245.145 335.841 L225.238 335.841 L225.238 331.906 Z" fill="#000000" fill-rule="nonzero" fill-opacity="1"></path><path clip-path="url(#clip820)" d="M264.59 304.36 Q260.979 304.36 259.15 307.925 Q257.344 311.467 257.344 318.596 Q257.344 325.703 259.15 329.267 Q260.979 332.809 264.59 332.809 Q268.224 332.809 270.03 329.267 Q271.858 325.703 271.858 318.596 Q271.858 311.467 270.03 307.925 Q268.224 304.36 264.59 304.36 M264.59 300.656 Q270.4 300.656 273.455 305.263 Q276.534 309.846 276.534 318.596 Q276.534 327.323 273.455 331.929 Q270.4 336.513 264.59 336.513 Q258.78 336.513 255.701 331.929 Q252.645 327.323 252.645 318.596 Q252.645 309.846 255.701 305.263 Q258.78 300.656 264.59 300.656 Z" fill="#000000" fill-rule="nonzero" fill-opacity="1"></path><path clip-path="url(#clip820)" d="M294.752 304.36 Q291.141 304.36 289.312 307.925 Q287.506 311.467 287.506 318.596 Q287.506 325.703 289.312 329.267 Q291.141 332.809 294.752 332.809 Q298.386 332.809 300.191 329.267 Q302.02 325.703 302.02 318.596 Q302.02 311.467 300.191 307.925 Q298.386 304.36 294.752 304.36 M294.752 300.656 Q300.562 300.656 303.617 305.263 Q306.696 309.846 306.696 318.596 Q306.696 327.323 303.617 331.929 Q300.562 336.513 294.752 336.513 Q288.941 336.513 285.863 331.929 Q282.807 327.323 282.807 318.596 Q282.807 309.846 285.863 305.263 Q288.941 300.656 294.752 300.656 Z" fill="#000000" fill-rule="nonzero" fill-opacity="1"></path><path clip-path="url(#clip820)" d="M84.7598 896.901 L102.616 896.901 L102.616 888.816 Q102.616 884.329 100.292 881.878 Q97.9687 879.427 93.6718 879.427 Q89.4068 879.427 87.0833 881.878 Q84.7598 884.329 84.7598 888.816 L84.7598 896.901 M79.4763 903.33 L79.4763 888.816 Q79.4763 880.828 83.1047 876.753 Q86.7014 872.648 93.6718 872.648 Q100.706 872.648 104.303 876.753 Q107.899 880.828 107.899 888.816 L107.899 896.901 L126.996 896.901 L126.996 903.33 L79.4763 903.33 Z" fill="#000000" fill-rule="nonzero" fill-opacity="1"></path><path clip-path="url(#clip820)" d="M96.8228 844.766 Q96.2499 845.752 95.9953 846.93 Q95.7088 848.076 95.7088 849.476 Q95.7088 854.442 98.9553 857.115 Q102.17 859.757 108.217 859.757 L126.996 859.757 L126.996 865.645 L91.3483 865.645 L91.3483 859.757 L96.8865 859.757 Q93.64 857.911 92.0804 854.951 Q90.489 851.991 90.489 847.758 Q90.489 847.153 90.5844 846.421 Q90.6481 845.689 90.8072 844.798 L96.8228 844.766 Z" fill="#000000" fill-rule="nonzero" fill-opacity="1"></path><path clip-path="url(#clip820)" d="M95.4542 826.242 Q95.4542 830.952 99.1463 833.689 Q102.807 836.427 109.204 836.427 Q115.602 836.427 119.294 833.721 Q122.954 830.984 122.954 826.242 Q122.954 821.563 119.262 818.826 Q115.57 816.088 109.204 816.088 Q102.87 816.088 99.1781 818.826 Q95.4542 821.563 95.4542 826.242 M90.489 826.242 Q90.489 818.603 95.4542 814.242 Q100.419 809.882 109.204 809.882 Q117.957 809.882 122.954 814.242 Q127.919 818.603 127.919 826.242 Q127.919 833.912 122.954 838.273 Q117.957 842.601 109.204 842.601 Q100.419 842.601 95.4542 838.273 Q90.489 833.912 90.489 826.242 Z" fill="#000000" fill-rule="nonzero" fill-opacity="1"></path><path clip-path="url(#clip820)" d="M109.204 774.584 Q102.743 774.584 99.0827 777.257 Q95.3906 779.899 95.3906 784.546 Q95.3906 789.193 99.0827 791.867 Q102.743 794.509 109.204 794.509 Q115.665 794.509 119.357 791.867 Q123.018 789.193 123.018 784.546 Q123.018 779.899 119.357 777.257 Q115.665 774.584 109.204 774.584 M96.7592 794.509 Q93.5763 792.662 92.0486 789.862 Q90.489 787.029 90.489 783.114 Q90.489 776.621 95.6452 772.579 Q100.801 768.505 109.204 768.505 Q117.607 768.505 122.763 772.579 Q127.919 776.621 127.919 783.114 Q127.919 787.029 126.392 789.862 Q124.832 792.662 121.649 794.509 L126.996 794.509 L126.996 800.397 L77.4711 800.397 L77.4711 794.509 L96.7592 794.509 Z" fill="#000000" fill-rule="nonzero" fill-opacity="1"></path><path clip-path="url(#clip820)" d="M109.077 742.596 Q109.077 749.694 110.7 752.431 Q112.323 755.168 116.238 755.168 Q119.357 755.168 121.203 753.131 Q123.018 751.063 123.018 747.53 Q123.018 742.66 119.58 739.732 Q116.111 736.772 110.382 736.772 L109.077 736.772 L109.077 742.596 M106.658 730.915 L126.996 730.915 L126.996 736.772 L121.585 736.772 Q124.832 738.777 126.392 741.769 Q127.919 744.761 127.919 749.089 Q127.919 754.564 124.864 757.81 Q121.776 761.025 116.62 761.025 Q110.605 761.025 107.549 757.015 Q104.494 752.972 104.494 744.983 L104.494 736.772 L103.921 736.772 Q99.8784 736.772 97.6822 739.445 Q95.4542 742.087 95.4542 746.893 Q95.4542 749.949 96.1863 752.845 Q96.9183 755.741 98.3824 758.415 L92.9716 758.415 Q91.7303 755.2 91.1255 752.177 Q90.489 749.153 90.489 746.288 Q90.489 738.554 94.4994 734.735 Q98.5097 730.915 106.658 730.915 Z" fill="#000000" fill-rule="nonzero" fill-opacity="1"></path><path clip-path="url(#clip820)" d="M109.204 693.262 Q102.743 693.262 99.0827 695.936 Q95.3906 698.577 95.3906 703.224 Q95.3906 707.871 99.0827 710.545 Q102.743 713.187 109.204 713.187 Q115.665 713.187 119.357 710.545 Q123.018 707.871 123.018 703.224 Q123.018 698.577 119.357 695.936 Q115.665 693.262 109.204 693.262 M96.7592 713.187 Q93.5763 711.341 92.0486 708.54 Q90.489 705.707 90.489 701.792 Q90.489 695.299 95.6452 691.257 Q100.801 687.183 109.204 687.183 Q117.607 687.183 122.763 691.257 Q127.919 695.299 127.919 701.792 Q127.919 705.707 126.392 708.54 Q124.832 711.341 121.649 713.187 L126.996 713.187 L126.996 719.075 L77.4711 719.075 L77.4711 713.187 L96.7592 713.187 Z" fill="#000000" fill-rule="nonzero" fill-opacity="1"></path><path clip-path="url(#clip820)" d="M91.3483 677.475 L91.3483 671.619 L126.996 671.619 L126.996 677.475 L91.3483 677.475 M77.4711 677.475 L77.4711 671.619 L84.8871 671.619 L84.8871 677.475 L77.4711 677.475 Z" fill="#000000" fill-rule="nonzero" fill-opacity="1"></path><path clip-path="url(#clip820)" d="M77.4711 659.365 L77.4711 653.508 L126.996 653.508 L126.996 659.365 L77.4711 659.365 Z" fill="#000000" fill-rule="nonzero" fill-opacity="1"></path><path clip-path="url(#clip820)" d="M91.3483 641.254 L91.3483 635.398 L126.996 635.398 L126.996 641.254 L91.3483 641.254 M77.4711 641.254 L77.4711 635.398 L84.8871 635.398 L84.8871 641.254 L77.4711 641.254 Z" fill="#000000" fill-rule="nonzero" fill-opacity="1"></path><path clip-path="url(#clip820)" d="M81.2269 617.351 L91.3483 617.351 L91.3483 605.288 L95.8998 605.288 L95.8998 617.351 L115.252 617.351 Q119.612 617.351 120.853 616.173 Q122.095 614.964 122.095 611.303 L122.095 605.288 L126.996 605.288 L126.996 611.303 Q126.996 618.083 124.482 620.661 Q121.936 623.239 115.252 623.239 L95.8998 623.239 L95.8998 627.536 L91.3483 627.536 L91.3483 623.239 L81.2269 623.239 L81.2269 617.351 Z" fill="#000000" fill-rule="nonzero" fill-opacity="1"></path><path clip-path="url(#clip820)" d="M130.306 582.753 Q136.672 585.236 138.614 587.591 Q140.555 589.947 140.555 593.893 L140.555 598.572 L135.654 598.572 L135.654 595.135 Q135.654 592.716 134.508 591.379 Q133.362 590.042 129.097 588.419 L126.423 587.368 L91.3483 601.787 L91.3483 595.58 L119.23 584.44 L91.3483 573.3 L91.3483 567.094 L130.306 582.753 Z" fill="#000000" fill-rule="nonzero" fill-opacity="1"></path><circle clip-path="url(#clip822)" cx="1012" cy="696.203" r="14.4" fill="#009af9" fill-rule="evenodd" fill-opacity="0.5" stroke="#000000" stroke-opacity="0.5" stroke-width="3.2"></circle>
<circle clip-path="url(#clip822)" cx="1214.82" cy="779.201" r="14.4" fill="#009af9" fill-rule="evenodd" fill-opacity="0.5" stroke="#000000" stroke-opacity="0.5" stroke-width="3.2"></circle>
<circle clip-path="url(#clip822)" cx="1417.64" cy="281.212" r="14.4" fill="#009af9" fill-rule="evenodd" fill-opacity="0.5" stroke="#000000" stroke-opacity="0.5" stroke-width="3.2"></circle>
<circle clip-path="url(#clip822)" cx="1620.46" cy="1360.19" r="14.4" fill="#009af9" fill-rule="evenodd" fill-opacity="0.5" stroke="#000000" stroke-opacity="0.5" stroke-width="3.2"></circle>
<circle clip-path="url(#clip822)" cx="1823.28" cy="1360.19" r="14.4" fill="#009af9" fill-rule="evenodd" fill-opacity="0.5" stroke="#000000" stroke-opacity="0.5" stroke-width="3.2"></circle>
<circle clip-path="url(#clip822)" cx="2026.1" cy="1360.19" r="14.4" fill="#009af9" fill-rule="evenodd" fill-opacity="0.5" stroke="#000000" stroke-opacity="0.5" stroke-width="3.2"></circle>
<circle clip-path="url(#clip822)" cx="2228.92" cy="945.197" r="14.4" fill="#009af9" fill-rule="evenodd" fill-opacity="0.5" stroke="#000000" stroke-opacity="0.5" stroke-width="3.2"></circle>
<circle clip-path="url(#clip822)" cx="403.542" cy="115.216" r="14.4" fill="#e26f46" fill-rule="evenodd" fill-opacity="0.5" stroke="#000000" stroke-opacity="0.5" stroke-width="3.2"></circle>
<circle clip-path="url(#clip822)" cx="1012" cy="1028.2" r="14.4" fill="#e26f46" fill-rule="evenodd" fill-opacity="0.5" stroke="#000000" stroke-opacity="0.5" stroke-width="3.2"></circle>
<circle clip-path="url(#clip822)" cx="1620.46" cy="1360.19" r="14.4" fill="#e26f46" fill-rule="evenodd" fill-opacity="0.5" stroke="#000000" stroke-opacity="0.5" stroke-width="3.2"></circle>
<circle clip-path="url(#clip822)" cx="1823.28" cy="1360.19" r="14.4" fill="#e26f46" fill-rule="evenodd" fill-opacity="0.5" stroke="#000000" stroke-opacity="0.5" stroke-width="3.2"></circle>
<circle clip-path="url(#clip822)" cx="2026.1" cy="1360.19" r="14.4" fill="#e26f46" fill-rule="evenodd" fill-opacity="0.5" stroke="#000000" stroke-opacity="0.5" stroke-width="3.2"></circle>
<circle clip-path="url(#clip822)" cx="1012" cy="779.201" r="14.4" fill="#3da44d" fill-rule="evenodd" fill-opacity="0.5" stroke="#000000" stroke-opacity="0.5" stroke-width="3.2"></circle>
<circle clip-path="url(#clip822)" cx="1620.46" cy="1360.19" r="14.4" fill="#3da44d" fill-rule="evenodd" fill-opacity="0.5" stroke="#000000" stroke-opacity="0.5" stroke-width="3.2"></circle>
<circle clip-path="url(#clip822)" cx="1823.28" cy="1360.19" r="14.4" fill="#3da44d" fill-rule="evenodd" fill-opacity="0.5" stroke="#000000" stroke-opacity="0.5" stroke-width="3.2"></circle>
<circle clip-path="url(#clip822)" cx="2026.1" cy="1360.19" r="14.4" fill="#3da44d" fill-rule="evenodd" fill-opacity="0.5" stroke="#000000" stroke-opacity="0.5" stroke-width="3.2"></circle>
<circle clip-path="url(#clip822)" cx="2228.92" cy="654.704" r="14.4" fill="#3da44d" fill-rule="evenodd" fill-opacity="0.5" stroke="#000000" stroke-opacity="0.5" stroke-width="3.2"></circle>
<circle clip-path="url(#clip822)" cx="809.181" cy="779.201" r="14.4" fill="#c271d2" fill-rule="evenodd" fill-opacity="0.5" stroke="#000000" stroke-opacity="0.5" stroke-width="3.2"></circle>
<circle clip-path="url(#clip822)" cx="1214.82" cy="364.21" r="14.4" fill="#c271d2" fill-rule="evenodd" fill-opacity="0.5" stroke="#000000" stroke-opacity="0.5" stroke-width="3.2"></circle>
<circle clip-path="url(#clip822)" cx="1620.46" cy="1194.19" r="14.4" fill="#c271d2" fill-rule="evenodd" fill-opacity="0.5" stroke="#000000" stroke-opacity="0.5" stroke-width="3.2"></circle>
<circle clip-path="url(#clip822)" cx="1823.28" cy="1360.19" r="14.4" fill="#c271d2" fill-rule="evenodd" fill-opacity="0.5" stroke="#000000" stroke-opacity="0.5" stroke-width="3.2"></circle>
<circle clip-path="url(#clip822)" cx="2026.1" cy="1360.19" r="14.4" fill="#c271d2" fill-rule="evenodd" fill-opacity="0.5" stroke="#000000" stroke-opacity="0.5" stroke-width="3.2"></circle>
<circle clip-path="url(#clip822)" cx="403.542" cy="364.21" r="14.4" fill="#ac8d18" fill-rule="evenodd" fill-opacity="0.5" stroke="#000000" stroke-opacity="0.5" stroke-width="3.2"></circle>
<circle clip-path="url(#clip822)" cx="809.181" cy="1194.19" r="14.4" fill="#ac8d18" fill-rule="evenodd" fill-opacity="0.5" stroke="#000000" stroke-opacity="0.5" stroke-width="3.2"></circle>
<circle clip-path="url(#clip822)" cx="1214.82" cy="654.704" r="14.4" fill="#ac8d18" fill-rule="evenodd" fill-opacity="0.5" stroke="#000000" stroke-opacity="0.5" stroke-width="3.2"></circle>
<circle clip-path="url(#clip822)" cx="1620.46" cy="696.203" r="14.4" fill="#ac8d18" fill-rule="evenodd" fill-opacity="0.5" stroke="#000000" stroke-opacity="0.5" stroke-width="3.2"></circle>
<circle clip-path="url(#clip822)" cx="1823.28" cy="1277.19" r="14.4" fill="#ac8d18" fill-rule="evenodd" fill-opacity="0.5" stroke="#000000" stroke-opacity="0.5" stroke-width="3.2"></circle>
<circle clip-path="url(#clip822)" cx="2026.1" cy="1277.19" r="14.4" fill="#ac8d18" fill-rule="evenodd" fill-opacity="0.5" stroke="#000000" stroke-opacity="0.5" stroke-width="3.2"></circle>
<circle clip-path="url(#clip822)" cx="403.542" cy="447.209" r="14.4" fill="#00a9ad" fill-rule="evenodd" fill-opacity="0.5" stroke="#000000" stroke-opacity="0.5" stroke-width="3.2"></circle>
<circle clip-path="url(#clip822)" cx="606.361" cy="115.216" r="14.4" fill="#00a9ad" fill-rule="evenodd" fill-opacity="0.5" stroke="#000000" stroke-opacity="0.5" stroke-width="3.2"></circle>
<circle clip-path="url(#clip822)" cx="809.181" cy="1360.19" r="14.4" fill="#00a9ad" fill-rule="evenodd" fill-opacity="0.5" stroke="#000000" stroke-opacity="0.5" stroke-width="3.2"></circle>
<circle clip-path="url(#clip822)" cx="1620.46" cy="530.207" r="14.4" fill="#00a9ad" fill-rule="evenodd" fill-opacity="0.5" stroke="#000000" stroke-opacity="0.5" stroke-width="3.2"></circle>
<circle clip-path="url(#clip822)" cx="1823.28" cy="1277.19" r="14.4" fill="#00a9ad" fill-rule="evenodd" fill-opacity="0.5" stroke="#000000" stroke-opacity="0.5" stroke-width="3.2"></circle>
<circle clip-path="url(#clip822)" cx="2026.1" cy="364.21" r="14.4" fill="#00a9ad" fill-rule="evenodd" fill-opacity="0.5" stroke="#000000" stroke-opacity="0.5" stroke-width="3.2"></circle>
<circle clip-path="url(#clip822)" cx="403.542" cy="530.207" r="14.4" fill="#ed5d92" fill-rule="evenodd" fill-opacity="0.5" stroke="#000000" stroke-opacity="0.5" stroke-width="3.2"></circle>
<circle clip-path="url(#clip822)" cx="606.361" cy="779.201" r="14.4" fill="#ed5d92" fill-rule="evenodd" fill-opacity="0.5" stroke="#000000" stroke-opacity="0.5" stroke-width="3.2"></circle>
<circle clip-path="url(#clip822)" cx="809.181" cy="1360.19" r="14.4" fill="#ed5d92" fill-rule="evenodd" fill-opacity="0.5" stroke="#000000" stroke-opacity="0.5" stroke-width="3.2"></circle>
<circle clip-path="url(#clip822)" cx="1012" cy="198.214" r="14.4" fill="#ed5d92" fill-rule="evenodd" fill-opacity="0.5" stroke="#000000" stroke-opacity="0.5" stroke-width="3.2"></circle>
<circle clip-path="url(#clip822)" cx="1417.64" cy="945.197" r="14.4" fill="#ed5d92" fill-rule="evenodd" fill-opacity="0.5" stroke="#000000" stroke-opacity="0.5" stroke-width="3.2"></circle>
<circle clip-path="url(#clip822)" cx="1823.28" cy="696.203" r="14.4" fill="#ed5d92" fill-rule="evenodd" fill-opacity="0.5" stroke="#000000" stroke-opacity="0.5" stroke-width="3.2"></circle>
<circle clip-path="url(#clip822)" cx="403.542" cy="447.209" r="14.4" fill="#c68125" fill-rule="evenodd" fill-opacity="0.5" stroke="#000000" stroke-opacity="0.5" stroke-width="3.2"></circle>
<circle clip-path="url(#clip822)" cx="606.361" cy="1360.19" r="14.4" fill="#c68125" fill-rule="evenodd" fill-opacity="0.5" stroke="#000000" stroke-opacity="0.5" stroke-width="3.2"></circle>
<circle clip-path="url(#clip822)" cx="809.181" cy="1360.19" r="14.4" fill="#c68125" fill-rule="evenodd" fill-opacity="0.5" stroke="#000000" stroke-opacity="0.5" stroke-width="3.2"></circle>
<circle clip-path="url(#clip822)" cx="1012" cy="779.201" r="14.4" fill="#c68125" fill-rule="evenodd" fill-opacity="0.5" stroke="#000000" stroke-opacity="0.5" stroke-width="3.2"></circle>
<circle clip-path="url(#clip822)" cx="1417.64" cy="1277.19" r="14.4" fill="#c68125" fill-rule="evenodd" fill-opacity="0.5" stroke="#000000" stroke-opacity="0.5" stroke-width="3.2"></circle>
<circle clip-path="url(#clip822)" cx="2228.92" cy="820.7" r="14.4" fill="#c68125" fill-rule="evenodd" fill-opacity="0.5" stroke="#000000" stroke-opacity="0.5" stroke-width="3.2"></circle>
<circle clip-path="url(#clip822)" cx="403.542" cy="779.201" r="14.4" fill="#00a98d" fill-rule="evenodd" fill-opacity="0.5" stroke="#000000" stroke-opacity="0.5" stroke-width="3.2"></circle>
<circle clip-path="url(#clip822)" cx="606.361" cy="1360.19" r="14.4" fill="#00a98d" fill-rule="evenodd" fill-opacity="0.5" stroke="#000000" stroke-opacity="0.5" stroke-width="3.2"></circle>
<circle clip-path="url(#clip822)" cx="809.181" cy="1360.19" r="14.4" fill="#00a98d" fill-rule="evenodd" fill-opacity="0.5" stroke="#000000" stroke-opacity="0.5" stroke-width="3.2"></circle>
<circle clip-path="url(#clip822)" cx="1012" cy="862.199" r="14.4" fill="#00a98d" fill-rule="evenodd" fill-opacity="0.5" stroke="#000000" stroke-opacity="0.5" stroke-width="3.2"></circle>
<circle clip-path="url(#clip822)" cx="1214.82" cy="696.203" r="14.4" fill="#00a98d" fill-rule="evenodd" fill-opacity="0.5" stroke="#000000" stroke-opacity="0.5" stroke-width="3.2"></circle>
<circle clip-path="url(#clip822)" cx="1417.64" cy="1360.19" r="14.4" fill="#00a98d" fill-rule="evenodd" fill-opacity="0.5" stroke="#000000" stroke-opacity="0.5" stroke-width="3.2"></circle>
<circle clip-path="url(#clip822)" cx="2228.92" cy="903.698" r="14.4" fill="#00a98d" fill-rule="evenodd" fill-opacity="0.5" stroke="#000000" stroke-opacity="0.5" stroke-width="3.2"></circle>
<circle clip-path="url(#clip822)" cx="403.542" cy="1360.19" r="14.4" fill="#8e971d" fill-rule="evenodd" fill-opacity="0.5" stroke="#000000" stroke-opacity="0.5" stroke-width="3.2"></circle>
<circle clip-path="url(#clip822)" cx="606.361" cy="1360.19" r="14.4" fill="#8e971d" fill-rule="evenodd" fill-opacity="0.5" stroke="#000000" stroke-opacity="0.5" stroke-width="3.2"></circle>
<circle clip-path="url(#clip822)" cx="809.181" cy="1360.19" r="14.4" fill="#8e971d" fill-rule="evenodd" fill-opacity="0.5" stroke="#000000" stroke-opacity="0.5" stroke-width="3.2"></circle>
<circle clip-path="url(#clip822)" cx="1012" cy="1028.2" r="14.4" fill="#8e971d" fill-rule="evenodd" fill-opacity="0.5" stroke="#000000" stroke-opacity="0.5" stroke-width="3.2"></circle>
<circle clip-path="url(#clip822)" cx="1214.82" cy="862.199" r="14.4" fill="#8e971d" fill-rule="evenodd" fill-opacity="0.5" stroke="#000000" stroke-opacity="0.5" stroke-width="3.2"></circle>
<circle clip-path="url(#clip822)" cx="1417.64" cy="1360.19" r="14.4" fill="#8e971d" fill-rule="evenodd" fill-opacity="0.5" stroke="#000000" stroke-opacity="0.5" stroke-width="3.2"></circle>
<circle clip-path="url(#clip822)" cx="2228.92" cy="488.708" r="14.4" fill="#8e971d" fill-rule="evenodd" fill-opacity="0.5" stroke="#000000" stroke-opacity="0.5" stroke-width="3.2"></circle>
<path clip-path="url(#clip820)" d="M1820.71 722.141 L2224.86 722.141 L2224.86 151.901 L1820.71 151.901  Z" fill="#ffffff" fill-rule="evenodd" fill-opacity="1"></path>
<polyline clip-path="url(#clip820)" style="stroke:#000000; stroke-linecap:round; stroke-linejoin:round; stroke-width:4; stroke-opacity:1; fill:none" points="1820.71,722.141 2224.86,722.141 2224.86,151.901 1820.71,151.901 1820.71,722.141 "></polyline>
<circle clip-path="url(#clip820)" cx="1907.25" cy="203.741" r="20.48" fill="#009af9" fill-rule="evenodd" fill-opacity="0.5" stroke="#000000" stroke-opacity="0.5" stroke-width="4.55111"></circle>
<path clip-path="url(#clip820)" d="M2010.17 204.818 Q2011.68 205.327 2013.09 206.994 Q2014.52 208.66 2015.96 211.577 L2020.71 221.021 L2015.68 221.021 L2011.26 212.156 Q2009.55 208.683 2007.93 207.549 Q2006.33 206.415 2003.55 206.415 L1998.46 206.415 L1998.46 221.021 L1993.78 221.021 L1993.78 186.461 L2004.34 186.461 Q2010.27 186.461 2013.18 188.938 Q2016.1 191.415 2016.1 196.415 Q2016.1 199.679 2014.57 201.832 Q2013.07 203.984 2010.17 204.818 M1998.46 190.304 L1998.46 202.572 L2004.34 202.572 Q2007.72 202.572 2009.43 201.021 Q2011.17 199.447 2011.17 196.415 Q2011.17 193.383 2009.43 191.855 Q2007.72 190.304 2004.34 190.304 L1998.46 190.304 Z" fill="#000000" fill-rule="nonzero" fill-opacity="1"></path><path clip-path="url(#clip820)" d="M2046.58 206.994 L2046.58 209.077 L2027 209.077 Q2027.28 213.475 2029.64 215.79 Q2032.02 218.081 2036.26 218.081 Q2038.71 218.081 2041.01 217.48 Q2043.32 216.878 2045.59 215.674 L2045.59 219.702 Q2043.3 220.674 2040.89 221.183 Q2038.48 221.693 2036.01 221.693 Q2029.8 221.693 2026.17 218.081 Q2022.56 214.47 2022.56 208.313 Q2022.56 201.947 2025.98 198.22 Q2029.43 194.47 2035.27 194.47 Q2040.5 194.47 2043.53 197.85 Q2046.58 201.207 2046.58 206.994 M2042.33 205.744 Q2042.28 202.248 2040.36 200.165 Q2038.46 198.082 2035.31 198.082 Q2031.75 198.082 2029.59 200.095 Q2027.46 202.109 2027.14 205.767 L2042.33 205.744 Z" fill="#000000" fill-rule="nonzero" fill-opacity="1"></path><path clip-path="url(#clip820)" d="M2057.7 217.132 L2057.7 230.882 L2053.41 230.882 L2053.41 195.095 L2057.7 195.095 L2057.7 199.031 Q2059.04 196.716 2061.08 195.605 Q2063.14 194.47 2065.98 194.47 Q2070.7 194.47 2073.64 198.22 Q2076.61 201.97 2076.61 208.082 Q2076.61 214.193 2073.64 217.943 Q2070.7 221.693 2065.98 221.693 Q2063.14 221.693 2061.08 220.581 Q2059.04 219.447 2057.7 217.132 M2072.19 208.082 Q2072.19 203.382 2070.24 200.72 Q2068.32 198.035 2064.94 198.035 Q2061.56 198.035 2059.62 200.72 Q2057.7 203.382 2057.7 208.082 Q2057.7 212.781 2059.62 215.466 Q2061.56 218.128 2064.94 218.128 Q2068.32 218.128 2070.24 215.466 Q2072.19 212.781 2072.19 208.082 Z" fill="#000000" fill-rule="nonzero" fill-opacity="1"></path><path clip-path="url(#clip820)" d="M2083.67 185.003 L2087.93 185.003 L2087.93 221.021 L2083.67 221.021 L2083.67 185.003 Z" fill="#000000" fill-rule="nonzero" fill-opacity="1"></path><path clip-path="url(#clip820)" d="M2096.84 195.095 L2101.1 195.095 L2101.1 221.021 L2096.84 221.021 L2096.84 195.095 M2096.84 185.003 L2101.1 185.003 L2101.1 190.396 L2096.84 190.396 L2096.84 185.003 Z" fill="#000000" fill-rule="nonzero" fill-opacity="1"></path><path clip-path="url(#clip820)" d="M2128.67 196.091 L2128.67 200.072 Q2126.86 199.077 2125.03 198.591 Q2123.23 198.082 2121.38 198.082 Q2117.23 198.082 2114.94 200.72 Q2112.65 203.336 2112.65 208.082 Q2112.65 212.827 2114.94 215.466 Q2117.23 218.081 2121.38 218.081 Q2123.23 218.081 2125.03 217.595 Q2126.86 217.086 2128.67 216.091 L2128.67 220.026 Q2126.89 220.859 2124.96 221.276 Q2123.07 221.693 2120.91 221.693 Q2115.06 221.693 2111.61 218.012 Q2108.16 214.331 2108.16 208.082 Q2108.16 201.739 2111.63 198.105 Q2115.13 194.47 2121.19 194.47 Q2123.16 194.47 2125.03 194.887 Q2126.91 195.281 2128.67 196.091 Z" fill="#000000" fill-rule="nonzero" fill-opacity="1"></path><path clip-path="url(#clip820)" d="M2147.86 207.989 Q2142.7 207.989 2140.7 209.169 Q2138.71 210.35 2138.71 213.197 Q2138.71 215.466 2140.2 216.808 Q2141.7 218.128 2144.27 218.128 Q2147.81 218.128 2149.94 215.628 Q2152.09 213.105 2152.09 208.938 L2152.09 207.989 L2147.86 207.989 M2156.35 206.23 L2156.35 221.021 L2152.09 221.021 L2152.09 217.086 Q2150.64 219.447 2148.46 220.581 Q2146.28 221.693 2143.14 221.693 Q2139.15 221.693 2136.79 219.47 Q2134.45 217.225 2134.45 213.475 Q2134.45 209.1 2137.37 206.878 Q2140.31 204.656 2146.12 204.656 L2152.09 204.656 L2152.09 204.239 Q2152.09 201.299 2150.15 199.702 Q2148.23 198.082 2144.73 198.082 Q2142.51 198.082 2140.4 198.614 Q2138.3 199.146 2136.35 200.211 L2136.35 196.276 Q2138.69 195.373 2140.89 194.933 Q2143.09 194.47 2145.17 194.47 Q2150.8 194.47 2153.57 197.387 Q2156.35 200.304 2156.35 206.23 Z" fill="#000000" fill-rule="nonzero" fill-opacity="1"></path><path clip-path="url(#clip820)" d="M2190.8 189.54 Q2187.19 189.54 2185.36 193.105 Q2183.55 196.646 2183.55 203.776 Q2183.55 210.882 2185.36 214.447 Q2187.19 217.989 2190.8 217.989 Q2194.43 217.989 2196.24 214.447 Q2198.07 210.882 2198.07 203.776 Q2198.07 196.646 2196.24 193.105 Q2194.43 189.54 2190.8 189.54 M2190.8 185.836 Q2196.61 185.836 2199.66 190.443 Q2202.74 195.026 2202.74 203.776 Q2202.74 212.503 2199.66 217.109 Q2196.61 221.693 2190.8 221.693 Q2184.99 221.693 2181.91 217.109 Q2178.85 212.503 2178.85 203.776 Q2178.85 195.026 2181.91 190.443 Q2184.99 185.836 2190.8 185.836 Z" fill="#000000" fill-rule="nonzero" fill-opacity="1"></path><circle clip-path="url(#clip820)" cx="1907.25" cy="255.581" r="20.48" fill="#e26f46" fill-rule="evenodd" fill-opacity="0.5" stroke="#000000" stroke-opacity="0.5" stroke-width="4.55111"></circle>
<path clip-path="url(#clip820)" d="M2010.17 256.658 Q2011.68 257.167 2013.09 258.834 Q2014.52 260.5 2015.96 263.417 L2020.71 272.861 L2015.68 272.861 L2011.26 263.996 Q2009.55 260.523 2007.93 259.389 Q2006.33 258.255 2003.55 258.255 L1998.46 258.255 L1998.46 272.861 L1993.78 272.861 L1993.78 238.301 L2004.34 238.301 Q2010.27 238.301 2013.18 240.778 Q2016.1 243.255 2016.1 248.255 Q2016.1 251.519 2014.57 253.672 Q2013.07 255.824 2010.17 256.658 M1998.46 242.144 L1998.46 254.412 L2004.34 254.412 Q2007.72 254.412 2009.43 252.861 Q2011.17 251.287 2011.17 248.255 Q2011.17 245.223 2009.43 243.695 Q2007.72 242.144 2004.34 242.144 L1998.46 242.144 Z" fill="#000000" fill-rule="nonzero" fill-opacity="1"></path><path clip-path="url(#clip820)" d="M2046.58 258.834 L2046.58 260.917 L2027 260.917 Q2027.28 265.315 2029.64 267.63 Q2032.02 269.921 2036.26 269.921 Q2038.71 269.921 2041.01 269.32 Q2043.32 268.718 2045.59 267.514 L2045.59 271.542 Q2043.3 272.514 2040.89 273.023 Q2038.48 273.533 2036.01 273.533 Q2029.8 273.533 2026.17 269.921 Q2022.56 266.31 2022.56 260.153 Q2022.56 253.787 2025.98 250.06 Q2029.43 246.31 2035.27 246.31 Q2040.5 246.31 2043.53 249.69 Q2046.58 253.047 2046.58 258.834 M2042.33 257.584 Q2042.28 254.088 2040.36 252.005 Q2038.46 249.922 2035.31 249.922 Q2031.75 249.922 2029.59 251.935 Q2027.46 253.949 2027.14 257.607 L2042.33 257.584 Z" fill="#000000" fill-rule="nonzero" fill-opacity="1"></path><path clip-path="url(#clip820)" d="M2057.7 268.972 L2057.7 282.722 L2053.41 282.722 L2053.41 246.935 L2057.7 246.935 L2057.7 250.871 Q2059.04 248.556 2061.08 247.445 Q2063.14 246.31 2065.98 246.31 Q2070.7 246.31 2073.64 250.06 Q2076.61 253.81 2076.61 259.922 Q2076.61 266.033 2073.64 269.783 Q2070.7 273.533 2065.98 273.533 Q2063.14 273.533 2061.08 272.421 Q2059.04 271.287 2057.7 268.972 M2072.19 259.922 Q2072.19 255.222 2070.24 252.56 Q2068.32 249.875 2064.94 249.875 Q2061.56 249.875 2059.62 252.56 Q2057.7 255.222 2057.7 259.922 Q2057.7 264.621 2059.62 267.306 Q2061.56 269.968 2064.94 269.968 Q2068.32 269.968 2070.24 267.306 Q2072.19 264.621 2072.19 259.922 Z" fill="#000000" fill-rule="nonzero" fill-opacity="1"></path><path clip-path="url(#clip820)" d="M2083.67 236.843 L2087.93 236.843 L2087.93 272.861 L2083.67 272.861 L2083.67 236.843 Z" fill="#000000" fill-rule="nonzero" fill-opacity="1"></path><path clip-path="url(#clip820)" d="M2096.84 246.935 L2101.1 246.935 L2101.1 272.861 L2096.84 272.861 L2096.84 246.935 M2096.84 236.843 L2101.1 236.843 L2101.1 242.236 L2096.84 242.236 L2096.84 236.843 Z" fill="#000000" fill-rule="nonzero" fill-opacity="1"></path><path clip-path="url(#clip820)" d="M2128.67 247.931 L2128.67 251.912 Q2126.86 250.917 2125.03 250.431 Q2123.23 249.922 2121.38 249.922 Q2117.23 249.922 2114.94 252.56 Q2112.65 255.176 2112.65 259.922 Q2112.65 264.667 2114.94 267.306 Q2117.23 269.921 2121.38 269.921 Q2123.23 269.921 2125.03 269.435 Q2126.86 268.926 2128.67 267.931 L2128.67 271.866 Q2126.89 272.699 2124.96 273.116 Q2123.07 273.533 2120.91 273.533 Q2115.06 273.533 2111.61 269.852 Q2108.16 266.171 2108.16 259.922 Q2108.16 253.579 2111.63 249.945 Q2115.13 246.31 2121.19 246.31 Q2123.16 246.31 2125.03 246.727 Q2126.91 247.121 2128.67 247.931 Z" fill="#000000" fill-rule="nonzero" fill-opacity="1"></path><path clip-path="url(#clip820)" d="M2147.86 259.829 Q2142.7 259.829 2140.7 261.009 Q2138.71 262.19 2138.71 265.037 Q2138.71 267.306 2140.2 268.648 Q2141.7 269.968 2144.27 269.968 Q2147.81 269.968 2149.94 267.468 Q2152.09 264.945 2152.09 260.778 L2152.09 259.829 L2147.86 259.829 M2156.35 258.07 L2156.35 272.861 L2152.09 272.861 L2152.09 268.926 Q2150.64 271.287 2148.46 272.421 Q2146.28 273.533 2143.14 273.533 Q2139.15 273.533 2136.79 271.31 Q2134.45 269.065 2134.45 265.315 Q2134.45 260.94 2137.37 258.718 Q2140.31 256.496 2146.12 256.496 L2152.09 256.496 L2152.09 256.079 Q2152.09 253.139 2150.15 251.542 Q2148.23 249.922 2144.73 249.922 Q2142.51 249.922 2140.4 250.454 Q2138.3 250.986 2136.35 252.051 L2136.35 248.116 Q2138.69 247.213 2140.89 246.773 Q2143.09 246.31 2145.17 246.31 Q2150.8 246.31 2153.57 249.227 Q2156.35 252.144 2156.35 258.07 Z" fill="#000000" fill-rule="nonzero" fill-opacity="1"></path><path clip-path="url(#clip820)" d="M2181.61 268.926 L2189.25 268.926 L2189.25 242.561 L2180.94 244.227 L2180.94 239.968 L2189.2 238.301 L2193.88 238.301 L2193.88 268.926 L2201.51 268.926 L2201.51 272.861 L2181.61 272.861 L2181.61 268.926 Z" fill="#000000" fill-rule="nonzero" fill-opacity="1"></path><circle clip-path="url(#clip820)" cx="1907.25" cy="307.421" r="20.48" fill="#3da44d" fill-rule="evenodd" fill-opacity="0.5" stroke="#000000" stroke-opacity="0.5" stroke-width="4.55111"></circle>
<path clip-path="url(#clip820)" d="M2010.17 308.498 Q2011.68 309.007 2013.09 310.674 Q2014.52 312.34 2015.96 315.257 L2020.71 324.701 L2015.68 324.701 L2011.26 315.836 Q2009.55 312.363 2007.93 311.229 Q2006.33 310.095 2003.55 310.095 L1998.46 310.095 L1998.46 324.701 L1993.78 324.701 L1993.78 290.141 L2004.34 290.141 Q2010.27 290.141 2013.18 292.618 Q2016.1 295.095 2016.1 300.095 Q2016.1 303.359 2014.57 305.512 Q2013.07 307.664 2010.17 308.498 M1998.46 293.984 L1998.46 306.252 L2004.34 306.252 Q2007.72 306.252 2009.43 304.701 Q2011.17 303.127 2011.17 300.095 Q2011.17 297.063 2009.43 295.535 Q2007.72 293.984 2004.34 293.984 L1998.46 293.984 Z" fill="#000000" fill-rule="nonzero" fill-opacity="1"></path><path clip-path="url(#clip820)" d="M2046.58 310.674 L2046.58 312.757 L2027 312.757 Q2027.28 317.155 2029.64 319.47 Q2032.02 321.761 2036.26 321.761 Q2038.71 321.761 2041.01 321.16 Q2043.32 320.558 2045.59 319.354 L2045.59 323.382 Q2043.3 324.354 2040.89 324.863 Q2038.48 325.373 2036.01 325.373 Q2029.8 325.373 2026.17 321.761 Q2022.56 318.15 2022.56 311.993 Q2022.56 305.627 2025.98 301.9 Q2029.43 298.15 2035.27 298.15 Q2040.5 298.15 2043.53 301.53 Q2046.58 304.887 2046.58 310.674 M2042.33 309.424 Q2042.28 305.928 2040.36 303.845 Q2038.46 301.762 2035.31 301.762 Q2031.75 301.762 2029.59 303.775 Q2027.46 305.789 2027.14 309.447 L2042.33 309.424 Z" fill="#000000" fill-rule="nonzero" fill-opacity="1"></path><path clip-path="url(#clip820)" d="M2057.7 320.812 L2057.7 334.562 L2053.41 334.562 L2053.41 298.775 L2057.7 298.775 L2057.7 302.711 Q2059.04 300.396 2061.08 299.285 Q2063.14 298.15 2065.98 298.15 Q2070.7 298.15 2073.64 301.9 Q2076.61 305.65 2076.61 311.762 Q2076.61 317.873 2073.64 321.623 Q2070.7 325.373 2065.98 325.373 Q2063.14 325.373 2061.08 324.261 Q2059.04 323.127 2057.7 320.812 M2072.19 311.762 Q2072.19 307.062 2070.24 304.4 Q2068.32 301.715 2064.94 301.715 Q2061.56 301.715 2059.62 304.4 Q2057.7 307.062 2057.7 311.762 Q2057.7 316.461 2059.62 319.146 Q2061.56 321.808 2064.94 321.808 Q2068.32 321.808 2070.24 319.146 Q2072.19 316.461 2072.19 311.762 Z" fill="#000000" fill-rule="nonzero" fill-opacity="1"></path><path clip-path="url(#clip820)" d="M2083.67 288.683 L2087.93 288.683 L2087.93 324.701 L2083.67 324.701 L2083.67 288.683 Z" fill="#000000" fill-rule="nonzero" fill-opacity="1"></path><path clip-path="url(#clip820)" d="M2096.84 298.775 L2101.1 298.775 L2101.1 324.701 L2096.84 324.701 L2096.84 298.775 M2096.84 288.683 L2101.1 288.683 L2101.1 294.076 L2096.84 294.076 L2096.84 288.683 Z" fill="#000000" fill-rule="nonzero" fill-opacity="1"></path><path clip-path="url(#clip820)" d="M2128.67 299.771 L2128.67 303.752 Q2126.86 302.757 2125.03 302.271 Q2123.23 301.762 2121.38 301.762 Q2117.23 301.762 2114.94 304.4 Q2112.65 307.016 2112.65 311.762 Q2112.65 316.507 2114.94 319.146 Q2117.23 321.761 2121.38 321.761 Q2123.23 321.761 2125.03 321.275 Q2126.86 320.766 2128.67 319.771 L2128.67 323.706 Q2126.89 324.539 2124.96 324.956 Q2123.07 325.373 2120.91 325.373 Q2115.06 325.373 2111.61 321.692 Q2108.16 318.011 2108.16 311.762 Q2108.16 305.419 2111.63 301.785 Q2115.13 298.15 2121.19 298.15 Q2123.16 298.15 2125.03 298.567 Q2126.91 298.961 2128.67 299.771 Z" fill="#000000" fill-rule="nonzero" fill-opacity="1"></path><path clip-path="url(#clip820)" d="M2147.86 311.669 Q2142.7 311.669 2140.7 312.849 Q2138.71 314.03 2138.71 316.877 Q2138.71 319.146 2140.2 320.488 Q2141.7 321.808 2144.27 321.808 Q2147.81 321.808 2149.94 319.308 Q2152.09 316.785 2152.09 312.618 L2152.09 311.669 L2147.86 311.669 M2156.35 309.91 L2156.35 324.701 L2152.09 324.701 L2152.09 320.766 Q2150.64 323.127 2148.46 324.261 Q2146.28 325.373 2143.14 325.373 Q2139.15 325.373 2136.79 323.15 Q2134.45 320.905 2134.45 317.155 Q2134.45 312.78 2137.37 310.558 Q2140.31 308.336 2146.12 308.336 L2152.09 308.336 L2152.09 307.919 Q2152.09 304.979 2150.15 303.382 Q2148.23 301.762 2144.73 301.762 Q2142.51 301.762 2140.4 302.294 Q2138.3 302.826 2136.35 303.891 L2136.35 299.956 Q2138.69 299.053 2140.89 298.613 Q2143.09 298.15 2145.17 298.15 Q2150.8 298.15 2153.57 301.067 Q2156.35 303.984 2156.35 309.91 Z" fill="#000000" fill-rule="nonzero" fill-opacity="1"></path><path clip-path="url(#clip820)" d="M2184.82 320.766 L2201.14 320.766 L2201.14 324.701 L2179.2 324.701 L2179.2 320.766 Q2181.86 318.011 2186.45 313.382 Q2191.05 308.729 2192.23 307.387 Q2194.48 304.863 2195.36 303.127 Q2196.26 301.368 2196.26 299.678 Q2196.26 296.924 2194.32 295.188 Q2192.39 293.451 2189.29 293.451 Q2187.09 293.451 2184.64 294.215 Q2182.21 294.979 2179.43 296.53 L2179.43 291.808 Q2182.26 290.674 2184.71 290.095 Q2187.16 289.516 2189.2 289.516 Q2194.57 289.516 2197.76 292.201 Q2200.96 294.887 2200.96 299.377 Q2200.96 301.507 2200.15 303.428 Q2199.36 305.326 2197.26 307.919 Q2196.68 308.59 2193.57 311.808 Q2190.47 315.002 2184.82 320.766 Z" fill="#000000" fill-rule="nonzero" fill-opacity="1"></path><circle clip-path="url(#clip820)" cx="1907.25" cy="359.261" r="20.48" fill="#c271d2" fill-rule="evenodd" fill-opacity="0.5" stroke="#000000" stroke-opacity="0.5" stroke-width="4.55111"></circle>
<path clip-path="url(#clip820)" d="M2010.17 360.338 Q2011.68 360.847 2013.09 362.514 Q2014.52 364.18 2015.96 367.097 L2020.71 376.541 L2015.68 376.541 L2011.26 367.676 Q2009.55 364.203 2007.93 363.069 Q2006.33 361.935 2003.55 361.935 L1998.46 361.935 L1998.46 376.541 L1993.78 376.541 L1993.78 341.981 L2004.34 341.981 Q2010.27 341.981 2013.18 344.458 Q2016.1 346.935 2016.1 351.935 Q2016.1 355.199 2014.57 357.352 Q2013.07 359.504 2010.17 360.338 M1998.46 345.824 L1998.46 358.092 L2004.34 358.092 Q2007.72 358.092 2009.43 356.541 Q2011.17 354.967 2011.17 351.935 Q2011.17 348.903 2009.43 347.375 Q2007.72 345.824 2004.34 345.824 L1998.46 345.824 Z" fill="#000000" fill-rule="nonzero" fill-opacity="1"></path><path clip-path="url(#clip820)" d="M2046.58 362.514 L2046.58 364.597 L2027 364.597 Q2027.28 368.995 2029.64 371.31 Q2032.02 373.601 2036.26 373.601 Q2038.71 373.601 2041.01 373 Q2043.32 372.398 2045.59 371.194 L2045.59 375.222 Q2043.3 376.194 2040.89 376.703 Q2038.48 377.213 2036.01 377.213 Q2029.8 377.213 2026.17 373.601 Q2022.56 369.99 2022.56 363.833 Q2022.56 357.467 2025.98 353.74 Q2029.43 349.99 2035.27 349.99 Q2040.5 349.99 2043.53 353.37 Q2046.58 356.727 2046.58 362.514 M2042.33 361.264 Q2042.28 357.768 2040.36 355.685 Q2038.46 353.602 2035.31 353.602 Q2031.75 353.602 2029.59 355.615 Q2027.46 357.629 2027.14 361.287 L2042.33 361.264 Z" fill="#000000" fill-rule="nonzero" fill-opacity="1"></path><path clip-path="url(#clip820)" d="M2057.7 372.652 L2057.7 386.402 L2053.41 386.402 L2053.41 350.615 L2057.7 350.615 L2057.7 354.551 Q2059.04 352.236 2061.08 351.125 Q2063.14 349.99 2065.98 349.99 Q2070.7 349.99 2073.64 353.74 Q2076.61 357.49 2076.61 363.602 Q2076.61 369.713 2073.64 373.463 Q2070.7 377.213 2065.98 377.213 Q2063.14 377.213 2061.08 376.101 Q2059.04 374.967 2057.7 372.652 M2072.19 363.602 Q2072.19 358.902 2070.24 356.24 Q2068.32 353.555 2064.94 353.555 Q2061.56 353.555 2059.62 356.24 Q2057.7 358.902 2057.7 363.602 Q2057.7 368.301 2059.62 370.986 Q2061.56 373.648 2064.94 373.648 Q2068.32 373.648 2070.24 370.986 Q2072.19 368.301 2072.19 363.602 Z" fill="#000000" fill-rule="nonzero" fill-opacity="1"></path><path clip-path="url(#clip820)" d="M2083.67 340.523 L2087.93 340.523 L2087.93 376.541 L2083.67 376.541 L2083.67 340.523 Z" fill="#000000" fill-rule="nonzero" fill-opacity="1"></path><path clip-path="url(#clip820)" d="M2096.84 350.615 L2101.1 350.615 L2101.1 376.541 L2096.84 376.541 L2096.84 350.615 M2096.84 340.523 L2101.1 340.523 L2101.1 345.916 L2096.84 345.916 L2096.84 340.523 Z" fill="#000000" fill-rule="nonzero" fill-opacity="1"></path><path clip-path="url(#clip820)" d="M2128.67 351.611 L2128.67 355.592 Q2126.86 354.597 2125.03 354.111 Q2123.23 353.602 2121.38 353.602 Q2117.23 353.602 2114.94 356.24 Q2112.65 358.856 2112.65 363.602 Q2112.65 368.347 2114.94 370.986 Q2117.23 373.601 2121.38 373.601 Q2123.23 373.601 2125.03 373.115 Q2126.86 372.606 2128.67 371.611 L2128.67 375.546 Q2126.89 376.379 2124.96 376.796 Q2123.07 377.213 2120.91 377.213 Q2115.06 377.213 2111.61 373.532 Q2108.16 369.851 2108.16 363.602 Q2108.16 357.259 2111.63 353.625 Q2115.13 349.99 2121.19 349.99 Q2123.16 349.99 2125.03 350.407 Q2126.91 350.801 2128.67 351.611 Z" fill="#000000" fill-rule="nonzero" fill-opacity="1"></path><path clip-path="url(#clip820)" d="M2147.86 363.509 Q2142.7 363.509 2140.7 364.689 Q2138.71 365.87 2138.71 368.717 Q2138.71 370.986 2140.2 372.328 Q2141.7 373.648 2144.27 373.648 Q2147.81 373.648 2149.94 371.148 Q2152.09 368.625 2152.09 364.458 L2152.09 363.509 L2147.86 363.509 M2156.35 361.75 L2156.35 376.541 L2152.09 376.541 L2152.09 372.606 Q2150.64 374.967 2148.46 376.101 Q2146.28 377.213 2143.14 377.213 Q2139.15 377.213 2136.79 374.99 Q2134.45 372.745 2134.45 368.995 Q2134.45 364.62 2137.37 362.398 Q2140.31 360.176 2146.12 360.176 L2152.09 360.176 L2152.09 359.759 Q2152.09 356.819 2150.15 355.222 Q2148.23 353.602 2144.73 353.602 Q2142.51 353.602 2140.4 354.134 Q2138.3 354.666 2136.35 355.731 L2136.35 351.796 Q2138.69 350.893 2140.89 350.453 Q2143.09 349.99 2145.17 349.99 Q2150.8 349.99 2153.57 352.907 Q2156.35 355.824 2156.35 361.75 Z" fill="#000000" fill-rule="nonzero" fill-opacity="1"></path><path clip-path="url(#clip820)" d="M2194.96 357.907 Q2198.32 358.625 2200.2 360.893 Q2202.09 363.162 2202.09 366.495 Q2202.09 371.611 2198.57 374.412 Q2195.06 377.213 2188.57 377.213 Q2186.4 377.213 2184.08 376.773 Q2181.79 376.356 2179.34 375.5 L2179.34 370.986 Q2181.28 372.12 2183.6 372.699 Q2185.91 373.277 2188.44 373.277 Q2192.83 373.277 2195.13 371.541 Q2197.44 369.805 2197.44 366.495 Q2197.44 363.439 2195.29 361.727 Q2193.16 359.99 2189.34 359.99 L2185.31 359.99 L2185.31 356.148 L2189.52 356.148 Q2192.97 356.148 2194.8 354.782 Q2196.63 353.393 2196.63 350.801 Q2196.63 348.139 2194.73 346.727 Q2192.86 345.291 2189.34 345.291 Q2187.42 345.291 2185.22 345.708 Q2183.02 346.125 2180.38 347.004 L2180.38 342.838 Q2183.04 342.097 2185.36 341.727 Q2187.7 341.356 2189.76 341.356 Q2195.08 341.356 2198.18 343.787 Q2201.28 346.194 2201.28 350.315 Q2201.28 353.185 2199.64 355.176 Q2198 357.143 2194.96 357.907 Z" fill="#000000" fill-rule="nonzero" fill-opacity="1"></path><circle clip-path="url(#clip820)" cx="1907.25" cy="411.101" r="20.48" fill="#ac8d18" fill-rule="evenodd" fill-opacity="0.5" stroke="#000000" stroke-opacity="0.5" stroke-width="4.55111"></circle>
<path clip-path="url(#clip820)" d="M2010.17 412.178 Q2011.68 412.687 2013.09 414.354 Q2014.52 416.02 2015.96 418.937 L2020.71 428.381 L2015.68 428.381 L2011.26 419.516 Q2009.55 416.043 2007.93 414.909 Q2006.33 413.775 2003.55 413.775 L1998.46 413.775 L1998.46 428.381 L1993.78 428.381 L1993.78 393.821 L2004.34 393.821 Q2010.27 393.821 2013.18 396.298 Q2016.1 398.775 2016.1 403.775 Q2016.1 407.039 2014.57 409.192 Q2013.07 411.344 2010.17 412.178 M1998.46 397.664 L1998.46 409.932 L2004.34 409.932 Q2007.72 409.932 2009.43 408.381 Q2011.17 406.807 2011.17 403.775 Q2011.17 400.743 2009.43 399.215 Q2007.72 397.664 2004.34 397.664 L1998.46 397.664 Z" fill="#000000" fill-rule="nonzero" fill-opacity="1"></path><path clip-path="url(#clip820)" d="M2046.58 414.354 L2046.58 416.437 L2027 416.437 Q2027.28 420.835 2029.64 423.15 Q2032.02 425.441 2036.26 425.441 Q2038.71 425.441 2041.01 424.84 Q2043.32 424.238 2045.59 423.034 L2045.59 427.062 Q2043.3 428.034 2040.89 428.543 Q2038.48 429.053 2036.01 429.053 Q2029.8 429.053 2026.17 425.441 Q2022.56 421.83 2022.56 415.673 Q2022.56 409.307 2025.98 405.58 Q2029.43 401.83 2035.27 401.83 Q2040.5 401.83 2043.53 405.21 Q2046.58 408.567 2046.58 414.354 M2042.33 413.104 Q2042.28 409.608 2040.36 407.525 Q2038.46 405.442 2035.31 405.442 Q2031.75 405.442 2029.59 407.455 Q2027.46 409.469 2027.14 413.127 L2042.33 413.104 Z" fill="#000000" fill-rule="nonzero" fill-opacity="1"></path><path clip-path="url(#clip820)" d="M2057.7 424.492 L2057.7 438.242 L2053.41 438.242 L2053.41 402.455 L2057.7 402.455 L2057.7 406.391 Q2059.04 404.076 2061.08 402.965 Q2063.14 401.83 2065.98 401.83 Q2070.7 401.83 2073.64 405.58 Q2076.61 409.33 2076.61 415.442 Q2076.61 421.553 2073.64 425.303 Q2070.7 429.053 2065.98 429.053 Q2063.14 429.053 2061.08 427.941 Q2059.04 426.807 2057.7 424.492 M2072.19 415.442 Q2072.19 410.742 2070.24 408.08 Q2068.32 405.395 2064.94 405.395 Q2061.56 405.395 2059.62 408.08 Q2057.7 410.742 2057.7 415.442 Q2057.7 420.141 2059.62 422.826 Q2061.56 425.488 2064.94 425.488 Q2068.32 425.488 2070.24 422.826 Q2072.19 420.141 2072.19 415.442 Z" fill="#000000" fill-rule="nonzero" fill-opacity="1"></path><path clip-path="url(#clip820)" d="M2083.67 392.363 L2087.93 392.363 L2087.93 428.381 L2083.67 428.381 L2083.67 392.363 Z" fill="#000000" fill-rule="nonzero" fill-opacity="1"></path><path clip-path="url(#clip820)" d="M2096.84 402.455 L2101.1 402.455 L2101.1 428.381 L2096.84 428.381 L2096.84 402.455 M2096.84 392.363 L2101.1 392.363 L2101.1 397.756 L2096.84 397.756 L2096.84 392.363 Z" fill="#000000" fill-rule="nonzero" fill-opacity="1"></path><path clip-path="url(#clip820)" d="M2128.67 403.451 L2128.67 407.432 Q2126.86 406.437 2125.03 405.951 Q2123.23 405.442 2121.38 405.442 Q2117.23 405.442 2114.94 408.08 Q2112.65 410.696 2112.65 415.442 Q2112.65 420.187 2114.94 422.826 Q2117.23 425.441 2121.38 425.441 Q2123.23 425.441 2125.03 424.955 Q2126.86 424.446 2128.67 423.451 L2128.67 427.386 Q2126.89 428.219 2124.96 428.636 Q2123.07 429.053 2120.91 429.053 Q2115.06 429.053 2111.61 425.372 Q2108.16 421.691 2108.16 415.442 Q2108.16 409.099 2111.63 405.465 Q2115.13 401.83 2121.19 401.83 Q2123.16 401.83 2125.03 402.247 Q2126.91 402.641 2128.67 403.451 Z" fill="#000000" fill-rule="nonzero" fill-opacity="1"></path><path clip-path="url(#clip820)" d="M2147.86 415.349 Q2142.7 415.349 2140.7 416.529 Q2138.71 417.71 2138.71 420.557 Q2138.71 422.826 2140.2 424.168 Q2141.7 425.488 2144.27 425.488 Q2147.81 425.488 2149.94 422.988 Q2152.09 420.465 2152.09 416.298 L2152.09 415.349 L2147.86 415.349 M2156.35 413.59 L2156.35 428.381 L2152.09 428.381 L2152.09 424.446 Q2150.64 426.807 2148.46 427.941 Q2146.28 429.053 2143.14 429.053 Q2139.15 429.053 2136.79 426.83 Q2134.45 424.585 2134.45 420.835 Q2134.45 416.46 2137.37 414.238 Q2140.31 412.016 2146.12 412.016 L2152.09 412.016 L2152.09 411.599 Q2152.09 408.659 2150.15 407.062 Q2148.23 405.442 2144.73 405.442 Q2142.51 405.442 2140.4 405.974 Q2138.3 406.506 2136.35 407.571 L2136.35 403.636 Q2138.69 402.733 2140.89 402.293 Q2143.09 401.83 2145.17 401.83 Q2150.8 401.83 2153.57 404.747 Q2156.35 407.664 2156.35 413.59 Z" fill="#000000" fill-rule="nonzero" fill-opacity="1"></path><path clip-path="url(#clip820)" d="M2193.64 397.895 L2181.84 416.344 L2193.64 416.344 L2193.64 397.895 M2192.42 393.821 L2198.3 393.821 L2198.3 416.344 L2203.23 416.344 L2203.23 420.233 L2198.3 420.233 L2198.3 428.381 L2193.64 428.381 L2193.64 420.233 L2178.04 420.233 L2178.04 415.719 L2192.42 393.821 Z" fill="#000000" fill-rule="nonzero" fill-opacity="1"></path><circle clip-path="url(#clip820)" cx="1907.25" cy="462.941" r="20.48" fill="#00a9ad" fill-rule="evenodd" fill-opacity="0.5" stroke="#000000" stroke-opacity="0.5" stroke-width="4.55111"></circle>
<path clip-path="url(#clip820)" d="M2010.17 464.018 Q2011.68 464.527 2013.09 466.194 Q2014.52 467.86 2015.96 470.777 L2020.71 480.221 L2015.68 480.221 L2011.26 471.356 Q2009.55 467.883 2007.93 466.749 Q2006.33 465.615 2003.55 465.615 L1998.46 465.615 L1998.46 480.221 L1993.78 480.221 L1993.78 445.661 L2004.34 445.661 Q2010.27 445.661 2013.18 448.138 Q2016.1 450.615 2016.1 455.615 Q2016.1 458.879 2014.57 461.032 Q2013.07 463.184 2010.17 464.018 M1998.46 449.504 L1998.46 461.772 L2004.34 461.772 Q2007.72 461.772 2009.43 460.221 Q2011.17 458.647 2011.17 455.615 Q2011.17 452.583 2009.43 451.055 Q2007.72 449.504 2004.34 449.504 L1998.46 449.504 Z" fill="#000000" fill-rule="nonzero" fill-opacity="1"></path><path clip-path="url(#clip820)" d="M2046.58 466.194 L2046.58 468.277 L2027 468.277 Q2027.28 472.675 2029.64 474.99 Q2032.02 477.281 2036.26 477.281 Q2038.71 477.281 2041.01 476.68 Q2043.32 476.078 2045.59 474.874 L2045.59 478.902 Q2043.3 479.874 2040.89 480.383 Q2038.48 480.893 2036.01 480.893 Q2029.8 480.893 2026.17 477.281 Q2022.56 473.67 2022.56 467.513 Q2022.56 461.147 2025.98 457.42 Q2029.43 453.67 2035.27 453.67 Q2040.5 453.67 2043.53 457.05 Q2046.58 460.407 2046.58 466.194 M2042.33 464.944 Q2042.28 461.448 2040.36 459.365 Q2038.46 457.282 2035.31 457.282 Q2031.75 457.282 2029.59 459.295 Q2027.46 461.309 2027.14 464.967 L2042.33 464.944 Z" fill="#000000" fill-rule="nonzero" fill-opacity="1"></path><path clip-path="url(#clip820)" d="M2057.7 476.332 L2057.7 490.082 L2053.41 490.082 L2053.41 454.295 L2057.7 454.295 L2057.7 458.231 Q2059.04 455.916 2061.08 454.805 Q2063.14 453.67 2065.98 453.67 Q2070.7 453.67 2073.64 457.42 Q2076.61 461.17 2076.61 467.282 Q2076.61 473.393 2073.64 477.143 Q2070.7 480.893 2065.98 480.893 Q2063.14 480.893 2061.08 479.781 Q2059.04 478.647 2057.7 476.332 M2072.19 467.282 Q2072.19 462.582 2070.24 459.92 Q2068.32 457.235 2064.94 457.235 Q2061.56 457.235 2059.62 459.92 Q2057.7 462.582 2057.7 467.282 Q2057.7 471.981 2059.62 474.666 Q2061.56 477.328 2064.94 477.328 Q2068.32 477.328 2070.24 474.666 Q2072.19 471.981 2072.19 467.282 Z" fill="#000000" fill-rule="nonzero" fill-opacity="1"></path><path clip-path="url(#clip820)" d="M2083.67 444.203 L2087.93 444.203 L2087.93 480.221 L2083.67 480.221 L2083.67 444.203 Z" fill="#000000" fill-rule="nonzero" fill-opacity="1"></path><path clip-path="url(#clip820)" d="M2096.84 454.295 L2101.1 454.295 L2101.1 480.221 L2096.84 480.221 L2096.84 454.295 M2096.84 444.203 L2101.1 444.203 L2101.1 449.596 L2096.84 449.596 L2096.84 444.203 Z" fill="#000000" fill-rule="nonzero" fill-opacity="1"></path><path clip-path="url(#clip820)" d="M2128.67 455.291 L2128.67 459.272 Q2126.86 458.277 2125.03 457.791 Q2123.23 457.282 2121.38 457.282 Q2117.23 457.282 2114.94 459.92 Q2112.65 462.536 2112.65 467.282 Q2112.65 472.027 2114.94 474.666 Q2117.23 477.281 2121.38 477.281 Q2123.23 477.281 2125.03 476.795 Q2126.86 476.286 2128.67 475.291 L2128.67 479.226 Q2126.89 480.059 2124.96 480.476 Q2123.07 480.893 2120.91 480.893 Q2115.06 480.893 2111.61 477.212 Q2108.16 473.531 2108.16 467.282 Q2108.16 460.939 2111.63 457.305 Q2115.13 453.67 2121.19 453.67 Q2123.16 453.67 2125.03 454.087 Q2126.91 454.481 2128.67 455.291 Z" fill="#000000" fill-rule="nonzero" fill-opacity="1"></path><path clip-path="url(#clip820)" d="M2147.86 467.189 Q2142.7 467.189 2140.7 468.369 Q2138.71 469.55 2138.71 472.397 Q2138.71 474.666 2140.2 476.008 Q2141.7 477.328 2144.27 477.328 Q2147.81 477.328 2149.94 474.828 Q2152.09 472.305 2152.09 468.138 L2152.09 467.189 L2147.86 467.189 M2156.35 465.43 L2156.35 480.221 L2152.09 480.221 L2152.09 476.286 Q2150.64 478.647 2148.46 479.781 Q2146.28 480.893 2143.14 480.893 Q2139.15 480.893 2136.79 478.67 Q2134.45 476.425 2134.45 472.675 Q2134.45 468.3 2137.37 466.078 Q2140.31 463.856 2146.12 463.856 L2152.09 463.856 L2152.09 463.439 Q2152.09 460.499 2150.15 458.902 Q2148.23 457.282 2144.73 457.282 Q2142.51 457.282 2140.4 457.814 Q2138.3 458.346 2136.35 459.411 L2136.35 455.476 Q2138.69 454.573 2140.89 454.133 Q2143.09 453.67 2145.17 453.67 Q2150.8 453.67 2153.57 456.587 Q2156.35 459.504 2156.35 465.43 Z" fill="#000000" fill-rule="nonzero" fill-opacity="1"></path><path clip-path="url(#clip820)" d="M2180.84 445.661 L2199.2 445.661 L2199.2 449.596 L2185.13 449.596 L2185.13 458.069 Q2186.14 457.721 2187.16 457.559 Q2188.18 457.374 2189.2 457.374 Q2194.99 457.374 2198.37 460.545 Q2201.75 463.717 2201.75 469.133 Q2201.75 474.712 2198.27 477.814 Q2194.8 480.893 2188.48 480.893 Q2186.31 480.893 2184.04 480.522 Q2181.79 480.152 2179.38 479.411 L2179.38 474.712 Q2181.47 475.846 2183.69 476.402 Q2185.91 476.957 2188.39 476.957 Q2192.39 476.957 2194.73 474.851 Q2197.07 472.744 2197.07 469.133 Q2197.07 465.522 2194.73 463.416 Q2192.39 461.309 2188.39 461.309 Q2186.51 461.309 2184.64 461.726 Q2182.79 462.143 2180.84 463.022 L2180.84 445.661 Z" fill="#000000" fill-rule="nonzero" fill-opacity="1"></path><circle clip-path="url(#clip820)" cx="1907.25" cy="514.781" r="20.48" fill="#ed5d92" fill-rule="evenodd" fill-opacity="0.5" stroke="#000000" stroke-opacity="0.5" stroke-width="4.55111"></circle>
<path clip-path="url(#clip820)" d="M2010.17 515.858 Q2011.68 516.367 2013.09 518.034 Q2014.52 519.7 2015.96 522.617 L2020.71 532.061 L2015.68 532.061 L2011.26 523.196 Q2009.55 519.723 2007.93 518.589 Q2006.33 517.455 2003.55 517.455 L1998.46 517.455 L1998.46 532.061 L1993.78 532.061 L1993.78 497.501 L2004.34 497.501 Q2010.27 497.501 2013.18 499.978 Q2016.1 502.455 2016.1 507.455 Q2016.1 510.719 2014.57 512.872 Q2013.07 515.024 2010.17 515.858 M1998.46 501.344 L1998.46 513.612 L2004.34 513.612 Q2007.72 513.612 2009.43 512.061 Q2011.17 510.487 2011.17 507.455 Q2011.17 504.423 2009.43 502.895 Q2007.72 501.344 2004.34 501.344 L1998.46 501.344 Z" fill="#000000" fill-rule="nonzero" fill-opacity="1"></path><path clip-path="url(#clip820)" d="M2046.58 518.034 L2046.58 520.117 L2027 520.117 Q2027.28 524.515 2029.64 526.83 Q2032.02 529.121 2036.26 529.121 Q2038.71 529.121 2041.01 528.52 Q2043.32 527.918 2045.59 526.714 L2045.59 530.742 Q2043.3 531.714 2040.89 532.223 Q2038.48 532.733 2036.01 532.733 Q2029.8 532.733 2026.17 529.121 Q2022.56 525.51 2022.56 519.353 Q2022.56 512.987 2025.98 509.26 Q2029.43 505.51 2035.27 505.51 Q2040.5 505.51 2043.53 508.89 Q2046.58 512.247 2046.58 518.034 M2042.33 516.784 Q2042.28 513.288 2040.36 511.205 Q2038.46 509.122 2035.31 509.122 Q2031.75 509.122 2029.59 511.135 Q2027.46 513.149 2027.14 516.807 L2042.33 516.784 Z" fill="#000000" fill-rule="nonzero" fill-opacity="1"></path><path clip-path="url(#clip820)" d="M2057.7 528.172 L2057.7 541.922 L2053.41 541.922 L2053.41 506.135 L2057.7 506.135 L2057.7 510.071 Q2059.04 507.756 2061.08 506.645 Q2063.14 505.51 2065.98 505.51 Q2070.7 505.51 2073.64 509.26 Q2076.61 513.01 2076.61 519.122 Q2076.61 525.233 2073.64 528.983 Q2070.7 532.733 2065.98 532.733 Q2063.14 532.733 2061.08 531.621 Q2059.04 530.487 2057.7 528.172 M2072.19 519.122 Q2072.19 514.422 2070.24 511.76 Q2068.32 509.075 2064.94 509.075 Q2061.56 509.075 2059.62 511.76 Q2057.7 514.422 2057.7 519.122 Q2057.7 523.821 2059.62 526.506 Q2061.56 529.168 2064.94 529.168 Q2068.32 529.168 2070.24 526.506 Q2072.19 523.821 2072.19 519.122 Z" fill="#000000" fill-rule="nonzero" fill-opacity="1"></path><path clip-path="url(#clip820)" d="M2083.67 496.043 L2087.93 496.043 L2087.93 532.061 L2083.67 532.061 L2083.67 496.043 Z" fill="#000000" fill-rule="nonzero" fill-opacity="1"></path><path clip-path="url(#clip820)" d="M2096.84 506.135 L2101.1 506.135 L2101.1 532.061 L2096.84 532.061 L2096.84 506.135 M2096.84 496.043 L2101.1 496.043 L2101.1 501.436 L2096.84 501.436 L2096.84 496.043 Z" fill="#000000" fill-rule="nonzero" fill-opacity="1"></path><path clip-path="url(#clip820)" d="M2128.67 507.131 L2128.67 511.112 Q2126.86 510.117 2125.03 509.631 Q2123.23 509.122 2121.38 509.122 Q2117.23 509.122 2114.94 511.76 Q2112.65 514.376 2112.65 519.122 Q2112.65 523.867 2114.94 526.506 Q2117.23 529.121 2121.38 529.121 Q2123.23 529.121 2125.03 528.635 Q2126.86 528.126 2128.67 527.131 L2128.67 531.066 Q2126.89 531.899 2124.96 532.316 Q2123.07 532.733 2120.91 532.733 Q2115.06 532.733 2111.61 529.052 Q2108.16 525.371 2108.16 519.122 Q2108.16 512.779 2111.63 509.145 Q2115.13 505.51 2121.19 505.51 Q2123.16 505.51 2125.03 505.927 Q2126.91 506.321 2128.67 507.131 Z" fill="#000000" fill-rule="nonzero" fill-opacity="1"></path><path clip-path="url(#clip820)" d="M2147.86 519.029 Q2142.7 519.029 2140.7 520.209 Q2138.71 521.39 2138.71 524.237 Q2138.71 526.506 2140.2 527.848 Q2141.7 529.168 2144.27 529.168 Q2147.81 529.168 2149.94 526.668 Q2152.09 524.145 2152.09 519.978 L2152.09 519.029 L2147.86 519.029 M2156.35 517.27 L2156.35 532.061 L2152.09 532.061 L2152.09 528.126 Q2150.64 530.487 2148.46 531.621 Q2146.28 532.733 2143.14 532.733 Q2139.15 532.733 2136.79 530.51 Q2134.45 528.265 2134.45 524.515 Q2134.45 520.14 2137.37 517.918 Q2140.31 515.696 2146.12 515.696 L2152.09 515.696 L2152.09 515.279 Q2152.09 512.339 2150.15 510.742 Q2148.23 509.122 2144.73 509.122 Q2142.51 509.122 2140.4 509.654 Q2138.3 510.186 2136.35 511.251 L2136.35 507.316 Q2138.69 506.413 2140.89 505.973 Q2143.09 505.51 2145.17 505.51 Q2150.8 505.51 2153.57 508.427 Q2156.35 511.344 2156.35 517.27 Z" fill="#000000" fill-rule="nonzero" fill-opacity="1"></path><path clip-path="url(#clip820)" d="M2191.38 512.918 Q2188.23 512.918 2186.38 515.071 Q2184.55 517.223 2184.55 520.973 Q2184.55 524.7 2186.38 526.876 Q2188.23 529.029 2191.38 529.029 Q2194.52 529.029 2196.35 526.876 Q2198.2 524.7 2198.2 520.973 Q2198.2 517.223 2196.35 515.071 Q2194.52 512.918 2191.38 512.918 M2200.66 498.265 L2200.66 502.524 Q2198.9 501.691 2197.09 501.251 Q2195.31 500.811 2193.55 500.811 Q2188.92 500.811 2186.47 503.936 Q2184.04 507.061 2183.69 513.381 Q2185.06 511.367 2187.12 510.302 Q2189.18 509.214 2191.65 509.214 Q2196.86 509.214 2199.87 512.385 Q2202.9 515.534 2202.9 520.973 Q2202.9 526.297 2199.76 529.515 Q2196.61 532.733 2191.38 532.733 Q2185.38 532.733 2182.21 528.149 Q2179.04 523.543 2179.04 514.816 Q2179.04 506.622 2182.93 501.761 Q2186.82 496.876 2193.37 496.876 Q2195.13 496.876 2196.91 497.223 Q2198.71 497.571 2200.66 498.265 Z" fill="#000000" fill-rule="nonzero" fill-opacity="1"></path><circle clip-path="url(#clip820)" cx="1907.25" cy="566.621" r="20.48" fill="#c68125" fill-rule="evenodd" fill-opacity="0.5" stroke="#000000" stroke-opacity="0.5" stroke-width="4.55111"></circle>
<path clip-path="url(#clip820)" d="M2010.17 567.698 Q2011.68 568.207 2013.09 569.874 Q2014.52 571.54 2015.96 574.457 L2020.71 583.901 L2015.68 583.901 L2011.26 575.036 Q2009.55 571.563 2007.93 570.429 Q2006.33 569.295 2003.55 569.295 L1998.46 569.295 L1998.46 583.901 L1993.78 583.901 L1993.78 549.341 L2004.34 549.341 Q2010.27 549.341 2013.18 551.818 Q2016.1 554.295 2016.1 559.295 Q2016.1 562.559 2014.57 564.712 Q2013.07 566.864 2010.17 567.698 M1998.46 553.184 L1998.46 565.452 L2004.34 565.452 Q2007.72 565.452 2009.43 563.901 Q2011.17 562.327 2011.17 559.295 Q2011.17 556.263 2009.43 554.735 Q2007.72 553.184 2004.34 553.184 L1998.46 553.184 Z" fill="#000000" fill-rule="nonzero" fill-opacity="1"></path><path clip-path="url(#clip820)" d="M2046.58 569.874 L2046.58 571.957 L2027 571.957 Q2027.28 576.355 2029.64 578.67 Q2032.02 580.961 2036.26 580.961 Q2038.71 580.961 2041.01 580.36 Q2043.32 579.758 2045.59 578.554 L2045.59 582.582 Q2043.3 583.554 2040.89 584.063 Q2038.48 584.573 2036.01 584.573 Q2029.8 584.573 2026.17 580.961 Q2022.56 577.35 2022.56 571.193 Q2022.56 564.827 2025.98 561.1 Q2029.43 557.35 2035.27 557.35 Q2040.5 557.35 2043.53 560.73 Q2046.58 564.087 2046.58 569.874 M2042.33 568.624 Q2042.28 565.128 2040.36 563.045 Q2038.46 560.962 2035.31 560.962 Q2031.75 560.962 2029.59 562.975 Q2027.46 564.989 2027.14 568.647 L2042.33 568.624 Z" fill="#000000" fill-rule="nonzero" fill-opacity="1"></path><path clip-path="url(#clip820)" d="M2057.7 580.012 L2057.7 593.762 L2053.41 593.762 L2053.41 557.975 L2057.7 557.975 L2057.7 561.911 Q2059.04 559.596 2061.08 558.485 Q2063.14 557.35 2065.98 557.35 Q2070.7 557.35 2073.64 561.1 Q2076.61 564.85 2076.61 570.962 Q2076.61 577.073 2073.64 580.823 Q2070.7 584.573 2065.98 584.573 Q2063.14 584.573 2061.08 583.461 Q2059.04 582.327 2057.7 580.012 M2072.19 570.962 Q2072.19 566.262 2070.24 563.6 Q2068.32 560.915 2064.94 560.915 Q2061.56 560.915 2059.62 563.6 Q2057.7 566.262 2057.7 570.962 Q2057.7 575.661 2059.62 578.346 Q2061.56 581.008 2064.94 581.008 Q2068.32 581.008 2070.24 578.346 Q2072.19 575.661 2072.19 570.962 Z" fill="#000000" fill-rule="nonzero" fill-opacity="1"></path><path clip-path="url(#clip820)" d="M2083.67 547.883 L2087.93 547.883 L2087.93 583.901 L2083.67 583.901 L2083.67 547.883 Z" fill="#000000" fill-rule="nonzero" fill-opacity="1"></path><path clip-path="url(#clip820)" d="M2096.84 557.975 L2101.1 557.975 L2101.1 583.901 L2096.84 583.901 L2096.84 557.975 M2096.84 547.883 L2101.1 547.883 L2101.1 553.276 L2096.84 553.276 L2096.84 547.883 Z" fill="#000000" fill-rule="nonzero" fill-opacity="1"></path><path clip-path="url(#clip820)" d="M2128.67 558.971 L2128.67 562.952 Q2126.86 561.957 2125.03 561.471 Q2123.23 560.962 2121.38 560.962 Q2117.23 560.962 2114.94 563.6 Q2112.65 566.216 2112.65 570.962 Q2112.65 575.707 2114.94 578.346 Q2117.23 580.961 2121.38 580.961 Q2123.23 580.961 2125.03 580.475 Q2126.86 579.966 2128.67 578.971 L2128.67 582.906 Q2126.89 583.739 2124.96 584.156 Q2123.07 584.573 2120.91 584.573 Q2115.06 584.573 2111.61 580.892 Q2108.16 577.211 2108.16 570.962 Q2108.16 564.619 2111.63 560.985 Q2115.13 557.35 2121.19 557.35 Q2123.16 557.35 2125.03 557.767 Q2126.91 558.161 2128.67 558.971 Z" fill="#000000" fill-rule="nonzero" fill-opacity="1"></path><path clip-path="url(#clip820)" d="M2147.86 570.869 Q2142.7 570.869 2140.7 572.049 Q2138.71 573.23 2138.71 576.077 Q2138.71 578.346 2140.2 579.688 Q2141.7 581.008 2144.27 581.008 Q2147.81 581.008 2149.94 578.508 Q2152.09 575.985 2152.09 571.818 L2152.09 570.869 L2147.86 570.869 M2156.35 569.11 L2156.35 583.901 L2152.09 583.901 L2152.09 579.966 Q2150.64 582.327 2148.46 583.461 Q2146.28 584.573 2143.14 584.573 Q2139.15 584.573 2136.79 582.35 Q2134.45 580.105 2134.45 576.355 Q2134.45 571.98 2137.37 569.758 Q2140.31 567.536 2146.12 567.536 L2152.09 567.536 L2152.09 567.119 Q2152.09 564.179 2150.15 562.582 Q2148.23 560.962 2144.73 560.962 Q2142.51 560.962 2140.4 561.494 Q2138.3 562.026 2136.35 563.091 L2136.35 559.156 Q2138.69 558.253 2140.89 557.813 Q2143.09 557.35 2145.17 557.35 Q2150.8 557.35 2153.57 560.267 Q2156.35 563.184 2156.35 569.11 Z" fill="#000000" fill-rule="nonzero" fill-opacity="1"></path><path clip-path="url(#clip820)" d="M2179.62 549.341 L2201.84 549.341 L2201.84 551.332 L2189.29 583.901 L2184.41 583.901 L2196.21 553.276 L2179.62 553.276 L2179.62 549.341 Z" fill="#000000" fill-rule="nonzero" fill-opacity="1"></path><circle clip-path="url(#clip820)" cx="1907.25" cy="618.461" r="20.48" fill="#00a98d" fill-rule="evenodd" fill-opacity="0.5" stroke="#000000" stroke-opacity="0.5" stroke-width="4.55111"></circle>
<path clip-path="url(#clip820)" d="M2010.17 619.538 Q2011.68 620.047 2013.09 621.714 Q2014.52 623.38 2015.96 626.297 L2020.71 635.741 L2015.68 635.741 L2011.26 626.876 Q2009.55 623.403 2007.93 622.269 Q2006.33 621.135 2003.55 621.135 L1998.46 621.135 L1998.46 635.741 L1993.78 635.741 L1993.78 601.181 L2004.34 601.181 Q2010.27 601.181 2013.18 603.658 Q2016.1 606.135 2016.1 611.135 Q2016.1 614.399 2014.57 616.552 Q2013.07 618.704 2010.17 619.538 M1998.46 605.024 L1998.46 617.292 L2004.34 617.292 Q2007.72 617.292 2009.43 615.741 Q2011.17 614.167 2011.17 611.135 Q2011.17 608.103 2009.43 606.575 Q2007.72 605.024 2004.34 605.024 L1998.46 605.024 Z" fill="#000000" fill-rule="nonzero" fill-opacity="1"></path><path clip-path="url(#clip820)" d="M2046.58 621.714 L2046.58 623.797 L2027 623.797 Q2027.28 628.195 2029.64 630.51 Q2032.02 632.801 2036.26 632.801 Q2038.71 632.801 2041.01 632.2 Q2043.32 631.598 2045.59 630.394 L2045.59 634.422 Q2043.3 635.394 2040.89 635.903 Q2038.48 636.413 2036.01 636.413 Q2029.8 636.413 2026.17 632.801 Q2022.56 629.19 2022.56 623.033 Q2022.56 616.667 2025.98 612.94 Q2029.43 609.19 2035.27 609.19 Q2040.5 609.19 2043.53 612.57 Q2046.58 615.927 2046.58 621.714 M2042.33 620.464 Q2042.28 616.968 2040.36 614.885 Q2038.46 612.802 2035.31 612.802 Q2031.75 612.802 2029.59 614.815 Q2027.46 616.829 2027.14 620.487 L2042.33 620.464 Z" fill="#000000" fill-rule="nonzero" fill-opacity="1"></path><path clip-path="url(#clip820)" d="M2057.7 631.852 L2057.7 645.602 L2053.41 645.602 L2053.41 609.815 L2057.7 609.815 L2057.7 613.751 Q2059.04 611.436 2061.08 610.325 Q2063.14 609.19 2065.98 609.19 Q2070.7 609.19 2073.64 612.94 Q2076.61 616.69 2076.61 622.802 Q2076.61 628.913 2073.64 632.663 Q2070.7 636.413 2065.98 636.413 Q2063.14 636.413 2061.08 635.301 Q2059.04 634.167 2057.7 631.852 M2072.19 622.802 Q2072.19 618.102 2070.24 615.44 Q2068.32 612.755 2064.94 612.755 Q2061.56 612.755 2059.62 615.44 Q2057.7 618.102 2057.7 622.802 Q2057.7 627.501 2059.62 630.186 Q2061.56 632.848 2064.94 632.848 Q2068.32 632.848 2070.24 630.186 Q2072.19 627.501 2072.19 622.802 Z" fill="#000000" fill-rule="nonzero" fill-opacity="1"></path><path clip-path="url(#clip820)" d="M2083.67 599.723 L2087.93 599.723 L2087.93 635.741 L2083.67 635.741 L2083.67 599.723 Z" fill="#000000" fill-rule="nonzero" fill-opacity="1"></path><path clip-path="url(#clip820)" d="M2096.84 609.815 L2101.1 609.815 L2101.1 635.741 L2096.84 635.741 L2096.84 609.815 M2096.84 599.723 L2101.1 599.723 L2101.1 605.116 L2096.84 605.116 L2096.84 599.723 Z" fill="#000000" fill-rule="nonzero" fill-opacity="1"></path><path clip-path="url(#clip820)" d="M2128.67 610.811 L2128.67 614.792 Q2126.86 613.797 2125.03 613.311 Q2123.23 612.802 2121.38 612.802 Q2117.23 612.802 2114.94 615.44 Q2112.65 618.056 2112.65 622.802 Q2112.65 627.547 2114.94 630.186 Q2117.23 632.801 2121.38 632.801 Q2123.23 632.801 2125.03 632.315 Q2126.86 631.806 2128.67 630.811 L2128.67 634.746 Q2126.89 635.579 2124.96 635.996 Q2123.07 636.413 2120.91 636.413 Q2115.06 636.413 2111.61 632.732 Q2108.16 629.051 2108.16 622.802 Q2108.16 616.459 2111.63 612.825 Q2115.13 609.19 2121.19 609.19 Q2123.16 609.19 2125.03 609.607 Q2126.91 610.001 2128.67 610.811 Z" fill="#000000" fill-rule="nonzero" fill-opacity="1"></path><path clip-path="url(#clip820)" d="M2147.86 622.709 Q2142.7 622.709 2140.7 623.889 Q2138.71 625.07 2138.71 627.917 Q2138.71 630.186 2140.2 631.528 Q2141.7 632.848 2144.27 632.848 Q2147.81 632.848 2149.94 630.348 Q2152.09 627.825 2152.09 623.658 L2152.09 622.709 L2147.86 622.709 M2156.35 620.95 L2156.35 635.741 L2152.09 635.741 L2152.09 631.806 Q2150.64 634.167 2148.46 635.301 Q2146.28 636.413 2143.14 636.413 Q2139.15 636.413 2136.79 634.19 Q2134.45 631.945 2134.45 628.195 Q2134.45 623.82 2137.37 621.598 Q2140.31 619.376 2146.12 619.376 L2152.09 619.376 L2152.09 618.959 Q2152.09 616.019 2150.15 614.422 Q2148.23 612.802 2144.73 612.802 Q2142.51 612.802 2140.4 613.334 Q2138.3 613.866 2136.35 614.931 L2136.35 610.996 Q2138.69 610.093 2140.89 609.653 Q2143.09 609.19 2145.17 609.19 Q2150.8 609.19 2153.57 612.107 Q2156.35 615.024 2156.35 620.95 Z" fill="#000000" fill-rule="nonzero" fill-opacity="1"></path><path clip-path="url(#clip820)" d="M2190.8 619.329 Q2187.46 619.329 2185.54 621.112 Q2183.64 622.894 2183.64 626.019 Q2183.64 629.144 2185.54 630.926 Q2187.46 632.709 2190.8 632.709 Q2194.13 632.709 2196.05 630.926 Q2197.97 629.121 2197.97 626.019 Q2197.97 622.894 2196.05 621.112 Q2194.15 619.329 2190.8 619.329 M2186.12 617.339 Q2183.11 616.598 2181.42 614.538 Q2179.76 612.478 2179.76 609.515 Q2179.76 605.371 2182.7 602.964 Q2185.66 600.556 2190.8 600.556 Q2195.96 600.556 2198.9 602.964 Q2201.84 605.371 2201.84 609.515 Q2201.84 612.478 2200.15 614.538 Q2198.48 616.598 2195.5 617.339 Q2198.88 618.126 2200.75 620.417 Q2202.65 622.709 2202.65 626.019 Q2202.65 631.042 2199.57 633.727 Q2196.51 636.413 2190.8 636.413 Q2185.08 636.413 2182 633.727 Q2178.95 631.042 2178.95 626.019 Q2178.95 622.709 2180.84 620.417 Q2182.74 618.126 2186.12 617.339 M2184.41 609.954 Q2184.41 612.64 2186.07 614.144 Q2187.76 615.649 2190.8 615.649 Q2193.81 615.649 2195.5 614.144 Q2197.21 612.64 2197.21 609.954 Q2197.21 607.269 2195.5 605.765 Q2193.81 604.26 2190.8 604.26 Q2187.76 604.26 2186.07 605.765 Q2184.41 607.269 2184.41 609.954 Z" fill="#000000" fill-rule="nonzero" fill-opacity="1"></path><circle clip-path="url(#clip820)" cx="1907.25" cy="670.301" r="20.48" fill="#8e971d" fill-rule="evenodd" fill-opacity="0.5" stroke="#000000" stroke-opacity="0.5" stroke-width="4.55111"></circle>
<path clip-path="url(#clip820)" d="M2010.17 671.378 Q2011.68 671.887 2013.09 673.554 Q2014.52 675.22 2015.96 678.137 L2020.71 687.581 L2015.68 687.581 L2011.26 678.716 Q2009.55 675.243 2007.93 674.109 Q2006.33 672.975 2003.55 672.975 L1998.46 672.975 L1998.46 687.581 L1993.78 687.581 L1993.78 653.021 L2004.34 653.021 Q2010.27 653.021 2013.18 655.498 Q2016.1 657.975 2016.1 662.975 Q2016.1 666.239 2014.57 668.392 Q2013.07 670.544 2010.17 671.378 M1998.46 656.864 L1998.46 669.132 L2004.34 669.132 Q2007.72 669.132 2009.43 667.581 Q2011.17 666.007 2011.17 662.975 Q2011.17 659.943 2009.43 658.415 Q2007.72 656.864 2004.34 656.864 L1998.46 656.864 Z" fill="#000000" fill-rule="nonzero" fill-opacity="1"></path><path clip-path="url(#clip820)" d="M2046.58 673.554 L2046.58 675.637 L2027 675.637 Q2027.28 680.035 2029.64 682.35 Q2032.02 684.641 2036.26 684.641 Q2038.71 684.641 2041.01 684.04 Q2043.32 683.438 2045.59 682.234 L2045.59 686.262 Q2043.3 687.234 2040.89 687.743 Q2038.48 688.253 2036.01 688.253 Q2029.8 688.253 2026.17 684.641 Q2022.56 681.03 2022.56 674.873 Q2022.56 668.507 2025.98 664.78 Q2029.43 661.03 2035.27 661.03 Q2040.5 661.03 2043.53 664.41 Q2046.58 667.767 2046.58 673.554 M2042.33 672.304 Q2042.28 668.808 2040.36 666.725 Q2038.46 664.642 2035.31 664.642 Q2031.75 664.642 2029.59 666.655 Q2027.46 668.669 2027.14 672.327 L2042.33 672.304 Z" fill="#000000" fill-rule="nonzero" fill-opacity="1"></path><path clip-path="url(#clip820)" d="M2057.7 683.692 L2057.7 697.442 L2053.41 697.442 L2053.41 661.655 L2057.7 661.655 L2057.7 665.591 Q2059.04 663.276 2061.08 662.165 Q2063.14 661.03 2065.98 661.03 Q2070.7 661.03 2073.64 664.78 Q2076.61 668.53 2076.61 674.642 Q2076.61 680.753 2073.64 684.503 Q2070.7 688.253 2065.98 688.253 Q2063.14 688.253 2061.08 687.141 Q2059.04 686.007 2057.7 683.692 M2072.19 674.642 Q2072.19 669.942 2070.24 667.28 Q2068.32 664.595 2064.94 664.595 Q2061.56 664.595 2059.62 667.28 Q2057.7 669.942 2057.7 674.642 Q2057.7 679.341 2059.62 682.026 Q2061.56 684.688 2064.94 684.688 Q2068.32 684.688 2070.24 682.026 Q2072.19 679.341 2072.19 674.642 Z" fill="#000000" fill-rule="nonzero" fill-opacity="1"></path><path clip-path="url(#clip820)" d="M2083.67 651.563 L2087.93 651.563 L2087.93 687.581 L2083.67 687.581 L2083.67 651.563 Z" fill="#000000" fill-rule="nonzero" fill-opacity="1"></path><path clip-path="url(#clip820)" d="M2096.84 661.655 L2101.1 661.655 L2101.1 687.581 L2096.84 687.581 L2096.84 661.655 M2096.84 651.563 L2101.1 651.563 L2101.1 656.956 L2096.84 656.956 L2096.84 651.563 Z" fill="#000000" fill-rule="nonzero" fill-opacity="1"></path><path clip-path="url(#clip820)" d="M2128.67 662.651 L2128.67 666.632 Q2126.86 665.637 2125.03 665.151 Q2123.23 664.642 2121.38 664.642 Q2117.23 664.642 2114.94 667.28 Q2112.65 669.896 2112.65 674.642 Q2112.65 679.387 2114.94 682.026 Q2117.23 684.641 2121.38 684.641 Q2123.23 684.641 2125.03 684.155 Q2126.86 683.646 2128.67 682.651 L2128.67 686.586 Q2126.89 687.419 2124.96 687.836 Q2123.07 688.253 2120.91 688.253 Q2115.06 688.253 2111.61 684.572 Q2108.16 680.891 2108.16 674.642 Q2108.16 668.299 2111.63 664.665 Q2115.13 661.03 2121.19 661.03 Q2123.16 661.03 2125.03 661.447 Q2126.91 661.841 2128.67 662.651 Z" fill="#000000" fill-rule="nonzero" fill-opacity="1"></path><path clip-path="url(#clip820)" d="M2147.86 674.549 Q2142.7 674.549 2140.7 675.729 Q2138.71 676.91 2138.71 679.757 Q2138.71 682.026 2140.2 683.368 Q2141.7 684.688 2144.27 684.688 Q2147.81 684.688 2149.94 682.188 Q2152.09 679.665 2152.09 675.498 L2152.09 674.549 L2147.86 674.549 M2156.35 672.79 L2156.35 687.581 L2152.09 687.581 L2152.09 683.646 Q2150.64 686.007 2148.46 687.141 Q2146.28 688.253 2143.14 688.253 Q2139.15 688.253 2136.79 686.03 Q2134.45 683.785 2134.45 680.035 Q2134.45 675.66 2137.37 673.438 Q2140.31 671.216 2146.12 671.216 L2152.09 671.216 L2152.09 670.799 Q2152.09 667.859 2150.15 666.262 Q2148.23 664.642 2144.73 664.642 Q2142.51 664.642 2140.4 665.174 Q2138.3 665.706 2136.35 666.771 L2136.35 662.836 Q2138.69 661.933 2140.89 661.493 Q2143.09 661.03 2145.17 661.03 Q2150.8 661.03 2153.57 663.947 Q2156.35 666.864 2156.35 672.79 Z" fill="#000000" fill-rule="nonzero" fill-opacity="1"></path><path clip-path="url(#clip820)" d="M2180.94 686.864 L2180.94 682.604 Q2182.7 683.438 2184.5 683.878 Q2186.31 684.317 2188.04 684.317 Q2192.67 684.317 2195.1 681.216 Q2197.56 678.091 2197.9 671.748 Q2196.56 673.739 2194.5 674.804 Q2192.44 675.868 2189.94 675.868 Q2184.76 675.868 2181.72 672.743 Q2178.71 669.595 2178.71 664.155 Q2178.71 658.831 2181.86 655.614 Q2185.01 652.396 2190.24 652.396 Q2196.24 652.396 2199.38 657.003 Q2202.56 661.586 2202.56 670.336 Q2202.56 678.507 2198.67 683.391 Q2194.8 688.253 2188.25 688.253 Q2186.49 688.253 2184.69 687.905 Q2182.88 687.558 2180.94 686.864 M2190.24 672.211 Q2193.39 672.211 2195.22 670.058 Q2197.07 667.905 2197.07 664.155 Q2197.07 660.429 2195.22 658.276 Q2193.39 656.1 2190.24 656.1 Q2187.09 656.1 2185.24 658.276 Q2183.41 660.429 2183.41 664.155 Q2183.41 667.905 2185.24 670.058 Q2187.09 672.211 2190.24 672.211 Z" fill="#000000" fill-rule="nonzero" fill-opacity="1"></path></svg>