<?xml version="1.0" encoding="utf-8"?>
<svg xmlns="http://www.w3.org/2000/svg" xmlns:xlink="http://www.w3.org/1999/xlink" width="400" height="300" viewBox="0 0 1600 1200">
<defs>
  <clipPath id="clip000">
    <rect x="0" y="0" width="1600" height="1200"/>
  </clipPath>
</defs>
<path clip-path="url(#clip000)" d="M0 1200 L1600 1200 L1600 0 L0 0  Z" fill="#ffffff" fill-rule="evenodd" fill-opacity="1"/>
<defs>
  <clipPath id="clip001">
    <rect x="272" y="47" width="1218" height="971"/>
  </clipPath>
</defs>
<path clip-path="url(#clip000)" d="M272.407 1016.92 L1489.76 1016.92 L1489.76 47.2441 L272.407 47.2441  Z" fill="#ffffff" fill-rule="evenodd" fill-opacity="1"/>
<polyline clip-path="url(#clip001)" style="stroke:#000000; stroke-linecap:round; stroke-linejoin:round; stroke-width:2; stroke-opacity:0.1; fill:none" points="339.364,1016.92 339.364,47.2441 "/>
<polyline clip-path="url(#clip001)" style="stroke:#000000; stroke-linecap:round; stroke-linejoin:round; stroke-width:2; stroke-opacity:0.1; fill:none" points="648.919,1016.92 648.919,47.2441 "/>
<polyline clip-path="url(#clip001)" style="stroke:#000000; stroke-linecap:round; stroke-linejoin:round; stroke-width:2; stroke-opacity:0.1; fill:none" points="958.474,1016.92 958.474,47.2441 "/>
<polyline clip-path="url(#clip001)" style="stroke:#000000; stroke-linecap:round; stroke-linejoin:round; stroke-width:2; stroke-opacity:0.1; fill:none" points="1268.03,1016.92 1268.03,47.2441 "/>
<polyline clip-path="url(#clip001)" style="stroke:#000000; stroke-linecap:round; stroke-linejoin:round; stroke-width:2; stroke-opacity:0.1; fill:none" points="339.364,1016.92 339.364,47.2441 "/>
<polyline clip-path="url(#clip001)" style="stroke:#000000; stroke-linecap:round; stroke-linejoin:round; stroke-width:2; stroke-opacity:0.1; fill:none" points="648.919,1016.92 648.919,47.2441 "/>
<polyline clip-path="url(#clip001)" style="stroke:#000000; stroke-linecap:round; stroke-linejoin:round; stroke-width:2; stroke-opacity:0.1; fill:none" points="958.474,1016.92 958.474,47.2441 "/>
<polyline clip-path="url(#clip001)" style="stroke:#000000; stroke-linecap:round; stroke-linejoin:round; stroke-width:2; stroke-opacity:0.1; fill:none" points="1268.03,1016.92 1268.03,47.2441 "/>
<polyline clip-path="url(#clip001)" style="stroke:#000000; stroke-linecap:round; stroke-linejoin:round; stroke-width:2; stroke-opacity:0.1; fill:none" points="272.407,1016.92 1489.76,1016.92 "/>
<polyline clip-path="url(#clip001)" style="stroke:#000000; stroke-linecap:round; stroke-linejoin:round; stroke-width:2; stroke-opacity:0.1; fill:none" points="272.407,798.818 1489.76,798.818 "/>
<polyline clip-path="url(#clip001)" style="stroke:#000000; stroke-linecap:round; stroke-linejoin:round; stroke-width:2; stroke-opacity:0.1; fill:none" points="272.407,580.717 1489.76,580.717 "/>
<polyline clip-path="url(#clip001)" style="stroke:#000000; stroke-linecap:round; stroke-linejoin:round; stroke-width:2; stroke-opacity:0.1; fill:none" points="272.407,362.615 1489.76,362.615 "/>
<polyline clip-path="url(#clip001)" style="stroke:#000000; stroke-linecap:round; stroke-linejoin:round; stroke-width:2; stroke-opacity:0.1; fill:none" points="272.407,144.513 1489.76,144.513 "/>
<polyline clip-path="url(#clip001)" style="stroke:#000000; stroke-linecap:round; stroke-linejoin:round; stroke-width:2; stroke-opacity:0.1; fill:none" points="272.407,1016.92 1489.76,1016.92 "/>
<polyline clip-path="url(#clip001)" style="stroke:#000000; stroke-linecap:round; stroke-linejoin:round; stroke-width:2; stroke-opacity:0.1; fill:none" points="272.407,798.818 1489.76,798.818 "/>
<polyline clip-path="url(#clip001)" style="stroke:#000000; stroke-linecap:round; stroke-linejoin:round; stroke-width:2; stroke-opacity:0.1; fill:none" points="272.407,580.717 1489.76,580.717 "/>
<polyline clip-path="url(#clip001)" style="stroke:#000000; stroke-linecap:round; stroke-linejoin:round; stroke-width:2; stroke-opacity:0.1; fill:none" points="272.407,362.615 1489.76,362.615 "/>
<polyline clip-path="url(#clip001)" style="stroke:#000000; stroke-linecap:round; stroke-linejoin:round; stroke-width:2; stroke-opacity:0.1; fill:none" points="272.407,144.513 1489.76,144.513 "/>
<polyline clip-path="url(#clip000)" style="stroke:#000000; stroke-linecap:round; stroke-linejoin:round; stroke-width:4; stroke-opacity:1; fill:none" points="272.407,1016.92 1489.76,1016.92 "/>
<polyline clip-path="url(#clip000)" style="stroke:#000000; stroke-linecap:round; stroke-linejoin:round; stroke-width:4; stroke-opacity:1; fill:none" points="272.407,47.2441 1489.76,47.2441 "/>
<polyline clip-path="url(#clip000)" style="stroke:#000000; stroke-linecap:round; stroke-linejoin:round; stroke-width:4; stroke-opacity:1; fill:none" points="339.364,1016.92 339.364,998.022 "/>
<polyline clip-path="url(#clip000)" style="stroke:#000000; stroke-linecap:round; stroke-linejoin:round; stroke-width:4; stroke-opacity:1; fill:none" points="648.919,1016.92 648.919,998.022 "/>
<polyline clip-path="url(#clip000)" style="stroke:#000000; stroke-linecap:round; stroke-linejoin:round; stroke-width:4; stroke-opacity:1; fill:none" points="958.474,1016.92 958.474,998.022 "/>
<polyline clip-path="url(#clip000)" style="stroke:#000000; stroke-linecap:round; stroke-linejoin:round; stroke-width:4; stroke-opacity:1; fill:none" points="1268.03,1016.92 1268.03,998.022 "/>
<polyline clip-path="url(#clip000)" style="stroke:#000000; stroke-linecap:round; stroke-linejoin:round; stroke-width:4; stroke-opacity:1; fill:none" points="339.364,47.2441 339.364,66.1417 "/>
<polyline clip-path="url(#clip000)" style="stroke:#000000; stroke-linecap:round; stroke-linejoin:round; stroke-width:4; stroke-opacity:1; fill:none" points="648.919,47.2441 648.919,66.1417 "/>
<polyline clip-path="url(#clip000)" style="stroke:#000000; stroke-linecap:round; stroke-linejoin:round; stroke-width:4; stroke-opacity:1; fill:none" points="958.474,47.2441 958.474,66.1417 "/>
<polyline clip-path="url(#clip000)" style="stroke:#000000; stroke-linecap:round; stroke-linejoin:round; stroke-width:4; stroke-opacity:1; fill:none" points="1268.03,47.2441 1268.03,66.1417 "/>
<path clip-path="url(#clip000)" d="M343.144 1059.56 Q343.44 1059.85 343.44 1060.27 Q343.44 1060.69 343.144 1060.99 Q342.847 1061.28 342.427 1061.28 L310.757 1061.28 Q310.338 1061.28 310.041 1060.99 Q309.745 1060.69 309.745 1060.27 Q309.745 1059.85 310.041 1059.56 Q310.338 1059.26 310.757 1059.26 L342.427 1059.26 Q342.847 1059.26 343.144 1059.56 Z" fill="#000000" fill-rule="nonzero" fill-opacity="1" /><path clip-path="url(#clip000)" d="M348.776 1072.92 Q348.776 1072.01 348.85 1071.73 Q348.949 1071.46 349.344 1071.04 L359.053 1060.22 Q364.364 1054.24 364.364 1049.03 Q364.364 1045.65 362.585 1043.23 Q360.831 1040.81 357.595 1040.81 Q355.372 1040.81 353.494 1042.16 Q351.617 1043.52 350.752 1045.94 Q350.9 1045.89 351.419 1045.89 Q352.679 1045.89 353.371 1046.68 Q354.087 1047.48 354.087 1048.54 Q354.087 1049.9 353.198 1050.56 Q352.333 1051.21 351.469 1051.21 Q351.123 1051.21 350.653 1051.13 Q350.209 1051.06 349.492 1050.37 Q348.776 1049.65 348.776 1048.39 Q348.776 1044.86 351.444 1042.04 Q354.137 1039.22 358.237 1039.22 Q362.882 1039.22 365.92 1041.99 Q368.983 1044.73 368.983 1049.03 Q368.983 1050.54 368.514 1051.92 Q368.069 1053.28 367.452 1054.34 Q366.859 1055.41 365.228 1057.11 Q363.598 1058.81 362.289 1060.02 Q360.979 1061.24 358.04 1063.8 L352.679 1069.02 L361.795 1069.02 Q366.241 1069.02 366.587 1068.62 Q367.081 1067.91 367.699 1064.13 L368.983 1064.13 L367.551 1072.92 L348.776 1072.92 Z" fill="#000000" fill-rule="nonzero" fill-opacity="1" /><path clip-path="url(#clip000)" d="M653.465 1059.56 Q653.761 1059.85 653.761 1060.27 Q653.761 1060.69 653.465 1060.99 Q653.168 1061.28 652.748 1061.28 L621.078 1061.28 Q620.658 1061.28 620.362 1060.99 Q620.066 1060.69 620.066 1060.27 Q620.066 1059.85 620.362 1059.56 Q620.658 1059.26 621.078 1059.26 L652.748 1059.26 Q653.168 1059.26 653.465 1059.56 Z" fill="#000000" fill-rule="nonzero" fill-opacity="1" /><path clip-path="url(#clip000)" d="M661.073 1044.04 L661.073 1042.46 Q667.15 1042.46 670.288 1039.22 Q671.152 1039.22 671.3 1039.42 Q671.449 1039.62 671.449 1040.53 L671.449 1068.92 Q671.449 1070.42 672.19 1070.89 Q672.931 1071.36 676.167 1071.36 L677.773 1071.36 L677.773 1072.92 Q675.994 1072.77 669.571 1072.77 Q663.148 1072.77 661.394 1072.92 L661.394 1071.36 L663 1071.36 Q666.187 1071.36 666.953 1070.92 Q667.718 1070.45 667.718 1068.92 L667.718 1042.71 Q665.075 1044.04 661.073 1044.04 Z" fill="#000000" fill-rule="nonzero" fill-opacity="1" /><path clip-path="url(#clip000)" d="M947.827 1056.74 Q947.827 1049.3 949.705 1045.25 Q952.323 1039.22 958.499 1039.22 Q959.808 1039.22 961.167 1039.6 Q962.55 1039.94 964.28 1041.3 Q966.034 1042.66 967.096 1044.88 Q969.121 1049.18 969.121 1056.74 Q969.121 1064.13 967.244 1068.15 Q964.502 1074.03 958.45 1074.03 Q956.177 1074.03 953.855 1072.87 Q951.557 1071.71 950.1 1068.92 Q947.827 1064.74 947.827 1056.74 M952.027 1056.12 Q952.027 1063.75 952.57 1066.79 Q953.188 1070.08 954.868 1071.51 Q956.572 1072.92 958.45 1072.92 Q960.475 1072.92 962.155 1071.41 Q963.86 1069.88 964.378 1066.6 Q964.947 1063.36 964.922 1056.12 Q964.922 1049.08 964.428 1046.26 Q963.761 1042.98 961.982 1041.67 Q960.228 1040.34 958.45 1040.34 Q957.783 1040.34 957.066 1040.53 Q956.374 1040.73 955.362 1041.3 Q954.349 1041.87 953.558 1043.28 Q952.793 1044.68 952.422 1046.81 Q952.027 1049.55 952.027 1056.12 Z" fill="#000000" fill-rule="nonzero" fill-opacity="1" /><path clip-path="url(#clip000)" d="M1259.68 1044.04 L1259.68 1042.46 Q1265.76 1042.46 1268.89 1039.22 Q1269.76 1039.22 1269.91 1039.42 Q1270.06 1039.62 1270.06 1040.53 L1270.06 1068.92 Q1270.06 1070.42 1270.8 1070.89 Q1271.54 1071.36 1274.77 1071.36 L1276.38 1071.36 L1276.38 1072.92 Q1274.6 1072.77 1268.18 1072.77 Q1261.75 1072.77 1260 1072.92 L1260 1071.36 L1261.61 1071.36 Q1264.79 1071.36 1265.56 1070.92 Q1266.32 1070.45 1266.32 1068.92 L1266.32 1042.71 Q1263.68 1044.04 1259.68 1044.04 Z" fill="#000000" fill-rule="nonzero" fill-opacity="1" /><path clip-path="url(#clip000)" d="M803.64 1121.96 L803.64 1119.79 Q806.765 1119.99 810.4 1119.99 Q811.725 1119.99 817.975 1119.79 L817.975 1121.96 Q814 1121.96 814 1123.77 Q814 1124.04 814.408 1124.95 L822.22 1144.35 L829.32 1126.62 Q829.727 1125.43 829.727 1124.95 Q829.727 1123.77 828.912 1122.92 Q828.131 1122.03 826.398 1121.96 L826.398 1119.79 Q829.931 1119.99 832.445 1119.99 Q835.298 1119.99 837.642 1119.79 L837.642 1121.96 Q835.57 1121.96 834.109 1122.92 Q832.648 1123.83 832.173 1124.65 Q831.731 1125.43 831.256 1126.62 L822.153 1149.24 Q821.609 1150.57 820.692 1150.57 Q820.081 1150.57 819.809 1150.29 Q819.571 1150.06 819.231 1149.24 L809.211 1124.55 Q808.532 1122.81 807.649 1122.41 Q806.765 1121.96 803.64 1121.96 Z" fill="#000000" fill-rule="nonzero" fill-opacity="1" /><path clip-path="url(#clip000)" d="M839.951 1143.16 Q839.951 1137.25 846.915 1134.13 Q851.093 1132.12 859.72 1131.61 L859.72 1129.06 Q859.72 1124.75 857.444 1122.47 Q855.203 1120.16 852.349 1120.16 Q847.254 1120.16 844.809 1123.36 Q846.881 1123.43 847.628 1124.48 Q848.375 1125.5 848.375 1126.55 Q848.375 1127.94 847.492 1128.86 Q846.643 1129.74 845.182 1129.74 Q843.79 1129.74 842.872 1128.89 Q841.955 1128.01 841.955 1126.48 Q841.955 1123.09 845.012 1120.84 Q848.103 1118.6 852.485 1118.6 Q858.192 1118.6 861.996 1122.44 Q863.185 1123.63 863.762 1125.16 Q864.374 1126.69 864.442 1127.71 Q864.51 1128.69 864.51 1130.66 L864.51 1144.55 Q864.51 1144.96 864.645 1145.64 Q864.781 1146.32 865.393 1147.2 Q866.038 1148.05 867.091 1148.05 Q869.605 1148.05 869.571 1143.6 L869.571 1139.7 L871.337 1139.7 L871.337 1143.6 Q871.337 1147.3 869.367 1148.76 Q867.431 1150.19 865.63 1150.19 Q863.321 1150.19 861.86 1148.49 Q860.4 1146.79 860.196 1144.48 Q859.143 1147.13 856.731 1148.87 Q854.353 1150.57 851.093 1150.57 Q848.579 1150.57 846.201 1149.92 Q843.858 1149.31 841.887 1147.58 Q839.951 1145.81 839.951 1143.16 M845.318 1143.09 Q845.318 1145.67 847.152 1147.34 Q848.987 1149 851.568 1149 Q854.489 1149 857.105 1146.76 Q859.72 1144.48 859.72 1140.04 L859.72 1133.07 Q852.01 1133.34 848.647 1136.43 Q845.318 1139.49 845.318 1143.09 Z" fill="#000000" fill-rule="nonzero" fill-opacity="1" /><path clip-path="url(#clip000)" d="M874.122 1149.78 L874.122 1147.64 Q877.825 1147.64 878.674 1147.2 Q879.523 1146.73 879.523 1144.48 L879.523 1108.31 Q879.523 1105.73 878.606 1105.08 Q877.723 1104.44 874.122 1104.44 L874.122 1102.26 L884.109 1101.52 L884.109 1144.48 Q884.109 1146.73 884.992 1147.2 Q885.875 1147.64 889.543 1147.64 L889.543 1149.78 Q888.694 1149.78 886.928 1149.72 Q885.162 1149.65 883.871 1149.61 Q882.58 1149.58 881.833 1149.58 Q881.018 1149.58 874.122 1149.78 Z" fill="#000000" fill-rule="nonzero" fill-opacity="1" /><path clip-path="url(#clip000)" d="M893.314 1121.96 L893.314 1119.79 L903.538 1119.04 L903.538 1142.14 Q903.538 1143.81 903.674 1144.79 Q903.809 1145.74 904.353 1146.86 Q904.93 1147.98 906.221 1148.49 Q907.546 1149 909.652 1149 Q913.422 1149 915.732 1145.91 Q918.076 1142.82 918.076 1138.24 L918.076 1125.84 Q918.076 1123.26 917.159 1122.61 Q916.241 1121.96 912.641 1121.96 L912.641 1119.79 L922.865 1119.04 L922.865 1143.74 Q922.865 1146.32 923.748 1147 Q924.665 1147.64 928.3 1147.64 L928.3 1149.78 L918.279 1150.57 L918.279 1144.28 Q915.358 1150.53 909.312 1150.57 Q906.255 1150.57 904.149 1149.78 Q902.077 1149 901.024 1148.05 Q899.971 1147.07 899.394 1145.2 Q898.85 1143.33 898.782 1142.18 Q898.714 1141.02 898.714 1138.78 L898.714 1128.35 Q898.714 1123.63 898.035 1122.81 Q897.356 1121.96 893.314 1121.96 Z" fill="#000000" fill-rule="nonzero" fill-opacity="1" /><path clip-path="url(#clip000)" d="M931.595 1134.46 Q931.595 1127.91 935.807 1123.26 Q940.018 1118.6 946.065 1118.6 Q952.179 1118.6 955.338 1122.58 Q958.531 1126.55 958.531 1132.26 Q958.531 1133.31 958.259 1133.51 Q957.987 1133.72 956.798 1133.72 L937.369 1133.72 Q937.369 1140.82 939.475 1144.15 Q942.396 1148.8 947.321 1148.8 Q948.001 1148.8 948.816 1148.66 Q949.631 1148.53 951.296 1147.95 Q952.96 1147.34 954.421 1145.74 Q955.881 1144.15 956.73 1141.63 Q956.934 1140.65 957.613 1140.68 Q958.531 1140.68 958.531 1141.5 Q958.531 1142.11 957.851 1143.5 Q957.206 1144.86 955.949 1146.49 Q954.692 1148.12 952.247 1149.34 Q949.835 1150.57 946.914 1150.57 Q940.8 1150.57 936.18 1145.95 Q931.595 1141.29 931.595 1134.46 M937.437 1132.26 L953.945 1132.26 Q953.945 1130.8 953.673 1129.17 Q953.435 1127.54 952.688 1125.29 Q951.975 1123.02 950.277 1121.59 Q948.578 1120.16 946.065 1120.16 Q944.944 1120.16 943.721 1120.64 Q942.532 1121.12 941.071 1122.27 Q939.611 1123.43 938.592 1126.04 Q937.573 1128.66 937.437 1132.26 Z" fill="#000000" fill-rule="nonzero" fill-opacity="1" /><polyline clip-path="url(#clip000)" style="stroke:#000000; stroke-linecap:round; stroke-linejoin:round; stroke-width:4; stroke-opacity:1; fill:none" points="272.407,1016.92 272.407,47.2441 "/>
<polyline clip-path="url(#clip000)" style="stroke:#000000; stroke-linecap:round; stroke-linejoin:round; stroke-width:4; stroke-opacity:1; fill:none" points="1489.76,1016.92 1489.76,47.2441 "/>
<polyline clip-path="url(#clip000)" style="stroke:#000000; stroke-linecap:round; stroke-linejoin:round; stroke-width:4; stroke-opacity:1; fill:none" points="272.407,1016.92 291.305,1016.92 "/>
<polyline clip-path="url(#clip000)" style="stroke:#000000; stroke-linecap:round; stroke-linejoin:round; stroke-width:4; stroke-opacity:1; fill:none" points="272.407,798.818 291.305,798.818 "/>
<polyline clip-path="url(#clip000)" style="stroke:#000000; stroke-linecap:round; stroke-linejoin:round; stroke-width:4; stroke-opacity:1; fill:none" points="272.407,580.717 291.305,580.717 "/>
<polyline clip-path="url(#clip000)" style="stroke:#000000; stroke-linecap:round; stroke-linejoin:round; stroke-width:4; stroke-opacity:1; fill:none" points="272.407,362.615 291.305,362.615 "/>
<polyline clip-path="url(#clip000)" style="stroke:#000000; stroke-linecap:round; stroke-linejoin:round; stroke-width:4; stroke-opacity:1; fill:none" points="272.407,144.513 291.305,144.513 "/>
<polyline clip-path="url(#clip000)" style="stroke:#000000; stroke-linecap:round; stroke-linejoin:round; stroke-width:4; stroke-opacity:1; fill:none" points="1489.76,1016.92 1470.87,1016.92 "/>
<polyline clip-path="url(#clip000)" style="stroke:#000000; stroke-linecap:round; stroke-linejoin:round; stroke-width:4; stroke-opacity:1; fill:none" points="1489.76,798.818 1470.87,798.818 "/>
<polyline clip-path="url(#clip000)" style="stroke:#000000; stroke-linecap:round; stroke-linejoin:round; stroke-width:4; stroke-opacity:1; fill:none" points="1489.76,580.717 1470.87,580.717 "/>
<polyline clip-path="url(#clip000)" style="stroke:#000000; stroke-linecap:round; stroke-linejoin:round; stroke-width:4; stroke-opacity:1; fill:none" points="1489.76,362.615 1470.87,362.615 "/>
<polyline clip-path="url(#clip000)" style="stroke:#000000; stroke-linecap:round; stroke-linejoin:round; stroke-width:4; stroke-opacity:1; fill:none" points="1489.76,144.513 1470.87,144.513 "/>
<path clip-path="url(#clip000)" d="M187.76 1018.02 Q187.76 1010.58 189.638 1006.53 Q192.256 1000.5 198.432 1000.5 Q199.742 1000.5 201.1 1000.88 Q202.484 1001.22 204.213 1002.58 Q205.967 1003.94 207.029 1006.16 Q209.055 1010.46 209.055 1018.02 Q209.055 1025.41 207.177 1029.43 Q204.435 1035.31 198.383 1035.31 Q196.11 1035.31 193.788 1034.15 Q191.491 1032.99 190.033 1030.2 Q187.76 1026.02 187.76 1018.02 M191.96 1017.4 Q191.96 1025.03 192.504 1028.07 Q193.121 1031.36 194.801 1032.79 Q196.505 1034.2 198.383 1034.2 Q200.409 1034.2 202.088 1032.69 Q203.793 1031.16 204.312 1027.88 Q204.88 1024.64 204.855 1017.4 Q204.855 1010.36 204.361 1007.54 Q203.694 1004.26 201.915 1002.95 Q200.162 1001.62 198.383 1001.62 Q197.716 1001.62 197 1001.81 Q196.308 1002.01 195.295 1002.58 Q194.282 1003.15 193.492 1004.56 Q192.726 1005.96 192.355 1008.09 Q191.96 1010.83 191.96 1017.4 Z" fill="#000000" fill-rule="nonzero" fill-opacity="1" /><path clip-path="url(#clip000)" d="M216.145 1033.38 Q215.379 1032.57 215.379 1031.51 Q215.379 1030.44 216.145 1029.68 Q216.91 1028.89 218.071 1028.89 Q219.183 1028.89 219.924 1029.63 Q220.69 1030.35 220.69 1031.53 Q220.69 1032.69 219.875 1033.46 Q219.084 1034.2 218.071 1034.2 Q216.91 1034.2 216.145 1033.38 Z" fill="#000000" fill-rule="nonzero" fill-opacity="1" /><path clip-path="url(#clip000)" d="M227.113 1018.02 Q227.113 1010.58 228.99 1006.53 Q231.609 1000.5 237.785 1000.5 Q239.094 1000.5 240.453 1000.88 Q241.836 1001.22 243.565 1002.58 Q245.319 1003.94 246.382 1006.16 Q248.407 1010.46 248.407 1018.02 Q248.407 1025.41 246.53 1029.43 Q243.788 1035.31 237.735 1035.31 Q235.463 1035.31 233.141 1034.15 Q230.843 1032.99 229.386 1030.2 Q227.113 1026.02 227.113 1018.02 M231.312 1017.4 Q231.312 1025.03 231.856 1028.07 Q232.474 1031.36 234.153 1032.79 Q235.858 1034.2 237.735 1034.2 Q239.761 1034.2 241.441 1032.69 Q243.145 1031.16 243.664 1027.88 Q244.232 1024.64 244.208 1017.4 Q244.208 1010.36 243.714 1007.54 Q243.047 1004.26 241.268 1002.95 Q239.514 1001.62 237.735 1001.62 Q237.068 1001.62 236.352 1001.81 Q235.66 1002.01 234.647 1002.58 Q233.635 1003.15 232.844 1004.56 Q232.078 1005.96 231.708 1008.09 Q231.312 1010.83 231.312 1017.4 Z" fill="#000000" fill-rule="nonzero" fill-opacity="1" /><path clip-path="url(#clip000)" d="M188.304 799.918 Q188.304 792.482 190.181 788.43 Q192.8 782.403 198.976 782.403 Q200.285 782.403 201.644 782.773 Q203.027 783.119 204.756 784.478 Q206.51 785.837 207.573 788.06 Q209.598 792.358 209.598 799.918 Q209.598 807.304 207.721 811.33 Q204.979 817.21 198.926 817.21 Q196.654 817.21 194.332 816.049 Q192.034 814.888 190.577 812.096 Q188.304 807.921 188.304 799.918 M192.504 799.3 Q192.504 806.933 193.047 809.972 Q193.665 813.257 195.344 814.69 Q197.049 816.098 198.926 816.098 Q200.952 816.098 202.632 814.591 Q204.336 813.06 204.855 809.774 Q205.423 806.538 205.399 799.3 Q205.399 792.259 204.905 789.443 Q204.238 786.158 202.459 784.848 Q200.705 783.514 198.926 783.514 Q198.259 783.514 197.543 783.712 Q196.851 783.91 195.838 784.478 Q194.826 785.046 194.035 786.454 Q193.269 787.862 192.899 789.987 Q192.504 792.729 192.504 799.3 Z" fill="#000000" fill-rule="nonzero" fill-opacity="1" /><path clip-path="url(#clip000)" d="M216.688 815.283 Q215.922 814.468 215.922 813.406 Q215.922 812.343 216.688 811.578 Q217.454 810.787 218.615 810.787 Q219.727 810.787 220.468 811.528 Q221.234 812.244 221.234 813.43 Q221.234 814.591 220.418 815.357 Q219.628 816.098 218.615 816.098 Q217.454 816.098 216.688 815.283 Z" fill="#000000" fill-rule="nonzero" fill-opacity="1" /><path clip-path="url(#clip000)" d="M228.2 816.098 Q228.2 815.184 228.274 814.912 Q228.373 814.641 228.768 814.221 L238.476 803.401 Q243.788 797.422 243.788 792.21 Q243.788 788.826 242.009 786.405 Q240.255 783.984 237.019 783.984 Q234.796 783.984 232.918 785.343 Q231.041 786.701 230.176 789.122 Q230.324 789.073 230.843 789.073 Q232.103 789.073 232.795 789.863 Q233.511 790.654 233.511 791.716 Q233.511 793.075 232.622 793.742 Q231.757 794.384 230.893 794.384 Q230.547 794.384 230.077 794.31 Q229.633 794.236 228.916 793.544 Q228.2 792.828 228.2 791.568 Q228.2 788.035 230.868 785.219 Q233.56 782.403 237.661 782.403 Q242.305 782.403 245.344 785.17 Q248.407 787.912 248.407 792.21 Q248.407 793.717 247.938 795.1 Q247.493 796.459 246.876 797.521 Q246.283 798.584 244.652 800.288 Q243.022 801.993 241.713 803.203 Q240.403 804.414 237.464 806.983 L232.103 812.195 L241.219 812.195 Q245.665 812.195 246.011 811.8 Q246.505 811.083 247.123 807.304 L248.407 807.304 L246.974 816.098 L228.2 816.098 Z" fill="#000000" fill-rule="nonzero" fill-opacity="1" /><path clip-path="url(#clip000)" d="M187.192 581.816 Q187.192 574.38 189.07 570.329 Q191.688 564.301 197.864 564.301 Q199.173 564.301 200.532 564.672 Q201.915 565.018 203.645 566.376 Q205.399 567.735 206.461 569.958 Q208.487 574.257 208.487 581.816 Q208.487 589.202 206.609 593.229 Q203.867 599.108 197.815 599.108 Q195.542 599.108 193.22 597.947 Q190.922 596.786 189.465 593.995 Q187.192 589.82 187.192 581.816 M191.392 581.198 Q191.392 588.832 191.935 591.87 Q192.553 595.156 194.233 596.588 Q195.937 597.997 197.815 597.997 Q199.84 597.997 201.52 596.49 Q203.225 594.958 203.744 591.673 Q204.312 588.436 204.287 581.198 Q204.287 574.158 203.793 571.342 Q203.126 568.056 201.347 566.747 Q199.593 565.413 197.815 565.413 Q197.148 565.413 196.431 565.61 Q195.74 565.808 194.727 566.376 Q193.714 566.944 192.923 568.353 Q192.158 569.761 191.787 571.885 Q191.392 574.627 191.392 581.198 Z" fill="#000000" fill-rule="nonzero" fill-opacity="1" /><path clip-path="url(#clip000)" d="M215.576 597.181 Q214.811 596.366 214.811 595.304 Q214.811 594.242 215.576 593.476 Q216.342 592.685 217.503 592.685 Q218.615 592.685 219.356 593.426 Q220.122 594.143 220.122 595.329 Q220.122 596.49 219.307 597.255 Q218.516 597.997 217.503 597.997 Q216.342 597.997 215.576 597.181 Z" fill="#000000" fill-rule="nonzero" fill-opacity="1" /><path clip-path="url(#clip000)" d="M225.977 589.647 L225.977 588.091 L241.515 564.351 Q241.91 563.733 242.528 563.758 Q243.096 563.758 243.22 563.98 Q243.343 564.202 243.343 565.067 L243.343 588.091 L248.407 588.091 L248.407 589.647 L243.343 589.647 L243.343 594.044 Q243.343 595.502 243.936 595.971 Q244.553 596.44 247.172 596.44 L248.234 596.44 L248.234 597.997 Q246.159 597.848 241.367 597.848 Q236.599 597.848 234.524 597.997 L234.524 596.44 L235.586 596.44 Q238.205 596.44 238.822 595.996 Q239.44 595.526 239.44 594.044 L239.44 589.647 L225.977 589.647 M227.409 588.091 L239.736 588.091 L239.736 569.217 L227.409 588.091 Z" fill="#000000" fill-rule="nonzero" fill-opacity="1" /><path clip-path="url(#clip000)" d="M187.909 363.714 Q187.909 356.279 189.786 352.227 Q192.405 346.2 198.581 346.2 Q199.89 346.2 201.248 346.57 Q202.632 346.916 204.361 348.275 Q206.115 349.633 207.177 351.857 Q209.203 356.155 209.203 363.714 Q209.203 371.101 207.326 375.127 Q204.583 381.007 198.531 381.007 Q196.258 381.007 193.936 379.846 Q191.639 378.684 190.181 375.893 Q187.909 371.718 187.909 363.714 M192.108 363.097 Q192.108 370.73 192.652 373.769 Q193.269 377.054 194.949 378.487 Q196.654 379.895 198.531 379.895 Q200.557 379.895 202.237 378.388 Q203.941 376.856 204.46 373.571 Q205.028 370.335 205.003 363.097 Q205.003 356.056 204.509 353.24 Q203.842 349.954 202.064 348.645 Q200.31 347.311 198.531 347.311 Q197.864 347.311 197.148 347.509 Q196.456 347.706 195.443 348.275 Q194.43 348.843 193.64 350.251 Q192.874 351.659 192.504 353.784 Q192.108 356.526 192.108 363.097 Z" fill="#000000" fill-rule="nonzero" fill-opacity="1" /><path clip-path="url(#clip000)" d="M216.293 379.08 Q215.527 378.265 215.527 377.202 Q215.527 376.14 216.293 375.374 Q217.059 374.584 218.22 374.584 Q219.331 374.584 220.072 375.325 Q220.838 376.041 220.838 377.227 Q220.838 378.388 220.023 379.154 Q219.233 379.895 218.22 379.895 Q217.059 379.895 216.293 379.08 Z" fill="#000000" fill-rule="nonzero" fill-opacity="1" /><path clip-path="url(#clip000)" d="M227.409 363.912 Q227.409 355.957 231.461 351.091 Q235.512 346.2 240.724 346.2 Q243.763 346.2 245.443 347.756 Q247.147 349.287 247.147 351.659 Q247.147 352.968 246.382 353.536 Q245.616 354.105 244.825 354.105 Q243.911 354.105 243.195 353.487 Q242.478 352.869 242.478 351.758 Q242.478 349.485 245.27 349.485 Q243.961 347.459 240.823 347.459 Q239.86 347.459 238.872 347.756 Q237.884 348.028 236.599 348.966 Q235.314 349.905 234.326 351.387 Q233.338 352.869 232.646 355.661 Q231.955 358.452 231.955 362.084 L231.955 363.294 Q234.03 358.28 238.279 358.304 Q242.528 358.304 245.468 361.54 Q248.407 364.777 248.407 369.569 Q248.407 374.485 245.344 377.746 Q242.281 381.007 237.982 381.007 Q236.056 381.007 234.302 380.191 Q232.572 379.401 230.942 377.573 Q229.336 375.745 228.373 372.237 Q227.409 368.729 227.409 363.912 M232.054 368.457 Q232.054 373.423 232.968 375.794 Q233.116 376.189 233.437 376.733 Q233.783 377.276 234.351 377.993 Q234.944 378.684 235.907 379.154 Q236.871 379.599 237.982 379.599 Q241.367 379.599 242.997 376.313 Q243.862 374.485 243.862 369.52 Q243.862 364.455 242.948 362.603 Q241.391 359.465 238.229 359.465 Q236.105 359.465 234.623 360.923 Q233.165 362.38 232.597 364.332 Q232.054 366.283 232.054 368.457 Z" fill="#000000" fill-rule="nonzero" fill-opacity="1" /><path clip-path="url(#clip000)" d="M187.909 145.613 Q187.909 138.177 189.786 134.126 Q192.405 128.098 198.581 128.098 Q199.89 128.098 201.248 128.469 Q202.632 128.814 204.361 130.173 Q206.115 131.532 207.177 133.755 Q209.203 138.053 209.203 145.613 Q209.203 152.999 207.326 157.026 Q204.583 162.905 198.531 162.905 Q196.258 162.905 193.936 161.744 Q191.639 160.583 190.181 157.791 Q187.909 153.617 187.909 145.613 M192.108 144.995 Q192.108 152.628 192.652 155.667 Q193.269 158.952 194.949 160.385 Q196.654 161.793 198.531 161.793 Q200.557 161.793 202.237 160.286 Q203.941 158.755 204.46 155.469 Q205.028 152.233 205.003 144.995 Q205.003 137.955 204.509 135.138 Q203.842 131.853 202.064 130.544 Q200.31 129.21 198.531 129.21 Q197.864 129.21 197.148 129.407 Q196.456 129.605 195.443 130.173 Q194.43 130.741 193.64 132.149 Q192.874 133.557 192.504 135.682 Q192.108 138.424 192.108 144.995 Z" fill="#000000" fill-rule="nonzero" fill-opacity="1" /><path clip-path="url(#clip000)" d="M216.293 160.978 Q215.527 160.163 215.527 159.101 Q215.527 158.038 216.293 157.273 Q217.059 156.482 218.22 156.482 Q219.331 156.482 220.072 157.223 Q220.838 157.94 220.838 159.125 Q220.838 160.286 220.023 161.052 Q219.233 161.793 218.22 161.793 Q217.059 161.793 216.293 160.978 Z" fill="#000000" fill-rule="nonzero" fill-opacity="1" /><path clip-path="url(#clip000)" d="M227.409 154.16 Q227.409 148.503 234.697 144.847 Q231.56 142.722 230.991 142.105 Q228.768 139.634 228.768 136.547 Q228.768 133.014 231.436 130.568 Q234.129 128.098 237.933 128.098 Q241.564 128.098 244.306 130.198 Q247.049 132.298 247.049 135.632 Q247.049 140.326 240.922 143.488 Q244.973 146.008 245.937 147.07 Q248.407 149.812 248.407 153.295 Q248.407 157.347 245.295 160.138 Q242.182 162.905 237.884 162.905 Q233.684 162.905 230.547 160.459 Q227.409 158.014 227.409 154.16 M229.929 154.16 Q229.929 157.297 232.276 159.397 Q234.647 161.497 237.933 161.497 Q241.12 161.497 243.491 159.669 Q245.887 157.841 245.887 155.123 Q245.887 154.061 245.517 153.147 Q245.171 152.233 244.455 151.517 Q243.763 150.776 243.318 150.454 Q242.898 150.109 242.083 149.54 L235.858 145.613 Q229.929 148.898 229.929 154.16 M230.991 134.57 Q230.991 136.991 233.536 138.671 L239.81 142.722 Q244.825 139.783 244.825 135.632 Q244.825 132.94 242.775 131.161 Q240.724 129.358 237.884 129.358 Q235.092 129.358 233.042 130.84 Q230.991 132.298 230.991 134.57 Z" fill="#000000" fill-rule="nonzero" fill-opacity="1" /><path clip-path="url(#clip000)" d="M133.991 638.416 Q127.367 638.416 122.782 633.797 Q118.196 629.177 118.196 622.927 Q118.196 617.628 122.51 614.164 L107.462 614.164 Q104.881 614.164 104.236 615.081 Q103.59 615.964 103.59 619.564 L101.416 619.564 L100.669 609.544 L142.89 609.544 Q145.472 609.544 146.151 608.661 Q146.796 607.744 146.796 604.143 L148.936 604.143 L149.718 614.367 L145.098 614.367 Q149.684 617.968 149.718 623.674 Q149.718 629.653 145.132 634.034 Q140.546 638.416 133.991 638.416 M134.059 632.642 Q140.512 632.642 143.705 630.638 Q148.155 627.852 148.155 623.335 Q148.155 618.172 143.298 615.115 Q142.109 614.333 140.716 614.367 L126.45 614.367 Q125.057 614.367 123.903 615.115 Q119.725 617.968 119.725 622.621 Q119.725 627.479 124.174 630.502 Q127.503 632.642 134.059 632.642 Z" fill="#000000" fill-rule="nonzero" fill-opacity="1" /><path clip-path="url(#clip000)" d="M133.617 600.271 Q127.061 600.271 122.408 596.059 Q117.754 591.847 117.754 585.801 Q117.754 579.687 121.729 576.528 Q125.703 573.335 131.409 573.335 Q132.462 573.335 132.666 573.607 Q132.87 573.879 132.87 575.067 L132.87 594.497 Q139.969 594.497 143.298 592.391 Q147.951 589.469 147.951 584.544 Q147.951 583.865 147.815 583.05 Q147.68 582.234 147.102 580.57 Q146.491 578.906 144.894 577.445 Q143.298 575.984 140.784 575.135 Q139.799 574.931 139.833 574.252 Q139.833 573.335 140.648 573.335 Q141.26 573.335 142.652 574.014 Q144.011 574.66 145.641 575.917 Q147.272 577.173 148.495 579.619 Q149.718 582.031 149.718 584.952 Q149.718 591.066 145.098 595.685 Q140.445 600.271 133.617 600.271 M131.409 594.429 L131.409 577.921 Q129.949 577.921 128.318 578.192 Q126.688 578.43 124.446 579.177 Q122.17 579.891 120.744 581.589 Q119.317 583.287 119.317 585.801 Q119.317 586.922 119.792 588.145 Q120.268 589.334 121.423 590.794 Q122.578 592.255 125.193 593.274 Q127.809 594.293 131.409 594.429 Z" fill="#000000" fill-rule="nonzero" fill-opacity="1" /><path clip-path="url(#clip000)" d="M148.936 569.089 L146.796 569.089 Q146.796 565.387 146.355 564.538 Q145.879 563.688 143.637 563.688 L124.989 563.688 Q122.408 563.688 121.763 564.605 Q121.117 565.489 121.117 569.089 L118.943 569.089 L118.196 559.307 L125.499 559.307 Q118.196 556.046 118.196 549.015 Q118.196 543.784 120.778 541.712 Q122.51 540.183 124.446 539.877 Q126.382 539.538 131.409 539.538 L144.69 539.538 Q146.151 539.47 146.491 538.349 Q146.796 537.228 146.796 534.103 L148.936 534.103 Q148.732 541.202 148.732 541.915 Q148.732 542.459 148.936 549.762 L146.796 549.762 Q146.796 546.059 146.355 545.21 Q145.879 544.327 143.637 544.327 L127.435 544.327 Q123.903 544.327 121.831 545.414 Q119.725 546.501 119.725 549.49 Q119.725 553.091 122.748 555.978 Q125.771 558.865 130.866 558.865 L143.637 558.865 Q145.879 558.865 146.355 558.016 Q146.796 557.133 146.796 553.464 L148.936 553.464 Q148.732 560.563 148.732 561.243 Q148.732 561.786 148.936 569.089 Z" fill="#000000" fill-rule="nonzero" fill-opacity="1" /><path clip-path="url(#clip000)" d="M148.019 530.435 L138.848 530.435 Q138.067 530.435 137.795 530.401 Q137.523 530.367 137.32 530.163 Q137.116 529.959 137.116 529.551 Q137.116 529.076 137.32 528.906 Q137.523 528.702 138.305 528.566 Q143.094 527.513 145.641 525.272 Q148.155 522.996 148.155 518.886 Q148.155 514.98 146.423 513.009 Q144.69 511.039 141.837 511.039 Q136.742 511.039 135.451 518.274 Q134.602 522.452 134.059 524.185 Q133.481 525.917 132.224 527.445 Q129.779 530.435 126.314 530.435 Q122.85 530.435 120.302 527.819 Q117.754 525.17 117.754 519.327 Q117.754 515.421 119.725 512.772 Q119.113 511.99 118.604 511.583 Q117.754 510.666 117.754 510.19 Q117.754 509.647 118.128 509.545 Q118.468 509.443 119.453 509.443 L126.45 509.443 Q127.231 509.443 127.503 509.477 Q127.775 509.511 127.979 509.715 Q128.148 509.918 128.148 510.36 Q128.148 511.141 127.503 511.175 Q119.079 511.719 119.079 519.327 Q119.079 523.437 120.676 525.272 Q122.238 527.106 124.378 527.106 Q125.567 527.106 126.484 526.562 Q127.367 525.985 127.911 525.272 Q128.42 524.524 128.93 523.166 Q129.405 521.807 129.575 520.992 Q129.745 520.143 130.085 518.546 Q131.138 512.975 133.413 510.632 Q136.334 507.711 140.037 507.711 Q144.147 507.711 146.932 510.496 Q149.718 513.281 149.718 518.886 Q149.718 523.403 146.694 526.562 Q147.102 526.97 147.476 527.276 Q147.815 527.581 147.951 527.717 Q148.087 527.819 148.189 527.853 Q148.257 527.887 148.325 527.955 Q149.718 529.348 149.718 529.687 Q149.718 530.231 149.344 530.333 Q149.004 530.435 148.019 530.435 Z" fill="#000000" fill-rule="nonzero" fill-opacity="1" /><path clip-path="url(#clip000)" d="M148.936 503.057 L146.796 503.057 Q146.796 499.355 146.355 498.505 Q145.879 497.656 143.637 497.656 L124.922 497.656 Q122.34 497.656 121.729 498.539 Q121.117 499.389 121.117 502.785 L118.943 502.785 L118.196 493.071 L143.705 493.071 Q145.777 493.071 146.287 492.323 Q146.796 491.576 146.796 488.179 L148.936 488.179 Q148.732 495.279 148.732 495.414 Q148.732 496.366 148.936 503.057 M106.07 500.136 Q104.677 500.136 103.556 499.083 Q102.401 497.996 102.401 496.467 Q102.401 494.939 103.454 493.852 Q104.473 492.765 106.104 492.765 Q107.7 492.765 108.753 493.852 Q109.772 494.939 109.772 496.467 Q109.772 498.064 108.651 499.117 Q107.53 500.136 106.07 500.136 Z" fill="#000000" fill-rule="nonzero" fill-opacity="1" /><path clip-path="url(#clip000)" d="M121.117 484.783 L119.589 484.783 Q119.453 481.59 117.211 479.484 Q114.935 477.344 112.15 476.631 Q109.365 475.883 106.138 475.815 L106.138 474.083 L118.943 474.083 L118.943 464.131 L121.117 464.131 L121.117 474.083 L140.445 474.083 Q147.951 474.083 147.951 469.396 Q147.951 467.392 145.913 466.067 Q143.841 464.742 140.173 464.742 L136.334 464.742 L136.334 463.01 L140.309 463.01 Q144.079 463.01 146.898 464.742 Q149.718 466.474 149.718 469.905 Q149.718 471.162 149.378 472.419 Q149.072 473.642 148.257 475.272 Q147.408 476.868 145.37 477.887 Q143.298 478.872 140.309 478.872 L121.117 478.872 L121.117 484.783 Z" fill="#000000" fill-rule="nonzero" fill-opacity="1" /><path clip-path="url(#clip000)" d="M157.564 459.749 Q156.103 459.749 155.322 458.9 Q154.575 458.017 154.575 456.828 Q154.575 455.571 155.356 454.756 Q156.171 453.907 157.496 453.907 Q160.077 453.907 160.417 456.624 Q161.674 455.299 161.674 453.363 Q161.674 451.291 160.145 449.627 Q158.617 447.928 157.156 447.215 Q155.696 446.468 153.046 445.415 Q150.974 444.43 148.936 443.683 L123.529 454.11 Q121.864 454.79 121.491 455.843 Q121.117 456.896 121.117 459.749 L118.943 459.749 Q119.147 456.624 119.147 452.99 Q119.147 450.85 118.943 445.415 L121.117 445.415 Q121.117 449.321 122.917 449.321 Q123.121 449.321 124.174 448.913 L142.89 441.169 L125.771 434.138 Q124.786 433.73 124.106 433.73 Q121.253 433.73 121.117 436.991 L118.943 436.991 Q119.147 432.405 119.147 430.945 Q119.147 428.092 118.943 425.748 L121.117 425.748 Q121.117 430.401 125.567 432.202 L155.254 444.464 Q163.169 447.793 163.202 453.363 Q163.202 456.013 161.572 457.881 Q159.942 459.749 157.564 459.749 Z" fill="#000000" fill-rule="nonzero" fill-opacity="1" /><path clip-path="url(#clip001)" d="M339.364 962.394 L339.364 1016.92 L494.142 1016.92 L494.142 962.394 L339.364 962.394 L339.364 962.394  Z" fill="#808080" fill-rule="evenodd" fill-opacity="1"/>
<polyline clip-path="url(#clip001)" style="stroke:#000000; stroke-linecap:round; stroke-linejoin:round; stroke-width:4; stroke-opacity:1; fill:none" points="339.364,962.394 339.364,1016.92 494.142,1016.92 494.142,962.394 339.364,962.394 "/>
<path clip-path="url(#clip001)" d="M494.142 907.869 L494.142 1016.92 L648.919 1016.92 L648.919 907.869 L494.142 907.869 L494.142 907.869  Z" fill="#808080" fill-rule="evenodd" fill-opacity="1"/>
<polyline clip-path="url(#clip001)" style="stroke:#000000; stroke-linecap:round; stroke-linejoin:round; stroke-width:4; stroke-opacity:1; fill:none" points="494.142,907.869 494.142,1016.92 648.919,1016.92 648.919,907.869 494.142,907.869 "/>
<path clip-path="url(#clip001)" d="M648.919 580.717 L648.919 1016.92 L803.697 1016.92 L803.697 580.717 L648.919 580.717 L648.919 580.717  Z" fill="#808080" fill-rule="evenodd" fill-opacity="1"/>
<polyline clip-path="url(#clip001)" style="stroke:#000000; stroke-linecap:round; stroke-linejoin:round; stroke-width:4; stroke-opacity:1; fill:none" points="648.919,580.717 648.919,1016.92 803.697,1016.92 803.697,580.717 648.919,580.717 "/>
<path clip-path="url(#clip001)" d="M803.697 199.039 L803.697 1016.92 L958.474 1016.92 L958.474 199.039 L803.697 199.039 L803.697 199.039  Z" fill="#808080" fill-rule="evenodd" fill-opacity="1"/>
<polyline clip-path="url(#clip001)" style="stroke:#000000; stroke-linecap:round; stroke-linejoin:round; stroke-width:4; stroke-opacity:1; fill:none" points="803.697,199.039 803.697,1016.92 958.474,1016.92 958.474,199.039 803.697,199.039 "/>
<path clip-path="url(#clip001)" d="M958.474 580.717 L958.474 1016.92 L1113.25 1016.92 L1113.25 580.717 L958.474 580.717 L958.474 580.717  Z" fill="#808080" fill-rule="evenodd" fill-opacity="1"/>
<polyline clip-path="url(#clip001)" style="stroke:#000000; stroke-linecap:round; stroke-linejoin:round; stroke-width:4; stroke-opacity:1; fill:none" points="958.474,580.717 958.474,1016.92 1113.25,1016.92 1113.25,580.717 958.474,580.717 "/>
<path clip-path="url(#clip001)" d="M1113.25 853.344 L1113.25 1016.92 L1268.03 1016.92 L1268.03 853.344 L1113.25 853.344 L1113.25 853.344  Z" fill="#808080" fill-rule="evenodd" fill-opacity="1"/>
<polyline clip-path="url(#clip001)" style="stroke:#000000; stroke-linecap:round; stroke-linejoin:round; stroke-width:4; stroke-opacity:1; fill:none" points="1113.25,853.344 1113.25,1016.92 1268.03,1016.92 1268.03,853.344 1113.25,853.344 "/>
<path clip-path="url(#clip001)" d="M1268.03 853.344 L1268.03 1016.92 L1422.81 1016.92 L1422.81 853.344 L1268.03 853.344 L1268.03 853.344  Z" fill="#808080" fill-rule="evenodd" fill-opacity="1"/>
<polyline clip-path="url(#clip001)" style="stroke:#000000; stroke-linecap:round; stroke-linejoin:round; stroke-width:4; stroke-opacity:1; fill:none" points="1268.03,853.344 1268.03,1016.92 1422.81,1016.92 1422.81,853.344 1268.03,853.344 "/>
<circle clip-path="url(#clip001)" style="fill:#808080; stroke:none; fill-opacity:0" cx="416.753" cy="962.394" r="2"/>
<circle clip-path="url(#clip001)" style="fill:#808080; stroke:none; fill-opacity:0" cx="571.53" cy="907.869" r="2"/>
<circle clip-path="url(#clip001)" style="fill:#808080; stroke:none; fill-opacity:0" cx="726.308" cy="580.717" r="2"/>
<circle clip-path="url(#clip001)" style="fill:#808080; stroke:none; fill-opacity:0" cx="881.085" cy="199.039" r="2"/>
<circle clip-path="url(#clip001)" style="fill:#808080; stroke:none; fill-opacity:0" cx="1035.86" cy="580.717" r="2"/>
<circle clip-path="url(#clip001)" style="fill:#808080; stroke:none; fill-opacity:0" cx="1190.64" cy="853.344" r="2"/>
<circle clip-path="url(#clip001)" style="fill:#808080; stroke:none; fill-opacity:0" cx="1345.42" cy="853.344" r="2"/>
<polyline clip-path="url(#clip001)" style="stroke:#000000; stroke-linecap:round; stroke-linejoin:round; stroke-width:8; stroke-opacity:1; fill:none" points="306.861,1016.84 318.717,1016.81 388.158,1016.09 420.462,1014.98 463.761,1011.38 481.651,1008.61 499.54,1004.65 516.175,999.565 532.81,992.716 543.252,987.314 553.693,980.912 564.135,973.371 574.576,964.548 583.942,955.42 593.309,945.028 602.675,933.262 612.041,920.011 622.761,902.888 633.482,883.537 644.203,861.828 654.924,837.658 662.937,817.938 670.951,796.782 678.965,774.187 686.979,750.162 697.228,717.394 707.478,682.428 717.728,645.41 727.978,606.536 737.333,569.648 746.688,531.65 756.043,492.809 765.398,453.422 776.045,408.35 786.692,363.524 797.339,319.509 807.986,276.891 816.426,244.497 824.866,213.657 833.307,184.666 841.747,157.808 846.99,142.317 852.233,127.816 857.476,114.361 862.719,102.008 867.962,90.8064 873.205,80.8031 878.448,72.0395 883.69,64.5522 887.706,59.7011 891.721,55.6292 895.736,52.3466 899.751,49.8616 903.767,48.1804 907.782,47.3072 911.797,47.2441 915.812,47.9913 921.473,50.4174 927.134,54.438 932.795,60.0332 938.456,67.1754 944.117,75.8292 949.778,85.9525 955.439,97.4959 961.1,110.404 965.33,120.904 969.56,132.103 973.791,143.973 978.021,156.483 986.482,183.291 994.942,212.256 1004.56,247.452 1014.19,284.633 1023.81,323.355 1033.43,363.175 1052.49,443.605 1071.54,523.52 1082.03,566.259 1092.51,607.635 1102.99,647.324 1113.48,685.062 1121.48,712.44 1129.49,738.487 1137.5,763.151 1145.51,786.398 1155.61,813.686 1165.72,838.689 1175.82,861.442 1185.93,882.006 1195.27,899.153 1204.62,914.585 1213.96,928.397 1223.31,940.69 1232.95,951.892 1242.59,961.715 1252.22,970.279 1261.86,977.704 1271.63,984.186 1281.4,989.731 1291.17,994.449 1300.94,998.44 1321.35,1004.83 1341.75,1009.18 1357.82,1011.55 1373.89,1013.25 1410.49,1015.45 1447.1,1016.37 1451.2,1016.43 1455.31,1016.48 "/>
</svg>
