<?xml version="1.0" encoding="utf-8"?>
<svg xmlns="http://www.w3.org/2000/svg" xmlns:xlink="http://www.w3.org/1999/xlink" width="400" height="300" viewBox="0 0 1600 1200">
<defs>
  <clipPath id="clip560">
    <rect x="0" y="0" width="1600" height="1200"/>
  </clipPath>
</defs>
<path clip-path="url(#clip560)" d="M0 1200 L1600 1200 L1600 0 L0 0  Z" fill="#ffffff" fill-rule="evenodd" fill-opacity="1"/>
<defs>
  <clipPath id="clip561">
    <rect x="297" y="47" width="1194" height="971"/>
  </clipPath>
</defs>
<path clip-path="url(#clip560)" d="M297.135 1016.92 L1489.76 1016.92 L1489.76 47.2441 L297.135 47.2441  Z" fill="#ffffff" fill-rule="evenodd" fill-opacity="1"/>
<polyline clip-path="url(#clip561)" style="stroke:#000000; stroke-linecap:round; stroke-linejoin:round; stroke-width:2; stroke-opacity:0.1; fill:none" points="362.732,1016.92 362.732,47.2441 "/>
<polyline clip-path="url(#clip561)" style="stroke:#000000; stroke-linecap:round; stroke-linejoin:round; stroke-width:2; stroke-opacity:0.1; fill:none" points="575.019,1016.92 575.019,47.2441 "/>
<polyline clip-path="url(#clip561)" style="stroke:#000000; stroke-linecap:round; stroke-linejoin:round; stroke-width:2; stroke-opacity:0.1; fill:none" points="787.306,1016.92 787.306,47.2441 "/>
<polyline clip-path="url(#clip561)" style="stroke:#000000; stroke-linecap:round; stroke-linejoin:round; stroke-width:2; stroke-opacity:0.1; fill:none" points="999.593,1016.92 999.593,47.2441 "/>
<polyline clip-path="url(#clip561)" style="stroke:#000000; stroke-linecap:round; stroke-linejoin:round; stroke-width:2; stroke-opacity:0.1; fill:none" points="1211.88,1016.92 1211.88,47.2441 "/>
<polyline clip-path="url(#clip561)" style="stroke:#000000; stroke-linecap:round; stroke-linejoin:round; stroke-width:2; stroke-opacity:0.1; fill:none" points="1424.17,1016.92 1424.17,47.2441 "/>
<polyline clip-path="url(#clip561)" style="stroke:#000000; stroke-linecap:round; stroke-linejoin:round; stroke-width:2; stroke-opacity:0.1; fill:none" points="362.732,1016.92 362.732,47.2441 "/>
<polyline clip-path="url(#clip561)" style="stroke:#000000; stroke-linecap:round; stroke-linejoin:round; stroke-width:2; stroke-opacity:0.1; fill:none" points="575.019,1016.92 575.019,47.2441 "/>
<polyline clip-path="url(#clip561)" style="stroke:#000000; stroke-linecap:round; stroke-linejoin:round; stroke-width:2; stroke-opacity:0.1; fill:none" points="787.306,1016.92 787.306,47.2441 "/>
<polyline clip-path="url(#clip561)" style="stroke:#000000; stroke-linecap:round; stroke-linejoin:round; stroke-width:2; stroke-opacity:0.1; fill:none" points="999.593,1016.92 999.593,47.2441 "/>
<polyline clip-path="url(#clip561)" style="stroke:#000000; stroke-linecap:round; stroke-linejoin:round; stroke-width:2; stroke-opacity:0.1; fill:none" points="1211.88,1016.92 1211.88,47.2441 "/>
<polyline clip-path="url(#clip561)" style="stroke:#000000; stroke-linecap:round; stroke-linejoin:round; stroke-width:2; stroke-opacity:0.1; fill:none" points="1424.17,1016.92 1424.17,47.2441 "/>
<polyline clip-path="url(#clip561)" style="stroke:#000000; stroke-linecap:round; stroke-linejoin:round; stroke-width:2; stroke-opacity:0.1; fill:none" points="297.135,1016.92 1489.76,1016.92 "/>
<polyline clip-path="url(#clip561)" style="stroke:#000000; stroke-linecap:round; stroke-linejoin:round; stroke-width:2; stroke-opacity:0.1; fill:none" points="297.135,813.257 1489.76,813.257 "/>
<polyline clip-path="url(#clip561)" style="stroke:#000000; stroke-linecap:round; stroke-linejoin:round; stroke-width:2; stroke-opacity:0.1; fill:none" points="297.135,609.595 1489.76,609.595 "/>
<polyline clip-path="url(#clip561)" style="stroke:#000000; stroke-linecap:round; stroke-linejoin:round; stroke-width:2; stroke-opacity:0.1; fill:none" points="297.135,405.932 1489.76,405.932 "/>
<polyline clip-path="url(#clip561)" style="stroke:#000000; stroke-linecap:round; stroke-linejoin:round; stroke-width:2; stroke-opacity:0.1; fill:none" points="297.135,202.269 1489.76,202.269 "/>
<polyline clip-path="url(#clip561)" style="stroke:#000000; stroke-linecap:round; stroke-linejoin:round; stroke-width:2; stroke-opacity:0.1; fill:none" points="297.135,1016.92 1489.76,1016.92 "/>
<polyline clip-path="url(#clip561)" style="stroke:#000000; stroke-linecap:round; stroke-linejoin:round; stroke-width:2; stroke-opacity:0.1; fill:none" points="297.135,813.257 1489.76,813.257 "/>
<polyline clip-path="url(#clip561)" style="stroke:#000000; stroke-linecap:round; stroke-linejoin:round; stroke-width:2; stroke-opacity:0.1; fill:none" points="297.135,609.595 1489.76,609.595 "/>
<polyline clip-path="url(#clip561)" style="stroke:#000000; stroke-linecap:round; stroke-linejoin:round; stroke-width:2; stroke-opacity:0.1; fill:none" points="297.135,405.932 1489.76,405.932 "/>
<polyline clip-path="url(#clip561)" style="stroke:#000000; stroke-linecap:round; stroke-linejoin:round; stroke-width:2; stroke-opacity:0.1; fill:none" points="297.135,202.269 1489.76,202.269 "/>
<polyline clip-path="url(#clip560)" style="stroke:#000000; stroke-linecap:round; stroke-linejoin:round; stroke-width:4; stroke-opacity:1; fill:none" points="297.135,1016.92 1489.76,1016.92 "/>
<polyline clip-path="url(#clip560)" style="stroke:#000000; stroke-linecap:round; stroke-linejoin:round; stroke-width:4; stroke-opacity:1; fill:none" points="297.135,47.2441 1489.76,47.2441 "/>
<polyline clip-path="url(#clip560)" style="stroke:#000000; stroke-linecap:round; stroke-linejoin:round; stroke-width:4; stroke-opacity:1; fill:none" points="362.732,1016.92 362.732,998.022 "/>
<polyline clip-path="url(#clip560)" style="stroke:#000000; stroke-linecap:round; stroke-linejoin:round; stroke-width:4; stroke-opacity:1; fill:none" points="575.019,1016.92 575.019,998.022 "/>
<polyline clip-path="url(#clip560)" style="stroke:#000000; stroke-linecap:round; stroke-linejoin:round; stroke-width:4; stroke-opacity:1; fill:none" points="787.306,1016.92 787.306,998.022 "/>
<polyline clip-path="url(#clip560)" style="stroke:#000000; stroke-linecap:round; stroke-linejoin:round; stroke-width:4; stroke-opacity:1; fill:none" points="999.593,1016.92 999.593,998.022 "/>
<polyline clip-path="url(#clip560)" style="stroke:#000000; stroke-linecap:round; stroke-linejoin:round; stroke-width:4; stroke-opacity:1; fill:none" points="1211.88,1016.92 1211.88,998.022 "/>
<polyline clip-path="url(#clip560)" style="stroke:#000000; stroke-linecap:round; stroke-linejoin:round; stroke-width:4; stroke-opacity:1; fill:none" points="1424.17,1016.92 1424.17,998.022 "/>
<polyline clip-path="url(#clip560)" style="stroke:#000000; stroke-linecap:round; stroke-linejoin:round; stroke-width:4; stroke-opacity:1; fill:none" points="362.732,47.2441 362.732,66.1417 "/>
<polyline clip-path="url(#clip560)" style="stroke:#000000; stroke-linecap:round; stroke-linejoin:round; stroke-width:4; stroke-opacity:1; fill:none" points="575.019,47.2441 575.019,66.1417 "/>
<polyline clip-path="url(#clip560)" style="stroke:#000000; stroke-linecap:round; stroke-linejoin:round; stroke-width:4; stroke-opacity:1; fill:none" points="787.306,47.2441 787.306,66.1417 "/>
<polyline clip-path="url(#clip560)" style="stroke:#000000; stroke-linecap:round; stroke-linejoin:round; stroke-width:4; stroke-opacity:1; fill:none" points="999.593,47.2441 999.593,66.1417 "/>
<polyline clip-path="url(#clip560)" style="stroke:#000000; stroke-linecap:round; stroke-linejoin:round; stroke-width:4; stroke-opacity:1; fill:none" points="1211.88,47.2441 1211.88,66.1417 "/>
<polyline clip-path="url(#clip560)" style="stroke:#000000; stroke-linecap:round; stroke-linejoin:round; stroke-width:4; stroke-opacity:1; fill:none" points="1424.17,47.2441 1424.17,66.1417 "/>
<path clip-path="url(#clip560)" d="M346.564 1059.56 Q346.86 1059.85 346.86 1060.27 Q346.86 1060.69 346.564 1060.99 Q346.267 1061.28 345.847 1061.28 L314.178 1061.28 Q313.758 1061.28 313.461 1060.99 Q313.165 1060.69 313.165 1060.27 Q313.165 1059.85 313.461 1059.56 Q313.758 1059.26 314.178 1059.26 L345.847 1059.26 Q346.267 1059.26 346.564 1059.56 Z" fill="#000000" fill-rule="nonzero" fill-opacity="1" /><path clip-path="url(#clip560)" d="M354.172 1044.04 L354.172 1042.46 Q360.249 1042.46 363.387 1039.22 Q364.251 1039.22 364.399 1039.42 Q364.548 1039.62 364.548 1040.53 L364.548 1068.92 Q364.548 1070.42 365.289 1070.89 Q366.03 1071.36 369.266 1071.36 L370.872 1071.36 L370.872 1072.92 Q369.093 1072.77 362.67 1072.77 Q356.247 1072.77 354.493 1072.92 L354.493 1071.36 L356.099 1071.36 Q359.286 1071.36 360.052 1070.92 Q360.817 1070.45 360.817 1068.92 L360.817 1042.71 Q358.174 1044.04 354.172 1044.04 Z" fill="#000000" fill-rule="nonzero" fill-opacity="1" /><path clip-path="url(#clip560)" d="M380.037 1072.1 Q379.271 1071.29 379.271 1070.23 Q379.271 1069.16 380.037 1068.4 Q380.802 1067.61 381.964 1067.61 Q383.075 1067.61 383.816 1068.35 Q384.582 1069.07 384.582 1070.25 Q384.582 1071.41 383.767 1072.18 Q382.976 1072.92 381.964 1072.92 Q380.802 1072.92 380.037 1072.1 Z" fill="#000000" fill-rule="nonzero" fill-opacity="1" /><path clip-path="url(#clip560)" d="M391.005 1056.74 Q391.005 1049.3 392.882 1045.25 Q395.501 1039.22 401.677 1039.22 Q402.986 1039.22 404.345 1039.6 Q405.728 1039.94 407.457 1041.3 Q409.211 1042.66 410.274 1044.88 Q412.299 1049.18 412.299 1056.74 Q412.299 1064.13 410.422 1068.15 Q407.68 1074.03 401.627 1074.03 Q399.355 1074.03 397.033 1072.87 Q394.735 1071.71 393.278 1068.92 Q391.005 1064.74 391.005 1056.74 M395.205 1056.12 Q395.205 1063.75 395.748 1066.79 Q396.366 1070.08 398.045 1071.51 Q399.75 1072.92 401.627 1072.92 Q403.653 1072.92 405.333 1071.41 Q407.037 1069.88 407.556 1066.6 Q408.124 1063.36 408.1 1056.12 Q408.1 1049.08 407.606 1046.26 Q406.939 1042.98 405.16 1041.67 Q403.406 1040.34 401.627 1040.34 Q400.96 1040.34 400.244 1040.53 Q399.552 1040.73 398.539 1041.3 Q397.527 1041.87 396.736 1043.28 Q395.97 1044.68 395.6 1046.81 Q395.205 1049.55 395.205 1056.12 Z" fill="#000000" fill-rule="nonzero" fill-opacity="1" /><path clip-path="url(#clip560)" d="M559.122 1059.56 Q559.419 1059.85 559.419 1060.27 Q559.419 1060.69 559.122 1060.99 Q558.826 1061.28 558.406 1061.28 L526.736 1061.28 Q526.316 1061.28 526.02 1060.99 Q525.723 1060.69 525.723 1060.27 Q525.723 1059.85 526.02 1059.56 Q526.316 1059.26 526.736 1059.26 L558.406 1059.26 Q558.826 1059.26 559.122 1059.56 Z" fill="#000000" fill-rule="nonzero" fill-opacity="1" /><path clip-path="url(#clip560)" d="M564.211 1056.74 Q564.211 1049.3 566.089 1045.25 Q568.707 1039.22 574.883 1039.22 Q576.192 1039.22 577.551 1039.6 Q578.934 1039.94 580.664 1041.3 Q582.418 1042.66 583.48 1044.88 Q585.506 1049.18 585.506 1056.74 Q585.506 1064.13 583.628 1068.15 Q580.886 1074.03 574.834 1074.03 Q572.561 1074.03 570.239 1072.87 Q567.941 1071.71 566.484 1068.92 Q564.211 1064.74 564.211 1056.74 M568.411 1056.12 Q568.411 1063.75 568.954 1066.79 Q569.572 1070.08 571.252 1071.51 Q572.956 1072.92 574.834 1072.92 Q576.859 1072.92 578.539 1071.41 Q580.244 1069.88 580.763 1066.6 Q581.331 1063.36 581.306 1056.12 Q581.306 1049.08 580.812 1046.26 Q580.145 1042.98 578.366 1041.67 Q576.612 1040.34 574.834 1040.34 Q574.167 1040.34 573.45 1040.53 Q572.759 1040.73 571.746 1041.3 Q570.733 1041.87 569.942 1043.28 Q569.177 1044.68 568.806 1046.81 Q568.411 1049.55 568.411 1056.12 Z" fill="#000000" fill-rule="nonzero" fill-opacity="1" /><path clip-path="url(#clip560)" d="M592.595 1072.1 Q591.83 1071.29 591.83 1070.23 Q591.83 1069.16 592.595 1068.4 Q593.361 1067.61 594.522 1067.61 Q595.634 1067.61 596.375 1068.35 Q597.141 1069.07 597.141 1070.25 Q597.141 1071.41 596.326 1072.18 Q595.535 1072.92 594.522 1072.92 Q593.361 1072.92 592.595 1072.1 Z" fill="#000000" fill-rule="nonzero" fill-opacity="1" /><path clip-path="url(#clip560)" d="M604.107 1064.77 Q604.107 1063.26 604.922 1062.69 Q605.738 1062.1 606.602 1062.1 Q607.763 1062.1 608.43 1062.84 Q609.122 1063.56 609.122 1064.57 Q609.122 1065.58 608.43 1066.32 Q607.763 1067.04 606.602 1067.04 Q606.034 1067.04 605.738 1066.94 Q606.405 1069.26 608.43 1070.94 Q610.481 1072.62 613.173 1072.62 Q616.558 1072.62 618.583 1069.34 Q619.794 1067.21 619.794 1062.4 Q619.794 1058.15 618.88 1056.02 Q617.472 1052.79 614.581 1052.79 Q610.481 1052.79 608.06 1056.32 Q607.763 1056.76 607.417 1056.79 Q606.923 1056.79 606.8 1056.52 Q606.701 1056.22 606.701 1055.45 L606.701 1040.48 Q606.701 1039.27 607.195 1039.27 Q607.393 1039.27 607.813 1039.42 Q610.999 1040.83 614.532 1040.85 Q618.163 1040.85 621.424 1039.37 Q621.671 1039.22 621.82 1039.22 Q622.314 1039.22 622.338 1039.79 Q622.338 1039.99 621.918 1040.58 Q621.523 1041.15 620.658 1041.92 Q619.794 1042.66 618.682 1043.37 Q617.571 1044.09 615.94 1044.59 Q614.334 1045.05 612.556 1045.05 Q610.431 1045.05 608.257 1044.39 L608.257 1054.24 Q610.876 1051.67 614.68 1051.67 Q618.732 1051.67 621.523 1054.94 Q624.315 1058.2 624.315 1062.74 Q624.315 1067.51 621.004 1070.77 Q617.719 1074.03 613.272 1074.03 Q609.221 1074.03 606.652 1071.14 Q604.107 1068.25 604.107 1064.77 Z" fill="#000000" fill-rule="nonzero" fill-opacity="1" /><path clip-path="url(#clip560)" d="M756.983 1056.74 Q756.983 1049.3 758.86 1045.25 Q761.479 1039.22 767.654 1039.22 Q768.964 1039.22 770.322 1039.6 Q771.706 1039.94 773.435 1041.3 Q775.189 1042.66 776.251 1044.88 Q778.277 1049.18 778.277 1056.74 Q778.277 1064.13 776.399 1068.15 Q773.657 1074.03 767.605 1074.03 Q765.332 1074.03 763.01 1072.87 Q760.713 1071.71 759.255 1068.92 Q756.983 1064.74 756.983 1056.74 M761.182 1056.12 Q761.182 1063.75 761.726 1066.79 Q762.343 1070.08 764.023 1071.51 Q765.728 1072.92 767.605 1072.92 Q769.631 1072.92 771.311 1071.41 Q773.015 1069.88 773.534 1066.6 Q774.102 1063.36 774.077 1056.12 Q774.077 1049.08 773.583 1046.26 Q772.916 1042.98 771.138 1041.67 Q769.384 1040.34 767.605 1040.34 Q766.938 1040.34 766.222 1040.53 Q765.53 1040.73 764.517 1041.3 Q763.504 1041.87 762.714 1043.28 Q761.948 1044.68 761.577 1046.81 Q761.182 1049.55 761.182 1056.12 Z" fill="#000000" fill-rule="nonzero" fill-opacity="1" /><path clip-path="url(#clip560)" d="M785.367 1072.1 Q784.601 1071.29 784.601 1070.23 Q784.601 1069.16 785.367 1068.4 Q786.133 1067.61 787.294 1067.61 Q788.405 1067.61 789.146 1068.35 Q789.912 1069.07 789.912 1070.25 Q789.912 1071.41 789.097 1072.18 Q788.306 1072.92 787.294 1072.92 Q786.133 1072.92 785.367 1072.1 Z" fill="#000000" fill-rule="nonzero" fill-opacity="1" /><path clip-path="url(#clip560)" d="M796.335 1056.74 Q796.335 1049.3 798.213 1045.25 Q800.831 1039.22 807.007 1039.22 Q808.316 1039.22 809.675 1039.6 Q811.058 1039.94 812.788 1041.3 Q814.541 1042.66 815.604 1044.88 Q817.629 1049.18 817.629 1056.74 Q817.629 1064.13 815.752 1068.15 Q813.01 1074.03 806.958 1074.03 Q804.685 1074.03 802.363 1072.87 Q800.065 1071.71 798.608 1068.92 Q796.335 1064.74 796.335 1056.74 M800.535 1056.12 Q800.535 1063.75 801.078 1066.79 Q801.696 1070.08 803.376 1071.51 Q805.08 1072.92 806.958 1072.92 Q808.983 1072.92 810.663 1071.41 Q812.368 1069.88 812.886 1066.6 Q813.455 1063.36 813.43 1056.12 Q813.43 1049.08 812.936 1046.26 Q812.269 1042.98 810.49 1041.67 Q808.736 1040.34 806.958 1040.34 Q806.291 1040.34 805.574 1040.53 Q804.882 1040.73 803.87 1041.3 Q802.857 1041.87 802.066 1043.28 Q801.3 1044.68 800.93 1046.81 Q800.535 1049.55 800.535 1056.12 Z" fill="#000000" fill-rule="nonzero" fill-opacity="1" /><path clip-path="url(#clip560)" d="M969.541 1056.74 Q969.541 1049.3 971.419 1045.25 Q974.037 1039.22 980.213 1039.22 Q981.523 1039.22 982.881 1039.6 Q984.265 1039.94 985.994 1041.3 Q987.748 1042.66 988.81 1044.88 Q990.836 1049.18 990.836 1056.74 Q990.836 1064.13 988.958 1068.15 Q986.216 1074.03 980.164 1074.03 Q977.891 1074.03 975.569 1072.87 Q973.272 1071.71 971.814 1068.92 Q969.541 1064.74 969.541 1056.74 M973.741 1056.12 Q973.741 1063.75 974.284 1066.79 Q974.902 1070.08 976.582 1071.51 Q978.286 1072.92 980.164 1072.92 Q982.19 1072.92 983.869 1071.41 Q985.574 1069.88 986.093 1066.6 Q986.661 1063.36 986.636 1056.12 Q986.636 1049.08 986.142 1046.26 Q985.475 1042.98 983.696 1041.67 Q981.942 1040.34 980.164 1040.34 Q979.497 1040.34 978.78 1040.53 Q978.089 1040.73 977.076 1041.3 Q976.063 1041.87 975.273 1043.28 Q974.507 1044.68 974.136 1046.81 Q973.741 1049.55 973.741 1056.12 Z" fill="#000000" fill-rule="nonzero" fill-opacity="1" /><path clip-path="url(#clip560)" d="M997.926 1072.1 Q997.16 1071.29 997.16 1070.23 Q997.16 1069.16 997.926 1068.4 Q998.691 1067.61 999.852 1067.61 Q1000.96 1067.61 1001.71 1068.35 Q1002.47 1069.07 1002.47 1070.25 Q1002.47 1071.41 1001.66 1072.18 Q1000.87 1072.92 999.852 1072.92 Q998.691 1072.92 997.926 1072.1 Z" fill="#000000" fill-rule="nonzero" fill-opacity="1" /><path clip-path="url(#clip560)" d="M1009.44 1064.77 Q1009.44 1063.26 1010.25 1062.69 Q1011.07 1062.1 1011.93 1062.1 Q1013.09 1062.1 1013.76 1062.84 Q1014.45 1063.56 1014.45 1064.57 Q1014.45 1065.58 1013.76 1066.32 Q1013.09 1067.04 1011.93 1067.04 Q1011.36 1067.04 1011.07 1066.94 Q1011.73 1069.26 1013.76 1070.94 Q1015.81 1072.62 1018.5 1072.62 Q1021.89 1072.62 1023.91 1069.34 Q1025.12 1067.21 1025.12 1062.4 Q1025.12 1058.15 1024.21 1056.02 Q1022.8 1052.79 1019.91 1052.79 Q1015.81 1052.79 1013.39 1056.32 Q1013.09 1056.76 1012.75 1056.79 Q1012.25 1056.79 1012.13 1056.52 Q1012.03 1056.22 1012.03 1055.45 L1012.03 1040.48 Q1012.03 1039.27 1012.53 1039.27 Q1012.72 1039.27 1013.14 1039.42 Q1016.33 1040.83 1019.86 1040.85 Q1023.49 1040.85 1026.75 1039.37 Q1027 1039.22 1027.15 1039.22 Q1027.64 1039.22 1027.67 1039.79 Q1027.67 1039.99 1027.25 1040.58 Q1026.85 1041.15 1025.99 1041.92 Q1025.12 1042.66 1024.01 1043.37 Q1022.9 1044.09 1021.27 1044.59 Q1019.66 1045.05 1017.89 1045.05 Q1015.76 1045.05 1013.59 1044.39 L1013.59 1054.24 Q1016.21 1051.67 1020.01 1051.67 Q1024.06 1051.67 1026.85 1054.94 Q1029.64 1058.2 1029.64 1062.74 Q1029.64 1067.51 1026.33 1070.77 Q1023.05 1074.03 1018.6 1074.03 Q1014.55 1074.03 1011.98 1071.14 Q1009.44 1068.25 1009.44 1064.77 Z" fill="#000000" fill-rule="nonzero" fill-opacity="1" /><path clip-path="url(#clip560)" d="M1182.82 1044.04 L1182.82 1042.46 Q1188.89 1042.46 1192.03 1039.22 Q1192.9 1039.22 1193.04 1039.42 Q1193.19 1039.62 1193.19 1040.53 L1193.19 1068.92 Q1193.19 1070.42 1193.93 1070.89 Q1194.67 1071.36 1197.91 1071.36 L1199.52 1071.36 L1199.52 1072.92 Q1197.74 1072.77 1191.31 1072.77 Q1184.89 1072.77 1183.14 1072.92 L1183.14 1071.36 L1184.74 1071.36 Q1187.93 1071.36 1188.7 1070.92 Q1189.46 1070.45 1189.46 1068.92 L1189.46 1042.71 Q1186.82 1044.04 1182.82 1044.04 Z" fill="#000000" fill-rule="nonzero" fill-opacity="1" /><path clip-path="url(#clip560)" d="M1208.68 1072.1 Q1207.92 1071.29 1207.92 1070.23 Q1207.92 1069.16 1208.68 1068.4 Q1209.45 1067.61 1210.61 1067.61 Q1211.72 1067.61 1212.46 1068.35 Q1213.23 1069.07 1213.23 1070.25 Q1213.23 1071.41 1212.41 1072.18 Q1211.62 1072.92 1210.61 1072.92 Q1209.45 1072.92 1208.68 1072.1 Z" fill="#000000" fill-rule="nonzero" fill-opacity="1" /><path clip-path="url(#clip560)" d="M1219.65 1056.74 Q1219.65 1049.3 1221.53 1045.25 Q1224.15 1039.22 1230.32 1039.22 Q1231.63 1039.22 1232.99 1039.6 Q1234.37 1039.94 1236.1 1041.3 Q1237.86 1042.66 1238.92 1044.88 Q1240.94 1049.18 1240.94 1056.74 Q1240.94 1064.13 1239.07 1068.15 Q1236.32 1074.03 1230.27 1074.03 Q1228 1074.03 1225.68 1072.87 Q1223.38 1071.71 1221.92 1068.92 Q1219.65 1064.74 1219.65 1056.74 M1223.85 1056.12 Q1223.85 1063.75 1224.39 1066.79 Q1225.01 1070.08 1226.69 1071.51 Q1228.39 1072.92 1230.27 1072.92 Q1232.3 1072.92 1233.98 1071.41 Q1235.68 1069.88 1236.2 1066.6 Q1236.77 1063.36 1236.74 1056.12 Q1236.74 1049.08 1236.25 1046.26 Q1235.58 1042.98 1233.8 1041.67 Q1232.05 1040.34 1230.27 1040.34 Q1229.6 1040.34 1228.89 1040.53 Q1228.2 1040.73 1227.18 1041.3 Q1226.17 1041.87 1225.38 1043.28 Q1224.61 1044.68 1224.24 1046.81 Q1223.85 1049.55 1223.85 1056.12 Z" fill="#000000" fill-rule="nonzero" fill-opacity="1" /><path clip-path="url(#clip560)" d="M1395.38 1044.04 L1395.38 1042.46 Q1401.45 1042.46 1404.59 1039.22 Q1405.45 1039.22 1405.6 1039.42 Q1405.75 1039.62 1405.75 1040.53 L1405.75 1068.92 Q1405.75 1070.42 1406.49 1070.89 Q1407.23 1071.36 1410.47 1071.36 L1412.07 1071.36 L1412.07 1072.92 Q1410.3 1072.77 1403.87 1072.77 Q1397.45 1072.77 1395.7 1072.92 L1395.7 1071.36 L1397.3 1071.36 Q1400.49 1071.36 1401.25 1070.92 Q1402.02 1070.45 1402.02 1068.92 L1402.02 1042.71 Q1399.38 1044.04 1395.38 1044.04 Z" fill="#000000" fill-rule="nonzero" fill-opacity="1" /><path clip-path="url(#clip560)" d="M1421.24 1072.1 Q1420.47 1071.29 1420.47 1070.23 Q1420.47 1069.16 1421.24 1068.4 Q1422.01 1067.61 1423.17 1067.61 Q1424.28 1067.61 1425.02 1068.35 Q1425.79 1069.07 1425.79 1070.25 Q1425.79 1071.41 1424.97 1072.18 Q1424.18 1072.92 1423.17 1072.92 Q1422.01 1072.92 1421.24 1072.1 Z" fill="#000000" fill-rule="nonzero" fill-opacity="1" /><path clip-path="url(#clip560)" d="M1432.75 1064.77 Q1432.75 1063.26 1433.57 1062.69 Q1434.38 1062.1 1435.25 1062.1 Q1436.41 1062.1 1437.07 1062.84 Q1437.77 1063.56 1437.77 1064.57 Q1437.77 1065.58 1437.07 1066.32 Q1436.41 1067.04 1435.25 1067.04 Q1434.68 1067.04 1434.38 1066.94 Q1435.05 1069.26 1437.07 1070.94 Q1439.12 1072.62 1441.82 1072.62 Q1445.2 1072.62 1447.23 1069.34 Q1448.44 1067.21 1448.44 1062.4 Q1448.44 1058.15 1447.52 1056.02 Q1446.12 1052.79 1443.23 1052.79 Q1439.12 1052.79 1436.7 1056.32 Q1436.41 1056.76 1436.06 1056.79 Q1435.57 1056.79 1435.44 1056.52 Q1435.35 1056.22 1435.35 1055.45 L1435.35 1040.48 Q1435.35 1039.27 1435.84 1039.27 Q1436.04 1039.27 1436.46 1039.42 Q1439.64 1040.83 1443.18 1040.85 Q1446.81 1040.85 1450.07 1039.37 Q1450.32 1039.22 1450.46 1039.22 Q1450.96 1039.22 1450.98 1039.79 Q1450.98 1039.99 1450.56 1040.58 Q1450.17 1041.15 1449.3 1041.92 Q1448.44 1042.66 1447.33 1043.37 Q1446.21 1044.09 1444.58 1044.59 Q1442.98 1045.05 1441.2 1045.05 Q1439.08 1045.05 1436.9 1044.39 L1436.9 1054.24 Q1439.52 1051.67 1443.32 1051.67 Q1447.38 1051.67 1450.17 1054.94 Q1452.96 1058.2 1452.96 1062.74 Q1452.96 1067.51 1449.65 1070.77 Q1446.36 1074.03 1441.92 1074.03 Q1437.87 1074.03 1435.3 1071.14 Q1432.75 1068.25 1432.75 1064.77 Z" fill="#000000" fill-rule="nonzero" fill-opacity="1" /><path clip-path="url(#clip560)" d="M753.811 1121.96 L753.811 1119.79 Q756.936 1119.99 760.57 1119.99 Q761.895 1119.99 768.145 1119.79 L768.145 1121.96 Q764.171 1121.96 764.171 1123.77 Q764.171 1124.04 764.578 1124.95 L772.391 1144.35 L779.49 1126.62 Q779.897 1125.43 779.897 1124.95 Q779.897 1123.77 779.082 1122.92 Q778.301 1122.03 776.569 1121.96 L776.569 1119.79 Q780.101 1119.99 782.615 1119.99 Q785.468 1119.99 787.812 1119.79 L787.812 1121.96 Q785.74 1121.96 784.279 1122.92 Q782.819 1123.83 782.343 1124.65 Q781.902 1125.43 781.426 1126.62 L772.323 1149.24 Q771.779 1150.57 770.862 1150.57 Q770.251 1150.57 769.979 1150.29 Q769.741 1150.06 769.402 1149.24 L759.381 1124.55 Q758.702 1122.81 757.819 1122.41 Q756.936 1121.96 753.811 1121.96 Z" fill="#000000" fill-rule="nonzero" fill-opacity="1" /><path clip-path="url(#clip560)" d="M790.122 1143.16 Q790.122 1137.25 797.085 1134.13 Q801.263 1132.12 809.89 1131.61 L809.89 1129.06 Q809.89 1124.75 807.615 1122.47 Q805.373 1120.16 802.52 1120.16 Q797.424 1120.16 794.979 1123.36 Q797.051 1123.43 797.798 1124.48 Q798.545 1125.5 798.545 1126.55 Q798.545 1127.94 797.662 1128.86 Q796.813 1129.74 795.352 1129.74 Q793.96 1129.74 793.043 1128.89 Q792.126 1128.01 792.126 1126.48 Q792.126 1123.09 795.183 1120.84 Q798.274 1118.6 802.655 1118.6 Q808.362 1118.6 812.166 1122.44 Q813.355 1123.63 813.932 1125.16 Q814.544 1126.69 814.612 1127.71 Q814.68 1128.69 814.68 1130.66 L814.68 1144.55 Q814.68 1144.96 814.816 1145.64 Q814.952 1146.32 815.563 1147.2 Q816.208 1148.05 817.261 1148.05 Q819.775 1148.05 819.741 1143.6 L819.741 1139.7 L821.507 1139.7 L821.507 1143.6 Q821.507 1147.3 819.537 1148.76 Q817.601 1150.19 815.801 1150.19 Q813.491 1150.19 812.03 1148.49 Q810.57 1146.79 810.366 1144.48 Q809.313 1147.13 806.901 1148.87 Q804.524 1150.57 801.263 1150.57 Q798.749 1150.57 796.371 1149.92 Q794.028 1149.31 792.058 1147.58 Q790.122 1145.81 790.122 1143.16 M795.488 1143.09 Q795.488 1145.67 797.323 1147.34 Q799.157 1149 801.738 1149 Q804.659 1149 807.275 1146.76 Q809.89 1144.48 809.89 1140.04 L809.89 1133.07 Q802.18 1133.34 798.817 1136.43 Q795.488 1139.49 795.488 1143.09 Z" fill="#000000" fill-rule="nonzero" fill-opacity="1" /><path clip-path="url(#clip560)" d="M824.292 1149.78 L824.292 1147.64 Q827.995 1147.64 828.844 1147.2 Q829.693 1146.73 829.693 1144.48 L829.693 1108.31 Q829.693 1105.73 828.776 1105.08 Q827.893 1104.44 824.292 1104.44 L824.292 1102.26 L834.279 1101.52 L834.279 1144.48 Q834.279 1146.73 835.162 1147.2 Q836.045 1147.64 839.714 1147.64 L839.714 1149.78 Q838.864 1149.78 837.098 1149.72 Q835.332 1149.65 834.041 1149.61 Q832.75 1149.58 832.003 1149.58 Q831.188 1149.58 824.292 1149.78 Z" fill="#000000" fill-rule="nonzero" fill-opacity="1" /><path clip-path="url(#clip560)" d="M843.484 1121.96 L843.484 1119.79 L853.708 1119.04 L853.708 1142.14 Q853.708 1143.81 853.844 1144.79 Q853.98 1145.74 854.523 1146.86 Q855.101 1147.98 856.391 1148.49 Q857.716 1149 859.822 1149 Q863.592 1149 865.902 1145.91 Q868.246 1142.82 868.246 1138.24 L868.246 1125.84 Q868.246 1123.26 867.329 1122.61 Q866.412 1121.96 862.811 1121.96 L862.811 1119.79 L873.035 1119.04 L873.035 1143.74 Q873.035 1146.32 873.918 1147 Q874.836 1147.64 878.47 1147.64 L878.47 1149.78 L868.45 1150.57 L868.45 1144.28 Q865.529 1150.53 859.482 1150.57 Q856.425 1150.57 854.319 1149.78 Q852.247 1149 851.194 1148.05 Q850.141 1147.07 849.564 1145.2 Q849.021 1143.33 848.953 1142.18 Q848.885 1141.02 848.885 1138.78 L848.885 1128.35 Q848.885 1123.63 848.205 1122.81 Q847.526 1121.96 843.484 1121.96 Z" fill="#000000" fill-rule="nonzero" fill-opacity="1" /><path clip-path="url(#clip560)" d="M881.765 1134.46 Q881.765 1127.91 885.977 1123.26 Q890.189 1118.6 896.235 1118.6 Q902.349 1118.6 905.508 1122.58 Q908.701 1126.55 908.701 1132.26 Q908.701 1133.31 908.429 1133.51 Q908.157 1133.72 906.968 1133.72 L887.539 1133.72 Q887.539 1140.82 889.645 1144.15 Q892.566 1148.8 897.492 1148.8 Q898.171 1148.8 898.986 1148.66 Q899.801 1148.53 901.466 1147.95 Q903.13 1147.34 904.591 1145.74 Q906.051 1144.15 906.901 1141.63 Q907.104 1140.65 907.784 1140.68 Q908.701 1140.68 908.701 1141.5 Q908.701 1142.11 908.021 1143.5 Q907.376 1144.86 906.119 1146.49 Q904.862 1148.12 902.417 1149.34 Q900.005 1150.57 897.084 1150.57 Q890.97 1150.57 886.35 1145.95 Q881.765 1141.29 881.765 1134.46 M887.607 1132.26 L904.115 1132.26 Q904.115 1130.8 903.843 1129.17 Q903.606 1127.54 902.858 1125.29 Q902.145 1123.02 900.447 1121.59 Q898.748 1120.16 896.235 1120.16 Q895.114 1120.16 893.891 1120.64 Q892.702 1121.12 891.242 1122.27 Q889.781 1123.43 888.762 1126.04 Q887.743 1128.66 887.607 1132.26 Z" fill="#000000" fill-rule="nonzero" fill-opacity="1" /><path clip-path="url(#clip560)" d="M940.732 1132.39 Q940.732 1120.64 945.114 1111.16 Q946.982 1107.19 949.597 1103.86 Q952.213 1100.53 953.945 1099.07 Q955.677 1097.61 956.153 1097.61 Q956.832 1097.61 956.866 1098.29 Q956.866 1098.63 955.949 1099.48 Q944.74 1110.89 944.774 1132.39 Q944.774 1153.96 955.677 1164.93 Q956.866 1166.12 956.866 1166.5 Q956.866 1167.18 956.153 1167.18 Q955.677 1167.18 954.013 1165.78 Q952.349 1164.39 949.767 1161.2 Q947.186 1158 945.317 1154.1 Q940.732 1144.62 940.732 1132.39 Z" fill="#000000" fill-rule="nonzero" fill-opacity="1" /><path clip-path="url(#clip560)" d="M963.048 1149.78 L963.048 1147.64 Q965.29 1147.58 966.751 1147.17 Q968.245 1146.73 969.094 1145.64 Q969.977 1144.55 970.317 1143.84 Q970.691 1143.09 971.302 1141.36 L983.7 1105.83 Q983.904 1105.05 984.447 1103.55 Q985.025 1102.06 985.229 1101.31 Q980.236 1099.38 980.202 1093.84 Q980.202 1090.92 982.002 1088.61 Q983.836 1086.27 986.825 1086.27 Q989.746 1086.27 991.615 1088.58 Q993.517 1090.85 993.517 1093.84 Q993.517 1099.34 988.49 1101.31 L1003.1 1143.53 Q1004.15 1146.46 1005.13 1147.07 Q1006.15 1147.64 1010.4 1147.64 L1010.67 1147.64 L1010.67 1149.78 Q1006.22 1149.58 1001.77 1149.58 Q996.676 1149.58 991.547 1149.78 L991.547 1147.64 L991.682 1147.64 Q997.185 1147.64 997.185 1145.4 Q997.185 1144.86 993.449 1133.92 L976.193 1133.92 Q975.786 1135.31 974.869 1137.83 Q973.952 1140.31 973.408 1141.97 Q972.899 1143.6 972.899 1144.15 Q972.899 1145.4 974.121 1146.49 Q975.344 1147.54 978.062 1147.64 L978.062 1149.78 Q974.02 1149.58 969.91 1149.58 Q966.513 1149.58 963.048 1149.78 M976.941 1131.78 L992.667 1131.78 L984.821 1109.16 L976.941 1131.78 M981.968 1093.77 Q981.968 1097.24 983.462 1098.6 Q984.957 1099.92 986.893 1099.92 Q988.829 1099.92 990.29 1098.6 Q991.75 1097.27 991.75 1093.91 Q991.75 1090.44 990.256 1089.12 Q988.761 1087.79 986.825 1087.79 Q984.889 1087.79 983.428 1089.12 Q981.968 1090.44 981.968 1093.77 Z" fill="#000000" fill-rule="nonzero" fill-opacity="1" /><path clip-path="url(#clip560)" d="M1016.95 1166.5 Q1016.95 1166.16 1017.84 1165.31 Q1029.05 1153.89 1029.05 1132.39 Q1029.05 1110.82 1018.28 1099.92 Q1016.95 1098.66 1016.95 1098.29 Q1016.95 1097.61 1017.63 1097.61 Q1018.11 1097.61 1019.77 1099 Q1021.47 1100.4 1024.02 1103.59 Q1026.6 1106.78 1028.5 1110.69 Q1033.09 1120.16 1033.09 1132.39 Q1033.09 1144.15 1028.71 1153.62 Q1026.84 1157.6 1024.22 1160.93 Q1021.61 1164.25 1019.88 1165.71 Q1018.14 1167.18 1017.63 1167.18 Q1016.95 1167.18 1016.95 1166.5 Z" fill="#000000" fill-rule="nonzero" fill-opacity="1" /><polyline clip-path="url(#clip560)" style="stroke:#000000; stroke-linecap:round; stroke-linejoin:round; stroke-width:4; stroke-opacity:1; fill:none" points="297.135,1016.92 297.135,47.2441 "/>
<polyline clip-path="url(#clip560)" style="stroke:#000000; stroke-linecap:round; stroke-linejoin:round; stroke-width:4; stroke-opacity:1; fill:none" points="1489.76,1016.92 1489.76,47.2441 "/>
<polyline clip-path="url(#clip560)" style="stroke:#000000; stroke-linecap:round; stroke-linejoin:round; stroke-width:4; stroke-opacity:1; fill:none" points="297.135,1016.92 316.033,1016.92 "/>
<polyline clip-path="url(#clip560)" style="stroke:#000000; stroke-linecap:round; stroke-linejoin:round; stroke-width:4; stroke-opacity:1; fill:none" points="297.135,813.257 316.033,813.257 "/>
<polyline clip-path="url(#clip560)" style="stroke:#000000; stroke-linecap:round; stroke-linejoin:round; stroke-width:4; stroke-opacity:1; fill:none" points="297.135,609.595 316.033,609.595 "/>
<polyline clip-path="url(#clip560)" style="stroke:#000000; stroke-linecap:round; stroke-linejoin:round; stroke-width:4; stroke-opacity:1; fill:none" points="297.135,405.932 316.033,405.932 "/>
<polyline clip-path="url(#clip560)" style="stroke:#000000; stroke-linecap:round; stroke-linejoin:round; stroke-width:4; stroke-opacity:1; fill:none" points="297.135,202.269 316.033,202.269 "/>
<polyline clip-path="url(#clip560)" style="stroke:#000000; stroke-linecap:round; stroke-linejoin:round; stroke-width:4; stroke-opacity:1; fill:none" points="1489.76,1016.92 1470.87,1016.92 "/>
<polyline clip-path="url(#clip560)" style="stroke:#000000; stroke-linecap:round; stroke-linejoin:round; stroke-width:4; stroke-opacity:1; fill:none" points="1489.76,813.257 1470.87,813.257 "/>
<polyline clip-path="url(#clip560)" style="stroke:#000000; stroke-linecap:round; stroke-linejoin:round; stroke-width:4; stroke-opacity:1; fill:none" points="1489.76,609.595 1470.87,609.595 "/>
<polyline clip-path="url(#clip560)" style="stroke:#000000; stroke-linecap:round; stroke-linejoin:round; stroke-width:4; stroke-opacity:1; fill:none" points="1489.76,405.932 1470.87,405.932 "/>
<polyline clip-path="url(#clip560)" style="stroke:#000000; stroke-linecap:round; stroke-linejoin:round; stroke-width:4; stroke-opacity:1; fill:none" points="1489.76,202.269 1470.87,202.269 "/>
<path clip-path="url(#clip560)" d="M187.192 1018.02 Q187.192 1010.58 189.07 1006.53 Q191.688 1000.5 197.864 1000.5 Q199.173 1000.5 200.532 1000.88 Q201.915 1001.22 203.645 1002.58 Q205.399 1003.94 206.461 1006.16 Q208.487 1010.46 208.487 1018.02 Q208.487 1025.41 206.609 1029.43 Q203.867 1035.31 197.815 1035.31 Q195.542 1035.31 193.22 1034.15 Q190.922 1032.99 189.465 1030.2 Q187.192 1026.02 187.192 1018.02 M191.392 1017.4 Q191.392 1025.03 191.935 1028.07 Q192.553 1031.36 194.233 1032.79 Q195.937 1034.2 197.815 1034.2 Q199.84 1034.2 201.52 1032.69 Q203.225 1031.16 203.744 1027.88 Q204.312 1024.64 204.287 1017.4 Q204.287 1010.36 203.793 1007.54 Q203.126 1004.26 201.347 1002.95 Q199.593 1001.62 197.815 1001.62 Q197.148 1001.62 196.431 1001.81 Q195.74 1002.01 194.727 1002.58 Q193.714 1003.15 192.923 1004.56 Q192.158 1005.96 191.787 1008.09 Q191.392 1010.83 191.392 1017.4 Z" fill="#000000" fill-rule="nonzero" fill-opacity="1" /><path clip-path="url(#clip560)" d="M215.576 1033.38 Q214.811 1032.57 214.811 1031.51 Q214.811 1030.44 215.576 1029.68 Q216.342 1028.89 217.503 1028.89 Q218.615 1028.89 219.356 1029.63 Q220.122 1030.35 220.122 1031.53 Q220.122 1032.69 219.307 1033.46 Q218.516 1034.2 217.503 1034.2 Q216.342 1034.2 215.576 1033.38 Z" fill="#000000" fill-rule="nonzero" fill-opacity="1" /><path clip-path="url(#clip560)" d="M226.545 1018.02 Q226.545 1010.58 228.422 1006.53 Q231.041 1000.5 237.217 1000.5 Q238.526 1000.5 239.885 1000.88 Q241.268 1001.22 242.997 1002.58 Q244.751 1003.94 245.813 1006.16 Q247.839 1010.46 247.839 1018.02 Q247.839 1025.41 245.962 1029.43 Q243.22 1035.31 237.167 1035.31 Q234.894 1035.31 232.572 1034.15 Q230.275 1032.99 228.817 1030.2 Q226.545 1026.02 226.545 1018.02 M230.744 1017.4 Q230.744 1025.03 231.288 1028.07 Q231.905 1031.36 233.585 1032.79 Q235.29 1034.2 237.167 1034.2 Q239.193 1034.2 240.873 1032.69 Q242.577 1031.16 243.096 1027.88 Q243.664 1024.64 243.639 1017.4 Q243.639 1010.36 243.145 1007.54 Q242.478 1004.26 240.7 1002.95 Q238.946 1001.62 237.167 1001.62 Q236.5 1001.62 235.784 1001.81 Q235.092 1002.01 234.079 1002.58 Q233.066 1003.15 232.276 1004.56 Q231.51 1005.96 231.14 1008.09 Q230.744 1010.83 230.744 1017.4 Z" fill="#000000" fill-rule="nonzero" fill-opacity="1" /><path clip-path="url(#clip560)" d="M251.841 1018.02 Q251.841 1010.58 253.718 1006.53 Q256.337 1000.5 262.513 1000.5 Q263.822 1000.5 265.181 1000.88 Q266.564 1001.22 268.293 1002.58 Q270.047 1003.94 271.11 1006.16 Q273.135 1010.46 273.135 1018.02 Q273.135 1025.41 271.258 1029.43 Q268.516 1035.31 262.463 1035.31 Q260.191 1035.31 257.869 1034.15 Q255.571 1032.99 254.114 1030.2 Q251.841 1026.02 251.841 1018.02 M256.041 1017.4 Q256.041 1025.03 256.584 1028.07 Q257.202 1031.36 258.881 1032.79 Q260.586 1034.2 262.463 1034.2 Q264.489 1034.2 266.169 1032.69 Q267.873 1031.16 268.392 1027.88 Q268.96 1024.64 268.936 1017.4 Q268.936 1010.36 268.442 1007.54 Q267.775 1004.26 265.996 1002.95 Q264.242 1001.62 262.463 1001.62 Q261.796 1001.62 261.08 1001.81 Q260.388 1002.01 259.376 1002.58 Q258.363 1003.15 257.572 1004.56 Q256.806 1005.96 256.436 1008.09 Q256.041 1010.83 256.041 1017.4 Z" fill="#000000" fill-rule="nonzero" fill-opacity="1" /><path clip-path="url(#clip560)" d="M187.736 814.356 Q187.736 806.921 189.613 802.869 Q192.232 796.842 198.408 796.842 Q199.717 796.842 201.076 797.212 Q202.459 797.558 204.188 798.917 Q205.942 800.276 207.004 802.499 Q209.03 806.797 209.03 814.356 Q209.03 821.743 207.153 825.769 Q204.411 831.649 198.358 831.649 Q196.085 831.649 193.763 830.488 Q191.466 829.327 190.008 826.535 Q187.736 822.36 187.736 814.356 M191.935 813.739 Q191.935 821.372 192.479 824.411 Q193.096 827.696 194.776 829.129 Q196.481 830.537 198.358 830.537 Q200.384 830.537 202.064 829.03 Q203.768 827.499 204.287 824.213 Q204.855 820.977 204.83 813.739 Q204.83 806.698 204.336 803.882 Q203.669 800.597 201.891 799.287 Q200.137 797.953 198.358 797.953 Q197.691 797.953 196.975 798.151 Q196.283 798.349 195.27 798.917 Q194.257 799.485 193.467 800.893 Q192.701 802.301 192.331 804.426 Q191.935 807.168 191.935 813.739 Z" fill="#000000" fill-rule="nonzero" fill-opacity="1" /><path clip-path="url(#clip560)" d="M216.12 829.722 Q215.354 828.907 215.354 827.845 Q215.354 826.782 216.12 826.016 Q216.886 825.226 218.047 825.226 Q219.158 825.226 219.9 825.967 Q220.665 826.683 220.665 827.869 Q220.665 829.03 219.85 829.796 Q219.06 830.537 218.047 830.537 Q216.886 830.537 216.12 829.722 Z" fill="#000000" fill-rule="nonzero" fill-opacity="1" /><path clip-path="url(#clip560)" d="M227.632 830.537 Q227.632 829.623 227.706 829.351 Q227.805 829.08 228.2 828.66 L237.908 817.84 Q243.22 811.861 243.22 806.649 Q243.22 803.265 241.441 800.844 Q239.687 798.423 236.451 798.423 Q234.227 798.423 232.35 799.781 Q230.473 801.14 229.608 803.561 Q229.756 803.512 230.275 803.512 Q231.535 803.512 232.227 804.302 Q232.943 805.093 232.943 806.155 Q232.943 807.514 232.054 808.181 Q231.189 808.823 230.324 808.823 Q229.979 808.823 229.509 808.749 Q229.064 808.675 228.348 807.983 Q227.632 807.267 227.632 806.007 Q227.632 802.474 230.3 799.658 Q232.992 796.842 237.093 796.842 Q241.737 796.842 244.776 799.609 Q247.839 802.351 247.839 806.649 Q247.839 808.156 247.37 809.539 Q246.925 810.898 246.307 811.96 Q245.715 813.022 244.084 814.727 Q242.454 816.432 241.144 817.642 Q239.835 818.852 236.895 821.422 L231.535 826.634 L240.65 826.634 Q245.097 826.634 245.443 826.239 Q245.937 825.522 246.554 821.743 L247.839 821.743 L246.406 830.537 L227.632 830.537 Z" fill="#000000" fill-rule="nonzero" fill-opacity="1" /><path clip-path="url(#clip560)" d="M252.928 822.385 Q252.928 820.878 253.743 820.31 Q254.558 819.717 255.423 819.717 Q256.584 819.717 257.251 820.458 Q257.943 821.175 257.943 822.187 Q257.943 823.2 257.251 823.941 Q256.584 824.658 255.423 824.658 Q254.855 824.658 254.558 824.559 Q255.225 826.881 257.251 828.561 Q259.301 830.241 261.994 830.241 Q265.378 830.241 267.404 826.955 Q268.615 824.831 268.615 820.014 Q268.615 815.765 267.701 813.64 Q266.292 810.404 263.402 810.404 Q259.301 810.404 256.88 813.937 Q256.584 814.381 256.238 814.406 Q255.744 814.406 255.621 814.134 Q255.522 813.838 255.522 813.072 L255.522 798.102 Q255.522 796.891 256.016 796.891 Q256.213 796.891 256.633 797.039 Q259.82 798.448 263.353 798.472 Q266.984 798.472 270.245 796.99 Q270.492 796.842 270.64 796.842 Q271.134 796.842 271.159 797.41 Q271.159 797.608 270.739 798.2 Q270.344 798.769 269.479 799.534 Q268.615 800.276 267.503 800.992 Q266.391 801.708 264.761 802.202 Q263.155 802.672 261.376 802.672 Q259.252 802.672 257.078 802.005 L257.078 811.861 Q259.697 809.292 263.501 809.292 Q267.552 809.292 270.344 812.553 Q273.135 815.814 273.135 820.359 Q273.135 825.127 269.825 828.388 Q266.539 831.649 262.093 831.649 Q258.042 831.649 255.472 828.759 Q252.928 825.868 252.928 822.385 Z" fill="#000000" fill-rule="nonzero" fill-opacity="1" /><path clip-path="url(#clip560)" d="M187.192 610.694 Q187.192 603.258 189.07 599.207 Q191.688 593.179 197.864 593.179 Q199.173 593.179 200.532 593.55 Q201.915 593.896 203.645 595.254 Q205.399 596.613 206.461 598.836 Q208.487 603.135 208.487 610.694 Q208.487 618.08 206.609 622.107 Q203.867 627.986 197.815 627.986 Q195.542 627.986 193.22 626.825 Q190.922 625.664 189.465 622.873 Q187.192 618.698 187.192 610.694 M191.392 610.076 Q191.392 617.71 191.935 620.748 Q192.553 624.034 194.233 625.466 Q195.937 626.875 197.815 626.875 Q199.84 626.875 201.52 625.368 Q203.225 623.836 203.744 620.55 Q204.312 617.314 204.287 610.076 Q204.287 603.036 203.793 600.22 Q203.126 596.934 201.347 595.625 Q199.593 594.291 197.815 594.291 Q197.148 594.291 196.431 594.488 Q195.74 594.686 194.727 595.254 Q193.714 595.822 192.923 597.23 Q192.158 598.639 191.787 600.763 Q191.392 603.505 191.392 610.076 Z" fill="#000000" fill-rule="nonzero" fill-opacity="1" /><path clip-path="url(#clip560)" d="M215.576 626.059 Q214.811 625.244 214.811 624.182 Q214.811 623.12 215.576 622.354 Q216.342 621.563 217.503 621.563 Q218.615 621.563 219.356 622.304 Q220.122 623.021 220.122 624.207 Q220.122 625.368 219.307 626.133 Q218.516 626.875 217.503 626.875 Q216.342 626.875 215.576 626.059 Z" fill="#000000" fill-rule="nonzero" fill-opacity="1" /><path clip-path="url(#clip560)" d="M227.088 618.722 Q227.088 617.215 227.903 616.647 Q228.719 616.054 229.583 616.054 Q230.744 616.054 231.411 616.796 Q232.103 617.512 232.103 618.525 Q232.103 619.538 231.411 620.279 Q230.744 620.995 229.583 620.995 Q229.015 620.995 228.719 620.896 Q229.386 623.218 231.411 624.898 Q233.462 626.578 236.154 626.578 Q239.539 626.578 241.564 623.293 Q242.775 621.168 242.775 616.351 Q242.775 612.102 241.861 609.977 Q240.453 606.741 237.562 606.741 Q233.462 606.741 231.041 610.274 Q230.744 610.719 230.398 610.743 Q229.904 610.743 229.781 610.471 Q229.682 610.175 229.682 609.409 L229.682 594.439 Q229.682 593.229 230.176 593.229 Q230.374 593.229 230.794 593.377 Q233.98 594.785 237.513 594.81 Q241.144 594.81 244.405 593.327 Q244.652 593.179 244.801 593.179 Q245.295 593.179 245.319 593.747 Q245.319 593.945 244.899 594.538 Q244.504 595.106 243.639 595.872 Q242.775 596.613 241.663 597.329 Q240.552 598.046 238.921 598.54 Q237.315 599.009 235.537 599.009 Q233.412 599.009 231.238 598.342 L231.238 608.199 Q233.857 605.63 237.661 605.63 Q241.713 605.63 244.504 608.89 Q247.296 612.151 247.296 616.697 Q247.296 621.464 243.985 624.725 Q240.7 627.986 236.253 627.986 Q232.202 627.986 229.633 625.096 Q227.088 622.206 227.088 618.722 Z" fill="#000000" fill-rule="nonzero" fill-opacity="1" /><path clip-path="url(#clip560)" d="M251.841 610.694 Q251.841 603.258 253.718 599.207 Q256.337 593.179 262.513 593.179 Q263.822 593.179 265.181 593.55 Q266.564 593.896 268.293 595.254 Q270.047 596.613 271.11 598.836 Q273.135 603.135 273.135 610.694 Q273.135 618.08 271.258 622.107 Q268.516 627.986 262.463 627.986 Q260.191 627.986 257.869 626.825 Q255.571 625.664 254.114 622.873 Q251.841 618.698 251.841 610.694 M256.041 610.076 Q256.041 617.71 256.584 620.748 Q257.202 624.034 258.881 625.466 Q260.586 626.875 262.463 626.875 Q264.489 626.875 266.169 625.368 Q267.873 623.836 268.392 620.55 Q268.96 617.314 268.936 610.076 Q268.936 603.036 268.442 600.22 Q267.775 596.934 265.996 595.625 Q264.242 594.291 262.463 594.291 Q261.796 594.291 261.08 594.488 Q260.388 594.686 259.376 595.254 Q258.363 595.822 257.572 597.23 Q256.806 598.639 256.436 600.763 Q256.041 603.505 256.041 610.076 Z" fill="#000000" fill-rule="nonzero" fill-opacity="1" /><path clip-path="url(#clip560)" d="M187.736 407.031 Q187.736 399.595 189.613 395.544 Q192.232 389.516 198.408 389.516 Q199.717 389.516 201.076 389.887 Q202.459 390.233 204.188 391.592 Q205.942 392.95 207.004 395.174 Q209.03 399.472 209.03 407.031 Q209.03 414.417 207.153 418.444 Q204.411 424.323 198.358 424.323 Q196.085 424.323 193.763 423.162 Q191.466 422.001 190.008 419.21 Q187.736 415.035 187.736 407.031 M191.935 406.414 Q191.935 414.047 192.479 417.085 Q193.096 420.371 194.776 421.804 Q196.481 423.212 198.358 423.212 Q200.384 423.212 202.064 421.705 Q203.768 420.173 204.287 416.888 Q204.855 413.652 204.83 406.414 Q204.83 399.373 204.336 396.557 Q203.669 393.271 201.891 391.962 Q200.137 390.628 198.358 390.628 Q197.691 390.628 196.975 390.826 Q196.283 391.023 195.27 391.592 Q194.257 392.16 193.467 393.568 Q192.701 394.976 192.331 397.1 Q191.935 399.842 191.935 406.414 Z" fill="#000000" fill-rule="nonzero" fill-opacity="1" /><path clip-path="url(#clip560)" d="M216.12 422.397 Q215.354 421.581 215.354 420.519 Q215.354 419.457 216.12 418.691 Q216.886 417.901 218.047 417.901 Q219.158 417.901 219.9 418.642 Q220.665 419.358 220.665 420.544 Q220.665 421.705 219.85 422.471 Q219.06 423.212 218.047 423.212 Q216.886 423.212 216.12 422.397 Z" fill="#000000" fill-rule="nonzero" fill-opacity="1" /><path clip-path="url(#clip560)" d="M227.953 399.422 L229.608 389.022 L230.868 389.022 Q231.016 389.64 231.263 389.912 Q231.535 390.183 232.968 390.406 Q234.425 390.628 237.365 390.628 L249.642 390.628 Q249.642 391.789 249.198 392.407 L242.355 402.016 Q240.181 405.055 239.218 410.663 Q238.649 414.417 238.674 418.963 L238.674 421.532 Q238.674 424.323 236.327 424.323 Q234.005 424.323 234.005 421.532 Q234.005 411.873 240.23 402.51 Q240.897 401.547 243.343 398.113 Q245.813 394.679 245.912 394.531 L235.438 394.531 Q230.843 394.531 230.473 394.828 Q229.979 395.272 229.213 399.422 L227.953 399.422 Z" fill="#000000" fill-rule="nonzero" fill-opacity="1" /><path clip-path="url(#clip560)" d="M252.928 415.06 Q252.928 413.553 253.743 412.985 Q254.558 412.392 255.423 412.392 Q256.584 412.392 257.251 413.133 Q257.943 413.849 257.943 414.862 Q257.943 415.875 257.251 416.616 Q256.584 417.332 255.423 417.332 Q254.855 417.332 254.558 417.234 Q255.225 419.556 257.251 421.236 Q259.301 422.915 261.994 422.915 Q265.378 422.915 267.404 419.63 Q268.615 417.505 268.615 412.688 Q268.615 408.439 267.701 406.315 Q266.292 403.079 263.402 403.079 Q259.301 403.079 256.88 406.611 Q256.584 407.056 256.238 407.081 Q255.744 407.081 255.621 406.809 Q255.522 406.512 255.522 405.747 L255.522 390.776 Q255.522 389.566 256.016 389.566 Q256.213 389.566 256.633 389.714 Q259.82 391.122 263.353 391.147 Q266.984 391.147 270.245 389.665 Q270.492 389.516 270.64 389.516 Q271.134 389.516 271.159 390.085 Q271.159 390.282 270.739 390.875 Q270.344 391.443 269.479 392.209 Q268.615 392.95 267.503 393.667 Q266.391 394.383 264.761 394.877 Q263.155 395.346 261.376 395.346 Q259.252 395.346 257.078 394.679 L257.078 404.536 Q259.697 401.967 263.501 401.967 Q267.552 401.967 270.344 405.228 Q273.135 408.489 273.135 413.034 Q273.135 417.802 269.825 421.063 Q266.539 424.323 262.093 424.323 Q258.042 424.323 255.472 421.433 Q252.928 418.543 252.928 415.06 Z" fill="#000000" fill-rule="nonzero" fill-opacity="1" /><path clip-path="url(#clip560)" d="M189.712 190.671 L189.712 189.09 Q195.789 189.09 198.926 185.854 Q199.791 185.854 199.939 186.051 Q200.087 186.249 200.087 187.163 L200.087 215.547 Q200.087 217.054 200.829 217.523 Q201.57 217.993 204.806 217.993 L206.411 217.993 L206.411 219.549 Q204.633 219.401 198.21 219.401 Q191.787 219.401 190.033 219.549 L190.033 217.993 L191.639 217.993 Q194.826 217.993 195.591 217.548 Q196.357 217.079 196.357 215.547 L196.357 189.337 Q193.714 190.671 189.712 190.671 Z" fill="#000000" fill-rule="nonzero" fill-opacity="1" /><path clip-path="url(#clip560)" d="M215.576 218.734 Q214.811 217.919 214.811 216.856 Q214.811 215.794 215.576 215.028 Q216.342 214.238 217.503 214.238 Q218.615 214.238 219.356 214.979 Q220.122 215.695 220.122 216.881 Q220.122 218.042 219.307 218.808 Q218.516 219.549 217.503 219.549 Q216.342 219.549 215.576 218.734 Z" fill="#000000" fill-rule="nonzero" fill-opacity="1" /><path clip-path="url(#clip560)" d="M226.545 203.368 Q226.545 195.933 228.422 191.881 Q231.041 185.854 237.217 185.854 Q238.526 185.854 239.885 186.224 Q241.268 186.57 242.997 187.929 Q244.751 189.288 245.813 191.511 Q247.839 195.809 247.839 203.368 Q247.839 210.755 245.962 214.781 Q243.22 220.661 237.167 220.661 Q234.894 220.661 232.572 219.5 Q230.275 218.339 228.817 215.547 Q226.545 211.372 226.545 203.368 M230.744 202.751 Q230.744 210.384 231.288 213.423 Q231.905 216.708 233.585 218.141 Q235.29 219.549 237.167 219.549 Q239.193 219.549 240.873 218.042 Q242.577 216.511 243.096 213.225 Q243.664 209.989 243.639 202.751 Q243.639 195.71 243.145 192.894 Q242.478 189.609 240.7 188.299 Q238.946 186.965 237.167 186.965 Q236.5 186.965 235.784 187.163 Q235.092 187.361 234.079 187.929 Q233.066 188.497 232.276 189.905 Q231.51 191.313 231.14 193.438 Q230.744 196.18 230.744 202.751 Z" fill="#000000" fill-rule="nonzero" fill-opacity="1" /><path clip-path="url(#clip560)" d="M251.841 203.368 Q251.841 195.933 253.718 191.881 Q256.337 185.854 262.513 185.854 Q263.822 185.854 265.181 186.224 Q266.564 186.57 268.293 187.929 Q270.047 189.288 271.11 191.511 Q273.135 195.809 273.135 203.368 Q273.135 210.755 271.258 214.781 Q268.516 220.661 262.463 220.661 Q260.191 220.661 257.869 219.5 Q255.571 218.339 254.114 215.547 Q251.841 211.372 251.841 203.368 M256.041 202.751 Q256.041 210.384 256.584 213.423 Q257.202 216.708 258.881 218.141 Q260.586 219.549 262.463 219.549 Q264.489 219.549 266.169 218.042 Q267.873 216.511 268.392 213.225 Q268.96 209.989 268.936 202.751 Q268.936 195.71 268.442 192.894 Q267.775 189.609 265.996 188.299 Q264.242 186.965 262.463 186.965 Q261.796 186.965 261.08 187.163 Q260.388 187.361 259.376 187.929 Q258.363 188.497 257.572 189.905 Q256.806 191.313 256.436 193.438 Q256.041 196.18 256.041 202.751 Z" fill="#000000" fill-rule="nonzero" fill-opacity="1" /><path clip-path="url(#clip560)" d="M133.991 750.474 Q127.367 750.474 122.782 745.854 Q118.196 741.235 118.196 734.985 Q118.196 729.686 122.51 726.221 L107.462 726.221 Q104.881 726.221 104.236 727.138 Q103.59 728.021 103.59 731.622 L101.416 731.622 L100.669 721.602 L142.89 721.602 Q145.472 721.602 146.151 720.718 Q146.796 719.801 146.796 716.201 L148.936 716.201 L149.718 726.425 L145.098 726.425 Q149.684 730.025 149.718 735.732 Q149.718 741.71 145.132 746.092 Q140.546 750.474 133.991 750.474 M134.059 744.699 Q140.512 744.699 143.705 742.695 Q148.155 739.91 148.155 735.392 Q148.155 730.229 143.298 727.172 Q142.109 726.391 140.716 726.425 L126.45 726.425 Q125.057 726.425 123.903 727.172 Q119.725 730.025 119.725 734.679 Q119.725 739.536 124.174 742.559 Q127.503 744.699 134.059 744.699 Z" fill="#000000" fill-rule="nonzero" fill-opacity="1" /><path clip-path="url(#clip560)" d="M133.617 712.328 Q127.061 712.328 122.408 708.117 Q117.754 703.905 117.754 697.858 Q117.754 691.744 121.729 688.585 Q125.703 685.393 131.409 685.393 Q132.462 685.393 132.666 685.664 Q132.87 685.936 132.87 687.125 L132.87 706.554 Q139.969 706.554 143.298 704.448 Q147.951 701.527 147.951 696.602 Q147.951 695.922 147.815 695.107 Q147.68 694.292 147.102 692.628 Q146.491 690.963 144.894 689.503 Q143.298 688.042 140.784 687.193 Q139.799 686.989 139.833 686.31 Q139.833 685.393 140.648 685.393 Q141.26 685.393 142.652 686.072 Q144.011 686.717 145.641 687.974 Q147.272 689.231 148.495 691.676 Q149.718 694.088 149.718 697.009 Q149.718 703.123 145.098 707.743 Q140.445 712.328 133.617 712.328 M131.409 706.486 L131.409 689.978 Q129.949 689.978 128.318 690.25 Q126.688 690.488 124.446 691.235 Q122.17 691.948 120.744 693.647 Q119.317 695.345 119.317 697.858 Q119.317 698.979 119.792 700.202 Q120.268 701.391 121.423 702.852 Q122.578 704.312 125.193 705.331 Q127.809 706.35 131.409 706.486 Z" fill="#000000" fill-rule="nonzero" fill-opacity="1" /><path clip-path="url(#clip560)" d="M148.936 681.147 L146.796 681.147 Q146.796 677.444 146.355 676.595 Q145.879 675.746 143.637 675.746 L124.989 675.746 Q122.408 675.746 121.763 676.663 Q121.117 677.546 121.117 681.147 L118.943 681.147 L118.196 671.364 L125.499 671.364 Q118.196 668.103 118.196 661.072 Q118.196 655.841 120.778 653.769 Q122.51 652.241 124.446 651.935 Q126.382 651.595 131.409 651.595 L144.69 651.595 Q146.151 651.527 146.491 650.406 Q146.796 649.286 146.796 646.161 L148.936 646.161 Q148.732 653.26 148.732 653.973 Q148.732 654.516 148.936 661.819 L146.796 661.819 Q146.796 658.117 146.355 657.268 Q145.879 656.385 143.637 656.385 L127.435 656.385 Q123.903 656.385 121.831 657.472 Q119.725 658.559 119.725 661.548 Q119.725 665.148 122.748 668.035 Q125.771 670.923 130.866 670.923 L143.637 670.923 Q145.879 670.923 146.355 670.073 Q146.796 669.19 146.796 665.522 L148.936 665.522 Q148.732 672.621 148.732 673.3 Q148.732 673.844 148.936 681.147 Z" fill="#000000" fill-rule="nonzero" fill-opacity="1" /><path clip-path="url(#clip560)" d="M148.019 642.492 L138.848 642.492 Q138.067 642.492 137.795 642.458 Q137.523 642.424 137.32 642.22 Q137.116 642.017 137.116 641.609 Q137.116 641.133 137.32 640.964 Q137.523 640.76 138.305 640.624 Q143.094 639.571 145.641 637.329 Q148.155 635.053 148.155 630.943 Q148.155 627.037 146.423 625.067 Q144.69 623.097 141.837 623.097 Q136.742 623.097 135.451 630.332 Q134.602 634.51 134.059 636.242 Q133.481 637.974 132.224 639.503 Q129.779 642.492 126.314 642.492 Q122.85 642.492 120.302 639.877 Q117.754 637.227 117.754 631.385 Q117.754 627.479 119.725 624.829 Q119.113 624.048 118.604 623.64 Q117.754 622.723 117.754 622.248 Q117.754 621.704 118.128 621.602 Q118.468 621.5 119.453 621.5 L126.45 621.5 Q127.231 621.5 127.503 621.534 Q127.775 621.568 127.979 621.772 Q128.148 621.976 128.148 622.418 Q128.148 623.199 127.503 623.233 Q119.079 623.776 119.079 631.385 Q119.079 635.495 120.676 637.329 Q122.238 639.163 124.378 639.163 Q125.567 639.163 126.484 638.62 Q127.367 638.042 127.911 637.329 Q128.42 636.582 128.93 635.223 Q129.405 633.864 129.575 633.049 Q129.745 632.2 130.085 630.604 Q131.138 625.033 133.413 622.689 Q136.334 619.768 140.037 619.768 Q144.147 619.768 146.932 622.553 Q149.718 625.339 149.718 630.943 Q149.718 635.461 146.694 638.62 Q147.102 639.027 147.476 639.333 Q147.815 639.639 147.951 639.775 Q148.087 639.877 148.189 639.911 Q148.257 639.945 148.325 640.012 Q149.718 641.405 149.718 641.745 Q149.718 642.288 149.344 642.39 Q149.004 642.492 148.019 642.492 Z" fill="#000000" fill-rule="nonzero" fill-opacity="1" /><path clip-path="url(#clip560)" d="M148.936 615.115 L146.796 615.115 Q146.796 611.412 146.355 610.563 Q145.879 609.714 143.637 609.714 L124.922 609.714 Q122.34 609.714 121.729 610.597 Q121.117 611.446 121.117 614.843 L118.943 614.843 L118.196 605.128 L143.705 605.128 Q145.777 605.128 146.287 604.381 Q146.796 603.634 146.796 600.237 L148.936 600.237 Q148.732 607.336 148.732 607.472 Q148.732 608.423 148.936 615.115 M106.07 612.193 Q104.677 612.193 103.556 611.14 Q102.401 610.053 102.401 608.525 Q102.401 606.996 103.454 605.91 Q104.473 604.823 106.104 604.823 Q107.7 604.823 108.753 605.91 Q109.772 606.996 109.772 608.525 Q109.772 610.121 108.651 611.174 Q107.53 612.193 106.07 612.193 Z" fill="#000000" fill-rule="nonzero" fill-opacity="1" /><path clip-path="url(#clip560)" d="M121.117 596.84 L119.589 596.84 Q119.453 593.647 117.211 591.541 Q114.935 589.401 112.15 588.688 Q109.365 587.941 106.138 587.873 L106.138 586.141 L118.943 586.141 L118.943 576.188 L121.117 576.188 L121.117 586.141 L140.445 586.141 Q147.951 586.141 147.951 581.453 Q147.951 579.449 145.913 578.124 Q143.841 576.8 140.173 576.8 L136.334 576.8 L136.334 575.067 L140.309 575.067 Q144.079 575.067 146.898 576.8 Q149.718 578.532 149.718 581.963 Q149.718 583.219 149.378 584.476 Q149.072 585.699 148.257 587.329 Q147.408 588.926 145.37 589.945 Q143.298 590.93 140.309 590.93 L121.117 590.93 L121.117 596.84 Z" fill="#000000" fill-rule="nonzero" fill-opacity="1" /><path clip-path="url(#clip560)" d="M157.564 571.807 Q156.103 571.807 155.322 570.957 Q154.575 570.074 154.575 568.885 Q154.575 567.629 155.356 566.813 Q156.171 565.964 157.496 565.964 Q160.077 565.964 160.417 568.682 Q161.674 567.357 161.674 565.421 Q161.674 563.349 160.145 561.684 Q158.617 559.986 157.156 559.273 Q155.696 558.525 153.046 557.472 Q150.974 556.487 148.936 555.74 L123.529 566.168 Q121.864 566.847 121.491 567.9 Q121.117 568.953 121.117 571.807 L118.943 571.807 Q119.147 568.682 119.147 565.047 Q119.147 562.907 118.943 557.472 L121.117 557.472 Q121.117 561.379 122.917 561.379 Q123.121 561.379 124.174 560.971 L142.89 553.227 L125.771 546.195 Q124.786 545.788 124.106 545.788 Q121.253 545.788 121.117 549.049 L118.943 549.049 Q119.147 544.463 119.147 543.002 Q119.147 540.149 118.943 537.805 L121.117 537.805 Q121.117 542.459 125.567 544.259 L155.254 556.521 Q163.169 559.85 163.202 565.421 Q163.202 568.07 161.572 569.938 Q159.942 571.807 157.564 571.807 Z" fill="#000000" fill-rule="nonzero" fill-opacity="1" /><path clip-path="url(#clip560)" d="M131.545 506.454 Q119.792 506.454 110.316 502.072 Q106.342 500.204 103.013 497.588 Q99.684 494.973 98.2234 493.241 Q96.7628 491.508 96.7628 491.033 Q96.7628 490.353 97.4421 490.319 Q97.7818 490.319 98.631 491.237 Q110.044 502.446 131.545 502.412 Q153.114 502.412 164.086 491.508 Q165.274 490.319 165.648 490.319 Q166.327 490.319 166.327 491.033 Q166.327 491.508 164.935 493.173 Q163.542 494.837 160.349 497.419 Q157.156 500 153.25 501.868 Q143.773 506.454 131.545 506.454 Z" fill="#000000" fill-rule="nonzero" fill-opacity="1" /><path clip-path="url(#clip560)" d="M148.936 484.137 L146.796 484.137 Q146.728 481.896 146.321 480.435 Q145.879 478.94 144.792 478.091 Q143.705 477.208 142.992 476.868 Q142.245 476.495 140.512 475.883 L104.983 463.485 Q104.202 463.282 102.707 462.738 Q101.212 462.161 100.465 461.957 Q98.5291 466.95 92.9924 466.984 Q90.0713 466.984 87.7615 465.184 Q85.4178 463.35 85.4178 460.36 Q85.4178 457.439 87.7275 455.571 Q90.0033 453.669 92.9924 453.669 Q98.4951 453.669 100.465 458.696 L142.686 444.09 Q145.608 443.037 146.219 442.052 Q146.796 441.033 146.796 436.787 L146.796 436.515 L148.936 436.515 Q148.732 440.965 148.732 445.415 Q148.732 450.51 148.936 455.639 L146.796 455.639 L146.796 455.503 Q146.796 450 144.555 450 Q144.011 450 133.074 453.737 L133.074 470.992 Q134.466 471.4 136.98 472.317 Q139.459 473.234 141.124 473.777 Q142.754 474.287 143.298 474.287 Q144.555 474.287 145.641 473.064 Q146.694 471.841 146.796 469.124 L148.936 469.124 Q148.732 473.166 148.732 477.276 Q148.732 480.673 148.936 484.137 M130.934 470.245 L130.934 454.518 L108.312 462.364 L130.934 470.245 M92.9245 465.218 Q96.3891 465.218 97.7478 463.723 Q99.0726 462.229 99.0726 460.292 Q99.0726 458.356 97.7478 456.896 Q96.4231 455.435 93.0604 455.435 Q89.5957 455.435 88.271 456.93 Q86.9463 458.424 86.9463 460.36 Q86.9463 462.297 88.271 463.757 Q89.5957 465.218 92.9245 465.218 Z" fill="#000000" fill-rule="nonzero" fill-opacity="1" /><path clip-path="url(#clip560)" d="M115.275 426.054 L105.255 413.044 L115.275 399.967 L116.735 401.02 L108.923 413.044 L116.735 425.035 L115.275 426.054 Z" fill="#000000" fill-rule="nonzero" fill-opacity="1" /><path clip-path="url(#clip560)" d="M135.995 391.034 L131.885 391.034 L131.885 372.521 L135.995 372.521 L135.995 391.034 Z" fill="#000000" fill-rule="nonzero" fill-opacity="1" /><path clip-path="url(#clip560)" d="M109.229 362.399 L107.055 362.399 Q107.055 354.043 102.605 349.729 Q102.605 348.541 102.877 348.337 Q103.149 348.133 104.405 348.133 L143.434 348.133 Q145.506 348.133 146.151 347.114 Q146.796 346.095 146.796 341.645 L146.796 339.437 L148.936 339.437 Q148.732 341.883 148.732 350.715 Q148.732 359.546 148.936 361.958 L146.796 361.958 L146.796 359.75 Q146.796 355.368 146.185 354.315 Q145.54 353.262 143.434 353.262 L107.394 353.262 Q109.229 356.897 109.229 362.399 Z" fill="#000000" fill-rule="nonzero" fill-opacity="1" /><path clip-path="url(#clip560)" d="M165.648 329.825 Q165.308 329.825 164.459 328.942 Q153.046 317.732 131.545 317.732 Q109.976 317.732 99.0726 328.5 Q97.8158 329.825 97.4421 329.825 Q96.7628 329.825 96.7628 329.145 Q96.7628 328.67 98.1554 327.005 Q99.5481 325.307 102.741 322.76 Q105.934 320.178 109.84 318.276 Q119.317 313.69 131.545 313.69 Q143.298 313.69 152.775 318.072 Q156.749 319.94 160.077 322.556 Q163.406 325.171 164.867 326.904 Q166.327 328.636 166.327 329.145 Q166.327 329.825 165.648 329.825 Z" fill="#000000" fill-rule="nonzero" fill-opacity="1" /><path clip-path="url(#clip561)" d="M362.732 813.257 L362.732 1016.92 L575.019 1016.92 L575.019 813.257 L362.732 813.257 L362.732 813.257  Z" fill="#808080" fill-rule="evenodd" fill-opacity="1"/>
<polyline clip-path="url(#clip561)" style="stroke:#000000; stroke-linecap:round; stroke-linejoin:round; stroke-width:4; stroke-opacity:1; fill:none" points="362.732,813.257 362.732,1016.92 575.019,1016.92 575.019,813.257 362.732,813.257 "/>
<path clip-path="url(#clip561)" d="M575.019 528.129 L575.019 1016.92 L787.306 1016.92 L787.306 528.129 L575.019 528.129 L575.019 528.129  Z" fill="#808080" fill-rule="evenodd" fill-opacity="1"/>
<polyline clip-path="url(#clip561)" style="stroke:#000000; stroke-linecap:round; stroke-linejoin:round; stroke-width:4; stroke-opacity:1; fill:none" points="575.019,528.129 575.019,1016.92 787.306,1016.92 787.306,528.129 575.019,528.129 "/>
<path clip-path="url(#clip561)" d="M787.306 324.467 L787.306 1016.92 L999.593 1016.92 L999.593 324.467 L787.306 324.467 L787.306 324.467  Z" fill="#808080" fill-rule="evenodd" fill-opacity="1"/>
<polyline clip-path="url(#clip561)" style="stroke:#000000; stroke-linecap:round; stroke-linejoin:round; stroke-width:4; stroke-opacity:1; fill:none" points="787.306,324.467 787.306,1016.92 999.593,1016.92 999.593,324.467 787.306,324.467 "/>
<path clip-path="url(#clip561)" d="M999.593 853.99 L999.593 1016.92 L1211.88 1016.92 L1211.88 853.99 L999.593 853.99 L999.593 853.99  Z" fill="#808080" fill-rule="evenodd" fill-opacity="1"/>
<polyline clip-path="url(#clip561)" style="stroke:#000000; stroke-linecap:round; stroke-linejoin:round; stroke-width:4; stroke-opacity:1; fill:none" points="999.593,853.99 999.593,1016.92 1211.88,1016.92 1211.88,853.99 999.593,853.99 "/>
<path clip-path="url(#clip561)" d="M1211.88 935.455 L1211.88 1016.92 L1424.17 1016.92 L1424.17 935.455 L1211.88 935.455 L1211.88 935.455  Z" fill="#808080" fill-rule="evenodd" fill-opacity="1"/>
<polyline clip-path="url(#clip561)" style="stroke:#000000; stroke-linecap:round; stroke-linejoin:round; stroke-width:4; stroke-opacity:1; fill:none" points="1211.88,935.455 1211.88,1016.92 1424.17,1016.92 1424.17,935.455 1211.88,935.455 "/>
<circle clip-path="url(#clip561)" style="fill:#808080; stroke:none; fill-opacity:0" cx="468.875" cy="813.257" r="2"/>
<circle clip-path="url(#clip561)" style="fill:#808080; stroke:none; fill-opacity:0" cx="681.163" cy="528.129" r="2"/>
<circle clip-path="url(#clip561)" style="fill:#808080; stroke:none; fill-opacity:0" cx="893.45" cy="324.467" r="2"/>
<circle clip-path="url(#clip561)" style="fill:#808080; stroke:none; fill-opacity:0" cx="1105.74" cy="853.99" r="2"/>
<circle clip-path="url(#clip561)" style="fill:#808080; stroke:none; fill-opacity:0" cx="1318.02" cy="935.455" r="2"/>
<polyline clip-path="url(#clip561)" style="stroke:#000000; stroke-linecap:round; stroke-linejoin:round; stroke-width:8; stroke-opacity:1; fill:none" points="330.889,1014.52 333.793,1014.34 336.697,1014.16 339.6,1013.96 342.504,1013.74 359.512,1012.2 376.52,1009.99 393.527,1006.9 410.535,1002.64 426.359,997.32 442.183,990.345 452.788,984.554 463.392,977.72 473.997,969.705 484.602,960.367 493.365,951.547 502.128,941.638 510.891,930.555 519.654,918.215 527.803,905.543 535.952,891.656 544.1,876.498 552.249,860.021 562.478,837.41 572.708,812.598 582.937,785.556 593.167,756.285 602.342,728.164 611.518,698.337 620.694,666.888 629.87,633.93 640.373,594.54 650.876,553.631 661.379,511.521 671.882,468.579 687.584,403.745 703.286,339.544 713.327,299.601 723.369,261.075 733.41,224.437 743.452,190.152 748.034,175.41 752.617,161.294 757.199,147.842 761.782,135.094 766.364,123.087 770.947,111.856 775.529,101.433 780.112,91.8508 785.327,82.0031 790.542,73.3193 795.758,65.8335 800.973,59.5753 806.189,54.5698 811.404,50.837 816.62,48.3918 821.835,47.2441 825.969,47.2595 830.104,48.0931 834.238,49.743 838.372,52.2049 842.507,55.4726 846.641,59.5379 850.776,64.3906 854.91,70.0184 860.046,78.0688 865.183,87.2629 870.319,97.5659 875.456,108.939 880.592,121.339 885.729,134.72 890.865,149.032 896.002,164.225 903.869,189.075 911.736,215.655 919.604,243.748 927.471,273.134 938.563,316.324 949.655,361.005 960.747,406.556 971.838,452.385 988.416,520.204 1004.99,585.767 1014.42,621.512 1023.85,655.882 1033.27,688.707 1042.7,719.855 1052.03,748.949 1061.37,776.232 1070.7,801.666 1080.04,825.239 1090.31,849.04 1100.58,870.649 1110.85,890.139 1121.12,907.603 1128.96,919.645 1136.81,930.624 1144.65,940.596 1152.5,949.62 1162.4,959.75 1172.3,968.59 1182.2,976.26 1192.1,982.878 1210.41,992.723 1228.72,1000 1247.61,1005.43 1266.49,1009.25 1285.63,1011.92 1304.78,1013.72 1344.75,1015.73 1376.25,1016.4 1447.96,1016.86 1456.01,1016.87 "/>
</svg>
