<?xml version="1.0" encoding="utf-8"?>
<svg xmlns="http://www.w3.org/2000/svg" xmlns:xlink="http://www.w3.org/1999/xlink" width="400" height="300" viewBox="0 0 1600 1200">
<defs>
  <clipPath id="clip500">
    <rect x="0" y="0" width="1600" height="1200"/>
  </clipPath>
</defs>
<path clip-path="url(#clip500)" d="M0 1200 L1600 1200 L1600 0 L0 0  Z" fill="#ffffff" fill-rule="evenodd" fill-opacity="1"/>
<defs>
  <clipPath id="clip501">
    <rect x="297" y="47" width="1194" height="971"/>
  </clipPath>
</defs>
<path clip-path="url(#clip500)" d="M297.135 1016.92 L1489.76 1016.92 L1489.76 47.2441 L297.135 47.2441  Z" fill="#ffffff" fill-rule="evenodd" fill-opacity="1"/>
<polyline clip-path="url(#clip501)" style="stroke:#000000; stroke-linecap:round; stroke-linejoin:round; stroke-width:2; stroke-opacity:0.1; fill:none" points="362.732,1016.92 362.732,47.2441 "/>
<polyline clip-path="url(#clip501)" style="stroke:#000000; stroke-linecap:round; stroke-linejoin:round; stroke-width:2; stroke-opacity:0.1; fill:none" points="575.019,1016.92 575.019,47.2441 "/>
<polyline clip-path="url(#clip501)" style="stroke:#000000; stroke-linecap:round; stroke-linejoin:round; stroke-width:2; stroke-opacity:0.1; fill:none" points="787.306,1016.92 787.306,47.2441 "/>
<polyline clip-path="url(#clip501)" style="stroke:#000000; stroke-linecap:round; stroke-linejoin:round; stroke-width:2; stroke-opacity:0.1; fill:none" points="999.593,1016.92 999.593,47.2441 "/>
<polyline clip-path="url(#clip501)" style="stroke:#000000; stroke-linecap:round; stroke-linejoin:round; stroke-width:2; stroke-opacity:0.1; fill:none" points="1211.88,1016.92 1211.88,47.2441 "/>
<polyline clip-path="url(#clip501)" style="stroke:#000000; stroke-linecap:round; stroke-linejoin:round; stroke-width:2; stroke-opacity:0.1; fill:none" points="1424.17,1016.92 1424.17,47.2441 "/>
<polyline clip-path="url(#clip501)" style="stroke:#000000; stroke-linecap:round; stroke-linejoin:round; stroke-width:2; stroke-opacity:0.1; fill:none" points="362.732,1016.92 362.732,47.2441 "/>
<polyline clip-path="url(#clip501)" style="stroke:#000000; stroke-linecap:round; stroke-linejoin:round; stroke-width:2; stroke-opacity:0.1; fill:none" points="575.019,1016.92 575.019,47.2441 "/>
<polyline clip-path="url(#clip501)" style="stroke:#000000; stroke-linecap:round; stroke-linejoin:round; stroke-width:2; stroke-opacity:0.1; fill:none" points="787.306,1016.92 787.306,47.2441 "/>
<polyline clip-path="url(#clip501)" style="stroke:#000000; stroke-linecap:round; stroke-linejoin:round; stroke-width:2; stroke-opacity:0.1; fill:none" points="999.593,1016.92 999.593,47.2441 "/>
<polyline clip-path="url(#clip501)" style="stroke:#000000; stroke-linecap:round; stroke-linejoin:round; stroke-width:2; stroke-opacity:0.1; fill:none" points="1211.88,1016.92 1211.88,47.2441 "/>
<polyline clip-path="url(#clip501)" style="stroke:#000000; stroke-linecap:round; stroke-linejoin:round; stroke-width:2; stroke-opacity:0.1; fill:none" points="1424.17,1016.92 1424.17,47.2441 "/>
<polyline clip-path="url(#clip501)" style="stroke:#000000; stroke-linecap:round; stroke-linejoin:round; stroke-width:2; stroke-opacity:0.1; fill:none" points="297.135,1016.92 1489.76,1016.92 "/>
<polyline clip-path="url(#clip501)" style="stroke:#000000; stroke-linecap:round; stroke-linejoin:round; stroke-width:2; stroke-opacity:0.1; fill:none" points="297.135,813.257 1489.76,813.257 "/>
<polyline clip-path="url(#clip501)" style="stroke:#000000; stroke-linecap:round; stroke-linejoin:round; stroke-width:2; stroke-opacity:0.1; fill:none" points="297.135,609.595 1489.76,609.595 "/>
<polyline clip-path="url(#clip501)" style="stroke:#000000; stroke-linecap:round; stroke-linejoin:round; stroke-width:2; stroke-opacity:0.1; fill:none" points="297.135,405.932 1489.76,405.932 "/>
<polyline clip-path="url(#clip501)" style="stroke:#000000; stroke-linecap:round; stroke-linejoin:round; stroke-width:2; stroke-opacity:0.1; fill:none" points="297.135,202.269 1489.76,202.269 "/>
<polyline clip-path="url(#clip501)" style="stroke:#000000; stroke-linecap:round; stroke-linejoin:round; stroke-width:2; stroke-opacity:0.1; fill:none" points="297.135,1016.92 1489.76,1016.92 "/>
<polyline clip-path="url(#clip501)" style="stroke:#000000; stroke-linecap:round; stroke-linejoin:round; stroke-width:2; stroke-opacity:0.1; fill:none" points="297.135,813.257 1489.76,813.257 "/>
<polyline clip-path="url(#clip501)" style="stroke:#000000; stroke-linecap:round; stroke-linejoin:round; stroke-width:2; stroke-opacity:0.1; fill:none" points="297.135,609.595 1489.76,609.595 "/>
<polyline clip-path="url(#clip501)" style="stroke:#000000; stroke-linecap:round; stroke-linejoin:round; stroke-width:2; stroke-opacity:0.1; fill:none" points="297.135,405.932 1489.76,405.932 "/>
<polyline clip-path="url(#clip501)" style="stroke:#000000; stroke-linecap:round; stroke-linejoin:round; stroke-width:2; stroke-opacity:0.1; fill:none" points="297.135,202.269 1489.76,202.269 "/>
<polyline clip-path="url(#clip500)" style="stroke:#000000; stroke-linecap:round; stroke-linejoin:round; stroke-width:4; stroke-opacity:1; fill:none" points="297.135,1016.92 1489.76,1016.92 "/>
<polyline clip-path="url(#clip500)" style="stroke:#000000; stroke-linecap:round; stroke-linejoin:round; stroke-width:4; stroke-opacity:1; fill:none" points="297.135,47.2441 1489.76,47.2441 "/>
<polyline clip-path="url(#clip500)" style="stroke:#000000; stroke-linecap:round; stroke-linejoin:round; stroke-width:4; stroke-opacity:1; fill:none" points="362.732,1016.92 362.732,998.022 "/>
<polyline clip-path="url(#clip500)" style="stroke:#000000; stroke-linecap:round; stroke-linejoin:round; stroke-width:4; stroke-opacity:1; fill:none" points="575.019,1016.92 575.019,998.022 "/>
<polyline clip-path="url(#clip500)" style="stroke:#000000; stroke-linecap:round; stroke-linejoin:round; stroke-width:4; stroke-opacity:1; fill:none" points="787.306,1016.92 787.306,998.022 "/>
<polyline clip-path="url(#clip500)" style="stroke:#000000; stroke-linecap:round; stroke-linejoin:round; stroke-width:4; stroke-opacity:1; fill:none" points="999.593,1016.92 999.593,998.022 "/>
<polyline clip-path="url(#clip500)" style="stroke:#000000; stroke-linecap:round; stroke-linejoin:round; stroke-width:4; stroke-opacity:1; fill:none" points="1211.88,1016.92 1211.88,998.022 "/>
<polyline clip-path="url(#clip500)" style="stroke:#000000; stroke-linecap:round; stroke-linejoin:round; stroke-width:4; stroke-opacity:1; fill:none" points="1424.17,1016.92 1424.17,998.022 "/>
<polyline clip-path="url(#clip500)" style="stroke:#000000; stroke-linecap:round; stroke-linejoin:round; stroke-width:4; stroke-opacity:1; fill:none" points="362.732,47.2441 362.732,66.1417 "/>
<polyline clip-path="url(#clip500)" style="stroke:#000000; stroke-linecap:round; stroke-linejoin:round; stroke-width:4; stroke-opacity:1; fill:none" points="575.019,47.2441 575.019,66.1417 "/>
<polyline clip-path="url(#clip500)" style="stroke:#000000; stroke-linecap:round; stroke-linejoin:round; stroke-width:4; stroke-opacity:1; fill:none" points="787.306,47.2441 787.306,66.1417 "/>
<polyline clip-path="url(#clip500)" style="stroke:#000000; stroke-linecap:round; stroke-linejoin:round; stroke-width:4; stroke-opacity:1; fill:none" points="999.593,47.2441 999.593,66.1417 "/>
<polyline clip-path="url(#clip500)" style="stroke:#000000; stroke-linecap:round; stroke-linejoin:round; stroke-width:4; stroke-opacity:1; fill:none" points="1211.88,47.2441 1211.88,66.1417 "/>
<polyline clip-path="url(#clip500)" style="stroke:#000000; stroke-linecap:round; stroke-linejoin:round; stroke-width:4; stroke-opacity:1; fill:none" points="1424.17,47.2441 1424.17,66.1417 "/>
<path clip-path="url(#clip500)" d="M346.564 1059.56 Q346.86 1059.85 346.86 1060.27 Q346.86 1060.69 346.564 1060.99 Q346.267 1061.28 345.847 1061.28 L314.178 1061.28 Q313.758 1061.28 313.461 1060.99 Q313.165 1060.69 313.165 1060.27 Q313.165 1059.85 313.461 1059.56 Q313.758 1059.26 314.178 1059.26 L345.847 1059.26 Q346.267 1059.26 346.564 1059.56 Z" fill="#000000" fill-rule="nonzero" fill-opacity="1" /><path clip-path="url(#clip500)" d="M354.172 1044.04 L354.172 1042.46 Q360.249 1042.46 363.387 1039.22 Q364.251 1039.22 364.399 1039.42 Q364.548 1039.62 364.548 1040.53 L364.548 1068.92 Q364.548 1070.42 365.289 1070.89 Q366.03 1071.36 369.266 1071.36 L370.872 1071.36 L370.872 1072.92 Q369.093 1072.77 362.67 1072.77 Q356.247 1072.77 354.493 1072.92 L354.493 1071.36 L356.099 1071.36 Q359.286 1071.36 360.052 1070.92 Q360.817 1070.45 360.817 1068.92 L360.817 1042.71 Q358.174 1044.04 354.172 1044.04 Z" fill="#000000" fill-rule="nonzero" fill-opacity="1" /><path clip-path="url(#clip500)" d="M380.037 1072.1 Q379.271 1071.29 379.271 1070.23 Q379.271 1069.16 380.037 1068.4 Q380.802 1067.61 381.964 1067.61 Q383.075 1067.61 383.816 1068.35 Q384.582 1069.07 384.582 1070.25 Q384.582 1071.41 383.767 1072.18 Q382.976 1072.92 381.964 1072.92 Q380.802 1072.92 380.037 1072.1 Z" fill="#000000" fill-rule="nonzero" fill-opacity="1" /><path clip-path="url(#clip500)" d="M391.005 1056.74 Q391.005 1049.3 392.882 1045.25 Q395.501 1039.22 401.677 1039.22 Q402.986 1039.22 404.345 1039.6 Q405.728 1039.94 407.457 1041.3 Q409.211 1042.66 410.274 1044.88 Q412.299 1049.18 412.299 1056.74 Q412.299 1064.13 410.422 1068.15 Q407.68 1074.03 401.627 1074.03 Q399.355 1074.03 397.033 1072.87 Q394.735 1071.71 393.278 1068.92 Q391.005 1064.74 391.005 1056.74 M395.205 1056.12 Q395.205 1063.75 395.748 1066.79 Q396.366 1070.08 398.045 1071.51 Q399.75 1072.92 401.627 1072.92 Q403.653 1072.92 405.333 1071.41 Q407.037 1069.88 407.556 1066.6 Q408.124 1063.36 408.1 1056.12 Q408.1 1049.08 407.606 1046.26 Q406.939 1042.98 405.16 1041.67 Q403.406 1040.34 401.627 1040.34 Q400.96 1040.34 400.244 1040.53 Q399.552 1040.73 398.539 1041.3 Q397.527 1041.87 396.736 1043.28 Q395.97 1044.68 395.6 1046.81 Q395.205 1049.55 395.205 1056.12 Z" fill="#000000" fill-rule="nonzero" fill-opacity="1" /><path clip-path="url(#clip500)" d="M559.122 1059.56 Q559.419 1059.85 559.419 1060.27 Q559.419 1060.69 559.122 1060.99 Q558.826 1061.28 558.406 1061.28 L526.736 1061.28 Q526.316 1061.28 526.02 1060.99 Q525.723 1060.69 525.723 1060.27 Q525.723 1059.85 526.02 1059.56 Q526.316 1059.26 526.736 1059.26 L558.406 1059.26 Q558.826 1059.26 559.122 1059.56 Z" fill="#000000" fill-rule="nonzero" fill-opacity="1" /><path clip-path="url(#clip500)" d="M564.211 1056.74 Q564.211 1049.3 566.089 1045.25 Q568.707 1039.22 574.883 1039.22 Q576.192 1039.22 577.551 1039.6 Q578.934 1039.94 580.664 1041.3 Q582.418 1042.66 583.48 1044.88 Q585.506 1049.18 585.506 1056.74 Q585.506 1064.13 583.628 1068.15 Q580.886 1074.03 574.834 1074.03 Q572.561 1074.03 570.239 1072.87 Q567.941 1071.71 566.484 1068.92 Q564.211 1064.74 564.211 1056.74 M568.411 1056.12 Q568.411 1063.75 568.954 1066.79 Q569.572 1070.08 571.252 1071.51 Q572.956 1072.92 574.834 1072.92 Q576.859 1072.92 578.539 1071.41 Q580.244 1069.88 580.763 1066.6 Q581.331 1063.36 581.306 1056.12 Q581.306 1049.08 580.812 1046.26 Q580.145 1042.98 578.366 1041.67 Q576.612 1040.34 574.834 1040.34 Q574.167 1040.34 573.45 1040.53 Q572.759 1040.73 571.746 1041.3 Q570.733 1041.87 569.942 1043.28 Q569.177 1044.68 568.806 1046.81 Q568.411 1049.55 568.411 1056.12 Z" fill="#000000" fill-rule="nonzero" fill-opacity="1" /><path clip-path="url(#clip500)" d="M592.595 1072.1 Q591.83 1071.29 591.83 1070.23 Q591.83 1069.16 592.595 1068.4 Q593.361 1067.61 594.522 1067.61 Q595.634 1067.61 596.375 1068.35 Q597.141 1069.07 597.141 1070.25 Q597.141 1071.41 596.326 1072.18 Q595.535 1072.92 594.522 1072.92 Q593.361 1072.92 592.595 1072.1 Z" fill="#000000" fill-rule="nonzero" fill-opacity="1" /><path clip-path="url(#clip500)" d="M604.107 1064.77 Q604.107 1063.26 604.922 1062.69 Q605.738 1062.1 606.602 1062.1 Q607.763 1062.1 608.43 1062.84 Q609.122 1063.56 609.122 1064.57 Q609.122 1065.58 608.43 1066.32 Q607.763 1067.04 606.602 1067.04 Q606.034 1067.04 605.738 1066.94 Q606.405 1069.26 608.43 1070.94 Q610.481 1072.62 613.173 1072.62 Q616.558 1072.62 618.583 1069.34 Q619.794 1067.21 619.794 1062.4 Q619.794 1058.15 618.88 1056.02 Q617.472 1052.79 614.581 1052.79 Q610.481 1052.79 608.06 1056.32 Q607.763 1056.76 607.417 1056.79 Q606.923 1056.79 606.8 1056.52 Q606.701 1056.22 606.701 1055.45 L606.701 1040.48 Q606.701 1039.27 607.195 1039.27 Q607.393 1039.27 607.813 1039.42 Q610.999 1040.83 614.532 1040.85 Q618.163 1040.85 621.424 1039.37 Q621.671 1039.22 621.82 1039.22 Q622.314 1039.22 622.338 1039.79 Q622.338 1039.99 621.918 1040.58 Q621.523 1041.15 620.658 1041.92 Q619.794 1042.66 618.682 1043.37 Q617.571 1044.09 615.94 1044.59 Q614.334 1045.05 612.556 1045.05 Q610.431 1045.05 608.257 1044.39 L608.257 1054.24 Q610.876 1051.67 614.68 1051.67 Q618.732 1051.67 621.523 1054.94 Q624.315 1058.2 624.315 1062.74 Q624.315 1067.51 621.004 1070.77 Q617.719 1074.03 613.272 1074.03 Q609.221 1074.03 606.652 1071.14 Q604.107 1068.25 604.107 1064.77 Z" fill="#000000" fill-rule="nonzero" fill-opacity="1" /><path clip-path="url(#clip500)" d="M756.983 1056.74 Q756.983 1049.3 758.86 1045.25 Q761.479 1039.22 767.654 1039.22 Q768.964 1039.22 770.322 1039.6 Q771.706 1039.94 773.435 1041.3 Q775.189 1042.66 776.251 1044.88 Q778.277 1049.18 778.277 1056.74 Q778.277 1064.13 776.399 1068.15 Q773.657 1074.03 767.605 1074.03 Q765.332 1074.03 763.01 1072.87 Q760.713 1071.71 759.255 1068.92 Q756.983 1064.74 756.983 1056.74 M761.182 1056.12 Q761.182 1063.75 761.726 1066.79 Q762.343 1070.08 764.023 1071.51 Q765.728 1072.92 767.605 1072.92 Q769.631 1072.92 771.311 1071.41 Q773.015 1069.88 773.534 1066.6 Q774.102 1063.36 774.077 1056.12 Q774.077 1049.08 773.583 1046.26 Q772.916 1042.98 771.138 1041.67 Q769.384 1040.34 767.605 1040.34 Q766.938 1040.34 766.222 1040.53 Q765.53 1040.73 764.517 1041.3 Q763.504 1041.87 762.714 1043.28 Q761.948 1044.68 761.577 1046.81 Q761.182 1049.55 761.182 1056.12 Z" fill="#000000" fill-rule="nonzero" fill-opacity="1" /><path clip-path="url(#clip500)" d="M785.367 1072.1 Q784.601 1071.29 784.601 1070.23 Q784.601 1069.16 785.367 1068.4 Q786.133 1067.61 787.294 1067.61 Q788.405 1067.61 789.146 1068.35 Q789.912 1069.07 789.912 1070.25 Q789.912 1071.41 789.097 1072.18 Q788.306 1072.92 787.294 1072.92 Q786.133 1072.92 785.367 1072.1 Z" fill="#000000" fill-rule="nonzero" fill-opacity="1" /><path clip-path="url(#clip500)" d="M796.335 1056.74 Q796.335 1049.3 798.213 1045.25 Q800.831 1039.22 807.007 1039.22 Q808.316 1039.22 809.675 1039.6 Q811.058 1039.94 812.788 1041.3 Q814.541 1042.66 815.604 1044.88 Q817.629 1049.18 817.629 1056.74 Q817.629 1064.13 815.752 1068.15 Q813.01 1074.03 806.958 1074.03 Q804.685 1074.03 802.363 1072.87 Q800.065 1071.71 798.608 1068.92 Q796.335 1064.74 796.335 1056.74 M800.535 1056.12 Q800.535 1063.75 801.078 1066.79 Q801.696 1070.08 803.376 1071.51 Q805.08 1072.92 806.958 1072.92 Q808.983 1072.92 810.663 1071.41 Q812.368 1069.88 812.886 1066.6 Q813.455 1063.36 813.43 1056.12 Q813.43 1049.08 812.936 1046.26 Q812.269 1042.98 810.49 1041.67 Q808.736 1040.34 806.958 1040.34 Q806.291 1040.34 805.574 1040.53 Q804.882 1040.73 803.87 1041.3 Q802.857 1041.87 802.066 1043.28 Q801.3 1044.68 800.93 1046.81 Q800.535 1049.55 800.535 1056.12 Z" fill="#000000" fill-rule="nonzero" fill-opacity="1" /><path clip-path="url(#clip500)" d="M969.541 1056.74 Q969.541 1049.3 971.419 1045.25 Q974.037 1039.22 980.213 1039.22 Q981.523 1039.22 982.881 1039.6 Q984.265 1039.94 985.994 1041.3 Q987.748 1042.66 988.81 1044.88 Q990.836 1049.18 990.836 1056.74 Q990.836 1064.13 988.958 1068.15 Q986.216 1074.03 980.164 1074.03 Q977.891 1074.03 975.569 1072.87 Q973.272 1071.71 971.814 1068.92 Q969.541 1064.74 969.541 1056.74 M973.741 1056.12 Q973.741 1063.75 974.284 1066.79 Q974.902 1070.08 976.582 1071.51 Q978.286 1072.92 980.164 1072.92 Q982.19 1072.92 983.869 1071.41 Q985.574 1069.88 986.093 1066.6 Q986.661 1063.36 986.636 1056.12 Q986.636 1049.08 986.142 1046.26 Q985.475 1042.98 983.696 1041.67 Q981.942 1040.34 980.164 1040.34 Q979.497 1040.34 978.78 1040.53 Q978.089 1040.73 977.076 1041.3 Q976.063 1041.87 975.273 1043.28 Q974.507 1044.68 974.136 1046.81 Q973.741 1049.55 973.741 1056.12 Z" fill="#000000" fill-rule="nonzero" fill-opacity="1" /><path clip-path="url(#clip500)" d="M997.926 1072.1 Q997.16 1071.29 997.16 1070.23 Q997.16 1069.16 997.926 1068.4 Q998.691 1067.61 999.852 1067.61 Q1000.96 1067.61 1001.71 1068.35 Q1002.47 1069.07 1002.47 1070.25 Q1002.47 1071.41 1001.66 1072.18 Q1000.87 1072.92 999.852 1072.92 Q998.691 1072.92 997.926 1072.1 Z" fill="#000000" fill-rule="nonzero" fill-opacity="1" /><path clip-path="url(#clip500)" d="M1009.44 1064.77 Q1009.44 1063.26 1010.25 1062.69 Q1011.07 1062.1 1011.93 1062.1 Q1013.09 1062.1 1013.76 1062.84 Q1014.45 1063.56 1014.45 1064.57 Q1014.45 1065.58 1013.76 1066.32 Q1013.09 1067.04 1011.93 1067.04 Q1011.36 1067.04 1011.07 1066.94 Q1011.73 1069.26 1013.76 1070.94 Q1015.81 1072.62 1018.5 1072.62 Q1021.89 1072.62 1023.91 1069.34 Q1025.12 1067.21 1025.12 1062.4 Q1025.12 1058.15 1024.21 1056.02 Q1022.8 1052.79 1019.91 1052.79 Q1015.81 1052.79 1013.39 1056.32 Q1013.09 1056.76 1012.75 1056.79 Q1012.25 1056.79 1012.13 1056.52 Q1012.03 1056.22 1012.03 1055.45 L1012.03 1040.48 Q1012.03 1039.27 1012.53 1039.27 Q1012.72 1039.27 1013.14 1039.42 Q1016.33 1040.83 1019.86 1040.85 Q1023.49 1040.85 1026.75 1039.37 Q1027 1039.22 1027.15 1039.22 Q1027.64 1039.22 1027.67 1039.79 Q1027.67 1039.99 1027.25 1040.58 Q1026.85 1041.15 1025.99 1041.92 Q1025.12 1042.66 1024.01 1043.37 Q1022.9 1044.09 1021.27 1044.59 Q1019.66 1045.05 1017.89 1045.05 Q1015.76 1045.05 1013.59 1044.39 L1013.59 1054.24 Q1016.21 1051.67 1020.01 1051.67 Q1024.06 1051.67 1026.85 1054.94 Q1029.64 1058.2 1029.64 1062.74 Q1029.64 1067.51 1026.33 1070.77 Q1023.05 1074.03 1018.6 1074.03 Q1014.55 1074.03 1011.98 1071.14 Q1009.44 1068.25 1009.44 1064.77 Z" fill="#000000" fill-rule="nonzero" fill-opacity="1" /><path clip-path="url(#clip500)" d="M1182.82 1044.04 L1182.82 1042.46 Q1188.89 1042.46 1192.03 1039.22 Q1192.9 1039.22 1193.04 1039.42 Q1193.19 1039.62 1193.19 1040.53 L1193.19 1068.92 Q1193.19 1070.42 1193.93 1070.89 Q1194.67 1071.36 1197.91 1071.36 L1199.52 1071.36 L1199.52 1072.92 Q1197.74 1072.77 1191.31 1072.77 Q1184.89 1072.77 1183.14 1072.92 L1183.14 1071.36 L1184.74 1071.36 Q1187.93 1071.36 1188.7 1070.92 Q1189.46 1070.45 1189.46 1068.92 L1189.46 1042.71 Q1186.82 1044.04 1182.82 1044.04 Z" fill="#000000" fill-rule="nonzero" fill-opacity="1" /><path clip-path="url(#clip500)" d="M1208.68 1072.1 Q1207.92 1071.29 1207.92 1070.23 Q1207.92 1069.16 1208.68 1068.4 Q1209.45 1067.61 1210.61 1067.61 Q1211.72 1067.61 1212.46 1068.35 Q1213.23 1069.07 1213.23 1070.25 Q1213.23 1071.41 1212.41 1072.18 Q1211.62 1072.92 1210.61 1072.92 Q1209.45 1072.92 1208.68 1072.1 Z" fill="#000000" fill-rule="nonzero" fill-opacity="1" /><path clip-path="url(#clip500)" d="M1219.65 1056.74 Q1219.65 1049.3 1221.53 1045.25 Q1224.15 1039.22 1230.32 1039.22 Q1231.63 1039.22 1232.99 1039.6 Q1234.37 1039.94 1236.1 1041.3 Q1237.86 1042.66 1238.92 1044.88 Q1240.94 1049.18 1240.94 1056.74 Q1240.94 1064.13 1239.07 1068.15 Q1236.32 1074.03 1230.27 1074.03 Q1228 1074.03 1225.68 1072.87 Q1223.38 1071.71 1221.92 1068.92 Q1219.65 1064.74 1219.65 1056.74 M1223.85 1056.12 Q1223.85 1063.75 1224.39 1066.79 Q1225.01 1070.08 1226.69 1071.51 Q1228.39 1072.92 1230.27 1072.92 Q1232.3 1072.92 1233.98 1071.41 Q1235.68 1069.88 1236.2 1066.6 Q1236.77 1063.36 1236.74 1056.12 Q1236.74 1049.08 1236.25 1046.26 Q1235.58 1042.98 1233.8 1041.67 Q1232.05 1040.34 1230.27 1040.34 Q1229.6 1040.34 1228.89 1040.53 Q1228.2 1040.73 1227.18 1041.3 Q1226.17 1041.87 1225.38 1043.28 Q1224.61 1044.68 1224.24 1046.81 Q1223.85 1049.55 1223.85 1056.12 Z" fill="#000000" fill-rule="nonzero" fill-opacity="1" /><path clip-path="url(#clip500)" d="M1395.38 1044.04 L1395.38 1042.46 Q1401.45 1042.46 1404.59 1039.22 Q1405.45 1039.22 1405.6 1039.42 Q1405.75 1039.62 1405.75 1040.53 L1405.75 1068.92 Q1405.75 1070.42 1406.49 1070.89 Q1407.23 1071.36 1410.47 1071.36 L1412.07 1071.36 L1412.07 1072.92 Q1410.3 1072.77 1403.87 1072.77 Q1397.45 1072.77 1395.7 1072.92 L1395.7 1071.36 L1397.3 1071.36 Q1400.49 1071.36 1401.25 1070.92 Q1402.02 1070.45 1402.02 1068.92 L1402.02 1042.71 Q1399.38 1044.04 1395.38 1044.04 Z" fill="#000000" fill-rule="nonzero" fill-opacity="1" /><path clip-path="url(#clip500)" d="M1421.24 1072.1 Q1420.47 1071.29 1420.47 1070.23 Q1420.47 1069.16 1421.24 1068.4 Q1422.01 1067.61 1423.17 1067.61 Q1424.28 1067.61 1425.02 1068.35 Q1425.79 1069.07 1425.79 1070.25 Q1425.79 1071.41 1424.97 1072.18 Q1424.18 1072.92 1423.17 1072.92 Q1422.01 1072.92 1421.24 1072.1 Z" fill="#000000" fill-rule="nonzero" fill-opacity="1" /><path clip-path="url(#clip500)" d="M1432.75 1064.77 Q1432.75 1063.26 1433.57 1062.69 Q1434.38 1062.1 1435.25 1062.1 Q1436.41 1062.1 1437.07 1062.84 Q1437.77 1063.56 1437.77 1064.57 Q1437.77 1065.58 1437.07 1066.32 Q1436.41 1067.04 1435.25 1067.04 Q1434.68 1067.04 1434.38 1066.94 Q1435.05 1069.26 1437.07 1070.94 Q1439.12 1072.62 1441.82 1072.62 Q1445.2 1072.62 1447.23 1069.34 Q1448.44 1067.21 1448.44 1062.4 Q1448.44 1058.15 1447.52 1056.02 Q1446.12 1052.79 1443.23 1052.79 Q1439.12 1052.79 1436.7 1056.32 Q1436.41 1056.76 1436.06 1056.79 Q1435.57 1056.79 1435.44 1056.52 Q1435.35 1056.22 1435.35 1055.45 L1435.35 1040.48 Q1435.35 1039.27 1435.84 1039.27 Q1436.04 1039.27 1436.46 1039.42 Q1439.64 1040.83 1443.18 1040.85 Q1446.81 1040.85 1450.07 1039.37 Q1450.32 1039.22 1450.46 1039.22 Q1450.96 1039.22 1450.98 1039.79 Q1450.98 1039.99 1450.56 1040.58 Q1450.17 1041.15 1449.3 1041.92 Q1448.44 1042.66 1447.33 1043.37 Q1446.21 1044.09 1444.58 1044.59 Q1442.98 1045.05 1441.2 1045.05 Q1439.08 1045.05 1436.9 1044.39 L1436.9 1054.24 Q1439.52 1051.67 1443.32 1051.67 Q1447.38 1051.67 1450.17 1054.94 Q1452.96 1058.2 1452.96 1062.74 Q1452.96 1067.51 1449.65 1070.77 Q1446.36 1074.03 1441.92 1074.03 Q1437.87 1074.03 1435.3 1071.14 Q1432.75 1068.25 1432.75 1064.77 Z" fill="#000000" fill-rule="nonzero" fill-opacity="1" /><path clip-path="url(#clip500)" d="M816.004 1121.96 L816.004 1119.79 Q819.129 1119.99 822.764 1119.99 Q824.089 1119.99 830.339 1119.79 L830.339 1121.96 Q826.364 1121.96 826.364 1123.77 Q826.364 1124.04 826.772 1124.95 L834.585 1144.35 L841.684 1126.62 Q842.091 1125.43 842.091 1124.95 Q842.091 1123.77 841.276 1122.92 Q840.495 1122.03 838.762 1121.96 L838.762 1119.79 Q842.295 1119.99 844.809 1119.99 Q847.662 1119.99 850.006 1119.79 L850.006 1121.96 Q847.934 1121.96 846.473 1122.92 Q845.012 1123.83 844.537 1124.65 Q844.095 1125.43 843.62 1126.62 L834.517 1149.24 Q833.973 1150.57 833.056 1150.57 Q832.445 1150.57 832.173 1150.29 Q831.935 1150.06 831.595 1149.24 L821.575 1124.55 Q820.896 1122.81 820.013 1122.41 Q819.129 1121.96 816.004 1121.96 Z" fill="#000000" fill-rule="nonzero" fill-opacity="1" /><path clip-path="url(#clip500)" d="M852.315 1143.16 Q852.315 1137.25 859.279 1134.13 Q863.457 1132.12 872.084 1131.61 L872.084 1129.06 Q872.084 1124.75 869.808 1122.47 Q867.567 1120.16 864.713 1120.16 Q859.618 1120.16 857.173 1123.36 Q859.245 1123.43 859.992 1124.48 Q860.739 1125.5 860.739 1126.55 Q860.739 1127.94 859.856 1128.86 Q859.007 1129.74 857.546 1129.74 Q856.154 1129.74 855.237 1128.89 Q854.319 1128.01 854.319 1126.48 Q854.319 1123.09 857.376 1120.84 Q860.467 1118.6 864.849 1118.6 Q870.556 1118.6 874.36 1122.44 Q875.549 1123.63 876.126 1125.16 Q876.738 1126.69 876.806 1127.71 Q876.874 1128.69 876.874 1130.66 L876.874 1144.55 Q876.874 1144.96 877.009 1145.64 Q877.145 1146.32 877.757 1147.2 Q878.402 1148.05 879.455 1148.05 Q881.969 1148.05 881.935 1143.6 L881.935 1139.7 L883.701 1139.7 L883.701 1143.6 Q883.701 1147.3 881.731 1148.76 Q879.795 1150.19 877.994 1150.19 Q875.685 1150.19 874.224 1148.49 Q872.764 1146.79 872.56 1144.48 Q871.507 1147.13 869.095 1148.87 Q866.717 1150.57 863.457 1150.57 Q860.943 1150.57 858.565 1149.92 Q856.222 1149.31 854.251 1147.58 Q852.315 1145.81 852.315 1143.16 M857.682 1143.09 Q857.682 1145.67 859.516 1147.34 Q861.351 1149 863.932 1149 Q866.853 1149 869.469 1146.76 Q872.084 1144.48 872.084 1140.04 L872.084 1133.07 Q864.374 1133.34 861.011 1136.43 Q857.682 1139.49 857.682 1143.09 Z" fill="#000000" fill-rule="nonzero" fill-opacity="1" /><path clip-path="url(#clip500)" d="M886.486 1149.78 L886.486 1147.64 Q890.189 1147.64 891.038 1147.2 Q891.887 1146.73 891.887 1144.48 L891.887 1108.31 Q891.887 1105.73 890.97 1105.08 Q890.087 1104.44 886.486 1104.44 L886.486 1102.26 L896.473 1101.52 L896.473 1144.48 Q896.473 1146.73 897.356 1147.2 Q898.239 1147.64 901.907 1147.64 L901.907 1149.78 Q901.058 1149.78 899.292 1149.72 Q897.526 1149.65 896.235 1149.61 Q894.944 1149.58 894.197 1149.58 Q893.382 1149.58 886.486 1149.78 Z" fill="#000000" fill-rule="nonzero" fill-opacity="1" /><path clip-path="url(#clip500)" d="M905.678 1121.96 L905.678 1119.79 L915.902 1119.04 L915.902 1142.14 Q915.902 1143.81 916.038 1144.79 Q916.174 1145.74 916.717 1146.86 Q917.294 1147.98 918.585 1148.49 Q919.91 1149 922.016 1149 Q925.786 1149 928.096 1145.91 Q930.44 1142.82 930.44 1138.24 L930.44 1125.84 Q930.44 1123.26 929.523 1122.61 Q928.605 1121.96 925.005 1121.96 L925.005 1119.79 L935.229 1119.04 L935.229 1143.74 Q935.229 1146.32 936.112 1147 Q937.029 1147.64 940.664 1147.64 L940.664 1149.78 L930.644 1150.57 L930.644 1144.28 Q927.722 1150.53 921.676 1150.57 Q918.619 1150.57 916.513 1149.78 Q914.441 1149 913.388 1148.05 Q912.335 1147.07 911.758 1145.2 Q911.214 1143.33 911.146 1142.18 Q911.078 1141.02 911.078 1138.78 L911.078 1128.35 Q911.078 1123.63 910.399 1122.81 Q909.72 1121.96 905.678 1121.96 Z" fill="#000000" fill-rule="nonzero" fill-opacity="1" /><path clip-path="url(#clip500)" d="M943.959 1134.46 Q943.959 1127.91 948.171 1123.26 Q952.382 1118.6 958.429 1118.6 Q964.543 1118.6 967.702 1122.58 Q970.895 1126.55 970.895 1132.26 Q970.895 1133.31 970.623 1133.51 Q970.351 1133.72 969.162 1133.72 L949.733 1133.72 Q949.733 1140.82 951.839 1144.15 Q954.76 1148.8 959.685 1148.8 Q960.365 1148.8 961.18 1148.66 Q961.995 1148.53 963.66 1147.95 Q965.324 1147.34 966.785 1145.74 Q968.245 1144.15 969.094 1141.63 Q969.298 1140.65 969.977 1140.68 Q970.895 1140.68 970.895 1141.5 Q970.895 1142.11 970.215 1143.5 Q969.57 1144.86 968.313 1146.49 Q967.056 1148.12 964.611 1149.34 Q962.199 1150.57 959.278 1150.57 Q953.164 1150.57 948.544 1145.95 Q943.959 1141.29 943.959 1134.46 M949.801 1132.26 L966.309 1132.26 Q966.309 1130.8 966.037 1129.17 Q965.799 1127.54 965.052 1125.29 Q964.339 1123.02 962.641 1121.59 Q960.942 1120.16 958.429 1120.16 Q957.308 1120.16 956.085 1120.64 Q954.896 1121.12 953.435 1122.27 Q951.975 1123.43 950.956 1126.04 Q949.937 1128.66 949.801 1132.26 Z" fill="#000000" fill-rule="nonzero" fill-opacity="1" /><polyline clip-path="url(#clip500)" style="stroke:#000000; stroke-linecap:round; stroke-linejoin:round; stroke-width:4; stroke-opacity:1; fill:none" points="297.135,1016.92 297.135,47.2441 "/>
<polyline clip-path="url(#clip500)" style="stroke:#000000; stroke-linecap:round; stroke-linejoin:round; stroke-width:4; stroke-opacity:1; fill:none" points="1489.76,1016.92 1489.76,47.2441 "/>
<polyline clip-path="url(#clip500)" style="stroke:#000000; stroke-linecap:round; stroke-linejoin:round; stroke-width:4; stroke-opacity:1; fill:none" points="297.135,1016.92 316.033,1016.92 "/>
<polyline clip-path="url(#clip500)" style="stroke:#000000; stroke-linecap:round; stroke-linejoin:round; stroke-width:4; stroke-opacity:1; fill:none" points="297.135,813.257 316.033,813.257 "/>
<polyline clip-path="url(#clip500)" style="stroke:#000000; stroke-linecap:round; stroke-linejoin:round; stroke-width:4; stroke-opacity:1; fill:none" points="297.135,609.595 316.033,609.595 "/>
<polyline clip-path="url(#clip500)" style="stroke:#000000; stroke-linecap:round; stroke-linejoin:round; stroke-width:4; stroke-opacity:1; fill:none" points="297.135,405.932 316.033,405.932 "/>
<polyline clip-path="url(#clip500)" style="stroke:#000000; stroke-linecap:round; stroke-linejoin:round; stroke-width:4; stroke-opacity:1; fill:none" points="297.135,202.269 316.033,202.269 "/>
<polyline clip-path="url(#clip500)" style="stroke:#000000; stroke-linecap:round; stroke-linejoin:round; stroke-width:4; stroke-opacity:1; fill:none" points="1489.76,1016.92 1470.87,1016.92 "/>
<polyline clip-path="url(#clip500)" style="stroke:#000000; stroke-linecap:round; stroke-linejoin:round; stroke-width:4; stroke-opacity:1; fill:none" points="1489.76,813.257 1470.87,813.257 "/>
<polyline clip-path="url(#clip500)" style="stroke:#000000; stroke-linecap:round; stroke-linejoin:round; stroke-width:4; stroke-opacity:1; fill:none" points="1489.76,609.595 1470.87,609.595 "/>
<polyline clip-path="url(#clip500)" style="stroke:#000000; stroke-linecap:round; stroke-linejoin:round; stroke-width:4; stroke-opacity:1; fill:none" points="1489.76,405.932 1470.87,405.932 "/>
<polyline clip-path="url(#clip500)" style="stroke:#000000; stroke-linecap:round; stroke-linejoin:round; stroke-width:4; stroke-opacity:1; fill:none" points="1489.76,202.269 1470.87,202.269 "/>
<path clip-path="url(#clip500)" d="M187.192 1018.02 Q187.192 1010.58 189.07 1006.53 Q191.688 1000.5 197.864 1000.5 Q199.173 1000.5 200.532 1000.88 Q201.915 1001.22 203.645 1002.58 Q205.399 1003.94 206.461 1006.16 Q208.487 1010.46 208.487 1018.02 Q208.487 1025.41 206.609 1029.43 Q203.867 1035.31 197.815 1035.31 Q195.542 1035.31 193.22 1034.15 Q190.922 1032.99 189.465 1030.2 Q187.192 1026.02 187.192 1018.02 M191.392 1017.4 Q191.392 1025.03 191.935 1028.07 Q192.553 1031.36 194.233 1032.79 Q195.937 1034.2 197.815 1034.2 Q199.84 1034.2 201.52 1032.69 Q203.225 1031.16 203.744 1027.88 Q204.312 1024.64 204.287 1017.4 Q204.287 1010.36 203.793 1007.54 Q203.126 1004.26 201.347 1002.95 Q199.593 1001.62 197.815 1001.62 Q197.148 1001.62 196.431 1001.81 Q195.74 1002.01 194.727 1002.58 Q193.714 1003.15 192.923 1004.56 Q192.158 1005.96 191.787 1008.09 Q191.392 1010.83 191.392 1017.4 Z" fill="#000000" fill-rule="nonzero" fill-opacity="1" /><path clip-path="url(#clip500)" d="M215.576 1033.38 Q214.811 1032.57 214.811 1031.51 Q214.811 1030.44 215.576 1029.68 Q216.342 1028.89 217.503 1028.89 Q218.615 1028.89 219.356 1029.63 Q220.122 1030.35 220.122 1031.53 Q220.122 1032.69 219.307 1033.46 Q218.516 1034.2 217.503 1034.2 Q216.342 1034.2 215.576 1033.38 Z" fill="#000000" fill-rule="nonzero" fill-opacity="1" /><path clip-path="url(#clip500)" d="M226.545 1018.02 Q226.545 1010.58 228.422 1006.53 Q231.041 1000.5 237.217 1000.5 Q238.526 1000.5 239.885 1000.88 Q241.268 1001.22 242.997 1002.58 Q244.751 1003.94 245.813 1006.16 Q247.839 1010.46 247.839 1018.02 Q247.839 1025.41 245.962 1029.43 Q243.22 1035.31 237.167 1035.31 Q234.894 1035.31 232.572 1034.15 Q230.275 1032.99 228.817 1030.2 Q226.545 1026.02 226.545 1018.02 M230.744 1017.4 Q230.744 1025.03 231.288 1028.07 Q231.905 1031.36 233.585 1032.79 Q235.29 1034.2 237.167 1034.2 Q239.193 1034.2 240.873 1032.69 Q242.577 1031.16 243.096 1027.88 Q243.664 1024.64 243.639 1017.4 Q243.639 1010.36 243.145 1007.54 Q242.478 1004.26 240.7 1002.95 Q238.946 1001.62 237.167 1001.62 Q236.5 1001.62 235.784 1001.81 Q235.092 1002.01 234.079 1002.58 Q233.066 1003.15 232.276 1004.56 Q231.51 1005.96 231.14 1008.09 Q230.744 1010.83 230.744 1017.4 Z" fill="#000000" fill-rule="nonzero" fill-opacity="1" /><path clip-path="url(#clip500)" d="M251.841 1018.02 Q251.841 1010.58 253.718 1006.53 Q256.337 1000.5 262.513 1000.5 Q263.822 1000.5 265.181 1000.88 Q266.564 1001.22 268.293 1002.58 Q270.047 1003.94 271.11 1006.16 Q273.135 1010.46 273.135 1018.02 Q273.135 1025.41 271.258 1029.43 Q268.516 1035.31 262.463 1035.31 Q260.191 1035.31 257.869 1034.15 Q255.571 1032.99 254.114 1030.2 Q251.841 1026.02 251.841 1018.02 M256.041 1017.4 Q256.041 1025.03 256.584 1028.07 Q257.202 1031.36 258.881 1032.79 Q260.586 1034.2 262.463 1034.2 Q264.489 1034.2 266.169 1032.69 Q267.873 1031.16 268.392 1027.88 Q268.96 1024.64 268.936 1017.4 Q268.936 1010.36 268.442 1007.54 Q267.775 1004.26 265.996 1002.95 Q264.242 1001.62 262.463 1001.62 Q261.796 1001.62 261.08 1001.81 Q260.388 1002.01 259.376 1002.58 Q258.363 1003.15 257.572 1004.56 Q256.806 1005.96 256.436 1008.09 Q256.041 1010.83 256.041 1017.4 Z" fill="#000000" fill-rule="nonzero" fill-opacity="1" /><path clip-path="url(#clip500)" d="M187.736 814.356 Q187.736 806.921 189.613 802.869 Q192.232 796.842 198.408 796.842 Q199.717 796.842 201.076 797.212 Q202.459 797.558 204.188 798.917 Q205.942 800.276 207.004 802.499 Q209.03 806.797 209.03 814.356 Q209.03 821.743 207.153 825.769 Q204.411 831.649 198.358 831.649 Q196.085 831.649 193.763 830.488 Q191.466 829.327 190.008 826.535 Q187.736 822.36 187.736 814.356 M191.935 813.739 Q191.935 821.372 192.479 824.411 Q193.096 827.696 194.776 829.129 Q196.481 830.537 198.358 830.537 Q200.384 830.537 202.064 829.03 Q203.768 827.499 204.287 824.213 Q204.855 820.977 204.83 813.739 Q204.83 806.698 204.336 803.882 Q203.669 800.597 201.891 799.287 Q200.137 797.953 198.358 797.953 Q197.691 797.953 196.975 798.151 Q196.283 798.349 195.27 798.917 Q194.257 799.485 193.467 800.893 Q192.701 802.301 192.331 804.426 Q191.935 807.168 191.935 813.739 Z" fill="#000000" fill-rule="nonzero" fill-opacity="1" /><path clip-path="url(#clip500)" d="M216.12 829.722 Q215.354 828.907 215.354 827.845 Q215.354 826.782 216.12 826.016 Q216.886 825.226 218.047 825.226 Q219.158 825.226 219.9 825.967 Q220.665 826.683 220.665 827.869 Q220.665 829.03 219.85 829.796 Q219.06 830.537 218.047 830.537 Q216.886 830.537 216.12 829.722 Z" fill="#000000" fill-rule="nonzero" fill-opacity="1" /><path clip-path="url(#clip500)" d="M227.632 830.537 Q227.632 829.623 227.706 829.351 Q227.805 829.08 228.2 828.66 L237.908 817.84 Q243.22 811.861 243.22 806.649 Q243.22 803.265 241.441 800.844 Q239.687 798.423 236.451 798.423 Q234.227 798.423 232.35 799.781 Q230.473 801.14 229.608 803.561 Q229.756 803.512 230.275 803.512 Q231.535 803.512 232.227 804.302 Q232.943 805.093 232.943 806.155 Q232.943 807.514 232.054 808.181 Q231.189 808.823 230.324 808.823 Q229.979 808.823 229.509 808.749 Q229.064 808.675 228.348 807.983 Q227.632 807.267 227.632 806.007 Q227.632 802.474 230.3 799.658 Q232.992 796.842 237.093 796.842 Q241.737 796.842 244.776 799.609 Q247.839 802.351 247.839 806.649 Q247.839 808.156 247.37 809.539 Q246.925 810.898 246.307 811.96 Q245.715 813.022 244.084 814.727 Q242.454 816.432 241.144 817.642 Q239.835 818.852 236.895 821.422 L231.535 826.634 L240.65 826.634 Q245.097 826.634 245.443 826.239 Q245.937 825.522 246.554 821.743 L247.839 821.743 L246.406 830.537 L227.632 830.537 Z" fill="#000000" fill-rule="nonzero" fill-opacity="1" /><path clip-path="url(#clip500)" d="M252.928 822.385 Q252.928 820.878 253.743 820.31 Q254.558 819.717 255.423 819.717 Q256.584 819.717 257.251 820.458 Q257.943 821.175 257.943 822.187 Q257.943 823.2 257.251 823.941 Q256.584 824.658 255.423 824.658 Q254.855 824.658 254.558 824.559 Q255.225 826.881 257.251 828.561 Q259.301 830.241 261.994 830.241 Q265.378 830.241 267.404 826.955 Q268.615 824.831 268.615 820.014 Q268.615 815.765 267.701 813.64 Q266.292 810.404 263.402 810.404 Q259.301 810.404 256.88 813.937 Q256.584 814.381 256.238 814.406 Q255.744 814.406 255.621 814.134 Q255.522 813.838 255.522 813.072 L255.522 798.102 Q255.522 796.891 256.016 796.891 Q256.213 796.891 256.633 797.039 Q259.82 798.448 263.353 798.472 Q266.984 798.472 270.245 796.99 Q270.492 796.842 270.64 796.842 Q271.134 796.842 271.159 797.41 Q271.159 797.608 270.739 798.2 Q270.344 798.769 269.479 799.534 Q268.615 800.276 267.503 800.992 Q266.391 801.708 264.761 802.202 Q263.155 802.672 261.376 802.672 Q259.252 802.672 257.078 802.005 L257.078 811.861 Q259.697 809.292 263.501 809.292 Q267.552 809.292 270.344 812.553 Q273.135 815.814 273.135 820.359 Q273.135 825.127 269.825 828.388 Q266.539 831.649 262.093 831.649 Q258.042 831.649 255.472 828.759 Q252.928 825.868 252.928 822.385 Z" fill="#000000" fill-rule="nonzero" fill-opacity="1" /><path clip-path="url(#clip500)" d="M187.192 610.694 Q187.192 603.258 189.07 599.207 Q191.688 593.179 197.864 593.179 Q199.173 593.179 200.532 593.55 Q201.915 593.896 203.645 595.254 Q205.399 596.613 206.461 598.836 Q208.487 603.135 208.487 610.694 Q208.487 618.08 206.609 622.107 Q203.867 627.986 197.815 627.986 Q195.542 627.986 193.22 626.825 Q190.922 625.664 189.465 622.873 Q187.192 618.698 187.192 610.694 M191.392 610.076 Q191.392 617.71 191.935 620.748 Q192.553 624.034 194.233 625.466 Q195.937 626.875 197.815 626.875 Q199.84 626.875 201.52 625.368 Q203.225 623.836 203.744 620.55 Q204.312 617.314 204.287 610.076 Q204.287 603.036 203.793 600.22 Q203.126 596.934 201.347 595.625 Q199.593 594.291 197.815 594.291 Q197.148 594.291 196.431 594.488 Q195.74 594.686 194.727 595.254 Q193.714 595.822 192.923 597.23 Q192.158 598.639 191.787 600.763 Q191.392 603.505 191.392 610.076 Z" fill="#000000" fill-rule="nonzero" fill-opacity="1" /><path clip-path="url(#clip500)" d="M215.576 626.059 Q214.811 625.244 214.811 624.182 Q214.811 623.12 215.576 622.354 Q216.342 621.563 217.503 621.563 Q218.615 621.563 219.356 622.304 Q220.122 623.021 220.122 624.207 Q220.122 625.368 219.307 626.133 Q218.516 626.875 217.503 626.875 Q216.342 626.875 215.576 626.059 Z" fill="#000000" fill-rule="nonzero" fill-opacity="1" /><path clip-path="url(#clip500)" d="M227.088 618.722 Q227.088 617.215 227.903 616.647 Q228.719 616.054 229.583 616.054 Q230.744 616.054 231.411 616.796 Q232.103 617.512 232.103 618.525 Q232.103 619.538 231.411 620.279 Q230.744 620.995 229.583 620.995 Q229.015 620.995 228.719 620.896 Q229.386 623.218 231.411 624.898 Q233.462 626.578 236.154 626.578 Q239.539 626.578 241.564 623.293 Q242.775 621.168 242.775 616.351 Q242.775 612.102 241.861 609.977 Q240.453 606.741 237.562 606.741 Q233.462 606.741 231.041 610.274 Q230.744 610.719 230.398 610.743 Q229.904 610.743 229.781 610.471 Q229.682 610.175 229.682 609.409 L229.682 594.439 Q229.682 593.229 230.176 593.229 Q230.374 593.229 230.794 593.377 Q233.98 594.785 237.513 594.81 Q241.144 594.81 244.405 593.327 Q244.652 593.179 244.801 593.179 Q245.295 593.179 245.319 593.747 Q245.319 593.945 244.899 594.538 Q244.504 595.106 243.639 595.872 Q242.775 596.613 241.663 597.329 Q240.552 598.046 238.921 598.54 Q237.315 599.009 235.537 599.009 Q233.412 599.009 231.238 598.342 L231.238 608.199 Q233.857 605.63 237.661 605.63 Q241.713 605.63 244.504 608.89 Q247.296 612.151 247.296 616.697 Q247.296 621.464 243.985 624.725 Q240.7 627.986 236.253 627.986 Q232.202 627.986 229.633 625.096 Q227.088 622.206 227.088 618.722 Z" fill="#000000" fill-rule="nonzero" fill-opacity="1" /><path clip-path="url(#clip500)" d="M251.841 610.694 Q251.841 603.258 253.718 599.207 Q256.337 593.179 262.513 593.179 Q263.822 593.179 265.181 593.55 Q266.564 593.896 268.293 595.254 Q270.047 596.613 271.11 598.836 Q273.135 603.135 273.135 610.694 Q273.135 618.08 271.258 622.107 Q268.516 627.986 262.463 627.986 Q260.191 627.986 257.869 626.825 Q255.571 625.664 254.114 622.873 Q251.841 618.698 251.841 610.694 M256.041 610.076 Q256.041 617.71 256.584 620.748 Q257.202 624.034 258.881 625.466 Q260.586 626.875 262.463 626.875 Q264.489 626.875 266.169 625.368 Q267.873 623.836 268.392 620.55 Q268.96 617.314 268.936 610.076 Q268.936 603.036 268.442 600.22 Q267.775 596.934 265.996 595.625 Q264.242 594.291 262.463 594.291 Q261.796 594.291 261.08 594.488 Q260.388 594.686 259.376 595.254 Q258.363 595.822 257.572 597.23 Q256.806 598.639 256.436 600.763 Q256.041 603.505 256.041 610.076 Z" fill="#000000" fill-rule="nonzero" fill-opacity="1" /><path clip-path="url(#clip500)" d="M187.736 407.031 Q187.736 399.595 189.613 395.544 Q192.232 389.516 198.408 389.516 Q199.717 389.516 201.076 389.887 Q202.459 390.233 204.188 391.592 Q205.942 392.95 207.004 395.174 Q209.03 399.472 209.03 407.031 Q209.03 414.417 207.153 418.444 Q204.411 424.323 198.358 424.323 Q196.085 424.323 193.763 423.162 Q191.466 422.001 190.008 419.21 Q187.736 415.035 187.736 407.031 M191.935 406.414 Q191.935 414.047 192.479 417.085 Q193.096 420.371 194.776 421.804 Q196.481 423.212 198.358 423.212 Q200.384 423.212 202.064 421.705 Q203.768 420.173 204.287 416.888 Q204.855 413.652 204.83 406.414 Q204.83 399.373 204.336 396.557 Q203.669 393.271 201.891 391.962 Q200.137 390.628 198.358 390.628 Q197.691 390.628 196.975 390.826 Q196.283 391.023 195.27 391.592 Q194.257 392.16 193.467 393.568 Q192.701 394.976 192.331 397.1 Q191.935 399.842 191.935 406.414 Z" fill="#000000" fill-rule="nonzero" fill-opacity="1" /><path clip-path="url(#clip500)" d="M216.12 422.397 Q215.354 421.581 215.354 420.519 Q215.354 419.457 216.12 418.691 Q216.886 417.901 218.047 417.901 Q219.158 417.901 219.9 418.642 Q220.665 419.358 220.665 420.544 Q220.665 421.705 219.85 422.471 Q219.06 423.212 218.047 423.212 Q216.886 423.212 216.12 422.397 Z" fill="#000000" fill-rule="nonzero" fill-opacity="1" /><path clip-path="url(#clip500)" d="M227.953 399.422 L229.608 389.022 L230.868 389.022 Q231.016 389.64 231.263 389.912 Q231.535 390.183 232.968 390.406 Q234.425 390.628 237.365 390.628 L249.642 390.628 Q249.642 391.789 249.198 392.407 L242.355 402.016 Q240.181 405.055 239.218 410.663 Q238.649 414.417 238.674 418.963 L238.674 421.532 Q238.674 424.323 236.327 424.323 Q234.005 424.323 234.005 421.532 Q234.005 411.873 240.23 402.51 Q240.897 401.547 243.343 398.113 Q245.813 394.679 245.912 394.531 L235.438 394.531 Q230.843 394.531 230.473 394.828 Q229.979 395.272 229.213 399.422 L227.953 399.422 Z" fill="#000000" fill-rule="nonzero" fill-opacity="1" /><path clip-path="url(#clip500)" d="M252.928 415.06 Q252.928 413.553 253.743 412.985 Q254.558 412.392 255.423 412.392 Q256.584 412.392 257.251 413.133 Q257.943 413.849 257.943 414.862 Q257.943 415.875 257.251 416.616 Q256.584 417.332 255.423 417.332 Q254.855 417.332 254.558 417.234 Q255.225 419.556 257.251 421.236 Q259.301 422.915 261.994 422.915 Q265.378 422.915 267.404 419.63 Q268.615 417.505 268.615 412.688 Q268.615 408.439 267.701 406.315 Q266.292 403.079 263.402 403.079 Q259.301 403.079 256.88 406.611 Q256.584 407.056 256.238 407.081 Q255.744 407.081 255.621 406.809 Q255.522 406.512 255.522 405.747 L255.522 390.776 Q255.522 389.566 256.016 389.566 Q256.213 389.566 256.633 389.714 Q259.82 391.122 263.353 391.147 Q266.984 391.147 270.245 389.665 Q270.492 389.516 270.64 389.516 Q271.134 389.516 271.159 390.085 Q271.159 390.282 270.739 390.875 Q270.344 391.443 269.479 392.209 Q268.615 392.95 267.503 393.667 Q266.391 394.383 264.761 394.877 Q263.155 395.346 261.376 395.346 Q259.252 395.346 257.078 394.679 L257.078 404.536 Q259.697 401.967 263.501 401.967 Q267.552 401.967 270.344 405.228 Q273.135 408.489 273.135 413.034 Q273.135 417.802 269.825 421.063 Q266.539 424.323 262.093 424.323 Q258.042 424.323 255.472 421.433 Q252.928 418.543 252.928 415.06 Z" fill="#000000" fill-rule="nonzero" fill-opacity="1" /><path clip-path="url(#clip500)" d="M189.712 190.671 L189.712 189.09 Q195.789 189.09 198.926 185.854 Q199.791 185.854 199.939 186.051 Q200.087 186.249 200.087 187.163 L200.087 215.547 Q200.087 217.054 200.829 217.523 Q201.57 217.993 204.806 217.993 L206.411 217.993 L206.411 219.549 Q204.633 219.401 198.21 219.401 Q191.787 219.401 190.033 219.549 L190.033 217.993 L191.639 217.993 Q194.826 217.993 195.591 217.548 Q196.357 217.079 196.357 215.547 L196.357 189.337 Q193.714 190.671 189.712 190.671 Z" fill="#000000" fill-rule="nonzero" fill-opacity="1" /><path clip-path="url(#clip500)" d="M215.576 218.734 Q214.811 217.919 214.811 216.856 Q214.811 215.794 215.576 215.028 Q216.342 214.238 217.503 214.238 Q218.615 214.238 219.356 214.979 Q220.122 215.695 220.122 216.881 Q220.122 218.042 219.307 218.808 Q218.516 219.549 217.503 219.549 Q216.342 219.549 215.576 218.734 Z" fill="#000000" fill-rule="nonzero" fill-opacity="1" /><path clip-path="url(#clip500)" d="M226.545 203.368 Q226.545 195.933 228.422 191.881 Q231.041 185.854 237.217 185.854 Q238.526 185.854 239.885 186.224 Q241.268 186.57 242.997 187.929 Q244.751 189.288 245.813 191.511 Q247.839 195.809 247.839 203.368 Q247.839 210.755 245.962 214.781 Q243.22 220.661 237.167 220.661 Q234.894 220.661 232.572 219.5 Q230.275 218.339 228.817 215.547 Q226.545 211.372 226.545 203.368 M230.744 202.751 Q230.744 210.384 231.288 213.423 Q231.905 216.708 233.585 218.141 Q235.29 219.549 237.167 219.549 Q239.193 219.549 240.873 218.042 Q242.577 216.511 243.096 213.225 Q243.664 209.989 243.639 202.751 Q243.639 195.71 243.145 192.894 Q242.478 189.609 240.7 188.299 Q238.946 186.965 237.167 186.965 Q236.5 186.965 235.784 187.163 Q235.092 187.361 234.079 187.929 Q233.066 188.497 232.276 189.905 Q231.51 191.313 231.14 193.438 Q230.744 196.18 230.744 202.751 Z" fill="#000000" fill-rule="nonzero" fill-opacity="1" /><path clip-path="url(#clip500)" d="M251.841 203.368 Q251.841 195.933 253.718 191.881 Q256.337 185.854 262.513 185.854 Q263.822 185.854 265.181 186.224 Q266.564 186.57 268.293 187.929 Q270.047 189.288 271.11 191.511 Q273.135 195.809 273.135 203.368 Q273.135 210.755 271.258 214.781 Q268.516 220.661 262.463 220.661 Q260.191 220.661 257.869 219.5 Q255.571 218.339 254.114 215.547 Q251.841 211.372 251.841 203.368 M256.041 202.751 Q256.041 210.384 256.584 213.423 Q257.202 216.708 258.881 218.141 Q260.586 219.549 262.463 219.549 Q264.489 219.549 266.169 218.042 Q267.873 216.511 268.392 213.225 Q268.96 209.989 268.936 202.751 Q268.936 195.71 268.442 192.894 Q267.775 189.609 265.996 188.299 Q264.242 186.965 262.463 186.965 Q261.796 186.965 261.08 187.163 Q260.388 187.361 259.376 187.929 Q258.363 188.497 257.572 189.905 Q256.806 191.313 256.436 193.438 Q256.041 196.18 256.041 202.751 Z" fill="#000000" fill-rule="nonzero" fill-opacity="1" /><path clip-path="url(#clip500)" d="M133.991 638.416 Q127.367 638.416 122.782 633.797 Q118.196 629.177 118.196 622.927 Q118.196 617.628 122.51 614.164 L107.462 614.164 Q104.881 614.164 104.236 615.081 Q103.59 615.964 103.59 619.564 L101.416 619.564 L100.669 609.544 L142.89 609.544 Q145.472 609.544 146.151 608.661 Q146.796 607.744 146.796 604.143 L148.936 604.143 L149.718 614.367 L145.098 614.367 Q149.684 617.968 149.718 623.674 Q149.718 629.653 145.132 634.034 Q140.546 638.416 133.991 638.416 M134.059 632.642 Q140.512 632.642 143.705 630.638 Q148.155 627.852 148.155 623.335 Q148.155 618.172 143.298 615.115 Q142.109 614.333 140.716 614.367 L126.45 614.367 Q125.057 614.367 123.903 615.115 Q119.725 617.968 119.725 622.621 Q119.725 627.479 124.174 630.502 Q127.503 632.642 134.059 632.642 Z" fill="#000000" fill-rule="nonzero" fill-opacity="1" /><path clip-path="url(#clip500)" d="M133.617 600.271 Q127.061 600.271 122.408 596.059 Q117.754 591.847 117.754 585.801 Q117.754 579.687 121.729 576.528 Q125.703 573.335 131.409 573.335 Q132.462 573.335 132.666 573.607 Q132.87 573.879 132.87 575.067 L132.87 594.497 Q139.969 594.497 143.298 592.391 Q147.951 589.469 147.951 584.544 Q147.951 583.865 147.815 583.05 Q147.68 582.234 147.102 580.57 Q146.491 578.906 144.894 577.445 Q143.298 575.984 140.784 575.135 Q139.799 574.931 139.833 574.252 Q139.833 573.335 140.648 573.335 Q141.26 573.335 142.652 574.014 Q144.011 574.66 145.641 575.917 Q147.272 577.173 148.495 579.619 Q149.718 582.031 149.718 584.952 Q149.718 591.066 145.098 595.685 Q140.445 600.271 133.617 600.271 M131.409 594.429 L131.409 577.921 Q129.949 577.921 128.318 578.192 Q126.688 578.43 124.446 579.177 Q122.17 579.891 120.744 581.589 Q119.317 583.287 119.317 585.801 Q119.317 586.922 119.792 588.145 Q120.268 589.334 121.423 590.794 Q122.578 592.255 125.193 593.274 Q127.809 594.293 131.409 594.429 Z" fill="#000000" fill-rule="nonzero" fill-opacity="1" /><path clip-path="url(#clip500)" d="M148.936 569.089 L146.796 569.089 Q146.796 565.387 146.355 564.538 Q145.879 563.688 143.637 563.688 L124.989 563.688 Q122.408 563.688 121.763 564.605 Q121.117 565.489 121.117 569.089 L118.943 569.089 L118.196 559.307 L125.499 559.307 Q118.196 556.046 118.196 549.015 Q118.196 543.784 120.778 541.712 Q122.51 540.183 124.446 539.877 Q126.382 539.538 131.409 539.538 L144.69 539.538 Q146.151 539.47 146.491 538.349 Q146.796 537.228 146.796 534.103 L148.936 534.103 Q148.732 541.202 148.732 541.915 Q148.732 542.459 148.936 549.762 L146.796 549.762 Q146.796 546.059 146.355 545.21 Q145.879 544.327 143.637 544.327 L127.435 544.327 Q123.903 544.327 121.831 545.414 Q119.725 546.501 119.725 549.49 Q119.725 553.091 122.748 555.978 Q125.771 558.865 130.866 558.865 L143.637 558.865 Q145.879 558.865 146.355 558.016 Q146.796 557.133 146.796 553.464 L148.936 553.464 Q148.732 560.563 148.732 561.243 Q148.732 561.786 148.936 569.089 Z" fill="#000000" fill-rule="nonzero" fill-opacity="1" /><path clip-path="url(#clip500)" d="M148.019 530.435 L138.848 530.435 Q138.067 530.435 137.795 530.401 Q137.523 530.367 137.32 530.163 Q137.116 529.959 137.116 529.551 Q137.116 529.076 137.32 528.906 Q137.523 528.702 138.305 528.566 Q143.094 527.513 145.641 525.272 Q148.155 522.996 148.155 518.886 Q148.155 514.98 146.423 513.009 Q144.69 511.039 141.837 511.039 Q136.742 511.039 135.451 518.274 Q134.602 522.452 134.059 524.185 Q133.481 525.917 132.224 527.445 Q129.779 530.435 126.314 530.435 Q122.85 530.435 120.302 527.819 Q117.754 525.17 117.754 519.327 Q117.754 515.421 119.725 512.772 Q119.113 511.99 118.604 511.583 Q117.754 510.666 117.754 510.19 Q117.754 509.647 118.128 509.545 Q118.468 509.443 119.453 509.443 L126.45 509.443 Q127.231 509.443 127.503 509.477 Q127.775 509.511 127.979 509.715 Q128.148 509.918 128.148 510.36 Q128.148 511.141 127.503 511.175 Q119.079 511.719 119.079 519.327 Q119.079 523.437 120.676 525.272 Q122.238 527.106 124.378 527.106 Q125.567 527.106 126.484 526.562 Q127.367 525.985 127.911 525.272 Q128.42 524.524 128.93 523.166 Q129.405 521.807 129.575 520.992 Q129.745 520.143 130.085 518.546 Q131.138 512.975 133.413 510.632 Q136.334 507.711 140.037 507.711 Q144.147 507.711 146.932 510.496 Q149.718 513.281 149.718 518.886 Q149.718 523.403 146.694 526.562 Q147.102 526.97 147.476 527.276 Q147.815 527.581 147.951 527.717 Q148.087 527.819 148.189 527.853 Q148.257 527.887 148.325 527.955 Q149.718 529.348 149.718 529.687 Q149.718 530.231 149.344 530.333 Q149.004 530.435 148.019 530.435 Z" fill="#000000" fill-rule="nonzero" fill-opacity="1" /><path clip-path="url(#clip500)" d="M148.936 503.057 L146.796 503.057 Q146.796 499.355 146.355 498.505 Q145.879 497.656 143.637 497.656 L124.922 497.656 Q122.34 497.656 121.729 498.539 Q121.117 499.389 121.117 502.785 L118.943 502.785 L118.196 493.071 L143.705 493.071 Q145.777 493.071 146.287 492.323 Q146.796 491.576 146.796 488.179 L148.936 488.179 Q148.732 495.279 148.732 495.414 Q148.732 496.366 148.936 503.057 M106.07 500.136 Q104.677 500.136 103.556 499.083 Q102.401 497.996 102.401 496.467 Q102.401 494.939 103.454 493.852 Q104.473 492.765 106.104 492.765 Q107.7 492.765 108.753 493.852 Q109.772 494.939 109.772 496.467 Q109.772 498.064 108.651 499.117 Q107.53 500.136 106.07 500.136 Z" fill="#000000" fill-rule="nonzero" fill-opacity="1" /><path clip-path="url(#clip500)" d="M121.117 484.783 L119.589 484.783 Q119.453 481.59 117.211 479.484 Q114.935 477.344 112.15 476.631 Q109.365 475.883 106.138 475.815 L106.138 474.083 L118.943 474.083 L118.943 464.131 L121.117 464.131 L121.117 474.083 L140.445 474.083 Q147.951 474.083 147.951 469.396 Q147.951 467.392 145.913 466.067 Q143.841 464.742 140.173 464.742 L136.334 464.742 L136.334 463.01 L140.309 463.01 Q144.079 463.01 146.898 464.742 Q149.718 466.474 149.718 469.905 Q149.718 471.162 149.378 472.419 Q149.072 473.642 148.257 475.272 Q147.408 476.868 145.37 477.887 Q143.298 478.872 140.309 478.872 L121.117 478.872 L121.117 484.783 Z" fill="#000000" fill-rule="nonzero" fill-opacity="1" /><path clip-path="url(#clip500)" d="M157.564 459.749 Q156.103 459.749 155.322 458.9 Q154.575 458.017 154.575 456.828 Q154.575 455.571 155.356 454.756 Q156.171 453.907 157.496 453.907 Q160.077 453.907 160.417 456.624 Q161.674 455.299 161.674 453.363 Q161.674 451.291 160.145 449.627 Q158.617 447.928 157.156 447.215 Q155.696 446.468 153.046 445.415 Q150.974 444.43 148.936 443.683 L123.529 454.11 Q121.864 454.79 121.491 455.843 Q121.117 456.896 121.117 459.749 L118.943 459.749 Q119.147 456.624 119.147 452.99 Q119.147 450.85 118.943 445.415 L121.117 445.415 Q121.117 449.321 122.917 449.321 Q123.121 449.321 124.174 448.913 L142.89 441.169 L125.771 434.138 Q124.786 433.73 124.106 433.73 Q121.253 433.73 121.117 436.991 L118.943 436.991 Q119.147 432.405 119.147 430.945 Q119.147 428.092 118.943 425.748 L121.117 425.748 Q121.117 430.401 125.567 432.202 L155.254 444.464 Q163.169 447.793 163.202 453.363 Q163.202 456.013 161.572 457.881 Q159.942 459.749 157.564 459.749 Z" fill="#000000" fill-rule="nonzero" fill-opacity="1" /><path clip-path="url(#clip501)" d="M362.732 813.257 L362.732 1016.92 L575.019 1016.92 L575.019 813.257 L362.732 813.257 L362.732 813.257  Z" fill="#808080" fill-rule="evenodd" fill-opacity="1"/>
<polyline clip-path="url(#clip501)" style="stroke:#000000; stroke-linecap:round; stroke-linejoin:round; stroke-width:4; stroke-opacity:1; fill:none" points="362.732,813.257 362.732,1016.92 575.019,1016.92 575.019,813.257 362.732,813.257 "/>
<path clip-path="url(#clip501)" d="M575.019 528.129 L575.019 1016.92 L787.306 1016.92 L787.306 528.129 L575.019 528.129 L575.019 528.129  Z" fill="#808080" fill-rule="evenodd" fill-opacity="1"/>
<polyline clip-path="url(#clip501)" style="stroke:#000000; stroke-linecap:round; stroke-linejoin:round; stroke-width:4; stroke-opacity:1; fill:none" points="575.019,528.129 575.019,1016.92 787.306,1016.92 787.306,528.129 575.019,528.129 "/>
<path clip-path="url(#clip501)" d="M787.306 324.467 L787.306 1016.92 L999.593 1016.92 L999.593 324.467 L787.306 324.467 L787.306 324.467  Z" fill="#808080" fill-rule="evenodd" fill-opacity="1"/>
<polyline clip-path="url(#clip501)" style="stroke:#000000; stroke-linecap:round; stroke-linejoin:round; stroke-width:4; stroke-opacity:1; fill:none" points="787.306,324.467 787.306,1016.92 999.593,1016.92 999.593,324.467 787.306,324.467 "/>
<path clip-path="url(#clip501)" d="M999.593 853.99 L999.593 1016.92 L1211.88 1016.92 L1211.88 853.99 L999.593 853.99 L999.593 853.99  Z" fill="#808080" fill-rule="evenodd" fill-opacity="1"/>
<polyline clip-path="url(#clip501)" style="stroke:#000000; stroke-linecap:round; stroke-linejoin:round; stroke-width:4; stroke-opacity:1; fill:none" points="999.593,853.99 999.593,1016.92 1211.88,1016.92 1211.88,853.99 999.593,853.99 "/>
<path clip-path="url(#clip501)" d="M1211.88 935.455 L1211.88 1016.92 L1424.17 1016.92 L1424.17 935.455 L1211.88 935.455 L1211.88 935.455  Z" fill="#808080" fill-rule="evenodd" fill-opacity="1"/>
<polyline clip-path="url(#clip501)" style="stroke:#000000; stroke-linecap:round; stroke-linejoin:round; stroke-width:4; stroke-opacity:1; fill:none" points="1211.88,935.455 1211.88,1016.92 1424.17,1016.92 1424.17,935.455 1211.88,935.455 "/>
<circle clip-path="url(#clip501)" style="fill:#808080; stroke:none; fill-opacity:0" cx="468.875" cy="813.257" r="2"/>
<circle clip-path="url(#clip501)" style="fill:#808080; stroke:none; fill-opacity:0" cx="681.163" cy="528.129" r="2"/>
<circle clip-path="url(#clip501)" style="fill:#808080; stroke:none; fill-opacity:0" cx="893.45" cy="324.467" r="2"/>
<circle clip-path="url(#clip501)" style="fill:#808080; stroke:none; fill-opacity:0" cx="1105.74" cy="853.99" r="2"/>
<circle clip-path="url(#clip501)" style="fill:#808080; stroke:none; fill-opacity:0" cx="1318.02" cy="935.455" r="2"/>
<polyline clip-path="url(#clip501)" style="stroke:#000000; stroke-linecap:round; stroke-linejoin:round; stroke-width:8; stroke-opacity:1; fill:none" points="330.889,1014.52 333.793,1014.34 336.697,1014.16 339.6,1013.96 342.504,1013.74 359.512,1012.2 376.52,1009.99 393.527,1006.9 410.535,1002.64 426.359,997.32 442.183,990.345 452.788,984.554 463.392,977.72 473.997,969.705 484.602,960.367 493.365,951.547 502.128,941.638 510.891,930.555 519.654,918.215 527.803,905.543 535.952,891.656 544.1,876.498 552.249,860.021 562.478,837.41 572.708,812.598 582.937,785.556 593.167,756.285 602.342,728.164 611.518,698.337 620.694,666.888 629.87,633.93 640.373,594.54 650.876,553.631 661.379,511.521 671.882,468.579 687.584,403.745 703.286,339.544 713.327,299.601 723.369,261.075 733.41,224.437 743.452,190.152 748.034,175.41 752.617,161.294 757.199,147.842 761.782,135.094 766.364,123.087 770.947,111.856 775.529,101.433 780.112,91.8508 785.327,82.0031 790.542,73.3193 795.758,65.8335 800.973,59.5753 806.189,54.5698 811.404,50.837 816.62,48.3918 821.835,47.2441 825.969,47.2595 830.104,48.0931 834.238,49.743 838.372,52.2049 842.507,55.4726 846.641,59.5379 850.776,64.3906 854.91,70.0184 860.046,78.0688 865.183,87.2629 870.319,97.5659 875.456,108.939 880.592,121.339 885.729,134.72 890.865,149.032 896.002,164.225 903.869,189.075 911.736,215.655 919.604,243.748 927.471,273.134 938.563,316.324 949.655,361.005 960.747,406.556 971.838,452.385 988.416,520.204 1004.99,585.767 1014.42,621.512 1023.85,655.882 1033.27,688.707 1042.7,719.855 1052.03,748.949 1061.37,776.232 1070.7,801.666 1080.04,825.239 1090.31,849.04 1100.58,870.649 1110.85,890.139 1121.12,907.603 1128.96,919.645 1136.81,930.624 1144.65,940.596 1152.5,949.62 1162.4,959.75 1172.3,968.59 1182.2,976.26 1192.1,982.878 1210.41,992.723 1228.72,1000 1247.61,1005.43 1266.49,1009.25 1285.63,1011.92 1304.78,1013.72 1344.75,1015.73 1376.25,1016.4 1447.96,1016.86 1456.01,1016.87 "/>
</svg>
