<?xml version="1.0" encoding="utf-8"?>
<svg xmlns="http://www.w3.org/2000/svg" xmlns:xlink="http://www.w3.org/1999/xlink" width="600" height="400" viewBox="0 0 2400 1600">
<defs>
  <clipPath id="clip770">
    <rect x="0" y="0" width="2400" height="1600"/>
  </clipPath>
</defs>
<path clip-path="url(#clip770)" d="M0 1600 L2400 1600 L2400 0 L0 0  Z" fill="#ffffff" fill-rule="evenodd" fill-opacity="1"/>
<defs>
  <clipPath id="clip771">
    <rect x="480" y="0" width="1681" height="1600"/>
  </clipPath>
</defs>
<path clip-path="url(#clip770)" d="M299.195 1360.19 L2289.76 1360.19 L2289.76 110.236 L299.195 110.236  Z" fill="#ffffff" fill-rule="evenodd" fill-opacity="1"/>
<defs>
  <clipPath id="clip772">
    <rect x="299" y="110" width="1992" height="1251"/>
  </clipPath>
</defs>
<polyline clip-path="url(#clip770)" style="stroke:#000000; stroke-linecap:round; stroke-linejoin:round; stroke-width:4; stroke-opacity:1; fill:none" points="299.195,1360.19 2289.76,1360.19 "/>
<polyline clip-path="url(#clip770)" style="stroke:#000000; stroke-linecap:round; stroke-linejoin:round; stroke-width:4; stroke-opacity:1; fill:none" points="299.195,110.236 2289.76,110.236 "/>
<polyline clip-path="url(#clip770)" style="stroke:#000000; stroke-linecap:round; stroke-linejoin:round; stroke-width:4; stroke-opacity:1; fill:none" points="355.532,1360.19 355.532,1341.29 "/>
<polyline clip-path="url(#clip770)" style="stroke:#000000; stroke-linecap:round; stroke-linejoin:round; stroke-width:4; stroke-opacity:1; fill:none" points="825.006,1360.19 825.006,1341.29 "/>
<polyline clip-path="url(#clip770)" style="stroke:#000000; stroke-linecap:round; stroke-linejoin:round; stroke-width:4; stroke-opacity:1; fill:none" points="1294.48,1360.19 1294.48,1341.29 "/>
<polyline clip-path="url(#clip770)" style="stroke:#000000; stroke-linecap:round; stroke-linejoin:round; stroke-width:4; stroke-opacity:1; fill:none" points="1763.95,1360.19 1763.95,1341.29 "/>
<polyline clip-path="url(#clip770)" style="stroke:#000000; stroke-linecap:round; stroke-linejoin:round; stroke-width:4; stroke-opacity:1; fill:none" points="2233.43,1360.19 2233.43,1341.29 "/>
<polyline clip-path="url(#clip770)" style="stroke:#000000; stroke-linecap:round; stroke-linejoin:round; stroke-width:4; stroke-opacity:1; fill:none" points="355.532,110.236 355.532,129.134 "/>
<polyline clip-path="url(#clip770)" style="stroke:#000000; stroke-linecap:round; stroke-linejoin:round; stroke-width:4; stroke-opacity:1; fill:none" points="825.006,110.236 825.006,129.134 "/>
<polyline clip-path="url(#clip770)" style="stroke:#000000; stroke-linecap:round; stroke-linejoin:round; stroke-width:4; stroke-opacity:1; fill:none" points="1294.48,110.236 1294.48,129.134 "/>
<polyline clip-path="url(#clip770)" style="stroke:#000000; stroke-linecap:round; stroke-linejoin:round; stroke-width:4; stroke-opacity:1; fill:none" points="1763.95,110.236 1763.95,129.134 "/>
<polyline clip-path="url(#clip770)" style="stroke:#000000; stroke-linecap:round; stroke-linejoin:round; stroke-width:4; stroke-opacity:1; fill:none" points="2233.43,110.236 2233.43,129.134 "/>
<path clip-path="url(#clip770)" d="M347.182 1393.71 L347.182 1392.13 Q353.259 1392.13 356.397 1388.89 Q357.261 1388.89 357.41 1389.09 Q357.558 1389.29 357.558 1390.2 L357.558 1418.59 Q357.558 1420.09 358.299 1420.56 Q359.04 1421.03 362.276 1421.03 L363.882 1421.03 L363.882 1422.59 Q362.103 1422.44 355.68 1422.44 Q349.257 1422.44 347.504 1422.59 L347.504 1421.03 L349.109 1421.03 Q352.296 1421.03 353.062 1420.59 Q353.828 1420.12 353.828 1418.59 L353.828 1392.38 Q351.184 1393.71 347.182 1393.71 Z" fill="#000000" fill-rule="nonzero" fill-opacity="1" /><path clip-path="url(#clip770)" d="M814.902 1422.59 Q814.902 1421.67 814.976 1421.4 Q815.075 1421.13 815.47 1420.71 L825.179 1409.89 Q830.49 1403.91 830.49 1398.7 Q830.49 1395.32 828.711 1392.89 Q826.957 1390.47 823.721 1390.47 Q821.498 1390.47 819.62 1391.83 Q817.743 1393.19 816.878 1395.61 Q817.027 1395.56 817.545 1395.56 Q818.805 1395.56 819.497 1396.35 Q820.213 1397.14 820.213 1398.21 Q820.213 1399.56 819.324 1400.23 Q818.459 1400.87 817.595 1400.87 Q817.249 1400.87 816.78 1400.8 Q816.335 1400.73 815.619 1400.03 Q814.902 1399.32 814.902 1398.06 Q814.902 1394.52 817.57 1391.71 Q820.263 1388.89 824.364 1388.89 Q829.008 1388.89 832.046 1391.66 Q835.109 1394.4 835.109 1398.7 Q835.109 1400.21 834.64 1401.59 Q834.195 1402.95 833.578 1404.01 Q832.985 1405.07 831.355 1406.78 Q829.724 1408.48 828.415 1409.69 Q827.106 1410.9 824.166 1413.47 L818.805 1418.68 L827.921 1418.68 Q832.367 1418.68 832.713 1418.29 Q833.207 1417.57 833.825 1413.79 L835.109 1413.79 L833.677 1422.59 L814.902 1422.59 Z" fill="#000000" fill-rule="nonzero" fill-opacity="1" /><path clip-path="url(#clip770)" d="M1283.98 1415.77 Q1283.98 1414.26 1284.85 1413.55 Q1285.71 1412.83 1286.82 1412.83 Q1287.98 1412.83 1288.8 1413.6 Q1289.64 1414.34 1289.64 1415.65 Q1289.64 1417.05 1288.65 1417.84 Q1287.69 1418.64 1286.3 1418.44 Q1287.51 1420.46 1289.74 1421.38 Q1291.98 1422.29 1294.06 1422.29 Q1296.23 1422.29 1297.99 1420.41 Q1299.77 1418.54 1299.77 1413.94 Q1299.77 1410.04 1298.23 1407.79 Q1296.73 1405.54 1293.74 1405.54 L1291.52 1405.54 Q1290.75 1405.54 1290.53 1405.47 Q1290.3 1405.39 1290.3 1404.97 Q1290.3 1404.48 1291.07 1404.38 Q1291.84 1404.38 1293.05 1404.23 Q1295.99 1404.13 1297.54 1401.59 Q1298.95 1399.22 1298.95 1395.83 Q1298.95 1392.75 1297.47 1391.46 Q1296.01 1390.15 1294.11 1390.15 Q1292.33 1390.15 1290.38 1390.89 Q1288.43 1391.63 1287.36 1393.29 Q1290.5 1393.29 1290.5 1395.83 Q1290.5 1396.95 1289.79 1397.69 Q1289.09 1398.4 1287.93 1398.4 Q1286.82 1398.4 1286.08 1397.71 Q1285.34 1397 1285.34 1395.78 Q1285.34 1392.89 1287.91 1390.89 Q1290.5 1388.89 1294.31 1388.89 Q1298.06 1388.89 1300.83 1390.87 Q1303.62 1392.84 1303.62 1395.88 Q1303.62 1398.87 1301.64 1401.32 Q1299.67 1403.76 1296.53 1404.78 Q1300.38 1405.54 1302.68 1408.16 Q1304.98 1410.75 1304.98 1413.94 Q1304.98 1417.89 1301.87 1420.81 Q1298.75 1423.7 1294.21 1423.7 Q1290.01 1423.7 1286.99 1421.43 Q1283.98 1419.15 1283.98 1415.77 Z" fill="#000000" fill-rule="nonzero" fill-opacity="1" /><path clip-path="url(#clip770)" d="M1752.74 1414.24 L1752.74 1412.68 L1768.28 1388.94 Q1768.67 1388.32 1769.29 1388.35 Q1769.86 1388.35 1769.98 1388.57 Q1770.1 1388.79 1770.1 1389.66 L1770.1 1412.68 L1775.17 1412.68 L1775.17 1414.24 L1770.1 1414.24 L1770.1 1418.64 Q1770.1 1420.09 1770.7 1420.56 Q1771.31 1421.03 1773.93 1421.03 L1775 1421.03 L1775 1422.59 Q1772.92 1422.44 1768.13 1422.44 Q1763.36 1422.44 1761.29 1422.59 L1761.29 1421.03 L1762.35 1421.03 Q1764.97 1421.03 1765.58 1420.59 Q1766.2 1420.12 1766.2 1418.64 L1766.2 1414.24 L1752.74 1414.24 M1754.17 1412.68 L1766.5 1412.68 L1766.5 1393.81 L1754.17 1412.68 Z" fill="#000000" fill-rule="nonzero" fill-opacity="1" /><path clip-path="url(#clip770)" d="M2223.32 1414.44 Q2223.32 1412.93 2224.14 1412.36 Q2224.95 1411.77 2225.82 1411.77 Q2226.98 1411.77 2227.65 1412.51 Q2228.34 1413.23 2228.34 1414.24 Q2228.34 1415.25 2227.65 1415.99 Q2226.98 1416.71 2225.82 1416.71 Q2225.25 1416.71 2224.95 1416.61 Q2225.62 1418.93 2227.65 1420.61 Q2229.7 1422.29 2232.39 1422.29 Q2235.77 1422.29 2237.8 1419.01 Q2239.01 1416.88 2239.01 1412.06 Q2239.01 1407.82 2238.1 1405.69 Q2236.69 1402.45 2233.8 1402.45 Q2229.7 1402.45 2227.28 1405.99 Q2226.98 1406.43 2226.63 1406.46 Q2226.14 1406.46 2226.02 1406.18 Q2225.92 1405.89 2225.92 1405.12 L2225.92 1390.15 Q2225.92 1388.94 2226.41 1388.94 Q2226.61 1388.94 2227.03 1389.09 Q2230.22 1390.5 2233.75 1390.52 Q2237.38 1390.52 2240.64 1389.04 Q2240.89 1388.89 2241.04 1388.89 Q2241.53 1388.89 2241.55 1389.46 Q2241.55 1389.66 2241.13 1390.25 Q2240.74 1390.82 2239.87 1391.59 Q2239.01 1392.33 2237.9 1393.04 Q2236.79 1393.76 2235.16 1394.25 Q2233.55 1394.72 2231.77 1394.72 Q2229.65 1394.72 2227.47 1394.06 L2227.47 1403.91 Q2230.09 1401.34 2233.9 1401.34 Q2237.95 1401.34 2240.74 1404.6 Q2243.53 1407.86 2243.53 1412.41 Q2243.53 1417.18 2240.22 1420.44 Q2236.93 1423.7 2232.49 1423.7 Q2228.44 1423.7 2225.87 1420.81 Q2223.32 1417.92 2223.32 1414.44 Z" fill="#000000" fill-rule="nonzero" fill-opacity="1" /><path clip-path="url(#clip770)" d="M1210.67 1477.23 L1210.67 1475.06 L1216.13 1475.06 L1216.13 1467.08 Q1216.13 1461.91 1219.46 1458.96 Q1222.83 1456 1226.94 1456 Q1229.65 1456 1231.42 1457.46 Q1233.19 1458.92 1233.19 1460.89 Q1233.19 1462.22 1232.37 1463.1 Q1231.59 1463.95 1230.13 1463.95 Q1228.74 1463.95 1227.92 1463.07 Q1227.14 1462.19 1227.14 1460.96 Q1227.14 1458.72 1229.21 1458.04 Q1228.16 1457.57 1226.94 1457.53 Q1224.42 1457.53 1222.45 1460.11 Q1220.52 1462.69 1220.52 1467.01 L1220.52 1475.06 L1228.67 1475.06 L1228.67 1477.23 L1220.75 1477.23 L1220.75 1499.62 Q1220.75 1501.62 1221.57 1502.27 Q1222.42 1502.91 1226.02 1502.91 L1227.48 1502.91 L1227.48 1505.05 Q1224.69 1504.85 1218.65 1504.85 Q1217.8 1504.85 1216.47 1504.88 Q1215.18 1504.92 1213.42 1504.98 Q1211.68 1505.05 1210.73 1505.05 L1210.73 1502.91 Q1214.44 1502.91 1215.29 1502.47 Q1216.13 1501.99 1216.13 1499.75 L1216.13 1477.23 L1210.67 1477.23 Z" fill="#000000" fill-rule="nonzero" fill-opacity="1" /><path clip-path="url(#clip770)" d="M1231.49 1505.05 L1231.49 1502.91 Q1235.19 1502.91 1236.04 1502.47 Q1236.92 1501.99 1236.92 1499.75 L1236.92 1481.1 Q1236.92 1478.52 1236.01 1477.88 Q1235.12 1477.23 1231.49 1477.23 L1231.49 1475.06 L1241.17 1474.31 L1241.17 1481.95 Q1242.15 1478.96 1244.23 1476.66 Q1246.33 1474.31 1249.73 1474.31 Q1251.97 1474.31 1253.4 1475.57 Q1254.86 1476.83 1254.86 1478.56 Q1254.86 1480.09 1253.91 1480.87 Q1252.99 1481.61 1251.87 1481.61 Q1250.61 1481.61 1249.73 1480.83 Q1248.88 1480.02 1248.88 1478.63 Q1248.88 1477.78 1249.25 1477.13 Q1249.66 1476.45 1249.97 1476.21 Q1250.27 1475.98 1250.48 1475.91 Q1250.34 1475.84 1249.73 1475.84 Q1245.89 1475.84 1243.68 1479.68 Q1241.51 1483.48 1241.51 1488.92 L1241.51 1499.62 Q1241.51 1501.62 1242.32 1502.27 Q1243.17 1502.91 1246.81 1502.91 L1248.27 1502.91 L1248.27 1505.05 Q1245.48 1504.85 1239.44 1504.85 Q1238.59 1504.85 1237.26 1504.88 Q1235.94 1504.92 1234.2 1504.98 Q1232.47 1505.05 1231.49 1505.05 Z" fill="#000000" fill-rule="nonzero" fill-opacity="1" /><path clip-path="url(#clip770)" d="M1259.65 1498.43 Q1259.65 1492.52 1266.61 1489.39 Q1270.79 1487.39 1279.42 1486.88 L1279.42 1484.33 Q1279.42 1480.02 1277.14 1477.74 Q1274.9 1475.43 1272.04 1475.43 Q1266.95 1475.43 1264.5 1478.63 Q1266.58 1478.69 1267.32 1479.75 Q1268.07 1480.77 1268.07 1481.82 Q1268.07 1483.21 1267.19 1484.13 Q1266.34 1485.01 1264.88 1485.01 Q1263.48 1485.01 1262.57 1484.16 Q1261.65 1483.28 1261.65 1481.75 Q1261.65 1478.35 1264.71 1476.11 Q1267.8 1473.87 1272.18 1473.87 Q1277.89 1473.87 1281.69 1477.71 Q1282.88 1478.9 1283.46 1480.43 Q1284.07 1481.95 1284.14 1482.97 Q1284.2 1483.96 1284.2 1485.93 L1284.2 1499.82 Q1284.2 1500.23 1284.34 1500.91 Q1284.48 1501.59 1285.09 1502.47 Q1285.73 1503.32 1286.79 1503.32 Q1289.3 1503.32 1289.27 1498.87 L1289.27 1494.96 L1291.03 1494.96 L1291.03 1498.87 Q1291.03 1502.57 1289.06 1504.03 Q1287.13 1505.46 1285.33 1505.46 Q1283.02 1505.46 1281.56 1503.76 Q1280.09 1502.06 1279.89 1499.75 Q1278.84 1502.4 1276.43 1504.13 Q1274.05 1505.83 1270.79 1505.83 Q1268.27 1505.83 1265.9 1505.19 Q1263.55 1504.58 1261.58 1502.84 Q1259.65 1501.08 1259.65 1498.43 M1265.01 1498.36 Q1265.01 1500.94 1266.85 1502.61 Q1268.68 1504.27 1271.26 1504.27 Q1274.18 1504.27 1276.8 1502.03 Q1279.42 1499.75 1279.42 1495.3 L1279.42 1488.34 Q1271.7 1488.61 1268.34 1491.7 Q1265.01 1494.76 1265.01 1498.36 Z" fill="#000000" fill-rule="nonzero" fill-opacity="1" /><path clip-path="url(#clip770)" d="M1293.75 1505.05 L1293.75 1502.91 Q1297.45 1502.91 1298.3 1502.47 Q1299.15 1501.99 1299.15 1499.75 L1299.15 1481.1 Q1299.15 1478.52 1298.23 1477.88 Q1297.35 1477.23 1293.75 1477.23 L1293.75 1475.06 L1303.53 1474.31 L1303.53 1481.61 Q1306.79 1474.31 1313.82 1474.31 Q1321.98 1474.31 1323.1 1481.1 Q1324.29 1478.46 1326.77 1476.38 Q1329.28 1474.31 1333.19 1474.31 Q1338.42 1474.31 1340.49 1476.89 Q1342.02 1478.63 1342.32 1480.56 Q1342.63 1482.5 1342.63 1487.52 L1342.63 1500.81 Q1342.7 1502.27 1343.82 1502.61 Q1344.94 1502.91 1348.06 1502.91 L1348.06 1505.05 Q1340.96 1504.85 1340.28 1504.85 Q1339.74 1504.85 1332.4 1505.05 L1332.4 1502.91 Q1336.11 1502.91 1336.96 1502.47 Q1337.84 1501.99 1337.84 1499.75 L1337.84 1483.55 Q1337.84 1480.02 1336.75 1477.95 Q1335.66 1475.84 1332.68 1475.84 Q1329.08 1475.84 1326.19 1478.86 Q1323.3 1481.89 1323.3 1486.98 L1323.3 1499.75 Q1323.3 1501.99 1324.15 1502.47 Q1325.03 1502.91 1328.74 1502.91 L1328.74 1505.05 Q1321.64 1504.85 1320.92 1504.85 Q1320.38 1504.85 1313.08 1505.05 L1313.08 1502.91 Q1316.78 1502.91 1317.63 1502.47 Q1318.51 1501.99 1318.51 1499.75 L1318.51 1483.55 Q1318.51 1480.02 1317.42 1477.95 Q1316.34 1475.84 1313.35 1475.84 Q1309.75 1475.84 1306.86 1478.86 Q1303.97 1481.89 1303.97 1486.98 L1303.97 1499.75 Q1303.97 1501.99 1304.82 1502.47 Q1305.71 1502.91 1309.37 1502.91 L1309.37 1505.05 Q1302.27 1504.85 1301.6 1504.85 Q1301.05 1504.85 1293.75 1505.05 Z" fill="#000000" fill-rule="nonzero" fill-opacity="1" /><path clip-path="url(#clip770)" d="M1351.36 1489.73 Q1351.36 1483.18 1355.57 1478.52 Q1359.78 1473.87 1365.83 1473.87 Q1371.94 1473.87 1375.1 1477.84 Q1378.29 1481.82 1378.29 1487.52 Q1378.29 1488.58 1378.02 1488.78 Q1377.75 1488.99 1376.56 1488.99 L1357.13 1488.99 Q1357.13 1496.08 1359.24 1499.41 Q1362.16 1504.07 1367.08 1504.07 Q1367.76 1504.07 1368.58 1503.93 Q1369.39 1503.79 1371.06 1503.22 Q1372.72 1502.61 1374.18 1501.01 Q1375.64 1499.41 1376.49 1496.9 Q1376.7 1495.91 1377.38 1495.95 Q1378.29 1495.95 1378.29 1496.76 Q1378.29 1497.38 1377.61 1498.77 Q1376.97 1500.13 1375.71 1501.76 Q1374.46 1503.39 1372.01 1504.61 Q1369.6 1505.83 1366.68 1505.83 Q1360.56 1505.83 1355.94 1501.21 Q1351.36 1496.56 1351.36 1489.73 M1357.2 1487.52 L1373.71 1487.52 Q1373.71 1486.06 1373.44 1484.43 Q1373.2 1482.8 1372.45 1480.56 Q1371.74 1478.29 1370.04 1476.86 Q1368.34 1475.43 1365.83 1475.43 Q1364.71 1475.43 1363.48 1475.91 Q1362.29 1476.38 1360.83 1477.54 Q1359.37 1478.69 1358.35 1481.31 Q1357.34 1483.92 1357.2 1487.52 Z" fill="#000000" fill-rule="nonzero" fill-opacity="1" /><polyline clip-path="url(#clip770)" style="stroke:#000000; stroke-linecap:round; stroke-linejoin:round; stroke-width:4; stroke-opacity:1; fill:none" points="299.195,1360.19 299.195,110.236 "/>
<polyline clip-path="url(#clip770)" style="stroke:#000000; stroke-linecap:round; stroke-linejoin:round; stroke-width:4; stroke-opacity:1; fill:none" points="2289.76,1360.19 2289.76,110.236 "/>
<polyline clip-path="url(#clip770)" style="stroke:#000000; stroke-linecap:round; stroke-linejoin:round; stroke-width:4; stroke-opacity:1; fill:none" points="299.195,1360.19 318.093,1360.19 "/>
<polyline clip-path="url(#clip770)" style="stroke:#000000; stroke-linecap:round; stroke-linejoin:round; stroke-width:4; stroke-opacity:1; fill:none" points="299.195,1106.66 318.093,1106.66 "/>
<polyline clip-path="url(#clip770)" style="stroke:#000000; stroke-linecap:round; stroke-linejoin:round; stroke-width:4; stroke-opacity:1; fill:none" points="299.195,853.132 318.093,853.132 "/>
<polyline clip-path="url(#clip770)" style="stroke:#000000; stroke-linecap:round; stroke-linejoin:round; stroke-width:4; stroke-opacity:1; fill:none" points="299.195,599.604 318.093,599.604 "/>
<polyline clip-path="url(#clip770)" style="stroke:#000000; stroke-linecap:round; stroke-linejoin:round; stroke-width:4; stroke-opacity:1; fill:none" points="299.195,346.076 318.093,346.076 "/>
<polyline clip-path="url(#clip770)" style="stroke:#000000; stroke-linecap:round; stroke-linejoin:round; stroke-width:4; stroke-opacity:1; fill:none" points="2289.76,1360.19 2270.87,1360.19 "/>
<polyline clip-path="url(#clip770)" style="stroke:#000000; stroke-linecap:round; stroke-linejoin:round; stroke-width:4; stroke-opacity:1; fill:none" points="2289.76,1106.66 2270.87,1106.66 "/>
<polyline clip-path="url(#clip770)" style="stroke:#000000; stroke-linecap:round; stroke-linejoin:round; stroke-width:4; stroke-opacity:1; fill:none" points="2289.76,853.132 2270.87,853.132 "/>
<polyline clip-path="url(#clip770)" style="stroke:#000000; stroke-linecap:round; stroke-linejoin:round; stroke-width:4; stroke-opacity:1; fill:none" points="2289.76,599.604 2270.87,599.604 "/>
<polyline clip-path="url(#clip770)" style="stroke:#000000; stroke-linecap:round; stroke-linejoin:round; stroke-width:4; stroke-opacity:1; fill:none" points="2289.76,346.076 2270.87,346.076 "/>
<path clip-path="url(#clip770)" d="M177.401 1361.29 Q177.401 1353.85 179.278 1349.8 Q181.897 1343.77 188.072 1343.77 Q189.382 1343.77 190.74 1344.14 Q192.124 1344.49 193.853 1345.85 Q195.607 1347.21 196.669 1349.43 Q198.695 1353.73 198.695 1361.29 Q198.695 1368.67 196.817 1372.7 Q194.075 1378.58 188.023 1378.58 Q185.75 1378.58 183.428 1377.42 Q181.131 1376.26 179.673 1373.47 Q177.401 1369.29 177.401 1361.29 M181.6 1360.67 Q181.6 1368.3 182.144 1371.34 Q182.761 1374.63 184.441 1376.06 Q186.145 1377.47 188.023 1377.47 Q190.049 1377.47 191.728 1375.96 Q193.433 1374.43 193.952 1371.14 Q194.52 1367.91 194.495 1360.67 Q194.495 1353.63 194.001 1350.81 Q193.334 1347.53 191.556 1346.22 Q189.802 1344.88 188.023 1344.88 Q187.356 1344.88 186.64 1345.08 Q185.948 1345.28 184.935 1345.85 Q183.922 1346.42 183.132 1347.82 Q182.366 1349.23 181.995 1351.36 Q181.6 1354.1 181.6 1360.67 Z" fill="#000000" fill-rule="nonzero" fill-opacity="1" /><path clip-path="url(#clip770)" d="M205.785 1376.65 Q205.019 1375.84 205.019 1374.78 Q205.019 1373.71 205.785 1372.95 Q206.55 1372.16 207.712 1372.16 Q208.823 1372.16 209.564 1372.9 Q210.33 1373.61 210.33 1374.8 Q210.33 1375.96 209.515 1376.73 Q208.724 1377.47 207.712 1377.47 Q206.55 1377.47 205.785 1376.65 Z" fill="#000000" fill-rule="nonzero" fill-opacity="1" /><path clip-path="url(#clip770)" d="M217.296 1369.32 Q217.296 1367.81 218.112 1367.24 Q218.927 1366.65 219.791 1366.65 Q220.953 1366.65 221.62 1367.39 Q222.311 1368.11 222.311 1369.12 Q222.311 1370.13 221.62 1370.87 Q220.953 1371.59 219.791 1371.59 Q219.223 1371.59 218.927 1371.49 Q219.594 1373.81 221.62 1375.49 Q223.67 1377.17 226.363 1377.17 Q229.747 1377.17 231.773 1373.89 Q232.983 1371.76 232.983 1366.94 Q232.983 1362.7 232.069 1360.57 Q230.661 1357.33 227.771 1357.33 Q223.67 1357.33 221.249 1360.87 Q220.953 1361.31 220.607 1361.34 Q220.113 1361.34 219.989 1361.06 Q219.89 1360.77 219.89 1360 L219.89 1345.03 Q219.89 1343.82 220.384 1343.82 Q220.582 1343.82 221.002 1343.97 Q224.189 1345.38 227.721 1345.4 Q231.353 1345.4 234.613 1343.92 Q234.861 1343.77 235.009 1343.77 Q235.503 1343.77 235.528 1344.34 Q235.528 1344.54 235.108 1345.13 Q234.712 1345.7 233.848 1346.47 Q232.983 1347.21 231.871 1347.92 Q230.76 1348.64 229.129 1349.13 Q227.524 1349.6 225.745 1349.6 Q223.62 1349.6 221.447 1348.94 L221.447 1358.79 Q224.065 1356.22 227.869 1356.22 Q231.921 1356.22 234.712 1359.48 Q237.504 1362.74 237.504 1367.29 Q237.504 1372.06 234.194 1375.32 Q230.908 1378.58 226.461 1378.58 Q222.41 1378.58 219.841 1375.69 Q217.296 1372.8 217.296 1369.32 Z" fill="#000000" fill-rule="nonzero" fill-opacity="1" /><path clip-path="url(#clip770)" d="M242.197 1369.83 Q242.197 1364.18 249.485 1360.52 Q246.348 1358.4 245.779 1357.78 Q243.556 1355.31 243.556 1352.22 Q243.556 1348.69 246.224 1346.24 Q248.917 1343.77 252.721 1343.77 Q256.352 1343.77 259.095 1345.87 Q261.837 1347.97 261.837 1351.31 Q261.837 1356 255.71 1359.16 Q259.762 1361.68 260.725 1362.74 Q263.195 1365.49 263.195 1368.97 Q263.195 1373.02 260.083 1375.81 Q256.97 1378.58 252.672 1378.58 Q248.472 1378.58 245.335 1376.13 Q242.197 1373.69 242.197 1369.83 M244.717 1369.83 Q244.717 1372.97 247.064 1375.07 Q249.436 1377.17 252.721 1377.17 Q255.908 1377.17 258.279 1375.34 Q260.676 1373.52 260.676 1370.8 Q260.676 1369.74 260.305 1368.82 Q259.959 1367.91 259.243 1367.19 Q258.551 1366.45 258.106 1366.13 Q257.686 1365.78 256.871 1365.21 L250.646 1361.29 Q244.717 1364.57 244.717 1369.83 M245.779 1350.24 Q245.779 1352.67 248.324 1354.35 L254.599 1358.4 Q259.613 1355.46 259.613 1351.31 Q259.613 1348.61 257.563 1346.84 Q255.513 1345.03 252.672 1345.03 Q249.88 1345.03 247.83 1346.51 Q245.779 1347.97 245.779 1350.24 Z" fill="#000000" fill-rule="nonzero" fill-opacity="1" /><path clip-path="url(#clip770)" d="M177.401 1107.76 Q177.401 1100.32 179.278 1096.27 Q181.897 1090.24 188.072 1090.24 Q189.382 1090.24 190.74 1090.61 Q192.124 1090.96 193.853 1092.32 Q195.607 1093.68 196.669 1095.9 Q198.695 1100.2 198.695 1107.76 Q198.695 1115.15 196.817 1119.17 Q194.075 1125.05 188.023 1125.05 Q185.75 1125.05 183.428 1123.89 Q181.131 1122.73 179.673 1119.94 Q177.401 1115.76 177.401 1107.76 M181.6 1107.14 Q181.6 1114.77 182.144 1117.81 Q182.761 1121.1 184.441 1122.53 Q186.145 1123.94 188.023 1123.94 Q190.049 1123.94 191.728 1122.43 Q193.433 1120.9 193.952 1117.62 Q194.52 1114.38 194.495 1107.14 Q194.495 1100.1 194.001 1097.28 Q193.334 1094 191.556 1092.69 Q189.802 1091.36 188.023 1091.36 Q187.356 1091.36 186.64 1091.55 Q185.948 1091.75 184.935 1092.32 Q183.922 1092.89 183.132 1094.3 Q182.366 1095.7 181.995 1097.83 Q181.6 1100.57 181.6 1107.14 Z" fill="#000000" fill-rule="nonzero" fill-opacity="1" /><path clip-path="url(#clip770)" d="M205.785 1123.12 Q205.019 1122.31 205.019 1121.25 Q205.019 1120.18 205.785 1119.42 Q206.55 1118.63 207.712 1118.63 Q208.823 1118.63 209.564 1119.37 Q210.33 1120.09 210.33 1121.27 Q210.33 1122.43 209.515 1123.2 Q208.724 1123.94 207.712 1123.94 Q206.55 1123.94 205.785 1123.12 Z" fill="#000000" fill-rule="nonzero" fill-opacity="1" /><path clip-path="url(#clip770)" d="M217.296 1115.79 Q217.296 1114.28 218.112 1113.71 Q218.927 1113.12 219.791 1113.12 Q220.953 1113.12 221.62 1113.86 Q222.311 1114.58 222.311 1115.59 Q222.311 1116.6 221.62 1117.34 Q220.953 1118.06 219.791 1118.06 Q219.223 1118.06 218.927 1117.96 Q219.594 1120.28 221.62 1121.96 Q223.67 1123.64 226.363 1123.64 Q229.747 1123.64 231.773 1120.36 Q232.983 1118.23 232.983 1113.42 Q232.983 1109.17 232.069 1107.04 Q230.661 1103.81 227.771 1103.81 Q223.67 1103.81 221.249 1107.34 Q220.953 1107.78 220.607 1107.81 Q220.113 1107.81 219.989 1107.54 Q219.89 1107.24 219.89 1106.47 L219.89 1091.5 Q219.89 1090.29 220.384 1090.29 Q220.582 1090.29 221.002 1090.44 Q224.189 1091.85 227.721 1091.87 Q231.353 1091.87 234.613 1090.39 Q234.861 1090.24 235.009 1090.24 Q235.503 1090.24 235.528 1090.81 Q235.528 1091.01 235.108 1091.6 Q234.712 1092.17 233.848 1092.94 Q232.983 1093.68 231.871 1094.39 Q230.76 1095.11 229.129 1095.61 Q227.524 1096.07 225.745 1096.07 Q223.62 1096.07 221.447 1095.41 L221.447 1105.26 Q224.065 1102.69 227.869 1102.69 Q231.921 1102.69 234.712 1105.96 Q237.504 1109.22 237.504 1113.76 Q237.504 1118.53 234.194 1121.79 Q230.908 1125.05 226.461 1125.05 Q222.41 1125.05 219.841 1122.16 Q217.296 1119.27 217.296 1115.79 Z" fill="#000000" fill-rule="nonzero" fill-opacity="1" /><path clip-path="url(#clip770)" d="M242.197 1101.63 Q242.197 1098.94 242.988 1097.11 Q243.778 1095.26 245.434 1093.43 Q248.472 1090.24 252.869 1090.24 Q254.747 1090.24 256.402 1091.03 Q258.082 1091.83 259.663 1093.63 Q261.268 1095.41 262.232 1098.94 Q263.195 1102.45 263.195 1107.29 Q263.195 1115.12 259.391 1120.09 Q255.611 1125.05 250.498 1125.05 Q247.262 1125.05 245.359 1123.59 Q243.457 1122.11 243.457 1119.59 Q243.457 1118.28 244.198 1117.74 Q244.939 1117.17 245.779 1117.17 Q246.693 1117.17 247.41 1117.79 Q248.126 1118.38 248.126 1119.49 Q248.126 1120.41 247.533 1121.12 Q246.965 1121.82 245.483 1121.82 Q246.94 1123.64 250.448 1123.64 Q251.708 1123.64 252.968 1123.08 Q254.228 1122.48 255.587 1121.07 Q256.97 1119.64 257.81 1116.65 Q258.65 1113.66 258.65 1109.46 L258.65 1107.86 Q256.624 1112.92 252.326 1112.92 Q248.077 1112.92 245.137 1109.66 Q242.197 1106.4 242.197 1101.63 M246.743 1101.68 Q246.743 1106.7 247.657 1108.55 Q249.213 1111.74 252.375 1111.74 Q255.463 1111.74 256.995 1108.99 Q258.551 1106.23 258.551 1102.65 Q258.551 1097.68 257.736 1095.51 Q256.229 1091.5 252.869 1091.5 Q249.534 1091.5 247.805 1094.69 Q246.743 1096.57 246.743 1101.68 Z" fill="#000000" fill-rule="nonzero" fill-opacity="1" /><path clip-path="url(#clip770)" d="M177.252 854.231 Q177.252 846.796 179.13 842.744 Q181.748 836.717 187.924 836.717 Q189.233 836.717 190.592 837.087 Q191.975 837.433 193.705 838.792 Q195.459 840.15 196.521 842.374 Q198.547 846.672 198.547 854.231 Q198.547 861.618 196.669 865.644 Q193.927 871.524 187.875 871.524 Q185.602 871.524 183.28 870.363 Q180.982 869.201 179.525 866.41 Q177.252 862.235 177.252 854.231 M181.452 853.614 Q181.452 861.247 181.995 864.285 Q182.613 867.571 184.293 869.004 Q185.997 870.412 187.875 870.412 Q189.9 870.412 191.58 868.905 Q193.285 867.373 193.804 864.088 Q194.372 860.852 194.347 853.614 Q194.347 846.573 193.853 843.757 Q193.186 840.471 191.407 839.162 Q189.653 837.828 187.875 837.828 Q187.208 837.828 186.491 838.026 Q185.8 838.223 184.787 838.792 Q183.774 839.36 182.983 840.768 Q182.218 842.176 181.847 844.3 Q181.452 847.043 181.452 853.614 Z" fill="#000000" fill-rule="nonzero" fill-opacity="1" /><path clip-path="url(#clip770)" d="M205.636 869.597 Q204.871 868.781 204.871 867.719 Q204.871 866.657 205.636 865.891 Q206.402 865.101 207.563 865.101 Q208.675 865.101 209.416 865.842 Q210.182 866.558 210.182 867.744 Q210.182 868.905 209.367 869.671 Q208.576 870.412 207.563 870.412 Q206.402 870.412 205.636 869.597 Z" fill="#000000" fill-rule="nonzero" fill-opacity="1" /><path clip-path="url(#clip770)" d="M216.753 854.429 Q216.753 846.474 220.804 841.608 Q224.856 836.717 230.068 836.717 Q233.107 836.717 234.786 838.273 Q236.491 839.804 236.491 842.176 Q236.491 843.485 235.725 844.053 Q234.959 844.622 234.169 844.622 Q233.255 844.622 232.538 844.004 Q231.822 843.386 231.822 842.275 Q231.822 840.002 234.613 840.002 Q233.304 837.976 230.167 837.976 Q229.203 837.976 228.215 838.273 Q227.227 838.545 225.943 839.483 Q224.658 840.422 223.67 841.904 Q222.682 843.386 221.99 846.178 Q221.298 848.969 221.298 852.601 L221.298 853.811 Q223.373 848.796 227.622 848.821 Q231.871 848.821 234.811 852.057 Q237.751 855.293 237.751 860.086 Q237.751 865.002 234.688 868.263 Q231.624 871.524 227.326 871.524 Q225.399 871.524 223.645 870.708 Q221.916 869.918 220.286 868.09 Q218.68 866.262 217.716 862.754 Q216.753 859.246 216.753 854.429 M221.397 858.974 Q221.397 863.94 222.311 866.311 Q222.459 866.706 222.781 867.25 Q223.126 867.793 223.695 868.51 Q224.287 869.201 225.251 869.671 Q226.214 870.115 227.326 870.115 Q230.71 870.115 232.341 866.83 Q233.205 865.002 233.205 860.037 Q233.205 854.972 232.291 853.12 Q230.735 849.982 227.573 849.982 Q225.449 849.982 223.966 851.44 Q222.509 852.897 221.941 854.849 Q221.397 856.8 221.397 858.974 Z" fill="#000000" fill-rule="nonzero" fill-opacity="1" /><path clip-path="url(#clip770)" d="M241.901 854.231 Q241.901 846.796 243.778 842.744 Q246.397 836.717 252.573 836.717 Q253.882 836.717 255.241 837.087 Q256.624 837.433 258.353 838.792 Q260.107 840.15 261.17 842.374 Q263.195 846.672 263.195 854.231 Q263.195 861.618 261.318 865.644 Q258.576 871.524 252.523 871.524 Q250.251 871.524 247.929 870.363 Q245.631 869.201 244.174 866.41 Q241.901 862.235 241.901 854.231 M246.101 853.614 Q246.101 861.247 246.644 864.285 Q247.262 867.571 248.941 869.004 Q250.646 870.412 252.523 870.412 Q254.549 870.412 256.229 868.905 Q257.933 867.373 258.452 864.088 Q259.02 860.852 258.996 853.614 Q258.996 846.573 258.502 843.757 Q257.835 840.471 256.056 839.162 Q254.302 837.828 252.523 837.828 Q251.856 837.828 251.14 838.026 Q250.448 838.223 249.436 838.792 Q248.423 839.36 247.632 840.768 Q246.866 842.176 246.496 844.3 Q246.101 847.043 246.101 853.614 Z" fill="#000000" fill-rule="nonzero" fill-opacity="1" /><path clip-path="url(#clip770)" d="M179.327 600.703 Q179.327 593.268 181.205 589.216 Q183.823 583.189 189.999 583.189 Q191.308 583.189 192.667 583.559 Q194.051 583.905 195.78 585.264 Q197.534 586.622 198.596 588.846 Q200.622 593.144 200.622 600.703 Q200.622 608.09 198.744 612.116 Q196.002 617.996 189.95 617.996 Q187.677 617.996 185.355 616.835 Q183.058 615.674 181.6 612.882 Q179.327 608.707 179.327 600.703 M183.527 600.086 Q183.527 607.719 184.07 610.758 Q184.688 614.043 186.368 615.476 Q188.072 616.884 189.95 616.884 Q191.975 616.884 193.655 615.377 Q195.36 613.846 195.879 610.56 Q196.447 607.324 196.422 600.086 Q196.422 593.045 195.928 590.229 Q195.261 586.944 193.482 585.634 Q191.728 584.3 189.95 584.3 Q189.283 584.3 188.566 584.498 Q187.875 584.696 186.862 585.264 Q185.849 585.832 185.059 587.24 Q184.293 588.648 183.922 590.773 Q183.527 593.515 183.527 600.086 Z" fill="#000000" fill-rule="nonzero" fill-opacity="1" /><path clip-path="url(#clip770)" d="M207.712 616.069 Q206.946 615.254 206.946 614.191 Q206.946 613.129 207.712 612.363 Q208.477 611.573 209.638 611.573 Q210.75 611.573 211.491 612.314 Q212.257 613.03 212.257 614.216 Q212.257 615.377 211.442 616.143 Q210.651 616.884 209.638 616.884 Q208.477 616.884 207.712 616.069 Z" fill="#000000" fill-rule="nonzero" fill-opacity="1" /><path clip-path="url(#clip770)" d="M218.828 600.901 Q218.828 592.946 222.879 588.08 Q226.931 583.189 232.143 583.189 Q235.182 583.189 236.861 584.745 Q238.566 586.277 238.566 588.648 Q238.566 589.957 237.8 590.526 Q237.034 591.094 236.244 591.094 Q235.33 591.094 234.613 590.476 Q233.897 589.859 233.897 588.747 Q233.897 586.474 236.689 586.474 Q235.379 584.449 232.242 584.449 Q231.279 584.449 230.29 584.745 Q229.302 585.017 228.018 585.955 Q226.733 586.894 225.745 588.376 Q224.757 589.859 224.065 592.65 Q223.373 595.442 223.373 599.073 L223.373 600.283 Q225.449 595.269 229.698 595.293 Q233.946 595.293 236.886 598.529 Q239.826 601.766 239.826 606.558 Q239.826 611.474 236.763 614.735 Q233.699 617.996 229.401 617.996 Q227.474 617.996 225.72 617.18 Q223.991 616.39 222.361 614.562 Q220.755 612.734 219.791 609.226 Q218.828 605.718 218.828 600.901 M223.472 605.446 Q223.472 610.412 224.386 612.783 Q224.535 613.179 224.856 613.722 Q225.202 614.265 225.77 614.982 Q226.363 615.674 227.326 616.143 Q228.289 616.588 229.401 616.588 Q232.785 616.588 234.416 613.302 Q235.28 611.474 235.28 606.509 Q235.28 601.444 234.366 599.592 Q232.81 596.454 229.648 596.454 Q227.524 596.454 226.041 597.912 Q224.584 599.369 224.016 601.321 Q223.472 603.272 223.472 605.446 Z" fill="#000000" fill-rule="nonzero" fill-opacity="1" /><path clip-path="url(#clip770)" d="M246.496 588.006 L246.496 586.425 Q252.573 586.425 255.71 583.189 Q256.575 583.189 256.723 583.386 Q256.871 583.584 256.871 584.498 L256.871 612.882 Q256.871 614.389 257.612 614.858 Q258.353 615.328 261.59 615.328 L263.195 615.328 L263.195 616.884 Q261.417 616.736 254.994 616.736 Q248.571 616.736 246.817 616.884 L246.817 615.328 L248.423 615.328 Q251.609 615.328 252.375 614.883 Q253.141 614.414 253.141 612.882 L253.141 586.672 Q250.498 588.006 246.496 588.006 Z" fill="#000000" fill-rule="nonzero" fill-opacity="1" /><path clip-path="url(#clip770)" d="M177.796 347.175 Q177.796 339.74 179.673 335.688 Q182.292 329.661 188.468 329.661 Q189.777 329.661 191.136 330.031 Q192.519 330.377 194.248 331.736 Q196.002 333.095 197.064 335.318 Q199.09 339.616 199.09 347.175 Q199.09 354.562 197.213 358.588 Q194.471 364.468 188.418 364.468 Q186.145 364.468 183.823 363.307 Q181.526 362.146 180.068 359.354 Q177.796 355.179 177.796 347.175 M181.995 346.558 Q181.995 354.191 182.539 357.23 Q183.156 360.515 184.836 361.948 Q186.541 363.356 188.418 363.356 Q190.444 363.356 192.124 361.849 Q193.828 360.318 194.347 357.032 Q194.915 353.796 194.89 346.558 Q194.89 339.517 194.396 336.701 Q193.729 333.416 191.951 332.106 Q190.197 330.772 188.418 330.772 Q187.751 330.772 187.035 330.97 Q186.343 331.168 185.33 331.736 Q184.317 332.304 183.527 333.712 Q182.761 335.12 182.391 337.245 Q181.995 339.987 181.995 346.558 Z" fill="#000000" fill-rule="nonzero" fill-opacity="1" /><path clip-path="url(#clip770)" d="M206.18 362.541 Q205.414 361.726 205.414 360.663 Q205.414 359.601 206.18 358.835 Q206.946 358.045 208.107 358.045 Q209.218 358.045 209.96 358.786 Q210.725 359.502 210.725 360.688 Q210.725 361.849 209.91 362.615 Q209.12 363.356 208.107 363.356 Q206.946 363.356 206.18 362.541 Z" fill="#000000" fill-rule="nonzero" fill-opacity="1" /><path clip-path="url(#clip770)" d="M217.296 347.373 Q217.296 339.419 221.348 334.552 Q225.399 329.661 230.612 329.661 Q233.65 329.661 235.33 331.217 Q237.034 332.749 237.034 335.12 Q237.034 336.429 236.269 336.998 Q235.503 337.566 234.712 337.566 Q233.798 337.566 233.082 336.948 Q232.365 336.331 232.365 335.219 Q232.365 332.946 235.157 332.946 Q233.848 330.921 230.71 330.921 Q229.747 330.921 228.759 331.217 Q227.771 331.489 226.486 332.428 Q225.202 333.366 224.213 334.848 Q223.225 336.331 222.534 339.122 Q221.842 341.914 221.842 345.545 L221.842 346.755 Q223.917 341.741 228.166 341.765 Q232.415 341.765 235.355 345.002 Q238.294 348.238 238.294 353.03 Q238.294 357.946 235.231 361.207 Q232.168 364.468 227.869 364.468 Q225.943 364.468 224.189 363.653 Q222.459 362.862 220.829 361.034 Q219.223 359.206 218.26 355.698 Q217.296 352.19 217.296 347.373 M221.941 351.918 Q221.941 356.884 222.855 359.255 Q223.003 359.651 223.324 360.194 Q223.67 360.738 224.238 361.454 Q224.831 362.146 225.794 362.615 Q226.758 363.06 227.869 363.06 Q231.254 363.06 232.884 359.774 Q233.749 357.946 233.749 352.981 Q233.749 347.917 232.835 346.064 Q231.279 342.926 228.117 342.926 Q225.992 342.926 224.51 344.384 Q223.052 345.841 222.484 347.793 Q221.941 349.745 221.941 351.918 Z" fill="#000000" fill-rule="nonzero" fill-opacity="1" /><path clip-path="url(#clip770)" d="M242.988 363.356 Q242.988 362.442 243.062 362.17 Q243.161 361.899 243.556 361.479 L253.265 350.659 Q258.576 344.68 258.576 339.468 Q258.576 336.084 256.797 333.663 Q255.043 331.242 251.807 331.242 Q249.584 331.242 247.706 332.6 Q245.829 333.959 244.964 336.38 Q245.112 336.331 245.631 336.331 Q246.891 336.331 247.583 337.121 Q248.299 337.912 248.299 338.974 Q248.299 340.333 247.41 341 Q246.545 341.642 245.681 341.642 Q245.335 341.642 244.865 341.568 Q244.421 341.494 243.704 340.802 Q242.988 340.086 242.988 338.826 Q242.988 335.293 245.656 332.477 Q248.349 329.661 252.449 329.661 Q257.094 329.661 260.132 332.428 Q263.195 335.17 263.195 339.468 Q263.195 340.975 262.726 342.358 Q262.281 343.717 261.664 344.779 Q261.071 345.841 259.44 347.546 Q257.81 349.251 256.501 350.461 Q255.191 351.671 252.252 354.241 L246.891 359.453 L256.007 359.453 Q260.453 359.453 260.799 359.058 Q261.293 358.341 261.911 354.562 L263.195 354.562 L261.762 363.356 L242.988 363.356 Z" fill="#000000" fill-rule="nonzero" fill-opacity="1" /><path clip-path="url(#clip770)" d="M126.996 952.058 L124.856 952.058 Q124.856 948.356 124.415 947.506 Q123.939 946.657 121.697 946.657 L85.5224 946.657 Q82.9409 946.657 82.2956 947.574 Q81.6502 948.458 81.6502 952.058 L79.4763 952.058 L78.729 942.072 L102.914 942.072 L102.914 942.004 Q100.4 940.883 98.328 938.369 Q96.256 935.856 96.256 931.983 Q96.256 926.753 98.8375 924.681 Q100.57 923.152 102.506 922.846 Q104.442 922.507 109.469 922.507 L122.75 922.507 Q124.211 922.439 124.551 921.318 Q124.856 920.197 124.856 917.072 L126.996 917.072 Q126.792 924.171 126.792 924.884 Q126.792 925.428 126.996 932.731 L124.856 932.731 Q124.856 929.028 124.415 928.179 Q123.939 927.296 121.697 927.296 L105.495 927.296 Q101.963 927.296 99.8905 928.383 Q97.7846 929.47 97.7846 932.459 Q97.7846 936.06 100.808 938.947 Q103.831 941.834 108.926 941.834 L121.697 941.834 Q123.939 941.834 124.415 940.985 Q124.856 940.102 124.856 936.433 L126.996 936.433 Q126.792 943.532 126.792 944.212 Q126.792 944.755 126.996 952.058 Z" fill="#000000" fill-rule="nonzero" fill-opacity="1" /><path clip-path="url(#clip770)" d="M111.677 913.777 Q105.121 913.777 100.468 909.565 Q95.8145 905.353 95.8145 899.307 Q95.8145 893.193 99.7886 890.034 Q103.763 886.841 109.469 886.841 Q110.522 886.841 110.726 887.113 Q110.93 887.385 110.93 888.574 L110.93 908.003 Q118.029 908.003 121.358 905.897 Q126.011 902.976 126.011 898.05 Q126.011 897.371 125.875 896.556 Q125.74 895.741 125.162 894.076 Q124.551 892.412 122.954 890.951 Q121.358 889.491 118.844 888.641 Q117.859 888.438 117.893 887.758 Q117.893 886.841 118.708 886.841 Q119.32 886.841 120.712 887.521 Q122.071 888.166 123.701 889.423 Q125.332 890.679 126.555 893.125 Q127.778 895.537 127.778 898.458 Q127.778 904.572 123.158 909.192 Q118.505 913.777 111.677 913.777 M109.469 907.935 L109.469 891.427 Q108.009 891.427 106.378 891.698 Q104.748 891.936 102.506 892.684 Q100.23 893.397 98.8036 895.095 Q97.377 896.794 97.377 899.307 Q97.377 900.428 97.8525 901.651 Q98.328 902.84 99.4829 904.3 Q100.638 905.761 103.253 906.78 Q105.869 907.799 109.469 907.935 Z" fill="#000000" fill-rule="nonzero" fill-opacity="1" /><path clip-path="url(#clip770)" d="M126.996 882.527 L124.856 882.527 Q124.856 878.825 124.415 877.976 Q123.939 877.127 121.697 877.127 L85.5224 877.127 Q82.9409 877.127 82.2956 878.044 Q81.6502 878.927 81.6502 882.527 L79.4763 882.527 L78.729 872.541 L121.697 872.541 Q123.939 872.541 124.415 871.658 Q124.856 870.775 124.856 867.106 L126.996 867.106 Q126.996 867.955 126.928 869.722 Q126.86 871.488 126.826 872.779 Q126.792 874.07 126.792 874.817 Q126.792 875.632 126.996 882.527 Z" fill="#000000" fill-rule="nonzero" fill-opacity="1" /><path clip-path="url(#clip770)" d="M126.996 863.268 L124.856 863.268 Q124.856 859.566 124.415 858.716 Q123.939 857.867 121.697 857.867 L102.982 857.867 Q100.4 857.867 99.7886 858.75 Q99.1772 859.6 99.1772 862.996 L97.0033 862.996 L96.256 853.282 L121.765 853.282 Q123.837 853.282 124.347 852.534 Q124.856 851.787 124.856 848.39 L126.996 848.39 Q126.792 855.49 126.792 855.625 Q126.792 856.576 126.996 863.268 M84.1298 860.347 Q82.7371 860.347 81.6162 859.294 Q80.4613 858.207 80.4613 856.678 Q80.4613 855.15 81.5143 854.063 Q82.5333 852.976 84.1637 852.976 Q85.7602 852.976 86.8132 854.063 Q87.8322 855.15 87.8322 856.678 Q87.8322 858.275 86.7113 859.328 Q85.5904 860.347 84.1298 860.347 Z" fill="#000000" fill-rule="nonzero" fill-opacity="1" /><path clip-path="url(#clip770)" d="M123.192 839.525 Q118.572 843.941 111.983 843.941 Q105.359 843.941 100.604 839.593 Q95.8145 835.245 95.8145 828.859 Q95.8145 824.613 97.8525 821.421 Q99.8566 818.228 103.287 818.228 Q104.816 818.228 105.699 819.145 Q106.548 820.028 106.548 821.421 Q106.548 822.881 105.665 823.764 Q104.748 824.613 103.355 824.613 Q102.744 824.613 102.132 824.41 Q101.521 824.206 100.876 823.459 Q100.23 822.677 100.128 821.353 Q97.5808 823.832 97.5808 828.656 Q97.5808 828.723 97.5808 828.791 Q97.5808 832.324 100.91 835.245 Q104.238 838.166 111.847 838.166 Q115.821 838.166 118.742 837.215 Q121.629 836.23 123.124 834.634 Q124.619 833.037 125.332 831.475 Q126.011 829.912 126.011 828.384 Q126.011 821.556 118.708 819.247 Q118.029 819.043 118.029 818.363 Q118.029 817.446 118.708 817.446 Q119.048 817.446 119.931 817.718 Q120.814 817.99 122.207 818.839 Q123.6 819.688 124.822 820.911 Q126.011 822.1 126.894 824.24 Q127.778 826.346 127.778 828.995 Q127.778 835.109 123.192 839.525 Z" fill="#000000" fill-rule="nonzero" fill-opacity="1" /><path clip-path="url(#clip770)" d="M120.373 812.521 Q114.462 812.521 111.337 805.558 Q109.333 801.38 108.824 792.752 L106.276 792.752 Q101.963 792.752 99.6867 795.028 Q97.377 797.27 97.377 800.123 Q97.377 805.218 100.57 807.664 Q100.638 805.592 101.691 804.845 Q102.71 804.097 103.763 804.097 Q105.155 804.097 106.073 804.98 Q106.956 805.83 106.956 807.29 Q106.956 808.683 106.107 809.6 Q105.223 810.517 103.695 810.517 Q100.298 810.517 98.0563 807.46 Q95.8145 804.369 95.8145 799.987 Q95.8145 794.281 99.6528 790.476 Q100.842 789.288 102.37 788.71 Q103.899 788.099 104.918 788.031 Q105.903 787.963 107.873 787.963 L121.765 787.963 Q122.173 787.963 122.852 787.827 Q123.532 787.691 124.415 787.08 Q125.264 786.434 125.264 785.381 Q125.264 782.868 120.814 782.902 L116.908 782.902 L116.908 781.136 L120.814 781.136 Q124.517 781.136 125.977 783.106 Q127.404 785.042 127.404 786.842 Q127.404 789.152 125.706 790.612 Q124.007 792.073 121.697 792.277 Q124.347 793.33 126.079 795.741 Q127.778 798.119 127.778 801.38 Q127.778 803.893 127.132 806.271 Q126.521 808.615 124.788 810.585 Q123.022 812.521 120.373 812.521 M120.305 807.154 Q122.886 807.154 124.551 805.32 Q126.215 803.486 126.215 800.904 Q126.215 797.983 123.973 795.368 Q121.697 792.752 117.248 792.752 L110.284 792.752 Q110.556 800.463 113.647 803.826 Q116.704 807.154 120.305 807.154 Z" fill="#000000" fill-rule="nonzero" fill-opacity="1" /><path clip-path="url(#clip770)" d="M126.996 778.35 L124.856 778.35 Q124.856 774.648 124.415 773.799 Q123.939 772.949 121.697 772.949 L85.5224 772.949 Q82.9409 772.949 82.2956 773.867 Q81.6502 774.75 81.6502 778.35 L79.4763 778.35 L78.729 768.364 L121.697 768.364 Q123.939 768.364 124.415 767.481 Q124.856 766.598 124.856 762.929 L126.996 762.929 Q126.996 763.778 126.928 765.545 Q126.86 767.311 126.826 768.602 Q126.792 769.892 126.792 770.64 Q126.792 771.455 126.996 778.35 Z" fill="#000000" fill-rule="nonzero" fill-opacity="1" /><path clip-path="url(#clip770)" d="M123.192 731.476 Q118.572 735.891 111.983 735.891 Q105.359 735.891 100.604 731.544 Q95.8145 727.196 95.8145 720.81 Q95.8145 716.564 97.8525 713.371 Q99.8566 710.178 103.287 710.178 Q104.816 710.178 105.699 711.095 Q106.548 711.978 106.548 713.371 Q106.548 714.832 105.665 715.715 Q104.748 716.564 103.355 716.564 Q102.744 716.564 102.132 716.36 Q101.521 716.156 100.876 715.409 Q100.23 714.628 100.128 713.303 Q97.5808 715.783 97.5808 720.606 Q97.5808 720.674 97.5808 720.742 Q97.5808 724.275 100.91 727.196 Q104.238 730.117 111.847 730.117 Q115.821 730.117 118.742 729.166 Q121.629 728.181 123.124 726.584 Q124.619 724.988 125.332 723.425 Q126.011 721.863 126.011 720.334 Q126.011 713.507 118.708 711.197 Q118.029 710.993 118.029 710.314 Q118.029 709.397 118.708 709.397 Q119.048 709.397 119.931 709.669 Q120.814 709.94 122.207 710.79 Q123.6 711.639 124.822 712.862 Q126.011 714.05 126.894 716.19 Q127.778 718.296 127.778 720.946 Q127.778 727.06 123.192 731.476 Z" fill="#000000" fill-rule="nonzero" fill-opacity="1" /><path clip-path="url(#clip770)" d="M123.26 700.871 Q118.708 705.457 112.119 705.457 Q105.495 705.457 100.672 700.973 Q95.8145 696.455 95.8145 690.002 Q95.8145 683.684 100.638 679.166 Q105.427 674.615 112.119 674.615 Q118.674 674.615 123.226 679.2 Q127.778 683.752 127.778 690.07 Q127.778 696.252 123.26 700.871 M111.541 699.682 Q118.301 699.682 121.358 697.916 Q126.011 695.199 126.011 690.002 Q126.011 687.42 124.619 685.28 Q123.226 683.106 120.882 681.918 Q117.825 680.389 111.541 680.389 Q104.85 680.389 101.895 682.223 Q97.377 684.941 97.377 690.07 Q97.377 692.311 98.5658 694.519 Q99.7207 696.693 102.03 698.018 Q105.087 699.682 111.541 699.682 Z" fill="#000000" fill-rule="nonzero" fill-opacity="1" /><path clip-path="url(#clip770)" d="M126.996 670.369 L124.856 670.369 Q124.856 666.666 124.415 665.817 Q123.939 664.968 121.697 664.968 L103.049 664.968 Q100.468 664.968 99.8226 665.885 Q99.1772 666.768 99.1772 670.369 L97.0033 670.369 L96.256 660.586 L103.559 660.586 Q96.256 657.325 96.256 650.294 Q96.256 645.063 98.8375 642.991 Q100.57 641.463 102.506 641.157 Q104.442 640.817 109.469 640.817 L122.75 640.817 Q124.211 640.749 124.551 639.628 Q124.856 638.508 124.856 635.383 L126.996 635.383 Q126.792 642.482 126.792 643.195 Q126.792 643.739 126.996 651.041 L124.856 651.041 Q124.856 647.339 124.415 646.49 Q123.939 645.607 121.697 645.607 L105.495 645.607 Q101.963 645.607 99.8905 646.694 Q97.7846 647.781 97.7846 650.77 Q97.7846 654.37 100.808 657.257 Q103.831 660.145 108.926 660.145 L121.697 660.145 Q123.939 660.145 124.415 659.295 Q124.856 658.412 124.856 654.744 L126.996 654.744 Q126.792 661.843 126.792 662.522 Q126.792 663.066 126.996 670.369 Z" fill="#000000" fill-rule="nonzero" fill-opacity="1" /><path clip-path="url(#clip770)" d="M99.1772 634.635 L97.6487 634.635 Q97.5128 631.442 95.271 629.336 Q92.9952 627.197 90.2099 626.483 Q87.4246 625.736 84.1977 625.668 L84.1977 623.936 L97.0033 623.936 L97.0033 613.983 L99.1772 613.983 L99.1772 623.936 L118.505 623.936 Q126.011 623.936 126.011 619.248 Q126.011 617.244 123.973 615.919 Q121.901 614.595 118.233 614.595 L114.394 614.595 L114.394 612.862 L118.369 612.862 Q122.139 612.862 124.958 614.595 Q127.778 616.327 127.778 619.758 Q127.778 621.015 127.438 622.271 Q127.132 623.494 126.317 625.125 Q125.468 626.721 123.43 627.74 Q121.358 628.725 118.369 628.725 L99.1772 628.725 L99.1772 634.635 Z" fill="#000000" fill-rule="nonzero" fill-opacity="1" /><path clip-path="url(#clip770)" d="M111.677 607.054 Q105.121 607.054 100.468 602.842 Q95.8145 598.63 95.8145 592.584 Q95.8145 586.47 99.7886 583.311 Q103.763 580.118 109.469 580.118 Q110.522 580.118 110.726 580.39 Q110.93 580.662 110.93 581.85 L110.93 601.28 Q118.029 601.28 121.358 599.174 Q126.011 596.252 126.011 591.327 Q126.011 590.648 125.875 589.833 Q125.74 589.017 125.162 587.353 Q124.551 585.689 122.954 584.228 Q121.358 582.768 118.844 581.918 Q117.859 581.715 117.893 581.035 Q117.893 580.118 118.708 580.118 Q119.32 580.118 120.712 580.797 Q122.071 581.443 123.701 582.7 Q125.332 583.956 126.555 586.402 Q127.778 588.814 127.778 591.735 Q127.778 597.849 123.158 602.468 Q118.505 607.054 111.677 607.054 M109.469 601.212 L109.469 584.704 Q108.009 584.704 106.378 584.975 Q104.748 585.213 102.506 585.96 Q100.23 586.674 98.8036 588.372 Q97.377 590.07 97.377 592.584 Q97.377 593.705 97.8525 594.928 Q98.328 596.117 99.4829 597.577 Q100.638 599.038 103.253 600.057 Q105.869 601.076 109.469 601.212 Z" fill="#000000" fill-rule="nonzero" fill-opacity="1" /><path clip-path="url(#clip770)" d="M126.996 575.872 L124.856 575.872 Q124.856 572.17 124.415 571.321 Q123.939 570.471 121.697 570.471 L103.049 570.471 Q100.468 570.471 99.8226 571.389 Q99.1772 572.272 99.1772 575.872 L97.0033 575.872 L96.256 566.09 L103.559 566.09 Q96.256 562.829 96.256 555.798 Q96.256 550.567 98.8375 548.495 Q100.57 546.966 102.506 546.66 Q104.442 546.321 109.469 546.321 L122.75 546.321 Q124.211 546.253 124.551 545.132 Q124.856 544.011 124.856 540.886 L126.996 540.886 Q126.792 547.985 126.792 548.699 Q126.792 549.242 126.996 556.545 L124.856 556.545 Q124.856 552.843 124.415 551.993 Q123.939 551.11 121.697 551.11 L105.495 551.11 Q101.963 551.11 99.8905 552.197 Q97.7846 553.284 97.7846 556.273 Q97.7846 559.874 100.808 562.761 Q103.831 565.648 108.926 565.648 L121.697 565.648 Q123.939 565.648 124.415 564.799 Q124.856 563.916 124.856 560.247 L126.996 560.247 Q126.792 567.346 126.792 568.026 Q126.792 568.569 126.996 575.872 Z" fill="#000000" fill-rule="nonzero" fill-opacity="1" /><path clip-path="url(#clip770)" d="M99.1772 540.139 L97.6487 540.139 Q97.5128 536.946 95.271 534.84 Q92.9952 532.7 90.2099 531.987 Q87.4246 531.239 84.1977 531.171 L84.1977 529.439 L97.0033 529.439 L97.0033 519.487 L99.1772 519.487 L99.1772 529.439 L118.505 529.439 Q126.011 529.439 126.011 524.752 Q126.011 522.748 123.973 521.423 Q121.901 520.098 118.233 520.098 L114.394 520.098 L114.394 518.366 L118.369 518.366 Q122.139 518.366 124.958 520.098 Q127.778 521.831 127.778 525.261 Q127.778 526.518 127.438 527.775 Q127.132 528.998 126.317 530.628 Q125.468 532.224 123.43 533.243 Q121.358 534.229 118.369 534.229 L99.1772 534.229 L99.1772 540.139 Z" fill="#000000" fill-rule="nonzero" fill-opacity="1" /><polyline clip-path="url(#clip772)" style="stroke:#009af9; stroke-linecap:round; stroke-linejoin:round; stroke-width:8; stroke-opacity:1; fill:none" points="355.532,145.612 825.006,145.612 1294.48,1324.81 1763.95,735.212 2233.43,735.212 "/>
</svg>
