<?xml version="1.0" encoding="utf-8"?>
<svg xmlns="http://www.w3.org/2000/svg" xmlns:xlink="http://www.w3.org/1999/xlink" width="600" height="400" viewBox="0 0 2400 1600">
<defs>
  <clipPath id="clip080">
    <rect x="0" y="0" width="2400" height="1600"/>
  </clipPath>
</defs>
<path clip-path="url(#clip080)" d="M0 1600 L2400 1600 L2400 0 L0 0  Z" fill="#ffffff" fill-rule="evenodd" fill-opacity="1"/>
<defs>
  <clipPath id="clip081">
    <rect x="480" y="0" width="1681" height="1600"/>
  </clipPath>
</defs>
<path clip-path="url(#clip080)" d="M299.195 1360.19 L2289.76 1360.19 L2289.76 110.236 L299.195 110.236  Z" fill="#ffffff" fill-rule="evenodd" fill-opacity="1"/>
<defs>
  <clipPath id="clip082">
    <rect x="299" y="110" width="1992" height="1251"/>
  </clipPath>
</defs>
<polyline clip-path="url(#clip080)" style="stroke:#000000; stroke-linecap:round; stroke-linejoin:round; stroke-width:4; stroke-opacity:1; fill:none" points="299.195,1360.19 2289.76,1360.19 "/>
<polyline clip-path="url(#clip080)" style="stroke:#000000; stroke-linecap:round; stroke-linejoin:round; stroke-width:4; stroke-opacity:1; fill:none" points="299.195,110.236 2289.76,110.236 "/>
<polyline clip-path="url(#clip080)" style="stroke:#000000; stroke-linecap:round; stroke-linejoin:round; stroke-width:4; stroke-opacity:1; fill:none" points="543.263,1360.19 543.263,1341.29 "/>
<polyline clip-path="url(#clip080)" style="stroke:#000000; stroke-linecap:round; stroke-linejoin:round; stroke-width:4; stroke-opacity:1; fill:none" points="976.038,1360.19 976.038,1341.29 "/>
<polyline clip-path="url(#clip080)" style="stroke:#000000; stroke-linecap:round; stroke-linejoin:round; stroke-width:4; stroke-opacity:1; fill:none" points="1408.81,1360.19 1408.81,1341.29 "/>
<polyline clip-path="url(#clip080)" style="stroke:#000000; stroke-linecap:round; stroke-linejoin:round; stroke-width:4; stroke-opacity:1; fill:none" points="1841.59,1360.19 1841.59,1341.29 "/>
<polyline clip-path="url(#clip080)" style="stroke:#000000; stroke-linecap:round; stroke-linejoin:round; stroke-width:4; stroke-opacity:1; fill:none" points="2274.37,1360.19 2274.37,1341.29 "/>
<polyline clip-path="url(#clip080)" style="stroke:#000000; stroke-linecap:round; stroke-linejoin:round; stroke-width:4; stroke-opacity:1; fill:none" points="543.263,110.236 543.263,129.134 "/>
<polyline clip-path="url(#clip080)" style="stroke:#000000; stroke-linecap:round; stroke-linejoin:round; stroke-width:4; stroke-opacity:1; fill:none" points="976.038,110.236 976.038,129.134 "/>
<polyline clip-path="url(#clip080)" style="stroke:#000000; stroke-linecap:round; stroke-linejoin:round; stroke-width:4; stroke-opacity:1; fill:none" points="1408.81,110.236 1408.81,129.134 "/>
<polyline clip-path="url(#clip080)" style="stroke:#000000; stroke-linecap:round; stroke-linejoin:round; stroke-width:4; stroke-opacity:1; fill:none" points="1841.59,110.236 1841.59,129.134 "/>
<polyline clip-path="url(#clip080)" style="stroke:#000000; stroke-linecap:round; stroke-linejoin:round; stroke-width:4; stroke-opacity:1; fill:none" points="2274.37,110.236 2274.37,129.134 "/>
<path clip-path="url(#clip080)" d="M513.211 1406.41 Q513.211 1398.97 515.088 1394.92 Q517.707 1388.89 523.883 1388.89 Q525.192 1388.89 526.551 1389.26 Q527.934 1389.61 529.663 1390.97 Q531.417 1392.33 532.48 1394.55 Q534.505 1398.85 534.505 1406.41 Q534.505 1413.79 532.628 1417.82 Q529.886 1423.7 523.833 1423.7 Q521.561 1423.7 519.239 1422.54 Q516.941 1421.38 515.484 1418.59 Q513.211 1414.41 513.211 1406.41 M517.41 1405.79 Q517.41 1413.42 517.954 1416.46 Q518.572 1419.75 520.251 1421.18 Q521.956 1422.59 523.833 1422.59 Q525.859 1422.59 527.539 1421.08 Q529.243 1419.55 529.762 1416.26 Q530.33 1413.03 530.306 1405.79 Q530.306 1398.75 529.812 1395.93 Q529.145 1392.65 527.366 1391.34 Q525.612 1390 523.833 1390 Q523.166 1390 522.45 1390.2 Q521.758 1390.4 520.745 1390.97 Q519.733 1391.54 518.942 1392.94 Q518.176 1394.35 517.806 1396.48 Q517.41 1399.22 517.41 1405.79 Z" fill="#000000" fill-rule="nonzero" fill-opacity="1" /><path clip-path="url(#clip080)" d="M541.595 1421.77 Q540.829 1420.96 540.829 1419.9 Q540.829 1418.83 541.595 1418.07 Q542.361 1417.28 543.522 1417.28 Q544.634 1417.28 545.375 1418.02 Q546.14 1418.73 546.14 1419.92 Q546.14 1421.08 545.325 1421.85 Q544.535 1422.59 543.522 1422.59 Q542.361 1422.59 541.595 1421.77 Z" fill="#000000" fill-rule="nonzero" fill-opacity="1" /><path clip-path="url(#clip080)" d="M553.107 1422.59 Q553.107 1421.67 553.181 1421.4 Q553.28 1421.13 553.675 1420.71 L563.383 1409.89 Q568.695 1403.91 568.695 1398.7 Q568.695 1395.32 566.916 1392.89 Q565.162 1390.47 561.926 1390.47 Q559.703 1390.47 557.825 1391.83 Q555.948 1393.19 555.083 1395.61 Q555.231 1395.56 555.75 1395.56 Q557.01 1395.56 557.702 1396.35 Q558.418 1397.14 558.418 1398.21 Q558.418 1399.56 557.529 1400.23 Q556.664 1400.87 555.799 1400.87 Q555.454 1400.87 554.984 1400.8 Q554.54 1400.73 553.823 1400.03 Q553.107 1399.32 553.107 1398.06 Q553.107 1394.52 555.775 1391.71 Q558.467 1388.89 562.568 1388.89 Q567.212 1388.89 570.251 1391.66 Q573.314 1394.4 573.314 1398.7 Q573.314 1400.21 572.845 1401.59 Q572.4 1402.95 571.783 1404.01 Q571.19 1405.07 569.559 1406.78 Q567.929 1408.48 566.62 1409.69 Q565.31 1410.9 562.371 1413.47 L557.01 1418.68 L566.125 1418.68 Q570.572 1418.68 570.918 1418.29 Q571.412 1417.57 572.03 1413.79 L573.314 1413.79 L571.881 1422.59 L553.107 1422.59 Z" fill="#000000" fill-rule="nonzero" fill-opacity="1" /><path clip-path="url(#clip080)" d="M945.431 1406.41 Q945.431 1398.97 947.308 1394.92 Q949.927 1388.89 956.103 1388.89 Q957.412 1388.89 958.771 1389.26 Q960.154 1389.61 961.883 1390.97 Q963.637 1392.33 964.699 1394.55 Q966.725 1398.85 966.725 1406.41 Q966.725 1413.79 964.848 1417.82 Q962.106 1423.7 956.053 1423.7 Q953.781 1423.7 951.458 1422.54 Q949.161 1421.38 947.704 1418.59 Q945.431 1414.41 945.431 1406.41 M949.63 1405.79 Q949.63 1413.42 950.174 1416.46 Q950.791 1419.75 952.471 1421.18 Q954.176 1422.59 956.053 1422.59 Q958.079 1422.59 959.759 1421.08 Q961.463 1419.55 961.982 1416.26 Q962.55 1413.03 962.526 1405.79 Q962.526 1398.75 962.031 1395.93 Q961.364 1392.65 959.586 1391.34 Q957.832 1390 956.053 1390 Q955.386 1390 954.67 1390.2 Q953.978 1390.4 952.965 1390.97 Q951.952 1391.54 951.162 1392.94 Q950.396 1394.35 950.026 1396.48 Q949.63 1399.22 949.63 1405.79 Z" fill="#000000" fill-rule="nonzero" fill-opacity="1" /><path clip-path="url(#clip080)" d="M973.815 1421.77 Q973.049 1420.96 973.049 1419.9 Q973.049 1418.83 973.815 1418.07 Q974.581 1417.28 975.742 1417.28 Q976.853 1417.28 977.595 1418.02 Q978.36 1418.73 978.36 1419.92 Q978.36 1421.08 977.545 1421.85 Q976.755 1422.59 975.742 1422.59 Q974.581 1422.59 973.815 1421.77 Z" fill="#000000" fill-rule="nonzero" fill-opacity="1" /><path clip-path="url(#clip080)" d="M984.215 1414.24 L984.215 1412.68 L999.753 1388.94 Q1000.15 1388.32 1000.77 1388.35 Q1001.33 1388.35 1001.46 1388.57 Q1001.58 1388.79 1001.58 1389.66 L1001.58 1412.68 L1006.65 1412.68 L1006.65 1414.24 L1001.58 1414.24 L1001.58 1418.64 Q1001.58 1420.09 1002.17 1420.56 Q1002.79 1421.03 1005.41 1421.03 L1006.47 1421.03 L1006.47 1422.59 Q1004.4 1422.44 999.605 1422.44 Q994.838 1422.44 992.762 1422.59 L992.762 1421.03 L993.825 1421.03 Q996.443 1421.03 997.061 1420.59 Q997.678 1420.12 997.678 1418.64 L997.678 1414.24 L984.215 1414.24 M985.648 1412.68 L997.975 1412.68 L997.975 1393.81 L985.648 1412.68 Z" fill="#000000" fill-rule="nonzero" fill-opacity="1" /><path clip-path="url(#clip080)" d="M1378.56 1406.41 Q1378.56 1398.97 1380.44 1394.92 Q1383.06 1388.89 1389.24 1388.89 Q1390.55 1388.89 1391.9 1389.26 Q1393.29 1389.61 1395.02 1390.97 Q1396.77 1392.33 1397.83 1394.55 Q1399.86 1398.85 1399.86 1406.41 Q1399.86 1413.79 1397.98 1417.82 Q1395.24 1423.7 1389.19 1423.7 Q1386.91 1423.7 1384.59 1422.54 Q1382.29 1421.38 1380.84 1418.59 Q1378.56 1414.41 1378.56 1406.41 M1382.76 1405.79 Q1382.76 1413.42 1383.31 1416.46 Q1383.93 1419.75 1385.61 1421.18 Q1387.31 1422.59 1389.19 1422.59 Q1391.21 1422.59 1392.89 1421.08 Q1394.6 1419.55 1395.12 1416.26 Q1395.68 1413.03 1395.66 1405.79 Q1395.66 1398.75 1395.17 1395.93 Q1394.5 1392.65 1392.72 1391.34 Q1390.97 1390 1389.19 1390 Q1388.52 1390 1387.8 1390.2 Q1387.11 1390.4 1386.1 1390.97 Q1385.09 1391.54 1384.3 1392.94 Q1383.53 1394.35 1383.16 1396.48 Q1382.76 1399.22 1382.76 1405.79 Z" fill="#000000" fill-rule="nonzero" fill-opacity="1" /><path clip-path="url(#clip080)" d="M1406.95 1421.77 Q1406.18 1420.96 1406.18 1419.9 Q1406.18 1418.83 1406.95 1418.07 Q1407.71 1417.28 1408.88 1417.28 Q1409.99 1417.28 1410.73 1418.02 Q1411.49 1418.73 1411.49 1419.92 Q1411.49 1421.08 1410.68 1421.85 Q1409.89 1422.59 1408.88 1422.59 Q1407.71 1422.59 1406.95 1421.77 Z" fill="#000000" fill-rule="nonzero" fill-opacity="1" /><path clip-path="url(#clip080)" d="M1418.07 1406.6 Q1418.07 1398.65 1422.12 1393.78 Q1426.17 1388.89 1431.38 1388.89 Q1434.42 1388.89 1436.1 1390.45 Q1437.8 1391.98 1437.8 1394.35 Q1437.8 1395.66 1437.04 1396.23 Q1436.27 1396.8 1435.48 1396.8 Q1434.57 1396.8 1433.85 1396.18 Q1433.13 1395.56 1433.13 1394.45 Q1433.13 1392.18 1435.93 1392.18 Q1434.62 1390.15 1431.48 1390.15 Q1430.52 1390.15 1429.53 1390.45 Q1428.54 1390.72 1427.26 1391.66 Q1425.97 1392.6 1424.98 1394.08 Q1423.99 1395.56 1423.3 1398.35 Q1422.61 1401.15 1422.61 1404.78 L1422.61 1405.99 Q1424.69 1400.97 1428.93 1401 Q1433.18 1401 1436.12 1404.23 Q1439.06 1407.47 1439.06 1412.26 Q1439.06 1417.18 1436 1420.44 Q1432.94 1423.7 1428.64 1423.7 Q1426.71 1423.7 1424.96 1422.88 Q1423.23 1422.09 1421.6 1420.27 Q1419.99 1418.44 1419.03 1414.93 Q1418.07 1411.42 1418.07 1406.6 M1422.71 1411.15 Q1422.71 1416.12 1423.62 1418.49 Q1423.77 1418.88 1424.09 1419.43 Q1424.44 1419.97 1425.01 1420.69 Q1425.6 1421.38 1426.56 1421.85 Q1427.53 1422.29 1428.64 1422.29 Q1432.02 1422.29 1433.65 1419.01 Q1434.52 1417.18 1434.52 1412.21 Q1434.52 1407.15 1433.6 1405.3 Q1432.05 1402.16 1428.89 1402.16 Q1426.76 1402.16 1425.28 1403.62 Q1423.82 1405.07 1423.25 1407.02 Q1422.71 1408.98 1422.71 1411.15 Z" fill="#000000" fill-rule="nonzero" fill-opacity="1" /><path clip-path="url(#clip080)" d="M1811.34 1406.41 Q1811.34 1398.97 1813.22 1394.92 Q1815.84 1388.89 1822.01 1388.89 Q1823.32 1388.89 1824.68 1389.26 Q1826.06 1389.61 1827.79 1390.97 Q1829.55 1392.33 1830.61 1394.55 Q1832.63 1398.85 1832.63 1406.41 Q1832.63 1413.79 1830.76 1417.82 Q1828.02 1423.7 1821.96 1423.7 Q1819.69 1423.7 1817.37 1422.54 Q1815.07 1421.38 1813.61 1418.59 Q1811.34 1414.41 1811.34 1406.41 M1815.54 1405.79 Q1815.54 1413.42 1816.08 1416.46 Q1816.7 1419.75 1818.38 1421.18 Q1820.09 1422.59 1821.96 1422.59 Q1823.99 1422.59 1825.67 1421.08 Q1827.37 1419.55 1827.89 1416.26 Q1828.46 1413.03 1828.44 1405.79 Q1828.44 1398.75 1827.94 1395.93 Q1827.27 1392.65 1825.5 1391.34 Q1823.74 1390 1821.96 1390 Q1821.3 1390 1820.58 1390.2 Q1819.89 1390.4 1818.88 1390.97 Q1817.86 1391.54 1817.07 1392.94 Q1816.31 1394.35 1815.94 1396.48 Q1815.54 1399.22 1815.54 1405.79 Z" fill="#000000" fill-rule="nonzero" fill-opacity="1" /><path clip-path="url(#clip080)" d="M1839.72 1421.77 Q1838.96 1420.96 1838.96 1419.9 Q1838.96 1418.83 1839.72 1418.07 Q1840.49 1417.28 1841.65 1417.28 Q1842.76 1417.28 1843.5 1418.02 Q1844.27 1418.73 1844.27 1419.92 Q1844.27 1421.08 1843.45 1421.85 Q1842.66 1422.59 1841.65 1422.59 Q1840.49 1422.59 1839.72 1421.77 Z" fill="#000000" fill-rule="nonzero" fill-opacity="1" /><path clip-path="url(#clip080)" d="M1850.84 1414.95 Q1850.84 1409.3 1858.13 1405.64 Q1854.99 1403.52 1854.42 1402.9 Q1852.2 1400.43 1852.2 1397.34 Q1852.2 1393.81 1854.87 1391.36 Q1857.56 1388.89 1861.36 1388.89 Q1865 1388.89 1867.74 1390.99 Q1870.48 1393.09 1870.48 1396.43 Q1870.48 1401.12 1864.35 1404.28 Q1868.41 1406.8 1869.37 1407.86 Q1871.84 1410.61 1871.84 1414.09 Q1871.84 1418.14 1868.73 1420.93 Q1865.61 1423.7 1861.32 1423.7 Q1857.12 1423.7 1853.98 1421.25 Q1850.84 1418.81 1850.84 1414.95 M1853.36 1414.95 Q1853.36 1418.09 1855.71 1420.19 Q1858.08 1422.29 1861.36 1422.29 Q1864.55 1422.29 1866.92 1420.46 Q1869.32 1418.64 1869.32 1415.92 Q1869.32 1414.86 1868.95 1413.94 Q1868.6 1413.03 1867.89 1412.31 Q1867.19 1411.57 1866.75 1411.25 Q1866.33 1410.9 1865.51 1410.33 L1859.29 1406.41 Q1853.36 1409.69 1853.36 1414.95 M1854.42 1395.36 Q1854.42 1397.79 1856.97 1399.47 L1863.24 1403.52 Q1868.26 1400.58 1868.26 1396.43 Q1868.26 1393.73 1866.21 1391.96 Q1864.16 1390.15 1861.32 1390.15 Q1858.52 1390.15 1856.47 1391.63 Q1854.42 1393.09 1854.42 1395.36 Z" fill="#000000" fill-rule="nonzero" fill-opacity="1" /><path clip-path="url(#clip080)" d="M2245.3 1393.71 L2245.3 1392.13 Q2251.38 1392.13 2254.52 1388.89 Q2255.38 1388.89 2255.53 1389.09 Q2255.68 1389.29 2255.68 1390.2 L2255.68 1418.59 Q2255.68 1420.09 2256.42 1420.56 Q2257.16 1421.03 2260.4 1421.03 L2262 1421.03 L2262 1422.59 Q2260.22 1422.44 2253.8 1422.44 Q2247.38 1422.44 2245.62 1422.59 L2245.62 1421.03 L2247.23 1421.03 Q2250.42 1421.03 2251.18 1420.59 Q2251.95 1420.12 2251.95 1418.59 L2251.95 1392.38 Q2249.3 1393.71 2245.3 1393.71 Z" fill="#000000" fill-rule="nonzero" fill-opacity="1" /><path clip-path="url(#clip080)" d="M2271.17 1421.77 Q2270.4 1420.96 2270.4 1419.9 Q2270.4 1418.83 2271.17 1418.07 Q2271.93 1417.28 2273.09 1417.28 Q2274.2 1417.28 2274.95 1418.02 Q2275.71 1418.73 2275.71 1419.92 Q2275.71 1421.08 2274.9 1421.85 Q2274.11 1422.59 2273.09 1422.59 Q2271.93 1422.59 2271.17 1421.77 Z" fill="#000000" fill-rule="nonzero" fill-opacity="1" /><path clip-path="url(#clip080)" d="M2282.13 1406.41 Q2282.13 1398.97 2284.01 1394.92 Q2286.63 1388.89 2292.81 1388.89 Q2294.12 1388.89 2295.47 1389.26 Q2296.86 1389.61 2298.59 1390.97 Q2300.34 1392.33 2301.4 1394.55 Q2303.43 1398.85 2303.43 1406.41 Q2303.43 1413.79 2301.55 1417.82 Q2298.81 1423.7 2292.76 1423.7 Q2290.48 1423.7 2288.16 1422.54 Q2285.86 1421.38 2284.41 1418.59 Q2282.13 1414.41 2282.13 1406.41 M2286.33 1405.79 Q2286.33 1413.42 2286.88 1416.46 Q2287.5 1419.75 2289.18 1421.18 Q2290.88 1422.59 2292.76 1422.59 Q2294.78 1422.59 2296.46 1421.08 Q2298.17 1419.55 2298.69 1416.26 Q2299.25 1413.03 2299.23 1405.79 Q2299.23 1398.75 2298.74 1395.93 Q2298.07 1392.65 2296.29 1391.34 Q2294.54 1390 2292.76 1390 Q2292.09 1390 2291.37 1390.2 Q2290.68 1390.4 2289.67 1390.97 Q2288.66 1391.54 2287.87 1392.94 Q2287.1 1394.35 2286.73 1396.48 Q2286.33 1399.22 2286.33 1405.79 Z" fill="#000000" fill-rule="nonzero" fill-opacity="1" /><path clip-path="url(#clip080)" d="M1276.95 1505.05 L1276.95 1502.91 Q1282.39 1502.91 1285.85 1498.73 Q1285.85 1498.73 1292.37 1490.45 L1285.48 1481.48 Q1283.03 1478.35 1281.95 1477.81 Q1280.89 1477.23 1277.29 1477.23 L1277.29 1475.06 Q1280.15 1475.26 1283.88 1475.26 Q1285.95 1475.26 1291.42 1475.06 L1291.42 1477.23 Q1288.98 1477.37 1288.98 1478.96 Q1288.98 1479.51 1289.59 1480.22 L1295.02 1487.25 L1299.34 1481.82 Q1300.39 1480.56 1300.39 1479.37 Q1300.39 1477.44 1298.35 1477.23 L1298.35 1475.06 Q1301.07 1475.26 1305.04 1475.26 Q1308.03 1475.26 1310.75 1475.06 L1310.75 1477.23 Q1305.45 1477.37 1302.46 1480.83 Q1301.14 1482.29 1296.08 1488.71 L1305.38 1500.74 Q1306.5 1502.2 1307.76 1502.57 Q1309.02 1502.91 1312.01 1502.91 L1312.01 1505.05 Q1308.88 1504.85 1305.32 1504.85 Q1304.06 1504.85 1297.81 1505.05 L1297.81 1502.91 Q1299.07 1502.84 1299.68 1502.3 Q1300.32 1501.72 1300.32 1501.15 Q1300.32 1500.87 1298.86 1498.87 L1293.56 1491.91 Q1288.26 1498.16 1287.58 1499.62 Q1287.31 1500.23 1287.31 1500.74 Q1287.31 1502.61 1289.32 1502.91 L1289.32 1505.05 Q1284.32 1504.85 1282.73 1504.85 Q1279.67 1504.85 1276.95 1505.05 Z" fill="#000000" fill-rule="nonzero" fill-opacity="1" /><polyline clip-path="url(#clip080)" style="stroke:#000000; stroke-linecap:round; stroke-linejoin:round; stroke-width:4; stroke-opacity:1; fill:none" points="299.195,1360.19 299.195,110.236 "/>
<polyline clip-path="url(#clip080)" style="stroke:#000000; stroke-linecap:round; stroke-linejoin:round; stroke-width:4; stroke-opacity:1; fill:none" points="2289.76,1360.19 2289.76,110.236 "/>
<polyline clip-path="url(#clip080)" style="stroke:#000000; stroke-linecap:round; stroke-linejoin:round; stroke-width:4; stroke-opacity:1; fill:none" points="299.195,1353.6 318.093,1353.6 "/>
<polyline clip-path="url(#clip080)" style="stroke:#000000; stroke-linecap:round; stroke-linejoin:round; stroke-width:4; stroke-opacity:1; fill:none" points="299.195,1047.76 318.093,1047.76 "/>
<polyline clip-path="url(#clip080)" style="stroke:#000000; stroke-linecap:round; stroke-linejoin:round; stroke-width:4; stroke-opacity:1; fill:none" points="299.195,741.921 318.093,741.921 "/>
<polyline clip-path="url(#clip080)" style="stroke:#000000; stroke-linecap:round; stroke-linejoin:round; stroke-width:4; stroke-opacity:1; fill:none" points="299.195,436.083 318.093,436.083 "/>
<polyline clip-path="url(#clip080)" style="stroke:#000000; stroke-linecap:round; stroke-linejoin:round; stroke-width:4; stroke-opacity:1; fill:none" points="299.195,130.245 318.093,130.245 "/>
<polyline clip-path="url(#clip080)" style="stroke:#000000; stroke-linecap:round; stroke-linejoin:round; stroke-width:4; stroke-opacity:1; fill:none" points="2289.76,1353.6 2270.87,1353.6 "/>
<polyline clip-path="url(#clip080)" style="stroke:#000000; stroke-linecap:round; stroke-linejoin:round; stroke-width:4; stroke-opacity:1; fill:none" points="2289.76,1047.76 2270.87,1047.76 "/>
<polyline clip-path="url(#clip080)" style="stroke:#000000; stroke-linecap:round; stroke-linejoin:round; stroke-width:4; stroke-opacity:1; fill:none" points="2289.76,741.921 2270.87,741.921 "/>
<polyline clip-path="url(#clip080)" style="stroke:#000000; stroke-linecap:round; stroke-linejoin:round; stroke-width:4; stroke-opacity:1; fill:none" points="2289.76,436.083 2270.87,436.083 "/>
<polyline clip-path="url(#clip080)" style="stroke:#000000; stroke-linecap:round; stroke-linejoin:round; stroke-width:4; stroke-opacity:1; fill:none" points="2289.76,130.245 2270.87,130.245 "/>
<path clip-path="url(#clip080)" d="M177.252 1354.7 Q177.252 1347.26 179.13 1343.21 Q181.748 1337.18 187.924 1337.18 Q189.233 1337.18 190.592 1337.55 Q191.975 1337.9 193.705 1339.26 Q195.459 1340.61 196.521 1342.84 Q198.547 1347.14 198.547 1354.7 Q198.547 1362.08 196.669 1366.11 Q193.927 1371.99 187.875 1371.99 Q185.602 1371.99 183.28 1370.83 Q180.982 1369.67 179.525 1366.87 Q177.252 1362.7 177.252 1354.7 M181.452 1354.08 Q181.452 1361.71 181.995 1364.75 Q182.613 1368.04 184.293 1369.47 Q185.997 1370.88 187.875 1370.88 Q189.9 1370.88 191.58 1369.37 Q193.285 1367.84 193.804 1364.55 Q194.372 1361.32 194.347 1354.08 Q194.347 1347.04 193.853 1344.22 Q193.186 1340.94 191.407 1339.63 Q189.653 1338.29 187.875 1338.29 Q187.208 1338.29 186.491 1338.49 Q185.8 1338.69 184.787 1339.26 Q183.774 1339.82 182.983 1341.23 Q182.218 1342.64 181.847 1344.76 Q181.452 1347.51 181.452 1354.08 Z" fill="#000000" fill-rule="nonzero" fill-opacity="1" /><path clip-path="url(#clip080)" d="M205.636 1370.06 Q204.871 1369.25 204.871 1368.18 Q204.871 1367.12 205.636 1366.36 Q206.402 1365.56 207.563 1365.56 Q208.675 1365.56 209.416 1366.31 Q210.182 1367.02 210.182 1368.21 Q210.182 1369.37 209.367 1370.13 Q208.576 1370.88 207.563 1370.88 Q206.402 1370.88 205.636 1370.06 Z" fill="#000000" fill-rule="nonzero" fill-opacity="1" /><path clip-path="url(#clip080)" d="M216.605 1354.7 Q216.605 1347.26 218.482 1343.21 Q221.101 1337.18 227.277 1337.18 Q228.586 1337.18 229.945 1337.55 Q231.328 1337.9 233.057 1339.26 Q234.811 1340.61 235.873 1342.84 Q237.899 1347.14 237.899 1354.7 Q237.899 1362.08 236.022 1366.11 Q233.28 1371.99 227.227 1371.99 Q224.954 1371.99 222.632 1370.83 Q220.335 1369.67 218.877 1366.87 Q216.605 1362.7 216.605 1354.7 M220.804 1354.08 Q220.804 1361.71 221.348 1364.75 Q221.965 1368.04 223.645 1369.47 Q225.35 1370.88 227.227 1370.88 Q229.253 1370.88 230.933 1369.37 Q232.637 1367.84 233.156 1364.55 Q233.724 1361.32 233.699 1354.08 Q233.699 1347.04 233.205 1344.22 Q232.538 1340.94 230.76 1339.63 Q229.006 1338.29 227.227 1338.29 Q226.56 1338.29 225.844 1338.49 Q225.152 1338.69 224.139 1339.26 Q223.126 1339.82 222.336 1341.23 Q221.57 1342.64 221.2 1344.76 Q220.804 1347.51 220.804 1354.08 Z" fill="#000000" fill-rule="nonzero" fill-opacity="1" /><path clip-path="url(#clip080)" d="M241.901 1354.7 Q241.901 1347.26 243.778 1343.21 Q246.397 1337.18 252.573 1337.18 Q253.882 1337.18 255.241 1337.55 Q256.624 1337.9 258.353 1339.26 Q260.107 1340.61 261.17 1342.84 Q263.195 1347.14 263.195 1354.7 Q263.195 1362.08 261.318 1366.11 Q258.576 1371.99 252.523 1371.99 Q250.251 1371.99 247.929 1370.83 Q245.631 1369.67 244.174 1366.87 Q241.901 1362.7 241.901 1354.7 M246.101 1354.08 Q246.101 1361.71 246.644 1364.75 Q247.262 1368.04 248.941 1369.47 Q250.646 1370.88 252.523 1370.88 Q254.549 1370.88 256.229 1369.37 Q257.933 1367.84 258.452 1364.55 Q259.02 1361.32 258.996 1354.08 Q258.996 1347.04 258.502 1344.22 Q257.835 1340.94 256.056 1339.63 Q254.302 1338.29 252.523 1338.29 Q251.856 1338.29 251.14 1338.49 Q250.448 1338.69 249.436 1339.26 Q248.423 1339.82 247.632 1341.23 Q246.866 1342.64 246.496 1344.76 Q246.101 1347.51 246.101 1354.08 Z" fill="#000000" fill-rule="nonzero" fill-opacity="1" /><path clip-path="url(#clip080)" d="M177.796 1048.86 Q177.796 1041.42 179.673 1037.37 Q182.292 1031.34 188.468 1031.34 Q189.777 1031.34 191.136 1031.71 Q192.519 1032.06 194.248 1033.42 Q196.002 1034.78 197.064 1037 Q199.09 1041.3 199.09 1048.86 Q199.09 1056.24 197.213 1060.27 Q194.471 1066.15 188.418 1066.15 Q186.145 1066.15 183.823 1064.99 Q181.526 1063.83 180.068 1061.04 Q177.796 1056.86 177.796 1048.86 M181.995 1048.24 Q181.995 1055.87 182.539 1058.91 Q183.156 1062.2 184.836 1063.63 Q186.541 1065.04 188.418 1065.04 Q190.444 1065.04 192.124 1063.53 Q193.828 1062 194.347 1058.71 Q194.915 1055.48 194.89 1048.24 Q194.89 1041.2 194.396 1038.38 Q193.729 1035.1 191.951 1033.79 Q190.197 1032.45 188.418 1032.45 Q187.751 1032.45 187.035 1032.65 Q186.343 1032.85 185.33 1033.42 Q184.317 1033.99 183.527 1035.39 Q182.761 1036.8 182.391 1038.93 Q181.995 1041.67 181.995 1048.24 Z" fill="#000000" fill-rule="nonzero" fill-opacity="1" /><path clip-path="url(#clip080)" d="M206.18 1064.22 Q205.414 1063.41 205.414 1062.35 Q205.414 1061.28 206.18 1060.52 Q206.946 1059.73 208.107 1059.73 Q209.218 1059.73 209.96 1060.47 Q210.725 1061.18 210.725 1062.37 Q210.725 1063.53 209.91 1064.3 Q209.12 1065.04 208.107 1065.04 Q206.946 1065.04 206.18 1064.22 Z" fill="#000000" fill-rule="nonzero" fill-opacity="1" /><path clip-path="url(#clip080)" d="M217.692 1065.04 Q217.692 1064.12 217.766 1063.85 Q217.865 1063.58 218.26 1063.16 L227.968 1052.34 Q233.28 1046.36 233.28 1041.15 Q233.28 1037.77 231.501 1035.34 Q229.747 1032.92 226.511 1032.92 Q224.287 1032.92 222.41 1034.28 Q220.533 1035.64 219.668 1038.06 Q219.816 1038.01 220.335 1038.01 Q221.595 1038.01 222.287 1038.8 Q223.003 1039.59 223.003 1040.66 Q223.003 1042.01 222.114 1042.68 Q221.249 1043.32 220.384 1043.32 Q220.039 1043.32 219.569 1043.25 Q219.124 1043.18 218.408 1042.48 Q217.692 1041.77 217.692 1040.51 Q217.692 1036.98 220.36 1034.16 Q223.052 1031.34 227.153 1031.34 Q231.797 1031.34 234.836 1034.11 Q237.899 1036.85 237.899 1041.15 Q237.899 1042.66 237.43 1044.04 Q236.985 1045.4 236.367 1046.46 Q235.775 1047.52 234.144 1049.23 Q232.514 1050.93 231.204 1052.14 Q229.895 1053.35 226.955 1055.92 L221.595 1061.14 L230.71 1061.14 Q235.157 1061.14 235.503 1060.74 Q235.997 1060.02 236.614 1056.24 L237.899 1056.24 L236.466 1065.04 L217.692 1065.04 Z" fill="#000000" fill-rule="nonzero" fill-opacity="1" /><path clip-path="url(#clip080)" d="M242.988 1056.89 Q242.988 1055.38 243.803 1054.81 Q244.618 1054.22 245.483 1054.22 Q246.644 1054.22 247.311 1054.96 Q248.003 1055.68 248.003 1056.69 Q248.003 1057.7 247.311 1058.44 Q246.644 1059.16 245.483 1059.16 Q244.915 1059.16 244.618 1059.06 Q245.285 1061.38 247.311 1063.06 Q249.361 1064.74 252.054 1064.74 Q255.438 1064.74 257.464 1061.46 Q258.675 1059.33 258.675 1054.51 Q258.675 1050.27 257.761 1048.14 Q256.352 1044.91 253.462 1044.91 Q249.361 1044.91 246.94 1048.44 Q246.644 1048.88 246.298 1048.91 Q245.804 1048.91 245.681 1048.64 Q245.582 1048.34 245.582 1047.57 L245.582 1032.6 Q245.582 1031.39 246.076 1031.39 Q246.273 1031.39 246.693 1031.54 Q249.88 1032.95 253.413 1032.97 Q257.044 1032.97 260.305 1031.49 Q260.552 1031.34 260.7 1031.34 Q261.194 1031.34 261.219 1031.91 Q261.219 1032.11 260.799 1032.7 Q260.404 1033.27 259.539 1034.04 Q258.675 1034.78 257.563 1035.49 Q256.451 1036.21 254.821 1036.7 Q253.215 1037.17 251.436 1037.17 Q249.312 1037.17 247.138 1036.51 L247.138 1046.36 Q249.757 1043.79 253.561 1043.79 Q257.612 1043.79 260.404 1047.05 Q263.195 1050.32 263.195 1054.86 Q263.195 1059.63 259.885 1062.89 Q256.599 1066.15 252.153 1066.15 Q248.102 1066.15 245.532 1063.26 Q242.988 1060.37 242.988 1056.89 Z" fill="#000000" fill-rule="nonzero" fill-opacity="1" /><path clip-path="url(#clip080)" d="M177.252 743.02 Q177.252 735.584 179.13 731.533 Q181.748 725.505 187.924 725.505 Q189.233 725.505 190.592 725.876 Q191.975 726.222 193.705 727.58 Q195.459 728.939 196.521 731.162 Q198.547 735.461 198.547 743.02 Q198.547 750.406 196.669 754.433 Q193.927 760.312 187.875 760.312 Q185.602 760.312 183.28 759.151 Q180.982 757.99 179.525 755.199 Q177.252 751.024 177.252 743.02 M181.452 742.402 Q181.452 750.036 181.995 753.074 Q182.613 756.36 184.293 757.793 Q185.997 759.201 187.875 759.201 Q189.9 759.201 191.58 757.694 Q193.285 756.162 193.804 752.877 Q194.372 749.64 194.347 742.402 Q194.347 735.362 193.853 732.546 Q193.186 729.26 191.407 727.951 Q189.653 726.617 187.875 726.617 Q187.208 726.617 186.491 726.815 Q185.8 727.012 184.787 727.58 Q183.774 728.149 182.983 729.557 Q182.218 730.965 181.847 733.089 Q181.452 735.831 181.452 742.402 Z" fill="#000000" fill-rule="nonzero" fill-opacity="1" /><path clip-path="url(#clip080)" d="M205.636 758.385 Q204.871 757.57 204.871 756.508 Q204.871 755.446 205.636 754.68 Q206.402 753.889 207.563 753.889 Q208.675 753.889 209.416 754.631 Q210.182 755.347 210.182 756.533 Q210.182 757.694 209.367 758.46 Q208.576 759.201 207.563 759.201 Q206.402 759.201 205.636 758.385 Z" fill="#000000" fill-rule="nonzero" fill-opacity="1" /><path clip-path="url(#clip080)" d="M217.148 751.049 Q217.148 749.542 217.963 748.973 Q218.779 748.381 219.643 748.381 Q220.804 748.381 221.471 749.122 Q222.163 749.838 222.163 750.851 Q222.163 751.864 221.471 752.605 Q220.804 753.321 219.643 753.321 Q219.075 753.321 218.779 753.222 Q219.446 755.545 221.471 757.224 Q223.522 758.904 226.214 758.904 Q229.599 758.904 231.624 755.619 Q232.835 753.494 232.835 748.677 Q232.835 744.428 231.921 742.304 Q230.513 739.067 227.622 739.067 Q223.522 739.067 221.101 742.6 Q220.804 743.045 220.458 743.069 Q219.964 743.069 219.841 742.798 Q219.742 742.501 219.742 741.735 L219.742 726.765 Q219.742 725.555 220.236 725.555 Q220.434 725.555 220.854 725.703 Q224.04 727.111 227.573 727.136 Q231.204 727.136 234.465 725.654 Q234.712 725.505 234.861 725.505 Q235.355 725.505 235.379 726.073 Q235.379 726.271 234.959 726.864 Q234.564 727.432 233.699 728.198 Q232.835 728.939 231.723 729.655 Q230.612 730.372 228.981 730.866 Q227.375 731.335 225.597 731.335 Q223.472 731.335 221.298 730.668 L221.298 740.525 Q223.917 737.956 227.721 737.956 Q231.773 737.956 234.564 741.217 Q237.356 744.477 237.356 749.023 Q237.356 753.791 234.045 757.051 Q230.76 760.312 226.313 760.312 Q222.262 760.312 219.693 757.422 Q217.148 754.532 217.148 751.049 Z" fill="#000000" fill-rule="nonzero" fill-opacity="1" /><path clip-path="url(#clip080)" d="M241.901 743.02 Q241.901 735.584 243.778 731.533 Q246.397 725.505 252.573 725.505 Q253.882 725.505 255.241 725.876 Q256.624 726.222 258.353 727.58 Q260.107 728.939 261.17 731.162 Q263.195 735.461 263.195 743.02 Q263.195 750.406 261.318 754.433 Q258.576 760.312 252.523 760.312 Q250.251 760.312 247.929 759.151 Q245.631 757.99 244.174 755.199 Q241.901 751.024 241.901 743.02 M246.101 742.402 Q246.101 750.036 246.644 753.074 Q247.262 756.36 248.941 757.793 Q250.646 759.201 252.523 759.201 Q254.549 759.201 256.229 757.694 Q257.933 756.162 258.452 752.877 Q259.02 749.64 258.996 742.402 Q258.996 735.362 258.502 732.546 Q257.835 729.26 256.056 727.951 Q254.302 726.617 252.523 726.617 Q251.856 726.617 251.14 726.815 Q250.448 727.012 249.436 727.58 Q248.423 728.149 247.632 729.557 Q246.866 730.965 246.496 733.089 Q246.101 735.831 246.101 742.402 Z" fill="#000000" fill-rule="nonzero" fill-opacity="1" /><path clip-path="url(#clip080)" d="M177.796 437.182 Q177.796 429.747 179.673 425.695 Q182.292 419.668 188.468 419.668 Q189.777 419.668 191.136 420.038 Q192.519 420.384 194.248 421.743 Q196.002 423.101 197.064 425.325 Q199.09 429.623 199.09 437.182 Q199.09 444.569 197.213 448.595 Q194.471 454.475 188.418 454.475 Q186.145 454.475 183.823 453.314 Q181.526 452.153 180.068 449.361 Q177.796 445.186 177.796 437.182 M181.995 436.565 Q181.995 444.198 182.539 447.237 Q183.156 450.522 184.836 451.955 Q186.541 453.363 188.418 453.363 Q190.444 453.363 192.124 451.856 Q193.828 450.325 194.347 447.039 Q194.915 443.803 194.89 436.565 Q194.89 429.524 194.396 426.708 Q193.729 423.423 191.951 422.113 Q190.197 420.779 188.418 420.779 Q187.751 420.779 187.035 420.977 Q186.343 421.175 185.33 421.743 Q184.317 422.311 183.527 423.719 Q182.761 425.127 182.391 427.252 Q181.995 429.994 181.995 436.565 Z" fill="#000000" fill-rule="nonzero" fill-opacity="1" /><path clip-path="url(#clip080)" d="M206.18 452.548 Q205.414 451.733 205.414 450.67 Q205.414 449.608 206.18 448.842 Q206.946 448.052 208.107 448.052 Q209.218 448.052 209.96 448.793 Q210.725 449.509 210.725 450.695 Q210.725 451.856 209.91 452.622 Q209.12 453.363 208.107 453.363 Q206.946 453.363 206.18 452.548 Z" fill="#000000" fill-rule="nonzero" fill-opacity="1" /><path clip-path="url(#clip080)" d="M218.013 429.574 L219.668 419.174 L220.928 419.174 Q221.076 419.791 221.323 420.063 Q221.595 420.335 223.028 420.557 Q224.485 420.779 227.425 420.779 L239.702 420.779 Q239.702 421.94 239.258 422.558 L232.415 432.168 Q230.241 435.206 229.278 440.814 Q228.709 444.569 228.734 449.114 L228.734 451.683 Q228.734 454.475 226.387 454.475 Q224.065 454.475 224.065 451.683 Q224.065 442.024 230.29 432.662 Q230.957 431.698 233.403 428.264 Q235.873 424.831 235.972 424.682 L225.498 424.682 Q220.903 424.682 220.533 424.979 Q220.039 425.424 219.273 429.574 L218.013 429.574 Z" fill="#000000" fill-rule="nonzero" fill-opacity="1" /><path clip-path="url(#clip080)" d="M242.988 445.211 Q242.988 443.704 243.803 443.136 Q244.618 442.543 245.483 442.543 Q246.644 442.543 247.311 443.284 Q248.003 444 248.003 445.013 Q248.003 446.026 247.311 446.767 Q246.644 447.484 245.483 447.484 Q244.915 447.484 244.618 447.385 Q245.285 449.707 247.311 451.387 Q249.361 453.067 252.054 453.067 Q255.438 453.067 257.464 449.781 Q258.675 447.657 258.675 442.839 Q258.675 438.59 257.761 436.466 Q256.352 433.23 253.462 433.23 Q249.361 433.23 246.94 436.762 Q246.644 437.207 246.298 437.232 Q245.804 437.232 245.681 436.96 Q245.582 436.664 245.582 435.898 L245.582 420.928 Q245.582 419.717 246.076 419.717 Q246.273 419.717 246.693 419.865 Q249.88 421.273 253.413 421.298 Q257.044 421.298 260.305 419.816 Q260.552 419.668 260.7 419.668 Q261.194 419.668 261.219 420.236 Q261.219 420.433 260.799 421.026 Q260.404 421.595 259.539 422.36 Q258.675 423.101 257.563 423.818 Q256.451 424.534 254.821 425.028 Q253.215 425.498 251.436 425.498 Q249.312 425.498 247.138 424.831 L247.138 434.687 Q249.757 432.118 253.561 432.118 Q257.612 432.118 260.404 435.379 Q263.195 438.64 263.195 443.185 Q263.195 447.953 259.885 451.214 Q256.599 454.475 252.153 454.475 Q248.102 454.475 245.532 451.584 Q242.988 448.694 242.988 445.211 Z" fill="#000000" fill-rule="nonzero" fill-opacity="1" /><path clip-path="url(#clip080)" d="M179.772 118.647 L179.772 117.066 Q185.849 117.066 188.986 113.83 Q189.851 113.83 189.999 114.028 Q190.147 114.225 190.147 115.139 L190.147 143.523 Q190.147 145.03 190.889 145.5 Q191.63 145.969 194.866 145.969 L196.471 145.969 L196.471 147.525 Q194.693 147.377 188.27 147.377 Q181.847 147.377 180.093 147.525 L180.093 145.969 L181.699 145.969 Q184.886 145.969 185.651 145.524 Q186.417 145.055 186.417 143.523 L186.417 117.313 Q183.774 118.647 179.772 118.647 Z" fill="#000000" fill-rule="nonzero" fill-opacity="1" /><path clip-path="url(#clip080)" d="M205.636 146.71 Q204.871 145.895 204.871 144.833 Q204.871 143.771 205.636 143.005 Q206.402 142.214 207.563 142.214 Q208.675 142.214 209.416 142.955 Q210.182 143.672 210.182 144.857 Q210.182 146.019 209.367 146.784 Q208.576 147.525 207.563 147.525 Q206.402 147.525 205.636 146.71 Z" fill="#000000" fill-rule="nonzero" fill-opacity="1" /><path clip-path="url(#clip080)" d="M216.605 131.345 Q216.605 123.909 218.482 119.858 Q221.101 113.83 227.277 113.83 Q228.586 113.83 229.945 114.201 Q231.328 114.546 233.057 115.905 Q234.811 117.264 235.873 119.487 Q237.899 123.785 237.899 131.345 Q237.899 138.731 236.022 142.758 Q233.28 148.637 227.227 148.637 Q224.954 148.637 222.632 147.476 Q220.335 146.315 218.877 143.523 Q216.605 139.349 216.605 131.345 M220.804 130.727 Q220.804 138.36 221.348 141.399 Q221.965 144.685 223.645 146.117 Q225.35 147.525 227.227 147.525 Q229.253 147.525 230.933 146.019 Q232.637 144.487 233.156 141.201 Q233.724 137.965 233.699 130.727 Q233.699 123.687 233.205 120.87 Q232.538 117.585 230.76 116.276 Q229.006 114.942 227.227 114.942 Q226.56 114.942 225.844 115.139 Q225.152 115.337 224.139 115.905 Q223.126 116.473 222.336 117.881 Q221.57 119.289 221.2 121.414 Q220.804 124.156 220.804 130.727 Z" fill="#000000" fill-rule="nonzero" fill-opacity="1" /><path clip-path="url(#clip080)" d="M241.901 131.345 Q241.901 123.909 243.778 119.858 Q246.397 113.83 252.573 113.83 Q253.882 113.83 255.241 114.201 Q256.624 114.546 258.353 115.905 Q260.107 117.264 261.17 119.487 Q263.195 123.785 263.195 131.345 Q263.195 138.731 261.318 142.758 Q258.576 148.637 252.523 148.637 Q250.251 148.637 247.929 147.476 Q245.631 146.315 244.174 143.523 Q241.901 139.349 241.901 131.345 M246.101 130.727 Q246.101 138.36 246.644 141.399 Q247.262 144.685 248.941 146.117 Q250.646 147.525 252.523 147.525 Q254.549 147.525 256.229 146.019 Q257.933 144.487 258.452 141.201 Q259.02 137.965 258.996 130.727 Q258.996 123.687 258.502 120.87 Q257.835 117.585 256.056 116.276 Q254.302 114.942 252.523 114.942 Q251.856 114.942 251.14 115.139 Q250.448 115.337 249.436 115.905 Q248.423 116.473 247.632 117.881 Q246.866 119.289 246.496 121.414 Q246.101 124.156 246.101 130.727 Z" fill="#000000" fill-rule="nonzero" fill-opacity="1" /><path clip-path="url(#clip080)" d="M135.624 752.213 Q134.163 752.213 133.382 751.363 Q132.635 750.48 132.635 749.291 Q132.635 748.035 133.416 747.219 Q134.231 746.37 135.556 746.37 Q138.137 746.37 138.477 749.088 Q139.734 747.763 139.734 745.827 Q139.734 743.755 138.205 742.09 Q136.677 740.392 135.216 739.679 Q133.756 738.931 131.106 737.878 Q129.034 736.893 126.996 736.146 L101.589 746.574 Q99.9245 747.253 99.5509 748.306 Q99.1772 749.359 99.1772 752.213 L97.0033 752.213 Q97.2071 749.088 97.2071 745.453 Q97.2071 743.313 97.0033 737.878 L99.1772 737.878 Q99.1772 741.785 100.977 741.785 Q101.181 741.785 102.234 741.377 L120.95 733.632 L103.831 726.601 Q102.846 726.194 102.166 726.194 Q99.3131 726.194 99.1772 729.455 L97.0033 729.455 Q97.2071 724.869 97.2071 723.408 Q97.2071 720.555 97.0033 718.211 L99.1772 718.211 Q99.1772 722.865 103.627 724.665 L133.314 736.927 Q141.229 740.256 141.262 745.827 Q141.262 748.476 139.632 750.344 Q138.002 752.213 135.624 752.213 Z" fill="#000000" fill-rule="nonzero" fill-opacity="1" /><polyline clip-path="url(#clip082)" style="stroke:#009af9; stroke-linecap:round; stroke-linejoin:round; stroke-width:8; stroke-opacity:1; fill:none" points="355.532,1324.81 709.73,1232.6 854.693,1153.69 1181.92,957.393 1392.67,858.363 1415.06,680.731 2011.55,508.748 2025.87,483.859 2161.74,324.08 2233.43,145.612 "/>
</svg>
