<?xml version="1.0" encoding="utf-8"?>
<svg xmlns="http://www.w3.org/2000/svg" xmlns:xlink="http://www.w3.org/1999/xlink" width="400" height="300" viewBox="0 0 1600 1200">
<defs>
  <clipPath id="clip520">
    <rect x="0" y="0" width="1600" height="1200"/>
  </clipPath>
</defs>
<path clip-path="url(#clip520)" d="M0 1200 L1600 1200 L1600 0 L0 0  Z" fill="#ffffff" fill-rule="evenodd" fill-opacity="1"/>
<defs>
  <clipPath id="clip521">
    <rect x="320" y="0" width="1121" height="1121"/>
  </clipPath>
</defs>
<path clip-path="url(#clip520)" d="M297.135 1016.92 L1489.76 1016.92 L1489.76 47.2441 L297.135 47.2441  Z" fill="#ffffff" fill-rule="evenodd" fill-opacity="1"/>
<defs>
  <clipPath id="clip522">
    <rect x="297" y="47" width="1194" height="971"/>
  </clipPath>
</defs>
<polyline clip-path="url(#clip522)" style="stroke:#000000; stroke-linecap:round; stroke-linejoin:round; stroke-width:2; stroke-opacity:0.1; fill:none" points="362.732,1016.92 362.732,47.2441 "/>
<polyline clip-path="url(#clip522)" style="stroke:#000000; stroke-linecap:round; stroke-linejoin:round; stroke-width:2; stroke-opacity:0.1; fill:none" points="539.638,1016.92 539.638,47.2441 "/>
<polyline clip-path="url(#clip522)" style="stroke:#000000; stroke-linecap:round; stroke-linejoin:round; stroke-width:2; stroke-opacity:0.1; fill:none" points="716.544,1016.92 716.544,47.2441 "/>
<polyline clip-path="url(#clip522)" style="stroke:#000000; stroke-linecap:round; stroke-linejoin:round; stroke-width:2; stroke-opacity:0.1; fill:none" points="893.45,1016.92 893.45,47.2441 "/>
<polyline clip-path="url(#clip522)" style="stroke:#000000; stroke-linecap:round; stroke-linejoin:round; stroke-width:2; stroke-opacity:0.1; fill:none" points="1070.36,1016.92 1070.36,47.2441 "/>
<polyline clip-path="url(#clip522)" style="stroke:#000000; stroke-linecap:round; stroke-linejoin:round; stroke-width:2; stroke-opacity:0.1; fill:none" points="1247.26,1016.92 1247.26,47.2441 "/>
<polyline clip-path="url(#clip522)" style="stroke:#000000; stroke-linecap:round; stroke-linejoin:round; stroke-width:2; stroke-opacity:0.1; fill:none" points="1424.17,1016.92 1424.17,47.2441 "/>
<polyline clip-path="url(#clip522)" style="stroke:#000000; stroke-linecap:round; stroke-linejoin:round; stroke-width:2; stroke-opacity:0.1; fill:none" points="362.732,1016.92 362.732,47.2441 "/>
<polyline clip-path="url(#clip522)" style="stroke:#000000; stroke-linecap:round; stroke-linejoin:round; stroke-width:2; stroke-opacity:0.1; fill:none" points="539.638,1016.92 539.638,47.2441 "/>
<polyline clip-path="url(#clip522)" style="stroke:#000000; stroke-linecap:round; stroke-linejoin:round; stroke-width:2; stroke-opacity:0.1; fill:none" points="716.544,1016.92 716.544,47.2441 "/>
<polyline clip-path="url(#clip522)" style="stroke:#000000; stroke-linecap:round; stroke-linejoin:round; stroke-width:2; stroke-opacity:0.1; fill:none" points="893.45,1016.92 893.45,47.2441 "/>
<polyline clip-path="url(#clip522)" style="stroke:#000000; stroke-linecap:round; stroke-linejoin:round; stroke-width:2; stroke-opacity:0.1; fill:none" points="1070.36,1016.92 1070.36,47.2441 "/>
<polyline clip-path="url(#clip522)" style="stroke:#000000; stroke-linecap:round; stroke-linejoin:round; stroke-width:2; stroke-opacity:0.1; fill:none" points="1247.26,1016.92 1247.26,47.2441 "/>
<polyline clip-path="url(#clip522)" style="stroke:#000000; stroke-linecap:round; stroke-linejoin:round; stroke-width:2; stroke-opacity:0.1; fill:none" points="1424.17,1016.92 1424.17,47.2441 "/>
<polyline clip-path="url(#clip522)" style="stroke:#000000; stroke-linecap:round; stroke-linejoin:round; stroke-width:2; stroke-opacity:0.1; fill:none" points="297.135,1016.92 1489.76,1016.92 "/>
<polyline clip-path="url(#clip522)" style="stroke:#000000; stroke-linecap:round; stroke-linejoin:round; stroke-width:2; stroke-opacity:0.1; fill:none" points="297.135,782.471 1489.76,782.471 "/>
<polyline clip-path="url(#clip522)" style="stroke:#000000; stroke-linecap:round; stroke-linejoin:round; stroke-width:2; stroke-opacity:0.1; fill:none" points="297.135,548.022 1489.76,548.022 "/>
<polyline clip-path="url(#clip522)" style="stroke:#000000; stroke-linecap:round; stroke-linejoin:round; stroke-width:2; stroke-opacity:0.1; fill:none" points="297.135,313.573 1489.76,313.573 "/>
<polyline clip-path="url(#clip522)" style="stroke:#000000; stroke-linecap:round; stroke-linejoin:round; stroke-width:2; stroke-opacity:0.1; fill:none" points="297.135,79.1244 1489.76,79.1244 "/>
<polyline clip-path="url(#clip522)" style="stroke:#000000; stroke-linecap:round; stroke-linejoin:round; stroke-width:2; stroke-opacity:0.1; fill:none" points="297.135,1016.92 1489.76,1016.92 "/>
<polyline clip-path="url(#clip522)" style="stroke:#000000; stroke-linecap:round; stroke-linejoin:round; stroke-width:2; stroke-opacity:0.1; fill:none" points="297.135,782.471 1489.76,782.471 "/>
<polyline clip-path="url(#clip522)" style="stroke:#000000; stroke-linecap:round; stroke-linejoin:round; stroke-width:2; stroke-opacity:0.1; fill:none" points="297.135,548.022 1489.76,548.022 "/>
<polyline clip-path="url(#clip522)" style="stroke:#000000; stroke-linecap:round; stroke-linejoin:round; stroke-width:2; stroke-opacity:0.1; fill:none" points="297.135,313.573 1489.76,313.573 "/>
<polyline clip-path="url(#clip522)" style="stroke:#000000; stroke-linecap:round; stroke-linejoin:round; stroke-width:2; stroke-opacity:0.1; fill:none" points="297.135,79.1244 1489.76,79.1244 "/>
<polyline clip-path="url(#clip520)" style="stroke:#000000; stroke-linecap:round; stroke-linejoin:round; stroke-width:4; stroke-opacity:1; fill:none" points="297.135,1016.92 1489.76,1016.92 "/>
<polyline clip-path="url(#clip520)" style="stroke:#000000; stroke-linecap:round; stroke-linejoin:round; stroke-width:4; stroke-opacity:1; fill:none" points="297.135,47.2441 1489.76,47.2441 "/>
<polyline clip-path="url(#clip520)" style="stroke:#000000; stroke-linecap:round; stroke-linejoin:round; stroke-width:4; stroke-opacity:1; fill:none" points="362.732,1016.92 362.732,998.022 "/>
<polyline clip-path="url(#clip520)" style="stroke:#000000; stroke-linecap:round; stroke-linejoin:round; stroke-width:4; stroke-opacity:1; fill:none" points="539.638,1016.92 539.638,998.022 "/>
<polyline clip-path="url(#clip520)" style="stroke:#000000; stroke-linecap:round; stroke-linejoin:round; stroke-width:4; stroke-opacity:1; fill:none" points="716.544,1016.92 716.544,998.022 "/>
<polyline clip-path="url(#clip520)" style="stroke:#000000; stroke-linecap:round; stroke-linejoin:round; stroke-width:4; stroke-opacity:1; fill:none" points="893.45,1016.92 893.45,998.022 "/>
<polyline clip-path="url(#clip520)" style="stroke:#000000; stroke-linecap:round; stroke-linejoin:round; stroke-width:4; stroke-opacity:1; fill:none" points="1070.36,1016.92 1070.36,998.022 "/>
<polyline clip-path="url(#clip520)" style="stroke:#000000; stroke-linecap:round; stroke-linejoin:round; stroke-width:4; stroke-opacity:1; fill:none" points="1247.26,1016.92 1247.26,998.022 "/>
<polyline clip-path="url(#clip520)" style="stroke:#000000; stroke-linecap:round; stroke-linejoin:round; stroke-width:4; stroke-opacity:1; fill:none" points="1424.17,1016.92 1424.17,998.022 "/>
<polyline clip-path="url(#clip520)" style="stroke:#000000; stroke-linecap:round; stroke-linejoin:round; stroke-width:4; stroke-opacity:1; fill:none" points="362.732,47.2441 362.732,66.1417 "/>
<polyline clip-path="url(#clip520)" style="stroke:#000000; stroke-linecap:round; stroke-linejoin:round; stroke-width:4; stroke-opacity:1; fill:none" points="539.638,47.2441 539.638,66.1417 "/>
<polyline clip-path="url(#clip520)" style="stroke:#000000; stroke-linecap:round; stroke-linejoin:round; stroke-width:4; stroke-opacity:1; fill:none" points="716.544,47.2441 716.544,66.1417 "/>
<polyline clip-path="url(#clip520)" style="stroke:#000000; stroke-linecap:round; stroke-linejoin:round; stroke-width:4; stroke-opacity:1; fill:none" points="893.45,47.2441 893.45,66.1417 "/>
<polyline clip-path="url(#clip520)" style="stroke:#000000; stroke-linecap:round; stroke-linejoin:round; stroke-width:4; stroke-opacity:1; fill:none" points="1070.36,47.2441 1070.36,66.1417 "/>
<polyline clip-path="url(#clip520)" style="stroke:#000000; stroke-linecap:round; stroke-linejoin:round; stroke-width:4; stroke-opacity:1; fill:none" points="1247.26,47.2441 1247.26,66.1417 "/>
<polyline clip-path="url(#clip520)" style="stroke:#000000; stroke-linecap:round; stroke-linejoin:round; stroke-width:4; stroke-opacity:1; fill:none" points="1424.17,47.2441 1424.17,66.1417 "/>
<path clip-path="url(#clip520)" d="M346.835 1059.56 Q347.132 1059.85 347.132 1060.27 Q347.132 1060.69 346.835 1060.99 Q346.539 1061.28 346.119 1061.28 L314.449 1061.28 Q314.029 1061.28 313.733 1060.99 Q313.436 1060.69 313.436 1060.27 Q313.436 1059.85 313.733 1059.56 Q314.029 1059.26 314.449 1059.26 L346.119 1059.26 Q346.539 1059.26 346.835 1059.56 Z" fill="#000000" fill-rule="nonzero" fill-opacity="1" /><path clip-path="url(#clip520)" d="M354.444 1044.04 L354.444 1042.46 Q360.521 1042.46 363.658 1039.22 Q364.523 1039.22 364.671 1039.42 Q364.819 1039.62 364.819 1040.53 L364.819 1068.92 Q364.819 1070.42 365.56 1070.89 Q366.302 1071.36 369.538 1071.36 L371.143 1071.36 L371.143 1072.92 Q369.365 1072.77 362.942 1072.77 Q356.519 1072.77 354.765 1072.92 L354.765 1071.36 L356.371 1071.36 Q359.558 1071.36 360.323 1070.92 Q361.089 1070.45 361.089 1068.92 L361.089 1042.71 Q358.446 1044.04 354.444 1044.04 Z" fill="#000000" fill-rule="nonzero" fill-opacity="1" /><path clip-path="url(#clip520)" d="M380.308 1072.1 Q379.543 1071.29 379.543 1070.23 Q379.543 1069.16 380.308 1068.4 Q381.074 1067.61 382.235 1067.61 Q383.347 1067.61 384.088 1068.35 Q384.854 1069.07 384.854 1070.25 Q384.854 1071.41 384.039 1072.18 Q383.248 1072.92 382.235 1072.92 Q381.074 1072.92 380.308 1072.1 Z" fill="#000000" fill-rule="nonzero" fill-opacity="1" /><path clip-path="url(#clip520)" d="M391.82 1064.77 Q391.82 1063.26 392.635 1062.69 Q393.451 1062.1 394.315 1062.1 Q395.476 1062.1 396.143 1062.84 Q396.835 1063.56 396.835 1064.57 Q396.835 1065.58 396.143 1066.32 Q395.476 1067.04 394.315 1067.04 Q393.747 1067.04 393.451 1066.94 Q394.118 1069.26 396.143 1070.94 Q398.194 1072.62 400.886 1072.62 Q404.271 1072.62 406.296 1069.34 Q407.507 1067.21 407.507 1062.4 Q407.507 1058.15 406.593 1056.02 Q405.185 1052.79 402.294 1052.79 Q398.194 1052.79 395.773 1056.32 Q395.476 1056.76 395.13 1056.79 Q394.636 1056.79 394.513 1056.52 Q394.414 1056.22 394.414 1055.45 L394.414 1040.48 Q394.414 1039.27 394.908 1039.27 Q395.106 1039.27 395.526 1039.42 Q398.712 1040.83 402.245 1040.85 Q405.876 1040.85 409.137 1039.37 Q409.384 1039.22 409.532 1039.22 Q410.027 1039.22 410.051 1039.79 Q410.051 1039.99 409.631 1040.58 Q409.236 1041.15 408.371 1041.92 Q407.507 1042.66 406.395 1043.37 Q405.283 1044.09 403.653 1044.59 Q402.047 1045.05 400.269 1045.05 Q398.144 1045.05 395.97 1044.39 L395.97 1054.24 Q398.589 1051.67 402.393 1051.67 Q406.445 1051.67 409.236 1054.94 Q412.028 1058.2 412.028 1062.74 Q412.028 1067.51 408.717 1070.77 Q405.432 1074.03 400.985 1074.03 Q396.934 1074.03 394.365 1071.14 Q391.82 1068.25 391.82 1064.77 Z" fill="#000000" fill-rule="nonzero" fill-opacity="1" /><path clip-path="url(#clip520)" d="M523.469 1059.56 Q523.766 1059.85 523.766 1060.27 Q523.766 1060.69 523.469 1060.99 Q523.173 1061.28 522.753 1061.28 L491.083 1061.28 Q490.663 1061.28 490.367 1060.99 Q490.071 1060.69 490.071 1060.27 Q490.071 1059.85 490.367 1059.56 Q490.663 1059.26 491.083 1059.26 L522.753 1059.26 Q523.173 1059.26 523.469 1059.56 Z" fill="#000000" fill-rule="nonzero" fill-opacity="1" /><path clip-path="url(#clip520)" d="M531.078 1044.04 L531.078 1042.46 Q537.155 1042.46 540.292 1039.22 Q541.157 1039.22 541.305 1039.42 Q541.454 1039.62 541.454 1040.53 L541.454 1068.92 Q541.454 1070.42 542.195 1070.89 Q542.936 1071.36 546.172 1071.36 L547.778 1071.36 L547.778 1072.92 Q545.999 1072.77 539.576 1072.77 Q533.153 1072.77 531.399 1072.92 L531.399 1071.36 L533.005 1071.36 Q536.192 1071.36 536.958 1070.92 Q537.723 1070.45 537.723 1068.92 L537.723 1042.71 Q535.08 1044.04 531.078 1044.04 Z" fill="#000000" fill-rule="nonzero" fill-opacity="1" /><path clip-path="url(#clip520)" d="M556.943 1072.1 Q556.177 1071.29 556.177 1070.23 Q556.177 1069.16 556.943 1068.4 Q557.708 1067.61 558.869 1067.61 Q559.981 1067.61 560.722 1068.35 Q561.488 1069.07 561.488 1070.25 Q561.488 1071.41 560.673 1072.18 Q559.882 1072.92 558.869 1072.92 Q557.708 1072.92 556.943 1072.1 Z" fill="#000000" fill-rule="nonzero" fill-opacity="1" /><path clip-path="url(#clip520)" d="M567.911 1056.74 Q567.911 1049.3 569.788 1045.25 Q572.407 1039.22 578.583 1039.22 Q579.892 1039.22 581.251 1039.6 Q582.634 1039.94 584.363 1041.3 Q586.117 1042.66 587.179 1044.88 Q589.205 1049.18 589.205 1056.74 Q589.205 1064.13 587.328 1068.15 Q584.586 1074.03 578.533 1074.03 Q576.261 1074.03 573.938 1072.87 Q571.641 1071.71 570.184 1068.92 Q567.911 1064.74 567.911 1056.74 M572.11 1056.12 Q572.11 1063.75 572.654 1066.79 Q573.271 1070.08 574.951 1071.51 Q576.656 1072.92 578.533 1072.92 Q580.559 1072.92 582.239 1071.41 Q583.943 1069.88 584.462 1066.6 Q585.03 1063.36 585.006 1056.12 Q585.006 1049.08 584.511 1046.26 Q583.844 1042.98 582.066 1041.67 Q580.312 1040.34 578.533 1040.34 Q577.866 1040.34 577.15 1040.53 Q576.458 1040.73 575.445 1041.3 Q574.432 1041.87 573.642 1043.28 Q572.876 1044.68 572.506 1046.81 Q572.11 1049.55 572.11 1056.12 Z" fill="#000000" fill-rule="nonzero" fill-opacity="1" /><path clip-path="url(#clip520)" d="M700.647 1059.56 Q700.943 1059.85 700.943 1060.27 Q700.943 1060.69 700.647 1060.99 Q700.351 1061.28 699.931 1061.28 L668.261 1061.28 Q667.841 1061.28 667.545 1060.99 Q667.248 1060.69 667.248 1060.27 Q667.248 1059.85 667.545 1059.56 Q667.841 1059.26 668.261 1059.26 L699.931 1059.26 Q700.351 1059.26 700.647 1059.56 Z" fill="#000000" fill-rule="nonzero" fill-opacity="1" /><path clip-path="url(#clip520)" d="M705.736 1056.74 Q705.736 1049.3 707.613 1045.25 Q710.232 1039.22 716.408 1039.22 Q717.717 1039.22 719.076 1039.6 Q720.459 1039.94 722.188 1041.3 Q723.942 1042.66 725.005 1044.88 Q727.03 1049.18 727.03 1056.74 Q727.03 1064.13 725.153 1068.15 Q722.411 1074.03 716.358 1074.03 Q714.086 1074.03 711.764 1072.87 Q709.466 1071.71 708.009 1068.92 Q705.736 1064.74 705.736 1056.74 M709.936 1056.12 Q709.936 1063.75 710.479 1066.79 Q711.097 1070.08 712.776 1071.51 Q714.481 1072.92 716.358 1072.92 Q718.384 1072.92 720.064 1071.41 Q721.768 1069.88 722.287 1066.6 Q722.855 1063.36 722.831 1056.12 Q722.831 1049.08 722.337 1046.26 Q721.67 1042.98 719.891 1041.67 Q718.137 1040.34 716.358 1040.34 Q715.691 1040.34 714.975 1040.53 Q714.283 1040.73 713.27 1041.3 Q712.258 1041.87 711.467 1043.28 Q710.701 1044.68 710.331 1046.81 Q709.936 1049.55 709.936 1056.12 Z" fill="#000000" fill-rule="nonzero" fill-opacity="1" /><path clip-path="url(#clip520)" d="M734.12 1072.1 Q733.354 1071.29 733.354 1070.23 Q733.354 1069.16 734.12 1068.4 Q734.886 1067.61 736.047 1067.61 Q737.159 1067.61 737.9 1068.35 Q738.666 1069.07 738.666 1070.25 Q738.666 1071.41 737.85 1072.18 Q737.06 1072.92 736.047 1072.92 Q734.886 1072.92 734.12 1072.1 Z" fill="#000000" fill-rule="nonzero" fill-opacity="1" /><path clip-path="url(#clip520)" d="M745.632 1064.77 Q745.632 1063.26 746.447 1062.69 Q747.262 1062.1 748.127 1062.1 Q749.288 1062.1 749.955 1062.84 Q750.647 1063.56 750.647 1064.57 Q750.647 1065.58 749.955 1066.32 Q749.288 1067.04 748.127 1067.04 Q747.559 1067.04 747.262 1066.94 Q747.929 1069.26 749.955 1070.94 Q752.005 1072.62 754.698 1072.62 Q758.082 1072.62 760.108 1069.34 Q761.319 1067.21 761.319 1062.4 Q761.319 1058.15 760.404 1056.02 Q758.996 1052.79 756.106 1052.79 Q752.005 1052.79 749.584 1056.32 Q749.288 1056.76 748.942 1056.79 Q748.448 1056.79 748.325 1056.52 Q748.226 1056.22 748.226 1055.45 L748.226 1040.48 Q748.226 1039.27 748.72 1039.27 Q748.917 1039.27 749.337 1039.42 Q752.524 1040.83 756.057 1040.85 Q759.688 1040.85 762.949 1039.37 Q763.196 1039.22 763.344 1039.22 Q763.838 1039.22 763.863 1039.79 Q763.863 1039.99 763.443 1040.58 Q763.048 1041.15 762.183 1041.92 Q761.319 1042.66 760.207 1043.37 Q759.095 1044.09 757.465 1044.59 Q755.859 1045.05 754.08 1045.05 Q751.956 1045.05 749.782 1044.39 L749.782 1054.24 Q752.401 1051.67 756.205 1051.67 Q760.256 1051.67 763.048 1054.94 Q765.839 1058.2 765.839 1062.74 Q765.839 1067.51 762.529 1070.77 Q759.243 1074.03 754.797 1074.03 Q750.745 1074.03 748.176 1071.14 Q745.632 1068.25 745.632 1064.77 Z" fill="#000000" fill-rule="nonzero" fill-opacity="1" /><path clip-path="url(#clip520)" d="M863.126 1056.74 Q863.126 1049.3 865.004 1045.25 Q867.622 1039.22 873.798 1039.22 Q875.107 1039.22 876.466 1039.6 Q877.849 1039.94 879.579 1041.3 Q881.333 1042.66 882.395 1044.88 Q884.42 1049.18 884.42 1056.74 Q884.42 1064.13 882.543 1068.15 Q879.801 1074.03 873.749 1074.03 Q871.476 1074.03 869.154 1072.87 Q866.856 1071.71 865.399 1068.92 Q863.126 1064.74 863.126 1056.74 M867.326 1056.12 Q867.326 1063.75 867.869 1066.79 Q868.487 1070.08 870.167 1071.51 Q871.871 1072.92 873.749 1072.92 Q875.774 1072.92 877.454 1071.41 Q879.159 1069.88 879.677 1066.6 Q880.246 1063.36 880.221 1056.12 Q880.221 1049.08 879.727 1046.26 Q879.06 1042.98 877.281 1041.67 Q875.527 1040.34 873.749 1040.34 Q873.082 1040.34 872.365 1040.53 Q871.674 1040.73 870.661 1041.3 Q869.648 1041.87 868.857 1043.28 Q868.092 1044.68 867.721 1046.81 Q867.326 1049.55 867.326 1056.12 Z" fill="#000000" fill-rule="nonzero" fill-opacity="1" /><path clip-path="url(#clip520)" d="M891.51 1072.1 Q890.745 1071.29 890.745 1070.23 Q890.745 1069.16 891.51 1068.4 Q892.276 1067.61 893.437 1067.61 Q894.549 1067.61 895.29 1068.35 Q896.056 1069.07 896.056 1070.25 Q896.056 1071.41 895.241 1072.18 Q894.45 1072.92 893.437 1072.92 Q892.276 1072.92 891.51 1072.1 Z" fill="#000000" fill-rule="nonzero" fill-opacity="1" /><path clip-path="url(#clip520)" d="M902.479 1056.74 Q902.479 1049.3 904.356 1045.25 Q906.975 1039.22 913.15 1039.22 Q914.46 1039.22 915.818 1039.6 Q917.202 1039.94 918.931 1041.3 Q920.685 1042.66 921.747 1044.88 Q923.773 1049.18 923.773 1056.74 Q923.773 1064.13 921.895 1068.15 Q919.153 1074.03 913.101 1074.03 Q910.828 1074.03 908.506 1072.87 Q906.209 1071.71 904.751 1068.92 Q902.479 1064.74 902.479 1056.74 M906.678 1056.12 Q906.678 1063.75 907.222 1066.79 Q907.839 1070.08 909.519 1071.51 Q911.224 1072.92 913.101 1072.92 Q915.127 1072.92 916.807 1071.41 Q918.511 1069.88 919.03 1066.6 Q919.598 1063.36 919.573 1056.12 Q919.573 1049.08 919.079 1046.26 Q918.412 1042.98 916.634 1041.67 Q914.88 1040.34 913.101 1040.34 Q912.434 1040.34 911.718 1040.53 Q911.026 1040.73 910.013 1041.3 Q909 1041.87 908.21 1043.28 Q907.444 1044.68 907.073 1046.81 Q906.678 1049.55 906.678 1056.12 Z" fill="#000000" fill-rule="nonzero" fill-opacity="1" /><path clip-path="url(#clip520)" d="M1040.3 1056.74 Q1040.3 1049.3 1042.18 1045.25 Q1044.8 1039.22 1050.98 1039.22 Q1052.28 1039.22 1053.64 1039.6 Q1055.03 1039.94 1056.76 1041.3 Q1058.51 1042.66 1059.57 1044.88 Q1061.6 1049.18 1061.6 1056.74 Q1061.6 1064.13 1059.72 1068.15 Q1056.98 1074.03 1050.93 1074.03 Q1048.65 1074.03 1046.33 1072.87 Q1044.03 1071.71 1042.58 1068.92 Q1040.3 1064.74 1040.3 1056.74 M1044.5 1056.12 Q1044.5 1063.75 1045.05 1066.79 Q1045.66 1070.08 1047.34 1071.51 Q1049.05 1072.92 1050.93 1072.92 Q1052.95 1072.92 1054.63 1071.41 Q1056.34 1069.88 1056.85 1066.6 Q1057.42 1063.36 1057.4 1056.12 Q1057.4 1049.08 1056.9 1046.26 Q1056.24 1042.98 1054.46 1041.67 Q1052.7 1040.34 1050.93 1040.34 Q1050.26 1040.34 1049.54 1040.53 Q1048.85 1040.73 1047.84 1041.3 Q1046.83 1041.87 1046.03 1043.28 Q1045.27 1044.68 1044.9 1046.81 Q1044.5 1049.55 1044.5 1056.12 Z" fill="#000000" fill-rule="nonzero" fill-opacity="1" /><path clip-path="url(#clip520)" d="M1068.69 1072.1 Q1067.92 1071.29 1067.92 1070.23 Q1067.92 1069.16 1068.69 1068.4 Q1069.45 1067.61 1070.61 1067.61 Q1071.73 1067.61 1072.47 1068.35 Q1073.23 1069.07 1073.23 1070.25 Q1073.23 1071.41 1072.42 1072.18 Q1071.63 1072.92 1070.61 1072.92 Q1069.45 1072.92 1068.69 1072.1 Z" fill="#000000" fill-rule="nonzero" fill-opacity="1" /><path clip-path="url(#clip520)" d="M1080.2 1064.77 Q1080.2 1063.26 1081.01 1062.69 Q1081.83 1062.1 1082.69 1062.1 Q1083.86 1062.1 1084.52 1062.84 Q1085.21 1063.56 1085.21 1064.57 Q1085.21 1065.58 1084.52 1066.32 Q1083.86 1067.04 1082.69 1067.04 Q1082.13 1067.04 1081.83 1066.94 Q1082.5 1069.26 1084.52 1070.94 Q1086.57 1072.62 1089.27 1072.62 Q1092.65 1072.62 1094.68 1069.34 Q1095.89 1067.21 1095.89 1062.4 Q1095.89 1058.15 1094.97 1056.02 Q1093.56 1052.79 1090.67 1052.79 Q1086.57 1052.79 1084.15 1056.32 Q1083.86 1056.76 1083.51 1056.79 Q1083.02 1056.79 1082.89 1056.52 Q1082.79 1056.22 1082.79 1055.45 L1082.79 1040.48 Q1082.79 1039.27 1083.29 1039.27 Q1083.49 1039.27 1083.91 1039.42 Q1087.09 1040.83 1090.62 1040.85 Q1094.26 1040.85 1097.52 1039.37 Q1097.76 1039.22 1097.91 1039.22 Q1098.41 1039.22 1098.43 1039.79 Q1098.43 1039.99 1098.01 1040.58 Q1097.62 1041.15 1096.75 1041.92 Q1095.89 1042.66 1094.77 1043.37 Q1093.66 1044.09 1092.03 1044.59 Q1090.43 1045.05 1088.65 1045.05 Q1086.52 1045.05 1084.35 1044.39 L1084.35 1054.24 Q1086.97 1051.67 1090.77 1051.67 Q1094.82 1051.67 1097.62 1054.94 Q1100.41 1058.2 1100.41 1062.74 Q1100.41 1067.51 1097.1 1070.77 Q1093.81 1074.03 1089.36 1074.03 Q1085.31 1074.03 1082.74 1071.14 Q1080.2 1068.25 1080.2 1064.77 Z" fill="#000000" fill-rule="nonzero" fill-opacity="1" /><path clip-path="url(#clip520)" d="M1218.2 1044.04 L1218.2 1042.46 Q1224.27 1042.46 1227.41 1039.22 Q1228.28 1039.22 1228.42 1039.42 Q1228.57 1039.62 1228.57 1040.53 L1228.57 1068.92 Q1228.57 1070.42 1229.31 1070.89 Q1230.06 1071.36 1233.29 1071.36 L1234.9 1071.36 L1234.9 1072.92 Q1233.12 1072.77 1226.7 1072.77 Q1220.27 1072.77 1218.52 1072.92 L1218.52 1071.36 L1220.12 1071.36 Q1223.31 1071.36 1224.08 1070.92 Q1224.84 1070.45 1224.84 1068.92 L1224.84 1042.71 Q1222.2 1044.04 1218.2 1044.04 Z" fill="#000000" fill-rule="nonzero" fill-opacity="1" /><path clip-path="url(#clip520)" d="M1244.06 1072.1 Q1243.3 1071.29 1243.3 1070.23 Q1243.3 1069.16 1244.06 1068.4 Q1244.83 1067.61 1245.99 1067.61 Q1247.1 1067.61 1247.84 1068.35 Q1248.61 1069.07 1248.61 1070.25 Q1248.61 1071.41 1247.79 1072.18 Q1247 1072.92 1245.99 1072.92 Q1244.83 1072.92 1244.06 1072.1 Z" fill="#000000" fill-rule="nonzero" fill-opacity="1" /><path clip-path="url(#clip520)" d="M1255.03 1056.74 Q1255.03 1049.3 1256.91 1045.25 Q1259.53 1039.22 1265.7 1039.22 Q1267.01 1039.22 1268.37 1039.6 Q1269.75 1039.94 1271.48 1041.3 Q1273.24 1042.66 1274.3 1044.88 Q1276.32 1049.18 1276.32 1056.74 Q1276.32 1064.13 1274.45 1068.15 Q1271.71 1074.03 1265.65 1074.03 Q1263.38 1074.03 1261.06 1072.87 Q1258.76 1071.71 1257.3 1068.92 Q1255.03 1064.74 1255.03 1056.74 M1259.23 1056.12 Q1259.23 1063.75 1259.77 1066.79 Q1260.39 1070.08 1262.07 1071.51 Q1263.78 1072.92 1265.65 1072.92 Q1267.68 1072.92 1269.36 1071.41 Q1271.06 1069.88 1271.58 1066.6 Q1272.15 1063.36 1272.13 1056.12 Q1272.13 1049.08 1271.63 1046.26 Q1270.96 1042.98 1269.19 1041.67 Q1267.43 1040.34 1265.65 1040.34 Q1264.99 1040.34 1264.27 1040.53 Q1263.58 1040.73 1262.56 1041.3 Q1261.55 1041.87 1260.76 1043.28 Q1260 1044.68 1259.63 1046.81 Q1259.23 1049.55 1259.23 1056.12 Z" fill="#000000" fill-rule="nonzero" fill-opacity="1" /><path clip-path="url(#clip520)" d="M1395.38 1044.04 L1395.38 1042.46 Q1401.45 1042.46 1404.59 1039.22 Q1405.45 1039.22 1405.6 1039.42 Q1405.75 1039.62 1405.75 1040.53 L1405.75 1068.92 Q1405.75 1070.42 1406.49 1070.89 Q1407.23 1071.36 1410.47 1071.36 L1412.07 1071.36 L1412.07 1072.92 Q1410.3 1072.77 1403.87 1072.77 Q1397.45 1072.77 1395.7 1072.92 L1395.7 1071.36 L1397.3 1071.36 Q1400.49 1071.36 1401.25 1070.92 Q1402.02 1070.45 1402.02 1068.92 L1402.02 1042.71 Q1399.38 1044.04 1395.38 1044.04 Z" fill="#000000" fill-rule="nonzero" fill-opacity="1" /><path clip-path="url(#clip520)" d="M1421.24 1072.1 Q1420.47 1071.29 1420.47 1070.23 Q1420.47 1069.16 1421.24 1068.4 Q1422.01 1067.61 1423.17 1067.61 Q1424.28 1067.61 1425.02 1068.35 Q1425.79 1069.07 1425.79 1070.25 Q1425.79 1071.41 1424.97 1072.18 Q1424.18 1072.92 1423.17 1072.92 Q1422.01 1072.92 1421.24 1072.1 Z" fill="#000000" fill-rule="nonzero" fill-opacity="1" /><path clip-path="url(#clip520)" d="M1432.75 1064.77 Q1432.75 1063.26 1433.57 1062.69 Q1434.38 1062.1 1435.25 1062.1 Q1436.41 1062.1 1437.07 1062.84 Q1437.77 1063.56 1437.77 1064.57 Q1437.77 1065.58 1437.07 1066.32 Q1436.41 1067.04 1435.25 1067.04 Q1434.68 1067.04 1434.38 1066.94 Q1435.05 1069.26 1437.07 1070.94 Q1439.12 1072.62 1441.82 1072.62 Q1445.2 1072.62 1447.23 1069.34 Q1448.44 1067.21 1448.44 1062.4 Q1448.44 1058.15 1447.52 1056.02 Q1446.12 1052.79 1443.23 1052.79 Q1439.12 1052.79 1436.7 1056.32 Q1436.41 1056.76 1436.06 1056.79 Q1435.57 1056.79 1435.44 1056.52 Q1435.35 1056.22 1435.35 1055.45 L1435.35 1040.48 Q1435.35 1039.27 1435.84 1039.27 Q1436.04 1039.27 1436.46 1039.42 Q1439.64 1040.83 1443.18 1040.85 Q1446.81 1040.85 1450.07 1039.37 Q1450.32 1039.22 1450.46 1039.22 Q1450.96 1039.22 1450.98 1039.79 Q1450.98 1039.99 1450.56 1040.58 Q1450.17 1041.15 1449.3 1041.92 Q1448.44 1042.66 1447.33 1043.37 Q1446.21 1044.09 1444.58 1044.59 Q1442.98 1045.05 1441.2 1045.05 Q1439.08 1045.05 1436.9 1044.39 L1436.9 1054.24 Q1439.52 1051.67 1443.32 1051.67 Q1447.38 1051.67 1450.17 1054.94 Q1452.96 1058.2 1452.96 1062.74 Q1452.96 1067.51 1449.65 1070.77 Q1446.36 1074.03 1441.92 1074.03 Q1437.87 1074.03 1435.3 1071.14 Q1432.75 1068.25 1432.75 1064.77 Z" fill="#000000" fill-rule="nonzero" fill-opacity="1" /><path clip-path="url(#clip520)" d="M816.004 1121.96 L816.004 1119.79 Q819.129 1119.99 822.764 1119.99 Q824.089 1119.99 830.339 1119.79 L830.339 1121.96 Q826.364 1121.96 826.364 1123.77 Q826.364 1124.04 826.772 1124.95 L834.585 1144.35 L841.684 1126.62 Q842.091 1125.43 842.091 1124.95 Q842.091 1123.77 841.276 1122.92 Q840.495 1122.03 838.762 1121.96 L838.762 1119.79 Q842.295 1119.99 844.809 1119.99 Q847.662 1119.99 850.006 1119.79 L850.006 1121.96 Q847.934 1121.96 846.473 1122.92 Q845.012 1123.83 844.537 1124.65 Q844.095 1125.43 843.62 1126.62 L834.517 1149.24 Q833.973 1150.57 833.056 1150.57 Q832.445 1150.57 832.173 1150.29 Q831.935 1150.06 831.595 1149.24 L821.575 1124.55 Q820.896 1122.81 820.013 1122.41 Q819.129 1121.96 816.004 1121.96 Z" fill="#000000" fill-rule="nonzero" fill-opacity="1" /><path clip-path="url(#clip520)" d="M852.315 1143.16 Q852.315 1137.25 859.279 1134.13 Q863.457 1132.12 872.084 1131.61 L872.084 1129.06 Q872.084 1124.75 869.808 1122.47 Q867.567 1120.16 864.713 1120.16 Q859.618 1120.16 857.173 1123.36 Q859.245 1123.43 859.992 1124.48 Q860.739 1125.5 860.739 1126.55 Q860.739 1127.94 859.856 1128.86 Q859.007 1129.74 857.546 1129.74 Q856.154 1129.74 855.237 1128.89 Q854.319 1128.01 854.319 1126.48 Q854.319 1123.09 857.376 1120.84 Q860.467 1118.6 864.849 1118.6 Q870.556 1118.6 874.36 1122.44 Q875.549 1123.63 876.126 1125.16 Q876.738 1126.69 876.806 1127.71 Q876.874 1128.69 876.874 1130.66 L876.874 1144.55 Q876.874 1144.96 877.009 1145.64 Q877.145 1146.32 877.757 1147.2 Q878.402 1148.05 879.455 1148.05 Q881.969 1148.05 881.935 1143.6 L881.935 1139.7 L883.701 1139.7 L883.701 1143.6 Q883.701 1147.3 881.731 1148.76 Q879.795 1150.19 877.994 1150.19 Q875.685 1150.19 874.224 1148.49 Q872.764 1146.79 872.56 1144.48 Q871.507 1147.13 869.095 1148.87 Q866.717 1150.57 863.457 1150.57 Q860.943 1150.57 858.565 1149.92 Q856.222 1149.31 854.251 1147.58 Q852.315 1145.81 852.315 1143.16 M857.682 1143.09 Q857.682 1145.67 859.516 1147.34 Q861.351 1149 863.932 1149 Q866.853 1149 869.469 1146.76 Q872.084 1144.48 872.084 1140.04 L872.084 1133.07 Q864.374 1133.34 861.011 1136.43 Q857.682 1139.49 857.682 1143.09 Z" fill="#000000" fill-rule="nonzero" fill-opacity="1" /><path clip-path="url(#clip520)" d="M886.486 1149.78 L886.486 1147.64 Q890.189 1147.64 891.038 1147.2 Q891.887 1146.73 891.887 1144.48 L891.887 1108.31 Q891.887 1105.73 890.97 1105.08 Q890.087 1104.44 886.486 1104.44 L886.486 1102.26 L896.473 1101.52 L896.473 1144.48 Q896.473 1146.73 897.356 1147.2 Q898.239 1147.64 901.907 1147.64 L901.907 1149.78 Q901.058 1149.78 899.292 1149.72 Q897.526 1149.65 896.235 1149.61 Q894.944 1149.58 894.197 1149.58 Q893.382 1149.58 886.486 1149.78 Z" fill="#000000" fill-rule="nonzero" fill-opacity="1" /><path clip-path="url(#clip520)" d="M905.678 1121.96 L905.678 1119.79 L915.902 1119.04 L915.902 1142.14 Q915.902 1143.81 916.038 1144.79 Q916.174 1145.74 916.717 1146.86 Q917.294 1147.98 918.585 1148.49 Q919.91 1149 922.016 1149 Q925.786 1149 928.096 1145.91 Q930.44 1142.82 930.44 1138.24 L930.44 1125.84 Q930.44 1123.26 929.523 1122.61 Q928.605 1121.96 925.005 1121.96 L925.005 1119.79 L935.229 1119.04 L935.229 1143.74 Q935.229 1146.32 936.112 1147 Q937.029 1147.64 940.664 1147.64 L940.664 1149.78 L930.644 1150.57 L930.644 1144.28 Q927.722 1150.53 921.676 1150.57 Q918.619 1150.57 916.513 1149.78 Q914.441 1149 913.388 1148.05 Q912.335 1147.07 911.758 1145.2 Q911.214 1143.33 911.146 1142.18 Q911.078 1141.02 911.078 1138.78 L911.078 1128.35 Q911.078 1123.63 910.399 1122.81 Q909.72 1121.96 905.678 1121.96 Z" fill="#000000" fill-rule="nonzero" fill-opacity="1" /><path clip-path="url(#clip520)" d="M943.959 1134.46 Q943.959 1127.91 948.171 1123.26 Q952.382 1118.6 958.429 1118.6 Q964.543 1118.6 967.702 1122.58 Q970.895 1126.55 970.895 1132.26 Q970.895 1133.31 970.623 1133.51 Q970.351 1133.72 969.162 1133.72 L949.733 1133.72 Q949.733 1140.82 951.839 1144.15 Q954.76 1148.8 959.685 1148.8 Q960.365 1148.8 961.18 1148.66 Q961.995 1148.53 963.66 1147.95 Q965.324 1147.34 966.785 1145.74 Q968.245 1144.15 969.094 1141.63 Q969.298 1140.65 969.977 1140.68 Q970.895 1140.68 970.895 1141.5 Q970.895 1142.11 970.215 1143.5 Q969.57 1144.86 968.313 1146.49 Q967.056 1148.12 964.611 1149.34 Q962.199 1150.57 959.278 1150.57 Q953.164 1150.57 948.544 1145.95 Q943.959 1141.29 943.959 1134.46 M949.801 1132.26 L966.309 1132.26 Q966.309 1130.8 966.037 1129.17 Q965.799 1127.54 965.052 1125.29 Q964.339 1123.02 962.641 1121.59 Q960.942 1120.16 958.429 1120.16 Q957.308 1120.16 956.085 1120.64 Q954.896 1121.12 953.435 1122.27 Q951.975 1123.43 950.956 1126.04 Q949.937 1128.66 949.801 1132.26 Z" fill="#000000" fill-rule="nonzero" fill-opacity="1" /><polyline clip-path="url(#clip520)" style="stroke:#000000; stroke-linecap:round; stroke-linejoin:round; stroke-width:4; stroke-opacity:1; fill:none" points="297.135,1016.92 297.135,47.2441 "/>
<polyline clip-path="url(#clip520)" style="stroke:#000000; stroke-linecap:round; stroke-linejoin:round; stroke-width:4; stroke-opacity:1; fill:none" points="1489.76,1016.92 1489.76,47.2441 "/>
<polyline clip-path="url(#clip520)" style="stroke:#000000; stroke-linecap:round; stroke-linejoin:round; stroke-width:4; stroke-opacity:1; fill:none" points="297.135,1016.92 316.033,1016.92 "/>
<polyline clip-path="url(#clip520)" style="stroke:#000000; stroke-linecap:round; stroke-linejoin:round; stroke-width:4; stroke-opacity:1; fill:none" points="297.135,782.471 316.033,782.471 "/>
<polyline clip-path="url(#clip520)" style="stroke:#000000; stroke-linecap:round; stroke-linejoin:round; stroke-width:4; stroke-opacity:1; fill:none" points="297.135,548.022 316.033,548.022 "/>
<polyline clip-path="url(#clip520)" style="stroke:#000000; stroke-linecap:round; stroke-linejoin:round; stroke-width:4; stroke-opacity:1; fill:none" points="297.135,313.573 316.033,313.573 "/>
<polyline clip-path="url(#clip520)" style="stroke:#000000; stroke-linecap:round; stroke-linejoin:round; stroke-width:4; stroke-opacity:1; fill:none" points="297.135,79.1244 316.033,79.1244 "/>
<polyline clip-path="url(#clip520)" style="stroke:#000000; stroke-linecap:round; stroke-linejoin:round; stroke-width:4; stroke-opacity:1; fill:none" points="1489.76,1016.92 1470.87,1016.92 "/>
<polyline clip-path="url(#clip520)" style="stroke:#000000; stroke-linecap:round; stroke-linejoin:round; stroke-width:4; stroke-opacity:1; fill:none" points="1489.76,782.471 1470.87,782.471 "/>
<polyline clip-path="url(#clip520)" style="stroke:#000000; stroke-linecap:round; stroke-linejoin:round; stroke-width:4; stroke-opacity:1; fill:none" points="1489.76,548.022 1470.87,548.022 "/>
<polyline clip-path="url(#clip520)" style="stroke:#000000; stroke-linecap:round; stroke-linejoin:round; stroke-width:4; stroke-opacity:1; fill:none" points="1489.76,313.573 1470.87,313.573 "/>
<polyline clip-path="url(#clip520)" style="stroke:#000000; stroke-linecap:round; stroke-linejoin:round; stroke-width:4; stroke-opacity:1; fill:none" points="1489.76,79.1244 1470.87,79.1244 "/>
<path clip-path="url(#clip520)" d="M187.192 1018.02 Q187.192 1010.58 189.07 1006.53 Q191.688 1000.5 197.864 1000.5 Q199.173 1000.5 200.532 1000.88 Q201.915 1001.22 203.645 1002.58 Q205.399 1003.94 206.461 1006.16 Q208.487 1010.46 208.487 1018.02 Q208.487 1025.41 206.609 1029.43 Q203.867 1035.31 197.815 1035.31 Q195.542 1035.31 193.22 1034.15 Q190.922 1032.99 189.465 1030.2 Q187.192 1026.02 187.192 1018.02 M191.392 1017.4 Q191.392 1025.03 191.935 1028.07 Q192.553 1031.36 194.233 1032.79 Q195.937 1034.2 197.815 1034.2 Q199.84 1034.2 201.52 1032.69 Q203.225 1031.16 203.744 1027.88 Q204.312 1024.64 204.287 1017.4 Q204.287 1010.36 203.793 1007.54 Q203.126 1004.26 201.347 1002.95 Q199.593 1001.62 197.815 1001.62 Q197.148 1001.62 196.431 1001.81 Q195.74 1002.01 194.727 1002.58 Q193.714 1003.15 192.923 1004.56 Q192.158 1005.96 191.787 1008.09 Q191.392 1010.83 191.392 1017.4 Z" fill="#000000" fill-rule="nonzero" fill-opacity="1" /><path clip-path="url(#clip520)" d="M215.576 1033.38 Q214.811 1032.57 214.811 1031.51 Q214.811 1030.44 215.576 1029.68 Q216.342 1028.89 217.503 1028.89 Q218.615 1028.89 219.356 1029.63 Q220.122 1030.35 220.122 1031.53 Q220.122 1032.69 219.307 1033.46 Q218.516 1034.2 217.503 1034.2 Q216.342 1034.2 215.576 1033.38 Z" fill="#000000" fill-rule="nonzero" fill-opacity="1" /><path clip-path="url(#clip520)" d="M226.545 1018.02 Q226.545 1010.58 228.422 1006.53 Q231.041 1000.5 237.217 1000.5 Q238.526 1000.5 239.885 1000.88 Q241.268 1001.22 242.997 1002.58 Q244.751 1003.94 245.813 1006.16 Q247.839 1010.46 247.839 1018.02 Q247.839 1025.41 245.962 1029.43 Q243.22 1035.31 237.167 1035.31 Q234.894 1035.31 232.572 1034.15 Q230.275 1032.99 228.817 1030.2 Q226.545 1026.02 226.545 1018.02 M230.744 1017.4 Q230.744 1025.03 231.288 1028.07 Q231.905 1031.36 233.585 1032.79 Q235.29 1034.2 237.167 1034.2 Q239.193 1034.2 240.873 1032.69 Q242.577 1031.16 243.096 1027.88 Q243.664 1024.64 243.639 1017.4 Q243.639 1010.36 243.145 1007.54 Q242.478 1004.26 240.7 1002.95 Q238.946 1001.62 237.167 1001.62 Q236.5 1001.62 235.784 1001.81 Q235.092 1002.01 234.079 1002.58 Q233.066 1003.15 232.276 1004.56 Q231.51 1005.96 231.14 1008.09 Q230.744 1010.83 230.744 1017.4 Z" fill="#000000" fill-rule="nonzero" fill-opacity="1" /><path clip-path="url(#clip520)" d="M251.841 1018.02 Q251.841 1010.58 253.718 1006.53 Q256.337 1000.5 262.513 1000.5 Q263.822 1000.5 265.181 1000.88 Q266.564 1001.22 268.293 1002.58 Q270.047 1003.94 271.11 1006.16 Q273.135 1010.46 273.135 1018.02 Q273.135 1025.41 271.258 1029.43 Q268.516 1035.31 262.463 1035.31 Q260.191 1035.31 257.869 1034.15 Q255.571 1032.99 254.114 1030.2 Q251.841 1026.02 251.841 1018.02 M256.041 1017.4 Q256.041 1025.03 256.584 1028.07 Q257.202 1031.36 258.881 1032.79 Q260.586 1034.2 262.463 1034.2 Q264.489 1034.2 266.169 1032.69 Q267.873 1031.16 268.392 1027.88 Q268.96 1024.64 268.936 1017.4 Q268.936 1010.36 268.442 1007.54 Q267.775 1004.26 265.996 1002.95 Q264.242 1001.62 262.463 1001.62 Q261.796 1001.62 261.08 1001.81 Q260.388 1002.01 259.376 1002.58 Q258.363 1003.15 257.572 1004.56 Q256.806 1005.96 256.436 1008.09 Q256.041 1010.83 256.041 1017.4 Z" fill="#000000" fill-rule="nonzero" fill-opacity="1" /><path clip-path="url(#clip520)" d="M187.736 783.57 Q187.736 776.135 189.613 772.083 Q192.232 766.056 198.408 766.056 Q199.717 766.056 201.076 766.426 Q202.459 766.772 204.188 768.131 Q205.942 769.489 207.004 771.713 Q209.03 776.011 209.03 783.57 Q209.03 790.957 207.153 794.983 Q204.411 800.863 198.358 800.863 Q196.085 800.863 193.763 799.702 Q191.466 798.541 190.008 795.749 Q187.736 791.574 187.736 783.57 M191.935 782.953 Q191.935 790.586 192.479 793.625 Q193.096 796.91 194.776 798.343 Q196.481 799.751 198.358 799.751 Q200.384 799.751 202.064 798.244 Q203.768 796.712 204.287 793.427 Q204.855 790.191 204.83 782.953 Q204.83 775.912 204.336 773.096 Q203.669 769.811 201.891 768.501 Q200.137 767.167 198.358 767.167 Q197.691 767.167 196.975 767.365 Q196.283 767.563 195.27 768.131 Q194.257 768.699 193.467 770.107 Q192.701 771.515 192.331 773.64 Q191.935 776.382 191.935 782.953 Z" fill="#000000" fill-rule="nonzero" fill-opacity="1" /><path clip-path="url(#clip520)" d="M216.12 798.936 Q215.354 798.121 215.354 797.058 Q215.354 795.996 216.12 795.23 Q216.886 794.44 218.047 794.44 Q219.158 794.44 219.9 795.181 Q220.665 795.897 220.665 797.083 Q220.665 798.244 219.85 799.01 Q219.06 799.751 218.047 799.751 Q216.886 799.751 216.12 798.936 Z" fill="#000000" fill-rule="nonzero" fill-opacity="1" /><path clip-path="url(#clip520)" d="M227.632 799.751 Q227.632 798.837 227.706 798.565 Q227.805 798.293 228.2 797.874 L237.908 787.053 Q243.22 781.075 243.22 775.863 Q243.22 772.478 241.441 770.058 Q239.687 767.637 236.451 767.637 Q234.227 767.637 232.35 768.995 Q230.473 770.354 229.608 772.775 Q229.756 772.726 230.275 772.726 Q231.535 772.726 232.227 773.516 Q232.943 774.307 232.943 775.369 Q232.943 776.727 232.054 777.394 Q231.189 778.037 230.324 778.037 Q229.979 778.037 229.509 777.963 Q229.064 777.889 228.348 777.197 Q227.632 776.48 227.632 775.221 Q227.632 771.688 230.3 768.872 Q232.992 766.056 237.093 766.056 Q241.737 766.056 244.776 768.822 Q247.839 771.564 247.839 775.863 Q247.839 777.37 247.37 778.753 Q246.925 780.112 246.307 781.174 Q245.715 782.236 244.084 783.941 Q242.454 785.645 241.144 786.856 Q239.835 788.066 236.895 790.635 L231.535 795.848 L240.65 795.848 Q245.097 795.848 245.443 795.453 Q245.937 794.736 246.554 790.957 L247.839 790.957 L246.406 799.751 L227.632 799.751 Z" fill="#000000" fill-rule="nonzero" fill-opacity="1" /><path clip-path="url(#clip520)" d="M252.928 791.599 Q252.928 790.092 253.743 789.524 Q254.558 788.931 255.423 788.931 Q256.584 788.931 257.251 789.672 Q257.943 790.388 257.943 791.401 Q257.943 792.414 257.251 793.155 Q256.584 793.872 255.423 793.872 Q254.855 793.872 254.558 793.773 Q255.225 796.095 257.251 797.775 Q259.301 799.455 261.994 799.455 Q265.378 799.455 267.404 796.169 Q268.615 794.045 268.615 789.227 Q268.615 784.978 267.701 782.854 Q266.292 779.618 263.402 779.618 Q259.301 779.618 256.88 783.15 Q256.584 783.595 256.238 783.62 Q255.744 783.62 255.621 783.348 Q255.522 783.052 255.522 782.286 L255.522 767.315 Q255.522 766.105 256.016 766.105 Q256.213 766.105 256.633 766.253 Q259.82 767.661 263.353 767.686 Q266.984 767.686 270.245 766.204 Q270.492 766.056 270.64 766.056 Q271.134 766.056 271.159 766.624 Q271.159 766.821 270.739 767.414 Q270.344 767.982 269.479 768.748 Q268.615 769.489 267.503 770.206 Q266.391 770.922 264.761 771.416 Q263.155 771.886 261.376 771.886 Q259.252 771.886 257.078 771.219 L257.078 781.075 Q259.697 778.506 263.501 778.506 Q267.552 778.506 270.344 781.767 Q273.135 785.028 273.135 789.573 Q273.135 794.341 269.825 797.602 Q266.539 800.863 262.093 800.863 Q258.042 800.863 255.472 797.972 Q252.928 795.082 252.928 791.599 Z" fill="#000000" fill-rule="nonzero" fill-opacity="1" /><path clip-path="url(#clip520)" d="M187.192 549.121 Q187.192 541.686 189.07 537.634 Q191.688 531.607 197.864 531.607 Q199.173 531.607 200.532 531.977 Q201.915 532.323 203.645 533.682 Q205.399 535.041 206.461 537.264 Q208.487 541.562 208.487 549.121 Q208.487 556.508 206.609 560.534 Q203.867 566.414 197.815 566.414 Q195.542 566.414 193.22 565.253 Q190.922 564.092 189.465 561.3 Q187.192 557.125 187.192 549.121 M191.392 548.504 Q191.392 556.137 191.935 559.176 Q192.553 562.461 194.233 563.894 Q195.937 565.302 197.815 565.302 Q199.84 565.302 201.52 563.795 Q203.225 562.264 203.744 558.978 Q204.312 555.742 204.287 548.504 Q204.287 541.463 203.793 538.647 Q203.126 535.362 201.347 534.052 Q199.593 532.718 197.815 532.718 Q197.148 532.718 196.431 532.916 Q195.74 533.114 194.727 533.682 Q193.714 534.25 192.923 535.658 Q192.158 537.066 191.787 539.191 Q191.392 541.933 191.392 548.504 Z" fill="#000000" fill-rule="nonzero" fill-opacity="1" /><path clip-path="url(#clip520)" d="M215.576 564.487 Q214.811 563.672 214.811 562.609 Q214.811 561.547 215.576 560.781 Q216.342 559.991 217.503 559.991 Q218.615 559.991 219.356 560.732 Q220.122 561.448 220.122 562.634 Q220.122 563.795 219.307 564.561 Q218.516 565.302 217.503 565.302 Q216.342 565.302 215.576 564.487 Z" fill="#000000" fill-rule="nonzero" fill-opacity="1" /><path clip-path="url(#clip520)" d="M227.088 557.15 Q227.088 555.643 227.903 555.075 Q228.719 554.482 229.583 554.482 Q230.744 554.482 231.411 555.223 Q232.103 555.94 232.103 556.952 Q232.103 557.965 231.411 558.706 Q230.744 559.423 229.583 559.423 Q229.015 559.423 228.719 559.324 Q229.386 561.646 231.411 563.326 Q233.462 565.006 236.154 565.006 Q239.539 565.006 241.564 561.72 Q242.775 559.596 242.775 554.778 Q242.775 550.53 241.861 548.405 Q240.453 545.169 237.562 545.169 Q233.462 545.169 231.041 548.701 Q230.744 549.146 230.398 549.171 Q229.904 549.171 229.781 548.899 Q229.682 548.603 229.682 547.837 L229.682 532.867 Q229.682 531.656 230.176 531.656 Q230.374 531.656 230.794 531.804 Q233.98 533.212 237.513 533.237 Q241.144 533.237 244.405 531.755 Q244.652 531.607 244.801 531.607 Q245.295 531.607 245.319 532.175 Q245.319 532.373 244.899 532.965 Q244.504 533.534 243.639 534.299 Q242.775 535.041 241.663 535.757 Q240.552 536.473 238.921 536.967 Q237.315 537.437 235.537 537.437 Q233.412 537.437 231.238 536.77 L231.238 546.626 Q233.857 544.057 237.661 544.057 Q241.713 544.057 244.504 547.318 Q247.296 550.579 247.296 555.124 Q247.296 559.892 243.985 563.153 Q240.7 566.414 236.253 566.414 Q232.202 566.414 229.633 563.523 Q227.088 560.633 227.088 557.15 Z" fill="#000000" fill-rule="nonzero" fill-opacity="1" /><path clip-path="url(#clip520)" d="M251.841 549.121 Q251.841 541.686 253.718 537.634 Q256.337 531.607 262.513 531.607 Q263.822 531.607 265.181 531.977 Q266.564 532.323 268.293 533.682 Q270.047 535.041 271.11 537.264 Q273.135 541.562 273.135 549.121 Q273.135 556.508 271.258 560.534 Q268.516 566.414 262.463 566.414 Q260.191 566.414 257.869 565.253 Q255.571 564.092 254.114 561.3 Q251.841 557.125 251.841 549.121 M256.041 548.504 Q256.041 556.137 256.584 559.176 Q257.202 562.461 258.881 563.894 Q260.586 565.302 262.463 565.302 Q264.489 565.302 266.169 563.795 Q267.873 562.264 268.392 558.978 Q268.96 555.742 268.936 548.504 Q268.936 541.463 268.442 538.647 Q267.775 535.362 265.996 534.052 Q264.242 532.718 262.463 532.718 Q261.796 532.718 261.08 532.916 Q260.388 533.114 259.376 533.682 Q258.363 534.25 257.572 535.658 Q256.806 537.066 256.436 539.191 Q256.041 541.933 256.041 548.504 Z" fill="#000000" fill-rule="nonzero" fill-opacity="1" /><path clip-path="url(#clip520)" d="M187.736 314.673 Q187.736 307.237 189.613 303.185 Q192.232 297.158 198.408 297.158 Q199.717 297.158 201.076 297.528 Q202.459 297.874 204.188 299.233 Q205.942 300.592 207.004 302.815 Q209.03 307.113 209.03 314.673 Q209.03 322.059 207.153 326.086 Q204.411 331.965 198.358 331.965 Q196.085 331.965 193.763 330.804 Q191.466 329.643 190.008 326.851 Q187.736 322.676 187.736 314.673 M191.935 314.055 Q191.935 321.688 192.479 324.727 Q193.096 328.012 194.776 329.445 Q196.481 330.853 198.358 330.853 Q200.384 330.853 202.064 329.346 Q203.768 327.815 204.287 324.529 Q204.855 321.293 204.83 314.055 Q204.83 307.015 204.336 304.198 Q203.669 300.913 201.891 299.604 Q200.137 298.27 198.358 298.27 Q197.691 298.27 196.975 298.467 Q196.283 298.665 195.27 299.233 Q194.257 299.801 193.467 301.209 Q192.701 302.617 192.331 304.742 Q191.935 307.484 191.935 314.055 Z" fill="#000000" fill-rule="nonzero" fill-opacity="1" /><path clip-path="url(#clip520)" d="M216.12 330.038 Q215.354 329.223 215.354 328.161 Q215.354 327.098 216.12 326.333 Q216.886 325.542 218.047 325.542 Q219.158 325.542 219.9 326.283 Q220.665 327 220.665 328.185 Q220.665 329.346 219.85 330.112 Q219.06 330.853 218.047 330.853 Q216.886 330.853 216.12 330.038 Z" fill="#000000" fill-rule="nonzero" fill-opacity="1" /><path clip-path="url(#clip520)" d="M227.953 307.064 L229.608 296.664 L230.868 296.664 Q231.016 297.281 231.263 297.553 Q231.535 297.825 232.968 298.047 Q234.425 298.27 237.365 298.27 L249.642 298.27 Q249.642 299.431 249.198 300.048 L242.355 309.658 Q240.181 312.696 239.218 318.304 Q238.649 322.059 238.674 326.604 L238.674 329.173 Q238.674 331.965 236.327 331.965 Q234.005 331.965 234.005 329.173 Q234.005 319.514 240.23 310.152 Q240.897 309.188 243.343 305.755 Q245.813 302.321 245.912 302.173 L235.438 302.173 Q230.843 302.173 230.473 302.469 Q229.979 302.914 229.213 307.064 L227.953 307.064 Z" fill="#000000" fill-rule="nonzero" fill-opacity="1" /><path clip-path="url(#clip520)" d="M252.928 322.701 Q252.928 321.194 253.743 320.626 Q254.558 320.033 255.423 320.033 Q256.584 320.033 257.251 320.774 Q257.943 321.491 257.943 322.504 Q257.943 323.516 257.251 324.257 Q256.584 324.974 255.423 324.974 Q254.855 324.974 254.558 324.875 Q255.225 327.197 257.251 328.877 Q259.301 330.557 261.994 330.557 Q265.378 330.557 267.404 327.271 Q268.615 325.147 268.615 320.33 Q268.615 316.081 267.701 313.956 Q266.292 310.72 263.402 310.72 Q259.301 310.72 256.88 314.253 Q256.584 314.697 256.238 314.722 Q255.744 314.722 255.621 314.45 Q255.522 314.154 255.522 313.388 L255.522 298.418 Q255.522 297.207 256.016 297.207 Q256.213 297.207 256.633 297.355 Q259.82 298.764 263.353 298.788 Q266.984 298.788 270.245 297.306 Q270.492 297.158 270.64 297.158 Q271.134 297.158 271.159 297.726 Q271.159 297.924 270.739 298.517 Q270.344 299.085 269.479 299.851 Q268.615 300.592 267.503 301.308 Q266.391 302.024 264.761 302.519 Q263.155 302.988 261.376 302.988 Q259.252 302.988 257.078 302.321 L257.078 312.178 Q259.697 309.608 263.501 309.608 Q267.552 309.608 270.344 312.869 Q273.135 316.13 273.135 320.675 Q273.135 325.443 269.825 328.704 Q266.539 331.965 262.093 331.965 Q258.042 331.965 255.472 329.075 Q252.928 326.184 252.928 322.701 Z" fill="#000000" fill-rule="nonzero" fill-opacity="1" /><path clip-path="url(#clip520)" d="M189.712 67.5262 L189.712 65.9451 Q195.789 65.9451 198.926 62.709 Q199.791 62.709 199.939 62.9066 Q200.087 63.1043 200.087 64.0183 L200.087 92.4024 Q200.087 93.9094 200.829 94.3787 Q201.57 94.8481 204.806 94.8481 L206.411 94.8481 L206.411 96.4044 Q204.633 96.2562 198.21 96.2562 Q191.787 96.2562 190.033 96.4044 L190.033 94.8481 L191.639 94.8481 Q194.826 94.8481 195.591 94.4034 Q196.357 93.9341 196.357 92.4024 L196.357 66.1922 Q193.714 67.5262 189.712 67.5262 Z" fill="#000000" fill-rule="nonzero" fill-opacity="1" /><path clip-path="url(#clip520)" d="M215.576 95.5892 Q214.811 94.774 214.811 93.7117 Q214.811 92.6495 215.576 91.8837 Q216.342 91.0932 217.503 91.0932 Q218.615 91.0932 219.356 91.8343 Q220.122 92.5507 220.122 93.7364 Q220.122 94.8975 219.307 95.6633 Q218.516 96.4044 217.503 96.4044 Q216.342 96.4044 215.576 95.5892 Z" fill="#000000" fill-rule="nonzero" fill-opacity="1" /><path clip-path="url(#clip520)" d="M226.545 80.2237 Q226.545 72.788 228.422 68.7366 Q231.041 62.709 237.217 62.709 Q238.526 62.709 239.885 63.0796 Q241.268 63.4254 242.997 64.7841 Q244.751 66.1428 245.813 68.3661 Q247.839 72.6645 247.839 80.2237 Q247.839 87.61 245.962 91.6366 Q243.22 97.516 237.167 97.516 Q234.894 97.516 232.572 96.355 Q230.275 95.1939 228.817 92.4024 Q226.545 88.2276 226.545 80.2237 M230.744 79.6061 Q230.744 87.2394 231.288 90.278 Q231.905 93.5635 233.585 94.9963 Q235.29 96.4044 237.167 96.4044 Q239.193 96.4044 240.873 94.8975 Q242.577 93.3659 243.096 90.0803 Q243.664 86.8442 243.639 79.6061 Q243.639 72.5657 243.145 69.7495 Q242.478 66.4639 240.7 65.1546 Q238.946 63.8207 237.167 63.8207 Q236.5 63.8207 235.784 64.0183 Q235.092 64.2159 234.079 64.7841 Q233.066 65.3523 232.276 66.7604 Q231.51 68.1685 231.14 70.2929 Q230.744 73.035 230.744 79.6061 Z" fill="#000000" fill-rule="nonzero" fill-opacity="1" /><path clip-path="url(#clip520)" d="M251.841 80.2237 Q251.841 72.788 253.718 68.7366 Q256.337 62.709 262.513 62.709 Q263.822 62.709 265.181 63.0796 Q266.564 63.4254 268.293 64.7841 Q270.047 66.1428 271.11 68.3661 Q273.135 72.6645 273.135 80.2237 Q273.135 87.61 271.258 91.6366 Q268.516 97.516 262.463 97.516 Q260.191 97.516 257.869 96.355 Q255.571 95.1939 254.114 92.4024 Q251.841 88.2276 251.841 80.2237 M256.041 79.6061 Q256.041 87.2394 256.584 90.278 Q257.202 93.5635 258.881 94.9963 Q260.586 96.4044 262.463 96.4044 Q264.489 96.4044 266.169 94.8975 Q267.873 93.3659 268.392 90.0803 Q268.96 86.8442 268.936 79.6061 Q268.936 72.5657 268.442 69.7495 Q267.775 66.4639 265.996 65.1546 Q264.242 63.8207 262.463 63.8207 Q261.796 63.8207 261.08 64.0183 Q260.388 64.2159 259.376 64.7841 Q258.363 65.3523 257.572 66.7604 Q256.806 68.1685 256.436 70.2929 Q256.041 73.035 256.041 79.6061 Z" fill="#000000" fill-rule="nonzero" fill-opacity="1" /><path clip-path="url(#clip520)" d="M133.991 638.416 Q127.367 638.416 122.782 633.797 Q118.196 629.177 118.196 622.927 Q118.196 617.628 122.51 614.164 L107.462 614.164 Q104.881 614.164 104.236 615.081 Q103.59 615.964 103.59 619.564 L101.416 619.564 L100.669 609.544 L142.89 609.544 Q145.472 609.544 146.151 608.661 Q146.796 607.744 146.796 604.143 L148.936 604.143 L149.718 614.367 L145.098 614.367 Q149.684 617.968 149.718 623.674 Q149.718 629.653 145.132 634.034 Q140.546 638.416 133.991 638.416 M134.059 632.642 Q140.512 632.642 143.705 630.638 Q148.155 627.852 148.155 623.335 Q148.155 618.172 143.298 615.115 Q142.109 614.333 140.716 614.367 L126.45 614.367 Q125.057 614.367 123.903 615.115 Q119.725 617.968 119.725 622.621 Q119.725 627.479 124.174 630.502 Q127.503 632.642 134.059 632.642 Z" fill="#000000" fill-rule="nonzero" fill-opacity="1" /><path clip-path="url(#clip520)" d="M133.617 600.271 Q127.061 600.271 122.408 596.059 Q117.754 591.847 117.754 585.801 Q117.754 579.687 121.729 576.528 Q125.703 573.335 131.409 573.335 Q132.462 573.335 132.666 573.607 Q132.87 573.879 132.87 575.067 L132.87 594.497 Q139.969 594.497 143.298 592.391 Q147.951 589.469 147.951 584.544 Q147.951 583.865 147.815 583.05 Q147.68 582.234 147.102 580.57 Q146.491 578.906 144.894 577.445 Q143.298 575.984 140.784 575.135 Q139.799 574.931 139.833 574.252 Q139.833 573.335 140.648 573.335 Q141.26 573.335 142.652 574.014 Q144.011 574.66 145.641 575.917 Q147.272 577.173 148.495 579.619 Q149.718 582.031 149.718 584.952 Q149.718 591.066 145.098 595.685 Q140.445 600.271 133.617 600.271 M131.409 594.429 L131.409 577.921 Q129.949 577.921 128.318 578.192 Q126.688 578.43 124.446 579.177 Q122.17 579.891 120.744 581.589 Q119.317 583.287 119.317 585.801 Q119.317 586.922 119.792 588.145 Q120.268 589.334 121.423 590.794 Q122.578 592.255 125.193 593.274 Q127.809 594.293 131.409 594.429 Z" fill="#000000" fill-rule="nonzero" fill-opacity="1" /><path clip-path="url(#clip520)" d="M148.936 569.089 L146.796 569.089 Q146.796 565.387 146.355 564.538 Q145.879 563.688 143.637 563.688 L124.989 563.688 Q122.408 563.688 121.763 564.605 Q121.117 565.489 121.117 569.089 L118.943 569.089 L118.196 559.307 L125.499 559.307 Q118.196 556.046 118.196 549.015 Q118.196 543.784 120.778 541.712 Q122.51 540.183 124.446 539.877 Q126.382 539.538 131.409 539.538 L144.69 539.538 Q146.151 539.47 146.491 538.349 Q146.796 537.228 146.796 534.103 L148.936 534.103 Q148.732 541.202 148.732 541.915 Q148.732 542.459 148.936 549.762 L146.796 549.762 Q146.796 546.059 146.355 545.21 Q145.879 544.327 143.637 544.327 L127.435 544.327 Q123.903 544.327 121.831 545.414 Q119.725 546.501 119.725 549.49 Q119.725 553.091 122.748 555.978 Q125.771 558.865 130.866 558.865 L143.637 558.865 Q145.879 558.865 146.355 558.016 Q146.796 557.133 146.796 553.464 L148.936 553.464 Q148.732 560.563 148.732 561.243 Q148.732 561.786 148.936 569.089 Z" fill="#000000" fill-rule="nonzero" fill-opacity="1" /><path clip-path="url(#clip520)" d="M148.019 530.435 L138.848 530.435 Q138.067 530.435 137.795 530.401 Q137.523 530.367 137.32 530.163 Q137.116 529.959 137.116 529.551 Q137.116 529.076 137.32 528.906 Q137.523 528.702 138.305 528.566 Q143.094 527.513 145.641 525.272 Q148.155 522.996 148.155 518.886 Q148.155 514.98 146.423 513.009 Q144.69 511.039 141.837 511.039 Q136.742 511.039 135.451 518.274 Q134.602 522.452 134.059 524.185 Q133.481 525.917 132.224 527.445 Q129.779 530.435 126.314 530.435 Q122.85 530.435 120.302 527.819 Q117.754 525.17 117.754 519.327 Q117.754 515.421 119.725 512.772 Q119.113 511.99 118.604 511.583 Q117.754 510.666 117.754 510.19 Q117.754 509.647 118.128 509.545 Q118.468 509.443 119.453 509.443 L126.45 509.443 Q127.231 509.443 127.503 509.477 Q127.775 509.511 127.979 509.715 Q128.148 509.918 128.148 510.36 Q128.148 511.141 127.503 511.175 Q119.079 511.719 119.079 519.327 Q119.079 523.437 120.676 525.272 Q122.238 527.106 124.378 527.106 Q125.567 527.106 126.484 526.562 Q127.367 525.985 127.911 525.272 Q128.42 524.524 128.93 523.166 Q129.405 521.807 129.575 520.992 Q129.745 520.143 130.085 518.546 Q131.138 512.975 133.413 510.632 Q136.334 507.711 140.037 507.711 Q144.147 507.711 146.932 510.496 Q149.718 513.281 149.718 518.886 Q149.718 523.403 146.694 526.562 Q147.102 526.97 147.476 527.276 Q147.815 527.581 147.951 527.717 Q148.087 527.819 148.189 527.853 Q148.257 527.887 148.325 527.955 Q149.718 529.348 149.718 529.687 Q149.718 530.231 149.344 530.333 Q149.004 530.435 148.019 530.435 Z" fill="#000000" fill-rule="nonzero" fill-opacity="1" /><path clip-path="url(#clip520)" d="M148.936 503.057 L146.796 503.057 Q146.796 499.355 146.355 498.505 Q145.879 497.656 143.637 497.656 L124.922 497.656 Q122.34 497.656 121.729 498.539 Q121.117 499.389 121.117 502.785 L118.943 502.785 L118.196 493.071 L143.705 493.071 Q145.777 493.071 146.287 492.323 Q146.796 491.576 146.796 488.179 L148.936 488.179 Q148.732 495.279 148.732 495.414 Q148.732 496.366 148.936 503.057 M106.07 500.136 Q104.677 500.136 103.556 499.083 Q102.401 497.996 102.401 496.467 Q102.401 494.939 103.454 493.852 Q104.473 492.765 106.104 492.765 Q107.7 492.765 108.753 493.852 Q109.772 494.939 109.772 496.467 Q109.772 498.064 108.651 499.117 Q107.53 500.136 106.07 500.136 Z" fill="#000000" fill-rule="nonzero" fill-opacity="1" /><path clip-path="url(#clip520)" d="M121.117 484.783 L119.589 484.783 Q119.453 481.59 117.211 479.484 Q114.935 477.344 112.15 476.631 Q109.365 475.883 106.138 475.815 L106.138 474.083 L118.943 474.083 L118.943 464.131 L121.117 464.131 L121.117 474.083 L140.445 474.083 Q147.951 474.083 147.951 469.396 Q147.951 467.392 145.913 466.067 Q143.841 464.742 140.173 464.742 L136.334 464.742 L136.334 463.01 L140.309 463.01 Q144.079 463.01 146.898 464.742 Q149.718 466.474 149.718 469.905 Q149.718 471.162 149.378 472.419 Q149.072 473.642 148.257 475.272 Q147.408 476.868 145.37 477.887 Q143.298 478.872 140.309 478.872 L121.117 478.872 L121.117 484.783 Z" fill="#000000" fill-rule="nonzero" fill-opacity="1" /><path clip-path="url(#clip520)" d="M157.564 459.749 Q156.103 459.749 155.322 458.9 Q154.575 458.017 154.575 456.828 Q154.575 455.571 155.356 454.756 Q156.171 453.907 157.496 453.907 Q160.077 453.907 160.417 456.624 Q161.674 455.299 161.674 453.363 Q161.674 451.291 160.145 449.627 Q158.617 447.928 157.156 447.215 Q155.696 446.468 153.046 445.415 Q150.974 444.43 148.936 443.683 L123.529 454.11 Q121.864 454.79 121.491 455.843 Q121.117 456.896 121.117 459.749 L118.943 459.749 Q119.147 456.624 119.147 452.99 Q119.147 450.85 118.943 445.415 L121.117 445.415 Q121.117 449.321 122.917 449.321 Q123.121 449.321 124.174 448.913 L142.89 441.169 L125.771 434.138 Q124.786 433.73 124.106 433.73 Q121.253 433.73 121.117 436.991 L118.943 436.991 Q119.147 432.405 119.147 430.945 Q119.147 428.092 118.943 425.748 L121.117 425.748 Q121.117 430.401 125.567 432.202 L155.254 444.464 Q163.169 447.793 163.202 453.363 Q163.202 456.013 161.572 457.881 Q159.942 459.749 157.564 459.749 Z" fill="#000000" fill-rule="nonzero" fill-opacity="1" /><path clip-path="url(#clip522)" d="M362.732 970.03 L362.732 1016.92 L539.638 1016.92 L539.638 970.03 L362.732 970.03 L362.732 970.03  Z" fill="#808080" fill-rule="evenodd" fill-opacity="1"/>
<polyline clip-path="url(#clip522)" style="stroke:#000000; stroke-linecap:round; stroke-linejoin:round; stroke-width:4; stroke-opacity:1; fill:none" points="362.732,970.03 362.732,1016.92 539.638,1016.92 539.638,970.03 362.732,970.03 "/>
<path clip-path="url(#clip522)" d="M539.638 688.691 L539.638 1016.92 L716.544 1016.92 L716.544 688.691 L539.638 688.691 L539.638 688.691  Z" fill="#808080" fill-rule="evenodd" fill-opacity="1"/>
<polyline clip-path="url(#clip522)" style="stroke:#000000; stroke-linecap:round; stroke-linejoin:round; stroke-width:4; stroke-opacity:1; fill:none" points="539.638,688.691 539.638,1016.92 716.544,1016.92 716.544,688.691 539.638,688.691 "/>
<path clip-path="url(#clip522)" d="M716.544 313.573 L716.544 1016.92 L893.45 1016.92 L893.45 313.573 L716.544 313.573 L716.544 313.573  Z" fill="#808080" fill-rule="evenodd" fill-opacity="1"/>
<polyline clip-path="url(#clip522)" style="stroke:#000000; stroke-linecap:round; stroke-linejoin:round; stroke-width:4; stroke-opacity:1; fill:none" points="716.544,313.573 716.544,1016.92 893.45,1016.92 893.45,313.573 716.544,313.573 "/>
<path clip-path="url(#clip522)" d="M893.45 501.132 L893.45 1016.92 L1070.36 1016.92 L1070.36 501.132 L893.45 501.132 L893.45 501.132  Z" fill="#808080" fill-rule="evenodd" fill-opacity="1"/>
<polyline clip-path="url(#clip522)" style="stroke:#000000; stroke-linecap:round; stroke-linejoin:round; stroke-width:4; stroke-opacity:1; fill:none" points="893.45,501.132 893.45,1016.92 1070.36,1016.92 1070.36,501.132 893.45,501.132 "/>
<path clip-path="url(#clip522)" d="M1070.36 876.251 L1070.36 1016.92 L1247.26 1016.92 L1247.26 876.251 L1070.36 876.251 L1070.36 876.251  Z" fill="#808080" fill-rule="evenodd" fill-opacity="1"/>
<polyline clip-path="url(#clip522)" style="stroke:#000000; stroke-linecap:round; stroke-linejoin:round; stroke-width:4; stroke-opacity:1; fill:none" points="1070.36,876.251 1070.36,1016.92 1247.26,1016.92 1247.26,876.251 1070.36,876.251 "/>
<path clip-path="url(#clip522)" d="M1247.26 876.251 L1247.26 1016.92 L1424.17 1016.92 L1424.17 876.251 L1247.26 876.251 L1247.26 876.251  Z" fill="#808080" fill-rule="evenodd" fill-opacity="1"/>
<polyline clip-path="url(#clip522)" style="stroke:#000000; stroke-linecap:round; stroke-linejoin:round; stroke-width:4; stroke-opacity:1; fill:none" points="1247.26,876.251 1247.26,1016.92 1424.17,1016.92 1424.17,876.251 1247.26,876.251 "/>
<circle clip-path="url(#clip522)" style="fill:#808080; stroke:none; fill-opacity:0" cx="451.185" cy="970.03" r="2"/>
<circle clip-path="url(#clip522)" style="fill:#808080; stroke:none; fill-opacity:0" cx="628.091" cy="688.691" r="2"/>
<circle clip-path="url(#clip522)" style="fill:#808080; stroke:none; fill-opacity:0" cx="804.997" cy="313.573" r="2"/>
<circle clip-path="url(#clip522)" style="fill:#808080; stroke:none; fill-opacity:0" cx="981.902" cy="501.132" r="2"/>
<circle clip-path="url(#clip522)" style="fill:#808080; stroke:none; fill-opacity:0" cx="1158.81" cy="876.251" r="2"/>
<circle clip-path="url(#clip522)" style="fill:#808080; stroke:none; fill-opacity:0" cx="1335.71" cy="876.251" r="2"/>
<polyline clip-path="url(#clip522)" style="stroke:#000000; stroke-linecap:round; stroke-linejoin:round; stroke-width:8; stroke-opacity:1; fill:none" points="330.889,1016.64 336.697,1016.59 342.504,1016.53 376.52,1015.91 410.535,1014.45 426.359,1013.26 442.183,1011.57 463.392,1008.19 484.602,1003.03 502.128,996.887 519.654,988.509 527.803,983.684 535.952,978.178 544.1,971.921 552.249,964.84 562.478,954.667 572.708,942.923 582.937,929.457 593.167,914.119 602.342,898.652 611.518,881.471 620.694,862.493 629.87,841.651 635.121,828.863 640.373,815.44 645.624,801.379 650.876,786.677 661.379,755.361 671.882,721.539 679.733,694.679 687.584,666.538 695.435,637.197 703.286,606.759 713.327,566.423 723.369,524.791 733.41,482.212 743.452,439.086 761.782,360.422 780.112,284.378 785.327,263.66 790.542,243.486 795.758,223.93 800.973,205.066 806.189,186.966 811.404,169.7 816.62,153.337 821.835,137.942 825.969,126.467 830.104,115.669 834.238,105.578 838.372,96.2178 842.507,87.6148 846.641,79.7915 850.776,72.769 854.91,66.5661 860.046,60.0266 865.183,54.8055 870.319,50.9247 875.456,48.4007 880.592,47.2441 885.729,47.4599 890.865,49.0471 896.002,51.9991 899.935,55.175 903.869,59.1362 907.803,63.873 911.736,69.3736 915.67,75.6246 919.604,82.6106 923.537,90.3146 927.471,98.7179 933.017,111.714 938.563,125.998 944.109,141.504 949.655,158.158 955.201,175.885 960.747,194.604 966.293,214.233 971.838,234.686 980.127,266.599 988.416,299.859 996.705,334.167 1004.99,369.227 1023.85,450.244 1042.7,530.495 1052.03,569.093 1061.37,606.553 1070.7,642.634 1080.04,677.135 1090.31,713.076 1100.58,746.75 1110.85,778.048 1121.12,806.912 1128.96,827.311 1136.81,846.294 1144.65,863.882 1152.5,880.11 1162.4,898.714 1172.3,915.323 1182.2,930.057 1192.1,943.044 1201.25,953.618 1210.41,962.921 1219.57,971.064 1228.72,978.154 1238.16,984.473 1247.61,989.892 1257.05,994.513 1266.49,998.433 1285.63,1004.58 1304.78,1008.85 1324.77,1011.84 1344.75,1013.8 1360.5,1014.82 1376.25,1015.53 1412.11,1016.4 1447.96,1016.74 1451.99,1016.76 1456.01,1016.78 "/>
</svg>
