<?xml version="1.0" encoding="utf-8"?>
<svg xmlns="http://www.w3.org/2000/svg" xmlns:xlink="http://www.w3.org/1999/xlink" width="400" height="300" viewBox="0 0 1600 1200">
<defs>
  <clipPath id="clip380">
    <rect x="0" y="0" width="1600" height="1200"/>
  </clipPath>
</defs>
<path clip-path="url(#clip380)" d="M0 1200 L1600 1200 L1600 0 L0 0  Z" fill="#ffffff" fill-rule="evenodd" fill-opacity="1"/>
<defs>
  <clipPath id="clip381">
    <rect x="297" y="47" width="1194" height="971"/>
  </clipPath>
</defs>
<path clip-path="url(#clip380)" d="M297.135 1016.92 L1489.76 1016.92 L1489.76 47.2441 L297.135 47.2441  Z" fill="#ffffff" fill-rule="evenodd" fill-opacity="1"/>
<polyline clip-path="url(#clip381)" style="stroke:#000000; stroke-linecap:round; stroke-linejoin:round; stroke-width:2; stroke-opacity:0.1; fill:none" points="362.732,1016.92 362.732,47.2441 "/>
<polyline clip-path="url(#clip381)" style="stroke:#000000; stroke-linecap:round; stroke-linejoin:round; stroke-width:2; stroke-opacity:0.1; fill:none" points="539.638,1016.92 539.638,47.2441 "/>
<polyline clip-path="url(#clip381)" style="stroke:#000000; stroke-linecap:round; stroke-linejoin:round; stroke-width:2; stroke-opacity:0.1; fill:none" points="716.544,1016.92 716.544,47.2441 "/>
<polyline clip-path="url(#clip381)" style="stroke:#000000; stroke-linecap:round; stroke-linejoin:round; stroke-width:2; stroke-opacity:0.1; fill:none" points="893.45,1016.92 893.45,47.2441 "/>
<polyline clip-path="url(#clip381)" style="stroke:#000000; stroke-linecap:round; stroke-linejoin:round; stroke-width:2; stroke-opacity:0.1; fill:none" points="1070.36,1016.92 1070.36,47.2441 "/>
<polyline clip-path="url(#clip381)" style="stroke:#000000; stroke-linecap:round; stroke-linejoin:round; stroke-width:2; stroke-opacity:0.1; fill:none" points="1247.26,1016.92 1247.26,47.2441 "/>
<polyline clip-path="url(#clip381)" style="stroke:#000000; stroke-linecap:round; stroke-linejoin:round; stroke-width:2; stroke-opacity:0.1; fill:none" points="1424.17,1016.92 1424.17,47.2441 "/>
<polyline clip-path="url(#clip381)" style="stroke:#000000; stroke-linecap:round; stroke-linejoin:round; stroke-width:2; stroke-opacity:0.1; fill:none" points="362.732,1016.92 362.732,47.2441 "/>
<polyline clip-path="url(#clip381)" style="stroke:#000000; stroke-linecap:round; stroke-linejoin:round; stroke-width:2; stroke-opacity:0.1; fill:none" points="539.638,1016.92 539.638,47.2441 "/>
<polyline clip-path="url(#clip381)" style="stroke:#000000; stroke-linecap:round; stroke-linejoin:round; stroke-width:2; stroke-opacity:0.1; fill:none" points="716.544,1016.92 716.544,47.2441 "/>
<polyline clip-path="url(#clip381)" style="stroke:#000000; stroke-linecap:round; stroke-linejoin:round; stroke-width:2; stroke-opacity:0.1; fill:none" points="893.45,1016.92 893.45,47.2441 "/>
<polyline clip-path="url(#clip381)" style="stroke:#000000; stroke-linecap:round; stroke-linejoin:round; stroke-width:2; stroke-opacity:0.1; fill:none" points="1070.36,1016.92 1070.36,47.2441 "/>
<polyline clip-path="url(#clip381)" style="stroke:#000000; stroke-linecap:round; stroke-linejoin:round; stroke-width:2; stroke-opacity:0.1; fill:none" points="1247.26,1016.92 1247.26,47.2441 "/>
<polyline clip-path="url(#clip381)" style="stroke:#000000; stroke-linecap:round; stroke-linejoin:round; stroke-width:2; stroke-opacity:0.1; fill:none" points="1424.17,1016.92 1424.17,47.2441 "/>
<polyline clip-path="url(#clip381)" style="stroke:#000000; stroke-linecap:round; stroke-linejoin:round; stroke-width:2; stroke-opacity:0.1; fill:none" points="297.135,1016.92 1489.76,1016.92 "/>
<polyline clip-path="url(#clip381)" style="stroke:#000000; stroke-linecap:round; stroke-linejoin:round; stroke-width:2; stroke-opacity:0.1; fill:none" points="297.135,800.469 1489.76,800.469 "/>
<polyline clip-path="url(#clip381)" style="stroke:#000000; stroke-linecap:round; stroke-linejoin:round; stroke-width:2; stroke-opacity:0.1; fill:none" points="297.135,584.019 1489.76,584.019 "/>
<polyline clip-path="url(#clip381)" style="stroke:#000000; stroke-linecap:round; stroke-linejoin:round; stroke-width:2; stroke-opacity:0.1; fill:none" points="297.135,367.568 1489.76,367.568 "/>
<polyline clip-path="url(#clip381)" style="stroke:#000000; stroke-linecap:round; stroke-linejoin:round; stroke-width:2; stroke-opacity:0.1; fill:none" points="297.135,151.117 1489.76,151.117 "/>
<polyline clip-path="url(#clip381)" style="stroke:#000000; stroke-linecap:round; stroke-linejoin:round; stroke-width:2; stroke-opacity:0.1; fill:none" points="297.135,1016.92 1489.76,1016.92 "/>
<polyline clip-path="url(#clip381)" style="stroke:#000000; stroke-linecap:round; stroke-linejoin:round; stroke-width:2; stroke-opacity:0.1; fill:none" points="297.135,800.469 1489.76,800.469 "/>
<polyline clip-path="url(#clip381)" style="stroke:#000000; stroke-linecap:round; stroke-linejoin:round; stroke-width:2; stroke-opacity:0.1; fill:none" points="297.135,584.019 1489.76,584.019 "/>
<polyline clip-path="url(#clip381)" style="stroke:#000000; stroke-linecap:round; stroke-linejoin:round; stroke-width:2; stroke-opacity:0.1; fill:none" points="297.135,367.568 1489.76,367.568 "/>
<polyline clip-path="url(#clip381)" style="stroke:#000000; stroke-linecap:round; stroke-linejoin:round; stroke-width:2; stroke-opacity:0.1; fill:none" points="297.135,151.117 1489.76,151.117 "/>
<polyline clip-path="url(#clip380)" style="stroke:#000000; stroke-linecap:round; stroke-linejoin:round; stroke-width:4; stroke-opacity:1; fill:none" points="297.135,1016.92 1489.76,1016.92 "/>
<polyline clip-path="url(#clip380)" style="stroke:#000000; stroke-linecap:round; stroke-linejoin:round; stroke-width:4; stroke-opacity:1; fill:none" points="297.135,47.2441 1489.76,47.2441 "/>
<polyline clip-path="url(#clip380)" style="stroke:#000000; stroke-linecap:round; stroke-linejoin:round; stroke-width:4; stroke-opacity:1; fill:none" points="362.732,1016.92 362.732,998.022 "/>
<polyline clip-path="url(#clip380)" style="stroke:#000000; stroke-linecap:round; stroke-linejoin:round; stroke-width:4; stroke-opacity:1; fill:none" points="539.638,1016.92 539.638,998.022 "/>
<polyline clip-path="url(#clip380)" style="stroke:#000000; stroke-linecap:round; stroke-linejoin:round; stroke-width:4; stroke-opacity:1; fill:none" points="716.544,1016.92 716.544,998.022 "/>
<polyline clip-path="url(#clip380)" style="stroke:#000000; stroke-linecap:round; stroke-linejoin:round; stroke-width:4; stroke-opacity:1; fill:none" points="893.45,1016.92 893.45,998.022 "/>
<polyline clip-path="url(#clip380)" style="stroke:#000000; stroke-linecap:round; stroke-linejoin:round; stroke-width:4; stroke-opacity:1; fill:none" points="1070.36,1016.92 1070.36,998.022 "/>
<polyline clip-path="url(#clip380)" style="stroke:#000000; stroke-linecap:round; stroke-linejoin:round; stroke-width:4; stroke-opacity:1; fill:none" points="1247.26,1016.92 1247.26,998.022 "/>
<polyline clip-path="url(#clip380)" style="stroke:#000000; stroke-linecap:round; stroke-linejoin:round; stroke-width:4; stroke-opacity:1; fill:none" points="1424.17,1016.92 1424.17,998.022 "/>
<polyline clip-path="url(#clip380)" style="stroke:#000000; stroke-linecap:round; stroke-linejoin:round; stroke-width:4; stroke-opacity:1; fill:none" points="362.732,47.2441 362.732,66.1417 "/>
<polyline clip-path="url(#clip380)" style="stroke:#000000; stroke-linecap:round; stroke-linejoin:round; stroke-width:4; stroke-opacity:1; fill:none" points="539.638,47.2441 539.638,66.1417 "/>
<polyline clip-path="url(#clip380)" style="stroke:#000000; stroke-linecap:round; stroke-linejoin:round; stroke-width:4; stroke-opacity:1; fill:none" points="716.544,47.2441 716.544,66.1417 "/>
<polyline clip-path="url(#clip380)" style="stroke:#000000; stroke-linecap:round; stroke-linejoin:round; stroke-width:4; stroke-opacity:1; fill:none" points="893.45,47.2441 893.45,66.1417 "/>
<polyline clip-path="url(#clip380)" style="stroke:#000000; stroke-linecap:round; stroke-linejoin:round; stroke-width:4; stroke-opacity:1; fill:none" points="1070.36,47.2441 1070.36,66.1417 "/>
<polyline clip-path="url(#clip380)" style="stroke:#000000; stroke-linecap:round; stroke-linejoin:round; stroke-width:4; stroke-opacity:1; fill:none" points="1247.26,47.2441 1247.26,66.1417 "/>
<polyline clip-path="url(#clip380)" style="stroke:#000000; stroke-linecap:round; stroke-linejoin:round; stroke-width:4; stroke-opacity:1; fill:none" points="1424.17,47.2441 1424.17,66.1417 "/>
<path clip-path="url(#clip380)" d="M346.835 1059.56 Q347.132 1059.85 347.132 1060.27 Q347.132 1060.69 346.835 1060.99 Q346.539 1061.28 346.119 1061.28 L314.449 1061.28 Q314.029 1061.28 313.733 1060.99 Q313.436 1060.69 313.436 1060.27 Q313.436 1059.85 313.733 1059.56 Q314.029 1059.26 314.449 1059.26 L346.119 1059.26 Q346.539 1059.26 346.835 1059.56 Z" fill="#000000" fill-rule="nonzero" fill-opacity="1" /><path clip-path="url(#clip380)" d="M354.444 1044.04 L354.444 1042.46 Q360.521 1042.46 363.658 1039.22 Q364.523 1039.22 364.671 1039.42 Q364.819 1039.62 364.819 1040.53 L364.819 1068.92 Q364.819 1070.42 365.56 1070.89 Q366.302 1071.36 369.538 1071.36 L371.143 1071.36 L371.143 1072.92 Q369.365 1072.77 362.942 1072.77 Q356.519 1072.77 354.765 1072.92 L354.765 1071.36 L356.371 1071.36 Q359.558 1071.36 360.323 1070.92 Q361.089 1070.45 361.089 1068.92 L361.089 1042.71 Q358.446 1044.04 354.444 1044.04 Z" fill="#000000" fill-rule="nonzero" fill-opacity="1" /><path clip-path="url(#clip380)" d="M380.308 1072.1 Q379.543 1071.29 379.543 1070.23 Q379.543 1069.16 380.308 1068.4 Q381.074 1067.61 382.235 1067.61 Q383.347 1067.61 384.088 1068.35 Q384.854 1069.07 384.854 1070.25 Q384.854 1071.41 384.039 1072.18 Q383.248 1072.92 382.235 1072.92 Q381.074 1072.92 380.308 1072.1 Z" fill="#000000" fill-rule="nonzero" fill-opacity="1" /><path clip-path="url(#clip380)" d="M391.82 1064.77 Q391.82 1063.26 392.635 1062.69 Q393.451 1062.1 394.315 1062.1 Q395.476 1062.1 396.143 1062.84 Q396.835 1063.56 396.835 1064.57 Q396.835 1065.58 396.143 1066.32 Q395.476 1067.04 394.315 1067.04 Q393.747 1067.04 393.451 1066.94 Q394.118 1069.26 396.143 1070.94 Q398.194 1072.62 400.886 1072.62 Q404.271 1072.62 406.296 1069.34 Q407.507 1067.21 407.507 1062.4 Q407.507 1058.15 406.593 1056.02 Q405.185 1052.79 402.294 1052.79 Q398.194 1052.79 395.773 1056.32 Q395.476 1056.76 395.13 1056.79 Q394.636 1056.79 394.513 1056.52 Q394.414 1056.22 394.414 1055.45 L394.414 1040.48 Q394.414 1039.27 394.908 1039.27 Q395.106 1039.27 395.526 1039.42 Q398.712 1040.83 402.245 1040.85 Q405.876 1040.85 409.137 1039.37 Q409.384 1039.22 409.532 1039.22 Q410.027 1039.22 410.051 1039.79 Q410.051 1039.99 409.631 1040.58 Q409.236 1041.15 408.371 1041.92 Q407.507 1042.66 406.395 1043.37 Q405.283 1044.09 403.653 1044.59 Q402.047 1045.05 400.269 1045.05 Q398.144 1045.05 395.97 1044.39 L395.97 1054.24 Q398.589 1051.67 402.393 1051.67 Q406.445 1051.67 409.236 1054.94 Q412.028 1058.2 412.028 1062.74 Q412.028 1067.51 408.717 1070.77 Q405.432 1074.03 400.985 1074.03 Q396.934 1074.03 394.365 1071.14 Q391.82 1068.25 391.82 1064.77 Z" fill="#000000" fill-rule="nonzero" fill-opacity="1" /><path clip-path="url(#clip380)" d="M523.469 1059.56 Q523.766 1059.85 523.766 1060.27 Q523.766 1060.69 523.469 1060.99 Q523.173 1061.28 522.753 1061.28 L491.083 1061.28 Q490.663 1061.28 490.367 1060.99 Q490.071 1060.69 490.071 1060.27 Q490.071 1059.85 490.367 1059.56 Q490.663 1059.26 491.083 1059.26 L522.753 1059.26 Q523.173 1059.26 523.469 1059.56 Z" fill="#000000" fill-rule="nonzero" fill-opacity="1" /><path clip-path="url(#clip380)" d="M531.078 1044.04 L531.078 1042.46 Q537.155 1042.46 540.292 1039.22 Q541.157 1039.22 541.305 1039.42 Q541.454 1039.62 541.454 1040.53 L541.454 1068.92 Q541.454 1070.42 542.195 1070.89 Q542.936 1071.36 546.172 1071.36 L547.778 1071.36 L547.778 1072.92 Q545.999 1072.77 539.576 1072.77 Q533.153 1072.77 531.399 1072.92 L531.399 1071.36 L533.005 1071.36 Q536.192 1071.36 536.958 1070.92 Q537.723 1070.45 537.723 1068.92 L537.723 1042.71 Q535.08 1044.04 531.078 1044.04 Z" fill="#000000" fill-rule="nonzero" fill-opacity="1" /><path clip-path="url(#clip380)" d="M556.943 1072.1 Q556.177 1071.29 556.177 1070.23 Q556.177 1069.16 556.943 1068.4 Q557.708 1067.61 558.869 1067.61 Q559.981 1067.61 560.722 1068.35 Q561.488 1069.07 561.488 1070.25 Q561.488 1071.41 560.673 1072.18 Q559.882 1072.92 558.869 1072.92 Q557.708 1072.92 556.943 1072.1 Z" fill="#000000" fill-rule="nonzero" fill-opacity="1" /><path clip-path="url(#clip380)" d="M567.911 1056.74 Q567.911 1049.3 569.788 1045.25 Q572.407 1039.22 578.583 1039.22 Q579.892 1039.22 581.251 1039.6 Q582.634 1039.94 584.363 1041.3 Q586.117 1042.66 587.179 1044.88 Q589.205 1049.18 589.205 1056.74 Q589.205 1064.13 587.328 1068.15 Q584.586 1074.03 578.533 1074.03 Q576.261 1074.03 573.938 1072.87 Q571.641 1071.71 570.184 1068.92 Q567.911 1064.74 567.911 1056.74 M572.11 1056.12 Q572.11 1063.75 572.654 1066.79 Q573.271 1070.08 574.951 1071.51 Q576.656 1072.92 578.533 1072.92 Q580.559 1072.92 582.239 1071.41 Q583.943 1069.88 584.462 1066.6 Q585.03 1063.36 585.006 1056.12 Q585.006 1049.08 584.511 1046.26 Q583.844 1042.98 582.066 1041.67 Q580.312 1040.34 578.533 1040.34 Q577.866 1040.34 577.15 1040.53 Q576.458 1040.73 575.445 1041.3 Q574.432 1041.87 573.642 1043.28 Q572.876 1044.68 572.506 1046.81 Q572.11 1049.55 572.11 1056.12 Z" fill="#000000" fill-rule="nonzero" fill-opacity="1" /><path clip-path="url(#clip380)" d="M700.647 1059.56 Q700.943 1059.85 700.943 1060.27 Q700.943 1060.69 700.647 1060.99 Q700.351 1061.28 699.931 1061.28 L668.261 1061.28 Q667.841 1061.28 667.545 1060.99 Q667.248 1060.69 667.248 1060.27 Q667.248 1059.85 667.545 1059.56 Q667.841 1059.26 668.261 1059.26 L699.931 1059.26 Q700.351 1059.26 700.647 1059.56 Z" fill="#000000" fill-rule="nonzero" fill-opacity="1" /><path clip-path="url(#clip380)" d="M705.736 1056.74 Q705.736 1049.3 707.613 1045.25 Q710.232 1039.22 716.408 1039.22 Q717.717 1039.22 719.076 1039.6 Q720.459 1039.94 722.188 1041.3 Q723.942 1042.66 725.005 1044.88 Q727.03 1049.18 727.03 1056.74 Q727.03 1064.13 725.153 1068.15 Q722.411 1074.03 716.358 1074.03 Q714.086 1074.03 711.764 1072.87 Q709.466 1071.71 708.009 1068.92 Q705.736 1064.74 705.736 1056.74 M709.936 1056.12 Q709.936 1063.75 710.479 1066.79 Q711.097 1070.08 712.776 1071.51 Q714.481 1072.92 716.358 1072.92 Q718.384 1072.92 720.064 1071.41 Q721.768 1069.88 722.287 1066.6 Q722.855 1063.36 722.831 1056.12 Q722.831 1049.08 722.337 1046.26 Q721.67 1042.98 719.891 1041.67 Q718.137 1040.34 716.358 1040.34 Q715.691 1040.34 714.975 1040.53 Q714.283 1040.73 713.27 1041.3 Q712.258 1041.87 711.467 1043.28 Q710.701 1044.68 710.331 1046.81 Q709.936 1049.55 709.936 1056.12 Z" fill="#000000" fill-rule="nonzero" fill-opacity="1" /><path clip-path="url(#clip380)" d="M734.12 1072.1 Q733.354 1071.29 733.354 1070.23 Q733.354 1069.16 734.12 1068.4 Q734.886 1067.61 736.047 1067.61 Q737.159 1067.61 737.9 1068.35 Q738.666 1069.07 738.666 1070.25 Q738.666 1071.41 737.85 1072.18 Q737.06 1072.92 736.047 1072.92 Q734.886 1072.92 734.12 1072.1 Z" fill="#000000" fill-rule="nonzero" fill-opacity="1" /><path clip-path="url(#clip380)" d="M745.632 1064.77 Q745.632 1063.26 746.447 1062.69 Q747.262 1062.1 748.127 1062.1 Q749.288 1062.1 749.955 1062.84 Q750.647 1063.56 750.647 1064.57 Q750.647 1065.58 749.955 1066.32 Q749.288 1067.04 748.127 1067.04 Q747.559 1067.04 747.262 1066.94 Q747.929 1069.26 749.955 1070.94 Q752.005 1072.62 754.698 1072.62 Q758.082 1072.62 760.108 1069.34 Q761.319 1067.21 761.319 1062.4 Q761.319 1058.15 760.404 1056.02 Q758.996 1052.79 756.106 1052.79 Q752.005 1052.79 749.584 1056.32 Q749.288 1056.76 748.942 1056.79 Q748.448 1056.79 748.325 1056.52 Q748.226 1056.22 748.226 1055.45 L748.226 1040.48 Q748.226 1039.27 748.72 1039.27 Q748.917 1039.27 749.337 1039.42 Q752.524 1040.83 756.057 1040.85 Q759.688 1040.85 762.949 1039.37 Q763.196 1039.22 763.344 1039.22 Q763.838 1039.22 763.863 1039.79 Q763.863 1039.99 763.443 1040.58 Q763.048 1041.15 762.183 1041.92 Q761.319 1042.66 760.207 1043.37 Q759.095 1044.09 757.465 1044.59 Q755.859 1045.05 754.08 1045.05 Q751.956 1045.05 749.782 1044.39 L749.782 1054.24 Q752.401 1051.67 756.205 1051.67 Q760.256 1051.67 763.048 1054.94 Q765.839 1058.2 765.839 1062.74 Q765.839 1067.51 762.529 1070.77 Q759.243 1074.03 754.797 1074.03 Q750.745 1074.03 748.176 1071.14 Q745.632 1068.25 745.632 1064.77 Z" fill="#000000" fill-rule="nonzero" fill-opacity="1" /><path clip-path="url(#clip380)" d="M863.126 1056.74 Q863.126 1049.3 865.004 1045.25 Q867.622 1039.22 873.798 1039.22 Q875.107 1039.22 876.466 1039.6 Q877.849 1039.94 879.579 1041.3 Q881.333 1042.66 882.395 1044.88 Q884.42 1049.18 884.42 1056.74 Q884.42 1064.13 882.543 1068.15 Q879.801 1074.03 873.749 1074.03 Q871.476 1074.03 869.154 1072.87 Q866.856 1071.71 865.399 1068.92 Q863.126 1064.74 863.126 1056.74 M867.326 1056.12 Q867.326 1063.75 867.869 1066.79 Q868.487 1070.08 870.167 1071.51 Q871.871 1072.92 873.749 1072.92 Q875.774 1072.92 877.454 1071.41 Q879.159 1069.88 879.677 1066.6 Q880.246 1063.36 880.221 1056.12 Q880.221 1049.08 879.727 1046.26 Q879.06 1042.98 877.281 1041.67 Q875.527 1040.34 873.749 1040.34 Q873.082 1040.34 872.365 1040.53 Q871.674 1040.73 870.661 1041.3 Q869.648 1041.87 868.857 1043.28 Q868.092 1044.68 867.721 1046.81 Q867.326 1049.55 867.326 1056.12 Z" fill="#000000" fill-rule="nonzero" fill-opacity="1" /><path clip-path="url(#clip380)" d="M891.51 1072.1 Q890.745 1071.29 890.745 1070.23 Q890.745 1069.16 891.51 1068.4 Q892.276 1067.61 893.437 1067.61 Q894.549 1067.61 895.29 1068.35 Q896.056 1069.07 896.056 1070.25 Q896.056 1071.41 895.241 1072.18 Q894.45 1072.92 893.437 1072.92 Q892.276 1072.92 891.51 1072.1 Z" fill="#000000" fill-rule="nonzero" fill-opacity="1" /><path clip-path="url(#clip380)" d="M902.479 1056.74 Q902.479 1049.3 904.356 1045.25 Q906.975 1039.22 913.15 1039.22 Q914.46 1039.22 915.818 1039.6 Q917.202 1039.94 918.931 1041.3 Q920.685 1042.66 921.747 1044.88 Q923.773 1049.18 923.773 1056.74 Q923.773 1064.13 921.895 1068.15 Q919.153 1074.03 913.101 1074.03 Q910.828 1074.03 908.506 1072.87 Q906.209 1071.71 904.751 1068.92 Q902.479 1064.74 902.479 1056.74 M906.678 1056.12 Q906.678 1063.75 907.222 1066.79 Q907.839 1070.08 909.519 1071.51 Q911.224 1072.92 913.101 1072.92 Q915.127 1072.92 916.807 1071.41 Q918.511 1069.88 919.03 1066.6 Q919.598 1063.36 919.573 1056.12 Q919.573 1049.08 919.079 1046.26 Q918.412 1042.98 916.634 1041.67 Q914.88 1040.34 913.101 1040.34 Q912.434 1040.34 911.718 1040.53 Q911.026 1040.73 910.013 1041.3 Q909 1041.87 908.21 1043.28 Q907.444 1044.68 907.073 1046.81 Q906.678 1049.55 906.678 1056.12 Z" fill="#000000" fill-rule="nonzero" fill-opacity="1" /><path clip-path="url(#clip380)" d="M1040.3 1056.74 Q1040.3 1049.3 1042.18 1045.25 Q1044.8 1039.22 1050.98 1039.22 Q1052.28 1039.22 1053.64 1039.6 Q1055.03 1039.94 1056.76 1041.3 Q1058.51 1042.66 1059.57 1044.88 Q1061.6 1049.18 1061.6 1056.74 Q1061.6 1064.13 1059.72 1068.15 Q1056.98 1074.03 1050.93 1074.03 Q1048.65 1074.03 1046.33 1072.87 Q1044.03 1071.71 1042.58 1068.92 Q1040.3 1064.74 1040.3 1056.74 M1044.5 1056.12 Q1044.5 1063.75 1045.05 1066.79 Q1045.66 1070.08 1047.34 1071.51 Q1049.05 1072.92 1050.93 1072.92 Q1052.95 1072.92 1054.63 1071.41 Q1056.34 1069.88 1056.85 1066.6 Q1057.42 1063.36 1057.4 1056.12 Q1057.4 1049.08 1056.9 1046.26 Q1056.24 1042.98 1054.46 1041.67 Q1052.7 1040.34 1050.93 1040.34 Q1050.26 1040.34 1049.54 1040.53 Q1048.85 1040.73 1047.84 1041.3 Q1046.83 1041.87 1046.03 1043.28 Q1045.27 1044.68 1044.9 1046.81 Q1044.5 1049.55 1044.5 1056.12 Z" fill="#000000" fill-rule="nonzero" fill-opacity="1" /><path clip-path="url(#clip380)" d="M1068.69 1072.1 Q1067.92 1071.29 1067.92 1070.23 Q1067.92 1069.16 1068.69 1068.4 Q1069.45 1067.61 1070.61 1067.61 Q1071.73 1067.61 1072.47 1068.35 Q1073.23 1069.07 1073.23 1070.25 Q1073.23 1071.41 1072.42 1072.18 Q1071.63 1072.92 1070.61 1072.92 Q1069.45 1072.92 1068.69 1072.1 Z" fill="#000000" fill-rule="nonzero" fill-opacity="1" /><path clip-path="url(#clip380)" d="M1080.2 1064.77 Q1080.2 1063.26 1081.01 1062.69 Q1081.83 1062.1 1082.69 1062.1 Q1083.86 1062.1 1084.52 1062.84 Q1085.21 1063.56 1085.21 1064.57 Q1085.21 1065.58 1084.52 1066.32 Q1083.86 1067.04 1082.69 1067.04 Q1082.13 1067.04 1081.83 1066.94 Q1082.5 1069.26 1084.52 1070.94 Q1086.57 1072.62 1089.27 1072.62 Q1092.65 1072.62 1094.68 1069.34 Q1095.89 1067.21 1095.89 1062.4 Q1095.89 1058.15 1094.97 1056.02 Q1093.56 1052.79 1090.67 1052.79 Q1086.57 1052.79 1084.15 1056.32 Q1083.86 1056.76 1083.51 1056.79 Q1083.02 1056.79 1082.89 1056.52 Q1082.79 1056.22 1082.79 1055.45 L1082.79 1040.48 Q1082.79 1039.27 1083.29 1039.27 Q1083.49 1039.27 1083.91 1039.42 Q1087.09 1040.83 1090.62 1040.85 Q1094.26 1040.85 1097.52 1039.37 Q1097.76 1039.22 1097.91 1039.22 Q1098.41 1039.22 1098.43 1039.79 Q1098.43 1039.99 1098.01 1040.58 Q1097.62 1041.15 1096.75 1041.92 Q1095.89 1042.66 1094.77 1043.37 Q1093.66 1044.09 1092.03 1044.59 Q1090.43 1045.05 1088.65 1045.05 Q1086.52 1045.05 1084.35 1044.39 L1084.35 1054.24 Q1086.97 1051.67 1090.77 1051.67 Q1094.82 1051.67 1097.62 1054.94 Q1100.41 1058.2 1100.41 1062.74 Q1100.41 1067.51 1097.1 1070.77 Q1093.81 1074.03 1089.36 1074.03 Q1085.31 1074.03 1082.74 1071.14 Q1080.2 1068.25 1080.2 1064.77 Z" fill="#000000" fill-rule="nonzero" fill-opacity="1" /><path clip-path="url(#clip380)" d="M1218.2 1044.04 L1218.2 1042.46 Q1224.27 1042.46 1227.41 1039.22 Q1228.28 1039.22 1228.42 1039.42 Q1228.57 1039.62 1228.57 1040.53 L1228.57 1068.92 Q1228.57 1070.42 1229.31 1070.89 Q1230.06 1071.36 1233.29 1071.36 L1234.9 1071.36 L1234.9 1072.92 Q1233.12 1072.77 1226.7 1072.77 Q1220.27 1072.77 1218.52 1072.92 L1218.52 1071.36 L1220.12 1071.36 Q1223.31 1071.36 1224.08 1070.92 Q1224.84 1070.45 1224.84 1068.92 L1224.84 1042.71 Q1222.2 1044.04 1218.2 1044.04 Z" fill="#000000" fill-rule="nonzero" fill-opacity="1" /><path clip-path="url(#clip380)" d="M1244.06 1072.1 Q1243.3 1071.29 1243.3 1070.23 Q1243.3 1069.16 1244.06 1068.4 Q1244.83 1067.61 1245.99 1067.61 Q1247.1 1067.61 1247.84 1068.35 Q1248.61 1069.07 1248.61 1070.25 Q1248.61 1071.41 1247.79 1072.18 Q1247 1072.92 1245.99 1072.92 Q1244.83 1072.92 1244.06 1072.1 Z" fill="#000000" fill-rule="nonzero" fill-opacity="1" /><path clip-path="url(#clip380)" d="M1255.03 1056.74 Q1255.03 1049.3 1256.91 1045.25 Q1259.53 1039.22 1265.7 1039.22 Q1267.01 1039.22 1268.37 1039.6 Q1269.75 1039.94 1271.48 1041.3 Q1273.24 1042.66 1274.3 1044.88 Q1276.32 1049.18 1276.32 1056.74 Q1276.32 1064.13 1274.45 1068.15 Q1271.71 1074.03 1265.65 1074.03 Q1263.38 1074.03 1261.06 1072.87 Q1258.76 1071.71 1257.3 1068.92 Q1255.03 1064.74 1255.03 1056.74 M1259.23 1056.12 Q1259.23 1063.75 1259.77 1066.79 Q1260.39 1070.08 1262.07 1071.51 Q1263.78 1072.92 1265.65 1072.92 Q1267.68 1072.92 1269.36 1071.41 Q1271.06 1069.88 1271.58 1066.6 Q1272.15 1063.36 1272.13 1056.12 Q1272.13 1049.08 1271.63 1046.26 Q1270.96 1042.98 1269.19 1041.67 Q1267.43 1040.34 1265.65 1040.34 Q1264.99 1040.34 1264.27 1040.53 Q1263.58 1040.73 1262.56 1041.3 Q1261.55 1041.87 1260.76 1043.28 Q1260 1044.68 1259.63 1046.81 Q1259.23 1049.55 1259.23 1056.12 Z" fill="#000000" fill-rule="nonzero" fill-opacity="1" /><path clip-path="url(#clip380)" d="M1395.38 1044.04 L1395.38 1042.46 Q1401.45 1042.46 1404.59 1039.22 Q1405.45 1039.22 1405.6 1039.42 Q1405.75 1039.62 1405.75 1040.53 L1405.75 1068.92 Q1405.75 1070.42 1406.49 1070.89 Q1407.23 1071.36 1410.47 1071.36 L1412.07 1071.36 L1412.07 1072.92 Q1410.3 1072.77 1403.87 1072.77 Q1397.45 1072.77 1395.7 1072.92 L1395.7 1071.36 L1397.3 1071.36 Q1400.49 1071.36 1401.25 1070.92 Q1402.02 1070.45 1402.02 1068.92 L1402.02 1042.71 Q1399.38 1044.04 1395.38 1044.04 Z" fill="#000000" fill-rule="nonzero" fill-opacity="1" /><path clip-path="url(#clip380)" d="M1421.24 1072.1 Q1420.47 1071.29 1420.47 1070.23 Q1420.47 1069.16 1421.24 1068.4 Q1422.01 1067.61 1423.17 1067.61 Q1424.28 1067.61 1425.02 1068.35 Q1425.79 1069.07 1425.79 1070.25 Q1425.79 1071.41 1424.97 1072.18 Q1424.18 1072.92 1423.17 1072.92 Q1422.01 1072.92 1421.24 1072.1 Z" fill="#000000" fill-rule="nonzero" fill-opacity="1" /><path clip-path="url(#clip380)" d="M1432.75 1064.77 Q1432.75 1063.26 1433.57 1062.69 Q1434.38 1062.1 1435.25 1062.1 Q1436.41 1062.1 1437.07 1062.84 Q1437.77 1063.56 1437.77 1064.57 Q1437.77 1065.58 1437.07 1066.32 Q1436.41 1067.04 1435.25 1067.04 Q1434.68 1067.04 1434.38 1066.94 Q1435.05 1069.26 1437.07 1070.94 Q1439.12 1072.62 1441.82 1072.62 Q1445.2 1072.62 1447.23 1069.34 Q1448.44 1067.21 1448.44 1062.4 Q1448.44 1058.15 1447.52 1056.02 Q1446.12 1052.79 1443.23 1052.79 Q1439.12 1052.79 1436.7 1056.32 Q1436.41 1056.76 1436.06 1056.79 Q1435.57 1056.79 1435.44 1056.52 Q1435.35 1056.22 1435.35 1055.45 L1435.35 1040.48 Q1435.35 1039.27 1435.84 1039.27 Q1436.04 1039.27 1436.46 1039.42 Q1439.64 1040.83 1443.18 1040.85 Q1446.81 1040.85 1450.07 1039.37 Q1450.32 1039.22 1450.46 1039.22 Q1450.96 1039.22 1450.98 1039.79 Q1450.98 1039.99 1450.56 1040.58 Q1450.17 1041.15 1449.3 1041.92 Q1448.44 1042.66 1447.33 1043.37 Q1446.21 1044.09 1444.58 1044.59 Q1442.98 1045.05 1441.2 1045.05 Q1439.08 1045.05 1436.9 1044.39 L1436.9 1054.24 Q1439.52 1051.67 1443.32 1051.67 Q1447.38 1051.67 1450.17 1054.94 Q1452.96 1058.2 1452.96 1062.74 Q1452.96 1067.51 1449.65 1070.77 Q1446.36 1074.03 1441.92 1074.03 Q1437.87 1074.03 1435.3 1071.14 Q1432.75 1068.25 1432.75 1064.77 Z" fill="#000000" fill-rule="nonzero" fill-opacity="1" /><path clip-path="url(#clip380)" d="M816.004 1121.96 L816.004 1119.79 Q819.129 1119.99 822.764 1119.99 Q824.089 1119.99 830.339 1119.79 L830.339 1121.96 Q826.364 1121.96 826.364 1123.77 Q826.364 1124.04 826.772 1124.95 L834.585 1144.35 L841.684 1126.62 Q842.091 1125.43 842.091 1124.95 Q842.091 1123.77 841.276 1122.92 Q840.495 1122.03 838.762 1121.96 L838.762 1119.79 Q842.295 1119.99 844.809 1119.99 Q847.662 1119.99 850.006 1119.79 L850.006 1121.96 Q847.934 1121.96 846.473 1122.92 Q845.012 1123.83 844.537 1124.65 Q844.095 1125.43 843.62 1126.62 L834.517 1149.24 Q833.973 1150.57 833.056 1150.57 Q832.445 1150.57 832.173 1150.29 Q831.935 1150.06 831.595 1149.24 L821.575 1124.55 Q820.896 1122.81 820.013 1122.41 Q819.129 1121.96 816.004 1121.96 Z" fill="#000000" fill-rule="nonzero" fill-opacity="1" /><path clip-path="url(#clip380)" d="M852.315 1143.16 Q852.315 1137.25 859.279 1134.13 Q863.457 1132.12 872.084 1131.61 L872.084 1129.06 Q872.084 1124.75 869.808 1122.47 Q867.567 1120.16 864.713 1120.16 Q859.618 1120.16 857.173 1123.36 Q859.245 1123.43 859.992 1124.48 Q860.739 1125.5 860.739 1126.55 Q860.739 1127.94 859.856 1128.86 Q859.007 1129.74 857.546 1129.74 Q856.154 1129.74 855.237 1128.89 Q854.319 1128.01 854.319 1126.48 Q854.319 1123.09 857.376 1120.84 Q860.467 1118.6 864.849 1118.6 Q870.556 1118.6 874.36 1122.44 Q875.549 1123.63 876.126 1125.16 Q876.738 1126.69 876.806 1127.71 Q876.874 1128.69 876.874 1130.66 L876.874 1144.55 Q876.874 1144.96 877.009 1145.64 Q877.145 1146.32 877.757 1147.2 Q878.402 1148.05 879.455 1148.05 Q881.969 1148.05 881.935 1143.6 L881.935 1139.7 L883.701 1139.7 L883.701 1143.6 Q883.701 1147.3 881.731 1148.76 Q879.795 1150.19 877.994 1150.19 Q875.685 1150.19 874.224 1148.49 Q872.764 1146.79 872.56 1144.48 Q871.507 1147.13 869.095 1148.87 Q866.717 1150.57 863.457 1150.57 Q860.943 1150.57 858.565 1149.92 Q856.222 1149.31 854.251 1147.58 Q852.315 1145.81 852.315 1143.16 M857.682 1143.09 Q857.682 1145.67 859.516 1147.34 Q861.351 1149 863.932 1149 Q866.853 1149 869.469 1146.76 Q872.084 1144.48 872.084 1140.04 L872.084 1133.07 Q864.374 1133.34 861.011 1136.43 Q857.682 1139.49 857.682 1143.09 Z" fill="#000000" fill-rule="nonzero" fill-opacity="1" /><path clip-path="url(#clip380)" d="M886.486 1149.78 L886.486 1147.64 Q890.189 1147.64 891.038 1147.2 Q891.887 1146.73 891.887 1144.48 L891.887 1108.31 Q891.887 1105.73 890.97 1105.08 Q890.087 1104.44 886.486 1104.44 L886.486 1102.26 L896.473 1101.52 L896.473 1144.48 Q896.473 1146.73 897.356 1147.2 Q898.239 1147.64 901.907 1147.64 L901.907 1149.78 Q901.058 1149.78 899.292 1149.72 Q897.526 1149.65 896.235 1149.61 Q894.944 1149.58 894.197 1149.58 Q893.382 1149.58 886.486 1149.78 Z" fill="#000000" fill-rule="nonzero" fill-opacity="1" /><path clip-path="url(#clip380)" d="M905.678 1121.96 L905.678 1119.79 L915.902 1119.04 L915.902 1142.14 Q915.902 1143.81 916.038 1144.79 Q916.174 1145.74 916.717 1146.86 Q917.294 1147.98 918.585 1148.49 Q919.91 1149 922.016 1149 Q925.786 1149 928.096 1145.91 Q930.44 1142.82 930.44 1138.24 L930.44 1125.84 Q930.44 1123.26 929.523 1122.61 Q928.605 1121.96 925.005 1121.96 L925.005 1119.79 L935.229 1119.04 L935.229 1143.74 Q935.229 1146.32 936.112 1147 Q937.029 1147.64 940.664 1147.64 L940.664 1149.78 L930.644 1150.57 L930.644 1144.28 Q927.722 1150.53 921.676 1150.57 Q918.619 1150.57 916.513 1149.78 Q914.441 1149 913.388 1148.05 Q912.335 1147.07 911.758 1145.2 Q911.214 1143.33 911.146 1142.18 Q911.078 1141.02 911.078 1138.78 L911.078 1128.35 Q911.078 1123.63 910.399 1122.81 Q909.72 1121.96 905.678 1121.96 Z" fill="#000000" fill-rule="nonzero" fill-opacity="1" /><path clip-path="url(#clip380)" d="M943.959 1134.46 Q943.959 1127.91 948.171 1123.26 Q952.382 1118.6 958.429 1118.6 Q964.543 1118.6 967.702 1122.58 Q970.895 1126.55 970.895 1132.26 Q970.895 1133.31 970.623 1133.51 Q970.351 1133.72 969.162 1133.72 L949.733 1133.72 Q949.733 1140.82 951.839 1144.15 Q954.76 1148.8 959.685 1148.8 Q960.365 1148.8 961.18 1148.66 Q961.995 1148.53 963.66 1147.95 Q965.324 1147.34 966.785 1145.74 Q968.245 1144.15 969.094 1141.63 Q969.298 1140.65 969.977 1140.68 Q970.895 1140.68 970.895 1141.5 Q970.895 1142.11 970.215 1143.5 Q969.57 1144.86 968.313 1146.49 Q967.056 1148.12 964.611 1149.34 Q962.199 1150.57 959.278 1150.57 Q953.164 1150.57 948.544 1145.95 Q943.959 1141.29 943.959 1134.46 M949.801 1132.26 L966.309 1132.26 Q966.309 1130.8 966.037 1129.17 Q965.799 1127.54 965.052 1125.29 Q964.339 1123.02 962.641 1121.59 Q960.942 1120.16 958.429 1120.16 Q957.308 1120.16 956.085 1120.64 Q954.896 1121.12 953.435 1122.27 Q951.975 1123.43 950.956 1126.04 Q949.937 1128.66 949.801 1132.26 Z" fill="#000000" fill-rule="nonzero" fill-opacity="1" /><polyline clip-path="url(#clip380)" style="stroke:#000000; stroke-linecap:round; stroke-linejoin:round; stroke-width:4; stroke-opacity:1; fill:none" points="297.135,1016.92 297.135,47.2441 "/>
<polyline clip-path="url(#clip380)" style="stroke:#000000; stroke-linecap:round; stroke-linejoin:round; stroke-width:4; stroke-opacity:1; fill:none" points="1489.76,1016.92 1489.76,47.2441 "/>
<polyline clip-path="url(#clip380)" style="stroke:#000000; stroke-linecap:round; stroke-linejoin:round; stroke-width:4; stroke-opacity:1; fill:none" points="297.135,1016.92 316.033,1016.92 "/>
<polyline clip-path="url(#clip380)" style="stroke:#000000; stroke-linecap:round; stroke-linejoin:round; stroke-width:4; stroke-opacity:1; fill:none" points="297.135,800.469 316.033,800.469 "/>
<polyline clip-path="url(#clip380)" style="stroke:#000000; stroke-linecap:round; stroke-linejoin:round; stroke-width:4; stroke-opacity:1; fill:none" points="297.135,584.019 316.033,584.019 "/>
<polyline clip-path="url(#clip380)" style="stroke:#000000; stroke-linecap:round; stroke-linejoin:round; stroke-width:4; stroke-opacity:1; fill:none" points="297.135,367.568 316.033,367.568 "/>
<polyline clip-path="url(#clip380)" style="stroke:#000000; stroke-linecap:round; stroke-linejoin:round; stroke-width:4; stroke-opacity:1; fill:none" points="297.135,151.117 316.033,151.117 "/>
<polyline clip-path="url(#clip380)" style="stroke:#000000; stroke-linecap:round; stroke-linejoin:round; stroke-width:4; stroke-opacity:1; fill:none" points="1489.76,1016.92 1470.87,1016.92 "/>
<polyline clip-path="url(#clip380)" style="stroke:#000000; stroke-linecap:round; stroke-linejoin:round; stroke-width:4; stroke-opacity:1; fill:none" points="1489.76,800.469 1470.87,800.469 "/>
<polyline clip-path="url(#clip380)" style="stroke:#000000; stroke-linecap:round; stroke-linejoin:round; stroke-width:4; stroke-opacity:1; fill:none" points="1489.76,584.019 1470.87,584.019 "/>
<polyline clip-path="url(#clip380)" style="stroke:#000000; stroke-linecap:round; stroke-linejoin:round; stroke-width:4; stroke-opacity:1; fill:none" points="1489.76,367.568 1470.87,367.568 "/>
<polyline clip-path="url(#clip380)" style="stroke:#000000; stroke-linecap:round; stroke-linejoin:round; stroke-width:4; stroke-opacity:1; fill:none" points="1489.76,151.117 1470.87,151.117 "/>
<path clip-path="url(#clip380)" d="M187.192 1018.02 Q187.192 1010.58 189.07 1006.53 Q191.688 1000.5 197.864 1000.5 Q199.173 1000.5 200.532 1000.88 Q201.915 1001.22 203.645 1002.58 Q205.399 1003.94 206.461 1006.16 Q208.487 1010.46 208.487 1018.02 Q208.487 1025.41 206.609 1029.43 Q203.867 1035.31 197.815 1035.31 Q195.542 1035.31 193.22 1034.15 Q190.922 1032.99 189.465 1030.2 Q187.192 1026.02 187.192 1018.02 M191.392 1017.4 Q191.392 1025.03 191.935 1028.07 Q192.553 1031.36 194.233 1032.79 Q195.937 1034.2 197.815 1034.2 Q199.84 1034.2 201.52 1032.69 Q203.225 1031.16 203.744 1027.88 Q204.312 1024.64 204.287 1017.4 Q204.287 1010.36 203.793 1007.54 Q203.126 1004.26 201.347 1002.95 Q199.593 1001.62 197.815 1001.62 Q197.148 1001.62 196.431 1001.81 Q195.74 1002.01 194.727 1002.58 Q193.714 1003.15 192.923 1004.56 Q192.158 1005.96 191.787 1008.09 Q191.392 1010.83 191.392 1017.4 Z" fill="#000000" fill-rule="nonzero" fill-opacity="1" /><path clip-path="url(#clip380)" d="M215.576 1033.38 Q214.811 1032.57 214.811 1031.51 Q214.811 1030.44 215.576 1029.68 Q216.342 1028.89 217.503 1028.89 Q218.615 1028.89 219.356 1029.63 Q220.122 1030.35 220.122 1031.53 Q220.122 1032.69 219.307 1033.46 Q218.516 1034.2 217.503 1034.2 Q216.342 1034.2 215.576 1033.38 Z" fill="#000000" fill-rule="nonzero" fill-opacity="1" /><path clip-path="url(#clip380)" d="M226.545 1018.02 Q226.545 1010.58 228.422 1006.53 Q231.041 1000.5 237.217 1000.5 Q238.526 1000.5 239.885 1000.88 Q241.268 1001.22 242.997 1002.58 Q244.751 1003.94 245.813 1006.16 Q247.839 1010.46 247.839 1018.02 Q247.839 1025.41 245.962 1029.43 Q243.22 1035.31 237.167 1035.31 Q234.894 1035.31 232.572 1034.15 Q230.275 1032.99 228.817 1030.2 Q226.545 1026.02 226.545 1018.02 M230.744 1017.4 Q230.744 1025.03 231.288 1028.07 Q231.905 1031.36 233.585 1032.79 Q235.29 1034.2 237.167 1034.2 Q239.193 1034.2 240.873 1032.69 Q242.577 1031.16 243.096 1027.88 Q243.664 1024.64 243.639 1017.4 Q243.639 1010.36 243.145 1007.54 Q242.478 1004.26 240.7 1002.95 Q238.946 1001.62 237.167 1001.62 Q236.5 1001.62 235.784 1001.81 Q235.092 1002.01 234.079 1002.58 Q233.066 1003.15 232.276 1004.56 Q231.51 1005.96 231.14 1008.09 Q230.744 1010.83 230.744 1017.4 Z" fill="#000000" fill-rule="nonzero" fill-opacity="1" /><path clip-path="url(#clip380)" d="M251.841 1018.02 Q251.841 1010.58 253.718 1006.53 Q256.337 1000.5 262.513 1000.5 Q263.822 1000.5 265.181 1000.88 Q266.564 1001.22 268.293 1002.58 Q270.047 1003.94 271.11 1006.16 Q273.135 1010.46 273.135 1018.02 Q273.135 1025.41 271.258 1029.43 Q268.516 1035.31 262.463 1035.31 Q260.191 1035.31 257.869 1034.15 Q255.571 1032.99 254.114 1030.2 Q251.841 1026.02 251.841 1018.02 M256.041 1017.4 Q256.041 1025.03 256.584 1028.07 Q257.202 1031.36 258.881 1032.79 Q260.586 1034.2 262.463 1034.2 Q264.489 1034.2 266.169 1032.69 Q267.873 1031.16 268.392 1027.88 Q268.96 1024.64 268.936 1017.4 Q268.936 1010.36 268.442 1007.54 Q267.775 1004.26 265.996 1002.95 Q264.242 1001.62 262.463 1001.62 Q261.796 1001.62 261.08 1001.81 Q260.388 1002.01 259.376 1002.58 Q258.363 1003.15 257.572 1004.56 Q256.806 1005.96 256.436 1008.09 Q256.041 1010.83 256.041 1017.4 Z" fill="#000000" fill-rule="nonzero" fill-opacity="1" /><path clip-path="url(#clip380)" d="M187.736 801.568 Q187.736 794.133 189.613 790.081 Q192.232 784.054 198.408 784.054 Q199.717 784.054 201.076 784.424 Q202.459 784.77 204.188 786.129 Q205.942 787.488 207.004 789.711 Q209.03 794.009 209.03 801.568 Q209.03 808.955 207.153 812.981 Q204.411 818.861 198.358 818.861 Q196.085 818.861 193.763 817.7 Q191.466 816.539 190.008 813.747 Q187.736 809.572 187.736 801.568 M191.935 800.951 Q191.935 808.584 192.479 811.623 Q193.096 814.908 194.776 816.341 Q196.481 817.749 198.358 817.749 Q200.384 817.749 202.064 816.242 Q203.768 814.711 204.287 811.425 Q204.855 808.189 204.83 800.951 Q204.83 793.91 204.336 791.094 Q203.669 787.809 201.891 786.499 Q200.137 785.165 198.358 785.165 Q197.691 785.165 196.975 785.363 Q196.283 785.561 195.27 786.129 Q194.257 786.697 193.467 788.105 Q192.701 789.513 192.331 791.638 Q191.935 794.38 191.935 800.951 Z" fill="#000000" fill-rule="nonzero" fill-opacity="1" /><path clip-path="url(#clip380)" d="M216.12 816.934 Q215.354 816.119 215.354 815.057 Q215.354 813.994 216.12 813.228 Q216.886 812.438 218.047 812.438 Q219.158 812.438 219.9 813.179 Q220.665 813.895 220.665 815.081 Q220.665 816.242 219.85 817.008 Q219.06 817.749 218.047 817.749 Q216.886 817.749 216.12 816.934 Z" fill="#000000" fill-rule="nonzero" fill-opacity="1" /><path clip-path="url(#clip380)" d="M227.632 817.749 Q227.632 816.835 227.706 816.563 Q227.805 816.292 228.2 815.872 L237.908 805.052 Q243.22 799.073 243.22 793.861 Q243.22 790.477 241.441 788.056 Q239.687 785.635 236.451 785.635 Q234.227 785.635 232.35 786.994 Q230.473 788.352 229.608 790.773 Q229.756 790.724 230.275 790.724 Q231.535 790.724 232.227 791.514 Q232.943 792.305 232.943 793.367 Q232.943 794.726 232.054 795.393 Q231.189 796.035 230.324 796.035 Q229.979 796.035 229.509 795.961 Q229.064 795.887 228.348 795.195 Q227.632 794.479 227.632 793.219 Q227.632 789.686 230.3 786.87 Q232.992 784.054 237.093 784.054 Q241.737 784.054 244.776 786.821 Q247.839 789.563 247.839 793.861 Q247.839 795.368 247.37 796.751 Q246.925 798.11 246.307 799.172 Q245.715 800.235 244.084 801.939 Q242.454 803.644 241.144 804.854 Q239.835 806.065 236.895 808.634 L231.535 813.846 L240.65 813.846 Q245.097 813.846 245.443 813.451 Q245.937 812.734 246.554 808.955 L247.839 808.955 L246.406 817.749 L227.632 817.749 Z" fill="#000000" fill-rule="nonzero" fill-opacity="1" /><path clip-path="url(#clip380)" d="M252.928 809.597 Q252.928 808.09 253.743 807.522 Q254.558 806.929 255.423 806.929 Q256.584 806.929 257.251 807.67 Q257.943 808.387 257.943 809.399 Q257.943 810.412 257.251 811.153 Q256.584 811.87 255.423 811.87 Q254.855 811.87 254.558 811.771 Q255.225 814.093 257.251 815.773 Q259.301 817.453 261.994 817.453 Q265.378 817.453 267.404 814.167 Q268.615 812.043 268.615 807.226 Q268.615 802.977 267.701 800.852 Q266.292 797.616 263.402 797.616 Q259.301 797.616 256.88 801.149 Q256.584 801.593 256.238 801.618 Q255.744 801.618 255.621 801.346 Q255.522 801.05 255.522 800.284 L255.522 785.314 Q255.522 784.103 256.016 784.103 Q256.213 784.103 256.633 784.251 Q259.82 785.66 263.353 785.684 Q266.984 785.684 270.245 784.202 Q270.492 784.054 270.64 784.054 Q271.134 784.054 271.159 784.622 Q271.159 784.82 270.739 785.412 Q270.344 785.981 269.479 786.746 Q268.615 787.488 267.503 788.204 Q266.391 788.92 264.761 789.414 Q263.155 789.884 261.376 789.884 Q259.252 789.884 257.078 789.217 L257.078 799.073 Q259.697 796.504 263.501 796.504 Q267.552 796.504 270.344 799.765 Q273.135 803.026 273.135 807.571 Q273.135 812.339 269.825 815.6 Q266.539 818.861 262.093 818.861 Q258.042 818.861 255.472 815.971 Q252.928 813.08 252.928 809.597 Z" fill="#000000" fill-rule="nonzero" fill-opacity="1" /><path clip-path="url(#clip380)" d="M187.192 585.118 Q187.192 577.682 189.07 573.631 Q191.688 567.603 197.864 567.603 Q199.173 567.603 200.532 567.974 Q201.915 568.32 203.645 569.678 Q205.399 571.037 206.461 573.26 Q208.487 577.559 208.487 585.118 Q208.487 592.504 206.609 596.531 Q203.867 602.41 197.815 602.41 Q195.542 602.41 193.22 601.249 Q190.922 600.088 189.465 597.297 Q187.192 593.122 187.192 585.118 M191.392 584.5 Q191.392 592.134 191.935 595.172 Q192.553 598.458 194.233 599.89 Q195.937 601.299 197.815 601.299 Q199.84 601.299 201.52 599.792 Q203.225 598.26 203.744 594.974 Q204.312 591.738 204.287 584.5 Q204.287 577.46 203.793 574.644 Q203.126 571.358 201.347 570.049 Q199.593 568.715 197.815 568.715 Q197.148 568.715 196.431 568.912 Q195.74 569.11 194.727 569.678 Q193.714 570.246 192.923 571.655 Q192.158 573.063 191.787 575.187 Q191.392 577.929 191.392 584.5 Z" fill="#000000" fill-rule="nonzero" fill-opacity="1" /><path clip-path="url(#clip380)" d="M215.576 600.483 Q214.811 599.668 214.811 598.606 Q214.811 597.544 215.576 596.778 Q216.342 595.987 217.503 595.987 Q218.615 595.987 219.356 596.728 Q220.122 597.445 220.122 598.631 Q220.122 599.792 219.307 600.557 Q218.516 601.299 217.503 601.299 Q216.342 601.299 215.576 600.483 Z" fill="#000000" fill-rule="nonzero" fill-opacity="1" /><path clip-path="url(#clip380)" d="M227.088 593.146 Q227.088 591.64 227.903 591.071 Q228.719 590.478 229.583 590.478 Q230.744 590.478 231.411 591.22 Q232.103 591.936 232.103 592.949 Q232.103 593.962 231.411 594.703 Q230.744 595.419 229.583 595.419 Q229.015 595.419 228.719 595.32 Q229.386 597.642 231.411 599.322 Q233.462 601.002 236.154 601.002 Q239.539 601.002 241.564 597.717 Q242.775 595.592 242.775 590.775 Q242.775 586.526 241.861 584.401 Q240.453 581.165 237.562 581.165 Q233.462 581.165 231.041 584.698 Q230.744 585.143 230.398 585.167 Q229.904 585.167 229.781 584.896 Q229.682 584.599 229.682 583.833 L229.682 568.863 Q229.682 567.653 230.176 567.653 Q230.374 567.653 230.794 567.801 Q233.98 569.209 237.513 569.234 Q241.144 569.234 244.405 567.751 Q244.652 567.603 244.801 567.603 Q245.295 567.603 245.319 568.171 Q245.319 568.369 244.899 568.962 Q244.504 569.53 243.639 570.296 Q242.775 571.037 241.663 571.753 Q240.552 572.47 238.921 572.964 Q237.315 573.433 235.537 573.433 Q233.412 573.433 231.238 572.766 L231.238 582.623 Q233.857 580.054 237.661 580.054 Q241.713 580.054 244.504 583.314 Q247.296 586.575 247.296 591.121 Q247.296 595.889 243.985 599.149 Q240.7 602.41 236.253 602.41 Q232.202 602.41 229.633 599.52 Q227.088 596.63 227.088 593.146 Z" fill="#000000" fill-rule="nonzero" fill-opacity="1" /><path clip-path="url(#clip380)" d="M251.841 585.118 Q251.841 577.682 253.718 573.631 Q256.337 567.603 262.513 567.603 Q263.822 567.603 265.181 567.974 Q266.564 568.32 268.293 569.678 Q270.047 571.037 271.11 573.26 Q273.135 577.559 273.135 585.118 Q273.135 592.504 271.258 596.531 Q268.516 602.41 262.463 602.41 Q260.191 602.41 257.869 601.249 Q255.571 600.088 254.114 597.297 Q251.841 593.122 251.841 585.118 M256.041 584.5 Q256.041 592.134 256.584 595.172 Q257.202 598.458 258.881 599.89 Q260.586 601.299 262.463 601.299 Q264.489 601.299 266.169 599.792 Q267.873 598.26 268.392 594.974 Q268.96 591.738 268.936 584.5 Q268.936 577.46 268.442 574.644 Q267.775 571.358 265.996 570.049 Q264.242 568.715 262.463 568.715 Q261.796 568.715 261.08 568.912 Q260.388 569.11 259.376 569.678 Q258.363 570.246 257.572 571.655 Q256.806 573.063 256.436 575.187 Q256.041 577.929 256.041 584.5 Z" fill="#000000" fill-rule="nonzero" fill-opacity="1" /><path clip-path="url(#clip380)" d="M187.736 368.667 Q187.736 361.231 189.613 357.18 Q192.232 351.153 198.408 351.153 Q199.717 351.153 201.076 351.523 Q202.459 351.869 204.188 353.228 Q205.942 354.586 207.004 356.81 Q209.03 361.108 209.03 368.667 Q209.03 376.053 207.153 380.08 Q204.411 385.96 198.358 385.96 Q196.085 385.96 193.763 384.798 Q191.466 383.637 190.008 380.846 Q187.736 376.671 187.736 368.667 M191.935 368.05 Q191.935 375.683 192.479 378.721 Q193.096 382.007 194.776 383.44 Q196.481 384.848 198.358 384.848 Q200.384 384.848 202.064 383.341 Q203.768 381.809 204.287 378.524 Q204.855 375.288 204.83 368.05 Q204.83 361.009 204.336 358.193 Q203.669 354.907 201.891 353.598 Q200.137 352.264 198.358 352.264 Q197.691 352.264 196.975 352.462 Q196.283 352.659 195.27 353.228 Q194.257 353.796 193.467 355.204 Q192.701 356.612 192.331 358.736 Q191.935 361.479 191.935 368.05 Z" fill="#000000" fill-rule="nonzero" fill-opacity="1" /><path clip-path="url(#clip380)" d="M216.12 384.033 Q215.354 383.217 215.354 382.155 Q215.354 381.093 216.12 380.327 Q216.886 379.537 218.047 379.537 Q219.158 379.537 219.9 380.278 Q220.665 380.994 220.665 382.18 Q220.665 383.341 219.85 384.107 Q219.06 384.848 218.047 384.848 Q216.886 384.848 216.12 384.033 Z" fill="#000000" fill-rule="nonzero" fill-opacity="1" /><path clip-path="url(#clip380)" d="M227.953 361.059 L229.608 350.658 L230.868 350.658 Q231.016 351.276 231.263 351.548 Q231.535 351.82 232.968 352.042 Q234.425 352.264 237.365 352.264 L249.642 352.264 Q249.642 353.425 249.198 354.043 L242.355 363.652 Q240.181 366.691 239.218 372.299 Q238.649 376.053 238.674 380.599 L238.674 383.168 Q238.674 385.96 236.327 385.96 Q234.005 385.96 234.005 383.168 Q234.005 373.509 240.23 364.146 Q240.897 363.183 243.343 359.749 Q245.813 356.316 245.912 356.167 L235.438 356.167 Q230.843 356.167 230.473 356.464 Q229.979 356.908 229.213 361.059 L227.953 361.059 Z" fill="#000000" fill-rule="nonzero" fill-opacity="1" /><path clip-path="url(#clip380)" d="M252.928 376.696 Q252.928 375.189 253.743 374.621 Q254.558 374.028 255.423 374.028 Q256.584 374.028 257.251 374.769 Q257.943 375.485 257.943 376.498 Q257.943 377.511 257.251 378.252 Q256.584 378.968 255.423 378.968 Q254.855 378.968 254.558 378.87 Q255.225 381.192 257.251 382.872 Q259.301 384.551 261.994 384.551 Q265.378 384.551 267.404 381.266 Q268.615 379.141 268.615 374.324 Q268.615 370.075 267.701 367.951 Q266.292 364.715 263.402 364.715 Q259.301 364.715 256.88 368.247 Q256.584 368.692 256.238 368.717 Q255.744 368.717 255.621 368.445 Q255.522 368.148 255.522 367.383 L255.522 352.412 Q255.522 351.202 256.016 351.202 Q256.213 351.202 256.633 351.35 Q259.82 352.758 263.353 352.783 Q266.984 352.783 270.245 351.301 Q270.492 351.153 270.64 351.153 Q271.134 351.153 271.159 351.721 Q271.159 351.918 270.739 352.511 Q270.344 353.079 269.479 353.845 Q268.615 354.586 267.503 355.303 Q266.391 356.019 264.761 356.513 Q263.155 356.983 261.376 356.983 Q259.252 356.983 257.078 356.316 L257.078 366.172 Q259.697 363.603 263.501 363.603 Q267.552 363.603 270.344 366.864 Q273.135 370.125 273.135 374.67 Q273.135 379.438 269.825 382.699 Q266.539 385.96 262.093 385.96 Q258.042 385.96 255.472 383.069 Q252.928 380.179 252.928 376.696 Z" fill="#000000" fill-rule="nonzero" fill-opacity="1" /><path clip-path="url(#clip380)" d="M189.712 139.519 L189.712 137.938 Q195.789 137.938 198.926 134.702 Q199.791 134.702 199.939 134.899 Q200.087 135.097 200.087 136.011 L200.087 164.395 Q200.087 165.902 200.829 166.372 Q201.57 166.841 204.806 166.841 L206.411 166.841 L206.411 168.397 Q204.633 168.249 198.21 168.249 Q191.787 168.249 190.033 168.397 L190.033 166.841 L191.639 166.841 Q194.826 166.841 195.591 166.396 Q196.357 165.927 196.357 164.395 L196.357 138.185 Q193.714 139.519 189.712 139.519 Z" fill="#000000" fill-rule="nonzero" fill-opacity="1" /><path clip-path="url(#clip380)" d="M215.576 167.582 Q214.811 166.767 214.811 165.705 Q214.811 164.642 215.576 163.877 Q216.342 163.086 217.503 163.086 Q218.615 163.086 219.356 163.827 Q220.122 164.544 220.122 165.729 Q220.122 166.89 219.307 167.656 Q218.516 168.397 217.503 168.397 Q216.342 168.397 215.576 167.582 Z" fill="#000000" fill-rule="nonzero" fill-opacity="1" /><path clip-path="url(#clip380)" d="M226.545 152.217 Q226.545 144.781 228.422 140.729 Q231.041 134.702 237.217 134.702 Q238.526 134.702 239.885 135.072 Q241.268 135.418 242.997 136.777 Q244.751 138.136 245.813 140.359 Q247.839 144.657 247.839 152.217 Q247.839 159.603 245.962 163.629 Q243.22 169.509 237.167 169.509 Q234.894 169.509 232.572 168.348 Q230.275 167.187 228.817 164.395 Q226.545 160.22 226.545 152.217 M230.744 151.599 Q230.744 159.232 231.288 162.271 Q231.905 165.556 233.585 166.989 Q235.29 168.397 237.167 168.397 Q239.193 168.397 240.873 166.89 Q242.577 165.359 243.096 162.073 Q243.664 158.837 243.639 151.599 Q243.639 144.559 243.145 141.742 Q242.478 138.457 240.7 137.147 Q238.946 135.814 237.167 135.814 Q236.5 135.814 235.784 136.011 Q235.092 136.209 234.079 136.777 Q233.066 137.345 232.276 138.753 Q231.51 140.161 231.14 142.286 Q230.744 145.028 230.744 151.599 Z" fill="#000000" fill-rule="nonzero" fill-opacity="1" /><path clip-path="url(#clip380)" d="M251.841 152.217 Q251.841 144.781 253.718 140.729 Q256.337 134.702 262.513 134.702 Q263.822 134.702 265.181 135.072 Q266.564 135.418 268.293 136.777 Q270.047 138.136 271.11 140.359 Q273.135 144.657 273.135 152.217 Q273.135 159.603 271.258 163.629 Q268.516 169.509 262.463 169.509 Q260.191 169.509 257.869 168.348 Q255.571 167.187 254.114 164.395 Q251.841 160.22 251.841 152.217 M256.041 151.599 Q256.041 159.232 256.584 162.271 Q257.202 165.556 258.881 166.989 Q260.586 168.397 262.463 168.397 Q264.489 168.397 266.169 166.89 Q267.873 165.359 268.392 162.073 Q268.96 158.837 268.936 151.599 Q268.936 144.559 268.442 141.742 Q267.775 138.457 265.996 137.147 Q264.242 135.814 262.463 135.814 Q261.796 135.814 261.08 136.011 Q260.388 136.209 259.376 136.777 Q258.363 137.345 257.572 138.753 Q256.806 140.161 256.436 142.286 Q256.041 145.028 256.041 151.599 Z" fill="#000000" fill-rule="nonzero" fill-opacity="1" /><path clip-path="url(#clip380)" d="M133.991 638.416 Q127.367 638.416 122.782 633.797 Q118.196 629.177 118.196 622.927 Q118.196 617.628 122.51 614.164 L107.462 614.164 Q104.881 614.164 104.236 615.081 Q103.59 615.964 103.59 619.564 L101.416 619.564 L100.669 609.544 L142.89 609.544 Q145.472 609.544 146.151 608.661 Q146.796 607.744 146.796 604.143 L148.936 604.143 L149.718 614.367 L145.098 614.367 Q149.684 617.968 149.718 623.674 Q149.718 629.653 145.132 634.034 Q140.546 638.416 133.991 638.416 M134.059 632.642 Q140.512 632.642 143.705 630.638 Q148.155 627.852 148.155 623.335 Q148.155 618.172 143.298 615.115 Q142.109 614.333 140.716 614.367 L126.45 614.367 Q125.057 614.367 123.903 615.115 Q119.725 617.968 119.725 622.621 Q119.725 627.479 124.174 630.502 Q127.503 632.642 134.059 632.642 Z" fill="#000000" fill-rule="nonzero" fill-opacity="1" /><path clip-path="url(#clip380)" d="M133.617 600.271 Q127.061 600.271 122.408 596.059 Q117.754 591.847 117.754 585.801 Q117.754 579.687 121.729 576.528 Q125.703 573.335 131.409 573.335 Q132.462 573.335 132.666 573.607 Q132.87 573.879 132.87 575.067 L132.87 594.497 Q139.969 594.497 143.298 592.391 Q147.951 589.469 147.951 584.544 Q147.951 583.865 147.815 583.05 Q147.68 582.234 147.102 580.57 Q146.491 578.906 144.894 577.445 Q143.298 575.984 140.784 575.135 Q139.799 574.931 139.833 574.252 Q139.833 573.335 140.648 573.335 Q141.26 573.335 142.652 574.014 Q144.011 574.66 145.641 575.917 Q147.272 577.173 148.495 579.619 Q149.718 582.031 149.718 584.952 Q149.718 591.066 145.098 595.685 Q140.445 600.271 133.617 600.271 M131.409 594.429 L131.409 577.921 Q129.949 577.921 128.318 578.192 Q126.688 578.43 124.446 579.177 Q122.17 579.891 120.744 581.589 Q119.317 583.287 119.317 585.801 Q119.317 586.922 119.792 588.145 Q120.268 589.334 121.423 590.794 Q122.578 592.255 125.193 593.274 Q127.809 594.293 131.409 594.429 Z" fill="#000000" fill-rule="nonzero" fill-opacity="1" /><path clip-path="url(#clip380)" d="M148.936 569.089 L146.796 569.089 Q146.796 565.387 146.355 564.538 Q145.879 563.688 143.637 563.688 L124.989 563.688 Q122.408 563.688 121.763 564.605 Q121.117 565.489 121.117 569.089 L118.943 569.089 L118.196 559.307 L125.499 559.307 Q118.196 556.046 118.196 549.015 Q118.196 543.784 120.778 541.712 Q122.51 540.183 124.446 539.877 Q126.382 539.538 131.409 539.538 L144.69 539.538 Q146.151 539.47 146.491 538.349 Q146.796 537.228 146.796 534.103 L148.936 534.103 Q148.732 541.202 148.732 541.915 Q148.732 542.459 148.936 549.762 L146.796 549.762 Q146.796 546.059 146.355 545.21 Q145.879 544.327 143.637 544.327 L127.435 544.327 Q123.903 544.327 121.831 545.414 Q119.725 546.501 119.725 549.49 Q119.725 553.091 122.748 555.978 Q125.771 558.865 130.866 558.865 L143.637 558.865 Q145.879 558.865 146.355 558.016 Q146.796 557.133 146.796 553.464 L148.936 553.464 Q148.732 560.563 148.732 561.243 Q148.732 561.786 148.936 569.089 Z" fill="#000000" fill-rule="nonzero" fill-opacity="1" /><path clip-path="url(#clip380)" d="M148.019 530.435 L138.848 530.435 Q138.067 530.435 137.795 530.401 Q137.523 530.367 137.32 530.163 Q137.116 529.959 137.116 529.551 Q137.116 529.076 137.32 528.906 Q137.523 528.702 138.305 528.566 Q143.094 527.513 145.641 525.272 Q148.155 522.996 148.155 518.886 Q148.155 514.98 146.423 513.009 Q144.69 511.039 141.837 511.039 Q136.742 511.039 135.451 518.274 Q134.602 522.452 134.059 524.185 Q133.481 525.917 132.224 527.445 Q129.779 530.435 126.314 530.435 Q122.85 530.435 120.302 527.819 Q117.754 525.17 117.754 519.327 Q117.754 515.421 119.725 512.772 Q119.113 511.99 118.604 511.583 Q117.754 510.666 117.754 510.19 Q117.754 509.647 118.128 509.545 Q118.468 509.443 119.453 509.443 L126.45 509.443 Q127.231 509.443 127.503 509.477 Q127.775 509.511 127.979 509.715 Q128.148 509.918 128.148 510.36 Q128.148 511.141 127.503 511.175 Q119.079 511.719 119.079 519.327 Q119.079 523.437 120.676 525.272 Q122.238 527.106 124.378 527.106 Q125.567 527.106 126.484 526.562 Q127.367 525.985 127.911 525.272 Q128.42 524.524 128.93 523.166 Q129.405 521.807 129.575 520.992 Q129.745 520.143 130.085 518.546 Q131.138 512.975 133.413 510.632 Q136.334 507.711 140.037 507.711 Q144.147 507.711 146.932 510.496 Q149.718 513.281 149.718 518.886 Q149.718 523.403 146.694 526.562 Q147.102 526.97 147.476 527.276 Q147.815 527.581 147.951 527.717 Q148.087 527.819 148.189 527.853 Q148.257 527.887 148.325 527.955 Q149.718 529.348 149.718 529.687 Q149.718 530.231 149.344 530.333 Q149.004 530.435 148.019 530.435 Z" fill="#000000" fill-rule="nonzero" fill-opacity="1" /><path clip-path="url(#clip380)" d="M148.936 503.057 L146.796 503.057 Q146.796 499.355 146.355 498.505 Q145.879 497.656 143.637 497.656 L124.922 497.656 Q122.34 497.656 121.729 498.539 Q121.117 499.389 121.117 502.785 L118.943 502.785 L118.196 493.071 L143.705 493.071 Q145.777 493.071 146.287 492.323 Q146.796 491.576 146.796 488.179 L148.936 488.179 Q148.732 495.279 148.732 495.414 Q148.732 496.366 148.936 503.057 M106.07 500.136 Q104.677 500.136 103.556 499.083 Q102.401 497.996 102.401 496.467 Q102.401 494.939 103.454 493.852 Q104.473 492.765 106.104 492.765 Q107.7 492.765 108.753 493.852 Q109.772 494.939 109.772 496.467 Q109.772 498.064 108.651 499.117 Q107.53 500.136 106.07 500.136 Z" fill="#000000" fill-rule="nonzero" fill-opacity="1" /><path clip-path="url(#clip380)" d="M121.117 484.783 L119.589 484.783 Q119.453 481.59 117.211 479.484 Q114.935 477.344 112.15 476.631 Q109.365 475.883 106.138 475.815 L106.138 474.083 L118.943 474.083 L118.943 464.131 L121.117 464.131 L121.117 474.083 L140.445 474.083 Q147.951 474.083 147.951 469.396 Q147.951 467.392 145.913 466.067 Q143.841 464.742 140.173 464.742 L136.334 464.742 L136.334 463.01 L140.309 463.01 Q144.079 463.01 146.898 464.742 Q149.718 466.474 149.718 469.905 Q149.718 471.162 149.378 472.419 Q149.072 473.642 148.257 475.272 Q147.408 476.868 145.37 477.887 Q143.298 478.872 140.309 478.872 L121.117 478.872 L121.117 484.783 Z" fill="#000000" fill-rule="nonzero" fill-opacity="1" /><path clip-path="url(#clip380)" d="M157.564 459.749 Q156.103 459.749 155.322 458.9 Q154.575 458.017 154.575 456.828 Q154.575 455.571 155.356 454.756 Q156.171 453.907 157.496 453.907 Q160.077 453.907 160.417 456.624 Q161.674 455.299 161.674 453.363 Q161.674 451.291 160.145 449.627 Q158.617 447.928 157.156 447.215 Q155.696 446.468 153.046 445.415 Q150.974 444.43 148.936 443.683 L123.529 454.11 Q121.864 454.79 121.491 455.843 Q121.117 456.896 121.117 459.749 L118.943 459.749 Q119.147 456.624 119.147 452.99 Q119.147 450.85 118.943 445.415 L121.117 445.415 Q121.117 449.321 122.917 449.321 Q123.121 449.321 124.174 448.913 L142.89 441.169 L125.771 434.138 Q124.786 433.73 124.106 433.73 Q121.253 433.73 121.117 436.991 L118.943 436.991 Q119.147 432.405 119.147 430.945 Q119.147 428.092 118.943 425.748 L121.117 425.748 Q121.117 430.401 125.567 432.202 L155.254 444.464 Q163.169 447.793 163.202 453.363 Q163.202 456.013 161.572 457.881 Q159.942 459.749 157.564 459.749 Z" fill="#000000" fill-rule="nonzero" fill-opacity="1" /><path clip-path="url(#clip381)" d="M362.732 973.63 L362.732 1016.92 L539.638 1016.92 L539.638 973.63 L362.732 973.63 L362.732 973.63  Z" fill="#808080" fill-rule="evenodd" fill-opacity="1"/>
<polyline clip-path="url(#clip381)" style="stroke:#000000; stroke-linecap:round; stroke-linejoin:round; stroke-width:4; stroke-opacity:1; fill:none" points="362.732,973.63 362.732,1016.92 539.638,1016.92 539.638,973.63 362.732,973.63 "/>
<path clip-path="url(#clip381)" d="M539.638 713.889 L539.638 1016.92 L716.544 1016.92 L716.544 713.889 L539.638 713.889 L539.638 713.889  Z" fill="#808080" fill-rule="evenodd" fill-opacity="1"/>
<polyline clip-path="url(#clip381)" style="stroke:#000000; stroke-linecap:round; stroke-linejoin:round; stroke-width:4; stroke-opacity:1; fill:none" points="539.638,713.889 539.638,1016.92 716.544,1016.92 716.544,713.889 539.638,713.889 "/>
<path clip-path="url(#clip381)" d="M716.544 280.988 L716.544 1016.92 L893.45 1016.92 L893.45 280.988 L716.544 280.988 L716.544 280.988  Z" fill="#808080" fill-rule="evenodd" fill-opacity="1"/>
<polyline clip-path="url(#clip381)" style="stroke:#000000; stroke-linecap:round; stroke-linejoin:round; stroke-width:4; stroke-opacity:1; fill:none" points="716.544,280.988 716.544,1016.92 893.45,1016.92 893.45,280.988 716.544,280.988 "/>
<path clip-path="url(#clip381)" d="M893.45 627.309 L893.45 1016.92 L1070.36 1016.92 L1070.36 627.309 L893.45 627.309 L893.45 627.309  Z" fill="#808080" fill-rule="evenodd" fill-opacity="1"/>
<polyline clip-path="url(#clip381)" style="stroke:#000000; stroke-linecap:round; stroke-linejoin:round; stroke-width:4; stroke-opacity:1; fill:none" points="893.45,627.309 893.45,1016.92 1070.36,1016.92 1070.36,627.309 893.45,627.309 "/>
<path clip-path="url(#clip381)" d="M1070.36 800.469 L1070.36 1016.92 L1247.26 1016.92 L1247.26 800.469 L1070.36 800.469 L1070.36 800.469  Z" fill="#808080" fill-rule="evenodd" fill-opacity="1"/>
<polyline clip-path="url(#clip381)" style="stroke:#000000; stroke-linecap:round; stroke-linejoin:round; stroke-width:4; stroke-opacity:1; fill:none" points="1070.36,800.469 1070.36,1016.92 1247.26,1016.92 1247.26,800.469 1070.36,800.469 "/>
<path clip-path="url(#clip381)" d="M1247.26 973.63 L1247.26 1016.92 L1424.17 1016.92 L1424.17 973.63 L1247.26 973.63 L1247.26 973.63  Z" fill="#808080" fill-rule="evenodd" fill-opacity="1"/>
<polyline clip-path="url(#clip381)" style="stroke:#000000; stroke-linecap:round; stroke-linejoin:round; stroke-width:4; stroke-opacity:1; fill:none" points="1247.26,973.63 1247.26,1016.92 1424.17,1016.92 1424.17,973.63 1247.26,973.63 "/>
<circle clip-path="url(#clip381)" style="fill:#808080; stroke:none; fill-opacity:0" cx="451.185" cy="973.63" r="2"/>
<circle clip-path="url(#clip381)" style="fill:#808080; stroke:none; fill-opacity:0" cx="628.091" cy="713.889" r="2"/>
<circle clip-path="url(#clip381)" style="fill:#808080; stroke:none; fill-opacity:0" cx="804.997" cy="280.988" r="2"/>
<circle clip-path="url(#clip381)" style="fill:#808080; stroke:none; fill-opacity:0" cx="981.902" cy="627.309" r="2"/>
<circle clip-path="url(#clip381)" style="fill:#808080; stroke:none; fill-opacity:0" cx="1158.81" cy="800.469" r="2"/>
<circle clip-path="url(#clip381)" style="fill:#808080; stroke:none; fill-opacity:0" cx="1335.71" cy="973.63" r="2"/>
<polyline clip-path="url(#clip381)" style="stroke:#000000; stroke-linecap:round; stroke-linejoin:round; stroke-width:8; stroke-opacity:1; fill:none" points="330.889,1016.8 336.697,1016.77 342.504,1016.74 376.52,1016.38 410.535,1015.44 426.359,1014.62 442.183,1013.38 463.392,1010.79 484.602,1006.59 493.365,1004.22 502.128,1001.37 510.891,997.975 519.654,993.95 527.803,989.562 535.952,984.472 544.1,978.596 552.249,971.844 562.478,961.985 572.708,950.411 582.937,936.926 593.167,921.339 602.342,905.417 611.518,887.53 620.694,867.567 629.87,845.436 635.121,831.767 640.373,817.354 645.624,802.193 650.876,786.28 656.127,769.619 661.379,752.213 666.63,734.074 671.882,715.217 679.733,685.728 687.584,654.766 695.435,622.443 703.286,588.9 713.327,544.487 723.369,498.765 733.41,452.216 743.452,405.379 752.617,362.882 761.782,321.121 770.947,280.598 780.112,241.825 785.327,220.739 790.542,200.477 795.758,181.133 800.973,162.795 806.189,145.547 811.404,129.473 816.62,114.648 821.835,101.145 825.969,91.425 830.104,82.6075 834.238,74.7205 838.372,67.789 842.507,61.8348 846.641,56.877 850.776,52.9315 854.91,50.0109 860.046,47.824 865.183,47.2441 870.319,48.2742 875.456,50.9092 880.592,55.1359 885.729,60.9334 890.865,68.2731 896.002,77.1187 899.935,84.8847 903.869,93.4866 907.803,102.9 911.736,113.098 915.67,124.053 919.604,135.734 923.537,148.109 927.471,161.145 933.017,180.577 938.563,201.148 944.109,222.753 949.655,245.282 960.747,292.66 971.838,342.374 988.416,419.082 1004.99,496.156 1014.42,539.164 1023.85,581.065 1033.27,621.51 1042.7,660.202 1052.03,696.56 1061.37,730.786 1070.7,762.754 1080.04,792.385 1085.17,807.676 1090.31,822.248 1095.44,836.106 1100.58,849.257 1105.71,861.708 1110.85,873.474 1115.99,884.567 1121.12,895.005 1128.96,909.728 1136.81,923.037 1144.65,935.012 1152.5,945.736 1162.4,957.617 1172.3,967.819 1182.2,976.516 1192.1,983.877 1201.25,989.636 1210.41,994.509 1219.57,998.61 1228.72,1002.04 1247.61,1007.38 1266.49,1010.94 1285.63,1013.28 1304.78,1014.75 1344.75,1016.24 1376.25,1016.67 1447.96,1016.9 1456.01,1016.9 "/>
</svg>
