<?xml version="1.0" encoding="utf-8"?>
<svg xmlns="http://www.w3.org/2000/svg" xmlns:xlink="http://www.w3.org/1999/xlink" width="600" height="400" viewBox="0 0 2400 1600">
<defs>
  <clipPath id="clip110">
    <rect x="0" y="0" width="2400" height="1600"/>
  </clipPath>
</defs>
<path clip-path="url(#clip110)" d="M0 1600 L2400 1600 L2400 0 L0 0  Z" fill="#ffffff" fill-rule="evenodd" fill-opacity="1"/>
<defs>
  <clipPath id="clip111">
    <rect x="480" y="0" width="1681" height="1600"/>
  </clipPath>
</defs>
<path clip-path="url(#clip110)" d="M274.467 1360.19 L2289.76 1360.19 L2289.76 110.236 L274.467 110.236  Z" fill="#ffffff" fill-rule="evenodd" fill-opacity="1"/>
<defs>
  <clipPath id="clip112">
    <rect x="274" y="110" width="2016" height="1251"/>
  </clipPath>
</defs>
<polyline clip-path="url(#clip110)" style="stroke:#000000; stroke-linecap:round; stroke-linejoin:round; stroke-width:4; stroke-opacity:1; fill:none" points="274.467,1360.19 2289.76,1360.19 "/>
<polyline clip-path="url(#clip110)" style="stroke:#000000; stroke-linecap:round; stroke-linejoin:round; stroke-width:4; stroke-opacity:1; fill:none" points="274.467,110.236 2289.76,110.236 "/>
<polyline clip-path="url(#clip110)" style="stroke:#000000; stroke-linecap:round; stroke-linejoin:round; stroke-width:4; stroke-opacity:1; fill:none" points="323.31,1360.19 323.31,1341.29 "/>
<polyline clip-path="url(#clip110)" style="stroke:#000000; stroke-linecap:round; stroke-linejoin:round; stroke-width:4; stroke-opacity:1; fill:none" points="743.884,1360.19 743.884,1341.29 "/>
<polyline clip-path="url(#clip110)" style="stroke:#000000; stroke-linecap:round; stroke-linejoin:round; stroke-width:4; stroke-opacity:1; fill:none" points="1164.46,1360.19 1164.46,1341.29 "/>
<polyline clip-path="url(#clip110)" style="stroke:#000000; stroke-linecap:round; stroke-linejoin:round; stroke-width:4; stroke-opacity:1; fill:none" points="1585.03,1360.19 1585.03,1341.29 "/>
<polyline clip-path="url(#clip110)" style="stroke:#000000; stroke-linecap:round; stroke-linejoin:round; stroke-width:4; stroke-opacity:1; fill:none" points="2005.61,1360.19 2005.61,1341.29 "/>
<polyline clip-path="url(#clip110)" style="stroke:#000000; stroke-linecap:round; stroke-linejoin:round; stroke-width:4; stroke-opacity:1; fill:none" points="323.31,110.236 323.31,129.134 "/>
<polyline clip-path="url(#clip110)" style="stroke:#000000; stroke-linecap:round; stroke-linejoin:round; stroke-width:4; stroke-opacity:1; fill:none" points="743.884,110.236 743.884,129.134 "/>
<polyline clip-path="url(#clip110)" style="stroke:#000000; stroke-linecap:round; stroke-linejoin:round; stroke-width:4; stroke-opacity:1; fill:none" points="1164.46,110.236 1164.46,129.134 "/>
<polyline clip-path="url(#clip110)" style="stroke:#000000; stroke-linecap:round; stroke-linejoin:round; stroke-width:4; stroke-opacity:1; fill:none" points="1585.03,110.236 1585.03,129.134 "/>
<polyline clip-path="url(#clip110)" style="stroke:#000000; stroke-linecap:round; stroke-linejoin:round; stroke-width:4; stroke-opacity:1; fill:none" points="2005.61,110.236 2005.61,129.134 "/>
<path clip-path="url(#clip110)" d="M292.987 1406.41 Q292.987 1398.97 294.864 1394.92 Q297.483 1388.89 303.658 1388.89 Q304.968 1388.89 306.326 1389.26 Q307.71 1389.61 309.439 1390.97 Q311.193 1392.33 312.255 1394.55 Q314.281 1398.85 314.281 1406.41 Q314.281 1413.79 312.403 1417.82 Q309.661 1423.7 303.609 1423.7 Q301.336 1423.7 299.014 1422.54 Q296.717 1421.38 295.259 1418.59 Q292.987 1414.41 292.987 1406.41 M297.186 1405.79 Q297.186 1413.42 297.73 1416.46 Q298.347 1419.75 300.027 1421.18 Q301.732 1422.59 303.609 1422.59 Q305.635 1422.59 307.315 1421.08 Q309.019 1419.55 309.538 1416.26 Q310.106 1413.03 310.081 1405.79 Q310.081 1398.75 309.587 1395.93 Q308.92 1392.65 307.142 1391.34 Q305.388 1390 303.609 1390 Q302.942 1390 302.226 1390.2 Q301.534 1390.4 300.521 1390.97 Q299.508 1391.54 298.718 1392.94 Q297.952 1394.35 297.581 1396.48 Q297.186 1399.22 297.186 1405.79 Z" fill="#000000" fill-rule="nonzero" fill-opacity="1" /><path clip-path="url(#clip110)" d="M321.371 1421.77 Q320.605 1420.96 320.605 1419.9 Q320.605 1418.83 321.371 1418.07 Q322.137 1417.28 323.298 1417.28 Q324.409 1417.28 325.15 1418.02 Q325.916 1418.73 325.916 1419.92 Q325.916 1421.08 325.101 1421.85 Q324.31 1422.59 323.298 1422.59 Q322.137 1422.59 321.371 1421.77 Z" fill="#000000" fill-rule="nonzero" fill-opacity="1" /><path clip-path="url(#clip110)" d="M332.339 1406.41 Q332.339 1398.97 334.217 1394.92 Q336.835 1388.89 343.011 1388.89 Q344.32 1388.89 345.679 1389.26 Q347.062 1389.61 348.791 1390.97 Q350.545 1392.33 351.608 1394.55 Q353.633 1398.85 353.633 1406.41 Q353.633 1413.79 351.756 1417.82 Q349.014 1423.7 342.962 1423.7 Q340.689 1423.7 338.367 1422.54 Q336.069 1421.38 334.612 1418.59 Q332.339 1414.41 332.339 1406.41 M336.539 1405.79 Q336.539 1413.42 337.082 1416.46 Q337.7 1419.75 339.38 1421.18 Q341.084 1422.59 342.962 1422.59 Q344.987 1422.59 346.667 1421.08 Q348.372 1419.55 348.89 1416.26 Q349.458 1413.03 349.434 1405.79 Q349.434 1398.75 348.94 1395.93 Q348.273 1392.65 346.494 1391.34 Q344.74 1390 342.962 1390 Q342.295 1390 341.578 1390.2 Q340.886 1390.4 339.874 1390.97 Q338.861 1391.54 338.07 1392.94 Q337.304 1394.35 336.934 1396.48 Q336.539 1399.22 336.539 1405.79 Z" fill="#000000" fill-rule="nonzero" fill-opacity="1" /><path clip-path="url(#clip110)" d="M713.833 1406.41 Q713.833 1398.97 715.71 1394.92 Q718.329 1388.89 724.504 1388.89 Q725.814 1388.89 727.172 1389.26 Q728.556 1389.61 730.285 1390.97 Q732.039 1392.33 733.101 1394.55 Q735.127 1398.85 735.127 1406.41 Q735.127 1413.79 733.249 1417.82 Q730.507 1423.7 724.455 1423.7 Q722.182 1423.7 719.86 1422.54 Q717.563 1421.38 716.105 1418.59 Q713.833 1414.41 713.833 1406.41 M718.032 1405.79 Q718.032 1413.42 718.576 1416.46 Q719.193 1419.75 720.873 1421.18 Q722.578 1422.59 724.455 1422.59 Q726.481 1422.59 728.161 1421.08 Q729.865 1419.55 730.384 1416.26 Q730.952 1413.03 730.927 1405.79 Q730.927 1398.75 730.433 1395.93 Q729.766 1392.65 727.988 1391.34 Q726.234 1390 724.455 1390 Q723.788 1390 723.072 1390.2 Q722.38 1390.4 721.367 1390.97 Q720.354 1391.54 719.564 1392.94 Q718.798 1394.35 718.427 1396.48 Q718.032 1399.22 718.032 1405.79 Z" fill="#000000" fill-rule="nonzero" fill-opacity="1" /><path clip-path="url(#clip110)" d="M742.217 1421.77 Q741.451 1420.96 741.451 1419.9 Q741.451 1418.83 742.217 1418.07 Q742.983 1417.28 744.144 1417.28 Q745.255 1417.28 745.996 1418.02 Q746.762 1418.73 746.762 1419.92 Q746.762 1421.08 745.947 1421.85 Q745.156 1422.59 744.144 1422.59 Q742.983 1422.59 742.217 1421.77 Z" fill="#000000" fill-rule="nonzero" fill-opacity="1" /><path clip-path="url(#clip110)" d="M753.728 1422.59 Q753.728 1421.67 753.803 1421.4 Q753.901 1421.13 754.297 1420.71 L764.005 1409.89 Q769.316 1403.91 769.316 1398.7 Q769.316 1395.32 767.538 1392.89 Q765.784 1390.47 762.548 1390.47 Q760.324 1390.47 758.447 1391.83 Q756.569 1393.19 755.705 1395.61 Q755.853 1395.56 756.372 1395.56 Q757.632 1395.56 758.323 1396.35 Q759.04 1397.14 759.04 1398.21 Q759.04 1399.56 758.15 1400.23 Q757.286 1400.87 756.421 1400.87 Q756.075 1400.87 755.606 1400.8 Q755.161 1400.73 754.445 1400.03 Q753.728 1399.32 753.728 1398.06 Q753.728 1394.52 756.396 1391.71 Q759.089 1388.89 763.19 1388.89 Q767.834 1388.89 770.873 1391.66 Q773.936 1394.4 773.936 1398.7 Q773.936 1400.21 773.466 1401.59 Q773.022 1402.95 772.404 1404.01 Q771.811 1405.07 770.181 1406.78 Q768.55 1408.48 767.241 1409.69 Q765.932 1410.9 762.992 1413.47 L757.632 1418.68 L766.747 1418.68 Q771.194 1418.68 771.54 1418.29 Q772.034 1417.57 772.651 1413.79 L773.936 1413.79 L772.503 1422.59 L753.728 1422.59 Z" fill="#000000" fill-rule="nonzero" fill-opacity="1" /><path clip-path="url(#clip110)" d="M1133.85 1406.41 Q1133.85 1398.97 1135.73 1394.92 Q1138.35 1388.89 1144.52 1388.89 Q1145.83 1388.89 1147.19 1389.26 Q1148.57 1389.61 1150.3 1390.97 Q1152.06 1392.33 1153.12 1394.55 Q1155.15 1398.85 1155.15 1406.41 Q1155.15 1413.79 1153.27 1417.82 Q1150.53 1423.7 1144.47 1423.7 Q1142.2 1423.7 1139.88 1422.54 Q1137.58 1421.38 1136.12 1418.59 Q1133.85 1414.41 1133.85 1406.41 M1138.05 1405.79 Q1138.05 1413.42 1138.59 1416.46 Q1139.21 1419.75 1140.89 1421.18 Q1142.6 1422.59 1144.47 1422.59 Q1146.5 1422.59 1148.18 1421.08 Q1149.88 1419.55 1150.4 1416.26 Q1150.97 1413.03 1150.95 1405.79 Q1150.95 1398.75 1150.45 1395.93 Q1149.78 1392.65 1148.01 1391.34 Q1146.25 1390 1144.47 1390 Q1143.81 1390 1143.09 1390.2 Q1142.4 1390.4 1141.39 1390.97 Q1140.37 1391.54 1139.58 1392.94 Q1138.82 1394.35 1138.45 1396.48 Q1138.05 1399.22 1138.05 1405.79 Z" fill="#000000" fill-rule="nonzero" fill-opacity="1" /><path clip-path="url(#clip110)" d="M1162.24 1421.77 Q1161.47 1420.96 1161.47 1419.9 Q1161.47 1418.83 1162.24 1418.07 Q1163 1417.28 1164.16 1417.28 Q1165.27 1417.28 1166.01 1418.02 Q1166.78 1418.73 1166.78 1419.92 Q1166.78 1421.08 1165.97 1421.85 Q1165.17 1422.59 1164.16 1422.59 Q1163 1422.59 1162.24 1421.77 Z" fill="#000000" fill-rule="nonzero" fill-opacity="1" /><path clip-path="url(#clip110)" d="M1172.64 1414.24 L1172.64 1412.68 L1188.17 1388.94 Q1188.57 1388.32 1189.19 1388.35 Q1189.75 1388.35 1189.88 1388.57 Q1190 1388.79 1190 1389.66 L1190 1412.68 L1195.07 1412.68 L1195.07 1414.24 L1190 1414.24 L1190 1418.64 Q1190 1420.09 1190.59 1420.56 Q1191.21 1421.03 1193.83 1421.03 L1194.89 1421.03 L1194.89 1422.59 Q1192.82 1422.44 1188.03 1422.44 Q1183.26 1422.44 1181.18 1422.59 L1181.18 1421.03 L1182.24 1421.03 Q1184.86 1421.03 1185.48 1420.59 Q1186.1 1420.12 1186.1 1418.64 L1186.1 1414.24 L1172.64 1414.24 M1174.07 1412.68 L1186.39 1412.68 L1186.39 1393.81 L1174.07 1412.68 Z" fill="#000000" fill-rule="nonzero" fill-opacity="1" /><path clip-path="url(#clip110)" d="M1554.78 1406.41 Q1554.78 1398.97 1556.66 1394.92 Q1559.28 1388.89 1565.46 1388.89 Q1566.76 1388.89 1568.12 1389.26 Q1569.51 1389.61 1571.24 1390.97 Q1572.99 1392.33 1574.05 1394.55 Q1576.08 1398.85 1576.08 1406.41 Q1576.08 1413.79 1574.2 1417.82 Q1571.46 1423.7 1565.41 1423.7 Q1563.13 1423.7 1560.81 1422.54 Q1558.51 1421.38 1557.06 1418.59 Q1554.78 1414.41 1554.78 1406.41 M1558.98 1405.79 Q1558.98 1413.42 1559.53 1416.46 Q1560.14 1419.75 1561.82 1421.18 Q1563.53 1422.59 1565.41 1422.59 Q1567.43 1422.59 1569.11 1421.08 Q1570.82 1419.55 1571.33 1416.26 Q1571.9 1413.03 1571.88 1405.79 Q1571.88 1398.75 1571.38 1395.93 Q1570.72 1392.65 1568.94 1391.34 Q1567.18 1390 1565.41 1390 Q1564.74 1390 1564.02 1390.2 Q1563.33 1390.4 1562.32 1390.97 Q1561.31 1391.54 1560.51 1392.94 Q1559.75 1394.35 1559.38 1396.48 Q1558.98 1399.22 1558.98 1405.79 Z" fill="#000000" fill-rule="nonzero" fill-opacity="1" /><path clip-path="url(#clip110)" d="M1583.17 1421.77 Q1582.4 1420.96 1582.4 1419.9 Q1582.4 1418.83 1583.17 1418.07 Q1583.93 1417.28 1585.09 1417.28 Q1586.21 1417.28 1586.95 1418.02 Q1587.71 1418.73 1587.71 1419.92 Q1587.71 1421.08 1586.9 1421.85 Q1586.11 1422.59 1585.09 1422.59 Q1583.93 1422.59 1583.17 1421.77 Z" fill="#000000" fill-rule="nonzero" fill-opacity="1" /><path clip-path="url(#clip110)" d="M1594.28 1406.6 Q1594.28 1398.65 1598.34 1393.78 Q1602.39 1388.89 1607.6 1388.89 Q1610.64 1388.89 1612.32 1390.45 Q1614.02 1391.98 1614.02 1394.35 Q1614.02 1395.66 1613.26 1396.23 Q1612.49 1396.8 1611.7 1396.8 Q1610.79 1396.8 1610.07 1396.18 Q1609.35 1395.56 1609.35 1394.45 Q1609.35 1392.18 1612.14 1392.18 Q1610.84 1390.15 1607.7 1390.15 Q1606.73 1390.15 1605.75 1390.45 Q1604.76 1390.72 1603.47 1391.66 Q1602.19 1392.6 1601.2 1394.08 Q1600.21 1395.56 1599.52 1398.35 Q1598.83 1401.15 1598.83 1404.78 L1598.83 1405.99 Q1600.9 1400.97 1605.15 1401 Q1609.4 1401 1612.34 1404.23 Q1615.28 1407.47 1615.28 1412.26 Q1615.28 1417.18 1612.22 1420.44 Q1609.16 1423.7 1604.86 1423.7 Q1602.93 1423.7 1601.18 1422.88 Q1599.45 1422.09 1597.82 1420.27 Q1596.21 1418.44 1595.25 1414.93 Q1594.28 1411.42 1594.28 1406.6 M1598.93 1411.15 Q1598.93 1416.12 1599.84 1418.49 Q1599.99 1418.88 1600.31 1419.43 Q1600.66 1419.97 1601.23 1420.69 Q1601.82 1421.38 1602.78 1421.85 Q1603.75 1422.29 1604.86 1422.29 Q1608.24 1422.29 1609.87 1419.01 Q1610.74 1417.18 1610.74 1412.21 Q1610.74 1407.15 1609.82 1405.3 Q1608.27 1402.16 1605.1 1402.16 Q1602.98 1402.16 1601.5 1403.62 Q1600.04 1405.07 1599.47 1407.02 Q1598.93 1408.98 1598.93 1411.15 Z" fill="#000000" fill-rule="nonzero" fill-opacity="1" /><path clip-path="url(#clip110)" d="M1975.36 1406.41 Q1975.36 1398.97 1977.24 1394.92 Q1979.85 1388.89 1986.03 1388.89 Q1987.34 1388.89 1988.7 1389.26 Q1990.08 1389.61 1991.81 1390.97 Q1993.56 1392.33 1994.63 1394.55 Q1996.65 1398.85 1996.65 1406.41 Q1996.65 1413.79 1994.77 1417.82 Q1992.03 1423.7 1985.98 1423.7 Q1983.71 1423.7 1981.39 1422.54 Q1979.09 1421.38 1977.63 1418.59 Q1975.36 1414.41 1975.36 1406.41 M1979.56 1405.79 Q1979.56 1413.42 1980.1 1416.46 Q1980.72 1419.75 1982.4 1421.18 Q1984.1 1422.59 1985.98 1422.59 Q1988.01 1422.59 1989.69 1421.08 Q1991.39 1419.55 1991.91 1416.26 Q1992.48 1413.03 1992.45 1405.79 Q1992.45 1398.75 1991.96 1395.93 Q1991.29 1392.65 1989.51 1391.34 Q1987.76 1390 1985.98 1390 Q1985.31 1390 1984.6 1390.2 Q1983.9 1390.4 1982.89 1390.97 Q1981.88 1391.54 1981.09 1392.94 Q1980.32 1394.35 1979.95 1396.48 Q1979.56 1399.22 1979.56 1405.79 Z" fill="#000000" fill-rule="nonzero" fill-opacity="1" /><path clip-path="url(#clip110)" d="M2003.74 1421.77 Q2002.98 1420.96 2002.98 1419.9 Q2002.98 1418.83 2003.74 1418.07 Q2004.51 1417.28 2005.67 1417.28 Q2006.78 1417.28 2007.52 1418.02 Q2008.29 1418.73 2008.29 1419.92 Q2008.29 1421.08 2007.47 1421.85 Q2006.68 1422.59 2005.67 1422.59 Q2004.51 1422.59 2003.74 1421.77 Z" fill="#000000" fill-rule="nonzero" fill-opacity="1" /><path clip-path="url(#clip110)" d="M2014.86 1414.95 Q2014.86 1409.3 2022.15 1405.64 Q2019.01 1403.52 2018.44 1402.9 Q2016.22 1400.43 2016.22 1397.34 Q2016.22 1393.81 2018.88 1391.36 Q2021.58 1388.89 2025.38 1388.89 Q2029.01 1388.89 2031.76 1390.99 Q2034.5 1393.09 2034.5 1396.43 Q2034.5 1401.12 2028.37 1404.28 Q2032.42 1406.8 2033.39 1407.86 Q2035.86 1410.61 2035.86 1414.09 Q2035.86 1418.14 2032.74 1420.93 Q2029.63 1423.7 2025.33 1423.7 Q2021.13 1423.7 2018 1421.25 Q2014.86 1418.81 2014.86 1414.95 M2017.38 1414.95 Q2017.38 1418.09 2019.72 1420.19 Q2022.1 1422.29 2025.38 1422.29 Q2028.57 1422.29 2030.94 1420.46 Q2033.34 1418.64 2033.34 1415.92 Q2033.34 1414.86 2032.97 1413.94 Q2032.62 1413.03 2031.9 1412.31 Q2031.21 1411.57 2030.77 1411.25 Q2030.35 1410.9 2029.53 1410.33 L2023.31 1406.41 Q2017.38 1409.69 2017.38 1414.95 M2018.44 1395.36 Q2018.44 1397.79 2020.98 1399.47 L2027.26 1403.52 Q2032.27 1400.58 2032.27 1396.43 Q2032.27 1393.73 2030.22 1391.96 Q2028.17 1390.15 2025.33 1390.15 Q2022.54 1390.15 2020.49 1391.63 Q2018.44 1393.09 2018.44 1395.36 Z" fill="#000000" fill-rule="nonzero" fill-opacity="1" /><path clip-path="url(#clip110)" d="M1264.59 1505.05 L1264.59 1502.91 Q1270.02 1502.91 1273.49 1498.73 Q1273.49 1498.73 1280.01 1490.45 L1273.11 1481.48 Q1270.67 1478.35 1269.58 1477.81 Q1268.53 1477.23 1264.93 1477.23 L1264.93 1475.06 Q1267.78 1475.26 1271.52 1475.26 Q1273.59 1475.26 1279.06 1475.06 L1279.06 1477.23 Q1276.61 1477.37 1276.61 1478.96 Q1276.61 1479.51 1277.22 1480.22 L1282.66 1487.25 L1286.97 1481.82 Q1288.03 1480.56 1288.03 1479.37 Q1288.03 1477.44 1285.99 1477.23 L1285.99 1475.06 Q1288.71 1475.26 1292.68 1475.26 Q1295.67 1475.26 1298.39 1475.06 L1298.39 1477.23 Q1293.09 1477.37 1290.1 1480.83 Q1288.77 1482.29 1283.71 1488.71 L1293.02 1500.74 Q1294.14 1502.2 1295.4 1502.57 Q1296.65 1502.91 1299.64 1502.91 L1299.64 1505.05 Q1296.52 1504.85 1292.95 1504.85 Q1291.69 1504.85 1285.44 1505.05 L1285.44 1502.91 Q1286.7 1502.84 1287.31 1502.3 Q1287.96 1501.72 1287.96 1501.15 Q1287.96 1500.87 1286.5 1498.87 L1281.2 1491.91 Q1275.9 1498.16 1275.22 1499.62 Q1274.95 1500.23 1274.95 1500.74 Q1274.95 1502.61 1276.95 1502.91 L1276.95 1505.05 Q1271.96 1504.85 1270.36 1504.85 Q1267.31 1504.85 1264.59 1505.05 Z" fill="#000000" fill-rule="nonzero" fill-opacity="1" /><polyline clip-path="url(#clip110)" style="stroke:#000000; stroke-linecap:round; stroke-linejoin:round; stroke-width:4; stroke-opacity:1; fill:none" points="274.467,1360.19 274.467,110.236 "/>
<polyline clip-path="url(#clip110)" style="stroke:#000000; stroke-linecap:round; stroke-linejoin:round; stroke-width:4; stroke-opacity:1; fill:none" points="2289.76,1360.19 2289.76,110.236 "/>
<polyline clip-path="url(#clip110)" style="stroke:#000000; stroke-linecap:round; stroke-linejoin:round; stroke-width:4; stroke-opacity:1; fill:none" points="274.467,1102.06 293.365,1102.06 "/>
<polyline clip-path="url(#clip110)" style="stroke:#000000; stroke-linecap:round; stroke-linejoin:round; stroke-width:4; stroke-opacity:1; fill:none" points="274.467,820.899 293.365,820.899 "/>
<polyline clip-path="url(#clip110)" style="stroke:#000000; stroke-linecap:round; stroke-linejoin:round; stroke-width:4; stroke-opacity:1; fill:none" points="274.467,539.734 293.365,539.734 "/>
<polyline clip-path="url(#clip110)" style="stroke:#000000; stroke-linecap:round; stroke-linejoin:round; stroke-width:4; stroke-opacity:1; fill:none" points="274.467,258.57 293.365,258.57 "/>
<polyline clip-path="url(#clip110)" style="stroke:#000000; stroke-linecap:round; stroke-linejoin:round; stroke-width:4; stroke-opacity:1; fill:none" points="2289.76,1102.06 2270.87,1102.06 "/>
<polyline clip-path="url(#clip110)" style="stroke:#000000; stroke-linecap:round; stroke-linejoin:round; stroke-width:4; stroke-opacity:1; fill:none" points="2289.76,820.899 2270.87,820.899 "/>
<polyline clip-path="url(#clip110)" style="stroke:#000000; stroke-linecap:round; stroke-linejoin:round; stroke-width:4; stroke-opacity:1; fill:none" points="2289.76,539.734 2270.87,539.734 "/>
<polyline clip-path="url(#clip110)" style="stroke:#000000; stroke-linecap:round; stroke-linejoin:round; stroke-width:4; stroke-opacity:1; fill:none" points="2289.76,258.57 2270.87,258.57 "/>
<path clip-path="url(#clip110)" d="M178.364 1103.16 Q178.364 1095.73 180.241 1091.68 Q182.86 1085.65 189.036 1085.65 Q190.345 1085.65 191.704 1086.02 Q193.087 1086.37 194.816 1087.72 Q196.57 1089.08 197.633 1091.31 Q199.658 1095.6 199.658 1103.16 Q199.658 1110.55 197.781 1114.58 Q195.039 1120.46 188.986 1120.46 Q186.714 1120.46 184.392 1119.29 Q182.094 1118.13 180.637 1115.34 Q178.364 1111.17 178.364 1103.16 M182.564 1102.55 Q182.564 1110.18 183.107 1113.22 Q183.725 1116.5 185.404 1117.94 Q187.109 1119.34 188.986 1119.34 Q191.012 1119.34 192.692 1117.84 Q194.396 1116.31 194.915 1113.02 Q195.483 1109.78 195.459 1102.55 Q195.459 1095.51 194.965 1092.69 Q194.298 1089.4 192.519 1088.09 Q190.765 1086.76 188.986 1086.76 Q188.319 1086.76 187.603 1086.96 Q186.911 1087.16 185.898 1087.72 Q184.886 1088.29 184.095 1089.7 Q183.329 1091.11 182.959 1093.23 Q182.564 1095.97 182.564 1102.55 Z" fill="#000000" fill-rule="nonzero" fill-opacity="1" /><path clip-path="url(#clip110)" d="M206.748 1118.53 Q205.982 1117.71 205.982 1116.65 Q205.982 1115.59 206.748 1114.82 Q207.514 1114.03 208.675 1114.03 Q209.787 1114.03 210.528 1114.77 Q211.294 1115.49 211.294 1116.68 Q211.294 1117.84 210.478 1118.6 Q209.688 1119.34 208.675 1119.34 Q207.514 1119.34 206.748 1118.53 Z" fill="#000000" fill-rule="nonzero" fill-opacity="1" /><path clip-path="url(#clip110)" d="M218.26 1119.34 Q218.26 1118.43 218.334 1118.16 Q218.433 1117.89 218.828 1117.47 L228.536 1106.65 Q233.848 1100.67 233.848 1095.46 Q233.848 1092.07 232.069 1089.65 Q230.315 1087.23 227.079 1087.23 Q224.856 1087.23 222.978 1088.59 Q221.101 1089.95 220.236 1092.37 Q220.384 1092.32 220.903 1092.32 Q222.163 1092.32 222.855 1093.11 Q223.571 1093.9 223.571 1094.96 Q223.571 1096.32 222.682 1096.99 Q221.817 1097.63 220.953 1097.63 Q220.607 1097.63 220.137 1097.56 Q219.693 1097.48 218.976 1096.79 Q218.26 1096.07 218.26 1094.81 Q218.26 1091.28 220.928 1088.46 Q223.62 1085.65 227.721 1085.65 Q232.365 1085.65 235.404 1088.42 Q238.467 1091.16 238.467 1095.46 Q238.467 1096.96 237.998 1098.35 Q237.553 1099.7 236.936 1100.77 Q236.343 1101.83 234.712 1103.53 Q233.082 1105.24 231.773 1106.45 Q230.463 1107.66 227.524 1110.23 L222.163 1115.44 L231.279 1115.44 Q235.725 1115.44 236.071 1115.05 Q236.565 1114.33 237.183 1110.55 L238.467 1110.55 L237.034 1119.34 L218.26 1119.34 Z" fill="#000000" fill-rule="nonzero" fill-opacity="1" /><path clip-path="url(#clip110)" d="M177.252 821.998 Q177.252 814.563 179.13 810.511 Q181.748 804.484 187.924 804.484 Q189.233 804.484 190.592 804.854 Q191.975 805.2 193.705 806.559 Q195.459 807.918 196.521 810.141 Q198.547 814.439 198.547 821.998 Q198.547 829.385 196.669 833.411 Q193.927 839.291 187.875 839.291 Q185.602 839.291 183.28 838.13 Q180.982 836.969 179.525 834.177 Q177.252 830.002 177.252 821.998 M181.452 821.381 Q181.452 829.014 181.995 832.053 Q182.613 835.338 184.293 836.771 Q185.997 838.179 187.875 838.179 Q189.9 838.179 191.58 836.672 Q193.285 835.141 193.804 831.855 Q194.372 828.619 194.347 821.381 Q194.347 814.34 193.853 811.524 Q193.186 808.239 191.407 806.929 Q189.653 805.595 187.875 805.595 Q187.208 805.595 186.491 805.793 Q185.8 805.991 184.787 806.559 Q183.774 807.127 182.983 808.535 Q182.218 809.943 181.847 812.068 Q181.452 814.81 181.452 821.381 Z" fill="#000000" fill-rule="nonzero" fill-opacity="1" /><path clip-path="url(#clip110)" d="M205.636 837.364 Q204.871 836.549 204.871 835.487 Q204.871 834.424 205.636 833.658 Q206.402 832.868 207.563 832.868 Q208.675 832.868 209.416 833.609 Q210.182 834.325 210.182 835.511 Q210.182 836.672 209.367 837.438 Q208.576 838.179 207.563 838.179 Q206.402 838.179 205.636 837.364 Z" fill="#000000" fill-rule="nonzero" fill-opacity="1" /><path clip-path="url(#clip110)" d="M216.037 829.829 L216.037 828.273 L231.575 804.533 Q231.97 803.916 232.588 803.94 Q233.156 803.94 233.28 804.163 Q233.403 804.385 233.403 805.25 L233.403 828.273 L238.467 828.273 L238.467 829.829 L233.403 829.829 L233.403 834.227 Q233.403 835.684 233.996 836.154 Q234.613 836.623 237.232 836.623 L238.294 836.623 L238.294 838.179 Q236.219 838.031 231.427 838.031 Q226.659 838.031 224.584 838.179 L224.584 836.623 L225.646 836.623 Q228.265 836.623 228.882 836.178 Q229.5 835.709 229.5 834.227 L229.5 829.829 L216.037 829.829 M217.469 828.273 L229.796 828.273 L229.796 809.4 L217.469 828.273 Z" fill="#000000" fill-rule="nonzero" fill-opacity="1" /><path clip-path="url(#clip110)" d="M177.969 540.834 Q177.969 533.398 179.846 529.347 Q182.465 523.319 188.641 523.319 Q189.95 523.319 191.308 523.69 Q192.692 524.035 194.421 525.394 Q196.175 526.753 197.237 528.976 Q199.263 533.274 199.263 540.834 Q199.263 548.22 197.386 552.247 Q194.643 558.126 188.591 558.126 Q186.318 558.126 183.996 556.965 Q181.699 555.804 180.241 553.012 Q177.969 548.838 177.969 540.834 M182.168 540.216 Q182.168 547.849 182.712 550.888 Q183.329 554.173 185.009 555.606 Q186.714 557.014 188.591 557.014 Q190.617 557.014 192.297 555.507 Q194.001 553.976 194.52 550.69 Q195.088 547.454 195.063 540.216 Q195.063 533.176 194.569 530.359 Q193.902 527.074 192.124 525.765 Q190.37 524.431 188.591 524.431 Q187.924 524.431 187.208 524.628 Q186.516 524.826 185.503 525.394 Q184.49 525.962 183.7 527.37 Q182.934 528.778 182.564 530.903 Q182.168 533.645 182.168 540.216 Z" fill="#000000" fill-rule="nonzero" fill-opacity="1" /><path clip-path="url(#clip110)" d="M206.353 556.199 Q205.587 555.384 205.587 554.322 Q205.587 553.259 206.353 552.494 Q207.119 551.703 208.28 551.703 Q209.391 551.703 210.132 552.444 Q210.898 553.161 210.898 554.346 Q210.898 555.507 210.083 556.273 Q209.293 557.014 208.28 557.014 Q207.119 557.014 206.353 556.199 Z" fill="#000000" fill-rule="nonzero" fill-opacity="1" /><path clip-path="url(#clip110)" d="M217.469 541.031 Q217.469 533.077 221.521 528.21 Q225.572 523.319 230.784 523.319 Q233.823 523.319 235.503 524.875 Q237.207 526.407 237.207 528.778 Q237.207 530.088 236.442 530.656 Q235.676 531.224 234.885 531.224 Q233.971 531.224 233.255 530.606 Q232.538 529.989 232.538 528.877 Q232.538 526.605 235.33 526.605 Q234.021 524.579 230.883 524.579 Q229.92 524.579 228.932 524.875 Q227.944 525.147 226.659 526.086 Q225.374 527.025 224.386 528.507 Q223.398 529.989 222.706 532.78 Q222.015 535.572 222.015 539.203 L222.015 540.414 Q224.09 535.399 228.339 535.424 Q232.588 535.424 235.528 538.66 Q238.467 541.896 238.467 546.688 Q238.467 551.604 235.404 554.865 Q232.341 558.126 228.042 558.126 Q226.116 558.126 224.362 557.311 Q222.632 556.52 221.002 554.692 Q219.396 552.864 218.433 549.356 Q217.469 545.848 217.469 541.031 M222.114 545.577 Q222.114 550.542 223.028 552.914 Q223.176 553.309 223.497 553.852 Q223.843 554.396 224.411 555.112 Q225.004 555.804 225.967 556.273 Q226.931 556.718 228.042 556.718 Q231.427 556.718 233.057 553.432 Q233.922 551.604 233.922 546.639 Q233.922 541.575 233.008 539.722 Q231.451 536.585 228.289 536.585 Q226.165 536.585 224.683 538.042 Q223.225 539.5 222.657 541.451 Q222.114 543.403 222.114 545.577 Z" fill="#000000" fill-rule="nonzero" fill-opacity="1" /><path clip-path="url(#clip110)" d="M177.969 259.669 Q177.969 252.233 179.846 248.182 Q182.465 242.154 188.641 242.154 Q189.95 242.154 191.308 242.525 Q192.692 242.871 194.421 244.229 Q196.175 245.588 197.237 247.811 Q199.263 252.11 199.263 259.669 Q199.263 267.055 197.386 271.082 Q194.643 276.961 188.591 276.961 Q186.318 276.961 183.996 275.8 Q181.699 274.639 180.241 271.848 Q177.969 267.673 177.969 259.669 M182.168 259.051 Q182.168 266.685 182.712 269.723 Q183.329 273.009 185.009 274.441 Q186.714 275.85 188.591 275.85 Q190.617 275.85 192.297 274.343 Q194.001 272.811 194.52 269.526 Q195.088 266.289 195.063 259.051 Q195.063 252.011 194.569 249.195 Q193.902 245.909 192.124 244.6 Q190.37 243.266 188.591 243.266 Q187.924 243.266 187.208 243.463 Q186.516 243.661 185.503 244.229 Q184.49 244.797 183.7 246.206 Q182.934 247.614 182.564 249.738 Q182.168 252.48 182.168 259.051 Z" fill="#000000" fill-rule="nonzero" fill-opacity="1" /><path clip-path="url(#clip110)" d="M206.353 275.034 Q205.587 274.219 205.587 273.157 Q205.587 272.095 206.353 271.329 Q207.119 270.538 208.28 270.538 Q209.391 270.538 210.132 271.279 Q210.898 271.996 210.898 273.182 Q210.898 274.343 210.083 275.108 Q209.293 275.85 208.28 275.85 Q207.119 275.85 206.353 275.034 Z" fill="#000000" fill-rule="nonzero" fill-opacity="1" /><path clip-path="url(#clip110)" d="M217.469 268.216 Q217.469 262.559 224.757 258.903 Q221.62 256.779 221.051 256.161 Q218.828 253.691 218.828 250.603 Q218.828 247.07 221.496 244.625 Q224.189 242.154 227.993 242.154 Q231.624 242.154 234.366 244.254 Q237.109 246.354 237.109 249.689 Q237.109 254.382 230.982 257.544 Q235.033 260.064 235.997 261.126 Q238.467 263.868 238.467 267.352 Q238.467 271.403 235.355 274.194 Q232.242 276.961 227.944 276.961 Q223.744 276.961 220.607 274.516 Q217.469 272.07 217.469 268.216 M219.989 268.216 Q219.989 271.354 222.336 273.453 Q224.707 275.553 227.993 275.553 Q231.18 275.553 233.551 273.725 Q235.947 271.897 235.947 269.18 Q235.947 268.117 235.577 267.203 Q235.231 266.289 234.515 265.573 Q233.823 264.832 233.378 264.511 Q232.958 264.165 232.143 263.597 L225.918 259.669 Q219.989 262.954 219.989 268.216 M221.051 248.626 Q221.051 251.047 223.596 252.727 L229.87 256.779 Q234.885 253.839 234.885 249.689 Q234.885 246.996 232.835 245.217 Q230.784 243.414 227.944 243.414 Q225.152 243.414 223.102 244.896 Q221.051 246.354 221.051 248.626 Z" fill="#000000" fill-rule="nonzero" fill-opacity="1" /><path clip-path="url(#clip110)" d="M135.624 752.213 Q134.163 752.213 133.382 751.363 Q132.635 750.48 132.635 749.291 Q132.635 748.035 133.416 747.219 Q134.231 746.37 135.556 746.37 Q138.137 746.37 138.477 749.088 Q139.734 747.763 139.734 745.827 Q139.734 743.755 138.205 742.09 Q136.677 740.392 135.216 739.679 Q133.756 738.931 131.106 737.878 Q129.034 736.893 126.996 736.146 L101.589 746.574 Q99.9245 747.253 99.5509 748.306 Q99.1772 749.359 99.1772 752.213 L97.0033 752.213 Q97.2071 749.088 97.2071 745.453 Q97.2071 743.313 97.0033 737.878 L99.1772 737.878 Q99.1772 741.785 100.977 741.785 Q101.181 741.785 102.234 741.377 L120.95 733.632 L103.831 726.601 Q102.846 726.194 102.166 726.194 Q99.3131 726.194 99.1772 729.455 L97.0033 729.455 Q97.2071 724.869 97.2071 723.408 Q97.2071 720.555 97.0033 718.211 L99.1772 718.211 Q99.1772 722.865 103.627 724.665 L133.314 736.927 Q141.229 740.256 141.262 745.827 Q141.262 748.476 139.632 750.344 Q138.002 752.213 135.624 752.213 Z" fill="#000000" fill-rule="nonzero" fill-opacity="1" /><polyline clip-path="url(#clip112)" style="stroke:#009af9; stroke-linecap:round; stroke-linejoin:round; stroke-width:8; stroke-opacity:1; fill:none" points="331.504,1324.81 341.004,1162.2 581.002,1144.97 590.036,1130.04 604.195,1006.49 744.432,556.88 1034.41,442.68 1673.34,399.216 1700.08,304.705 2232.73,145.612 "/>
<path clip-path="url(#clip110)" d="M1650.56 987.402 L1650.56 985.067 Q1653.31 985.067 1655.05 984.548 Q1656.79 983.993 1657.42 982.992 Q1658.09 981.955 1658.23 981.288 Q1658.38 980.583 1658.38 979.435 L1658.38 941.49 Q1658.38 939.304 1657.42 938.637 Q1656.49 937.933 1652.38 937.933 L1650.56 937.933 L1650.56 935.562 L1663.39 935.562 Q1664.76 935.562 1665.13 935.821 Q1665.5 936.043 1666.05 937.229 L1682.51 979.731 L1699.11 937.007 Q1699.48 935.932 1699.81 935.747 Q1700.18 935.562 1701.63 935.562 L1714.45 935.562 L1714.45 937.933 L1712.63 937.933 Q1708.52 937.933 1707.55 938.637 Q1706.63 939.304 1706.63 941.49 L1706.63 981.473 Q1706.63 983.659 1707.55 984.363 Q1708.52 985.067 1712.63 985.067 L1714.45 985.067 L1714.45 987.402 Q1711.63 987.179 1703.59 987.179 Q1695.47 987.179 1692.66 987.402 L1692.66 985.067 L1694.51 985.067 Q1698.62 985.067 1699.55 984.4 Q1700.48 983.696 1700.48 981.473 L1700.48 937.933 L1700.4 937.933 L1681.76 985.956 Q1681.25 987.402 1680.39 987.402 Q1679.47 987.402 1678.87 985.734 L1660.57 938.526 L1660.49 938.526 L1660.49 979.435 Q1660.49 980.583 1660.64 981.288 Q1660.79 981.955 1661.42 982.992 Q1662.09 983.993 1663.83 984.548 Q1665.57 985.067 1668.31 985.067 L1668.31 987.402 Q1660.35 987.179 1659.42 987.179 Q1658.53 987.179 1650.56 987.402 Z" fill="#000000" fill-rule="nonzero" fill-opacity="1" /><path clip-path="url(#clip110)" d="M1718.67 996.814 Q1718.67 995.22 1719.6 994.368 Q1720.56 993.553 1721.86 993.553 Q1723.23 993.553 1724.12 994.405 Q1725.04 995.294 1725.04 996.739 Q1725.04 999.556 1722.08 999.926 Q1723.53 1001.3 1725.64 1001.3 Q1727.9 1001.3 1729.71 999.63 Q1731.57 997.962 1732.34 996.369 Q1733.16 994.776 1734.31 991.885 Q1735.38 989.625 1736.2 987.402 L1724.82 959.684 Q1724.08 957.869 1722.93 957.461 Q1721.78 957.054 1718.67 957.054 L1718.67 954.682 Q1722.08 954.904 1726.05 954.904 Q1728.38 954.904 1734.31 954.682 L1734.31 957.054 Q1730.05 957.054 1730.05 959.017 Q1730.05 959.24 1730.49 960.388 L1738.94 980.806 L1746.61 962.13 Q1747.06 961.055 1747.06 960.314 Q1747.06 957.202 1743.5 957.054 L1743.5 954.682 Q1748.5 954.904 1750.09 954.904 Q1753.21 954.904 1755.76 954.682 L1755.76 957.054 Q1750.69 957.054 1748.72 961.908 L1735.35 994.294 Q1731.71 1002.93 1725.64 1002.96 Q1722.75 1002.96 1720.71 1001.19 Q1718.67 999.407 1718.67 996.814 Z" fill="#000000" fill-rule="nonzero" fill-opacity="1" /><path clip-path="url(#clip110)" d="M1784.89 987.402 L1784.89 985.067 Q1788.93 985.067 1789.85 984.585 Q1790.78 984.067 1790.78 981.621 L1790.78 961.278 Q1790.78 958.462 1789.78 957.758 Q1788.82 957.054 1784.89 957.054 L1784.89 954.682 L1795.56 953.867 L1795.56 961.834 Q1799.12 953.867 1806.79 953.867 Q1812.49 953.867 1814.76 956.683 Q1816.42 958.573 1816.76 960.685 Q1817.13 962.797 1817.13 968.281 L1817.13 982.77 Q1817.2 984.363 1818.42 984.734 Q1819.65 985.067 1823.06 985.067 L1823.06 987.402 Q1815.31 987.179 1814.53 987.179 Q1813.94 987.179 1805.97 987.402 L1805.97 985.067 Q1810.01 985.067 1810.94 984.585 Q1811.9 984.067 1811.9 981.621 L1811.9 963.946 Q1811.9 960.092 1810.72 957.832 Q1809.53 955.534 1806.27 955.534 Q1802.34 955.534 1799.19 958.832 Q1796.04 962.13 1796.04 967.688 L1796.04 981.621 Q1796.04 984.067 1796.97 984.585 Q1797.93 985.067 1801.93 985.067 L1801.93 987.402 Q1794.19 987.179 1793.45 987.179 Q1792.86 987.179 1784.89 987.402 Z" fill="#000000" fill-rule="nonzero" fill-opacity="1" /><path clip-path="url(#clip110)" d="M1831.65 983.326 Q1826.65 978.36 1826.65 971.171 Q1826.65 963.946 1831.54 958.684 Q1836.47 953.385 1843.51 953.385 Q1850.4 953.385 1855.33 958.647 Q1860.3 963.872 1860.3 971.171 Q1860.3 978.323 1855.29 983.288 Q1850.33 988.254 1843.44 988.254 Q1836.69 988.254 1831.65 983.326 M1832.95 970.542 Q1832.95 977.916 1834.88 981.25 Q1837.84 986.327 1843.51 986.327 Q1846.33 986.327 1848.66 984.808 Q1851.03 983.288 1852.33 980.732 Q1854 977.397 1854 970.542 Q1854 963.242 1852 960.018 Q1849.03 955.09 1843.44 955.09 Q1840.99 955.09 1838.58 956.387 Q1836.21 957.646 1834.76 960.166 Q1832.95 963.501 1832.95 970.542 Z" fill="#000000" fill-rule="nonzero" fill-opacity="1" /><path clip-path="url(#clip110)" d="M1863.93 957.054 L1863.93 955.386 Q1867.41 955.238 1869.71 952.792 Q1872.04 950.31 1872.82 947.271 Q1873.64 944.232 1873.71 940.712 L1875.6 940.712 L1875.6 954.682 L1886.46 954.682 L1886.46 957.054 L1875.6 957.054 L1875.6 978.138 Q1875.6 986.327 1880.71 986.327 Q1882.9 986.327 1884.34 984.104 Q1885.79 981.843 1885.79 977.841 L1885.79 973.654 L1887.68 973.654 L1887.68 977.99 Q1887.68 982.103 1885.79 985.178 Q1883.9 988.254 1880.16 988.254 Q1878.79 988.254 1877.42 987.883 Q1876.08 987.55 1874.3 986.661 Q1872.56 985.734 1871.45 983.511 Q1870.37 981.25 1870.37 977.99 L1870.37 957.054 L1863.93 957.054 Z" fill="#000000" fill-rule="nonzero" fill-opacity="1" /><path clip-path="url(#clip110)" d="M1894.02 970.69 Q1894.02 963.538 1898.61 958.462 Q1903.21 953.385 1909.8 953.385 Q1916.47 953.385 1919.92 957.721 Q1923.4 962.056 1923.4 968.281 Q1923.4 969.43 1923.1 969.652 Q1922.81 969.875 1921.51 969.875 L1900.32 969.875 Q1900.32 977.619 1902.61 981.25 Q1905.8 986.327 1911.17 986.327 Q1911.91 986.327 1912.8 986.179 Q1913.69 986.031 1915.51 985.401 Q1917.32 984.734 1918.92 982.992 Q1920.51 981.25 1921.44 978.508 Q1921.66 977.434 1922.4 977.471 Q1923.4 977.471 1923.4 978.36 Q1923.4 979.027 1922.66 980.546 Q1921.96 982.029 1920.58 983.807 Q1919.21 985.586 1916.55 986.92 Q1913.91 988.254 1910.73 988.254 Q1904.06 988.254 1899.02 983.214 Q1894.02 978.138 1894.02 970.69 M1900.39 968.281 L1918.4 968.281 Q1918.4 966.688 1918.1 964.909 Q1917.84 963.131 1917.03 960.685 Q1916.25 958.202 1914.4 956.646 Q1912.54 955.09 1909.8 955.09 Q1908.58 955.09 1907.24 955.608 Q1905.95 956.127 1904.35 957.387 Q1902.76 958.647 1901.65 961.5 Q1900.54 964.353 1900.39 968.281 Z" fill="#000000" fill-rule="nonzero" fill-opacity="1" /><path clip-path="url(#clip110)" d="M1932.03 983.363 Q1932.03 981.621 1933.26 980.509 Q1934.48 979.361 1936.07 979.361 Q1937.67 979.361 1938.82 980.509 Q1940 981.621 1940 983.363 Q1940 985.03 1938.78 986.179 Q1937.59 987.327 1936.07 987.327 Q1934.33 987.327 1933.18 986.142 Q1932.03 984.956 1932.03 983.363 M1932.03 937.007 Q1932.03 935.191 1933.26 934.154 Q1934.48 933.079 1936.07 933.079 Q1937.67 933.079 1938.85 934.154 Q1940.08 935.191 1940.08 937.007 Q1940.08 937.155 1940.04 937.451 Q1940 937.711 1940 937.859 L1937.11 971.394 Q1936.96 973.135 1936 973.135 Q1935.15 973.135 1935 971.097 L1932.11 938.081 Q1932.11 937.933 1932.07 937.563 Q1932.03 937.155 1932.03 937.007 Z" fill="#000000" fill-rule="nonzero" fill-opacity="1" /></svg>
