<?xml version="1.0" encoding="utf-8"?>
<svg xmlns="http://www.w3.org/2000/svg" xmlns:xlink="http://www.w3.org/1999/xlink" width="600" height="400" viewBox="0 0 2400 1600">
<defs>
  <clipPath id="clip050">
    <rect x="0" y="0" width="2400" height="1600"/>
  </clipPath>
</defs>
<path clip-path="url(#clip050)" d="M0 1600 L2400 1600 L2400 0 L0 0  Z" fill="#ffffff" fill-rule="evenodd" fill-opacity="1"/>
<defs>
  <clipPath id="clip051">
    <rect x="480" y="0" width="1681" height="1600"/>
  </clipPath>
</defs>
<path clip-path="url(#clip050)" d="M186.274 1486.45 L2352.76 1486.45 L2352.76 47.2441 L186.274 47.2441  Z" fill="#ffffff" fill-rule="evenodd" fill-opacity="1"/>
<defs>
  <clipPath id="clip052">
    <rect x="186" y="47" width="2167" height="1440"/>
  </clipPath>
</defs>
<polyline clip-path="url(#clip052)" style="stroke:#000000; stroke-linecap:round; stroke-linejoin:round; stroke-width:2; stroke-opacity:0.1; fill:none" points="451.91,1486.45 451.91,47.2441 "/>
<polyline clip-path="url(#clip052)" style="stroke:#000000; stroke-linecap:round; stroke-linejoin:round; stroke-width:2; stroke-opacity:0.1; fill:none" points="922.932,1486.45 922.932,47.2441 "/>
<polyline clip-path="url(#clip052)" style="stroke:#000000; stroke-linecap:round; stroke-linejoin:round; stroke-width:2; stroke-opacity:0.1; fill:none" points="1393.95,1486.45 1393.95,47.2441 "/>
<polyline clip-path="url(#clip052)" style="stroke:#000000; stroke-linecap:round; stroke-linejoin:round; stroke-width:2; stroke-opacity:0.1; fill:none" points="1864.98,1486.45 1864.98,47.2441 "/>
<polyline clip-path="url(#clip052)" style="stroke:#000000; stroke-linecap:round; stroke-linejoin:round; stroke-width:2; stroke-opacity:0.1; fill:none" points="2336,1486.45 2336,47.2441 "/>
<polyline clip-path="url(#clip050)" style="stroke:#000000; stroke-linecap:round; stroke-linejoin:round; stroke-width:4; stroke-opacity:1; fill:none" points="186.274,1486.45 2352.76,1486.45 "/>
<polyline clip-path="url(#clip050)" style="stroke:#000000; stroke-linecap:round; stroke-linejoin:round; stroke-width:4; stroke-opacity:1; fill:none" points="451.91,1486.45 451.91,1467.55 "/>
<polyline clip-path="url(#clip050)" style="stroke:#000000; stroke-linecap:round; stroke-linejoin:round; stroke-width:4; stroke-opacity:1; fill:none" points="922.932,1486.45 922.932,1467.55 "/>
<polyline clip-path="url(#clip050)" style="stroke:#000000; stroke-linecap:round; stroke-linejoin:round; stroke-width:4; stroke-opacity:1; fill:none" points="1393.95,1486.45 1393.95,1467.55 "/>
<polyline clip-path="url(#clip050)" style="stroke:#000000; stroke-linecap:round; stroke-linejoin:round; stroke-width:4; stroke-opacity:1; fill:none" points="1864.98,1486.45 1864.98,1467.55 "/>
<polyline clip-path="url(#clip050)" style="stroke:#000000; stroke-linecap:round; stroke-linejoin:round; stroke-width:4; stroke-opacity:1; fill:none" points="2336,1486.45 2336,1467.55 "/>
<path clip-path="url(#clip050)" d="M430.093 1517.37 Q426.482 1517.37 424.654 1520.93 Q422.848 1524.47 422.848 1531.6 Q422.848 1538.71 424.654 1542.27 Q426.482 1545.82 430.093 1545.82 Q433.728 1545.82 435.533 1542.27 Q437.362 1538.71 437.362 1531.6 Q437.362 1524.47 435.533 1520.93 Q433.728 1517.37 430.093 1517.37 M430.093 1513.66 Q435.903 1513.66 438.959 1518.27 Q442.038 1522.85 442.038 1531.6 Q442.038 1540.33 438.959 1544.94 Q435.903 1549.52 430.093 1549.52 Q424.283 1549.52 421.204 1544.94 Q418.149 1540.33 418.149 1531.6 Q418.149 1522.85 421.204 1518.27 Q424.283 1513.66 430.093 1513.66 Z" fill="#000000" fill-rule="nonzero" fill-opacity="1" /><path clip-path="url(#clip050)" d="M450.255 1542.97 L455.139 1542.97 L455.139 1548.85 L450.255 1548.85 L450.255 1542.97 Z" fill="#000000" fill-rule="nonzero" fill-opacity="1" /><path clip-path="url(#clip050)" d="M469.352 1544.91 L485.672 1544.91 L485.672 1548.85 L463.727 1548.85 L463.727 1544.91 Q466.389 1542.16 470.973 1537.53 Q475.579 1532.88 476.76 1531.53 Q479.005 1529.01 479.885 1527.27 Q480.787 1525.51 480.787 1523.82 Q480.787 1521.07 478.843 1519.33 Q476.922 1517.6 473.82 1517.6 Q471.621 1517.6 469.167 1518.36 Q466.737 1519.13 463.959 1520.68 L463.959 1515.95 Q466.783 1514.82 469.237 1514.24 Q471.69 1513.66 473.727 1513.66 Q479.098 1513.66 482.292 1516.35 Q485.487 1519.03 485.487 1523.52 Q485.487 1525.65 484.676 1527.57 Q483.889 1529.47 481.783 1532.07 Q481.204 1532.74 478.102 1535.95 Q475 1539.15 469.352 1544.91 Z" fill="#000000" fill-rule="nonzero" fill-opacity="1" /><path clip-path="url(#clip050)" d="M900.073 1517.37 Q896.462 1517.37 894.633 1520.93 Q892.828 1524.47 892.828 1531.6 Q892.828 1538.71 894.633 1542.27 Q896.462 1545.82 900.073 1545.82 Q903.708 1545.82 905.513 1542.27 Q907.342 1538.71 907.342 1531.6 Q907.342 1524.47 905.513 1520.93 Q903.708 1517.37 900.073 1517.37 M900.073 1513.66 Q905.883 1513.66 908.939 1518.27 Q912.018 1522.85 912.018 1531.6 Q912.018 1540.33 908.939 1544.94 Q905.883 1549.52 900.073 1549.52 Q894.263 1549.52 891.184 1544.94 Q888.129 1540.33 888.129 1531.6 Q888.129 1522.85 891.184 1518.27 Q894.263 1513.66 900.073 1513.66 Z" fill="#000000" fill-rule="nonzero" fill-opacity="1" /><path clip-path="url(#clip050)" d="M920.235 1542.97 L925.119 1542.97 L925.119 1548.85 L920.235 1548.85 L920.235 1542.97 Z" fill="#000000" fill-rule="nonzero" fill-opacity="1" /><path clip-path="url(#clip050)" d="M948.152 1518.36 L936.346 1536.81 L948.152 1536.81 L948.152 1518.36 M946.925 1514.29 L952.804 1514.29 L952.804 1536.81 L957.735 1536.81 L957.735 1540.7 L952.804 1540.7 L952.804 1548.85 L948.152 1548.85 L948.152 1540.7 L932.55 1540.7 L932.55 1536.19 L946.925 1514.29 Z" fill="#000000" fill-rule="nonzero" fill-opacity="1" /><path clip-path="url(#clip050)" d="M1371.26 1517.37 Q1367.65 1517.37 1365.82 1520.93 Q1364.01 1524.47 1364.01 1531.6 Q1364.01 1538.71 1365.82 1542.27 Q1367.65 1545.82 1371.26 1545.82 Q1374.89 1545.82 1376.7 1542.27 Q1378.53 1538.71 1378.53 1531.6 Q1378.53 1524.47 1376.7 1520.93 Q1374.89 1517.37 1371.26 1517.37 M1371.26 1513.66 Q1377.07 1513.66 1380.12 1518.27 Q1383.2 1522.85 1383.2 1531.6 Q1383.2 1540.33 1380.12 1544.94 Q1377.07 1549.52 1371.26 1549.52 Q1365.45 1549.52 1362.37 1544.94 Q1359.31 1540.33 1359.31 1531.6 Q1359.31 1522.85 1362.37 1518.27 Q1365.45 1513.66 1371.26 1513.66 Z" fill="#000000" fill-rule="nonzero" fill-opacity="1" /><path clip-path="url(#clip050)" d="M1391.42 1542.97 L1396.3 1542.97 L1396.3 1548.85 L1391.42 1548.85 L1391.42 1542.97 Z" fill="#000000" fill-rule="nonzero" fill-opacity="1" /><path clip-path="url(#clip050)" d="M1417.07 1529.7 Q1413.92 1529.7 1412.07 1531.86 Q1410.24 1534.01 1410.24 1537.76 Q1410.24 1541.49 1412.07 1543.66 Q1413.92 1545.82 1417.07 1545.82 Q1420.22 1545.82 1422.04 1543.66 Q1423.9 1541.49 1423.9 1537.76 Q1423.9 1534.01 1422.04 1531.86 Q1420.22 1529.7 1417.07 1529.7 M1426.35 1515.05 L1426.35 1519.31 Q1424.59 1518.48 1422.78 1518.04 Q1421 1517.6 1419.24 1517.6 Q1414.61 1517.6 1412.16 1520.72 Q1409.73 1523.85 1409.38 1530.17 Q1410.75 1528.15 1412.81 1527.09 Q1414.87 1526 1417.34 1526 Q1422.55 1526 1425.56 1529.17 Q1428.59 1532.32 1428.59 1537.76 Q1428.59 1543.08 1425.45 1546.3 Q1422.3 1549.52 1417.07 1549.52 Q1411.07 1549.52 1407.9 1544.94 Q1404.73 1540.33 1404.73 1531.6 Q1404.73 1523.41 1408.62 1518.55 Q1412.51 1513.66 1419.06 1513.66 Q1420.82 1513.66 1422.6 1514.01 Q1424.4 1514.36 1426.35 1515.05 Z" fill="#000000" fill-rule="nonzero" fill-opacity="1" /><path clip-path="url(#clip050)" d="M1842.41 1517.37 Q1838.79 1517.37 1836.97 1520.93 Q1835.16 1524.47 1835.16 1531.6 Q1835.16 1538.71 1836.97 1542.27 Q1838.79 1545.82 1842.41 1545.82 Q1846.04 1545.82 1847.85 1542.27 Q1849.67 1538.71 1849.67 1531.6 Q1849.67 1524.47 1847.85 1520.93 Q1846.04 1517.37 1842.41 1517.37 M1842.41 1513.66 Q1848.22 1513.66 1851.27 1518.27 Q1854.35 1522.85 1854.35 1531.6 Q1854.35 1540.33 1851.27 1544.94 Q1848.22 1549.52 1842.41 1549.52 Q1836.6 1549.52 1833.52 1544.94 Q1830.46 1540.33 1830.46 1531.6 Q1830.46 1522.85 1833.52 1518.27 Q1836.6 1513.66 1842.41 1513.66 Z" fill="#000000" fill-rule="nonzero" fill-opacity="1" /><path clip-path="url(#clip050)" d="M1862.57 1542.97 L1867.45 1542.97 L1867.45 1548.85 L1862.57 1548.85 L1862.57 1542.97 Z" fill="#000000" fill-rule="nonzero" fill-opacity="1" /><path clip-path="url(#clip050)" d="M1887.64 1532.44 Q1884.3 1532.44 1882.38 1534.22 Q1880.48 1536 1880.48 1539.13 Q1880.48 1542.25 1882.38 1544.03 Q1884.3 1545.82 1887.64 1545.82 Q1890.97 1545.82 1892.89 1544.03 Q1894.81 1542.23 1894.81 1539.13 Q1894.81 1536 1892.89 1534.22 Q1890.99 1532.44 1887.64 1532.44 M1882.96 1530.45 Q1879.95 1529.7 1878.26 1527.64 Q1876.6 1525.58 1876.6 1522.62 Q1876.6 1518.48 1879.54 1516.07 Q1882.5 1513.66 1887.64 1513.66 Q1892.8 1513.66 1895.74 1516.07 Q1898.68 1518.48 1898.68 1522.62 Q1898.68 1525.58 1896.99 1527.64 Q1895.32 1529.7 1892.34 1530.45 Q1895.72 1531.23 1897.59 1533.52 Q1899.49 1535.82 1899.49 1539.13 Q1899.49 1544.15 1896.41 1546.83 Q1893.35 1549.52 1887.64 1549.52 Q1881.92 1549.52 1878.84 1546.83 Q1875.79 1544.15 1875.79 1539.13 Q1875.79 1535.82 1877.68 1533.52 Q1879.58 1531.23 1882.96 1530.45 M1881.25 1523.06 Q1881.25 1525.75 1882.91 1527.25 Q1884.6 1528.76 1887.64 1528.76 Q1890.65 1528.76 1892.34 1527.25 Q1894.05 1525.75 1894.05 1523.06 Q1894.05 1520.38 1892.34 1518.87 Q1890.65 1517.37 1887.64 1517.37 Q1884.6 1517.37 1882.91 1518.87 Q1881.25 1520.38 1881.25 1523.06 Z" fill="#000000" fill-rule="nonzero" fill-opacity="1" /><path clip-path="url(#clip050)" d="M2303.15 1544.91 L2310.79 1544.91 L2310.79 1518.55 L2302.48 1520.21 L2302.48 1515.95 L2310.74 1514.29 L2315.42 1514.29 L2315.42 1544.91 L2323.06 1544.91 L2323.06 1548.85 L2303.15 1548.85 L2303.15 1544.91 Z" fill="#000000" fill-rule="nonzero" fill-opacity="1" /><path clip-path="url(#clip050)" d="M2332.5 1542.97 L2337.39 1542.97 L2337.39 1548.85 L2332.5 1548.85 L2332.5 1542.97 Z" fill="#000000" fill-rule="nonzero" fill-opacity="1" /><path clip-path="url(#clip050)" d="M2357.57 1517.37 Q2353.96 1517.37 2352.13 1520.93 Q2350.33 1524.47 2350.33 1531.6 Q2350.33 1538.71 2352.13 1542.27 Q2353.96 1545.82 2357.57 1545.82 Q2361.21 1545.82 2363.01 1542.27 Q2364.84 1538.71 2364.84 1531.6 Q2364.84 1524.47 2363.01 1520.93 Q2361.21 1517.37 2357.57 1517.37 M2357.57 1513.66 Q2363.38 1513.66 2366.44 1518.27 Q2369.52 1522.85 2369.52 1531.6 Q2369.52 1540.33 2366.44 1544.94 Q2363.38 1549.52 2357.57 1549.52 Q2351.76 1549.52 2348.68 1544.94 Q2345.63 1540.33 2345.63 1531.6 Q2345.63 1522.85 2348.68 1518.27 Q2351.76 1513.66 2357.57 1513.66 Z" fill="#000000" fill-rule="nonzero" fill-opacity="1" /><polyline clip-path="url(#clip052)" style="stroke:#000000; stroke-linecap:round; stroke-linejoin:round; stroke-width:2; stroke-opacity:0.1; fill:none" points="186.274,1478.86 2352.76,1478.86 "/>
<polyline clip-path="url(#clip052)" style="stroke:#000000; stroke-linecap:round; stroke-linejoin:round; stroke-width:2; stroke-opacity:0.1; fill:none" points="186.274,1126.71 2352.76,1126.71 "/>
<polyline clip-path="url(#clip052)" style="stroke:#000000; stroke-linecap:round; stroke-linejoin:round; stroke-width:2; stroke-opacity:0.1; fill:none" points="186.274,774.57 2352.76,774.57 "/>
<polyline clip-path="url(#clip052)" style="stroke:#000000; stroke-linecap:round; stroke-linejoin:round; stroke-width:2; stroke-opacity:0.1; fill:none" points="186.274,422.427 2352.76,422.427 "/>
<polyline clip-path="url(#clip052)" style="stroke:#000000; stroke-linecap:round; stroke-linejoin:round; stroke-width:2; stroke-opacity:0.1; fill:none" points="186.274,70.2828 2352.76,70.2828 "/>
<polyline clip-path="url(#clip050)" style="stroke:#000000; stroke-linecap:round; stroke-linejoin:round; stroke-width:4; stroke-opacity:1; fill:none" points="186.274,1486.45 186.274,47.2441 "/>
<polyline clip-path="url(#clip050)" style="stroke:#000000; stroke-linecap:round; stroke-linejoin:round; stroke-width:4; stroke-opacity:1; fill:none" points="186.274,1478.86 205.172,1478.86 "/>
<polyline clip-path="url(#clip050)" style="stroke:#000000; stroke-linecap:round; stroke-linejoin:round; stroke-width:4; stroke-opacity:1; fill:none" points="186.274,1126.71 205.172,1126.71 "/>
<polyline clip-path="url(#clip050)" style="stroke:#000000; stroke-linecap:round; stroke-linejoin:round; stroke-width:4; stroke-opacity:1; fill:none" points="186.274,774.57 205.172,774.57 "/>
<polyline clip-path="url(#clip050)" style="stroke:#000000; stroke-linecap:round; stroke-linejoin:round; stroke-width:4; stroke-opacity:1; fill:none" points="186.274,422.427 205.172,422.427 "/>
<polyline clip-path="url(#clip050)" style="stroke:#000000; stroke-linecap:round; stroke-linejoin:round; stroke-width:4; stroke-opacity:1; fill:none" points="186.274,70.2828 205.172,70.2828 "/>
<path clip-path="url(#clip050)" d="M62.9365 1464.66 Q59.3254 1464.66 57.4967 1468.22 Q55.6912 1471.76 55.6912 1478.89 Q55.6912 1486 57.4967 1489.56 Q59.3254 1493.11 62.9365 1493.11 Q66.5707 1493.11 68.3763 1489.56 Q70.205 1486 70.205 1478.89 Q70.205 1471.76 68.3763 1468.22 Q66.5707 1464.66 62.9365 1464.66 M62.9365 1460.95 Q68.7467 1460.95 71.8022 1465.56 Q74.8809 1470.14 74.8809 1478.89 Q74.8809 1487.62 71.8022 1492.23 Q68.7467 1496.81 62.9365 1496.81 Q57.1264 1496.81 54.0477 1492.23 Q50.9921 1487.62 50.9921 1478.89 Q50.9921 1470.14 54.0477 1465.56 Q57.1264 1460.95 62.9365 1460.95 Z" fill="#000000" fill-rule="nonzero" fill-opacity="1" /><path clip-path="url(#clip050)" d="M83.0984 1490.26 L87.9827 1490.26 L87.9827 1496.14 L83.0984 1496.14 L83.0984 1490.26 Z" fill="#000000" fill-rule="nonzero" fill-opacity="1" /><path clip-path="url(#clip050)" d="M108.168 1464.66 Q104.557 1464.66 102.728 1468.22 Q100.922 1471.76 100.922 1478.89 Q100.922 1486 102.728 1489.56 Q104.557 1493.11 108.168 1493.11 Q111.802 1493.11 113.608 1489.56 Q115.436 1486 115.436 1478.89 Q115.436 1471.76 113.608 1468.22 Q111.802 1464.66 108.168 1464.66 M108.168 1460.95 Q113.978 1460.95 117.033 1465.56 Q120.112 1470.14 120.112 1478.89 Q120.112 1487.62 117.033 1492.23 Q113.978 1496.81 108.168 1496.81 Q102.358 1496.81 99.2789 1492.23 Q96.2234 1487.62 96.2234 1478.89 Q96.2234 1470.14 99.2789 1465.56 Q102.358 1460.95 108.168 1460.95 Z" fill="#000000" fill-rule="nonzero" fill-opacity="1" /><path clip-path="url(#clip050)" d="M138.33 1464.66 Q134.719 1464.66 132.89 1468.22 Q131.084 1471.76 131.084 1478.89 Q131.084 1486 132.89 1489.56 Q134.719 1493.11 138.33 1493.11 Q141.964 1493.11 143.769 1489.56 Q145.598 1486 145.598 1478.89 Q145.598 1471.76 143.769 1468.22 Q141.964 1464.66 138.33 1464.66 M138.33 1460.95 Q144.14 1460.95 147.195 1465.56 Q150.274 1470.14 150.274 1478.89 Q150.274 1487.62 147.195 1492.23 Q144.14 1496.81 138.33 1496.81 Q132.519 1496.81 129.441 1492.23 Q126.385 1487.62 126.385 1478.89 Q126.385 1470.14 129.441 1465.56 Q132.519 1460.95 138.33 1460.95 Z" fill="#000000" fill-rule="nonzero" fill-opacity="1" /><path clip-path="url(#clip050)" d="M63.9319 1112.51 Q60.3208 1112.51 58.4921 1116.08 Q56.6865 1119.62 56.6865 1126.75 Q56.6865 1133.86 58.4921 1137.42 Q60.3208 1140.96 63.9319 1140.96 Q67.5661 1140.96 69.3717 1137.42 Q71.2004 1133.86 71.2004 1126.75 Q71.2004 1119.62 69.3717 1116.08 Q67.5661 1112.51 63.9319 1112.51 M63.9319 1108.81 Q69.742 1108.81 72.7976 1113.42 Q75.8763 1118 75.8763 1126.75 Q75.8763 1135.48 72.7976 1140.08 Q69.742 1144.67 63.9319 1144.67 Q58.1217 1144.67 55.043 1140.08 Q51.9875 1135.48 51.9875 1126.75 Q51.9875 1118 55.043 1113.42 Q58.1217 1108.81 63.9319 1108.81 Z" fill="#000000" fill-rule="nonzero" fill-opacity="1" /><path clip-path="url(#clip050)" d="M84.0938 1138.11 L88.978 1138.11 L88.978 1143.99 L84.0938 1143.99 L84.0938 1138.11 Z" fill="#000000" fill-rule="nonzero" fill-opacity="1" /><path clip-path="url(#clip050)" d="M103.191 1140.06 L119.51 1140.06 L119.51 1143.99 L97.566 1143.99 L97.566 1140.06 Q100.228 1137.3 104.811 1132.67 Q109.418 1128.02 110.598 1126.68 Q112.844 1124.16 113.723 1122.42 Q114.626 1120.66 114.626 1118.97 Q114.626 1116.22 112.682 1114.48 Q110.76 1112.74 107.658 1112.74 Q105.459 1112.74 103.006 1113.51 Q100.575 1114.27 97.7974 1115.82 L97.7974 1111.1 Q100.621 1109.97 103.075 1109.39 Q105.529 1108.81 107.566 1108.81 Q112.936 1108.81 116.131 1111.49 Q119.325 1114.18 119.325 1118.67 Q119.325 1120.8 118.515 1122.72 Q117.728 1124.62 115.621 1127.21 Q115.043 1127.88 111.941 1131.1 Q108.839 1134.3 103.191 1140.06 Z" fill="#000000" fill-rule="nonzero" fill-opacity="1" /><path clip-path="url(#clip050)" d="M129.371 1109.43 L147.728 1109.43 L147.728 1113.37 L133.654 1113.37 L133.654 1121.84 Q134.672 1121.49 135.691 1121.33 Q136.709 1121.15 137.728 1121.15 Q143.515 1121.15 146.894 1124.32 Q150.274 1127.49 150.274 1132.91 Q150.274 1138.49 146.802 1141.59 Q143.33 1144.67 137.01 1144.67 Q134.834 1144.67 132.566 1144.3 Q130.32 1143.92 127.913 1143.18 L127.913 1138.49 Q129.996 1139.62 132.219 1140.17 Q134.441 1140.73 136.918 1140.73 Q140.922 1140.73 143.26 1138.62 Q145.598 1136.52 145.598 1132.91 Q145.598 1129.3 143.26 1127.19 Q140.922 1125.08 136.918 1125.08 Q135.043 1125.08 133.168 1125.5 Q131.316 1125.92 129.371 1126.8 L129.371 1109.43 Z" fill="#000000" fill-rule="nonzero" fill-opacity="1" /><path clip-path="url(#clip050)" d="M62.9365 760.369 Q59.3254 760.369 57.4967 763.934 Q55.6912 767.476 55.6912 774.605 Q55.6912 781.712 57.4967 785.276 Q59.3254 788.818 62.9365 788.818 Q66.5707 788.818 68.3763 785.276 Q70.205 781.712 70.205 774.605 Q70.205 767.476 68.3763 763.934 Q66.5707 760.369 62.9365 760.369 M62.9365 756.665 Q68.7467 756.665 71.8022 761.272 Q74.8809 765.855 74.8809 774.605 Q74.8809 783.332 71.8022 787.938 Q68.7467 792.522 62.9365 792.522 Q57.1264 792.522 54.0477 787.938 Q50.9921 783.332 50.9921 774.605 Q50.9921 765.855 54.0477 761.272 Q57.1264 756.665 62.9365 756.665 Z" fill="#000000" fill-rule="nonzero" fill-opacity="1" /><path clip-path="url(#clip050)" d="M83.0984 785.971 L87.9827 785.971 L87.9827 791.85 L83.0984 791.85 L83.0984 785.971 Z" fill="#000000" fill-rule="nonzero" fill-opacity="1" /><path clip-path="url(#clip050)" d="M98.2141 757.29 L116.57 757.29 L116.57 761.226 L102.496 761.226 L102.496 769.698 Q103.515 769.351 104.534 769.189 Q105.552 769.003 106.571 769.003 Q112.358 769.003 115.737 772.175 Q119.117 775.346 119.117 780.763 Q119.117 786.341 115.645 789.443 Q112.172 792.522 105.853 792.522 Q103.677 792.522 101.409 792.151 Q99.1632 791.781 96.7558 791.04 L96.7558 786.341 Q98.8391 787.475 101.061 788.031 Q103.284 788.587 105.76 788.587 Q109.765 788.587 112.103 786.48 Q114.441 784.374 114.441 780.763 Q114.441 777.151 112.103 775.045 Q109.765 772.938 105.76 772.938 Q103.885 772.938 102.01 773.355 Q100.159 773.772 98.2141 774.651 L98.2141 757.29 Z" fill="#000000" fill-rule="nonzero" fill-opacity="1" /><path clip-path="url(#clip050)" d="M138.33 760.369 Q134.719 760.369 132.89 763.934 Q131.084 767.476 131.084 774.605 Q131.084 781.712 132.89 785.276 Q134.719 788.818 138.33 788.818 Q141.964 788.818 143.769 785.276 Q145.598 781.712 145.598 774.605 Q145.598 767.476 143.769 763.934 Q141.964 760.369 138.33 760.369 M138.33 756.665 Q144.14 756.665 147.195 761.272 Q150.274 765.855 150.274 774.605 Q150.274 783.332 147.195 787.938 Q144.14 792.522 138.33 792.522 Q132.519 792.522 129.441 787.938 Q126.385 783.332 126.385 774.605 Q126.385 765.855 129.441 761.272 Q132.519 756.665 138.33 756.665 Z" fill="#000000" fill-rule="nonzero" fill-opacity="1" /><path clip-path="url(#clip050)" d="M63.9319 408.225 Q60.3208 408.225 58.4921 411.79 Q56.6865 415.332 56.6865 422.461 Q56.6865 429.568 58.4921 433.133 Q60.3208 436.674 63.9319 436.674 Q67.5661 436.674 69.3717 433.133 Q71.2004 429.568 71.2004 422.461 Q71.2004 415.332 69.3717 411.79 Q67.5661 408.225 63.9319 408.225 M63.9319 404.522 Q69.742 404.522 72.7976 409.128 Q75.8763 413.711 75.8763 422.461 Q75.8763 431.188 72.7976 435.795 Q69.742 440.378 63.9319 440.378 Q58.1217 440.378 55.043 435.795 Q51.9875 431.188 51.9875 422.461 Q51.9875 413.711 55.043 409.128 Q58.1217 404.522 63.9319 404.522 Z" fill="#000000" fill-rule="nonzero" fill-opacity="1" /><path clip-path="url(#clip050)" d="M84.0938 433.827 L88.978 433.827 L88.978 439.707 L84.0938 439.707 L84.0938 433.827 Z" fill="#000000" fill-rule="nonzero" fill-opacity="1" /><path clip-path="url(#clip050)" d="M97.9826 405.147 L120.205 405.147 L120.205 407.137 L107.658 439.707 L102.774 439.707 L114.58 409.082 L97.9826 409.082 L97.9826 405.147 Z" fill="#000000" fill-rule="nonzero" fill-opacity="1" /><path clip-path="url(#clip050)" d="M129.371 405.147 L147.728 405.147 L147.728 409.082 L133.654 409.082 L133.654 417.554 Q134.672 417.207 135.691 417.045 Q136.709 416.86 137.728 416.86 Q143.515 416.86 146.894 420.031 Q150.274 423.202 150.274 428.619 Q150.274 434.197 146.802 437.299 Q143.33 440.378 137.01 440.378 Q134.834 440.378 132.566 440.008 Q130.32 439.637 127.913 438.896 L127.913 434.197 Q129.996 435.332 132.219 435.887 Q134.441 436.443 136.918 436.443 Q140.922 436.443 143.26 434.336 Q145.598 432.23 145.598 428.619 Q145.598 425.008 143.26 422.901 Q140.922 420.795 136.918 420.795 Q135.043 420.795 133.168 421.211 Q131.316 421.628 129.371 422.508 L129.371 405.147 Z" fill="#000000" fill-rule="nonzero" fill-opacity="1" /><path clip-path="url(#clip050)" d="M53.7467 83.6277 L61.3856 83.6277 L61.3856 57.2621 L53.0754 58.9287 L53.0754 54.6695 L61.3393 53.0028 L66.0152 53.0028 L66.0152 83.6277 L73.654 83.6277 L73.654 87.5628 L53.7467 87.5628 L53.7467 83.6277 Z" fill="#000000" fill-rule="nonzero" fill-opacity="1" /><path clip-path="url(#clip050)" d="M83.0984 81.6832 L87.9827 81.6832 L87.9827 87.5628 L83.0984 87.5628 L83.0984 81.6832 Z" fill="#000000" fill-rule="nonzero" fill-opacity="1" /><path clip-path="url(#clip050)" d="M108.168 56.0815 Q104.557 56.0815 102.728 59.6463 Q100.922 63.188 100.922 70.3176 Q100.922 77.424 102.728 80.9888 Q104.557 84.5304 108.168 84.5304 Q111.802 84.5304 113.608 80.9888 Q115.436 77.424 115.436 70.3176 Q115.436 63.188 113.608 59.6463 Q111.802 56.0815 108.168 56.0815 M108.168 52.3778 Q113.978 52.3778 117.033 56.9843 Q120.112 61.5676 120.112 70.3176 Q120.112 79.0444 117.033 83.6508 Q113.978 88.2341 108.168 88.2341 Q102.358 88.2341 99.2789 83.6508 Q96.2234 79.0444 96.2234 70.3176 Q96.2234 61.5676 99.2789 56.9843 Q102.358 52.3778 108.168 52.3778 Z" fill="#000000" fill-rule="nonzero" fill-opacity="1" /><path clip-path="url(#clip050)" d="M138.33 56.0815 Q134.719 56.0815 132.89 59.6463 Q131.084 63.188 131.084 70.3176 Q131.084 77.424 132.89 80.9888 Q134.719 84.5304 138.33 84.5304 Q141.964 84.5304 143.769 80.9888 Q145.598 77.424 145.598 70.3176 Q145.598 63.188 143.769 59.6463 Q141.964 56.0815 138.33 56.0815 M138.33 52.3778 Q144.14 52.3778 147.195 56.9843 Q150.274 61.5676 150.274 70.3176 Q150.274 79.0444 147.195 83.6508 Q144.14 88.2341 138.33 88.2341 Q132.519 88.2341 129.441 83.6508 Q126.385 79.0444 126.385 70.3176 Q126.385 61.5676 129.441 56.9843 Q132.519 52.3778 138.33 52.3778 Z" fill="#000000" fill-rule="nonzero" fill-opacity="1" /><polyline clip-path="url(#clip052)" style="stroke:#009af9; stroke-linecap:round; stroke-linejoin:round; stroke-width:4; stroke-opacity:1; fill:none" points="247.59,1445.72 633.089,1339.54 790.863,1248.68 1147.01,1022.67 1376.38,908.643 1400.75,704.116 2049.95,506.093 2065.54,477.436 2213.42,293.465 2291.44,87.9763 "/>
<path clip-path="url(#clip050)" d="M258.49 198.898 L527.569 198.898 L527.569 95.2176 L258.49 95.2176  Z" fill="#ffffff" fill-rule="evenodd" fill-opacity="1"/>
<polyline clip-path="url(#clip050)" style="stroke:#000000; stroke-linecap:round; stroke-linejoin:round; stroke-width:4; stroke-opacity:1; fill:none" points="258.49,198.898 527.569,198.898 527.569,95.2176 258.49,95.2176 258.49,198.898 "/>
<polyline clip-path="url(#clip050)" style="stroke:#009af9; stroke-linecap:round; stroke-linejoin:round; stroke-width:4; stroke-opacity:1; fill:none" points="282.562,147.058 426.994,147.058 "/>
<path clip-path="url(#clip050)" d="M464.909 166.745 Q463.103 171.375 461.39 172.787 Q459.677 174.199 456.807 174.199 L453.404 174.199 L453.404 170.634 L455.904 170.634 Q457.663 170.634 458.636 169.8 Q459.608 168.967 460.788 165.865 L461.552 163.921 L451.066 138.412 L455.58 138.412 L463.682 158.689 L471.784 138.412 L476.298 138.412 L464.909 166.745 Z" fill="#000000" fill-rule="nonzero" fill-opacity="1" /><path clip-path="url(#clip050)" d="M483.589 160.402 L491.228 160.402 L491.228 134.037 L482.918 135.703 L482.918 131.444 L491.182 129.778 L495.858 129.778 L495.858 160.402 L503.497 160.402 L503.497 164.338 L483.589 164.338 L483.589 160.402 Z" fill="#000000" fill-rule="nonzero" fill-opacity="1" /></svg>
