<?xml version="1.0" encoding="utf-8"?>
<svg xmlns="http://www.w3.org/2000/svg" xmlns:xlink="http://www.w3.org/1999/xlink" width="400" height="300" viewBox="0 0 1600 1200">
<defs>
  <clipPath id="clip330">
    <rect x="0" y="0" width="1600" height="1200"/>
  </clipPath>
</defs>
<path clip-path="url(#clip330)" d="M0 1200 L1600 1200 L1600 0 L0 0  Z" fill="#ffffff" fill-rule="evenodd" fill-opacity="1"/>
<defs>
  <clipPath id="clip331">
    <rect x="297" y="47" width="1194" height="971"/>
  </clipPath>
</defs>
<path clip-path="url(#clip330)" d="M297.135 1016.92 L1489.76 1016.92 L1489.76 47.2441 L297.135 47.2441  Z" fill="#ffffff" fill-rule="evenodd" fill-opacity="1"/>
<polyline clip-path="url(#clip331)" style="stroke:#000000; stroke-linecap:round; stroke-linejoin:round; stroke-width:2; stroke-opacity:0.1; fill:none" points="362.732,1016.92 362.732,47.2441 "/>
<polyline clip-path="url(#clip331)" style="stroke:#000000; stroke-linecap:round; stroke-linejoin:round; stroke-width:2; stroke-opacity:0.1; fill:none" points="575.019,1016.92 575.019,47.2441 "/>
<polyline clip-path="url(#clip331)" style="stroke:#000000; stroke-linecap:round; stroke-linejoin:round; stroke-width:2; stroke-opacity:0.1; fill:none" points="787.306,1016.92 787.306,47.2441 "/>
<polyline clip-path="url(#clip331)" style="stroke:#000000; stroke-linecap:round; stroke-linejoin:round; stroke-width:2; stroke-opacity:0.1; fill:none" points="999.593,1016.92 999.593,47.2441 "/>
<polyline clip-path="url(#clip331)" style="stroke:#000000; stroke-linecap:round; stroke-linejoin:round; stroke-width:2; stroke-opacity:0.1; fill:none" points="1211.88,1016.92 1211.88,47.2441 "/>
<polyline clip-path="url(#clip331)" style="stroke:#000000; stroke-linecap:round; stroke-linejoin:round; stroke-width:2; stroke-opacity:0.1; fill:none" points="1424.17,1016.92 1424.17,47.2441 "/>
<polyline clip-path="url(#clip331)" style="stroke:#000000; stroke-linecap:round; stroke-linejoin:round; stroke-width:2; stroke-opacity:0.1; fill:none" points="362.732,1016.92 362.732,47.2441 "/>
<polyline clip-path="url(#clip331)" style="stroke:#000000; stroke-linecap:round; stroke-linejoin:round; stroke-width:2; stroke-opacity:0.1; fill:none" points="575.019,1016.92 575.019,47.2441 "/>
<polyline clip-path="url(#clip331)" style="stroke:#000000; stroke-linecap:round; stroke-linejoin:round; stroke-width:2; stroke-opacity:0.1; fill:none" points="787.306,1016.92 787.306,47.2441 "/>
<polyline clip-path="url(#clip331)" style="stroke:#000000; stroke-linecap:round; stroke-linejoin:round; stroke-width:2; stroke-opacity:0.1; fill:none" points="999.593,1016.92 999.593,47.2441 "/>
<polyline clip-path="url(#clip331)" style="stroke:#000000; stroke-linecap:round; stroke-linejoin:round; stroke-width:2; stroke-opacity:0.1; fill:none" points="1211.88,1016.92 1211.88,47.2441 "/>
<polyline clip-path="url(#clip331)" style="stroke:#000000; stroke-linecap:round; stroke-linejoin:round; stroke-width:2; stroke-opacity:0.1; fill:none" points="1424.17,1016.92 1424.17,47.2441 "/>
<polyline clip-path="url(#clip331)" style="stroke:#000000; stroke-linecap:round; stroke-linejoin:round; stroke-width:2; stroke-opacity:0.1; fill:none" points="297.135,1016.92 1489.76,1016.92 "/>
<polyline clip-path="url(#clip331)" style="stroke:#000000; stroke-linecap:round; stroke-linejoin:round; stroke-width:2; stroke-opacity:0.1; fill:none" points="297.135,809.684 1489.76,809.684 "/>
<polyline clip-path="url(#clip331)" style="stroke:#000000; stroke-linecap:round; stroke-linejoin:round; stroke-width:2; stroke-opacity:0.1; fill:none" points="297.135,602.447 1489.76,602.447 "/>
<polyline clip-path="url(#clip331)" style="stroke:#000000; stroke-linecap:round; stroke-linejoin:round; stroke-width:2; stroke-opacity:0.1; fill:none" points="297.135,395.211 1489.76,395.211 "/>
<polyline clip-path="url(#clip331)" style="stroke:#000000; stroke-linecap:round; stroke-linejoin:round; stroke-width:2; stroke-opacity:0.1; fill:none" points="297.135,187.975 1489.76,187.975 "/>
<polyline clip-path="url(#clip331)" style="stroke:#000000; stroke-linecap:round; stroke-linejoin:round; stroke-width:2; stroke-opacity:0.1; fill:none" points="297.135,1016.92 1489.76,1016.92 "/>
<polyline clip-path="url(#clip331)" style="stroke:#000000; stroke-linecap:round; stroke-linejoin:round; stroke-width:2; stroke-opacity:0.1; fill:none" points="297.135,809.684 1489.76,809.684 "/>
<polyline clip-path="url(#clip331)" style="stroke:#000000; stroke-linecap:round; stroke-linejoin:round; stroke-width:2; stroke-opacity:0.1; fill:none" points="297.135,602.447 1489.76,602.447 "/>
<polyline clip-path="url(#clip331)" style="stroke:#000000; stroke-linecap:round; stroke-linejoin:round; stroke-width:2; stroke-opacity:0.1; fill:none" points="297.135,395.211 1489.76,395.211 "/>
<polyline clip-path="url(#clip331)" style="stroke:#000000; stroke-linecap:round; stroke-linejoin:round; stroke-width:2; stroke-opacity:0.1; fill:none" points="297.135,187.975 1489.76,187.975 "/>
<polyline clip-path="url(#clip330)" style="stroke:#000000; stroke-linecap:round; stroke-linejoin:round; stroke-width:4; stroke-opacity:1; fill:none" points="297.135,1016.92 1489.76,1016.92 "/>
<polyline clip-path="url(#clip330)" style="stroke:#000000; stroke-linecap:round; stroke-linejoin:round; stroke-width:4; stroke-opacity:1; fill:none" points="297.135,47.2441 1489.76,47.2441 "/>
<polyline clip-path="url(#clip330)" style="stroke:#000000; stroke-linecap:round; stroke-linejoin:round; stroke-width:4; stroke-opacity:1; fill:none" points="362.732,1016.92 362.732,998.022 "/>
<polyline clip-path="url(#clip330)" style="stroke:#000000; stroke-linecap:round; stroke-linejoin:round; stroke-width:4; stroke-opacity:1; fill:none" points="575.019,1016.92 575.019,998.022 "/>
<polyline clip-path="url(#clip330)" style="stroke:#000000; stroke-linecap:round; stroke-linejoin:round; stroke-width:4; stroke-opacity:1; fill:none" points="787.306,1016.92 787.306,998.022 "/>
<polyline clip-path="url(#clip330)" style="stroke:#000000; stroke-linecap:round; stroke-linejoin:round; stroke-width:4; stroke-opacity:1; fill:none" points="999.593,1016.92 999.593,998.022 "/>
<polyline clip-path="url(#clip330)" style="stroke:#000000; stroke-linecap:round; stroke-linejoin:round; stroke-width:4; stroke-opacity:1; fill:none" points="1211.88,1016.92 1211.88,998.022 "/>
<polyline clip-path="url(#clip330)" style="stroke:#000000; stroke-linecap:round; stroke-linejoin:round; stroke-width:4; stroke-opacity:1; fill:none" points="1424.17,1016.92 1424.17,998.022 "/>
<polyline clip-path="url(#clip330)" style="stroke:#000000; stroke-linecap:round; stroke-linejoin:round; stroke-width:4; stroke-opacity:1; fill:none" points="362.732,47.2441 362.732,66.1417 "/>
<polyline clip-path="url(#clip330)" style="stroke:#000000; stroke-linecap:round; stroke-linejoin:round; stroke-width:4; stroke-opacity:1; fill:none" points="575.019,47.2441 575.019,66.1417 "/>
<polyline clip-path="url(#clip330)" style="stroke:#000000; stroke-linecap:round; stroke-linejoin:round; stroke-width:4; stroke-opacity:1; fill:none" points="787.306,47.2441 787.306,66.1417 "/>
<polyline clip-path="url(#clip330)" style="stroke:#000000; stroke-linecap:round; stroke-linejoin:round; stroke-width:4; stroke-opacity:1; fill:none" points="999.593,47.2441 999.593,66.1417 "/>
<polyline clip-path="url(#clip330)" style="stroke:#000000; stroke-linecap:round; stroke-linejoin:round; stroke-width:4; stroke-opacity:1; fill:none" points="1211.88,47.2441 1211.88,66.1417 "/>
<polyline clip-path="url(#clip330)" style="stroke:#000000; stroke-linecap:round; stroke-linejoin:round; stroke-width:4; stroke-opacity:1; fill:none" points="1424.17,47.2441 1424.17,66.1417 "/>
<path clip-path="url(#clip330)" d="M346.835 1059.56 Q347.132 1059.85 347.132 1060.27 Q347.132 1060.69 346.835 1060.99 Q346.539 1061.28 346.119 1061.28 L314.449 1061.28 Q314.029 1061.28 313.733 1060.99 Q313.436 1060.69 313.436 1060.27 Q313.436 1059.85 313.733 1059.56 Q314.029 1059.26 314.449 1059.26 L346.119 1059.26 Q346.539 1059.26 346.835 1059.56 Z" fill="#000000" fill-rule="nonzero" fill-opacity="1" /><path clip-path="url(#clip330)" d="M354.444 1044.04 L354.444 1042.46 Q360.521 1042.46 363.658 1039.22 Q364.523 1039.22 364.671 1039.42 Q364.819 1039.62 364.819 1040.53 L364.819 1068.92 Q364.819 1070.42 365.56 1070.89 Q366.302 1071.36 369.538 1071.36 L371.143 1071.36 L371.143 1072.92 Q369.365 1072.77 362.942 1072.77 Q356.519 1072.77 354.765 1072.92 L354.765 1071.36 L356.371 1071.36 Q359.558 1071.36 360.323 1070.92 Q361.089 1070.45 361.089 1068.92 L361.089 1042.71 Q358.446 1044.04 354.444 1044.04 Z" fill="#000000" fill-rule="nonzero" fill-opacity="1" /><path clip-path="url(#clip330)" d="M380.308 1072.1 Q379.543 1071.29 379.543 1070.23 Q379.543 1069.16 380.308 1068.4 Q381.074 1067.61 382.235 1067.61 Q383.347 1067.61 384.088 1068.35 Q384.854 1069.07 384.854 1070.25 Q384.854 1071.41 384.039 1072.18 Q383.248 1072.92 382.235 1072.92 Q381.074 1072.92 380.308 1072.1 Z" fill="#000000" fill-rule="nonzero" fill-opacity="1" /><path clip-path="url(#clip330)" d="M391.82 1064.77 Q391.82 1063.26 392.635 1062.69 Q393.451 1062.1 394.315 1062.1 Q395.476 1062.1 396.143 1062.84 Q396.835 1063.56 396.835 1064.57 Q396.835 1065.58 396.143 1066.32 Q395.476 1067.04 394.315 1067.04 Q393.747 1067.04 393.451 1066.94 Q394.118 1069.26 396.143 1070.94 Q398.194 1072.62 400.886 1072.62 Q404.271 1072.62 406.296 1069.34 Q407.507 1067.21 407.507 1062.4 Q407.507 1058.15 406.593 1056.02 Q405.185 1052.79 402.294 1052.79 Q398.194 1052.79 395.773 1056.32 Q395.476 1056.76 395.13 1056.79 Q394.636 1056.79 394.513 1056.52 Q394.414 1056.22 394.414 1055.45 L394.414 1040.48 Q394.414 1039.27 394.908 1039.27 Q395.106 1039.27 395.526 1039.42 Q398.712 1040.83 402.245 1040.85 Q405.876 1040.85 409.137 1039.37 Q409.384 1039.22 409.532 1039.22 Q410.027 1039.22 410.051 1039.79 Q410.051 1039.99 409.631 1040.58 Q409.236 1041.15 408.371 1041.92 Q407.507 1042.66 406.395 1043.37 Q405.283 1044.09 403.653 1044.59 Q402.047 1045.05 400.269 1045.05 Q398.144 1045.05 395.97 1044.39 L395.97 1054.24 Q398.589 1051.67 402.393 1051.67 Q406.445 1051.67 409.236 1054.94 Q412.028 1058.2 412.028 1062.74 Q412.028 1067.51 408.717 1070.77 Q405.432 1074.03 400.985 1074.03 Q396.934 1074.03 394.365 1071.14 Q391.82 1068.25 391.82 1064.77 Z" fill="#000000" fill-rule="nonzero" fill-opacity="1" /><path clip-path="url(#clip330)" d="M558.851 1059.56 Q559.147 1059.85 559.147 1060.27 Q559.147 1060.69 558.851 1060.99 Q558.554 1061.28 558.134 1061.28 L526.465 1061.28 Q526.045 1061.28 525.748 1060.99 Q525.452 1060.69 525.452 1060.27 Q525.452 1059.85 525.748 1059.56 Q526.045 1059.26 526.465 1059.26 L558.134 1059.26 Q558.554 1059.26 558.851 1059.56 Z" fill="#000000" fill-rule="nonzero" fill-opacity="1" /><path clip-path="url(#clip330)" d="M566.459 1044.04 L566.459 1042.46 Q572.536 1042.46 575.674 1039.22 Q576.538 1039.22 576.686 1039.42 Q576.835 1039.62 576.835 1040.53 L576.835 1068.92 Q576.835 1070.42 577.576 1070.89 Q578.317 1071.36 581.553 1071.36 L583.159 1071.36 L583.159 1072.92 Q581.38 1072.77 574.957 1072.77 Q568.534 1072.77 566.78 1072.92 L566.78 1071.36 L568.386 1071.36 Q571.573 1071.36 572.339 1070.92 Q573.104 1070.45 573.104 1068.92 L573.104 1042.71 Q570.461 1044.04 566.459 1044.04 Z" fill="#000000" fill-rule="nonzero" fill-opacity="1" /><path clip-path="url(#clip330)" d="M592.324 1072.1 Q591.558 1071.29 591.558 1070.23 Q591.558 1069.16 592.324 1068.4 Q593.089 1067.61 594.251 1067.61 Q595.362 1067.61 596.103 1068.35 Q596.869 1069.07 596.869 1070.25 Q596.869 1071.41 596.054 1072.18 Q595.263 1072.92 594.251 1072.92 Q593.089 1072.92 592.324 1072.1 Z" fill="#000000" fill-rule="nonzero" fill-opacity="1" /><path clip-path="url(#clip330)" d="M603.292 1056.74 Q603.292 1049.3 605.169 1045.25 Q607.788 1039.22 613.964 1039.22 Q615.273 1039.22 616.632 1039.6 Q618.015 1039.94 619.744 1041.3 Q621.498 1042.66 622.561 1044.88 Q624.586 1049.18 624.586 1056.74 Q624.586 1064.13 622.709 1068.15 Q619.967 1074.03 613.914 1074.03 Q611.642 1074.03 609.32 1072.87 Q607.022 1071.71 605.565 1068.92 Q603.292 1064.74 603.292 1056.74 M607.492 1056.12 Q607.492 1063.75 608.035 1066.79 Q608.653 1070.08 610.332 1071.51 Q612.037 1072.92 613.914 1072.92 Q615.94 1072.92 617.62 1071.41 Q619.324 1069.88 619.843 1066.6 Q620.411 1063.36 620.387 1056.12 Q620.387 1049.08 619.893 1046.26 Q619.226 1042.98 617.447 1041.67 Q615.693 1040.34 613.914 1040.34 Q613.247 1040.34 612.531 1040.53 Q611.839 1040.73 610.827 1041.3 Q609.814 1041.87 609.023 1043.28 Q608.257 1044.68 607.887 1046.81 Q607.492 1049.55 607.492 1056.12 Z" fill="#000000" fill-rule="nonzero" fill-opacity="1" /><path clip-path="url(#clip330)" d="M771.409 1059.56 Q771.706 1059.85 771.706 1060.27 Q771.706 1060.69 771.409 1060.99 Q771.113 1061.28 770.693 1061.28 L739.023 1061.28 Q738.603 1061.28 738.307 1060.99 Q738.01 1060.69 738.01 1060.27 Q738.01 1059.85 738.307 1059.56 Q738.603 1059.26 739.023 1059.26 L770.693 1059.26 Q771.113 1059.26 771.409 1059.56 Z" fill="#000000" fill-rule="nonzero" fill-opacity="1" /><path clip-path="url(#clip330)" d="M776.498 1056.74 Q776.498 1049.3 778.376 1045.25 Q780.994 1039.22 787.17 1039.22 Q788.479 1039.22 789.838 1039.6 Q791.221 1039.94 792.951 1041.3 Q794.705 1042.66 795.767 1044.88 Q797.793 1049.18 797.793 1056.74 Q797.793 1064.13 795.915 1068.15 Q793.173 1074.03 787.121 1074.03 Q784.848 1074.03 782.526 1072.87 Q780.229 1071.71 778.771 1068.92 Q776.498 1064.74 776.498 1056.74 M780.698 1056.12 Q780.698 1063.75 781.241 1066.79 Q781.859 1070.08 783.539 1071.51 Q785.243 1072.92 787.121 1072.92 Q789.146 1072.92 790.826 1071.41 Q792.531 1069.88 793.05 1066.6 Q793.618 1063.36 793.593 1056.12 Q793.593 1049.08 793.099 1046.26 Q792.432 1042.98 790.653 1041.67 Q788.899 1040.34 787.121 1040.34 Q786.454 1040.34 785.737 1040.53 Q785.046 1040.73 784.033 1041.3 Q783.02 1041.87 782.229 1043.28 Q781.464 1044.68 781.093 1046.81 Q780.698 1049.55 780.698 1056.12 Z" fill="#000000" fill-rule="nonzero" fill-opacity="1" /><path clip-path="url(#clip330)" d="M804.882 1072.1 Q804.117 1071.29 804.117 1070.23 Q804.117 1069.16 804.882 1068.4 Q805.648 1067.61 806.809 1067.61 Q807.921 1067.61 808.662 1068.35 Q809.428 1069.07 809.428 1070.25 Q809.428 1071.41 808.613 1072.18 Q807.822 1072.92 806.809 1072.92 Q805.648 1072.92 804.882 1072.1 Z" fill="#000000" fill-rule="nonzero" fill-opacity="1" /><path clip-path="url(#clip330)" d="M816.394 1064.77 Q816.394 1063.26 817.209 1062.69 Q818.025 1062.1 818.889 1062.1 Q820.05 1062.1 820.717 1062.84 Q821.409 1063.56 821.409 1064.57 Q821.409 1065.58 820.717 1066.32 Q820.05 1067.04 818.889 1067.04 Q818.321 1067.04 818.025 1066.94 Q818.692 1069.26 820.717 1070.94 Q822.768 1072.62 825.46 1072.62 Q828.845 1072.62 830.87 1069.34 Q832.081 1067.21 832.081 1062.4 Q832.081 1058.15 831.167 1056.02 Q829.759 1052.79 826.868 1052.79 Q822.768 1052.79 820.347 1056.32 Q820.05 1056.76 819.704 1056.79 Q819.21 1056.79 819.087 1056.52 Q818.988 1056.22 818.988 1055.45 L818.988 1040.48 Q818.988 1039.27 819.482 1039.27 Q819.68 1039.27 820.1 1039.42 Q823.286 1040.83 826.819 1040.85 Q830.45 1040.85 833.711 1039.37 Q833.958 1039.22 834.107 1039.22 Q834.601 1039.22 834.625 1039.79 Q834.625 1039.99 834.205 1040.58 Q833.81 1041.15 832.945 1041.92 Q832.081 1042.66 830.969 1043.37 Q829.858 1044.09 828.227 1044.59 Q826.621 1045.05 824.843 1045.05 Q822.718 1045.05 820.544 1044.39 L820.544 1054.24 Q823.163 1051.67 826.967 1051.67 Q831.019 1051.67 833.81 1054.94 Q836.602 1058.2 836.602 1062.74 Q836.602 1067.51 833.291 1070.77 Q830.006 1074.03 825.559 1074.03 Q821.508 1074.03 818.939 1071.14 Q816.394 1068.25 816.394 1064.77 Z" fill="#000000" fill-rule="nonzero" fill-opacity="1" /><path clip-path="url(#clip330)" d="M969.27 1056.74 Q969.27 1049.3 971.147 1045.25 Q973.766 1039.22 979.942 1039.22 Q981.251 1039.22 982.609 1039.6 Q983.993 1039.94 985.722 1041.3 Q987.476 1042.66 988.538 1044.88 Q990.564 1049.18 990.564 1056.74 Q990.564 1064.13 988.687 1068.15 Q985.944 1074.03 979.892 1074.03 Q977.619 1074.03 975.297 1072.87 Q973 1071.71 971.542 1068.92 Q969.27 1064.74 969.27 1056.74 M973.469 1056.12 Q973.469 1063.75 974.013 1066.79 Q974.63 1070.08 976.31 1071.51 Q978.015 1072.92 979.892 1072.92 Q981.918 1072.92 983.598 1071.41 Q985.302 1069.88 985.821 1066.6 Q986.389 1063.36 986.364 1056.12 Q986.364 1049.08 985.87 1046.26 Q985.203 1042.98 983.425 1041.67 Q981.671 1040.34 979.892 1040.34 Q979.225 1040.34 978.509 1040.53 Q977.817 1040.73 976.804 1041.3 Q975.791 1041.87 975.001 1043.28 Q974.235 1044.68 973.864 1046.81 Q973.469 1049.55 973.469 1056.12 Z" fill="#000000" fill-rule="nonzero" fill-opacity="1" /><path clip-path="url(#clip330)" d="M997.654 1072.1 Q996.888 1071.29 996.888 1070.23 Q996.888 1069.16 997.654 1068.4 Q998.42 1067.61 999.581 1067.61 Q1000.69 1067.61 1001.43 1068.35 Q1002.2 1069.07 1002.2 1070.25 Q1002.2 1071.41 1001.38 1072.18 Q1000.59 1072.92 999.581 1072.92 Q998.42 1072.92 997.654 1072.1 Z" fill="#000000" fill-rule="nonzero" fill-opacity="1" /><path clip-path="url(#clip330)" d="M1008.62 1056.74 Q1008.62 1049.3 1010.5 1045.25 Q1013.12 1039.22 1019.29 1039.22 Q1020.6 1039.22 1021.96 1039.6 Q1023.35 1039.94 1025.07 1041.3 Q1026.83 1042.66 1027.89 1044.88 Q1029.92 1049.18 1029.92 1056.74 Q1029.92 1064.13 1028.04 1068.15 Q1025.3 1074.03 1019.24 1074.03 Q1016.97 1074.03 1014.65 1072.87 Q1012.35 1071.71 1010.89 1068.92 Q1008.62 1064.74 1008.62 1056.74 M1012.82 1056.12 Q1012.82 1063.75 1013.37 1066.79 Q1013.98 1070.08 1015.66 1071.51 Q1017.37 1072.92 1019.24 1072.92 Q1021.27 1072.92 1022.95 1071.41 Q1024.65 1069.88 1025.17 1066.6 Q1025.74 1063.36 1025.72 1056.12 Q1025.72 1049.08 1025.22 1046.26 Q1024.56 1042.98 1022.78 1041.67 Q1021.02 1040.34 1019.24 1040.34 Q1018.58 1040.34 1017.86 1040.53 Q1017.17 1040.73 1016.16 1041.3 Q1015.14 1041.87 1014.35 1043.28 Q1013.59 1044.68 1013.22 1046.81 Q1012.82 1049.55 1012.82 1056.12 Z" fill="#000000" fill-rule="nonzero" fill-opacity="1" /><path clip-path="url(#clip330)" d="M1181.83 1056.74 Q1181.83 1049.3 1183.71 1045.25 Q1186.32 1039.22 1192.5 1039.22 Q1193.81 1039.22 1195.17 1039.6 Q1196.55 1039.94 1198.28 1041.3 Q1200.03 1042.66 1201.1 1044.88 Q1203.12 1049.18 1203.12 1056.74 Q1203.12 1064.13 1201.25 1068.15 Q1198.5 1074.03 1192.45 1074.03 Q1190.18 1074.03 1187.86 1072.87 Q1185.56 1071.71 1184.1 1068.92 Q1181.83 1064.74 1181.83 1056.74 M1186.03 1056.12 Q1186.03 1063.75 1186.57 1066.79 Q1187.19 1070.08 1188.87 1071.51 Q1190.57 1072.92 1192.45 1072.92 Q1194.48 1072.92 1196.16 1071.41 Q1197.86 1069.88 1198.38 1066.6 Q1198.95 1063.36 1198.92 1056.12 Q1198.92 1049.08 1198.43 1046.26 Q1197.76 1042.98 1195.98 1041.67 Q1194.23 1040.34 1192.45 1040.34 Q1191.78 1040.34 1191.07 1040.53 Q1190.38 1040.73 1189.36 1041.3 Q1188.35 1041.87 1187.56 1043.28 Q1186.79 1044.68 1186.42 1046.81 Q1186.03 1049.55 1186.03 1056.12 Z" fill="#000000" fill-rule="nonzero" fill-opacity="1" /><path clip-path="url(#clip330)" d="M1210.21 1072.1 Q1209.45 1071.29 1209.45 1070.23 Q1209.45 1069.16 1210.21 1068.4 Q1210.98 1067.61 1212.14 1067.61 Q1213.25 1067.61 1213.99 1068.35 Q1214.76 1069.07 1214.76 1070.25 Q1214.76 1071.41 1213.94 1072.18 Q1213.15 1072.92 1212.14 1072.92 Q1210.98 1072.92 1210.21 1072.1 Z" fill="#000000" fill-rule="nonzero" fill-opacity="1" /><path clip-path="url(#clip330)" d="M1221.72 1064.77 Q1221.72 1063.26 1222.54 1062.69 Q1223.35 1062.1 1224.22 1062.1 Q1225.38 1062.1 1226.05 1062.84 Q1226.74 1063.56 1226.74 1064.57 Q1226.74 1065.58 1226.05 1066.32 Q1225.38 1067.04 1224.22 1067.04 Q1223.65 1067.04 1223.35 1066.94 Q1224.02 1069.26 1226.05 1070.94 Q1228.1 1072.62 1230.79 1072.62 Q1234.17 1072.62 1236.2 1069.34 Q1237.41 1067.21 1237.41 1062.4 Q1237.41 1058.15 1236.5 1056.02 Q1235.09 1052.79 1232.2 1052.79 Q1228.1 1052.79 1225.68 1056.32 Q1225.38 1056.76 1225.03 1056.79 Q1224.54 1056.79 1224.42 1056.52 Q1224.32 1056.22 1224.32 1055.45 L1224.32 1040.48 Q1224.32 1039.27 1224.81 1039.27 Q1225.01 1039.27 1225.43 1039.42 Q1228.62 1040.83 1232.15 1040.85 Q1235.78 1040.85 1239.04 1039.37 Q1239.29 1039.22 1239.44 1039.22 Q1239.93 1039.22 1239.96 1039.79 Q1239.96 1039.99 1239.54 1040.58 Q1239.14 1041.15 1238.28 1041.92 Q1237.41 1042.66 1236.3 1043.37 Q1235.19 1044.09 1233.56 1044.59 Q1231.95 1045.05 1230.17 1045.05 Q1228.05 1045.05 1225.87 1044.39 L1225.87 1054.24 Q1228.49 1051.67 1232.3 1051.67 Q1236.35 1051.67 1239.14 1054.94 Q1241.93 1058.2 1241.93 1062.74 Q1241.93 1067.51 1238.62 1070.77 Q1235.34 1074.03 1230.89 1074.03 Q1226.84 1074.03 1224.27 1071.14 Q1221.72 1068.25 1221.72 1064.77 Z" fill="#000000" fill-rule="nonzero" fill-opacity="1" /><path clip-path="url(#clip330)" d="M1395.1 1044.04 L1395.1 1042.46 Q1401.18 1042.46 1404.32 1039.22 Q1405.18 1039.22 1405.33 1039.42 Q1405.48 1039.62 1405.48 1040.53 L1405.48 1068.92 Q1405.48 1070.42 1406.22 1070.89 Q1406.96 1071.36 1410.2 1071.36 L1411.8 1071.36 L1411.8 1072.92 Q1410.02 1072.77 1403.6 1072.77 Q1397.18 1072.77 1395.42 1072.92 L1395.42 1071.36 L1397.03 1071.36 Q1400.22 1071.36 1400.98 1070.92 Q1401.75 1070.45 1401.75 1068.92 L1401.75 1042.71 Q1399.11 1044.04 1395.1 1044.04 Z" fill="#000000" fill-rule="nonzero" fill-opacity="1" /><path clip-path="url(#clip330)" d="M1420.97 1072.1 Q1420.2 1071.29 1420.2 1070.23 Q1420.2 1069.16 1420.97 1068.4 Q1421.73 1067.61 1422.89 1067.61 Q1424.01 1067.61 1424.75 1068.35 Q1425.51 1069.07 1425.51 1070.25 Q1425.51 1071.41 1424.7 1072.18 Q1423.91 1072.92 1422.89 1072.92 Q1421.73 1072.92 1420.97 1072.1 Z" fill="#000000" fill-rule="nonzero" fill-opacity="1" /><path clip-path="url(#clip330)" d="M1431.94 1056.74 Q1431.94 1049.3 1433.81 1045.25 Q1436.43 1039.22 1442.61 1039.22 Q1443.92 1039.22 1445.28 1039.6 Q1446.66 1039.94 1448.39 1041.3 Q1450.14 1042.66 1451.2 1044.88 Q1453.23 1049.18 1453.23 1056.74 Q1453.23 1064.13 1451.35 1068.15 Q1448.61 1074.03 1442.56 1074.03 Q1440.29 1074.03 1437.96 1072.87 Q1435.67 1071.71 1434.21 1068.92 Q1431.94 1064.74 1431.94 1056.74 M1436.14 1056.12 Q1436.14 1063.75 1436.68 1066.79 Q1437.3 1070.08 1438.98 1071.51 Q1440.68 1072.92 1442.56 1072.92 Q1444.58 1072.92 1446.26 1071.41 Q1447.97 1069.88 1448.49 1066.6 Q1449.06 1063.36 1449.03 1056.12 Q1449.03 1049.08 1448.54 1046.26 Q1447.87 1042.98 1446.09 1041.67 Q1444.34 1040.34 1442.56 1040.34 Q1441.89 1040.34 1441.18 1040.53 Q1440.48 1040.73 1439.47 1041.3 Q1438.46 1041.87 1437.67 1043.28 Q1436.9 1044.68 1436.53 1046.81 Q1436.14 1049.55 1436.14 1056.12 Z" fill="#000000" fill-rule="nonzero" fill-opacity="1" /><path clip-path="url(#clip330)" d="M753.811 1121.96 L753.811 1119.79 Q756.936 1119.99 760.57 1119.99 Q761.895 1119.99 768.145 1119.79 L768.145 1121.96 Q764.171 1121.96 764.171 1123.77 Q764.171 1124.04 764.578 1124.95 L772.391 1144.35 L779.49 1126.62 Q779.897 1125.43 779.897 1124.95 Q779.897 1123.77 779.082 1122.92 Q778.301 1122.03 776.569 1121.96 L776.569 1119.79 Q780.101 1119.99 782.615 1119.99 Q785.468 1119.99 787.812 1119.79 L787.812 1121.96 Q785.74 1121.96 784.279 1122.92 Q782.819 1123.83 782.343 1124.65 Q781.902 1125.43 781.426 1126.62 L772.323 1149.24 Q771.779 1150.57 770.862 1150.57 Q770.251 1150.57 769.979 1150.29 Q769.741 1150.06 769.402 1149.24 L759.381 1124.55 Q758.702 1122.81 757.819 1122.41 Q756.936 1121.96 753.811 1121.96 Z" fill="#000000" fill-rule="nonzero" fill-opacity="1" /><path clip-path="url(#clip330)" d="M790.122 1143.16 Q790.122 1137.25 797.085 1134.13 Q801.263 1132.12 809.89 1131.61 L809.89 1129.06 Q809.89 1124.75 807.615 1122.47 Q805.373 1120.16 802.52 1120.16 Q797.424 1120.16 794.979 1123.36 Q797.051 1123.43 797.798 1124.48 Q798.545 1125.5 798.545 1126.55 Q798.545 1127.94 797.662 1128.86 Q796.813 1129.74 795.352 1129.74 Q793.96 1129.74 793.043 1128.89 Q792.126 1128.01 792.126 1126.48 Q792.126 1123.09 795.183 1120.84 Q798.274 1118.6 802.655 1118.6 Q808.362 1118.6 812.166 1122.44 Q813.355 1123.63 813.932 1125.16 Q814.544 1126.69 814.612 1127.71 Q814.68 1128.69 814.68 1130.66 L814.68 1144.55 Q814.68 1144.96 814.816 1145.64 Q814.952 1146.32 815.563 1147.2 Q816.208 1148.05 817.261 1148.05 Q819.775 1148.05 819.741 1143.6 L819.741 1139.7 L821.507 1139.7 L821.507 1143.6 Q821.507 1147.3 819.537 1148.76 Q817.601 1150.19 815.801 1150.19 Q813.491 1150.19 812.03 1148.49 Q810.57 1146.79 810.366 1144.48 Q809.313 1147.13 806.901 1148.87 Q804.524 1150.57 801.263 1150.57 Q798.749 1150.57 796.371 1149.92 Q794.028 1149.31 792.058 1147.58 Q790.122 1145.81 790.122 1143.16 M795.488 1143.09 Q795.488 1145.67 797.323 1147.34 Q799.157 1149 801.738 1149 Q804.659 1149 807.275 1146.76 Q809.89 1144.48 809.89 1140.04 L809.89 1133.07 Q802.18 1133.34 798.817 1136.43 Q795.488 1139.49 795.488 1143.09 Z" fill="#000000" fill-rule="nonzero" fill-opacity="1" /><path clip-path="url(#clip330)" d="M824.292 1149.78 L824.292 1147.64 Q827.995 1147.64 828.844 1147.2 Q829.693 1146.73 829.693 1144.48 L829.693 1108.31 Q829.693 1105.73 828.776 1105.08 Q827.893 1104.44 824.292 1104.44 L824.292 1102.26 L834.279 1101.52 L834.279 1144.48 Q834.279 1146.73 835.162 1147.2 Q836.045 1147.64 839.714 1147.64 L839.714 1149.78 Q838.864 1149.78 837.098 1149.72 Q835.332 1149.65 834.041 1149.61 Q832.75 1149.58 832.003 1149.58 Q831.188 1149.58 824.292 1149.78 Z" fill="#000000" fill-rule="nonzero" fill-opacity="1" /><path clip-path="url(#clip330)" d="M843.484 1121.96 L843.484 1119.79 L853.708 1119.04 L853.708 1142.14 Q853.708 1143.81 853.844 1144.79 Q853.98 1145.74 854.523 1146.86 Q855.101 1147.98 856.391 1148.49 Q857.716 1149 859.822 1149 Q863.592 1149 865.902 1145.91 Q868.246 1142.82 868.246 1138.24 L868.246 1125.84 Q868.246 1123.26 867.329 1122.61 Q866.412 1121.96 862.811 1121.96 L862.811 1119.79 L873.035 1119.04 L873.035 1143.74 Q873.035 1146.32 873.918 1147 Q874.836 1147.64 878.47 1147.64 L878.47 1149.78 L868.45 1150.57 L868.45 1144.28 Q865.529 1150.53 859.482 1150.57 Q856.425 1150.57 854.319 1149.78 Q852.247 1149 851.194 1148.05 Q850.141 1147.07 849.564 1145.2 Q849.021 1143.33 848.953 1142.18 Q848.885 1141.02 848.885 1138.78 L848.885 1128.35 Q848.885 1123.63 848.205 1122.81 Q847.526 1121.96 843.484 1121.96 Z" fill="#000000" fill-rule="nonzero" fill-opacity="1" /><path clip-path="url(#clip330)" d="M881.765 1134.46 Q881.765 1127.91 885.977 1123.26 Q890.189 1118.6 896.235 1118.6 Q902.349 1118.6 905.508 1122.58 Q908.701 1126.55 908.701 1132.26 Q908.701 1133.31 908.429 1133.51 Q908.157 1133.72 906.968 1133.72 L887.539 1133.72 Q887.539 1140.82 889.645 1144.15 Q892.566 1148.8 897.492 1148.8 Q898.171 1148.8 898.986 1148.66 Q899.801 1148.53 901.466 1147.95 Q903.13 1147.34 904.591 1145.74 Q906.051 1144.15 906.901 1141.63 Q907.104 1140.65 907.784 1140.68 Q908.701 1140.68 908.701 1141.5 Q908.701 1142.11 908.021 1143.5 Q907.376 1144.86 906.119 1146.49 Q904.862 1148.12 902.417 1149.34 Q900.005 1150.57 897.084 1150.57 Q890.97 1150.57 886.35 1145.95 Q881.765 1141.29 881.765 1134.46 M887.607 1132.26 L904.115 1132.26 Q904.115 1130.8 903.843 1129.17 Q903.606 1127.54 902.858 1125.29 Q902.145 1123.02 900.447 1121.59 Q898.748 1120.16 896.235 1120.16 Q895.114 1120.16 893.891 1120.64 Q892.702 1121.12 891.242 1122.27 Q889.781 1123.43 888.762 1126.04 Q887.743 1128.66 887.607 1132.26 Z" fill="#000000" fill-rule="nonzero" fill-opacity="1" /><path clip-path="url(#clip330)" d="M940.732 1132.39 Q940.732 1120.64 945.114 1111.16 Q946.982 1107.19 949.597 1103.86 Q952.213 1100.53 953.945 1099.07 Q955.677 1097.61 956.153 1097.61 Q956.832 1097.61 956.866 1098.29 Q956.866 1098.63 955.949 1099.48 Q944.74 1110.89 944.774 1132.39 Q944.774 1153.96 955.677 1164.93 Q956.866 1166.12 956.866 1166.5 Q956.866 1167.18 956.153 1167.18 Q955.677 1167.18 954.013 1165.78 Q952.349 1164.39 949.767 1161.2 Q947.186 1158 945.317 1154.1 Q940.732 1144.62 940.732 1132.39 Z" fill="#000000" fill-rule="nonzero" fill-opacity="1" /><path clip-path="url(#clip330)" d="M963.048 1149.78 L963.048 1147.64 Q965.29 1147.58 966.751 1147.17 Q968.245 1146.73 969.094 1145.64 Q969.977 1144.55 970.317 1143.84 Q970.691 1143.09 971.302 1141.36 L983.7 1105.83 Q983.904 1105.05 984.447 1103.55 Q985.025 1102.06 985.229 1101.31 Q980.236 1099.38 980.202 1093.84 Q980.202 1090.92 982.002 1088.61 Q983.836 1086.27 986.825 1086.27 Q989.746 1086.27 991.615 1088.58 Q993.517 1090.85 993.517 1093.84 Q993.517 1099.34 988.49 1101.31 L1003.1 1143.53 Q1004.15 1146.46 1005.13 1147.07 Q1006.15 1147.64 1010.4 1147.64 L1010.67 1147.64 L1010.67 1149.78 Q1006.22 1149.58 1001.77 1149.58 Q996.676 1149.58 991.547 1149.78 L991.547 1147.64 L991.682 1147.64 Q997.185 1147.64 997.185 1145.4 Q997.185 1144.86 993.449 1133.92 L976.193 1133.92 Q975.786 1135.31 974.869 1137.83 Q973.952 1140.31 973.408 1141.97 Q972.899 1143.6 972.899 1144.15 Q972.899 1145.4 974.121 1146.49 Q975.344 1147.54 978.062 1147.64 L978.062 1149.78 Q974.02 1149.58 969.91 1149.58 Q966.513 1149.58 963.048 1149.78 M976.941 1131.78 L992.667 1131.78 L984.821 1109.16 L976.941 1131.78 M981.968 1093.77 Q981.968 1097.24 983.462 1098.6 Q984.957 1099.92 986.893 1099.92 Q988.829 1099.92 990.29 1098.6 Q991.75 1097.27 991.75 1093.91 Q991.75 1090.44 990.256 1089.12 Q988.761 1087.79 986.825 1087.79 Q984.889 1087.79 983.428 1089.12 Q981.968 1090.44 981.968 1093.77 Z" fill="#000000" fill-rule="nonzero" fill-opacity="1" /><path clip-path="url(#clip330)" d="M1016.95 1166.5 Q1016.95 1166.16 1017.84 1165.31 Q1029.05 1153.89 1029.05 1132.39 Q1029.05 1110.82 1018.28 1099.92 Q1016.95 1098.66 1016.95 1098.29 Q1016.95 1097.61 1017.63 1097.61 Q1018.11 1097.61 1019.77 1099 Q1021.47 1100.4 1024.02 1103.59 Q1026.6 1106.78 1028.5 1110.69 Q1033.09 1120.16 1033.09 1132.39 Q1033.09 1144.15 1028.71 1153.62 Q1026.84 1157.6 1024.22 1160.93 Q1021.61 1164.25 1019.88 1165.71 Q1018.14 1167.18 1017.63 1167.18 Q1016.95 1167.18 1016.95 1166.5 Z" fill="#000000" fill-rule="nonzero" fill-opacity="1" /><polyline clip-path="url(#clip330)" style="stroke:#000000; stroke-linecap:round; stroke-linejoin:round; stroke-width:4; stroke-opacity:1; fill:none" points="297.135,1016.92 297.135,47.2441 "/>
<polyline clip-path="url(#clip330)" style="stroke:#000000; stroke-linecap:round; stroke-linejoin:round; stroke-width:4; stroke-opacity:1; fill:none" points="1489.76,1016.92 1489.76,47.2441 "/>
<polyline clip-path="url(#clip330)" style="stroke:#000000; stroke-linecap:round; stroke-linejoin:round; stroke-width:4; stroke-opacity:1; fill:none" points="297.135,1016.92 316.033,1016.92 "/>
<polyline clip-path="url(#clip330)" style="stroke:#000000; stroke-linecap:round; stroke-linejoin:round; stroke-width:4; stroke-opacity:1; fill:none" points="297.135,809.684 316.033,809.684 "/>
<polyline clip-path="url(#clip330)" style="stroke:#000000; stroke-linecap:round; stroke-linejoin:round; stroke-width:4; stroke-opacity:1; fill:none" points="297.135,602.447 316.033,602.447 "/>
<polyline clip-path="url(#clip330)" style="stroke:#000000; stroke-linecap:round; stroke-linejoin:round; stroke-width:4; stroke-opacity:1; fill:none" points="297.135,395.211 316.033,395.211 "/>
<polyline clip-path="url(#clip330)" style="stroke:#000000; stroke-linecap:round; stroke-linejoin:round; stroke-width:4; stroke-opacity:1; fill:none" points="297.135,187.975 316.033,187.975 "/>
<polyline clip-path="url(#clip330)" style="stroke:#000000; stroke-linecap:round; stroke-linejoin:round; stroke-width:4; stroke-opacity:1; fill:none" points="1489.76,1016.92 1470.87,1016.92 "/>
<polyline clip-path="url(#clip330)" style="stroke:#000000; stroke-linecap:round; stroke-linejoin:round; stroke-width:4; stroke-opacity:1; fill:none" points="1489.76,809.684 1470.87,809.684 "/>
<polyline clip-path="url(#clip330)" style="stroke:#000000; stroke-linecap:round; stroke-linejoin:round; stroke-width:4; stroke-opacity:1; fill:none" points="1489.76,602.447 1470.87,602.447 "/>
<polyline clip-path="url(#clip330)" style="stroke:#000000; stroke-linecap:round; stroke-linejoin:round; stroke-width:4; stroke-opacity:1; fill:none" points="1489.76,395.211 1470.87,395.211 "/>
<polyline clip-path="url(#clip330)" style="stroke:#000000; stroke-linecap:round; stroke-linejoin:round; stroke-width:4; stroke-opacity:1; fill:none" points="1489.76,187.975 1470.87,187.975 "/>
<path clip-path="url(#clip330)" d="M187.192 1018.02 Q187.192 1010.58 189.07 1006.53 Q191.688 1000.5 197.864 1000.5 Q199.173 1000.5 200.532 1000.88 Q201.915 1001.22 203.645 1002.58 Q205.399 1003.94 206.461 1006.16 Q208.487 1010.46 208.487 1018.02 Q208.487 1025.41 206.609 1029.43 Q203.867 1035.31 197.815 1035.31 Q195.542 1035.31 193.22 1034.15 Q190.922 1032.99 189.465 1030.2 Q187.192 1026.02 187.192 1018.02 M191.392 1017.4 Q191.392 1025.03 191.935 1028.07 Q192.553 1031.36 194.233 1032.79 Q195.937 1034.2 197.815 1034.2 Q199.84 1034.2 201.52 1032.69 Q203.225 1031.16 203.744 1027.88 Q204.312 1024.64 204.287 1017.4 Q204.287 1010.36 203.793 1007.54 Q203.126 1004.26 201.347 1002.95 Q199.593 1001.62 197.815 1001.62 Q197.148 1001.62 196.431 1001.81 Q195.74 1002.01 194.727 1002.58 Q193.714 1003.15 192.923 1004.56 Q192.158 1005.96 191.787 1008.09 Q191.392 1010.83 191.392 1017.4 Z" fill="#000000" fill-rule="nonzero" fill-opacity="1" /><path clip-path="url(#clip330)" d="M215.576 1033.38 Q214.811 1032.57 214.811 1031.51 Q214.811 1030.44 215.576 1029.68 Q216.342 1028.89 217.503 1028.89 Q218.615 1028.89 219.356 1029.63 Q220.122 1030.35 220.122 1031.53 Q220.122 1032.69 219.307 1033.46 Q218.516 1034.2 217.503 1034.2 Q216.342 1034.2 215.576 1033.38 Z" fill="#000000" fill-rule="nonzero" fill-opacity="1" /><path clip-path="url(#clip330)" d="M226.545 1018.02 Q226.545 1010.58 228.422 1006.53 Q231.041 1000.5 237.217 1000.5 Q238.526 1000.5 239.885 1000.88 Q241.268 1001.22 242.997 1002.58 Q244.751 1003.94 245.813 1006.16 Q247.839 1010.46 247.839 1018.02 Q247.839 1025.41 245.962 1029.43 Q243.22 1035.31 237.167 1035.31 Q234.894 1035.31 232.572 1034.15 Q230.275 1032.99 228.817 1030.2 Q226.545 1026.02 226.545 1018.02 M230.744 1017.4 Q230.744 1025.03 231.288 1028.07 Q231.905 1031.36 233.585 1032.79 Q235.29 1034.2 237.167 1034.2 Q239.193 1034.2 240.873 1032.69 Q242.577 1031.16 243.096 1027.88 Q243.664 1024.64 243.639 1017.4 Q243.639 1010.36 243.145 1007.54 Q242.478 1004.26 240.7 1002.95 Q238.946 1001.62 237.167 1001.62 Q236.5 1001.62 235.784 1001.81 Q235.092 1002.01 234.079 1002.58 Q233.066 1003.15 232.276 1004.56 Q231.51 1005.96 231.14 1008.09 Q230.744 1010.83 230.744 1017.4 Z" fill="#000000" fill-rule="nonzero" fill-opacity="1" /><path clip-path="url(#clip330)" d="M251.841 1018.02 Q251.841 1010.58 253.718 1006.53 Q256.337 1000.5 262.513 1000.5 Q263.822 1000.5 265.181 1000.88 Q266.564 1001.22 268.293 1002.58 Q270.047 1003.94 271.11 1006.16 Q273.135 1010.46 273.135 1018.02 Q273.135 1025.41 271.258 1029.43 Q268.516 1035.31 262.463 1035.31 Q260.191 1035.31 257.869 1034.15 Q255.571 1032.99 254.114 1030.2 Q251.841 1026.02 251.841 1018.02 M256.041 1017.4 Q256.041 1025.03 256.584 1028.07 Q257.202 1031.36 258.881 1032.79 Q260.586 1034.2 262.463 1034.2 Q264.489 1034.2 266.169 1032.69 Q267.873 1031.16 268.392 1027.88 Q268.96 1024.64 268.936 1017.4 Q268.936 1010.36 268.442 1007.54 Q267.775 1004.26 265.996 1002.95 Q264.242 1001.62 262.463 1001.62 Q261.796 1001.62 261.08 1001.81 Q260.388 1002.01 259.376 1002.58 Q258.363 1003.15 257.572 1004.56 Q256.806 1005.96 256.436 1008.09 Q256.041 1010.83 256.041 1017.4 Z" fill="#000000" fill-rule="nonzero" fill-opacity="1" /><path clip-path="url(#clip330)" d="M187.736 810.783 Q187.736 803.347 189.613 799.296 Q192.232 793.268 198.408 793.268 Q199.717 793.268 201.076 793.639 Q202.459 793.985 204.188 795.343 Q205.942 796.702 207.004 798.925 Q209.03 803.224 209.03 810.783 Q209.03 818.169 207.153 822.196 Q204.411 828.075 198.358 828.075 Q196.085 828.075 193.763 826.914 Q191.466 825.753 190.008 822.962 Q187.736 818.787 187.736 810.783 M191.935 810.165 Q191.935 817.799 192.479 820.837 Q193.096 824.123 194.776 825.555 Q196.481 826.964 198.358 826.964 Q200.384 826.964 202.064 825.457 Q203.768 823.925 204.287 820.639 Q204.855 817.403 204.83 810.165 Q204.83 803.125 204.336 800.309 Q203.669 797.023 201.891 795.714 Q200.137 794.38 198.358 794.38 Q197.691 794.38 196.975 794.577 Q196.283 794.775 195.27 795.343 Q194.257 795.911 193.467 797.319 Q192.701 798.728 192.331 800.852 Q191.935 803.594 191.935 810.165 Z" fill="#000000" fill-rule="nonzero" fill-opacity="1" /><path clip-path="url(#clip330)" d="M216.12 826.148 Q215.354 825.333 215.354 824.271 Q215.354 823.209 216.12 822.443 Q216.886 821.652 218.047 821.652 Q219.158 821.652 219.9 822.393 Q220.665 823.11 220.665 824.296 Q220.665 825.457 219.85 826.222 Q219.06 826.964 218.047 826.964 Q216.886 826.964 216.12 826.148 Z" fill="#000000" fill-rule="nonzero" fill-opacity="1" /><path clip-path="url(#clip330)" d="M227.632 826.964 Q227.632 826.049 227.706 825.778 Q227.805 825.506 228.2 825.086 L237.908 814.266 Q243.22 808.288 243.22 803.075 Q243.22 799.691 241.441 797.27 Q239.687 794.849 236.451 794.849 Q234.227 794.849 232.35 796.208 Q230.473 797.567 229.608 799.987 Q229.756 799.938 230.275 799.938 Q231.535 799.938 232.227 800.729 Q232.943 801.519 232.943 802.581 Q232.943 803.94 232.054 804.607 Q231.189 805.249 230.324 805.249 Q229.979 805.249 229.509 805.175 Q229.064 805.101 228.348 804.409 Q227.632 803.693 227.632 802.433 Q227.632 798.9 230.3 796.084 Q232.992 793.268 237.093 793.268 Q241.737 793.268 244.776 796.035 Q247.839 798.777 247.839 803.075 Q247.839 804.582 247.37 805.966 Q246.925 807.324 246.307 808.387 Q245.715 809.449 244.084 811.153 Q242.454 812.858 241.144 814.068 Q239.835 815.279 236.895 817.848 L231.535 823.06 L240.65 823.06 Q245.097 823.06 245.443 822.665 Q245.937 821.949 246.554 818.169 L247.839 818.169 L246.406 826.964 L227.632 826.964 Z" fill="#000000" fill-rule="nonzero" fill-opacity="1" /><path clip-path="url(#clip330)" d="M252.928 818.811 Q252.928 817.304 253.743 816.736 Q254.558 816.143 255.423 816.143 Q256.584 816.143 257.251 816.885 Q257.943 817.601 257.943 818.614 Q257.943 819.627 257.251 820.368 Q256.584 821.084 255.423 821.084 Q254.855 821.084 254.558 820.985 Q255.225 823.307 257.251 824.987 Q259.301 826.667 261.994 826.667 Q265.378 826.667 267.404 823.382 Q268.615 821.257 268.615 816.44 Q268.615 812.191 267.701 810.066 Q266.292 806.83 263.402 806.83 Q259.301 806.83 256.88 810.363 Q256.584 810.808 256.238 810.832 Q255.744 810.832 255.621 810.56 Q255.522 810.264 255.522 809.498 L255.522 794.528 Q255.522 793.318 256.016 793.318 Q256.213 793.318 256.633 793.466 Q259.82 794.874 263.353 794.899 Q266.984 794.899 270.245 793.416 Q270.492 793.268 270.64 793.268 Q271.134 793.268 271.159 793.836 Q271.159 794.034 270.739 794.627 Q270.344 795.195 269.479 795.961 Q268.615 796.702 267.503 797.418 Q266.391 798.135 264.761 798.629 Q263.155 799.098 261.376 799.098 Q259.252 799.098 257.078 798.431 L257.078 808.288 Q259.697 805.719 263.501 805.719 Q267.552 805.719 270.344 808.979 Q273.135 812.24 273.135 816.786 Q273.135 821.553 269.825 824.814 Q266.539 828.075 262.093 828.075 Q258.042 828.075 255.472 825.185 Q252.928 822.295 252.928 818.811 Z" fill="#000000" fill-rule="nonzero" fill-opacity="1" /><path clip-path="url(#clip330)" d="M187.192 603.546 Q187.192 596.111 189.07 592.059 Q191.688 586.032 197.864 586.032 Q199.173 586.032 200.532 586.402 Q201.915 586.748 203.645 588.107 Q205.399 589.466 206.461 591.689 Q208.487 595.987 208.487 603.546 Q208.487 610.933 206.609 614.959 Q203.867 620.839 197.815 620.839 Q195.542 620.839 193.22 619.678 Q190.922 618.517 189.465 615.725 Q187.192 611.55 187.192 603.546 M191.392 602.929 Q191.392 610.562 191.935 613.601 Q192.553 616.886 194.233 618.319 Q195.937 619.727 197.815 619.727 Q199.84 619.727 201.52 618.22 Q203.225 616.689 203.744 613.403 Q204.312 610.167 204.287 602.929 Q204.287 595.888 203.793 593.072 Q203.126 589.787 201.347 588.477 Q199.593 587.143 197.815 587.143 Q197.148 587.143 196.431 587.341 Q195.74 587.539 194.727 588.107 Q193.714 588.675 192.923 590.083 Q192.158 591.491 191.787 593.616 Q191.392 596.358 191.392 602.929 Z" fill="#000000" fill-rule="nonzero" fill-opacity="1" /><path clip-path="url(#clip330)" d="M215.576 618.912 Q214.811 618.097 214.811 617.035 Q214.811 615.972 215.576 615.206 Q216.342 614.416 217.503 614.416 Q218.615 614.416 219.356 615.157 Q220.122 615.873 220.122 617.059 Q220.122 618.22 219.307 618.986 Q218.516 619.727 217.503 619.727 Q216.342 619.727 215.576 618.912 Z" fill="#000000" fill-rule="nonzero" fill-opacity="1" /><path clip-path="url(#clip330)" d="M227.088 611.575 Q227.088 610.068 227.903 609.5 Q228.719 608.907 229.583 608.907 Q230.744 608.907 231.411 609.648 Q232.103 610.365 232.103 611.377 Q232.103 612.39 231.411 613.131 Q230.744 613.848 229.583 613.848 Q229.015 613.848 228.719 613.749 Q229.386 616.071 231.411 617.751 Q233.462 619.431 236.154 619.431 Q239.539 619.431 241.564 616.145 Q242.775 614.021 242.775 609.204 Q242.775 604.955 241.861 602.83 Q240.453 599.594 237.562 599.594 Q233.462 599.594 231.041 603.127 Q230.744 603.571 230.398 603.596 Q229.904 603.596 229.781 603.324 Q229.682 603.028 229.682 602.262 L229.682 587.292 Q229.682 586.081 230.176 586.081 Q230.374 586.081 230.794 586.229 Q233.98 587.638 237.513 587.662 Q241.144 587.662 244.405 586.18 Q244.652 586.032 244.801 586.032 Q245.295 586.032 245.319 586.6 Q245.319 586.798 244.899 587.39 Q244.504 587.959 243.639 588.724 Q242.775 589.466 241.663 590.182 Q240.552 590.898 238.921 591.392 Q237.315 591.862 235.537 591.862 Q233.412 591.862 231.238 591.195 L231.238 601.051 Q233.857 598.482 237.661 598.482 Q241.713 598.482 244.504 601.743 Q247.296 605.004 247.296 609.549 Q247.296 614.317 243.985 617.578 Q240.7 620.839 236.253 620.839 Q232.202 620.839 229.633 617.949 Q227.088 615.058 227.088 611.575 Z" fill="#000000" fill-rule="nonzero" fill-opacity="1" /><path clip-path="url(#clip330)" d="M251.841 603.546 Q251.841 596.111 253.718 592.059 Q256.337 586.032 262.513 586.032 Q263.822 586.032 265.181 586.402 Q266.564 586.748 268.293 588.107 Q270.047 589.466 271.11 591.689 Q273.135 595.987 273.135 603.546 Q273.135 610.933 271.258 614.959 Q268.516 620.839 262.463 620.839 Q260.191 620.839 257.869 619.678 Q255.571 618.517 254.114 615.725 Q251.841 611.55 251.841 603.546 M256.041 602.929 Q256.041 610.562 256.584 613.601 Q257.202 616.886 258.881 618.319 Q260.586 619.727 262.463 619.727 Q264.489 619.727 266.169 618.22 Q267.873 616.689 268.392 613.403 Q268.96 610.167 268.936 602.929 Q268.936 595.888 268.442 593.072 Q267.775 589.787 265.996 588.477 Q264.242 587.143 262.463 587.143 Q261.796 587.143 261.08 587.341 Q260.388 587.539 259.376 588.107 Q258.363 588.675 257.572 590.083 Q256.806 591.491 256.436 593.616 Q256.041 596.358 256.041 602.929 Z" fill="#000000" fill-rule="nonzero" fill-opacity="1" /><path clip-path="url(#clip330)" d="M187.736 396.31 Q187.736 388.874 189.613 384.823 Q192.232 378.795 198.408 378.795 Q199.717 378.795 201.076 379.166 Q202.459 379.512 204.188 380.871 Q205.942 382.229 207.004 384.453 Q209.03 388.751 209.03 396.31 Q209.03 403.696 207.153 407.723 Q204.411 413.603 198.358 413.603 Q196.085 413.603 193.763 412.441 Q191.466 411.28 190.008 408.489 Q187.736 404.314 187.736 396.31 M191.935 395.693 Q191.935 403.326 192.479 406.364 Q193.096 409.65 194.776 411.083 Q196.481 412.491 198.358 412.491 Q200.384 412.491 202.064 410.984 Q203.768 409.452 204.287 406.167 Q204.855 402.931 204.83 395.693 Q204.83 388.652 204.336 385.836 Q203.669 382.55 201.891 381.241 Q200.137 379.907 198.358 379.907 Q197.691 379.907 196.975 380.105 Q196.283 380.302 195.27 380.871 Q194.257 381.439 193.467 382.847 Q192.701 384.255 192.331 386.379 Q191.935 389.121 191.935 395.693 Z" fill="#000000" fill-rule="nonzero" fill-opacity="1" /><path clip-path="url(#clip330)" d="M216.12 411.676 Q215.354 410.86 215.354 409.798 Q215.354 408.736 216.12 407.97 Q216.886 407.18 218.047 407.18 Q219.158 407.18 219.9 407.921 Q220.665 408.637 220.665 409.823 Q220.665 410.984 219.85 411.75 Q219.06 412.491 218.047 412.491 Q216.886 412.491 216.12 411.676 Z" fill="#000000" fill-rule="nonzero" fill-opacity="1" /><path clip-path="url(#clip330)" d="M227.953 388.702 L229.608 378.301 L230.868 378.301 Q231.016 378.919 231.263 379.191 Q231.535 379.462 232.968 379.685 Q234.425 379.907 237.365 379.907 L249.642 379.907 Q249.642 381.068 249.198 381.686 L242.355 391.295 Q240.181 394.334 239.218 399.942 Q238.649 403.696 238.674 408.242 L238.674 410.811 Q238.674 413.603 236.327 413.603 Q234.005 413.603 234.005 410.811 Q234.005 401.152 240.23 391.789 Q240.897 390.826 243.343 387.392 Q245.813 383.958 245.912 383.81 L235.438 383.81 Q230.843 383.81 230.473 384.107 Q229.979 384.551 229.213 388.702 L227.953 388.702 Z" fill="#000000" fill-rule="nonzero" fill-opacity="1" /><path clip-path="url(#clip330)" d="M252.928 404.339 Q252.928 402.832 253.743 402.264 Q254.558 401.671 255.423 401.671 Q256.584 401.671 257.251 402.412 Q257.943 403.128 257.943 404.141 Q257.943 405.154 257.251 405.895 Q256.584 406.611 255.423 406.611 Q254.855 406.611 254.558 406.513 Q255.225 408.835 257.251 410.515 Q259.301 412.194 261.994 412.194 Q265.378 412.194 267.404 408.909 Q268.615 406.784 268.615 401.967 Q268.615 397.718 267.701 395.594 Q266.292 392.358 263.402 392.358 Q259.301 392.358 256.88 395.89 Q256.584 396.335 256.238 396.36 Q255.744 396.36 255.621 396.088 Q255.522 395.791 255.522 395.026 L255.522 380.055 Q255.522 378.845 256.016 378.845 Q256.213 378.845 256.633 378.993 Q259.82 380.401 263.353 380.426 Q266.984 380.426 270.245 378.944 Q270.492 378.795 270.64 378.795 Q271.134 378.795 271.159 379.364 Q271.159 379.561 270.739 380.154 Q270.344 380.722 269.479 381.488 Q268.615 382.229 267.503 382.946 Q266.391 383.662 264.761 384.156 Q263.155 384.625 261.376 384.625 Q259.252 384.625 257.078 383.958 L257.078 393.815 Q259.697 391.246 263.501 391.246 Q267.552 391.246 270.344 394.507 Q273.135 397.768 273.135 402.313 Q273.135 407.081 269.825 410.342 Q266.539 413.603 262.093 413.603 Q258.042 413.603 255.472 410.712 Q252.928 407.822 252.928 404.339 Z" fill="#000000" fill-rule="nonzero" fill-opacity="1" /><path clip-path="url(#clip330)" d="M189.712 176.376 L189.712 174.795 Q195.789 174.795 198.926 171.559 Q199.791 171.559 199.939 171.757 Q200.087 171.954 200.087 172.868 L200.087 201.253 Q200.087 202.759 200.829 203.229 Q201.57 203.698 204.806 203.698 L206.411 203.698 L206.411 205.255 Q204.633 205.106 198.21 205.106 Q191.787 205.106 190.033 205.255 L190.033 203.698 L191.639 203.698 Q194.826 203.698 195.591 203.254 Q196.357 202.784 196.357 201.253 L196.357 175.042 Q193.714 176.376 189.712 176.376 Z" fill="#000000" fill-rule="nonzero" fill-opacity="1" /><path clip-path="url(#clip330)" d="M215.576 204.439 Q214.811 203.624 214.811 202.562 Q214.811 201.5 215.576 200.734 Q216.342 199.943 217.503 199.943 Q218.615 199.943 219.356 200.684 Q220.122 201.401 220.122 202.587 Q220.122 203.748 219.307 204.513 Q218.516 205.255 217.503 205.255 Q216.342 205.255 215.576 204.439 Z" fill="#000000" fill-rule="nonzero" fill-opacity="1" /><path clip-path="url(#clip330)" d="M226.545 189.074 Q226.545 181.638 228.422 177.587 Q231.041 171.559 237.217 171.559 Q238.526 171.559 239.885 171.93 Q241.268 172.276 242.997 173.634 Q244.751 174.993 245.813 177.216 Q247.839 181.515 247.839 189.074 Q247.839 196.46 245.962 200.487 Q243.22 206.366 237.167 206.366 Q234.894 206.366 232.572 205.205 Q230.275 204.044 228.817 201.253 Q226.545 197.078 226.545 189.074 M230.744 188.456 Q230.744 196.09 231.288 199.128 Q231.905 202.414 233.585 203.846 Q235.29 205.255 237.167 205.255 Q239.193 205.255 240.873 203.748 Q242.577 202.216 243.096 198.93 Q243.664 195.694 243.639 188.456 Q243.639 181.416 243.145 178.6 Q242.478 175.314 240.7 174.005 Q238.946 172.671 237.167 172.671 Q236.5 172.671 235.784 172.868 Q235.092 173.066 234.079 173.634 Q233.066 174.202 232.276 175.61 Q231.51 177.019 231.14 179.143 Q230.744 181.885 230.744 188.456 Z" fill="#000000" fill-rule="nonzero" fill-opacity="1" /><path clip-path="url(#clip330)" d="M251.841 189.074 Q251.841 181.638 253.718 177.587 Q256.337 171.559 262.513 171.559 Q263.822 171.559 265.181 171.93 Q266.564 172.276 268.293 173.634 Q270.047 174.993 271.11 177.216 Q273.135 181.515 273.135 189.074 Q273.135 196.46 271.258 200.487 Q268.516 206.366 262.463 206.366 Q260.191 206.366 257.869 205.205 Q255.571 204.044 254.114 201.253 Q251.841 197.078 251.841 189.074 M256.041 188.456 Q256.041 196.09 256.584 199.128 Q257.202 202.414 258.881 203.846 Q260.586 205.255 262.463 205.255 Q264.489 205.255 266.169 203.748 Q267.873 202.216 268.392 198.93 Q268.96 195.694 268.936 188.456 Q268.936 181.416 268.442 178.6 Q267.775 175.314 265.996 174.005 Q264.242 172.671 262.463 172.671 Q261.796 172.671 261.08 172.868 Q260.388 173.066 259.376 173.634 Q258.363 174.202 257.572 175.61 Q256.806 177.019 256.436 179.143 Q256.041 181.885 256.041 188.456 Z" fill="#000000" fill-rule="nonzero" fill-opacity="1" /><path clip-path="url(#clip330)" d="M133.991 750.474 Q127.367 750.474 122.782 745.854 Q118.196 741.235 118.196 734.985 Q118.196 729.686 122.51 726.221 L107.462 726.221 Q104.881 726.221 104.236 727.138 Q103.59 728.021 103.59 731.622 L101.416 731.622 L100.669 721.602 L142.89 721.602 Q145.472 721.602 146.151 720.718 Q146.796 719.801 146.796 716.201 L148.936 716.201 L149.718 726.425 L145.098 726.425 Q149.684 730.025 149.718 735.732 Q149.718 741.71 145.132 746.092 Q140.546 750.474 133.991 750.474 M134.059 744.699 Q140.512 744.699 143.705 742.695 Q148.155 739.91 148.155 735.392 Q148.155 730.229 143.298 727.172 Q142.109 726.391 140.716 726.425 L126.45 726.425 Q125.057 726.425 123.903 727.172 Q119.725 730.025 119.725 734.679 Q119.725 739.536 124.174 742.559 Q127.503 744.699 134.059 744.699 Z" fill="#000000" fill-rule="nonzero" fill-opacity="1" /><path clip-path="url(#clip330)" d="M133.617 712.328 Q127.061 712.328 122.408 708.117 Q117.754 703.905 117.754 697.858 Q117.754 691.744 121.729 688.585 Q125.703 685.393 131.409 685.393 Q132.462 685.393 132.666 685.664 Q132.87 685.936 132.87 687.125 L132.87 706.554 Q139.969 706.554 143.298 704.448 Q147.951 701.527 147.951 696.602 Q147.951 695.922 147.815 695.107 Q147.68 694.292 147.102 692.628 Q146.491 690.963 144.894 689.503 Q143.298 688.042 140.784 687.193 Q139.799 686.989 139.833 686.31 Q139.833 685.393 140.648 685.393 Q141.26 685.393 142.652 686.072 Q144.011 686.717 145.641 687.974 Q147.272 689.231 148.495 691.676 Q149.718 694.088 149.718 697.009 Q149.718 703.123 145.098 707.743 Q140.445 712.328 133.617 712.328 M131.409 706.486 L131.409 689.978 Q129.949 689.978 128.318 690.25 Q126.688 690.488 124.446 691.235 Q122.17 691.948 120.744 693.647 Q119.317 695.345 119.317 697.858 Q119.317 698.979 119.792 700.202 Q120.268 701.391 121.423 702.852 Q122.578 704.312 125.193 705.331 Q127.809 706.35 131.409 706.486 Z" fill="#000000" fill-rule="nonzero" fill-opacity="1" /><path clip-path="url(#clip330)" d="M148.936 681.147 L146.796 681.147 Q146.796 677.444 146.355 676.595 Q145.879 675.746 143.637 675.746 L124.989 675.746 Q122.408 675.746 121.763 676.663 Q121.117 677.546 121.117 681.147 L118.943 681.147 L118.196 671.364 L125.499 671.364 Q118.196 668.103 118.196 661.072 Q118.196 655.841 120.778 653.769 Q122.51 652.241 124.446 651.935 Q126.382 651.595 131.409 651.595 L144.69 651.595 Q146.151 651.527 146.491 650.406 Q146.796 649.286 146.796 646.161 L148.936 646.161 Q148.732 653.26 148.732 653.973 Q148.732 654.516 148.936 661.819 L146.796 661.819 Q146.796 658.117 146.355 657.268 Q145.879 656.385 143.637 656.385 L127.435 656.385 Q123.903 656.385 121.831 657.472 Q119.725 658.559 119.725 661.548 Q119.725 665.148 122.748 668.035 Q125.771 670.923 130.866 670.923 L143.637 670.923 Q145.879 670.923 146.355 670.073 Q146.796 669.19 146.796 665.522 L148.936 665.522 Q148.732 672.621 148.732 673.3 Q148.732 673.844 148.936 681.147 Z" fill="#000000" fill-rule="nonzero" fill-opacity="1" /><path clip-path="url(#clip330)" d="M148.019 642.492 L138.848 642.492 Q138.067 642.492 137.795 642.458 Q137.523 642.424 137.32 642.22 Q137.116 642.017 137.116 641.609 Q137.116 641.133 137.32 640.964 Q137.523 640.76 138.305 640.624 Q143.094 639.571 145.641 637.329 Q148.155 635.053 148.155 630.943 Q148.155 627.037 146.423 625.067 Q144.69 623.097 141.837 623.097 Q136.742 623.097 135.451 630.332 Q134.602 634.51 134.059 636.242 Q133.481 637.974 132.224 639.503 Q129.779 642.492 126.314 642.492 Q122.85 642.492 120.302 639.877 Q117.754 637.227 117.754 631.385 Q117.754 627.479 119.725 624.829 Q119.113 624.048 118.604 623.64 Q117.754 622.723 117.754 622.248 Q117.754 621.704 118.128 621.602 Q118.468 621.5 119.453 621.5 L126.45 621.5 Q127.231 621.5 127.503 621.534 Q127.775 621.568 127.979 621.772 Q128.148 621.976 128.148 622.418 Q128.148 623.199 127.503 623.233 Q119.079 623.776 119.079 631.385 Q119.079 635.495 120.676 637.329 Q122.238 639.163 124.378 639.163 Q125.567 639.163 126.484 638.62 Q127.367 638.042 127.911 637.329 Q128.42 636.582 128.93 635.223 Q129.405 633.864 129.575 633.049 Q129.745 632.2 130.085 630.604 Q131.138 625.033 133.413 622.689 Q136.334 619.768 140.037 619.768 Q144.147 619.768 146.932 622.553 Q149.718 625.339 149.718 630.943 Q149.718 635.461 146.694 638.62 Q147.102 639.027 147.476 639.333 Q147.815 639.639 147.951 639.775 Q148.087 639.877 148.189 639.911 Q148.257 639.945 148.325 640.012 Q149.718 641.405 149.718 641.745 Q149.718 642.288 149.344 642.39 Q149.004 642.492 148.019 642.492 Z" fill="#000000" fill-rule="nonzero" fill-opacity="1" /><path clip-path="url(#clip330)" d="M148.936 615.115 L146.796 615.115 Q146.796 611.412 146.355 610.563 Q145.879 609.714 143.637 609.714 L124.922 609.714 Q122.34 609.714 121.729 610.597 Q121.117 611.446 121.117 614.843 L118.943 614.843 L118.196 605.128 L143.705 605.128 Q145.777 605.128 146.287 604.381 Q146.796 603.634 146.796 600.237 L148.936 600.237 Q148.732 607.336 148.732 607.472 Q148.732 608.423 148.936 615.115 M106.07 612.193 Q104.677 612.193 103.556 611.14 Q102.401 610.053 102.401 608.525 Q102.401 606.996 103.454 605.91 Q104.473 604.823 106.104 604.823 Q107.7 604.823 108.753 605.91 Q109.772 606.996 109.772 608.525 Q109.772 610.121 108.651 611.174 Q107.53 612.193 106.07 612.193 Z" fill="#000000" fill-rule="nonzero" fill-opacity="1" /><path clip-path="url(#clip330)" d="M121.117 596.84 L119.589 596.84 Q119.453 593.647 117.211 591.541 Q114.935 589.401 112.15 588.688 Q109.365 587.941 106.138 587.873 L106.138 586.141 L118.943 586.141 L118.943 576.188 L121.117 576.188 L121.117 586.141 L140.445 586.141 Q147.951 586.141 147.951 581.453 Q147.951 579.449 145.913 578.124 Q143.841 576.8 140.173 576.8 L136.334 576.8 L136.334 575.067 L140.309 575.067 Q144.079 575.067 146.898 576.8 Q149.718 578.532 149.718 581.963 Q149.718 583.219 149.378 584.476 Q149.072 585.699 148.257 587.329 Q147.408 588.926 145.37 589.945 Q143.298 590.93 140.309 590.93 L121.117 590.93 L121.117 596.84 Z" fill="#000000" fill-rule="nonzero" fill-opacity="1" /><path clip-path="url(#clip330)" d="M157.564 571.807 Q156.103 571.807 155.322 570.957 Q154.575 570.074 154.575 568.885 Q154.575 567.629 155.356 566.813 Q156.171 565.964 157.496 565.964 Q160.077 565.964 160.417 568.682 Q161.674 567.357 161.674 565.421 Q161.674 563.349 160.145 561.684 Q158.617 559.986 157.156 559.273 Q155.696 558.525 153.046 557.472 Q150.974 556.487 148.936 555.74 L123.529 566.168 Q121.864 566.847 121.491 567.9 Q121.117 568.953 121.117 571.807 L118.943 571.807 Q119.147 568.682 119.147 565.047 Q119.147 562.907 118.943 557.472 L121.117 557.472 Q121.117 561.379 122.917 561.379 Q123.121 561.379 124.174 560.971 L142.89 553.227 L125.771 546.195 Q124.786 545.788 124.106 545.788 Q121.253 545.788 121.117 549.049 L118.943 549.049 Q119.147 544.463 119.147 543.002 Q119.147 540.149 118.943 537.805 L121.117 537.805 Q121.117 542.459 125.567 544.259 L155.254 556.521 Q163.169 559.85 163.202 565.421 Q163.202 568.07 161.572 569.938 Q159.942 571.807 157.564 571.807 Z" fill="#000000" fill-rule="nonzero" fill-opacity="1" /><path clip-path="url(#clip330)" d="M131.545 506.454 Q119.792 506.454 110.316 502.072 Q106.342 500.204 103.013 497.588 Q99.684 494.973 98.2234 493.241 Q96.7628 491.508 96.7628 491.033 Q96.7628 490.353 97.4421 490.319 Q97.7818 490.319 98.631 491.237 Q110.044 502.446 131.545 502.412 Q153.114 502.412 164.086 491.508 Q165.274 490.319 165.648 490.319 Q166.327 490.319 166.327 491.033 Q166.327 491.508 164.935 493.173 Q163.542 494.837 160.349 497.419 Q157.156 500 153.25 501.868 Q143.773 506.454 131.545 506.454 Z" fill="#000000" fill-rule="nonzero" fill-opacity="1" /><path clip-path="url(#clip330)" d="M148.936 484.137 L146.796 484.137 Q146.728 481.896 146.321 480.435 Q145.879 478.94 144.792 478.091 Q143.705 477.208 142.992 476.868 Q142.245 476.495 140.512 475.883 L104.983 463.485 Q104.202 463.282 102.707 462.738 Q101.212 462.161 100.465 461.957 Q98.5291 466.95 92.9924 466.984 Q90.0713 466.984 87.7615 465.184 Q85.4178 463.35 85.4178 460.36 Q85.4178 457.439 87.7275 455.571 Q90.0033 453.669 92.9924 453.669 Q98.4951 453.669 100.465 458.696 L142.686 444.09 Q145.608 443.037 146.219 442.052 Q146.796 441.033 146.796 436.787 L146.796 436.515 L148.936 436.515 Q148.732 440.965 148.732 445.415 Q148.732 450.51 148.936 455.639 L146.796 455.639 L146.796 455.503 Q146.796 450 144.555 450 Q144.011 450 133.074 453.737 L133.074 470.992 Q134.466 471.4 136.98 472.317 Q139.459 473.234 141.124 473.777 Q142.754 474.287 143.298 474.287 Q144.555 474.287 145.641 473.064 Q146.694 471.841 146.796 469.124 L148.936 469.124 Q148.732 473.166 148.732 477.276 Q148.732 480.673 148.936 484.137 M130.934 470.245 L130.934 454.518 L108.312 462.364 L130.934 470.245 M92.9245 465.218 Q96.3891 465.218 97.7478 463.723 Q99.0726 462.229 99.0726 460.292 Q99.0726 458.356 97.7478 456.896 Q96.4231 455.435 93.0604 455.435 Q89.5957 455.435 88.271 456.93 Q86.9463 458.424 86.9463 460.36 Q86.9463 462.297 88.271 463.757 Q89.5957 465.218 92.9245 465.218 Z" fill="#000000" fill-rule="nonzero" fill-opacity="1" /><path clip-path="url(#clip330)" d="M115.275 426.054 L105.255 413.044 L115.275 399.967 L116.735 401.02 L108.923 413.044 L116.735 425.035 L115.275 426.054 Z" fill="#000000" fill-rule="nonzero" fill-opacity="1" /><path clip-path="url(#clip330)" d="M135.995 391.034 L131.885 391.034 L131.885 372.521 L135.995 372.521 L135.995 391.034 Z" fill="#000000" fill-rule="nonzero" fill-opacity="1" /><path clip-path="url(#clip330)" d="M109.229 362.399 L107.055 362.399 Q107.055 354.043 102.605 349.729 Q102.605 348.541 102.877 348.337 Q103.149 348.133 104.405 348.133 L143.434 348.133 Q145.506 348.133 146.151 347.114 Q146.796 346.095 146.796 341.645 L146.796 339.437 L148.936 339.437 Q148.732 341.883 148.732 350.715 Q148.732 359.546 148.936 361.958 L146.796 361.958 L146.796 359.75 Q146.796 355.368 146.185 354.315 Q145.54 353.262 143.434 353.262 L107.394 353.262 Q109.229 356.897 109.229 362.399 Z" fill="#000000" fill-rule="nonzero" fill-opacity="1" /><path clip-path="url(#clip330)" d="M165.648 329.825 Q165.308 329.825 164.459 328.942 Q153.046 317.732 131.545 317.732 Q109.976 317.732 99.0726 328.5 Q97.8158 329.825 97.4421 329.825 Q96.7628 329.825 96.7628 329.145 Q96.7628 328.67 98.1554 327.005 Q99.5481 325.307 102.741 322.76 Q105.934 320.178 109.84 318.276 Q119.317 313.69 131.545 313.69 Q143.298 313.69 152.775 318.072 Q156.749 319.94 160.077 322.556 Q163.406 325.171 164.867 326.904 Q166.327 328.636 166.327 329.145 Q166.327 329.825 165.648 329.825 Z" fill="#000000" fill-rule="nonzero" fill-opacity="1" /><path clip-path="url(#clip331)" d="M362.732 934.025 L362.732 1016.92 L575.019 1016.92 L575.019 934.025 L362.732 934.025 L362.732 934.025  Z" fill="#808080" fill-rule="evenodd" fill-opacity="1"/>
<polyline clip-path="url(#clip331)" style="stroke:#000000; stroke-linecap:round; stroke-linejoin:round; stroke-width:4; stroke-opacity:1; fill:none" points="362.732,934.025 362.732,1016.92 575.019,1016.92 575.019,934.025 362.732,934.025 "/>
<path clip-path="url(#clip331)" d="M575.019 768.236 L575.019 1016.92 L787.306 1016.92 L787.306 768.236 L575.019 768.236 L575.019 768.236  Z" fill="#808080" fill-rule="evenodd" fill-opacity="1"/>
<polyline clip-path="url(#clip331)" style="stroke:#000000; stroke-linecap:round; stroke-linejoin:round; stroke-width:4; stroke-opacity:1; fill:none" points="575.019,768.236 575.019,1016.92 787.306,1016.92 787.306,768.236 575.019,768.236 "/>
<path clip-path="url(#clip331)" d="M787.306 353.764 L787.306 1016.92 L999.593 1016.92 L999.593 353.764 L787.306 353.764 L787.306 353.764  Z" fill="#808080" fill-rule="evenodd" fill-opacity="1"/>
<polyline clip-path="url(#clip331)" style="stroke:#000000; stroke-linecap:round; stroke-linejoin:round; stroke-width:4; stroke-opacity:1; fill:none" points="787.306,353.764 787.306,1016.92 999.593,1016.92 999.593,353.764 787.306,353.764 "/>
<path clip-path="url(#clip331)" d="M999.593 519.553 L999.593 1016.92 L1211.88 1016.92 L1211.88 519.553 L999.593 519.553 L999.593 519.553  Z" fill="#808080" fill-rule="evenodd" fill-opacity="1"/>
<polyline clip-path="url(#clip331)" style="stroke:#000000; stroke-linecap:round; stroke-linejoin:round; stroke-width:4; stroke-opacity:1; fill:none" points="999.593,519.553 999.593,1016.92 1211.88,1016.92 1211.88,519.553 999.593,519.553 "/>
<path clip-path="url(#clip331)" d="M1211.88 851.131 L1211.88 1016.92 L1424.17 1016.92 L1424.17 851.131 L1211.88 851.131 L1211.88 851.131  Z" fill="#808080" fill-rule="evenodd" fill-opacity="1"/>
<polyline clip-path="url(#clip331)" style="stroke:#000000; stroke-linecap:round; stroke-linejoin:round; stroke-width:4; stroke-opacity:1; fill:none" points="1211.88,851.131 1211.88,1016.92 1424.17,1016.92 1424.17,851.131 1211.88,851.131 "/>
<circle clip-path="url(#clip331)" style="fill:#808080; stroke:none; fill-opacity:0" cx="468.875" cy="934.025" r="2"/>
<circle clip-path="url(#clip331)" style="fill:#808080; stroke:none; fill-opacity:0" cx="681.163" cy="768.236" r="2"/>
<circle clip-path="url(#clip331)" style="fill:#808080; stroke:none; fill-opacity:0" cx="893.45" cy="353.764" r="2"/>
<circle clip-path="url(#clip331)" style="fill:#808080; stroke:none; fill-opacity:0" cx="1105.74" cy="519.553" r="2"/>
<circle clip-path="url(#clip331)" style="fill:#808080; stroke:none; fill-opacity:0" cx="1318.02" cy="851.131" r="2"/>
<polyline clip-path="url(#clip331)" style="stroke:#000000; stroke-linecap:round; stroke-linejoin:round; stroke-width:8; stroke-opacity:1; fill:none" points="330.889,1016.78 342.504,1016.72 410.535,1015.69 442.183,1014.26 484.602,1009.94 502.128,1006.79 519.654,1002.42 535.952,996.951 552.249,989.767 562.478,984.203 572.708,977.694 582.937,970.125 593.167,961.373 602.342,952.413 611.518,942.307 620.694,930.965 629.87,918.295 640.373,902.052 650.876,883.836 661.379,863.541 671.882,841.078 679.733,822.832 687.584,803.322 695.435,782.54 703.286,760.492 713.327,730.472 723.369,698.474 733.41,664.599 743.452,628.992 752.617,595.135 761.782,560.156 770.947,524.255 780.112,487.656 800.973,403.127 821.835,319.722 830.104,287.809 838.372,256.917 846.641,227.296 854.91,199.192 860.046,182.604 865.183,166.75 870.319,151.683 875.456,137.458 880.592,124.122 885.729,111.725 890.865,100.309 896.002,89.9165 903.869,76.0681 911.736,64.8277 915.67,60.217 919.604,56.2932 923.537,53.065 927.471,50.5394 933.017,48.1828 938.563,47.2441 944.109,47.7273 949.655,49.6304 955.201,52.945 960.747,57.6565 966.293,63.7443 971.838,71.182 975.983,77.6022 980.127,84.7428 984.272,92.5866 988.416,101.115 992.56,110.308 996.705,120.143 1000.85,130.598 1004.99,141.649 1009.71,154.907 1014.42,168.864 1019.13,183.478 1023.85,198.707 1033.27,230.839 1042.7,264.903 1052.03,300.183 1061.37,336.641 1070.7,373.923 1080.04,411.683 1100.58,494.84 1121.12,575.544 1128.96,605.155 1136.81,633.904 1144.65,661.691 1152.5,688.428 1162.4,720.558 1172.3,750.793 1182.2,779.058 1192.1,805.312 1201.25,827.796 1210.41,848.565 1219.57,867.652 1228.72,885.103 1238.16,901.451 1247.61,916.2 1257.05,929.439 1266.49,941.26 1276.06,951.895 1285.63,961.279 1295.21,969.517 1304.78,976.711 1314.77,983.218 1324.77,988.806 1334.76,993.579 1344.75,997.634 1360.5,1002.78 1376.25,1006.67 1412.11,1012.21 1447.96,1014.89 1451.99,1015.08 1456.01,1015.25 "/>
</svg>
