<?xml version="1.0" encoding="utf-8"?>
<svg xmlns="http://www.w3.org/2000/svg" xmlns:xlink="http://www.w3.org/1999/xlink" width="400" height="300" viewBox="0 0 1600 1200">
<defs>
  <clipPath id="clip100">
    <rect x="0" y="0" width="1600" height="1200"/>
  </clipPath>
</defs>
<path clip-path="url(#clip100)" d="M0 1200 L1600 1200 L1600 0 L0 0  Z" fill="#ffffff" fill-rule="evenodd" fill-opacity="1"/>
<defs>
  <clipPath id="clip101">
    <rect x="297" y="47" width="1194" height="971"/>
  </clipPath>
</defs>
<path clip-path="url(#clip100)" d="M297.135 1016.92 L1489.76 1016.92 L1489.76 47.2441 L297.135 47.2441  Z" fill="#ffffff" fill-rule="evenodd" fill-opacity="1"/>
<polyline clip-path="url(#clip101)" style="stroke:#000000; stroke-linecap:round; stroke-linejoin:round; stroke-width:2; stroke-opacity:0.1; fill:none" points="362.732,1016.92 362.732,47.2441 "/>
<polyline clip-path="url(#clip101)" style="stroke:#000000; stroke-linecap:round; stroke-linejoin:round; stroke-width:2; stroke-opacity:0.1; fill:none" points="575.019,1016.92 575.019,47.2441 "/>
<polyline clip-path="url(#clip101)" style="stroke:#000000; stroke-linecap:round; stroke-linejoin:round; stroke-width:2; stroke-opacity:0.1; fill:none" points="787.306,1016.92 787.306,47.2441 "/>
<polyline clip-path="url(#clip101)" style="stroke:#000000; stroke-linecap:round; stroke-linejoin:round; stroke-width:2; stroke-opacity:0.1; fill:none" points="999.593,1016.92 999.593,47.2441 "/>
<polyline clip-path="url(#clip101)" style="stroke:#000000; stroke-linecap:round; stroke-linejoin:round; stroke-width:2; stroke-opacity:0.1; fill:none" points="1211.88,1016.92 1211.88,47.2441 "/>
<polyline clip-path="url(#clip101)" style="stroke:#000000; stroke-linecap:round; stroke-linejoin:round; stroke-width:2; stroke-opacity:0.1; fill:none" points="1424.17,1016.92 1424.17,47.2441 "/>
<polyline clip-path="url(#clip101)" style="stroke:#000000; stroke-linecap:round; stroke-linejoin:round; stroke-width:2; stroke-opacity:0.1; fill:none" points="362.732,1016.92 362.732,47.2441 "/>
<polyline clip-path="url(#clip101)" style="stroke:#000000; stroke-linecap:round; stroke-linejoin:round; stroke-width:2; stroke-opacity:0.1; fill:none" points="575.019,1016.92 575.019,47.2441 "/>
<polyline clip-path="url(#clip101)" style="stroke:#000000; stroke-linecap:round; stroke-linejoin:round; stroke-width:2; stroke-opacity:0.1; fill:none" points="787.306,1016.92 787.306,47.2441 "/>
<polyline clip-path="url(#clip101)" style="stroke:#000000; stroke-linecap:round; stroke-linejoin:round; stroke-width:2; stroke-opacity:0.1; fill:none" points="999.593,1016.92 999.593,47.2441 "/>
<polyline clip-path="url(#clip101)" style="stroke:#000000; stroke-linecap:round; stroke-linejoin:round; stroke-width:2; stroke-opacity:0.1; fill:none" points="1211.88,1016.92 1211.88,47.2441 "/>
<polyline clip-path="url(#clip101)" style="stroke:#000000; stroke-linecap:round; stroke-linejoin:round; stroke-width:2; stroke-opacity:0.1; fill:none" points="1424.17,1016.92 1424.17,47.2441 "/>
<polyline clip-path="url(#clip101)" style="stroke:#000000; stroke-linecap:round; stroke-linejoin:round; stroke-width:2; stroke-opacity:0.1; fill:none" points="297.135,1016.92 1489.76,1016.92 "/>
<polyline clip-path="url(#clip101)" style="stroke:#000000; stroke-linecap:round; stroke-linejoin:round; stroke-width:2; stroke-opacity:0.1; fill:none" points="297.135,783.824 1489.76,783.824 "/>
<polyline clip-path="url(#clip101)" style="stroke:#000000; stroke-linecap:round; stroke-linejoin:round; stroke-width:2; stroke-opacity:0.1; fill:none" points="297.135,550.728 1489.76,550.728 "/>
<polyline clip-path="url(#clip101)" style="stroke:#000000; stroke-linecap:round; stroke-linejoin:round; stroke-width:2; stroke-opacity:0.1; fill:none" points="297.135,317.631 1489.76,317.631 "/>
<polyline clip-path="url(#clip101)" style="stroke:#000000; stroke-linecap:round; stroke-linejoin:round; stroke-width:2; stroke-opacity:0.1; fill:none" points="297.135,84.5352 1489.76,84.5352 "/>
<polyline clip-path="url(#clip101)" style="stroke:#000000; stroke-linecap:round; stroke-linejoin:round; stroke-width:2; stroke-opacity:0.1; fill:none" points="297.135,1016.92 1489.76,1016.92 "/>
<polyline clip-path="url(#clip101)" style="stroke:#000000; stroke-linecap:round; stroke-linejoin:round; stroke-width:2; stroke-opacity:0.1; fill:none" points="297.135,783.824 1489.76,783.824 "/>
<polyline clip-path="url(#clip101)" style="stroke:#000000; stroke-linecap:round; stroke-linejoin:round; stroke-width:2; stroke-opacity:0.1; fill:none" points="297.135,550.728 1489.76,550.728 "/>
<polyline clip-path="url(#clip101)" style="stroke:#000000; stroke-linecap:round; stroke-linejoin:round; stroke-width:2; stroke-opacity:0.1; fill:none" points="297.135,317.631 1489.76,317.631 "/>
<polyline clip-path="url(#clip101)" style="stroke:#000000; stroke-linecap:round; stroke-linejoin:round; stroke-width:2; stroke-opacity:0.1; fill:none" points="297.135,84.5352 1489.76,84.5352 "/>
<polyline clip-path="url(#clip100)" style="stroke:#000000; stroke-linecap:round; stroke-linejoin:round; stroke-width:4; stroke-opacity:1; fill:none" points="297.135,1016.92 1489.76,1016.92 "/>
<polyline clip-path="url(#clip100)" style="stroke:#000000; stroke-linecap:round; stroke-linejoin:round; stroke-width:4; stroke-opacity:1; fill:none" points="297.135,47.2441 1489.76,47.2441 "/>
<polyline clip-path="url(#clip100)" style="stroke:#000000; stroke-linecap:round; stroke-linejoin:round; stroke-width:4; stroke-opacity:1; fill:none" points="362.732,1016.92 362.732,998.022 "/>
<polyline clip-path="url(#clip100)" style="stroke:#000000; stroke-linecap:round; stroke-linejoin:round; stroke-width:4; stroke-opacity:1; fill:none" points="575.019,1016.92 575.019,998.022 "/>
<polyline clip-path="url(#clip100)" style="stroke:#000000; stroke-linecap:round; stroke-linejoin:round; stroke-width:4; stroke-opacity:1; fill:none" points="787.306,1016.92 787.306,998.022 "/>
<polyline clip-path="url(#clip100)" style="stroke:#000000; stroke-linecap:round; stroke-linejoin:round; stroke-width:4; stroke-opacity:1; fill:none" points="999.593,1016.92 999.593,998.022 "/>
<polyline clip-path="url(#clip100)" style="stroke:#000000; stroke-linecap:round; stroke-linejoin:round; stroke-width:4; stroke-opacity:1; fill:none" points="1211.88,1016.92 1211.88,998.022 "/>
<polyline clip-path="url(#clip100)" style="stroke:#000000; stroke-linecap:round; stroke-linejoin:round; stroke-width:4; stroke-opacity:1; fill:none" points="1424.17,1016.92 1424.17,998.022 "/>
<polyline clip-path="url(#clip100)" style="stroke:#000000; stroke-linecap:round; stroke-linejoin:round; stroke-width:4; stroke-opacity:1; fill:none" points="362.732,47.2441 362.732,66.1417 "/>
<polyline clip-path="url(#clip100)" style="stroke:#000000; stroke-linecap:round; stroke-linejoin:round; stroke-width:4; stroke-opacity:1; fill:none" points="575.019,47.2441 575.019,66.1417 "/>
<polyline clip-path="url(#clip100)" style="stroke:#000000; stroke-linecap:round; stroke-linejoin:round; stroke-width:4; stroke-opacity:1; fill:none" points="787.306,47.2441 787.306,66.1417 "/>
<polyline clip-path="url(#clip100)" style="stroke:#000000; stroke-linecap:round; stroke-linejoin:round; stroke-width:4; stroke-opacity:1; fill:none" points="999.593,47.2441 999.593,66.1417 "/>
<polyline clip-path="url(#clip100)" style="stroke:#000000; stroke-linecap:round; stroke-linejoin:round; stroke-width:4; stroke-opacity:1; fill:none" points="1211.88,47.2441 1211.88,66.1417 "/>
<polyline clip-path="url(#clip100)" style="stroke:#000000; stroke-linecap:round; stroke-linejoin:round; stroke-width:4; stroke-opacity:1; fill:none" points="1424.17,47.2441 1424.17,66.1417 "/>
<path clip-path="url(#clip100)" d="M346.835 1059.56 Q347.132 1059.85 347.132 1060.27 Q347.132 1060.69 346.835 1060.99 Q346.539 1061.28 346.119 1061.28 L314.449 1061.28 Q314.029 1061.28 313.733 1060.99 Q313.436 1060.69 313.436 1060.27 Q313.436 1059.85 313.733 1059.56 Q314.029 1059.26 314.449 1059.26 L346.119 1059.26 Q346.539 1059.26 346.835 1059.56 Z" fill="#000000" fill-rule="nonzero" fill-opacity="1" /><path clip-path="url(#clip100)" d="M354.444 1044.04 L354.444 1042.46 Q360.521 1042.46 363.658 1039.22 Q364.523 1039.22 364.671 1039.42 Q364.819 1039.62 364.819 1040.53 L364.819 1068.92 Q364.819 1070.42 365.56 1070.89 Q366.302 1071.36 369.538 1071.36 L371.143 1071.36 L371.143 1072.92 Q369.365 1072.77 362.942 1072.77 Q356.519 1072.77 354.765 1072.92 L354.765 1071.36 L356.371 1071.36 Q359.558 1071.36 360.323 1070.92 Q361.089 1070.45 361.089 1068.92 L361.089 1042.71 Q358.446 1044.04 354.444 1044.04 Z" fill="#000000" fill-rule="nonzero" fill-opacity="1" /><path clip-path="url(#clip100)" d="M380.308 1072.1 Q379.543 1071.29 379.543 1070.23 Q379.543 1069.16 380.308 1068.4 Q381.074 1067.61 382.235 1067.61 Q383.347 1067.61 384.088 1068.35 Q384.854 1069.07 384.854 1070.25 Q384.854 1071.41 384.039 1072.18 Q383.248 1072.92 382.235 1072.92 Q381.074 1072.92 380.308 1072.1 Z" fill="#000000" fill-rule="nonzero" fill-opacity="1" /><path clip-path="url(#clip100)" d="M391.82 1064.77 Q391.82 1063.26 392.635 1062.69 Q393.451 1062.1 394.315 1062.1 Q395.476 1062.1 396.143 1062.84 Q396.835 1063.56 396.835 1064.57 Q396.835 1065.58 396.143 1066.32 Q395.476 1067.04 394.315 1067.04 Q393.747 1067.04 393.451 1066.94 Q394.118 1069.26 396.143 1070.94 Q398.194 1072.62 400.886 1072.62 Q404.271 1072.62 406.296 1069.34 Q407.507 1067.21 407.507 1062.4 Q407.507 1058.15 406.593 1056.02 Q405.185 1052.79 402.294 1052.79 Q398.194 1052.79 395.773 1056.32 Q395.476 1056.76 395.13 1056.79 Q394.636 1056.79 394.513 1056.52 Q394.414 1056.22 394.414 1055.45 L394.414 1040.48 Q394.414 1039.27 394.908 1039.27 Q395.106 1039.27 395.526 1039.42 Q398.712 1040.83 402.245 1040.85 Q405.876 1040.85 409.137 1039.37 Q409.384 1039.22 409.532 1039.22 Q410.027 1039.22 410.051 1039.79 Q410.051 1039.99 409.631 1040.58 Q409.236 1041.15 408.371 1041.92 Q407.507 1042.66 406.395 1043.37 Q405.283 1044.09 403.653 1044.59 Q402.047 1045.05 400.269 1045.05 Q398.144 1045.05 395.97 1044.39 L395.97 1054.24 Q398.589 1051.67 402.393 1051.67 Q406.445 1051.67 409.236 1054.94 Q412.028 1058.2 412.028 1062.74 Q412.028 1067.51 408.717 1070.77 Q405.432 1074.03 400.985 1074.03 Q396.934 1074.03 394.365 1071.14 Q391.82 1068.25 391.82 1064.77 Z" fill="#000000" fill-rule="nonzero" fill-opacity="1" /><path clip-path="url(#clip100)" d="M558.851 1059.56 Q559.147 1059.85 559.147 1060.27 Q559.147 1060.69 558.851 1060.99 Q558.554 1061.28 558.134 1061.28 L526.465 1061.28 Q526.045 1061.28 525.748 1060.99 Q525.452 1060.69 525.452 1060.27 Q525.452 1059.85 525.748 1059.56 Q526.045 1059.26 526.465 1059.26 L558.134 1059.26 Q558.554 1059.26 558.851 1059.56 Z" fill="#000000" fill-rule="nonzero" fill-opacity="1" /><path clip-path="url(#clip100)" d="M566.459 1044.04 L566.459 1042.46 Q572.536 1042.46 575.674 1039.22 Q576.538 1039.22 576.686 1039.42 Q576.835 1039.62 576.835 1040.53 L576.835 1068.92 Q576.835 1070.42 577.576 1070.89 Q578.317 1071.36 581.553 1071.36 L583.159 1071.36 L583.159 1072.92 Q581.38 1072.77 574.957 1072.77 Q568.534 1072.77 566.78 1072.92 L566.78 1071.36 L568.386 1071.36 Q571.573 1071.36 572.339 1070.92 Q573.104 1070.45 573.104 1068.92 L573.104 1042.71 Q570.461 1044.04 566.459 1044.04 Z" fill="#000000" fill-rule="nonzero" fill-opacity="1" /><path clip-path="url(#clip100)" d="M592.324 1072.1 Q591.558 1071.29 591.558 1070.23 Q591.558 1069.16 592.324 1068.4 Q593.089 1067.61 594.251 1067.61 Q595.362 1067.61 596.103 1068.35 Q596.869 1069.07 596.869 1070.25 Q596.869 1071.41 596.054 1072.18 Q595.263 1072.92 594.251 1072.92 Q593.089 1072.92 592.324 1072.1 Z" fill="#000000" fill-rule="nonzero" fill-opacity="1" /><path clip-path="url(#clip100)" d="M603.292 1056.74 Q603.292 1049.3 605.169 1045.25 Q607.788 1039.22 613.964 1039.22 Q615.273 1039.22 616.632 1039.6 Q618.015 1039.94 619.744 1041.3 Q621.498 1042.66 622.561 1044.88 Q624.586 1049.18 624.586 1056.74 Q624.586 1064.13 622.709 1068.15 Q619.967 1074.03 613.914 1074.03 Q611.642 1074.03 609.32 1072.87 Q607.022 1071.71 605.565 1068.92 Q603.292 1064.74 603.292 1056.74 M607.492 1056.12 Q607.492 1063.75 608.035 1066.79 Q608.653 1070.08 610.332 1071.51 Q612.037 1072.92 613.914 1072.92 Q615.94 1072.92 617.62 1071.41 Q619.324 1069.88 619.843 1066.6 Q620.411 1063.36 620.387 1056.12 Q620.387 1049.08 619.893 1046.26 Q619.226 1042.98 617.447 1041.67 Q615.693 1040.34 613.914 1040.34 Q613.247 1040.34 612.531 1040.53 Q611.839 1040.73 610.827 1041.3 Q609.814 1041.87 609.023 1043.28 Q608.257 1044.68 607.887 1046.81 Q607.492 1049.55 607.492 1056.12 Z" fill="#000000" fill-rule="nonzero" fill-opacity="1" /><path clip-path="url(#clip100)" d="M771.409 1059.56 Q771.706 1059.85 771.706 1060.27 Q771.706 1060.69 771.409 1060.99 Q771.113 1061.28 770.693 1061.28 L739.023 1061.28 Q738.603 1061.28 738.307 1060.99 Q738.01 1060.69 738.01 1060.27 Q738.01 1059.85 738.307 1059.56 Q738.603 1059.26 739.023 1059.26 L770.693 1059.26 Q771.113 1059.26 771.409 1059.56 Z" fill="#000000" fill-rule="nonzero" fill-opacity="1" /><path clip-path="url(#clip100)" d="M776.498 1056.74 Q776.498 1049.3 778.376 1045.25 Q780.994 1039.22 787.17 1039.22 Q788.479 1039.22 789.838 1039.6 Q791.221 1039.94 792.951 1041.3 Q794.705 1042.66 795.767 1044.88 Q797.793 1049.18 797.793 1056.74 Q797.793 1064.13 795.915 1068.15 Q793.173 1074.03 787.121 1074.03 Q784.848 1074.03 782.526 1072.87 Q780.229 1071.71 778.771 1068.92 Q776.498 1064.74 776.498 1056.74 M780.698 1056.12 Q780.698 1063.75 781.241 1066.79 Q781.859 1070.08 783.539 1071.51 Q785.243 1072.92 787.121 1072.92 Q789.146 1072.92 790.826 1071.41 Q792.531 1069.88 793.05 1066.6 Q793.618 1063.36 793.593 1056.12 Q793.593 1049.08 793.099 1046.26 Q792.432 1042.98 790.653 1041.67 Q788.899 1040.34 787.121 1040.34 Q786.454 1040.34 785.737 1040.53 Q785.046 1040.73 784.033 1041.3 Q783.02 1041.87 782.229 1043.28 Q781.464 1044.68 781.093 1046.81 Q780.698 1049.55 780.698 1056.12 Z" fill="#000000" fill-rule="nonzero" fill-opacity="1" /><path clip-path="url(#clip100)" d="M804.882 1072.1 Q804.117 1071.29 804.117 1070.23 Q804.117 1069.16 804.882 1068.4 Q805.648 1067.61 806.809 1067.61 Q807.921 1067.61 808.662 1068.35 Q809.428 1069.07 809.428 1070.25 Q809.428 1071.41 808.613 1072.18 Q807.822 1072.92 806.809 1072.92 Q805.648 1072.92 804.882 1072.1 Z" fill="#000000" fill-rule="nonzero" fill-opacity="1" /><path clip-path="url(#clip100)" d="M816.394 1064.77 Q816.394 1063.26 817.209 1062.69 Q818.025 1062.1 818.889 1062.1 Q820.05 1062.1 820.717 1062.84 Q821.409 1063.56 821.409 1064.57 Q821.409 1065.58 820.717 1066.32 Q820.05 1067.04 818.889 1067.04 Q818.321 1067.04 818.025 1066.94 Q818.692 1069.26 820.717 1070.94 Q822.768 1072.62 825.46 1072.62 Q828.845 1072.62 830.87 1069.34 Q832.081 1067.21 832.081 1062.4 Q832.081 1058.15 831.167 1056.02 Q829.759 1052.79 826.868 1052.79 Q822.768 1052.79 820.347 1056.32 Q820.05 1056.76 819.704 1056.79 Q819.21 1056.79 819.087 1056.52 Q818.988 1056.22 818.988 1055.45 L818.988 1040.48 Q818.988 1039.27 819.482 1039.27 Q819.68 1039.27 820.1 1039.42 Q823.286 1040.83 826.819 1040.85 Q830.45 1040.85 833.711 1039.37 Q833.958 1039.22 834.107 1039.22 Q834.601 1039.22 834.625 1039.79 Q834.625 1039.99 834.205 1040.58 Q833.81 1041.15 832.945 1041.92 Q832.081 1042.66 830.969 1043.37 Q829.858 1044.09 828.227 1044.59 Q826.621 1045.05 824.843 1045.05 Q822.718 1045.05 820.544 1044.39 L820.544 1054.24 Q823.163 1051.67 826.967 1051.67 Q831.019 1051.67 833.81 1054.94 Q836.602 1058.2 836.602 1062.74 Q836.602 1067.51 833.291 1070.77 Q830.006 1074.03 825.559 1074.03 Q821.508 1074.03 818.939 1071.14 Q816.394 1068.25 816.394 1064.77 Z" fill="#000000" fill-rule="nonzero" fill-opacity="1" /><path clip-path="url(#clip100)" d="M969.27 1056.74 Q969.27 1049.3 971.147 1045.25 Q973.766 1039.22 979.942 1039.22 Q981.251 1039.22 982.609 1039.6 Q983.993 1039.94 985.722 1041.3 Q987.476 1042.66 988.538 1044.88 Q990.564 1049.18 990.564 1056.74 Q990.564 1064.13 988.687 1068.15 Q985.944 1074.03 979.892 1074.03 Q977.619 1074.03 975.297 1072.87 Q973 1071.71 971.542 1068.92 Q969.27 1064.74 969.27 1056.74 M973.469 1056.12 Q973.469 1063.75 974.013 1066.79 Q974.63 1070.08 976.31 1071.51 Q978.015 1072.92 979.892 1072.92 Q981.918 1072.92 983.598 1071.41 Q985.302 1069.88 985.821 1066.6 Q986.389 1063.36 986.364 1056.12 Q986.364 1049.08 985.87 1046.26 Q985.203 1042.98 983.425 1041.67 Q981.671 1040.34 979.892 1040.34 Q979.225 1040.34 978.509 1040.53 Q977.817 1040.73 976.804 1041.3 Q975.791 1041.87 975.001 1043.28 Q974.235 1044.68 973.864 1046.81 Q973.469 1049.55 973.469 1056.12 Z" fill="#000000" fill-rule="nonzero" fill-opacity="1" /><path clip-path="url(#clip100)" d="M997.654 1072.1 Q996.888 1071.29 996.888 1070.23 Q996.888 1069.16 997.654 1068.4 Q998.42 1067.61 999.581 1067.61 Q1000.69 1067.61 1001.43 1068.35 Q1002.2 1069.07 1002.2 1070.25 Q1002.2 1071.41 1001.38 1072.18 Q1000.59 1072.92 999.581 1072.92 Q998.42 1072.92 997.654 1072.1 Z" fill="#000000" fill-rule="nonzero" fill-opacity="1" /><path clip-path="url(#clip100)" d="M1008.62 1056.74 Q1008.62 1049.3 1010.5 1045.25 Q1013.12 1039.22 1019.29 1039.22 Q1020.6 1039.22 1021.96 1039.6 Q1023.35 1039.94 1025.07 1041.3 Q1026.83 1042.66 1027.89 1044.88 Q1029.92 1049.18 1029.92 1056.74 Q1029.92 1064.13 1028.04 1068.15 Q1025.3 1074.03 1019.24 1074.03 Q1016.97 1074.03 1014.65 1072.87 Q1012.35 1071.71 1010.89 1068.92 Q1008.62 1064.74 1008.62 1056.74 M1012.82 1056.12 Q1012.82 1063.75 1013.37 1066.79 Q1013.98 1070.08 1015.66 1071.51 Q1017.37 1072.92 1019.24 1072.92 Q1021.27 1072.92 1022.95 1071.41 Q1024.65 1069.88 1025.17 1066.6 Q1025.74 1063.36 1025.72 1056.12 Q1025.72 1049.08 1025.22 1046.26 Q1024.56 1042.98 1022.78 1041.67 Q1021.02 1040.34 1019.24 1040.34 Q1018.58 1040.34 1017.86 1040.53 Q1017.17 1040.73 1016.16 1041.3 Q1015.14 1041.87 1014.35 1043.28 Q1013.59 1044.68 1013.22 1046.81 Q1012.82 1049.55 1012.82 1056.12 Z" fill="#000000" fill-rule="nonzero" fill-opacity="1" /><path clip-path="url(#clip100)" d="M1181.83 1056.74 Q1181.83 1049.3 1183.71 1045.25 Q1186.32 1039.22 1192.5 1039.22 Q1193.81 1039.22 1195.17 1039.6 Q1196.55 1039.94 1198.28 1041.3 Q1200.03 1042.66 1201.1 1044.88 Q1203.12 1049.18 1203.12 1056.74 Q1203.12 1064.13 1201.25 1068.15 Q1198.5 1074.03 1192.45 1074.03 Q1190.18 1074.03 1187.86 1072.87 Q1185.56 1071.71 1184.1 1068.92 Q1181.83 1064.74 1181.83 1056.74 M1186.03 1056.12 Q1186.03 1063.75 1186.57 1066.79 Q1187.19 1070.08 1188.87 1071.51 Q1190.57 1072.92 1192.45 1072.92 Q1194.48 1072.92 1196.16 1071.41 Q1197.86 1069.88 1198.38 1066.6 Q1198.95 1063.36 1198.92 1056.12 Q1198.92 1049.08 1198.43 1046.26 Q1197.76 1042.98 1195.98 1041.67 Q1194.23 1040.34 1192.45 1040.34 Q1191.78 1040.34 1191.07 1040.53 Q1190.38 1040.73 1189.36 1041.3 Q1188.35 1041.87 1187.56 1043.28 Q1186.79 1044.68 1186.42 1046.81 Q1186.03 1049.55 1186.03 1056.12 Z" fill="#000000" fill-rule="nonzero" fill-opacity="1" /><path clip-path="url(#clip100)" d="M1210.21 1072.1 Q1209.45 1071.29 1209.45 1070.23 Q1209.45 1069.16 1210.21 1068.4 Q1210.98 1067.61 1212.14 1067.61 Q1213.25 1067.61 1213.99 1068.35 Q1214.76 1069.07 1214.76 1070.25 Q1214.76 1071.41 1213.94 1072.18 Q1213.15 1072.92 1212.14 1072.92 Q1210.98 1072.92 1210.21 1072.1 Z" fill="#000000" fill-rule="nonzero" fill-opacity="1" /><path clip-path="url(#clip100)" d="M1221.72 1064.77 Q1221.72 1063.26 1222.54 1062.69 Q1223.35 1062.1 1224.22 1062.1 Q1225.38 1062.1 1226.05 1062.84 Q1226.74 1063.56 1226.74 1064.57 Q1226.74 1065.58 1226.05 1066.32 Q1225.38 1067.04 1224.22 1067.04 Q1223.65 1067.04 1223.35 1066.94 Q1224.02 1069.26 1226.05 1070.94 Q1228.1 1072.62 1230.79 1072.62 Q1234.17 1072.62 1236.2 1069.34 Q1237.41 1067.21 1237.41 1062.4 Q1237.41 1058.15 1236.5 1056.02 Q1235.09 1052.79 1232.2 1052.79 Q1228.1 1052.79 1225.68 1056.32 Q1225.38 1056.76 1225.03 1056.79 Q1224.54 1056.79 1224.42 1056.52 Q1224.32 1056.22 1224.32 1055.45 L1224.32 1040.48 Q1224.32 1039.27 1224.81 1039.27 Q1225.01 1039.27 1225.43 1039.42 Q1228.62 1040.83 1232.15 1040.85 Q1235.78 1040.85 1239.04 1039.37 Q1239.29 1039.22 1239.44 1039.22 Q1239.93 1039.22 1239.96 1039.79 Q1239.96 1039.99 1239.54 1040.58 Q1239.14 1041.15 1238.28 1041.92 Q1237.41 1042.66 1236.3 1043.37 Q1235.19 1044.09 1233.56 1044.59 Q1231.95 1045.05 1230.17 1045.05 Q1228.05 1045.05 1225.87 1044.39 L1225.87 1054.24 Q1228.49 1051.67 1232.3 1051.67 Q1236.35 1051.67 1239.14 1054.94 Q1241.93 1058.2 1241.93 1062.74 Q1241.93 1067.51 1238.62 1070.77 Q1235.34 1074.03 1230.89 1074.03 Q1226.84 1074.03 1224.27 1071.14 Q1221.72 1068.25 1221.72 1064.77 Z" fill="#000000" fill-rule="nonzero" fill-opacity="1" /><path clip-path="url(#clip100)" d="M1395.1 1044.04 L1395.1 1042.46 Q1401.18 1042.46 1404.32 1039.22 Q1405.18 1039.22 1405.33 1039.42 Q1405.48 1039.62 1405.48 1040.53 L1405.48 1068.92 Q1405.48 1070.42 1406.22 1070.89 Q1406.96 1071.36 1410.2 1071.36 L1411.8 1071.36 L1411.8 1072.92 Q1410.02 1072.77 1403.6 1072.77 Q1397.18 1072.77 1395.42 1072.92 L1395.42 1071.36 L1397.03 1071.36 Q1400.22 1071.36 1400.98 1070.92 Q1401.75 1070.45 1401.75 1068.92 L1401.75 1042.71 Q1399.11 1044.04 1395.1 1044.04 Z" fill="#000000" fill-rule="nonzero" fill-opacity="1" /><path clip-path="url(#clip100)" d="M1420.97 1072.1 Q1420.2 1071.29 1420.2 1070.23 Q1420.2 1069.16 1420.97 1068.4 Q1421.73 1067.61 1422.89 1067.61 Q1424.01 1067.61 1424.75 1068.35 Q1425.51 1069.07 1425.51 1070.25 Q1425.51 1071.41 1424.7 1072.18 Q1423.91 1072.92 1422.89 1072.92 Q1421.73 1072.92 1420.97 1072.1 Z" fill="#000000" fill-rule="nonzero" fill-opacity="1" /><path clip-path="url(#clip100)" d="M1431.94 1056.74 Q1431.94 1049.3 1433.81 1045.25 Q1436.43 1039.22 1442.61 1039.22 Q1443.92 1039.22 1445.28 1039.6 Q1446.66 1039.94 1448.39 1041.3 Q1450.14 1042.66 1451.2 1044.88 Q1453.23 1049.18 1453.23 1056.74 Q1453.23 1064.13 1451.35 1068.15 Q1448.61 1074.03 1442.56 1074.03 Q1440.29 1074.03 1437.96 1072.87 Q1435.67 1071.71 1434.21 1068.92 Q1431.94 1064.74 1431.94 1056.74 M1436.14 1056.12 Q1436.14 1063.75 1436.68 1066.79 Q1437.3 1070.08 1438.98 1071.51 Q1440.68 1072.92 1442.56 1072.92 Q1444.58 1072.92 1446.26 1071.41 Q1447.97 1069.88 1448.49 1066.6 Q1449.06 1063.36 1449.03 1056.12 Q1449.03 1049.08 1448.54 1046.26 Q1447.87 1042.98 1446.09 1041.67 Q1444.34 1040.34 1442.56 1040.34 Q1441.89 1040.34 1441.18 1040.53 Q1440.48 1040.73 1439.47 1041.3 Q1438.46 1041.87 1437.67 1043.28 Q1436.9 1044.68 1436.53 1046.81 Q1436.14 1049.55 1436.14 1056.12 Z" fill="#000000" fill-rule="nonzero" fill-opacity="1" /><path clip-path="url(#clip100)" d="M816.004 1121.96 L816.004 1119.79 Q819.129 1119.99 822.764 1119.99 Q824.089 1119.99 830.339 1119.79 L830.339 1121.96 Q826.364 1121.96 826.364 1123.77 Q826.364 1124.04 826.772 1124.95 L834.585 1144.35 L841.684 1126.62 Q842.091 1125.43 842.091 1124.95 Q842.091 1123.77 841.276 1122.92 Q840.495 1122.03 838.762 1121.96 L838.762 1119.79 Q842.295 1119.99 844.809 1119.99 Q847.662 1119.99 850.006 1119.79 L850.006 1121.96 Q847.934 1121.96 846.473 1122.92 Q845.012 1123.83 844.537 1124.65 Q844.095 1125.43 843.62 1126.62 L834.517 1149.24 Q833.973 1150.57 833.056 1150.57 Q832.445 1150.57 832.173 1150.29 Q831.935 1150.06 831.595 1149.24 L821.575 1124.55 Q820.896 1122.81 820.013 1122.41 Q819.129 1121.96 816.004 1121.96 Z" fill="#000000" fill-rule="nonzero" fill-opacity="1" /><path clip-path="url(#clip100)" d="M852.315 1143.16 Q852.315 1137.25 859.279 1134.13 Q863.457 1132.12 872.084 1131.61 L872.084 1129.06 Q872.084 1124.75 869.808 1122.47 Q867.567 1120.16 864.713 1120.16 Q859.618 1120.16 857.173 1123.36 Q859.245 1123.43 859.992 1124.48 Q860.739 1125.5 860.739 1126.55 Q860.739 1127.94 859.856 1128.86 Q859.007 1129.74 857.546 1129.74 Q856.154 1129.74 855.237 1128.89 Q854.319 1128.01 854.319 1126.48 Q854.319 1123.09 857.376 1120.84 Q860.467 1118.6 864.849 1118.6 Q870.556 1118.6 874.36 1122.44 Q875.549 1123.63 876.126 1125.16 Q876.738 1126.69 876.806 1127.71 Q876.874 1128.69 876.874 1130.66 L876.874 1144.55 Q876.874 1144.96 877.009 1145.64 Q877.145 1146.32 877.757 1147.2 Q878.402 1148.05 879.455 1148.05 Q881.969 1148.05 881.935 1143.6 L881.935 1139.7 L883.701 1139.7 L883.701 1143.6 Q883.701 1147.3 881.731 1148.76 Q879.795 1150.19 877.994 1150.19 Q875.685 1150.19 874.224 1148.49 Q872.764 1146.79 872.56 1144.48 Q871.507 1147.13 869.095 1148.87 Q866.717 1150.57 863.457 1150.57 Q860.943 1150.57 858.565 1149.92 Q856.222 1149.31 854.251 1147.58 Q852.315 1145.81 852.315 1143.16 M857.682 1143.09 Q857.682 1145.67 859.516 1147.34 Q861.351 1149 863.932 1149 Q866.853 1149 869.469 1146.76 Q872.084 1144.48 872.084 1140.04 L872.084 1133.07 Q864.374 1133.34 861.011 1136.43 Q857.682 1139.49 857.682 1143.09 Z" fill="#000000" fill-rule="nonzero" fill-opacity="1" /><path clip-path="url(#clip100)" d="M886.486 1149.78 L886.486 1147.64 Q890.189 1147.64 891.038 1147.2 Q891.887 1146.73 891.887 1144.48 L891.887 1108.31 Q891.887 1105.73 890.97 1105.08 Q890.087 1104.44 886.486 1104.44 L886.486 1102.26 L896.473 1101.52 L896.473 1144.48 Q896.473 1146.73 897.356 1147.2 Q898.239 1147.64 901.907 1147.64 L901.907 1149.78 Q901.058 1149.78 899.292 1149.72 Q897.526 1149.65 896.235 1149.61 Q894.944 1149.58 894.197 1149.58 Q893.382 1149.58 886.486 1149.78 Z" fill="#000000" fill-rule="nonzero" fill-opacity="1" /><path clip-path="url(#clip100)" d="M905.678 1121.96 L905.678 1119.79 L915.902 1119.04 L915.902 1142.14 Q915.902 1143.81 916.038 1144.79 Q916.174 1145.74 916.717 1146.86 Q917.294 1147.98 918.585 1148.49 Q919.91 1149 922.016 1149 Q925.786 1149 928.096 1145.91 Q930.44 1142.82 930.44 1138.24 L930.44 1125.84 Q930.44 1123.26 929.523 1122.61 Q928.605 1121.96 925.005 1121.96 L925.005 1119.79 L935.229 1119.04 L935.229 1143.74 Q935.229 1146.32 936.112 1147 Q937.029 1147.64 940.664 1147.64 L940.664 1149.78 L930.644 1150.57 L930.644 1144.28 Q927.722 1150.53 921.676 1150.57 Q918.619 1150.57 916.513 1149.78 Q914.441 1149 913.388 1148.05 Q912.335 1147.07 911.758 1145.2 Q911.214 1143.33 911.146 1142.18 Q911.078 1141.02 911.078 1138.78 L911.078 1128.35 Q911.078 1123.63 910.399 1122.81 Q909.72 1121.96 905.678 1121.96 Z" fill="#000000" fill-rule="nonzero" fill-opacity="1" /><path clip-path="url(#clip100)" d="M943.959 1134.46 Q943.959 1127.91 948.171 1123.26 Q952.382 1118.6 958.429 1118.6 Q964.543 1118.6 967.702 1122.58 Q970.895 1126.55 970.895 1132.26 Q970.895 1133.31 970.623 1133.51 Q970.351 1133.72 969.162 1133.72 L949.733 1133.72 Q949.733 1140.82 951.839 1144.15 Q954.76 1148.8 959.685 1148.8 Q960.365 1148.8 961.18 1148.66 Q961.995 1148.53 963.66 1147.95 Q965.324 1147.34 966.785 1145.74 Q968.245 1144.15 969.094 1141.63 Q969.298 1140.65 969.977 1140.68 Q970.895 1140.68 970.895 1141.5 Q970.895 1142.11 970.215 1143.5 Q969.57 1144.86 968.313 1146.49 Q967.056 1148.12 964.611 1149.34 Q962.199 1150.57 959.278 1150.57 Q953.164 1150.57 948.544 1145.95 Q943.959 1141.29 943.959 1134.46 M949.801 1132.26 L966.309 1132.26 Q966.309 1130.8 966.037 1129.17 Q965.799 1127.54 965.052 1125.29 Q964.339 1123.02 962.641 1121.59 Q960.942 1120.16 958.429 1120.16 Q957.308 1120.16 956.085 1120.64 Q954.896 1121.12 953.435 1122.27 Q951.975 1123.43 950.956 1126.04 Q949.937 1128.66 949.801 1132.26 Z" fill="#000000" fill-rule="nonzero" fill-opacity="1" /><polyline clip-path="url(#clip100)" style="stroke:#000000; stroke-linecap:round; stroke-linejoin:round; stroke-width:4; stroke-opacity:1; fill:none" points="297.135,1016.92 297.135,47.2441 "/>
<polyline clip-path="url(#clip100)" style="stroke:#000000; stroke-linecap:round; stroke-linejoin:round; stroke-width:4; stroke-opacity:1; fill:none" points="1489.76,1016.92 1489.76,47.2441 "/>
<polyline clip-path="url(#clip100)" style="stroke:#000000; stroke-linecap:round; stroke-linejoin:round; stroke-width:4; stroke-opacity:1; fill:none" points="297.135,1016.92 316.033,1016.92 "/>
<polyline clip-path="url(#clip100)" style="stroke:#000000; stroke-linecap:round; stroke-linejoin:round; stroke-width:4; stroke-opacity:1; fill:none" points="297.135,783.824 316.033,783.824 "/>
<polyline clip-path="url(#clip100)" style="stroke:#000000; stroke-linecap:round; stroke-linejoin:round; stroke-width:4; stroke-opacity:1; fill:none" points="297.135,550.728 316.033,550.728 "/>
<polyline clip-path="url(#clip100)" style="stroke:#000000; stroke-linecap:round; stroke-linejoin:round; stroke-width:4; stroke-opacity:1; fill:none" points="297.135,317.631 316.033,317.631 "/>
<polyline clip-path="url(#clip100)" style="stroke:#000000; stroke-linecap:round; stroke-linejoin:round; stroke-width:4; stroke-opacity:1; fill:none" points="297.135,84.5352 316.033,84.5352 "/>
<polyline clip-path="url(#clip100)" style="stroke:#000000; stroke-linecap:round; stroke-linejoin:round; stroke-width:4; stroke-opacity:1; fill:none" points="1489.76,1016.92 1470.87,1016.92 "/>
<polyline clip-path="url(#clip100)" style="stroke:#000000; stroke-linecap:round; stroke-linejoin:round; stroke-width:4; stroke-opacity:1; fill:none" points="1489.76,783.824 1470.87,783.824 "/>
<polyline clip-path="url(#clip100)" style="stroke:#000000; stroke-linecap:round; stroke-linejoin:round; stroke-width:4; stroke-opacity:1; fill:none" points="1489.76,550.728 1470.87,550.728 "/>
<polyline clip-path="url(#clip100)" style="stroke:#000000; stroke-linecap:round; stroke-linejoin:round; stroke-width:4; stroke-opacity:1; fill:none" points="1489.76,317.631 1470.87,317.631 "/>
<polyline clip-path="url(#clip100)" style="stroke:#000000; stroke-linecap:round; stroke-linejoin:round; stroke-width:4; stroke-opacity:1; fill:none" points="1489.76,84.5352 1470.87,84.5352 "/>
<path clip-path="url(#clip100)" d="M187.192 1018.02 Q187.192 1010.58 189.07 1006.53 Q191.688 1000.5 197.864 1000.5 Q199.173 1000.5 200.532 1000.88 Q201.915 1001.22 203.645 1002.58 Q205.399 1003.94 206.461 1006.16 Q208.487 1010.46 208.487 1018.02 Q208.487 1025.41 206.609 1029.43 Q203.867 1035.31 197.815 1035.31 Q195.542 1035.31 193.22 1034.15 Q190.922 1032.99 189.465 1030.2 Q187.192 1026.02 187.192 1018.02 M191.392 1017.4 Q191.392 1025.03 191.935 1028.07 Q192.553 1031.36 194.233 1032.79 Q195.937 1034.2 197.815 1034.2 Q199.84 1034.2 201.52 1032.69 Q203.225 1031.16 203.744 1027.88 Q204.312 1024.64 204.287 1017.4 Q204.287 1010.36 203.793 1007.54 Q203.126 1004.26 201.347 1002.95 Q199.593 1001.62 197.815 1001.62 Q197.148 1001.62 196.431 1001.81 Q195.74 1002.01 194.727 1002.58 Q193.714 1003.15 192.923 1004.56 Q192.158 1005.96 191.787 1008.09 Q191.392 1010.83 191.392 1017.4 Z" fill="#000000" fill-rule="nonzero" fill-opacity="1" /><path clip-path="url(#clip100)" d="M215.576 1033.38 Q214.811 1032.57 214.811 1031.51 Q214.811 1030.44 215.576 1029.68 Q216.342 1028.89 217.503 1028.89 Q218.615 1028.89 219.356 1029.63 Q220.122 1030.35 220.122 1031.53 Q220.122 1032.69 219.307 1033.46 Q218.516 1034.2 217.503 1034.2 Q216.342 1034.2 215.576 1033.38 Z" fill="#000000" fill-rule="nonzero" fill-opacity="1" /><path clip-path="url(#clip100)" d="M226.545 1018.02 Q226.545 1010.58 228.422 1006.53 Q231.041 1000.5 237.217 1000.5 Q238.526 1000.5 239.885 1000.88 Q241.268 1001.22 242.997 1002.58 Q244.751 1003.94 245.813 1006.16 Q247.839 1010.46 247.839 1018.02 Q247.839 1025.41 245.962 1029.43 Q243.22 1035.31 237.167 1035.31 Q234.894 1035.31 232.572 1034.15 Q230.275 1032.99 228.817 1030.2 Q226.545 1026.02 226.545 1018.02 M230.744 1017.4 Q230.744 1025.03 231.288 1028.07 Q231.905 1031.36 233.585 1032.79 Q235.29 1034.2 237.167 1034.2 Q239.193 1034.2 240.873 1032.69 Q242.577 1031.16 243.096 1027.88 Q243.664 1024.64 243.639 1017.4 Q243.639 1010.36 243.145 1007.54 Q242.478 1004.26 240.7 1002.95 Q238.946 1001.62 237.167 1001.62 Q236.5 1001.62 235.784 1001.81 Q235.092 1002.01 234.079 1002.58 Q233.066 1003.15 232.276 1004.56 Q231.51 1005.96 231.14 1008.09 Q230.744 1010.83 230.744 1017.4 Z" fill="#000000" fill-rule="nonzero" fill-opacity="1" /><path clip-path="url(#clip100)" d="M251.841 1018.02 Q251.841 1010.58 253.718 1006.53 Q256.337 1000.5 262.513 1000.5 Q263.822 1000.5 265.181 1000.88 Q266.564 1001.22 268.293 1002.58 Q270.047 1003.94 271.11 1006.16 Q273.135 1010.46 273.135 1018.02 Q273.135 1025.41 271.258 1029.43 Q268.516 1035.31 262.463 1035.31 Q260.191 1035.31 257.869 1034.15 Q255.571 1032.99 254.114 1030.2 Q251.841 1026.02 251.841 1018.02 M256.041 1017.4 Q256.041 1025.03 256.584 1028.07 Q257.202 1031.36 258.881 1032.79 Q260.586 1034.2 262.463 1034.2 Q264.489 1034.2 266.169 1032.69 Q267.873 1031.16 268.392 1027.88 Q268.96 1024.64 268.936 1017.4 Q268.936 1010.36 268.442 1007.54 Q267.775 1004.26 265.996 1002.95 Q264.242 1001.62 262.463 1001.62 Q261.796 1001.62 261.08 1001.81 Q260.388 1002.01 259.376 1002.58 Q258.363 1003.15 257.572 1004.56 Q256.806 1005.96 256.436 1008.09 Q256.041 1010.83 256.041 1017.4 Z" fill="#000000" fill-rule="nonzero" fill-opacity="1" /><path clip-path="url(#clip100)" d="M187.736 784.923 Q187.736 777.487 189.613 773.436 Q192.232 767.408 198.408 767.408 Q199.717 767.408 201.076 767.779 Q202.459 768.125 204.188 769.483 Q205.942 770.842 207.004 773.065 Q209.03 777.364 209.03 784.923 Q209.03 792.309 207.153 796.336 Q204.411 802.215 198.358 802.215 Q196.085 802.215 193.763 801.054 Q191.466 799.893 190.008 797.102 Q187.736 792.927 187.736 784.923 M191.935 784.305 Q191.935 791.939 192.479 794.977 Q193.096 798.263 194.776 799.696 Q196.481 801.104 198.358 801.104 Q200.384 801.104 202.064 799.597 Q203.768 798.065 204.287 794.78 Q204.855 791.543 204.83 784.305 Q204.83 777.265 204.336 774.449 Q203.669 771.163 201.891 769.854 Q200.137 768.52 198.358 768.52 Q197.691 768.52 196.975 768.718 Q196.283 768.915 195.27 769.483 Q194.257 770.052 193.467 771.46 Q192.701 772.868 192.331 774.992 Q191.935 777.734 191.935 784.305 Z" fill="#000000" fill-rule="nonzero" fill-opacity="1" /><path clip-path="url(#clip100)" d="M216.12 800.288 Q215.354 799.473 215.354 798.411 Q215.354 797.349 216.12 796.583 Q216.886 795.792 218.047 795.792 Q219.158 795.792 219.9 796.534 Q220.665 797.25 220.665 798.436 Q220.665 799.597 219.85 800.363 Q219.06 801.104 218.047 801.104 Q216.886 801.104 216.12 800.288 Z" fill="#000000" fill-rule="nonzero" fill-opacity="1" /><path clip-path="url(#clip100)" d="M227.632 801.104 Q227.632 800.19 227.706 799.918 Q227.805 799.646 228.2 799.226 L237.908 788.406 Q243.22 782.428 243.22 777.216 Q243.22 773.831 241.441 771.41 Q239.687 768.989 236.451 768.989 Q234.227 768.989 232.35 770.348 Q230.473 771.707 229.608 774.128 Q229.756 774.078 230.275 774.078 Q231.535 774.078 232.227 774.869 Q232.943 775.659 232.943 776.721 Q232.943 778.08 232.054 778.747 Q231.189 779.389 230.324 779.389 Q229.979 779.389 229.509 779.315 Q229.064 779.241 228.348 778.55 Q227.632 777.833 227.632 776.573 Q227.632 773.041 230.3 770.224 Q232.992 767.408 237.093 767.408 Q241.737 767.408 244.776 770.175 Q247.839 772.917 247.839 777.216 Q247.839 778.722 247.37 780.106 Q246.925 781.465 246.307 782.527 Q245.715 783.589 244.084 785.294 Q242.454 786.998 241.144 788.209 Q239.835 789.419 236.895 791.988 L231.535 797.201 L240.65 797.201 Q245.097 797.201 245.443 796.805 Q245.937 796.089 246.554 792.309 L247.839 792.309 L246.406 801.104 L227.632 801.104 Z" fill="#000000" fill-rule="nonzero" fill-opacity="1" /><path clip-path="url(#clip100)" d="M252.928 792.952 Q252.928 791.445 253.743 790.877 Q254.558 790.284 255.423 790.284 Q256.584 790.284 257.251 791.025 Q257.943 791.741 257.943 792.754 Q257.943 793.767 257.251 794.508 Q256.584 795.224 255.423 795.224 Q254.855 795.224 254.558 795.125 Q255.225 797.448 257.251 799.127 Q259.301 800.807 261.994 800.807 Q265.378 800.807 267.404 797.522 Q268.615 795.397 268.615 790.58 Q268.615 786.331 267.701 784.207 Q266.292 780.97 263.402 780.97 Q259.301 780.97 256.88 784.503 Q256.584 784.948 256.238 784.972 Q255.744 784.972 255.621 784.701 Q255.522 784.404 255.522 783.638 L255.522 768.668 Q255.522 767.458 256.016 767.458 Q256.213 767.458 256.633 767.606 Q259.82 769.014 263.353 769.039 Q266.984 769.039 270.245 767.557 Q270.492 767.408 270.64 767.408 Q271.134 767.408 271.159 767.976 Q271.159 768.174 270.739 768.767 Q270.344 769.335 269.479 770.101 Q268.615 770.842 267.503 771.558 Q266.391 772.275 264.761 772.769 Q263.155 773.238 261.376 773.238 Q259.252 773.238 257.078 772.571 L257.078 782.428 Q259.697 779.859 263.501 779.859 Q267.552 779.859 270.344 783.12 Q273.135 786.38 273.135 790.926 Q273.135 795.694 269.825 798.954 Q266.539 802.215 262.093 802.215 Q258.042 802.215 255.472 799.325 Q252.928 796.435 252.928 792.952 Z" fill="#000000" fill-rule="nonzero" fill-opacity="1" /><path clip-path="url(#clip100)" d="M187.192 551.827 Q187.192 544.391 189.07 540.34 Q191.688 534.312 197.864 534.312 Q199.173 534.312 200.532 534.683 Q201.915 535.029 203.645 536.387 Q205.399 537.746 206.461 539.969 Q208.487 544.268 208.487 551.827 Q208.487 559.213 206.609 563.24 Q203.867 569.119 197.815 569.119 Q195.542 569.119 193.22 567.958 Q190.922 566.797 189.465 564.006 Q187.192 559.831 187.192 551.827 M191.392 551.209 Q191.392 558.843 191.935 561.881 Q192.553 565.167 194.233 566.599 Q195.937 568.008 197.815 568.008 Q199.84 568.008 201.52 566.501 Q203.225 564.969 203.744 561.683 Q204.312 558.447 204.287 551.209 Q204.287 544.169 203.793 541.353 Q203.126 538.067 201.347 536.758 Q199.593 535.424 197.815 535.424 Q197.148 535.424 196.431 535.621 Q195.74 535.819 194.727 536.387 Q193.714 536.955 192.923 538.364 Q192.158 539.772 191.787 541.896 Q191.392 544.638 191.392 551.209 Z" fill="#000000" fill-rule="nonzero" fill-opacity="1" /><path clip-path="url(#clip100)" d="M215.576 567.192 Q214.811 566.377 214.811 565.315 Q214.811 564.253 215.576 563.487 Q216.342 562.696 217.503 562.696 Q218.615 562.696 219.356 563.437 Q220.122 564.154 220.122 565.34 Q220.122 566.501 219.307 567.266 Q218.516 568.008 217.503 568.008 Q216.342 568.008 215.576 567.192 Z" fill="#000000" fill-rule="nonzero" fill-opacity="1" /><path clip-path="url(#clip100)" d="M227.088 559.855 Q227.088 558.349 227.903 557.78 Q228.719 557.187 229.583 557.187 Q230.744 557.187 231.411 557.929 Q232.103 558.645 232.103 559.658 Q232.103 560.671 231.411 561.412 Q230.744 562.128 229.583 562.128 Q229.015 562.128 228.719 562.029 Q229.386 564.351 231.411 566.031 Q233.462 567.711 236.154 567.711 Q239.539 567.711 241.564 564.426 Q242.775 562.301 242.775 557.484 Q242.775 553.235 241.861 551.11 Q240.453 547.874 237.562 547.874 Q233.462 547.874 231.041 551.407 Q230.744 551.852 230.398 551.876 Q229.904 551.876 229.781 551.605 Q229.682 551.308 229.682 550.542 L229.682 535.572 Q229.682 534.362 230.176 534.362 Q230.374 534.362 230.794 534.51 Q233.98 535.918 237.513 535.943 Q241.144 535.943 244.405 534.46 Q244.652 534.312 244.801 534.312 Q245.295 534.312 245.319 534.88 Q245.319 535.078 244.899 535.671 Q244.504 536.239 243.639 537.005 Q242.775 537.746 241.663 538.462 Q240.552 539.179 238.921 539.673 Q237.315 540.142 235.537 540.142 Q233.412 540.142 231.238 539.475 L231.238 549.332 Q233.857 546.763 237.661 546.763 Q241.713 546.763 244.504 550.023 Q247.296 553.284 247.296 557.83 Q247.296 562.598 243.985 565.858 Q240.7 569.119 236.253 569.119 Q232.202 569.119 229.633 566.229 Q227.088 563.339 227.088 559.855 Z" fill="#000000" fill-rule="nonzero" fill-opacity="1" /><path clip-path="url(#clip100)" d="M251.841 551.827 Q251.841 544.391 253.718 540.34 Q256.337 534.312 262.513 534.312 Q263.822 534.312 265.181 534.683 Q266.564 535.029 268.293 536.387 Q270.047 537.746 271.11 539.969 Q273.135 544.268 273.135 551.827 Q273.135 559.213 271.258 563.24 Q268.516 569.119 262.463 569.119 Q260.191 569.119 257.869 567.958 Q255.571 566.797 254.114 564.006 Q251.841 559.831 251.841 551.827 M256.041 551.209 Q256.041 558.843 256.584 561.881 Q257.202 565.167 258.881 566.599 Q260.586 568.008 262.463 568.008 Q264.489 568.008 266.169 566.501 Q267.873 564.969 268.392 561.683 Q268.96 558.447 268.936 551.209 Q268.936 544.169 268.442 541.353 Q267.775 538.067 265.996 536.758 Q264.242 535.424 262.463 535.424 Q261.796 535.424 261.08 535.621 Q260.388 535.819 259.376 536.387 Q258.363 536.955 257.572 538.364 Q256.806 539.772 256.436 541.896 Q256.041 544.638 256.041 551.209 Z" fill="#000000" fill-rule="nonzero" fill-opacity="1" /><path clip-path="url(#clip100)" d="M187.736 318.731 Q187.736 311.295 189.613 307.244 Q192.232 301.216 198.408 301.216 Q199.717 301.216 201.076 301.587 Q202.459 301.932 204.188 303.291 Q205.942 304.65 207.004 306.873 Q209.03 311.171 209.03 318.731 Q209.03 326.117 207.153 330.144 Q204.411 336.023 198.358 336.023 Q196.085 336.023 193.763 334.862 Q191.466 333.701 190.008 330.909 Q187.736 326.735 187.736 318.731 M191.935 318.113 Q191.935 325.746 192.479 328.785 Q193.096 332.071 194.776 333.503 Q196.481 334.911 198.358 334.911 Q200.384 334.911 202.064 333.404 Q203.768 331.873 204.287 328.587 Q204.855 325.351 204.83 318.113 Q204.83 311.073 204.336 308.256 Q203.669 304.971 201.891 303.662 Q200.137 302.328 198.358 302.328 Q197.691 302.328 196.975 302.525 Q196.283 302.723 195.27 303.291 Q194.257 303.859 193.467 305.267 Q192.701 306.675 192.331 308.8 Q191.935 311.542 191.935 318.113 Z" fill="#000000" fill-rule="nonzero" fill-opacity="1" /><path clip-path="url(#clip100)" d="M216.12 334.096 Q215.354 333.281 215.354 332.219 Q215.354 331.156 216.12 330.391 Q216.886 329.6 218.047 329.6 Q219.158 329.6 219.9 330.341 Q220.665 331.058 220.665 332.243 Q220.665 333.404 219.85 334.17 Q219.06 334.911 218.047 334.911 Q216.886 334.911 216.12 334.096 Z" fill="#000000" fill-rule="nonzero" fill-opacity="1" /><path clip-path="url(#clip100)" d="M227.953 311.122 L229.608 300.722 L230.868 300.722 Q231.016 301.34 231.263 301.611 Q231.535 301.883 232.968 302.105 Q234.425 302.328 237.365 302.328 L249.642 302.328 Q249.642 303.489 249.198 304.106 L242.355 313.716 Q240.181 316.754 239.218 322.362 Q238.649 326.117 238.674 330.662 L238.674 333.232 Q238.674 336.023 236.327 336.023 Q234.005 336.023 234.005 333.232 Q234.005 323.573 240.23 314.21 Q240.897 313.247 243.343 309.813 Q245.813 306.379 245.912 306.231 L235.438 306.231 Q230.843 306.231 230.473 306.527 Q229.979 306.972 229.213 311.122 L227.953 311.122 Z" fill="#000000" fill-rule="nonzero" fill-opacity="1" /><path clip-path="url(#clip100)" d="M252.928 326.759 Q252.928 325.252 253.743 324.684 Q254.558 324.091 255.423 324.091 Q256.584 324.091 257.251 324.832 Q257.943 325.549 257.943 326.562 Q257.943 327.574 257.251 328.316 Q256.584 329.032 255.423 329.032 Q254.855 329.032 254.558 328.933 Q255.225 331.255 257.251 332.935 Q259.301 334.615 261.994 334.615 Q265.378 334.615 267.404 331.329 Q268.615 329.205 268.615 324.388 Q268.615 320.139 267.701 318.014 Q266.292 314.778 263.402 314.778 Q259.301 314.778 256.88 318.311 Q256.584 318.755 256.238 318.78 Q255.744 318.78 255.621 318.508 Q255.522 318.212 255.522 317.446 L255.522 302.476 Q255.522 301.265 256.016 301.265 Q256.213 301.265 256.633 301.414 Q259.82 302.822 263.353 302.846 Q266.984 302.846 270.245 301.364 Q270.492 301.216 270.64 301.216 Q271.134 301.216 271.159 301.784 Q271.159 301.982 270.739 302.575 Q270.344 303.143 269.479 303.909 Q268.615 304.65 267.503 305.366 Q266.391 306.083 264.761 306.577 Q263.155 307.046 261.376 307.046 Q259.252 307.046 257.078 306.379 L257.078 316.236 Q259.697 313.666 263.501 313.666 Q267.552 313.666 270.344 316.927 Q273.135 320.188 273.135 324.734 Q273.135 329.501 269.825 332.762 Q266.539 336.023 262.093 336.023 Q258.042 336.023 255.472 333.133 Q252.928 330.242 252.928 326.759 Z" fill="#000000" fill-rule="nonzero" fill-opacity="1" /><path clip-path="url(#clip100)" d="M189.712 72.937 L189.712 71.356 Q195.789 71.356 198.926 68.1199 Q199.791 68.1199 199.939 68.3175 Q200.087 68.5151 200.087 69.4291 L200.087 97.8133 Q200.087 99.3202 200.829 99.7896 Q201.57 100.259 204.806 100.259 L206.411 100.259 L206.411 101.815 Q204.633 101.667 198.21 101.667 Q191.787 101.667 190.033 101.815 L190.033 100.259 L191.639 100.259 Q194.826 100.259 195.591 99.8143 Q196.357 99.3449 196.357 97.8133 L196.357 71.603 Q193.714 72.937 189.712 72.937 Z" fill="#000000" fill-rule="nonzero" fill-opacity="1" /><path clip-path="url(#clip100)" d="M215.576 101 Q214.811 100.185 214.811 99.1226 Q214.811 98.0603 215.576 97.2945 Q216.342 96.504 217.503 96.504 Q218.615 96.504 219.356 97.2451 Q220.122 97.9615 220.122 99.1473 Q220.122 100.308 219.307 101.074 Q218.516 101.815 217.503 101.815 Q216.342 101.815 215.576 101 Z" fill="#000000" fill-rule="nonzero" fill-opacity="1" /><path clip-path="url(#clip100)" d="M226.545 85.6345 Q226.545 78.1988 228.422 74.1475 Q231.041 68.1199 237.217 68.1199 Q238.526 68.1199 239.885 68.4904 Q241.268 68.8363 242.997 70.1949 Q244.751 71.5536 245.813 73.7769 Q247.839 78.0753 247.839 85.6345 Q247.839 93.0208 245.962 97.0475 Q243.22 102.927 237.167 102.927 Q234.894 102.927 232.572 101.766 Q230.275 100.605 228.817 97.8133 Q226.545 93.6384 226.545 85.6345 M230.744 85.017 Q230.744 92.6503 231.288 95.6888 Q231.905 98.9744 233.585 100.407 Q235.29 101.815 237.167 101.815 Q239.193 101.815 240.873 100.308 Q242.577 98.7767 243.096 95.4912 Q243.664 92.255 243.639 85.017 Q243.639 77.9765 243.145 75.1603 Q242.478 71.8748 240.7 70.5655 Q238.946 69.2315 237.167 69.2315 Q236.5 69.2315 235.784 69.4291 Q235.092 69.6268 234.079 70.1949 Q233.066 70.7631 232.276 72.1712 Q231.51 73.5793 231.14 75.7038 Q230.744 78.4459 230.744 85.017 Z" fill="#000000" fill-rule="nonzero" fill-opacity="1" /><path clip-path="url(#clip100)" d="M251.841 85.6345 Q251.841 78.1988 253.718 74.1475 Q256.337 68.1199 262.513 68.1199 Q263.822 68.1199 265.181 68.4904 Q266.564 68.8363 268.293 70.1949 Q270.047 71.5536 271.11 73.7769 Q273.135 78.0753 273.135 85.6345 Q273.135 93.0208 271.258 97.0475 Q268.516 102.927 262.463 102.927 Q260.191 102.927 257.869 101.766 Q255.571 100.605 254.114 97.8133 Q251.841 93.6384 251.841 85.6345 M256.041 85.017 Q256.041 92.6503 256.584 95.6888 Q257.202 98.9744 258.881 100.407 Q260.586 101.815 262.463 101.815 Q264.489 101.815 266.169 100.308 Q267.873 98.7767 268.392 95.4912 Q268.96 92.255 268.936 85.017 Q268.936 77.9765 268.442 75.1603 Q267.775 71.8748 265.996 70.5655 Q264.242 69.2315 262.463 69.2315 Q261.796 69.2315 261.08 69.4291 Q260.388 69.6268 259.376 70.1949 Q258.363 70.7631 257.572 72.1712 Q256.806 73.5793 256.436 75.7038 Q256.041 78.4459 256.041 85.017 Z" fill="#000000" fill-rule="nonzero" fill-opacity="1" /><path clip-path="url(#clip100)" d="M133.991 638.416 Q127.367 638.416 122.782 633.797 Q118.196 629.177 118.196 622.927 Q118.196 617.628 122.51 614.164 L107.462 614.164 Q104.881 614.164 104.236 615.081 Q103.59 615.964 103.59 619.564 L101.416 619.564 L100.669 609.544 L142.89 609.544 Q145.472 609.544 146.151 608.661 Q146.796 607.744 146.796 604.143 L148.936 604.143 L149.718 614.367 L145.098 614.367 Q149.684 617.968 149.718 623.674 Q149.718 629.653 145.132 634.034 Q140.546 638.416 133.991 638.416 M134.059 632.642 Q140.512 632.642 143.705 630.638 Q148.155 627.852 148.155 623.335 Q148.155 618.172 143.298 615.115 Q142.109 614.333 140.716 614.367 L126.45 614.367 Q125.057 614.367 123.903 615.115 Q119.725 617.968 119.725 622.621 Q119.725 627.479 124.174 630.502 Q127.503 632.642 134.059 632.642 Z" fill="#000000" fill-rule="nonzero" fill-opacity="1" /><path clip-path="url(#clip100)" d="M133.617 600.271 Q127.061 600.271 122.408 596.059 Q117.754 591.847 117.754 585.801 Q117.754 579.687 121.729 576.528 Q125.703 573.335 131.409 573.335 Q132.462 573.335 132.666 573.607 Q132.87 573.879 132.87 575.067 L132.87 594.497 Q139.969 594.497 143.298 592.391 Q147.951 589.469 147.951 584.544 Q147.951 583.865 147.815 583.05 Q147.68 582.234 147.102 580.57 Q146.491 578.906 144.894 577.445 Q143.298 575.984 140.784 575.135 Q139.799 574.931 139.833 574.252 Q139.833 573.335 140.648 573.335 Q141.26 573.335 142.652 574.014 Q144.011 574.66 145.641 575.917 Q147.272 577.173 148.495 579.619 Q149.718 582.031 149.718 584.952 Q149.718 591.066 145.098 595.685 Q140.445 600.271 133.617 600.271 M131.409 594.429 L131.409 577.921 Q129.949 577.921 128.318 578.192 Q126.688 578.43 124.446 579.177 Q122.17 579.891 120.744 581.589 Q119.317 583.287 119.317 585.801 Q119.317 586.922 119.792 588.145 Q120.268 589.334 121.423 590.794 Q122.578 592.255 125.193 593.274 Q127.809 594.293 131.409 594.429 Z" fill="#000000" fill-rule="nonzero" fill-opacity="1" /><path clip-path="url(#clip100)" d="M148.936 569.089 L146.796 569.089 Q146.796 565.387 146.355 564.538 Q145.879 563.688 143.637 563.688 L124.989 563.688 Q122.408 563.688 121.763 564.605 Q121.117 565.489 121.117 569.089 L118.943 569.089 L118.196 559.307 L125.499 559.307 Q118.196 556.046 118.196 549.015 Q118.196 543.784 120.778 541.712 Q122.51 540.183 124.446 539.877 Q126.382 539.538 131.409 539.538 L144.69 539.538 Q146.151 539.47 146.491 538.349 Q146.796 537.228 146.796 534.103 L148.936 534.103 Q148.732 541.202 148.732 541.915 Q148.732 542.459 148.936 549.762 L146.796 549.762 Q146.796 546.059 146.355 545.21 Q145.879 544.327 143.637 544.327 L127.435 544.327 Q123.903 544.327 121.831 545.414 Q119.725 546.501 119.725 549.49 Q119.725 553.091 122.748 555.978 Q125.771 558.865 130.866 558.865 L143.637 558.865 Q145.879 558.865 146.355 558.016 Q146.796 557.133 146.796 553.464 L148.936 553.464 Q148.732 560.563 148.732 561.243 Q148.732 561.786 148.936 569.089 Z" fill="#000000" fill-rule="nonzero" fill-opacity="1" /><path clip-path="url(#clip100)" d="M148.019 530.435 L138.848 530.435 Q138.067 530.435 137.795 530.401 Q137.523 530.367 137.32 530.163 Q137.116 529.959 137.116 529.551 Q137.116 529.076 137.32 528.906 Q137.523 528.702 138.305 528.566 Q143.094 527.513 145.641 525.272 Q148.155 522.996 148.155 518.886 Q148.155 514.98 146.423 513.009 Q144.69 511.039 141.837 511.039 Q136.742 511.039 135.451 518.274 Q134.602 522.452 134.059 524.185 Q133.481 525.917 132.224 527.445 Q129.779 530.435 126.314 530.435 Q122.85 530.435 120.302 527.819 Q117.754 525.17 117.754 519.327 Q117.754 515.421 119.725 512.772 Q119.113 511.99 118.604 511.583 Q117.754 510.666 117.754 510.19 Q117.754 509.647 118.128 509.545 Q118.468 509.443 119.453 509.443 L126.45 509.443 Q127.231 509.443 127.503 509.477 Q127.775 509.511 127.979 509.715 Q128.148 509.918 128.148 510.36 Q128.148 511.141 127.503 511.175 Q119.079 511.719 119.079 519.327 Q119.079 523.437 120.676 525.272 Q122.238 527.106 124.378 527.106 Q125.567 527.106 126.484 526.562 Q127.367 525.985 127.911 525.272 Q128.42 524.524 128.93 523.166 Q129.405 521.807 129.575 520.992 Q129.745 520.143 130.085 518.546 Q131.138 512.975 133.413 510.632 Q136.334 507.711 140.037 507.711 Q144.147 507.711 146.932 510.496 Q149.718 513.281 149.718 518.886 Q149.718 523.403 146.694 526.562 Q147.102 526.97 147.476 527.276 Q147.815 527.581 147.951 527.717 Q148.087 527.819 148.189 527.853 Q148.257 527.887 148.325 527.955 Q149.718 529.348 149.718 529.687 Q149.718 530.231 149.344 530.333 Q149.004 530.435 148.019 530.435 Z" fill="#000000" fill-rule="nonzero" fill-opacity="1" /><path clip-path="url(#clip100)" d="M148.936 503.057 L146.796 503.057 Q146.796 499.355 146.355 498.505 Q145.879 497.656 143.637 497.656 L124.922 497.656 Q122.34 497.656 121.729 498.539 Q121.117 499.389 121.117 502.785 L118.943 502.785 L118.196 493.071 L143.705 493.071 Q145.777 493.071 146.287 492.323 Q146.796 491.576 146.796 488.179 L148.936 488.179 Q148.732 495.279 148.732 495.414 Q148.732 496.366 148.936 503.057 M106.07 500.136 Q104.677 500.136 103.556 499.083 Q102.401 497.996 102.401 496.467 Q102.401 494.939 103.454 493.852 Q104.473 492.765 106.104 492.765 Q107.7 492.765 108.753 493.852 Q109.772 494.939 109.772 496.467 Q109.772 498.064 108.651 499.117 Q107.53 500.136 106.07 500.136 Z" fill="#000000" fill-rule="nonzero" fill-opacity="1" /><path clip-path="url(#clip100)" d="M121.117 484.783 L119.589 484.783 Q119.453 481.59 117.211 479.484 Q114.935 477.344 112.15 476.631 Q109.365 475.883 106.138 475.815 L106.138 474.083 L118.943 474.083 L118.943 464.131 L121.117 464.131 L121.117 474.083 L140.445 474.083 Q147.951 474.083 147.951 469.396 Q147.951 467.392 145.913 466.067 Q143.841 464.742 140.173 464.742 L136.334 464.742 L136.334 463.01 L140.309 463.01 Q144.079 463.01 146.898 464.742 Q149.718 466.474 149.718 469.905 Q149.718 471.162 149.378 472.419 Q149.072 473.642 148.257 475.272 Q147.408 476.868 145.37 477.887 Q143.298 478.872 140.309 478.872 L121.117 478.872 L121.117 484.783 Z" fill="#000000" fill-rule="nonzero" fill-opacity="1" /><path clip-path="url(#clip100)" d="M157.564 459.749 Q156.103 459.749 155.322 458.9 Q154.575 458.017 154.575 456.828 Q154.575 455.571 155.356 454.756 Q156.171 453.907 157.496 453.907 Q160.077 453.907 160.417 456.624 Q161.674 455.299 161.674 453.363 Q161.674 451.291 160.145 449.627 Q158.617 447.928 157.156 447.215 Q155.696 446.468 153.046 445.415 Q150.974 444.43 148.936 443.683 L123.529 454.11 Q121.864 454.79 121.491 455.843 Q121.117 456.896 121.117 459.749 L118.943 459.749 Q119.147 456.624 119.147 452.99 Q119.147 450.85 118.943 445.415 L121.117 445.415 Q121.117 449.321 122.917 449.321 Q123.121 449.321 124.174 448.913 L142.89 441.169 L125.771 434.138 Q124.786 433.73 124.106 433.73 Q121.253 433.73 121.117 436.991 L118.943 436.991 Q119.147 432.405 119.147 430.945 Q119.147 428.092 118.943 425.748 L121.117 425.748 Q121.117 430.401 125.567 432.202 L155.254 444.464 Q163.169 447.793 163.202 453.363 Q163.202 456.013 161.572 457.881 Q159.942 459.749 157.564 459.749 Z" fill="#000000" fill-rule="nonzero" fill-opacity="1" /><path clip-path="url(#clip101)" d="M362.732 970.301 L362.732 1016.92 L575.019 1016.92 L575.019 970.301 L362.732 970.301 L362.732 970.301  Z" fill="#808080" fill-rule="evenodd" fill-opacity="1"/>
<polyline clip-path="url(#clip101)" style="stroke:#000000; stroke-linecap:round; stroke-linejoin:round; stroke-width:4; stroke-opacity:1; fill:none" points="362.732,970.301 362.732,1016.92 575.019,1016.92 575.019,970.301 362.732,970.301 "/>
<path clip-path="url(#clip101)" d="M575.019 550.728 L575.019 1016.92 L787.306 1016.92 L787.306 550.728 L575.019 550.728 L575.019 550.728  Z" fill="#808080" fill-rule="evenodd" fill-opacity="1"/>
<polyline clip-path="url(#clip101)" style="stroke:#000000; stroke-linecap:round; stroke-linejoin:round; stroke-width:4; stroke-opacity:1; fill:none" points="575.019,550.728 575.019,1016.92 787.306,1016.92 787.306,550.728 575.019,550.728 "/>
<path clip-path="url(#clip101)" d="M787.306 364.251 L787.306 1016.92 L999.593 1016.92 L999.593 364.251 L787.306 364.251 L787.306 364.251  Z" fill="#808080" fill-rule="evenodd" fill-opacity="1"/>
<polyline clip-path="url(#clip101)" style="stroke:#000000; stroke-linecap:round; stroke-linejoin:round; stroke-width:4; stroke-opacity:1; fill:none" points="787.306,364.251 787.306,1016.92 999.593,1016.92 999.593,364.251 787.306,364.251 "/>
<path clip-path="url(#clip101)" d="M999.593 550.728 L999.593 1016.92 L1211.88 1016.92 L1211.88 550.728 L999.593 550.728 L999.593 550.728  Z" fill="#808080" fill-rule="evenodd" fill-opacity="1"/>
<polyline clip-path="url(#clip101)" style="stroke:#000000; stroke-linecap:round; stroke-linejoin:round; stroke-width:4; stroke-opacity:1; fill:none" points="999.593,550.728 999.593,1016.92 1211.88,1016.92 1211.88,550.728 999.593,550.728 "/>
<path clip-path="url(#clip101)" d="M1211.88 783.824 L1211.88 1016.92 L1424.17 1016.92 L1424.17 783.824 L1211.88 783.824 L1211.88 783.824  Z" fill="#808080" fill-rule="evenodd" fill-opacity="1"/>
<polyline clip-path="url(#clip101)" style="stroke:#000000; stroke-linecap:round; stroke-linejoin:round; stroke-width:4; stroke-opacity:1; fill:none" points="1211.88,783.824 1211.88,1016.92 1424.17,1016.92 1424.17,783.824 1211.88,783.824 "/>
<circle clip-path="url(#clip101)" style="fill:#808080; stroke:none; fill-opacity:0" cx="468.875" cy="970.301" r="2"/>
<circle clip-path="url(#clip101)" style="fill:#808080; stroke:none; fill-opacity:0" cx="681.163" cy="550.728" r="2"/>
<circle clip-path="url(#clip101)" style="fill:#808080; stroke:none; fill-opacity:0" cx="893.45" cy="364.251" r="2"/>
<circle clip-path="url(#clip101)" style="fill:#808080; stroke:none; fill-opacity:0" cx="1105.74" cy="550.728" r="2"/>
<circle clip-path="url(#clip101)" style="fill:#808080; stroke:none; fill-opacity:0" cx="1318.02" cy="783.824" r="2"/>
<polyline clip-path="url(#clip101)" style="stroke:#000000; stroke-linecap:round; stroke-linejoin:round; stroke-width:8; stroke-opacity:1; fill:none" points="330.889,1016.14 342.504,1015.9 410.535,1012.52 426.359,1010.89 442.183,1008.74 463.392,1004.79 484.602,999.239 502.128,993.083 519.654,985.153 535.952,975.858 552.249,964.372 562.478,955.887 572.708,946.31 582.937,935.553 593.167,923.526 602.342,911.587 611.518,898.498 620.694,884.204 629.87,868.656 640.373,849.267 650.876,828.128 661.379,805.207 671.882,780.488 679.733,760.84 687.584,740.203 695.435,718.597 703.286,696.051 713.327,665.903 723.369,634.381 733.41,601.609 743.452,567.741 761.782,503.692 780.112,437.892 800.973,362.839 821.835,290.083 830.104,262.487 838.372,235.859 846.641,210.373 854.91,186.2 860.046,171.918 865.183,158.246 870.319,145.219 875.456,132.875 880.592,121.247 885.729,110.368 890.865,100.269 896.002,90.9799 903.869,78.3804 911.736,67.8267 919.604,59.3915 927.471,53.133 933.017,50.0535 938.563,48.0882 944.109,47.2441 949.655,47.524 955.201,48.927 960.747,51.4482 966.293,55.0789 971.838,59.8064 980.127,68.8803 988.416,80.2975 996.705,93.9709 1004.99,109.797 1014.42,130.262 1023.85,153.163 1033.27,178.286 1042.7,205.402 1052.03,233.981 1061.37,264.032 1070.7,295.303 1080.04,327.545 1100.58,400.677 1121.12,474.744 1136.81,530.504 1152.5,584.56 1162.4,617.444 1172.3,649.189 1182.2,679.659 1192.1,708.745 1201.25,734.34 1210.41,758.627 1219.57,781.571 1228.72,803.154 1238.16,823.982 1247.61,843.364 1257.05,861.324 1266.49,877.893 1276.06,893.313 1285.63,907.402 1295.21,920.219 1304.78,931.831 1314.77,942.744 1324.77,952.501 1334.76,961.184 1344.75,968.879 1360.5,979.193 1376.25,987.569 1394.18,995.116 1412.11,1000.92 1430.03,1005.32 1447.96,1008.61 1449.98,1008.92 1451.99,1009.22 1454,1009.51 1456.01,1009.79 "/>
</svg>
