<?xml version="1.0" encoding="utf-8"?>
<svg xmlns="http://www.w3.org/2000/svg" xmlns:xlink="http://www.w3.org/1999/xlink" width="400" height="300" viewBox="0 0 1600 1200">
<defs>
  <clipPath id="clip360">
    <rect x="0" y="0" width="1600" height="1200"/>
  </clipPath>
</defs>
<path clip-path="url(#clip360)" d="M0 1200 L1600 1200 L1600 0 L0 0  Z" fill="#ffffff" fill-rule="evenodd" fill-opacity="1"/>
<defs>
  <clipPath id="clip361">
    <rect x="297" y="47" width="1194" height="971"/>
  </clipPath>
</defs>
<path clip-path="url(#clip360)" d="M297.135 1016.92 L1489.76 1016.92 L1489.76 47.2441 L297.135 47.2441  Z" fill="#ffffff" fill-rule="evenodd" fill-opacity="1"/>
<polyline clip-path="url(#clip361)" style="stroke:#000000; stroke-linecap:round; stroke-linejoin:round; stroke-width:2; stroke-opacity:0.1; fill:none" points="362.732,1016.92 362.732,47.2441 "/>
<polyline clip-path="url(#clip361)" style="stroke:#000000; stroke-linecap:round; stroke-linejoin:round; stroke-width:2; stroke-opacity:0.1; fill:none" points="628.091,1016.92 628.091,47.2441 "/>
<polyline clip-path="url(#clip361)" style="stroke:#000000; stroke-linecap:round; stroke-linejoin:round; stroke-width:2; stroke-opacity:0.1; fill:none" points="893.45,1016.92 893.45,47.2441 "/>
<polyline clip-path="url(#clip361)" style="stroke:#000000; stroke-linecap:round; stroke-linejoin:round; stroke-width:2; stroke-opacity:0.1; fill:none" points="1158.81,1016.92 1158.81,47.2441 "/>
<polyline clip-path="url(#clip361)" style="stroke:#000000; stroke-linecap:round; stroke-linejoin:round; stroke-width:2; stroke-opacity:0.1; fill:none" points="1424.17,1016.92 1424.17,47.2441 "/>
<polyline clip-path="url(#clip361)" style="stroke:#000000; stroke-linecap:round; stroke-linejoin:round; stroke-width:2; stroke-opacity:0.1; fill:none" points="362.732,1016.92 362.732,47.2441 "/>
<polyline clip-path="url(#clip361)" style="stroke:#000000; stroke-linecap:round; stroke-linejoin:round; stroke-width:2; stroke-opacity:0.1; fill:none" points="628.091,1016.92 628.091,47.2441 "/>
<polyline clip-path="url(#clip361)" style="stroke:#000000; stroke-linecap:round; stroke-linejoin:round; stroke-width:2; stroke-opacity:0.1; fill:none" points="893.45,1016.92 893.45,47.2441 "/>
<polyline clip-path="url(#clip361)" style="stroke:#000000; stroke-linecap:round; stroke-linejoin:round; stroke-width:2; stroke-opacity:0.1; fill:none" points="1158.81,1016.92 1158.81,47.2441 "/>
<polyline clip-path="url(#clip361)" style="stroke:#000000; stroke-linecap:round; stroke-linejoin:round; stroke-width:2; stroke-opacity:0.1; fill:none" points="1424.17,1016.92 1424.17,47.2441 "/>
<polyline clip-path="url(#clip361)" style="stroke:#000000; stroke-linecap:round; stroke-linejoin:round; stroke-width:2; stroke-opacity:0.1; fill:none" points="297.135,1016.92 1489.76,1016.92 "/>
<polyline clip-path="url(#clip361)" style="stroke:#000000; stroke-linecap:round; stroke-linejoin:round; stroke-width:2; stroke-opacity:0.1; fill:none" points="297.135,777.261 1489.76,777.261 "/>
<polyline clip-path="url(#clip361)" style="stroke:#000000; stroke-linecap:round; stroke-linejoin:round; stroke-width:2; stroke-opacity:0.1; fill:none" points="297.135,537.602 1489.76,537.602 "/>
<polyline clip-path="url(#clip361)" style="stroke:#000000; stroke-linecap:round; stroke-linejoin:round; stroke-width:2; stroke-opacity:0.1; fill:none" points="297.135,297.942 1489.76,297.942 "/>
<polyline clip-path="url(#clip361)" style="stroke:#000000; stroke-linecap:round; stroke-linejoin:round; stroke-width:2; stroke-opacity:0.1; fill:none" points="297.135,58.2833 1489.76,58.2833 "/>
<polyline clip-path="url(#clip361)" style="stroke:#000000; stroke-linecap:round; stroke-linejoin:round; stroke-width:2; stroke-opacity:0.1; fill:none" points="297.135,1016.92 1489.76,1016.92 "/>
<polyline clip-path="url(#clip361)" style="stroke:#000000; stroke-linecap:round; stroke-linejoin:round; stroke-width:2; stroke-opacity:0.1; fill:none" points="297.135,777.261 1489.76,777.261 "/>
<polyline clip-path="url(#clip361)" style="stroke:#000000; stroke-linecap:round; stroke-linejoin:round; stroke-width:2; stroke-opacity:0.1; fill:none" points="297.135,537.602 1489.76,537.602 "/>
<polyline clip-path="url(#clip361)" style="stroke:#000000; stroke-linecap:round; stroke-linejoin:round; stroke-width:2; stroke-opacity:0.1; fill:none" points="297.135,297.942 1489.76,297.942 "/>
<polyline clip-path="url(#clip361)" style="stroke:#000000; stroke-linecap:round; stroke-linejoin:round; stroke-width:2; stroke-opacity:0.1; fill:none" points="297.135,58.2833 1489.76,58.2833 "/>
<polyline clip-path="url(#clip360)" style="stroke:#000000; stroke-linecap:round; stroke-linejoin:round; stroke-width:4; stroke-opacity:1; fill:none" points="297.135,1016.92 1489.76,1016.92 "/>
<polyline clip-path="url(#clip360)" style="stroke:#000000; stroke-linecap:round; stroke-linejoin:round; stroke-width:4; stroke-opacity:1; fill:none" points="297.135,47.2441 1489.76,47.2441 "/>
<polyline clip-path="url(#clip360)" style="stroke:#000000; stroke-linecap:round; stroke-linejoin:round; stroke-width:4; stroke-opacity:1; fill:none" points="362.732,1016.92 362.732,998.022 "/>
<polyline clip-path="url(#clip360)" style="stroke:#000000; stroke-linecap:round; stroke-linejoin:round; stroke-width:4; stroke-opacity:1; fill:none" points="628.091,1016.92 628.091,998.022 "/>
<polyline clip-path="url(#clip360)" style="stroke:#000000; stroke-linecap:round; stroke-linejoin:round; stroke-width:4; stroke-opacity:1; fill:none" points="893.45,1016.92 893.45,998.022 "/>
<polyline clip-path="url(#clip360)" style="stroke:#000000; stroke-linecap:round; stroke-linejoin:round; stroke-width:4; stroke-opacity:1; fill:none" points="1158.81,1016.92 1158.81,998.022 "/>
<polyline clip-path="url(#clip360)" style="stroke:#000000; stroke-linecap:round; stroke-linejoin:round; stroke-width:4; stroke-opacity:1; fill:none" points="1424.17,1016.92 1424.17,998.022 "/>
<polyline clip-path="url(#clip360)" style="stroke:#000000; stroke-linecap:round; stroke-linejoin:round; stroke-width:4; stroke-opacity:1; fill:none" points="362.732,47.2441 362.732,66.1417 "/>
<polyline clip-path="url(#clip360)" style="stroke:#000000; stroke-linecap:round; stroke-linejoin:round; stroke-width:4; stroke-opacity:1; fill:none" points="628.091,47.2441 628.091,66.1417 "/>
<polyline clip-path="url(#clip360)" style="stroke:#000000; stroke-linecap:round; stroke-linejoin:round; stroke-width:4; stroke-opacity:1; fill:none" points="893.45,47.2441 893.45,66.1417 "/>
<polyline clip-path="url(#clip360)" style="stroke:#000000; stroke-linecap:round; stroke-linejoin:round; stroke-width:4; stroke-opacity:1; fill:none" points="1158.81,47.2441 1158.81,66.1417 "/>
<polyline clip-path="url(#clip360)" style="stroke:#000000; stroke-linecap:round; stroke-linejoin:round; stroke-width:4; stroke-opacity:1; fill:none" points="1424.17,47.2441 1424.17,66.1417 "/>
<path clip-path="url(#clip360)" d="M346.564 1059.56 Q346.86 1059.85 346.86 1060.27 Q346.86 1060.69 346.564 1060.99 Q346.267 1061.28 345.847 1061.28 L314.178 1061.28 Q313.758 1061.28 313.461 1060.99 Q313.165 1060.69 313.165 1060.27 Q313.165 1059.85 313.461 1059.56 Q313.758 1059.26 314.178 1059.26 L345.847 1059.26 Q346.267 1059.26 346.564 1059.56 Z" fill="#000000" fill-rule="nonzero" fill-opacity="1" /><path clip-path="url(#clip360)" d="M354.172 1044.04 L354.172 1042.46 Q360.249 1042.46 363.387 1039.22 Q364.251 1039.22 364.399 1039.42 Q364.548 1039.62 364.548 1040.53 L364.548 1068.92 Q364.548 1070.42 365.289 1070.89 Q366.03 1071.36 369.266 1071.36 L370.872 1071.36 L370.872 1072.92 Q369.093 1072.77 362.67 1072.77 Q356.247 1072.77 354.493 1072.92 L354.493 1071.36 L356.099 1071.36 Q359.286 1071.36 360.052 1070.92 Q360.817 1070.45 360.817 1068.92 L360.817 1042.71 Q358.174 1044.04 354.172 1044.04 Z" fill="#000000" fill-rule="nonzero" fill-opacity="1" /><path clip-path="url(#clip360)" d="M380.037 1072.1 Q379.271 1071.29 379.271 1070.23 Q379.271 1069.16 380.037 1068.4 Q380.802 1067.61 381.964 1067.61 Q383.075 1067.61 383.816 1068.35 Q384.582 1069.07 384.582 1070.25 Q384.582 1071.41 383.767 1072.18 Q382.976 1072.92 381.964 1072.92 Q380.802 1072.92 380.037 1072.1 Z" fill="#000000" fill-rule="nonzero" fill-opacity="1" /><path clip-path="url(#clip360)" d="M391.005 1056.74 Q391.005 1049.3 392.882 1045.25 Q395.501 1039.22 401.677 1039.22 Q402.986 1039.22 404.345 1039.6 Q405.728 1039.94 407.457 1041.3 Q409.211 1042.66 410.274 1044.88 Q412.299 1049.18 412.299 1056.74 Q412.299 1064.13 410.422 1068.15 Q407.68 1074.03 401.627 1074.03 Q399.355 1074.03 397.033 1072.87 Q394.735 1071.71 393.278 1068.92 Q391.005 1064.74 391.005 1056.74 M395.205 1056.12 Q395.205 1063.75 395.748 1066.79 Q396.366 1070.08 398.045 1071.51 Q399.75 1072.92 401.627 1072.92 Q403.653 1072.92 405.333 1071.41 Q407.037 1069.88 407.556 1066.6 Q408.124 1063.36 408.1 1056.12 Q408.1 1049.08 407.606 1046.26 Q406.939 1042.98 405.16 1041.67 Q403.406 1040.34 401.627 1040.34 Q400.96 1040.34 400.244 1040.53 Q399.552 1040.73 398.539 1041.3 Q397.527 1041.87 396.736 1043.28 Q395.97 1044.68 395.6 1046.81 Q395.205 1049.55 395.205 1056.12 Z" fill="#000000" fill-rule="nonzero" fill-opacity="1" /><path clip-path="url(#clip360)" d="M612.194 1059.56 Q612.491 1059.85 612.491 1060.27 Q612.491 1060.69 612.194 1060.99 Q611.898 1061.28 611.478 1061.28 L579.808 1061.28 Q579.388 1061.28 579.092 1060.99 Q578.795 1060.69 578.795 1060.27 Q578.795 1059.85 579.092 1059.56 Q579.388 1059.26 579.808 1059.26 L611.478 1059.26 Q611.898 1059.26 612.194 1059.56 Z" fill="#000000" fill-rule="nonzero" fill-opacity="1" /><path clip-path="url(#clip360)" d="M617.283 1056.74 Q617.283 1049.3 619.16 1045.25 Q621.779 1039.22 627.955 1039.22 Q629.264 1039.22 630.623 1039.6 Q632.006 1039.94 633.735 1041.3 Q635.489 1042.66 636.552 1044.88 Q638.577 1049.18 638.577 1056.74 Q638.577 1064.13 636.7 1068.15 Q633.958 1074.03 627.905 1074.03 Q625.633 1074.03 623.311 1072.87 Q621.013 1071.71 619.556 1068.92 Q617.283 1064.74 617.283 1056.74 M621.483 1056.12 Q621.483 1063.75 622.026 1066.79 Q622.644 1070.08 624.323 1071.51 Q626.028 1072.92 627.905 1072.92 Q629.931 1072.92 631.611 1071.41 Q633.316 1069.88 633.834 1066.6 Q634.402 1063.36 634.378 1056.12 Q634.378 1049.08 633.884 1046.26 Q633.217 1042.98 631.438 1041.67 Q629.684 1040.34 627.905 1040.34 Q627.238 1040.34 626.522 1040.53 Q625.83 1040.73 624.818 1041.3 Q623.805 1041.87 623.014 1043.28 Q622.248 1044.68 621.878 1046.81 Q621.483 1049.55 621.483 1056.12 Z" fill="#000000" fill-rule="nonzero" fill-opacity="1" /><path clip-path="url(#clip360)" d="M645.667 1072.1 Q644.901 1071.29 644.901 1070.23 Q644.901 1069.16 645.667 1068.4 Q646.433 1067.61 647.594 1067.61 Q648.706 1067.61 649.447 1068.35 Q650.213 1069.07 650.213 1070.25 Q650.213 1071.41 649.397 1072.18 Q648.607 1072.92 647.594 1072.92 Q646.433 1072.92 645.667 1072.1 Z" fill="#000000" fill-rule="nonzero" fill-opacity="1" /><path clip-path="url(#clip360)" d="M657.179 1064.77 Q657.179 1063.26 657.994 1062.69 Q658.809 1062.1 659.674 1062.1 Q660.835 1062.1 661.502 1062.84 Q662.194 1063.56 662.194 1064.57 Q662.194 1065.58 661.502 1066.32 Q660.835 1067.04 659.674 1067.04 Q659.106 1067.04 658.809 1066.94 Q659.476 1069.26 661.502 1070.94 Q663.552 1072.62 666.245 1072.62 Q669.629 1072.62 671.655 1069.34 Q672.866 1067.21 672.866 1062.4 Q672.866 1058.15 671.952 1056.02 Q670.543 1052.79 667.653 1052.79 Q663.552 1052.79 661.131 1056.32 Q660.835 1056.76 660.489 1056.79 Q659.995 1056.79 659.872 1056.52 Q659.773 1056.22 659.773 1055.45 L659.773 1040.48 Q659.773 1039.27 660.267 1039.27 Q660.464 1039.27 660.884 1039.42 Q664.071 1040.83 667.604 1040.85 Q671.235 1040.85 674.496 1039.37 Q674.743 1039.22 674.891 1039.22 Q675.385 1039.22 675.41 1039.79 Q675.41 1039.99 674.99 1040.58 Q674.595 1041.15 673.73 1041.92 Q672.866 1042.66 671.754 1043.37 Q670.642 1044.09 669.012 1044.59 Q667.406 1045.05 665.627 1045.05 Q663.503 1045.05 661.329 1044.39 L661.329 1054.24 Q663.948 1051.67 667.752 1051.67 Q671.803 1051.67 674.595 1054.94 Q677.386 1058.2 677.386 1062.74 Q677.386 1067.51 674.076 1070.77 Q670.791 1074.03 666.344 1074.03 Q662.293 1074.03 659.723 1071.14 Q657.179 1068.25 657.179 1064.77 Z" fill="#000000" fill-rule="nonzero" fill-opacity="1" /><path clip-path="url(#clip360)" d="M863.126 1056.74 Q863.126 1049.3 865.004 1045.25 Q867.622 1039.22 873.798 1039.22 Q875.107 1039.22 876.466 1039.6 Q877.849 1039.94 879.579 1041.3 Q881.333 1042.66 882.395 1044.88 Q884.42 1049.18 884.42 1056.74 Q884.42 1064.13 882.543 1068.15 Q879.801 1074.03 873.749 1074.03 Q871.476 1074.03 869.154 1072.87 Q866.856 1071.71 865.399 1068.92 Q863.126 1064.74 863.126 1056.74 M867.326 1056.12 Q867.326 1063.75 867.869 1066.79 Q868.487 1070.08 870.167 1071.51 Q871.871 1072.92 873.749 1072.92 Q875.774 1072.92 877.454 1071.41 Q879.159 1069.88 879.677 1066.6 Q880.246 1063.36 880.221 1056.12 Q880.221 1049.08 879.727 1046.26 Q879.06 1042.98 877.281 1041.67 Q875.527 1040.34 873.749 1040.34 Q873.082 1040.34 872.365 1040.53 Q871.674 1040.73 870.661 1041.3 Q869.648 1041.87 868.857 1043.28 Q868.092 1044.68 867.721 1046.81 Q867.326 1049.55 867.326 1056.12 Z" fill="#000000" fill-rule="nonzero" fill-opacity="1" /><path clip-path="url(#clip360)" d="M891.51 1072.1 Q890.745 1071.29 890.745 1070.23 Q890.745 1069.16 891.51 1068.4 Q892.276 1067.61 893.437 1067.61 Q894.549 1067.61 895.29 1068.35 Q896.056 1069.07 896.056 1070.25 Q896.056 1071.41 895.241 1072.18 Q894.45 1072.92 893.437 1072.92 Q892.276 1072.92 891.51 1072.1 Z" fill="#000000" fill-rule="nonzero" fill-opacity="1" /><path clip-path="url(#clip360)" d="M902.479 1056.74 Q902.479 1049.3 904.356 1045.25 Q906.975 1039.22 913.15 1039.22 Q914.46 1039.22 915.818 1039.6 Q917.202 1039.94 918.931 1041.3 Q920.685 1042.66 921.747 1044.88 Q923.773 1049.18 923.773 1056.74 Q923.773 1064.13 921.895 1068.15 Q919.153 1074.03 913.101 1074.03 Q910.828 1074.03 908.506 1072.87 Q906.209 1071.71 904.751 1068.92 Q902.479 1064.74 902.479 1056.74 M906.678 1056.12 Q906.678 1063.75 907.222 1066.79 Q907.839 1070.08 909.519 1071.51 Q911.224 1072.92 913.101 1072.92 Q915.127 1072.92 916.807 1071.41 Q918.511 1069.88 919.03 1066.6 Q919.598 1063.36 919.573 1056.12 Q919.573 1049.08 919.079 1046.26 Q918.412 1042.98 916.634 1041.67 Q914.88 1040.34 913.101 1040.34 Q912.434 1040.34 911.718 1040.53 Q911.026 1040.73 910.013 1041.3 Q909 1041.87 908.21 1043.28 Q907.444 1044.68 907.073 1046.81 Q906.678 1049.55 906.678 1056.12 Z" fill="#000000" fill-rule="nonzero" fill-opacity="1" /><path clip-path="url(#clip360)" d="M1128.76 1056.74 Q1128.76 1049.3 1130.63 1045.25 Q1133.25 1039.22 1139.43 1039.22 Q1140.74 1039.22 1142.1 1039.6 Q1143.48 1039.94 1145.21 1041.3 Q1146.96 1042.66 1148.03 1044.88 Q1150.05 1049.18 1150.05 1056.74 Q1150.05 1064.13 1148.17 1068.15 Q1145.43 1074.03 1139.38 1074.03 Q1137.11 1074.03 1134.78 1072.87 Q1132.49 1071.71 1131.03 1068.92 Q1128.76 1064.74 1128.76 1056.74 M1132.96 1056.12 Q1132.96 1063.75 1133.5 1066.79 Q1134.12 1070.08 1135.8 1071.51 Q1137.5 1072.92 1139.38 1072.92 Q1141.4 1072.92 1143.08 1071.41 Q1144.79 1069.88 1145.31 1066.6 Q1145.88 1063.36 1145.85 1056.12 Q1145.85 1049.08 1145.36 1046.26 Q1144.69 1042.98 1142.91 1041.67 Q1141.16 1040.34 1139.38 1040.34 Q1138.71 1040.34 1138 1040.53 Q1137.3 1040.73 1136.29 1041.3 Q1135.28 1041.87 1134.49 1043.28 Q1133.72 1044.68 1133.35 1046.81 Q1132.96 1049.55 1132.96 1056.12 Z" fill="#000000" fill-rule="nonzero" fill-opacity="1" /><path clip-path="url(#clip360)" d="M1157.14 1072.1 Q1156.38 1071.29 1156.38 1070.23 Q1156.38 1069.16 1157.14 1068.4 Q1157.91 1067.61 1159.07 1067.61 Q1160.18 1067.61 1160.92 1068.35 Q1161.69 1069.07 1161.69 1070.25 Q1161.69 1071.41 1160.87 1072.18 Q1160.08 1072.92 1159.07 1072.92 Q1157.91 1072.92 1157.14 1072.1 Z" fill="#000000" fill-rule="nonzero" fill-opacity="1" /><path clip-path="url(#clip360)" d="M1168.65 1064.77 Q1168.65 1063.26 1169.47 1062.69 Q1170.28 1062.1 1171.15 1062.1 Q1172.31 1062.1 1172.98 1062.84 Q1173.67 1063.56 1173.67 1064.57 Q1173.67 1065.58 1172.98 1066.32 Q1172.31 1067.04 1171.15 1067.04 Q1170.58 1067.04 1170.28 1066.94 Q1170.95 1069.26 1172.98 1070.94 Q1175.03 1072.62 1177.72 1072.62 Q1181.1 1072.62 1183.13 1069.34 Q1184.34 1067.21 1184.34 1062.4 Q1184.34 1058.15 1183.43 1056.02 Q1182.02 1052.79 1179.13 1052.79 Q1175.03 1052.79 1172.61 1056.32 Q1172.31 1056.76 1171.96 1056.79 Q1171.47 1056.79 1171.35 1056.52 Q1171.25 1056.22 1171.25 1055.45 L1171.25 1040.48 Q1171.25 1039.27 1171.74 1039.27 Q1171.94 1039.27 1172.36 1039.42 Q1175.54 1040.83 1179.08 1040.85 Q1182.71 1040.85 1185.97 1039.37 Q1186.22 1039.22 1186.36 1039.22 Q1186.86 1039.22 1186.88 1039.79 Q1186.88 1039.99 1186.46 1040.58 Q1186.07 1041.15 1185.2 1041.92 Q1184.34 1042.66 1183.23 1043.37 Q1182.12 1044.09 1180.49 1044.59 Q1178.88 1045.05 1177.1 1045.05 Q1174.98 1045.05 1172.8 1044.39 L1172.8 1054.24 Q1175.42 1051.67 1179.23 1051.67 Q1183.28 1051.67 1186.07 1054.94 Q1188.86 1058.2 1188.86 1062.74 Q1188.86 1067.51 1185.55 1070.77 Q1182.26 1074.03 1177.82 1074.03 Q1173.77 1074.03 1171.2 1071.14 Q1168.65 1068.25 1168.65 1064.77 Z" fill="#000000" fill-rule="nonzero" fill-opacity="1" /><path clip-path="url(#clip360)" d="M1395.1 1044.04 L1395.1 1042.46 Q1401.18 1042.46 1404.32 1039.22 Q1405.18 1039.22 1405.33 1039.42 Q1405.48 1039.62 1405.48 1040.53 L1405.48 1068.92 Q1405.48 1070.42 1406.22 1070.89 Q1406.96 1071.36 1410.2 1071.36 L1411.8 1071.36 L1411.8 1072.92 Q1410.02 1072.77 1403.6 1072.77 Q1397.18 1072.77 1395.42 1072.92 L1395.42 1071.36 L1397.03 1071.36 Q1400.22 1071.36 1400.98 1070.92 Q1401.75 1070.45 1401.75 1068.92 L1401.75 1042.71 Q1399.11 1044.04 1395.1 1044.04 Z" fill="#000000" fill-rule="nonzero" fill-opacity="1" /><path clip-path="url(#clip360)" d="M1420.97 1072.1 Q1420.2 1071.29 1420.2 1070.23 Q1420.2 1069.16 1420.97 1068.4 Q1421.73 1067.61 1422.89 1067.61 Q1424.01 1067.61 1424.75 1068.35 Q1425.51 1069.07 1425.51 1070.25 Q1425.51 1071.41 1424.7 1072.18 Q1423.91 1072.92 1422.89 1072.92 Q1421.73 1072.92 1420.97 1072.1 Z" fill="#000000" fill-rule="nonzero" fill-opacity="1" /><path clip-path="url(#clip360)" d="M1431.94 1056.74 Q1431.94 1049.3 1433.81 1045.25 Q1436.43 1039.22 1442.61 1039.22 Q1443.92 1039.22 1445.28 1039.6 Q1446.66 1039.94 1448.39 1041.3 Q1450.14 1042.66 1451.2 1044.88 Q1453.23 1049.18 1453.23 1056.74 Q1453.23 1064.13 1451.35 1068.15 Q1448.61 1074.03 1442.56 1074.03 Q1440.29 1074.03 1437.96 1072.87 Q1435.67 1071.71 1434.21 1068.92 Q1431.94 1064.74 1431.94 1056.74 M1436.14 1056.12 Q1436.14 1063.75 1436.68 1066.79 Q1437.3 1070.08 1438.98 1071.51 Q1440.68 1072.92 1442.56 1072.92 Q1444.58 1072.92 1446.26 1071.41 Q1447.97 1069.88 1448.49 1066.6 Q1449.06 1063.36 1449.03 1056.12 Q1449.03 1049.08 1448.54 1046.26 Q1447.87 1042.98 1446.09 1041.67 Q1444.34 1040.34 1442.56 1040.34 Q1441.89 1040.34 1441.18 1040.53 Q1440.48 1040.73 1439.47 1041.3 Q1438.46 1041.87 1437.67 1043.28 Q1436.9 1044.68 1436.53 1046.81 Q1436.14 1049.55 1436.14 1056.12 Z" fill="#000000" fill-rule="nonzero" fill-opacity="1" /><path clip-path="url(#clip360)" d="M753.811 1121.96 L753.811 1119.79 Q756.936 1119.99 760.57 1119.99 Q761.895 1119.99 768.145 1119.79 L768.145 1121.96 Q764.171 1121.96 764.171 1123.77 Q764.171 1124.04 764.578 1124.95 L772.391 1144.35 L779.49 1126.62 Q779.897 1125.43 779.897 1124.95 Q779.897 1123.77 779.082 1122.92 Q778.301 1122.03 776.569 1121.96 L776.569 1119.79 Q780.101 1119.99 782.615 1119.99 Q785.468 1119.99 787.812 1119.79 L787.812 1121.96 Q785.74 1121.96 784.279 1122.92 Q782.819 1123.83 782.343 1124.65 Q781.902 1125.43 781.426 1126.62 L772.323 1149.24 Q771.779 1150.57 770.862 1150.57 Q770.251 1150.57 769.979 1150.29 Q769.741 1150.06 769.402 1149.24 L759.381 1124.55 Q758.702 1122.81 757.819 1122.41 Q756.936 1121.96 753.811 1121.96 Z" fill="#000000" fill-rule="nonzero" fill-opacity="1" /><path clip-path="url(#clip360)" d="M790.122 1143.16 Q790.122 1137.25 797.085 1134.13 Q801.263 1132.12 809.89 1131.61 L809.89 1129.06 Q809.89 1124.75 807.615 1122.47 Q805.373 1120.16 802.52 1120.16 Q797.424 1120.16 794.979 1123.36 Q797.051 1123.43 797.798 1124.48 Q798.545 1125.5 798.545 1126.55 Q798.545 1127.94 797.662 1128.86 Q796.813 1129.74 795.352 1129.74 Q793.96 1129.74 793.043 1128.89 Q792.126 1128.01 792.126 1126.48 Q792.126 1123.09 795.183 1120.84 Q798.274 1118.6 802.655 1118.6 Q808.362 1118.6 812.166 1122.44 Q813.355 1123.63 813.932 1125.16 Q814.544 1126.69 814.612 1127.71 Q814.68 1128.69 814.68 1130.66 L814.68 1144.55 Q814.68 1144.96 814.816 1145.64 Q814.952 1146.32 815.563 1147.2 Q816.208 1148.05 817.261 1148.05 Q819.775 1148.05 819.741 1143.6 L819.741 1139.7 L821.507 1139.7 L821.507 1143.6 Q821.507 1147.3 819.537 1148.76 Q817.601 1150.19 815.801 1150.19 Q813.491 1150.19 812.03 1148.49 Q810.57 1146.79 810.366 1144.48 Q809.313 1147.13 806.901 1148.87 Q804.524 1150.57 801.263 1150.57 Q798.749 1150.57 796.371 1149.92 Q794.028 1149.31 792.058 1147.58 Q790.122 1145.81 790.122 1143.16 M795.488 1143.09 Q795.488 1145.67 797.323 1147.34 Q799.157 1149 801.738 1149 Q804.659 1149 807.275 1146.76 Q809.89 1144.48 809.89 1140.04 L809.89 1133.07 Q802.18 1133.34 798.817 1136.43 Q795.488 1139.49 795.488 1143.09 Z" fill="#000000" fill-rule="nonzero" fill-opacity="1" /><path clip-path="url(#clip360)" d="M824.292 1149.78 L824.292 1147.64 Q827.995 1147.64 828.844 1147.2 Q829.693 1146.73 829.693 1144.48 L829.693 1108.31 Q829.693 1105.73 828.776 1105.08 Q827.893 1104.44 824.292 1104.44 L824.292 1102.26 L834.279 1101.52 L834.279 1144.48 Q834.279 1146.73 835.162 1147.2 Q836.045 1147.64 839.714 1147.64 L839.714 1149.78 Q838.864 1149.78 837.098 1149.72 Q835.332 1149.65 834.041 1149.61 Q832.75 1149.58 832.003 1149.58 Q831.188 1149.58 824.292 1149.78 Z" fill="#000000" fill-rule="nonzero" fill-opacity="1" /><path clip-path="url(#clip360)" d="M843.484 1121.96 L843.484 1119.79 L853.708 1119.04 L853.708 1142.14 Q853.708 1143.81 853.844 1144.79 Q853.98 1145.74 854.523 1146.86 Q855.101 1147.98 856.391 1148.49 Q857.716 1149 859.822 1149 Q863.592 1149 865.902 1145.91 Q868.246 1142.82 868.246 1138.24 L868.246 1125.84 Q868.246 1123.26 867.329 1122.61 Q866.412 1121.96 862.811 1121.96 L862.811 1119.79 L873.035 1119.04 L873.035 1143.74 Q873.035 1146.32 873.918 1147 Q874.836 1147.64 878.47 1147.64 L878.47 1149.78 L868.45 1150.57 L868.45 1144.28 Q865.529 1150.53 859.482 1150.57 Q856.425 1150.57 854.319 1149.78 Q852.247 1149 851.194 1148.05 Q850.141 1147.07 849.564 1145.2 Q849.021 1143.33 848.953 1142.18 Q848.885 1141.02 848.885 1138.78 L848.885 1128.35 Q848.885 1123.63 848.205 1122.81 Q847.526 1121.96 843.484 1121.96 Z" fill="#000000" fill-rule="nonzero" fill-opacity="1" /><path clip-path="url(#clip360)" d="M881.765 1134.46 Q881.765 1127.91 885.977 1123.26 Q890.189 1118.6 896.235 1118.6 Q902.349 1118.6 905.508 1122.58 Q908.701 1126.55 908.701 1132.26 Q908.701 1133.31 908.429 1133.51 Q908.157 1133.72 906.968 1133.72 L887.539 1133.72 Q887.539 1140.82 889.645 1144.15 Q892.566 1148.8 897.492 1148.8 Q898.171 1148.8 898.986 1148.66 Q899.801 1148.53 901.466 1147.95 Q903.13 1147.34 904.591 1145.74 Q906.051 1144.15 906.901 1141.63 Q907.104 1140.65 907.784 1140.68 Q908.701 1140.68 908.701 1141.5 Q908.701 1142.11 908.021 1143.5 Q907.376 1144.86 906.119 1146.49 Q904.862 1148.12 902.417 1149.34 Q900.005 1150.57 897.084 1150.57 Q890.97 1150.57 886.35 1145.95 Q881.765 1141.29 881.765 1134.46 M887.607 1132.26 L904.115 1132.26 Q904.115 1130.8 903.843 1129.17 Q903.606 1127.54 902.858 1125.29 Q902.145 1123.02 900.447 1121.59 Q898.748 1120.16 896.235 1120.16 Q895.114 1120.16 893.891 1120.64 Q892.702 1121.12 891.242 1122.27 Q889.781 1123.43 888.762 1126.04 Q887.743 1128.66 887.607 1132.26 Z" fill="#000000" fill-rule="nonzero" fill-opacity="1" /><path clip-path="url(#clip360)" d="M940.732 1132.39 Q940.732 1120.64 945.114 1111.16 Q946.982 1107.19 949.597 1103.86 Q952.213 1100.53 953.945 1099.07 Q955.677 1097.61 956.153 1097.61 Q956.832 1097.61 956.866 1098.29 Q956.866 1098.63 955.949 1099.48 Q944.74 1110.89 944.774 1132.39 Q944.774 1153.96 955.677 1164.93 Q956.866 1166.12 956.866 1166.5 Q956.866 1167.18 956.153 1167.18 Q955.677 1167.18 954.013 1165.78 Q952.349 1164.39 949.767 1161.2 Q947.186 1158 945.317 1154.1 Q940.732 1144.62 940.732 1132.39 Z" fill="#000000" fill-rule="nonzero" fill-opacity="1" /><path clip-path="url(#clip360)" d="M963.048 1149.78 L963.048 1147.64 Q965.29 1147.58 966.751 1147.17 Q968.245 1146.73 969.094 1145.64 Q969.977 1144.55 970.317 1143.84 Q970.691 1143.09 971.302 1141.36 L983.7 1105.83 Q983.904 1105.05 984.447 1103.55 Q985.025 1102.06 985.229 1101.31 Q980.236 1099.38 980.202 1093.84 Q980.202 1090.92 982.002 1088.61 Q983.836 1086.27 986.825 1086.27 Q989.746 1086.27 991.615 1088.58 Q993.517 1090.85 993.517 1093.84 Q993.517 1099.34 988.49 1101.31 L1003.1 1143.53 Q1004.15 1146.46 1005.13 1147.07 Q1006.15 1147.64 1010.4 1147.64 L1010.67 1147.64 L1010.67 1149.78 Q1006.22 1149.58 1001.77 1149.58 Q996.676 1149.58 991.547 1149.78 L991.547 1147.64 L991.682 1147.64 Q997.185 1147.64 997.185 1145.4 Q997.185 1144.86 993.449 1133.92 L976.193 1133.92 Q975.786 1135.31 974.869 1137.83 Q973.952 1140.31 973.408 1141.97 Q972.899 1143.6 972.899 1144.15 Q972.899 1145.4 974.121 1146.49 Q975.344 1147.54 978.062 1147.64 L978.062 1149.78 Q974.02 1149.58 969.91 1149.58 Q966.513 1149.58 963.048 1149.78 M976.941 1131.78 L992.667 1131.78 L984.821 1109.16 L976.941 1131.78 M981.968 1093.77 Q981.968 1097.24 983.462 1098.6 Q984.957 1099.92 986.893 1099.92 Q988.829 1099.92 990.29 1098.6 Q991.75 1097.27 991.75 1093.91 Q991.75 1090.44 990.256 1089.12 Q988.761 1087.79 986.825 1087.79 Q984.889 1087.79 983.428 1089.12 Q981.968 1090.44 981.968 1093.77 Z" fill="#000000" fill-rule="nonzero" fill-opacity="1" /><path clip-path="url(#clip360)" d="M1016.95 1166.5 Q1016.95 1166.16 1017.84 1165.31 Q1029.05 1153.89 1029.05 1132.39 Q1029.05 1110.82 1018.28 1099.92 Q1016.95 1098.66 1016.95 1098.29 Q1016.95 1097.61 1017.63 1097.61 Q1018.11 1097.61 1019.77 1099 Q1021.47 1100.4 1024.02 1103.59 Q1026.6 1106.78 1028.5 1110.69 Q1033.09 1120.16 1033.09 1132.39 Q1033.09 1144.15 1028.71 1153.62 Q1026.84 1157.6 1024.22 1160.93 Q1021.61 1164.25 1019.88 1165.71 Q1018.14 1167.18 1017.63 1167.18 Q1016.95 1167.18 1016.95 1166.5 Z" fill="#000000" fill-rule="nonzero" fill-opacity="1" /><polyline clip-path="url(#clip360)" style="stroke:#000000; stroke-linecap:round; stroke-linejoin:round; stroke-width:4; stroke-opacity:1; fill:none" points="297.135,1016.92 297.135,47.2441 "/>
<polyline clip-path="url(#clip360)" style="stroke:#000000; stroke-linecap:round; stroke-linejoin:round; stroke-width:4; stroke-opacity:1; fill:none" points="1489.76,1016.92 1489.76,47.2441 "/>
<polyline clip-path="url(#clip360)" style="stroke:#000000; stroke-linecap:round; stroke-linejoin:round; stroke-width:4; stroke-opacity:1; fill:none" points="297.135,1016.92 316.033,1016.92 "/>
<polyline clip-path="url(#clip360)" style="stroke:#000000; stroke-linecap:round; stroke-linejoin:round; stroke-width:4; stroke-opacity:1; fill:none" points="297.135,777.261 316.033,777.261 "/>
<polyline clip-path="url(#clip360)" style="stroke:#000000; stroke-linecap:round; stroke-linejoin:round; stroke-width:4; stroke-opacity:1; fill:none" points="297.135,537.602 316.033,537.602 "/>
<polyline clip-path="url(#clip360)" style="stroke:#000000; stroke-linecap:round; stroke-linejoin:round; stroke-width:4; stroke-opacity:1; fill:none" points="297.135,297.942 316.033,297.942 "/>
<polyline clip-path="url(#clip360)" style="stroke:#000000; stroke-linecap:round; stroke-linejoin:round; stroke-width:4; stroke-opacity:1; fill:none" points="297.135,58.2833 316.033,58.2833 "/>
<polyline clip-path="url(#clip360)" style="stroke:#000000; stroke-linecap:round; stroke-linejoin:round; stroke-width:4; stroke-opacity:1; fill:none" points="1489.76,1016.92 1470.87,1016.92 "/>
<polyline clip-path="url(#clip360)" style="stroke:#000000; stroke-linecap:round; stroke-linejoin:round; stroke-width:4; stroke-opacity:1; fill:none" points="1489.76,777.261 1470.87,777.261 "/>
<polyline clip-path="url(#clip360)" style="stroke:#000000; stroke-linecap:round; stroke-linejoin:round; stroke-width:4; stroke-opacity:1; fill:none" points="1489.76,537.602 1470.87,537.602 "/>
<polyline clip-path="url(#clip360)" style="stroke:#000000; stroke-linecap:round; stroke-linejoin:round; stroke-width:4; stroke-opacity:1; fill:none" points="1489.76,297.942 1470.87,297.942 "/>
<polyline clip-path="url(#clip360)" style="stroke:#000000; stroke-linecap:round; stroke-linejoin:round; stroke-width:4; stroke-opacity:1; fill:none" points="1489.76,58.2833 1470.87,58.2833 "/>
<path clip-path="url(#clip360)" d="M187.192 1018.02 Q187.192 1010.58 189.07 1006.53 Q191.688 1000.5 197.864 1000.5 Q199.173 1000.5 200.532 1000.88 Q201.915 1001.22 203.645 1002.58 Q205.399 1003.94 206.461 1006.16 Q208.487 1010.46 208.487 1018.02 Q208.487 1025.41 206.609 1029.43 Q203.867 1035.31 197.815 1035.31 Q195.542 1035.31 193.22 1034.15 Q190.922 1032.99 189.465 1030.2 Q187.192 1026.02 187.192 1018.02 M191.392 1017.4 Q191.392 1025.03 191.935 1028.07 Q192.553 1031.36 194.233 1032.79 Q195.937 1034.2 197.815 1034.2 Q199.84 1034.2 201.52 1032.69 Q203.225 1031.16 203.744 1027.88 Q204.312 1024.64 204.287 1017.4 Q204.287 1010.36 203.793 1007.54 Q203.126 1004.26 201.347 1002.95 Q199.593 1001.62 197.815 1001.62 Q197.148 1001.62 196.431 1001.81 Q195.74 1002.01 194.727 1002.58 Q193.714 1003.15 192.923 1004.56 Q192.158 1005.96 191.787 1008.09 Q191.392 1010.83 191.392 1017.4 Z" fill="#000000" fill-rule="nonzero" fill-opacity="1" /><path clip-path="url(#clip360)" d="M215.576 1033.38 Q214.811 1032.57 214.811 1031.51 Q214.811 1030.44 215.576 1029.68 Q216.342 1028.89 217.503 1028.89 Q218.615 1028.89 219.356 1029.63 Q220.122 1030.35 220.122 1031.53 Q220.122 1032.69 219.307 1033.46 Q218.516 1034.2 217.503 1034.2 Q216.342 1034.2 215.576 1033.38 Z" fill="#000000" fill-rule="nonzero" fill-opacity="1" /><path clip-path="url(#clip360)" d="M226.545 1018.02 Q226.545 1010.58 228.422 1006.53 Q231.041 1000.5 237.217 1000.5 Q238.526 1000.5 239.885 1000.88 Q241.268 1001.22 242.997 1002.58 Q244.751 1003.94 245.813 1006.16 Q247.839 1010.46 247.839 1018.02 Q247.839 1025.41 245.962 1029.43 Q243.22 1035.31 237.167 1035.31 Q234.894 1035.31 232.572 1034.15 Q230.275 1032.99 228.817 1030.2 Q226.545 1026.02 226.545 1018.02 M230.744 1017.4 Q230.744 1025.03 231.288 1028.07 Q231.905 1031.36 233.585 1032.79 Q235.29 1034.2 237.167 1034.2 Q239.193 1034.2 240.873 1032.69 Q242.577 1031.16 243.096 1027.88 Q243.664 1024.64 243.639 1017.4 Q243.639 1010.36 243.145 1007.54 Q242.478 1004.26 240.7 1002.95 Q238.946 1001.62 237.167 1001.62 Q236.5 1001.62 235.784 1001.81 Q235.092 1002.01 234.079 1002.58 Q233.066 1003.15 232.276 1004.56 Q231.51 1005.96 231.14 1008.09 Q230.744 1010.83 230.744 1017.4 Z" fill="#000000" fill-rule="nonzero" fill-opacity="1" /><path clip-path="url(#clip360)" d="M251.841 1018.02 Q251.841 1010.58 253.718 1006.53 Q256.337 1000.5 262.513 1000.5 Q263.822 1000.5 265.181 1000.88 Q266.564 1001.22 268.293 1002.58 Q270.047 1003.94 271.11 1006.16 Q273.135 1010.46 273.135 1018.02 Q273.135 1025.41 271.258 1029.43 Q268.516 1035.31 262.463 1035.31 Q260.191 1035.31 257.869 1034.15 Q255.571 1032.99 254.114 1030.2 Q251.841 1026.02 251.841 1018.02 M256.041 1017.4 Q256.041 1025.03 256.584 1028.07 Q257.202 1031.36 258.881 1032.79 Q260.586 1034.2 262.463 1034.2 Q264.489 1034.2 266.169 1032.69 Q267.873 1031.16 268.392 1027.88 Q268.96 1024.64 268.936 1017.4 Q268.936 1010.36 268.442 1007.54 Q267.775 1004.26 265.996 1002.95 Q264.242 1001.62 262.463 1001.62 Q261.796 1001.62 261.08 1001.81 Q260.388 1002.01 259.376 1002.58 Q258.363 1003.15 257.572 1004.56 Q256.806 1005.96 256.436 1008.09 Q256.041 1010.83 256.041 1017.4 Z" fill="#000000" fill-rule="nonzero" fill-opacity="1" /><path clip-path="url(#clip360)" d="M187.736 778.36 Q187.736 770.924 189.613 766.873 Q192.232 760.845 198.408 760.845 Q199.717 760.845 201.076 761.216 Q202.459 761.562 204.188 762.92 Q205.942 764.279 207.004 766.502 Q209.03 770.801 209.03 778.36 Q209.03 785.746 207.153 789.773 Q204.411 795.652 198.358 795.652 Q196.085 795.652 193.763 794.491 Q191.466 793.33 190.008 790.539 Q187.736 786.364 187.736 778.36 M191.935 777.742 Q191.935 785.376 192.479 788.414 Q193.096 791.7 194.776 793.133 Q196.481 794.541 198.358 794.541 Q200.384 794.541 202.064 793.034 Q203.768 791.502 204.287 788.217 Q204.855 784.981 204.83 777.742 Q204.83 770.702 204.336 767.886 Q203.669 764.6 201.891 763.291 Q200.137 761.957 198.358 761.957 Q197.691 761.957 196.975 762.155 Q196.283 762.352 195.27 762.92 Q194.257 763.489 193.467 764.897 Q192.701 766.305 192.331 768.429 Q191.935 771.171 191.935 777.742 Z" fill="#000000" fill-rule="nonzero" fill-opacity="1" /><path clip-path="url(#clip360)" d="M216.12 793.725 Q215.354 792.91 215.354 791.848 Q215.354 790.786 216.12 790.02 Q216.886 789.229 218.047 789.229 Q219.158 789.229 219.9 789.971 Q220.665 790.687 220.665 791.873 Q220.665 793.034 219.85 793.8 Q219.06 794.541 218.047 794.541 Q216.886 794.541 216.12 793.725 Z" fill="#000000" fill-rule="nonzero" fill-opacity="1" /><path clip-path="url(#clip360)" d="M227.632 794.541 Q227.632 793.627 227.706 793.355 Q227.805 793.083 228.2 792.663 L237.908 781.843 Q243.22 775.865 243.22 770.653 Q243.22 767.268 241.441 764.847 Q239.687 762.426 236.451 762.426 Q234.227 762.426 232.35 763.785 Q230.473 765.144 229.608 767.565 Q229.756 767.515 230.275 767.515 Q231.535 767.515 232.227 768.306 Q232.943 769.096 232.943 770.158 Q232.943 771.517 232.054 772.184 Q231.189 772.826 230.324 772.826 Q229.979 772.826 229.509 772.752 Q229.064 772.678 228.348 771.987 Q227.632 771.27 227.632 770.01 Q227.632 766.478 230.3 763.662 Q232.992 760.845 237.093 760.845 Q241.737 760.845 244.776 763.612 Q247.839 766.354 247.839 770.653 Q247.839 772.159 247.37 773.543 Q246.925 774.902 246.307 775.964 Q245.715 777.026 244.084 778.731 Q242.454 780.435 241.144 781.646 Q239.835 782.856 236.895 785.425 L231.535 790.638 L240.65 790.638 Q245.097 790.638 245.443 790.242 Q245.937 789.526 246.554 785.746 L247.839 785.746 L246.406 794.541 L227.632 794.541 Z" fill="#000000" fill-rule="nonzero" fill-opacity="1" /><path clip-path="url(#clip360)" d="M252.928 786.389 Q252.928 784.882 253.743 784.314 Q254.558 783.721 255.423 783.721 Q256.584 783.721 257.251 784.462 Q257.943 785.178 257.943 786.191 Q257.943 787.204 257.251 787.945 Q256.584 788.661 255.423 788.661 Q254.855 788.661 254.558 788.562 Q255.225 790.885 257.251 792.564 Q259.301 794.244 261.994 794.244 Q265.378 794.244 267.404 790.959 Q268.615 788.834 268.615 784.017 Q268.615 779.768 267.701 777.644 Q266.292 774.407 263.402 774.407 Q259.301 774.407 256.88 777.94 Q256.584 778.385 256.238 778.409 Q255.744 778.409 255.621 778.138 Q255.522 777.841 255.522 777.075 L255.522 762.105 Q255.522 760.895 256.016 760.895 Q256.213 760.895 256.633 761.043 Q259.82 762.451 263.353 762.476 Q266.984 762.476 270.245 760.994 Q270.492 760.845 270.64 760.845 Q271.134 760.845 271.159 761.413 Q271.159 761.611 270.739 762.204 Q270.344 762.772 269.479 763.538 Q268.615 764.279 267.503 764.995 Q266.391 765.712 264.761 766.206 Q263.155 766.675 261.376 766.675 Q259.252 766.675 257.078 766.008 L257.078 775.865 Q259.697 773.296 263.501 773.296 Q267.552 773.296 270.344 776.557 Q273.135 779.818 273.135 784.363 Q273.135 789.131 269.825 792.392 Q266.539 795.652 262.093 795.652 Q258.042 795.652 255.472 792.762 Q252.928 789.872 252.928 786.389 Z" fill="#000000" fill-rule="nonzero" fill-opacity="1" /><path clip-path="url(#clip360)" d="M187.192 538.701 Q187.192 531.265 189.07 527.214 Q191.688 521.186 197.864 521.186 Q199.173 521.186 200.532 521.557 Q201.915 521.903 203.645 523.261 Q205.399 524.62 206.461 526.843 Q208.487 531.142 208.487 538.701 Q208.487 546.087 206.609 550.114 Q203.867 555.993 197.815 555.993 Q195.542 555.993 193.22 554.832 Q190.922 553.671 189.465 550.88 Q187.192 546.705 187.192 538.701 M191.392 538.083 Q191.392 545.717 191.935 548.755 Q192.553 552.041 194.233 553.473 Q195.937 554.882 197.815 554.882 Q199.84 554.882 201.52 553.375 Q203.225 551.843 203.744 548.558 Q204.312 545.321 204.287 538.083 Q204.287 531.043 203.793 528.227 Q203.126 524.941 201.347 523.632 Q199.593 522.298 197.815 522.298 Q197.148 522.298 196.431 522.495 Q195.74 522.693 194.727 523.261 Q193.714 523.829 192.923 525.238 Q192.158 526.646 191.787 528.77 Q191.392 531.512 191.392 538.083 Z" fill="#000000" fill-rule="nonzero" fill-opacity="1" /><path clip-path="url(#clip360)" d="M215.576 554.066 Q214.811 553.251 214.811 552.189 Q214.811 551.127 215.576 550.361 Q216.342 549.57 217.503 549.57 Q218.615 549.57 219.356 550.311 Q220.122 551.028 220.122 552.214 Q220.122 553.375 219.307 554.14 Q218.516 554.882 217.503 554.882 Q216.342 554.882 215.576 554.066 Z" fill="#000000" fill-rule="nonzero" fill-opacity="1" /><path clip-path="url(#clip360)" d="M227.088 546.729 Q227.088 545.223 227.903 544.654 Q228.719 544.061 229.583 544.061 Q230.744 544.061 231.411 544.803 Q232.103 545.519 232.103 546.532 Q232.103 547.545 231.411 548.286 Q230.744 549.002 229.583 549.002 Q229.015 549.002 228.719 548.903 Q229.386 551.225 231.411 552.905 Q233.462 554.585 236.154 554.585 Q239.539 554.585 241.564 551.3 Q242.775 549.175 242.775 544.358 Q242.775 540.109 241.861 537.984 Q240.453 534.748 237.562 534.748 Q233.462 534.748 231.041 538.281 Q230.744 538.726 230.398 538.75 Q229.904 538.75 229.781 538.479 Q229.682 538.182 229.682 537.416 L229.682 522.446 Q229.682 521.236 230.176 521.236 Q230.374 521.236 230.794 521.384 Q233.98 522.792 237.513 522.817 Q241.144 522.817 244.405 521.334 Q244.652 521.186 244.801 521.186 Q245.295 521.186 245.319 521.754 Q245.319 521.952 244.899 522.545 Q244.504 523.113 243.639 523.879 Q242.775 524.62 241.663 525.336 Q240.552 526.053 238.921 526.547 Q237.315 527.016 235.537 527.016 Q233.412 527.016 231.238 526.349 L231.238 536.206 Q233.857 533.637 237.661 533.637 Q241.713 533.637 244.504 536.898 Q247.296 540.158 247.296 544.704 Q247.296 549.472 243.985 552.732 Q240.7 555.993 236.253 555.993 Q232.202 555.993 229.633 553.103 Q227.088 550.213 227.088 546.729 Z" fill="#000000" fill-rule="nonzero" fill-opacity="1" /><path clip-path="url(#clip360)" d="M251.841 538.701 Q251.841 531.265 253.718 527.214 Q256.337 521.186 262.513 521.186 Q263.822 521.186 265.181 521.557 Q266.564 521.903 268.293 523.261 Q270.047 524.62 271.11 526.843 Q273.135 531.142 273.135 538.701 Q273.135 546.087 271.258 550.114 Q268.516 555.993 262.463 555.993 Q260.191 555.993 257.869 554.832 Q255.571 553.671 254.114 550.88 Q251.841 546.705 251.841 538.701 M256.041 538.083 Q256.041 545.717 256.584 548.755 Q257.202 552.041 258.881 553.473 Q260.586 554.882 262.463 554.882 Q264.489 554.882 266.169 553.375 Q267.873 551.843 268.392 548.558 Q268.96 545.321 268.936 538.083 Q268.936 531.043 268.442 528.227 Q267.775 524.941 265.996 523.632 Q264.242 522.298 262.463 522.298 Q261.796 522.298 261.08 522.495 Q260.388 522.693 259.376 523.261 Q258.363 523.829 257.572 525.238 Q256.806 526.646 256.436 528.77 Q256.041 531.512 256.041 538.083 Z" fill="#000000" fill-rule="nonzero" fill-opacity="1" /><path clip-path="url(#clip360)" d="M187.736 299.042 Q187.736 291.606 189.613 287.555 Q192.232 281.527 198.408 281.527 Q199.717 281.527 201.076 281.898 Q202.459 282.243 204.188 283.602 Q205.942 284.961 207.004 287.184 Q209.03 291.482 209.03 299.042 Q209.03 306.428 207.153 310.455 Q204.411 316.334 198.358 316.334 Q196.085 316.334 193.763 315.173 Q191.466 314.012 190.008 311.22 Q187.736 307.046 187.736 299.042 M191.935 298.424 Q191.935 306.057 192.479 309.096 Q193.096 312.382 194.776 313.814 Q196.481 315.222 198.358 315.222 Q200.384 315.222 202.064 313.716 Q203.768 312.184 204.287 308.898 Q204.855 305.662 204.83 298.424 Q204.83 291.384 204.336 288.568 Q203.669 285.282 201.891 283.973 Q200.137 282.639 198.358 282.639 Q197.691 282.639 196.975 282.836 Q196.283 283.034 195.27 283.602 Q194.257 284.17 193.467 285.578 Q192.701 286.986 192.331 289.111 Q191.935 291.853 191.935 298.424 Z" fill="#000000" fill-rule="nonzero" fill-opacity="1" /><path clip-path="url(#clip360)" d="M216.12 314.407 Q215.354 313.592 215.354 312.53 Q215.354 311.468 216.12 310.702 Q216.886 309.911 218.047 309.911 Q219.158 309.911 219.9 310.652 Q220.665 311.369 220.665 312.554 Q220.665 313.716 219.85 314.481 Q219.06 315.222 218.047 315.222 Q216.886 315.222 216.12 314.407 Z" fill="#000000" fill-rule="nonzero" fill-opacity="1" /><path clip-path="url(#clip360)" d="M227.953 291.433 L229.608 281.033 L230.868 281.033 Q231.016 281.651 231.263 281.922 Q231.535 282.194 232.968 282.416 Q234.425 282.639 237.365 282.639 L249.642 282.639 Q249.642 283.8 249.198 284.417 L242.355 294.027 Q240.181 297.065 239.218 302.673 Q238.649 306.428 238.674 310.973 L238.674 313.543 Q238.674 316.334 236.327 316.334 Q234.005 316.334 234.005 313.543 Q234.005 303.884 240.23 294.521 Q240.897 293.558 243.343 290.124 Q245.813 286.69 245.912 286.542 L235.438 286.542 Q230.843 286.542 230.473 286.838 Q229.979 287.283 229.213 291.433 L227.953 291.433 Z" fill="#000000" fill-rule="nonzero" fill-opacity="1" /><path clip-path="url(#clip360)" d="M252.928 307.07 Q252.928 305.563 253.743 304.995 Q254.558 304.402 255.423 304.402 Q256.584 304.402 257.251 305.143 Q257.943 305.86 257.943 306.873 Q257.943 307.886 257.251 308.627 Q256.584 309.343 255.423 309.343 Q254.855 309.343 254.558 309.244 Q255.225 311.566 257.251 313.246 Q259.301 314.926 261.994 314.926 Q265.378 314.926 267.404 311.64 Q268.615 309.516 268.615 304.699 Q268.615 300.45 267.701 298.325 Q266.292 295.089 263.402 295.089 Q259.301 295.089 256.88 298.622 Q256.584 299.066 256.238 299.091 Q255.744 299.091 255.621 298.819 Q255.522 298.523 255.522 297.757 L255.522 282.787 Q255.522 281.576 256.016 281.576 Q256.213 281.576 256.633 281.725 Q259.82 283.133 263.353 283.157 Q266.984 283.157 270.245 281.675 Q270.492 281.527 270.64 281.527 Q271.134 281.527 271.159 282.095 Q271.159 282.293 270.739 282.886 Q270.344 283.454 269.479 284.22 Q268.615 284.961 267.503 285.677 Q266.391 286.394 264.761 286.888 Q263.155 287.357 261.376 287.357 Q259.252 287.357 257.078 286.69 L257.078 296.547 Q259.697 293.978 263.501 293.978 Q267.552 293.978 270.344 297.238 Q273.135 300.499 273.135 305.045 Q273.135 309.812 269.825 313.073 Q266.539 316.334 262.093 316.334 Q258.042 316.334 255.472 313.444 Q252.928 310.553 252.928 307.07 Z" fill="#000000" fill-rule="nonzero" fill-opacity="1" /><path clip-path="url(#clip360)" d="M189.712 46.6851 L189.712 45.104 Q195.789 45.104 198.926 41.8679 Q199.791 41.8679 199.939 42.0655 Q200.087 42.2632 200.087 43.1772 L200.087 71.5613 Q200.087 73.0682 200.829 73.5376 Q201.57 74.007 204.806 74.007 L206.411 74.007 L206.411 75.5633 Q204.633 75.4151 198.21 75.4151 Q191.787 75.4151 190.033 75.5633 L190.033 74.007 L191.639 74.007 Q194.826 74.007 195.591 73.5623 Q196.357 73.093 196.357 71.5613 L196.357 45.3511 Q193.714 46.6851 189.712 46.6851 Z" fill="#000000" fill-rule="nonzero" fill-opacity="1" /><path clip-path="url(#clip360)" d="M215.576 74.7481 Q214.811 73.9329 214.811 72.8706 Q214.811 71.8084 215.576 71.0426 Q216.342 70.2521 217.503 70.2521 Q218.615 70.2521 219.356 70.9932 Q220.122 71.7096 220.122 72.8953 Q220.122 74.0564 219.307 74.8222 Q218.516 75.5633 217.503 75.5633 Q216.342 75.5633 215.576 74.7481 Z" fill="#000000" fill-rule="nonzero" fill-opacity="1" /><path clip-path="url(#clip360)" d="M226.545 59.3826 Q226.545 51.9469 228.422 47.8955 Q231.041 41.8679 237.217 41.8679 Q238.526 41.8679 239.885 42.2385 Q241.268 42.5843 242.997 43.943 Q244.751 45.3017 245.813 47.525 Q247.839 51.8234 247.839 59.3826 Q247.839 66.7689 245.962 70.7955 Q243.22 76.6749 237.167 76.6749 Q234.894 76.6749 232.572 75.5139 Q230.275 74.3528 228.817 71.5613 Q226.545 67.3865 226.545 59.3826 M230.744 58.765 Q230.744 66.3983 231.288 69.4369 Q231.905 72.7224 233.585 74.1552 Q235.29 75.5633 237.167 75.5633 Q239.193 75.5633 240.873 74.0564 Q242.577 72.5248 243.096 69.2392 Q243.664 66.0031 243.639 58.765 Q243.639 51.7245 243.145 48.9084 Q242.478 45.6228 240.7 44.3135 Q238.946 42.9796 237.167 42.9796 Q236.5 42.9796 235.784 43.1772 Q235.092 43.3748 234.079 43.943 Q233.066 44.5112 232.276 45.9193 Q231.51 47.3273 231.14 49.4518 Q230.744 52.1939 230.744 58.765 Z" fill="#000000" fill-rule="nonzero" fill-opacity="1" /><path clip-path="url(#clip360)" d="M251.841 59.3826 Q251.841 51.9469 253.718 47.8955 Q256.337 41.8679 262.513 41.8679 Q263.822 41.8679 265.181 42.2385 Q266.564 42.5843 268.293 43.943 Q270.047 45.3017 271.11 47.525 Q273.135 51.8234 273.135 59.3826 Q273.135 66.7689 271.258 70.7955 Q268.516 76.6749 262.463 76.6749 Q260.191 76.6749 257.869 75.5139 Q255.571 74.3528 254.114 71.5613 Q251.841 67.3865 251.841 59.3826 M256.041 58.765 Q256.041 66.3983 256.584 69.4369 Q257.202 72.7224 258.881 74.1552 Q260.586 75.5633 262.463 75.5633 Q264.489 75.5633 266.169 74.0564 Q267.873 72.5248 268.392 69.2392 Q268.96 66.0031 268.936 58.765 Q268.936 51.7245 268.442 48.9084 Q267.775 45.6228 265.996 44.3135 Q264.242 42.9796 262.463 42.9796 Q261.796 42.9796 261.08 43.1772 Q260.388 43.3748 259.376 43.943 Q258.363 44.5112 257.572 45.9193 Q256.806 47.3273 256.436 49.4518 Q256.041 52.1939 256.041 58.765 Z" fill="#000000" fill-rule="nonzero" fill-opacity="1" /><path clip-path="url(#clip360)" d="M133.991 750.474 Q127.367 750.474 122.782 745.854 Q118.196 741.235 118.196 734.985 Q118.196 729.686 122.51 726.221 L107.462 726.221 Q104.881 726.221 104.236 727.138 Q103.59 728.021 103.59 731.622 L101.416 731.622 L100.669 721.602 L142.89 721.602 Q145.472 721.602 146.151 720.718 Q146.796 719.801 146.796 716.201 L148.936 716.201 L149.718 726.425 L145.098 726.425 Q149.684 730.025 149.718 735.732 Q149.718 741.71 145.132 746.092 Q140.546 750.474 133.991 750.474 M134.059 744.699 Q140.512 744.699 143.705 742.695 Q148.155 739.91 148.155 735.392 Q148.155 730.229 143.298 727.172 Q142.109 726.391 140.716 726.425 L126.45 726.425 Q125.057 726.425 123.903 727.172 Q119.725 730.025 119.725 734.679 Q119.725 739.536 124.174 742.559 Q127.503 744.699 134.059 744.699 Z" fill="#000000" fill-rule="nonzero" fill-opacity="1" /><path clip-path="url(#clip360)" d="M133.617 712.328 Q127.061 712.328 122.408 708.117 Q117.754 703.905 117.754 697.858 Q117.754 691.744 121.729 688.585 Q125.703 685.393 131.409 685.393 Q132.462 685.393 132.666 685.664 Q132.87 685.936 132.87 687.125 L132.87 706.554 Q139.969 706.554 143.298 704.448 Q147.951 701.527 147.951 696.602 Q147.951 695.922 147.815 695.107 Q147.68 694.292 147.102 692.628 Q146.491 690.963 144.894 689.503 Q143.298 688.042 140.784 687.193 Q139.799 686.989 139.833 686.31 Q139.833 685.393 140.648 685.393 Q141.26 685.393 142.652 686.072 Q144.011 686.717 145.641 687.974 Q147.272 689.231 148.495 691.676 Q149.718 694.088 149.718 697.009 Q149.718 703.123 145.098 707.743 Q140.445 712.328 133.617 712.328 M131.409 706.486 L131.409 689.978 Q129.949 689.978 128.318 690.25 Q126.688 690.488 124.446 691.235 Q122.17 691.948 120.744 693.647 Q119.317 695.345 119.317 697.858 Q119.317 698.979 119.792 700.202 Q120.268 701.391 121.423 702.852 Q122.578 704.312 125.193 705.331 Q127.809 706.35 131.409 706.486 Z" fill="#000000" fill-rule="nonzero" fill-opacity="1" /><path clip-path="url(#clip360)" d="M148.936 681.147 L146.796 681.147 Q146.796 677.444 146.355 676.595 Q145.879 675.746 143.637 675.746 L124.989 675.746 Q122.408 675.746 121.763 676.663 Q121.117 677.546 121.117 681.147 L118.943 681.147 L118.196 671.364 L125.499 671.364 Q118.196 668.103 118.196 661.072 Q118.196 655.841 120.778 653.769 Q122.51 652.241 124.446 651.935 Q126.382 651.595 131.409 651.595 L144.69 651.595 Q146.151 651.527 146.491 650.406 Q146.796 649.286 146.796 646.161 L148.936 646.161 Q148.732 653.26 148.732 653.973 Q148.732 654.516 148.936 661.819 L146.796 661.819 Q146.796 658.117 146.355 657.268 Q145.879 656.385 143.637 656.385 L127.435 656.385 Q123.903 656.385 121.831 657.472 Q119.725 658.559 119.725 661.548 Q119.725 665.148 122.748 668.035 Q125.771 670.923 130.866 670.923 L143.637 670.923 Q145.879 670.923 146.355 670.073 Q146.796 669.19 146.796 665.522 L148.936 665.522 Q148.732 672.621 148.732 673.3 Q148.732 673.844 148.936 681.147 Z" fill="#000000" fill-rule="nonzero" fill-opacity="1" /><path clip-path="url(#clip360)" d="M148.019 642.492 L138.848 642.492 Q138.067 642.492 137.795 642.458 Q137.523 642.424 137.32 642.22 Q137.116 642.017 137.116 641.609 Q137.116 641.133 137.32 640.964 Q137.523 640.76 138.305 640.624 Q143.094 639.571 145.641 637.329 Q148.155 635.053 148.155 630.943 Q148.155 627.037 146.423 625.067 Q144.69 623.097 141.837 623.097 Q136.742 623.097 135.451 630.332 Q134.602 634.51 134.059 636.242 Q133.481 637.974 132.224 639.503 Q129.779 642.492 126.314 642.492 Q122.85 642.492 120.302 639.877 Q117.754 637.227 117.754 631.385 Q117.754 627.479 119.725 624.829 Q119.113 624.048 118.604 623.64 Q117.754 622.723 117.754 622.248 Q117.754 621.704 118.128 621.602 Q118.468 621.5 119.453 621.5 L126.45 621.5 Q127.231 621.5 127.503 621.534 Q127.775 621.568 127.979 621.772 Q128.148 621.976 128.148 622.418 Q128.148 623.199 127.503 623.233 Q119.079 623.776 119.079 631.385 Q119.079 635.495 120.676 637.329 Q122.238 639.163 124.378 639.163 Q125.567 639.163 126.484 638.62 Q127.367 638.042 127.911 637.329 Q128.42 636.582 128.93 635.223 Q129.405 633.864 129.575 633.049 Q129.745 632.2 130.085 630.604 Q131.138 625.033 133.413 622.689 Q136.334 619.768 140.037 619.768 Q144.147 619.768 146.932 622.553 Q149.718 625.339 149.718 630.943 Q149.718 635.461 146.694 638.62 Q147.102 639.027 147.476 639.333 Q147.815 639.639 147.951 639.775 Q148.087 639.877 148.189 639.911 Q148.257 639.945 148.325 640.012 Q149.718 641.405 149.718 641.745 Q149.718 642.288 149.344 642.39 Q149.004 642.492 148.019 642.492 Z" fill="#000000" fill-rule="nonzero" fill-opacity="1" /><path clip-path="url(#clip360)" d="M148.936 615.115 L146.796 615.115 Q146.796 611.412 146.355 610.563 Q145.879 609.714 143.637 609.714 L124.922 609.714 Q122.34 609.714 121.729 610.597 Q121.117 611.446 121.117 614.843 L118.943 614.843 L118.196 605.128 L143.705 605.128 Q145.777 605.128 146.287 604.381 Q146.796 603.634 146.796 600.237 L148.936 600.237 Q148.732 607.336 148.732 607.472 Q148.732 608.423 148.936 615.115 M106.07 612.193 Q104.677 612.193 103.556 611.14 Q102.401 610.053 102.401 608.525 Q102.401 606.996 103.454 605.91 Q104.473 604.823 106.104 604.823 Q107.7 604.823 108.753 605.91 Q109.772 606.996 109.772 608.525 Q109.772 610.121 108.651 611.174 Q107.53 612.193 106.07 612.193 Z" fill="#000000" fill-rule="nonzero" fill-opacity="1" /><path clip-path="url(#clip360)" d="M121.117 596.84 L119.589 596.84 Q119.453 593.647 117.211 591.541 Q114.935 589.401 112.15 588.688 Q109.365 587.941 106.138 587.873 L106.138 586.141 L118.943 586.141 L118.943 576.188 L121.117 576.188 L121.117 586.141 L140.445 586.141 Q147.951 586.141 147.951 581.453 Q147.951 579.449 145.913 578.124 Q143.841 576.8 140.173 576.8 L136.334 576.8 L136.334 575.067 L140.309 575.067 Q144.079 575.067 146.898 576.8 Q149.718 578.532 149.718 581.963 Q149.718 583.219 149.378 584.476 Q149.072 585.699 148.257 587.329 Q147.408 588.926 145.37 589.945 Q143.298 590.93 140.309 590.93 L121.117 590.93 L121.117 596.84 Z" fill="#000000" fill-rule="nonzero" fill-opacity="1" /><path clip-path="url(#clip360)" d="M157.564 571.807 Q156.103 571.807 155.322 570.957 Q154.575 570.074 154.575 568.885 Q154.575 567.629 155.356 566.813 Q156.171 565.964 157.496 565.964 Q160.077 565.964 160.417 568.682 Q161.674 567.357 161.674 565.421 Q161.674 563.349 160.145 561.684 Q158.617 559.986 157.156 559.273 Q155.696 558.525 153.046 557.472 Q150.974 556.487 148.936 555.74 L123.529 566.168 Q121.864 566.847 121.491 567.9 Q121.117 568.953 121.117 571.807 L118.943 571.807 Q119.147 568.682 119.147 565.047 Q119.147 562.907 118.943 557.472 L121.117 557.472 Q121.117 561.379 122.917 561.379 Q123.121 561.379 124.174 560.971 L142.89 553.227 L125.771 546.195 Q124.786 545.788 124.106 545.788 Q121.253 545.788 121.117 549.049 L118.943 549.049 Q119.147 544.463 119.147 543.002 Q119.147 540.149 118.943 537.805 L121.117 537.805 Q121.117 542.459 125.567 544.259 L155.254 556.521 Q163.169 559.85 163.202 565.421 Q163.202 568.07 161.572 569.938 Q159.942 571.807 157.564 571.807 Z" fill="#000000" fill-rule="nonzero" fill-opacity="1" /><path clip-path="url(#clip360)" d="M131.545 506.454 Q119.792 506.454 110.316 502.072 Q106.342 500.204 103.013 497.588 Q99.684 494.973 98.2234 493.241 Q96.7628 491.508 96.7628 491.033 Q96.7628 490.353 97.4421 490.319 Q97.7818 490.319 98.631 491.237 Q110.044 502.446 131.545 502.412 Q153.114 502.412 164.086 491.508 Q165.274 490.319 165.648 490.319 Q166.327 490.319 166.327 491.033 Q166.327 491.508 164.935 493.173 Q163.542 494.837 160.349 497.419 Q157.156 500 153.25 501.868 Q143.773 506.454 131.545 506.454 Z" fill="#000000" fill-rule="nonzero" fill-opacity="1" /><path clip-path="url(#clip360)" d="M148.936 484.137 L146.796 484.137 Q146.728 481.896 146.321 480.435 Q145.879 478.94 144.792 478.091 Q143.705 477.208 142.992 476.868 Q142.245 476.495 140.512 475.883 L104.983 463.485 Q104.202 463.282 102.707 462.738 Q101.212 462.161 100.465 461.957 Q98.5291 466.95 92.9924 466.984 Q90.0713 466.984 87.7615 465.184 Q85.4178 463.35 85.4178 460.36 Q85.4178 457.439 87.7275 455.571 Q90.0033 453.669 92.9924 453.669 Q98.4951 453.669 100.465 458.696 L142.686 444.09 Q145.608 443.037 146.219 442.052 Q146.796 441.033 146.796 436.787 L146.796 436.515 L148.936 436.515 Q148.732 440.965 148.732 445.415 Q148.732 450.51 148.936 455.639 L146.796 455.639 L146.796 455.503 Q146.796 450 144.555 450 Q144.011 450 133.074 453.737 L133.074 470.992 Q134.466 471.4 136.98 472.317 Q139.459 473.234 141.124 473.777 Q142.754 474.287 143.298 474.287 Q144.555 474.287 145.641 473.064 Q146.694 471.841 146.796 469.124 L148.936 469.124 Q148.732 473.166 148.732 477.276 Q148.732 480.673 148.936 484.137 M130.934 470.245 L130.934 454.518 L108.312 462.364 L130.934 470.245 M92.9245 465.218 Q96.3891 465.218 97.7478 463.723 Q99.0726 462.229 99.0726 460.292 Q99.0726 458.356 97.7478 456.896 Q96.4231 455.435 93.0604 455.435 Q89.5957 455.435 88.271 456.93 Q86.9463 458.424 86.9463 460.36 Q86.9463 462.297 88.271 463.757 Q89.5957 465.218 92.9245 465.218 Z" fill="#000000" fill-rule="nonzero" fill-opacity="1" /><path clip-path="url(#clip360)" d="M115.275 426.054 L105.255 413.044 L115.275 399.967 L116.735 401.02 L108.923 413.044 L116.735 425.035 L115.275 426.054 Z" fill="#000000" fill-rule="nonzero" fill-opacity="1" /><path clip-path="url(#clip360)" d="M135.995 391.034 L131.885 391.034 L131.885 372.521 L135.995 372.521 L135.995 391.034 Z" fill="#000000" fill-rule="nonzero" fill-opacity="1" /><path clip-path="url(#clip360)" d="M109.229 362.399 L107.055 362.399 Q107.055 354.043 102.605 349.729 Q102.605 348.541 102.877 348.337 Q103.149 348.133 104.405 348.133 L143.434 348.133 Q145.506 348.133 146.151 347.114 Q146.796 346.095 146.796 341.645 L146.796 339.437 L148.936 339.437 Q148.732 341.883 148.732 350.715 Q148.732 359.546 148.936 361.958 L146.796 361.958 L146.796 359.75 Q146.796 355.368 146.185 354.315 Q145.54 353.262 143.434 353.262 L107.394 353.262 Q109.229 356.897 109.229 362.399 Z" fill="#000000" fill-rule="nonzero" fill-opacity="1" /><path clip-path="url(#clip360)" d="M165.648 329.825 Q165.308 329.825 164.459 328.942 Q153.046 317.732 131.545 317.732 Q109.976 317.732 99.0726 328.5 Q97.8158 329.825 97.4421 329.825 Q96.7628 329.825 96.7628 329.145 Q96.7628 328.67 98.1554 327.005 Q99.5481 325.307 102.741 322.76 Q105.934 320.178 109.84 318.276 Q119.317 313.69 131.545 313.69 Q143.298 313.69 152.775 318.072 Q156.749 319.94 160.077 322.556 Q163.406 325.171 164.867 326.904 Q166.327 328.636 166.327 329.145 Q166.327 329.825 165.648 329.825 Z" fill="#000000" fill-rule="nonzero" fill-opacity="1" /><path clip-path="url(#clip361)" d="M362.732 633.465 L362.732 1016.92 L628.091 1016.92 L628.091 633.465 L362.732 633.465 L362.732 633.465  Z" fill="#808080" fill-rule="evenodd" fill-opacity="1"/>
<polyline clip-path="url(#clip361)" style="stroke:#000000; stroke-linecap:round; stroke-linejoin:round; stroke-width:4; stroke-opacity:1; fill:none" points="362.732,633.465 362.732,1016.92 628.091,1016.92 628.091,633.465 362.732,633.465 "/>
<path clip-path="url(#clip361)" d="M628.091 585.533 L628.091 1016.92 L893.45 1016.92 L893.45 585.533 L628.091 585.533 L628.091 585.533  Z" fill="#808080" fill-rule="evenodd" fill-opacity="1"/>
<polyline clip-path="url(#clip361)" style="stroke:#000000; stroke-linecap:round; stroke-linejoin:round; stroke-width:4; stroke-opacity:1; fill:none" points="628.091,585.533 628.091,1016.92 893.45,1016.92 893.45,585.533 628.091,585.533 "/>
<path clip-path="url(#clip361)" d="M893.45 345.874 L893.45 1016.92 L1158.81 1016.92 L1158.81 345.874 L893.45 345.874 L893.45 345.874  Z" fill="#808080" fill-rule="evenodd" fill-opacity="1"/>
<polyline clip-path="url(#clip361)" style="stroke:#000000; stroke-linecap:round; stroke-linejoin:round; stroke-width:4; stroke-opacity:1; fill:none" points="893.45,345.874 893.45,1016.92 1158.81,1016.92 1158.81,345.874 893.45,345.874 "/>
<path clip-path="url(#clip361)" d="M1158.81 585.533 L1158.81 1016.92 L1424.17 1016.92 L1424.17 585.533 L1158.81 585.533 L1158.81 585.533  Z" fill="#808080" fill-rule="evenodd" fill-opacity="1"/>
<polyline clip-path="url(#clip361)" style="stroke:#000000; stroke-linecap:round; stroke-linejoin:round; stroke-width:4; stroke-opacity:1; fill:none" points="1158.81,585.533 1158.81,1016.92 1424.17,1016.92 1424.17,585.533 1158.81,585.533 "/>
<circle clip-path="url(#clip361)" style="fill:#808080; stroke:none; fill-opacity:0" cx="495.411" cy="633.465" r="2"/>
<circle clip-path="url(#clip361)" style="fill:#808080; stroke:none; fill-opacity:0" cx="760.77" cy="585.533" r="2"/>
<circle clip-path="url(#clip361)" style="fill:#808080; stroke:none; fill-opacity:0" cx="1026.13" cy="345.874" r="2"/>
<circle clip-path="url(#clip361)" style="fill:#808080; stroke:none; fill-opacity:0" cx="1291.49" cy="585.533" r="2"/>
<polyline clip-path="url(#clip361)" style="stroke:#000000; stroke-linecap:round; stroke-linejoin:round; stroke-width:8; stroke-opacity:1; fill:none" points="330.889,999.003 333.793,998.289 336.697,997.549 339.6,996.785 342.504,995.994 359.512,990.798 376.52,984.527 393.527,977.015 410.535,968.083 426.359,958.336 442.183,947.044 452.788,938.533 463.392,929.212 473.997,919.033 484.602,907.953 493.365,898.088 502.128,887.557 510.891,876.339 519.654,864.416 527.803,852.681 535.952,840.312 544.1,827.298 552.249,813.634 562.478,795.555 572.708,776.442 582.937,756.303 593.167,735.15 602.342,715.334 611.518,694.743 620.694,673.407 629.87,651.362 650.876,598.459 671.882,542.702 687.584,499.637 703.286,455.829 723.369,399.434 743.452,343.598 761.782,294.074 780.112,246.837 790.542,221.319 800.973,196.995 811.404,174.023 821.835,152.557 830.104,136.708 838.372,121.965 846.641,108.396 854.91,96.0584 865.183,82.531 875.456,71.0862 885.729,61.805 896.002,54.7535 903.869,50.8929 911.736,48.3862 919.604,47.2441 927.471,47.4714 938.563,50.1151 949.655,55.4558 955.201,59.1243 960.747,63.4485 966.293,68.4194 971.838,74.0266 980.127,83.5677 988.416,94.4601 996.705,106.654 1004.99,120.095 1014.42,136.817 1023.85,154.978 1033.27,174.475 1042.7,195.2 1052.03,216.822 1061.37,239.424 1070.7,262.889 1080.04,287.099 1100.58,342.409 1121.12,399.503 1136.81,443.568 1152.5,487.471 1172.3,541.932 1192.1,594.587 1210.41,641.083 1228.72,685.01 1238.16,706.545 1247.61,727.274 1257.05,747.167 1266.49,766.205 1276.06,784.615 1285.63,802.123 1295.21,818.726 1304.78,834.427 1314.77,849.87 1324.77,864.354 1334.76,877.9 1344.75,890.532 1360.5,908.647 1376.25,924.69 1394.18,940.61 1412.11,954.245 1430.03,965.819 1447.96,975.561 1449.98,976.549 1451.99,977.518 1454,978.466 1456.01,979.396 "/>
</svg>
