<?xml version="1.0" encoding="utf-8"?>
<svg xmlns="http://www.w3.org/2000/svg" xmlns:xlink="http://www.w3.org/1999/xlink" width="400" height="300" viewBox="0 0 1600 1200">
<defs>
  <clipPath id="clip160">
    <rect x="0" y="0" width="1600" height="1200"/>
  </clipPath>
</defs>
<path clip-path="url(#clip160)" d="M0 1200 L1600 1200 L1600 0 L0 0  Z" fill="#ffffff" fill-rule="evenodd" fill-opacity="1"/>
<defs>
  <clipPath id="clip161">
    <rect x="297" y="47" width="1194" height="971"/>
  </clipPath>
</defs>
<path clip-path="url(#clip160)" d="M297.135 1016.92 L1489.76 1016.92 L1489.76 47.2441 L297.135 47.2441  Z" fill="#ffffff" fill-rule="evenodd" fill-opacity="1"/>
<polyline clip-path="url(#clip161)" style="stroke:#000000; stroke-linecap:round; stroke-linejoin:round; stroke-width:2; stroke-opacity:0.1; fill:none" points="362.732,1016.92 362.732,47.2441 "/>
<polyline clip-path="url(#clip161)" style="stroke:#000000; stroke-linecap:round; stroke-linejoin:round; stroke-width:2; stroke-opacity:0.1; fill:none" points="539.638,1016.92 539.638,47.2441 "/>
<polyline clip-path="url(#clip161)" style="stroke:#000000; stroke-linecap:round; stroke-linejoin:round; stroke-width:2; stroke-opacity:0.1; fill:none" points="716.544,1016.92 716.544,47.2441 "/>
<polyline clip-path="url(#clip161)" style="stroke:#000000; stroke-linecap:round; stroke-linejoin:round; stroke-width:2; stroke-opacity:0.1; fill:none" points="893.45,1016.92 893.45,47.2441 "/>
<polyline clip-path="url(#clip161)" style="stroke:#000000; stroke-linecap:round; stroke-linejoin:round; stroke-width:2; stroke-opacity:0.1; fill:none" points="1070.36,1016.92 1070.36,47.2441 "/>
<polyline clip-path="url(#clip161)" style="stroke:#000000; stroke-linecap:round; stroke-linejoin:round; stroke-width:2; stroke-opacity:0.1; fill:none" points="1247.26,1016.92 1247.26,47.2441 "/>
<polyline clip-path="url(#clip161)" style="stroke:#000000; stroke-linecap:round; stroke-linejoin:round; stroke-width:2; stroke-opacity:0.1; fill:none" points="1424.17,1016.92 1424.17,47.2441 "/>
<polyline clip-path="url(#clip161)" style="stroke:#000000; stroke-linecap:round; stroke-linejoin:round; stroke-width:2; stroke-opacity:0.1; fill:none" points="362.732,1016.92 362.732,47.2441 "/>
<polyline clip-path="url(#clip161)" style="stroke:#000000; stroke-linecap:round; stroke-linejoin:round; stroke-width:2; stroke-opacity:0.1; fill:none" points="539.638,1016.92 539.638,47.2441 "/>
<polyline clip-path="url(#clip161)" style="stroke:#000000; stroke-linecap:round; stroke-linejoin:round; stroke-width:2; stroke-opacity:0.1; fill:none" points="716.544,1016.92 716.544,47.2441 "/>
<polyline clip-path="url(#clip161)" style="stroke:#000000; stroke-linecap:round; stroke-linejoin:round; stroke-width:2; stroke-opacity:0.1; fill:none" points="893.45,1016.92 893.45,47.2441 "/>
<polyline clip-path="url(#clip161)" style="stroke:#000000; stroke-linecap:round; stroke-linejoin:round; stroke-width:2; stroke-opacity:0.1; fill:none" points="1070.36,1016.92 1070.36,47.2441 "/>
<polyline clip-path="url(#clip161)" style="stroke:#000000; stroke-linecap:round; stroke-linejoin:round; stroke-width:2; stroke-opacity:0.1; fill:none" points="1247.26,1016.92 1247.26,47.2441 "/>
<polyline clip-path="url(#clip161)" style="stroke:#000000; stroke-linecap:round; stroke-linejoin:round; stroke-width:2; stroke-opacity:0.1; fill:none" points="1424.17,1016.92 1424.17,47.2441 "/>
<polyline clip-path="url(#clip161)" style="stroke:#000000; stroke-linecap:round; stroke-linejoin:round; stroke-width:2; stroke-opacity:0.1; fill:none" points="297.135,1016.92 1489.76,1016.92 "/>
<polyline clip-path="url(#clip161)" style="stroke:#000000; stroke-linecap:round; stroke-linejoin:round; stroke-width:2; stroke-opacity:0.1; fill:none" points="297.135,791.463 1489.76,791.463 "/>
<polyline clip-path="url(#clip161)" style="stroke:#000000; stroke-linecap:round; stroke-linejoin:round; stroke-width:2; stroke-opacity:0.1; fill:none" points="297.135,566.007 1489.76,566.007 "/>
<polyline clip-path="url(#clip161)" style="stroke:#000000; stroke-linecap:round; stroke-linejoin:round; stroke-width:2; stroke-opacity:0.1; fill:none" points="297.135,340.551 1489.76,340.551 "/>
<polyline clip-path="url(#clip161)" style="stroke:#000000; stroke-linecap:round; stroke-linejoin:round; stroke-width:2; stroke-opacity:0.1; fill:none" points="297.135,115.094 1489.76,115.094 "/>
<polyline clip-path="url(#clip161)" style="stroke:#000000; stroke-linecap:round; stroke-linejoin:round; stroke-width:2; stroke-opacity:0.1; fill:none" points="297.135,1016.92 1489.76,1016.92 "/>
<polyline clip-path="url(#clip161)" style="stroke:#000000; stroke-linecap:round; stroke-linejoin:round; stroke-width:2; stroke-opacity:0.1; fill:none" points="297.135,791.463 1489.76,791.463 "/>
<polyline clip-path="url(#clip161)" style="stroke:#000000; stroke-linecap:round; stroke-linejoin:round; stroke-width:2; stroke-opacity:0.1; fill:none" points="297.135,566.007 1489.76,566.007 "/>
<polyline clip-path="url(#clip161)" style="stroke:#000000; stroke-linecap:round; stroke-linejoin:round; stroke-width:2; stroke-opacity:0.1; fill:none" points="297.135,340.551 1489.76,340.551 "/>
<polyline clip-path="url(#clip161)" style="stroke:#000000; stroke-linecap:round; stroke-linejoin:round; stroke-width:2; stroke-opacity:0.1; fill:none" points="297.135,115.094 1489.76,115.094 "/>
<polyline clip-path="url(#clip160)" style="stroke:#000000; stroke-linecap:round; stroke-linejoin:round; stroke-width:4; stroke-opacity:1; fill:none" points="297.135,1016.92 1489.76,1016.92 "/>
<polyline clip-path="url(#clip160)" style="stroke:#000000; stroke-linecap:round; stroke-linejoin:round; stroke-width:4; stroke-opacity:1; fill:none" points="297.135,47.2441 1489.76,47.2441 "/>
<polyline clip-path="url(#clip160)" style="stroke:#000000; stroke-linecap:round; stroke-linejoin:round; stroke-width:4; stroke-opacity:1; fill:none" points="362.732,1016.92 362.732,998.022 "/>
<polyline clip-path="url(#clip160)" style="stroke:#000000; stroke-linecap:round; stroke-linejoin:round; stroke-width:4; stroke-opacity:1; fill:none" points="539.638,1016.92 539.638,998.022 "/>
<polyline clip-path="url(#clip160)" style="stroke:#000000; stroke-linecap:round; stroke-linejoin:round; stroke-width:4; stroke-opacity:1; fill:none" points="716.544,1016.92 716.544,998.022 "/>
<polyline clip-path="url(#clip160)" style="stroke:#000000; stroke-linecap:round; stroke-linejoin:round; stroke-width:4; stroke-opacity:1; fill:none" points="893.45,1016.92 893.45,998.022 "/>
<polyline clip-path="url(#clip160)" style="stroke:#000000; stroke-linecap:round; stroke-linejoin:round; stroke-width:4; stroke-opacity:1; fill:none" points="1070.36,1016.92 1070.36,998.022 "/>
<polyline clip-path="url(#clip160)" style="stroke:#000000; stroke-linecap:round; stroke-linejoin:round; stroke-width:4; stroke-opacity:1; fill:none" points="1247.26,1016.92 1247.26,998.022 "/>
<polyline clip-path="url(#clip160)" style="stroke:#000000; stroke-linecap:round; stroke-linejoin:round; stroke-width:4; stroke-opacity:1; fill:none" points="1424.17,1016.92 1424.17,998.022 "/>
<polyline clip-path="url(#clip160)" style="stroke:#000000; stroke-linecap:round; stroke-linejoin:round; stroke-width:4; stroke-opacity:1; fill:none" points="362.732,47.2441 362.732,66.1417 "/>
<polyline clip-path="url(#clip160)" style="stroke:#000000; stroke-linecap:round; stroke-linejoin:round; stroke-width:4; stroke-opacity:1; fill:none" points="539.638,47.2441 539.638,66.1417 "/>
<polyline clip-path="url(#clip160)" style="stroke:#000000; stroke-linecap:round; stroke-linejoin:round; stroke-width:4; stroke-opacity:1; fill:none" points="716.544,47.2441 716.544,66.1417 "/>
<polyline clip-path="url(#clip160)" style="stroke:#000000; stroke-linecap:round; stroke-linejoin:round; stroke-width:4; stroke-opacity:1; fill:none" points="893.45,47.2441 893.45,66.1417 "/>
<polyline clip-path="url(#clip160)" style="stroke:#000000; stroke-linecap:round; stroke-linejoin:round; stroke-width:4; stroke-opacity:1; fill:none" points="1070.36,47.2441 1070.36,66.1417 "/>
<polyline clip-path="url(#clip160)" style="stroke:#000000; stroke-linecap:round; stroke-linejoin:round; stroke-width:4; stroke-opacity:1; fill:none" points="1247.26,47.2441 1247.26,66.1417 "/>
<polyline clip-path="url(#clip160)" style="stroke:#000000; stroke-linecap:round; stroke-linejoin:round; stroke-width:4; stroke-opacity:1; fill:none" points="1424.17,47.2441 1424.17,66.1417 "/>
<path clip-path="url(#clip160)" d="M346.835 1059.56 Q347.132 1059.85 347.132 1060.27 Q347.132 1060.69 346.835 1060.99 Q346.539 1061.28 346.119 1061.28 L314.449 1061.28 Q314.029 1061.28 313.733 1060.99 Q313.436 1060.69 313.436 1060.27 Q313.436 1059.85 313.733 1059.56 Q314.029 1059.26 314.449 1059.26 L346.119 1059.26 Q346.539 1059.26 346.835 1059.56 Z" fill="#000000" fill-rule="nonzero" fill-opacity="1" /><path clip-path="url(#clip160)" d="M354.444 1044.04 L354.444 1042.46 Q360.521 1042.46 363.658 1039.22 Q364.523 1039.22 364.671 1039.42 Q364.819 1039.62 364.819 1040.53 L364.819 1068.92 Q364.819 1070.42 365.56 1070.89 Q366.302 1071.36 369.538 1071.36 L371.143 1071.36 L371.143 1072.92 Q369.365 1072.77 362.942 1072.77 Q356.519 1072.77 354.765 1072.92 L354.765 1071.36 L356.371 1071.36 Q359.558 1071.36 360.323 1070.92 Q361.089 1070.45 361.089 1068.92 L361.089 1042.71 Q358.446 1044.04 354.444 1044.04 Z" fill="#000000" fill-rule="nonzero" fill-opacity="1" /><path clip-path="url(#clip160)" d="M380.308 1072.1 Q379.543 1071.29 379.543 1070.23 Q379.543 1069.16 380.308 1068.4 Q381.074 1067.61 382.235 1067.61 Q383.347 1067.61 384.088 1068.35 Q384.854 1069.07 384.854 1070.25 Q384.854 1071.41 384.039 1072.18 Q383.248 1072.92 382.235 1072.92 Q381.074 1072.92 380.308 1072.1 Z" fill="#000000" fill-rule="nonzero" fill-opacity="1" /><path clip-path="url(#clip160)" d="M391.82 1064.77 Q391.82 1063.26 392.635 1062.69 Q393.451 1062.1 394.315 1062.1 Q395.476 1062.1 396.143 1062.84 Q396.835 1063.56 396.835 1064.57 Q396.835 1065.58 396.143 1066.32 Q395.476 1067.04 394.315 1067.04 Q393.747 1067.04 393.451 1066.94 Q394.118 1069.26 396.143 1070.94 Q398.194 1072.62 400.886 1072.62 Q404.271 1072.62 406.296 1069.34 Q407.507 1067.21 407.507 1062.4 Q407.507 1058.15 406.593 1056.02 Q405.185 1052.79 402.294 1052.79 Q398.194 1052.79 395.773 1056.32 Q395.476 1056.76 395.13 1056.79 Q394.636 1056.79 394.513 1056.52 Q394.414 1056.22 394.414 1055.45 L394.414 1040.48 Q394.414 1039.27 394.908 1039.27 Q395.106 1039.27 395.526 1039.42 Q398.712 1040.83 402.245 1040.85 Q405.876 1040.85 409.137 1039.37 Q409.384 1039.22 409.532 1039.22 Q410.027 1039.22 410.051 1039.79 Q410.051 1039.99 409.631 1040.58 Q409.236 1041.15 408.371 1041.92 Q407.507 1042.66 406.395 1043.37 Q405.283 1044.09 403.653 1044.59 Q402.047 1045.05 400.269 1045.05 Q398.144 1045.05 395.97 1044.39 L395.97 1054.24 Q398.589 1051.67 402.393 1051.67 Q406.445 1051.67 409.236 1054.94 Q412.028 1058.2 412.028 1062.74 Q412.028 1067.51 408.717 1070.77 Q405.432 1074.03 400.985 1074.03 Q396.934 1074.03 394.365 1071.14 Q391.82 1068.25 391.82 1064.77 Z" fill="#000000" fill-rule="nonzero" fill-opacity="1" /><path clip-path="url(#clip160)" d="M523.469 1059.56 Q523.766 1059.85 523.766 1060.27 Q523.766 1060.69 523.469 1060.99 Q523.173 1061.28 522.753 1061.28 L491.083 1061.28 Q490.663 1061.28 490.367 1060.99 Q490.071 1060.69 490.071 1060.27 Q490.071 1059.85 490.367 1059.56 Q490.663 1059.26 491.083 1059.26 L522.753 1059.26 Q523.173 1059.26 523.469 1059.56 Z" fill="#000000" fill-rule="nonzero" fill-opacity="1" /><path clip-path="url(#clip160)" d="M531.078 1044.04 L531.078 1042.46 Q537.155 1042.46 540.292 1039.22 Q541.157 1039.22 541.305 1039.42 Q541.454 1039.62 541.454 1040.53 L541.454 1068.92 Q541.454 1070.42 542.195 1070.89 Q542.936 1071.36 546.172 1071.36 L547.778 1071.36 L547.778 1072.92 Q545.999 1072.77 539.576 1072.77 Q533.153 1072.77 531.399 1072.92 L531.399 1071.36 L533.005 1071.36 Q536.192 1071.36 536.958 1070.92 Q537.723 1070.45 537.723 1068.92 L537.723 1042.71 Q535.08 1044.04 531.078 1044.04 Z" fill="#000000" fill-rule="nonzero" fill-opacity="1" /><path clip-path="url(#clip160)" d="M556.943 1072.1 Q556.177 1071.29 556.177 1070.23 Q556.177 1069.16 556.943 1068.4 Q557.708 1067.61 558.869 1067.61 Q559.981 1067.61 560.722 1068.35 Q561.488 1069.07 561.488 1070.25 Q561.488 1071.41 560.673 1072.18 Q559.882 1072.92 558.869 1072.92 Q557.708 1072.92 556.943 1072.1 Z" fill="#000000" fill-rule="nonzero" fill-opacity="1" /><path clip-path="url(#clip160)" d="M567.911 1056.74 Q567.911 1049.3 569.788 1045.25 Q572.407 1039.22 578.583 1039.22 Q579.892 1039.22 581.251 1039.6 Q582.634 1039.94 584.363 1041.3 Q586.117 1042.66 587.179 1044.88 Q589.205 1049.18 589.205 1056.74 Q589.205 1064.13 587.328 1068.15 Q584.586 1074.03 578.533 1074.03 Q576.261 1074.03 573.938 1072.87 Q571.641 1071.71 570.184 1068.92 Q567.911 1064.74 567.911 1056.74 M572.11 1056.12 Q572.11 1063.75 572.654 1066.79 Q573.271 1070.08 574.951 1071.51 Q576.656 1072.92 578.533 1072.92 Q580.559 1072.92 582.239 1071.41 Q583.943 1069.88 584.462 1066.6 Q585.03 1063.36 585.006 1056.12 Q585.006 1049.08 584.511 1046.26 Q583.844 1042.98 582.066 1041.67 Q580.312 1040.34 578.533 1040.34 Q577.866 1040.34 577.15 1040.53 Q576.458 1040.73 575.445 1041.3 Q574.432 1041.87 573.642 1043.28 Q572.876 1044.68 572.506 1046.81 Q572.11 1049.55 572.11 1056.12 Z" fill="#000000" fill-rule="nonzero" fill-opacity="1" /><path clip-path="url(#clip160)" d="M700.647 1059.56 Q700.943 1059.85 700.943 1060.27 Q700.943 1060.69 700.647 1060.99 Q700.351 1061.28 699.931 1061.28 L668.261 1061.28 Q667.841 1061.28 667.545 1060.99 Q667.248 1060.69 667.248 1060.27 Q667.248 1059.85 667.545 1059.56 Q667.841 1059.26 668.261 1059.26 L699.931 1059.26 Q700.351 1059.26 700.647 1059.56 Z" fill="#000000" fill-rule="nonzero" fill-opacity="1" /><path clip-path="url(#clip160)" d="M705.736 1056.74 Q705.736 1049.3 707.613 1045.25 Q710.232 1039.22 716.408 1039.22 Q717.717 1039.22 719.076 1039.6 Q720.459 1039.94 722.188 1041.3 Q723.942 1042.66 725.005 1044.88 Q727.03 1049.18 727.03 1056.74 Q727.03 1064.13 725.153 1068.15 Q722.411 1074.03 716.358 1074.03 Q714.086 1074.03 711.764 1072.87 Q709.466 1071.71 708.009 1068.92 Q705.736 1064.74 705.736 1056.74 M709.936 1056.12 Q709.936 1063.75 710.479 1066.79 Q711.097 1070.08 712.776 1071.51 Q714.481 1072.92 716.358 1072.92 Q718.384 1072.92 720.064 1071.41 Q721.768 1069.88 722.287 1066.6 Q722.855 1063.36 722.831 1056.12 Q722.831 1049.08 722.337 1046.26 Q721.67 1042.98 719.891 1041.67 Q718.137 1040.34 716.358 1040.34 Q715.691 1040.34 714.975 1040.53 Q714.283 1040.73 713.27 1041.3 Q712.258 1041.87 711.467 1043.28 Q710.701 1044.68 710.331 1046.81 Q709.936 1049.55 709.936 1056.12 Z" fill="#000000" fill-rule="nonzero" fill-opacity="1" /><path clip-path="url(#clip160)" d="M734.12 1072.1 Q733.354 1071.29 733.354 1070.23 Q733.354 1069.16 734.12 1068.4 Q734.886 1067.61 736.047 1067.61 Q737.159 1067.61 737.9 1068.35 Q738.666 1069.07 738.666 1070.25 Q738.666 1071.41 737.85 1072.18 Q737.06 1072.92 736.047 1072.92 Q734.886 1072.92 734.12 1072.1 Z" fill="#000000" fill-rule="nonzero" fill-opacity="1" /><path clip-path="url(#clip160)" d="M745.632 1064.77 Q745.632 1063.26 746.447 1062.69 Q747.262 1062.1 748.127 1062.1 Q749.288 1062.1 749.955 1062.84 Q750.647 1063.56 750.647 1064.57 Q750.647 1065.58 749.955 1066.32 Q749.288 1067.04 748.127 1067.04 Q747.559 1067.04 747.262 1066.94 Q747.929 1069.26 749.955 1070.94 Q752.005 1072.62 754.698 1072.62 Q758.082 1072.62 760.108 1069.34 Q761.319 1067.21 761.319 1062.4 Q761.319 1058.15 760.404 1056.02 Q758.996 1052.79 756.106 1052.79 Q752.005 1052.79 749.584 1056.32 Q749.288 1056.76 748.942 1056.79 Q748.448 1056.79 748.325 1056.52 Q748.226 1056.22 748.226 1055.45 L748.226 1040.48 Q748.226 1039.27 748.72 1039.27 Q748.917 1039.27 749.337 1039.42 Q752.524 1040.83 756.057 1040.85 Q759.688 1040.85 762.949 1039.37 Q763.196 1039.22 763.344 1039.22 Q763.838 1039.22 763.863 1039.79 Q763.863 1039.99 763.443 1040.58 Q763.048 1041.15 762.183 1041.92 Q761.319 1042.66 760.207 1043.37 Q759.095 1044.09 757.465 1044.59 Q755.859 1045.05 754.08 1045.05 Q751.956 1045.05 749.782 1044.39 L749.782 1054.24 Q752.401 1051.67 756.205 1051.67 Q760.256 1051.67 763.048 1054.94 Q765.839 1058.2 765.839 1062.74 Q765.839 1067.51 762.529 1070.77 Q759.243 1074.03 754.797 1074.03 Q750.745 1074.03 748.176 1071.14 Q745.632 1068.25 745.632 1064.77 Z" fill="#000000" fill-rule="nonzero" fill-opacity="1" /><path clip-path="url(#clip160)" d="M863.126 1056.74 Q863.126 1049.3 865.004 1045.25 Q867.622 1039.22 873.798 1039.22 Q875.107 1039.22 876.466 1039.6 Q877.849 1039.94 879.579 1041.3 Q881.333 1042.66 882.395 1044.88 Q884.42 1049.18 884.42 1056.74 Q884.42 1064.13 882.543 1068.15 Q879.801 1074.03 873.749 1074.03 Q871.476 1074.03 869.154 1072.87 Q866.856 1071.71 865.399 1068.92 Q863.126 1064.74 863.126 1056.74 M867.326 1056.12 Q867.326 1063.75 867.869 1066.79 Q868.487 1070.08 870.167 1071.51 Q871.871 1072.92 873.749 1072.92 Q875.774 1072.92 877.454 1071.41 Q879.159 1069.88 879.677 1066.6 Q880.246 1063.36 880.221 1056.12 Q880.221 1049.08 879.727 1046.26 Q879.06 1042.98 877.281 1041.67 Q875.527 1040.34 873.749 1040.34 Q873.082 1040.34 872.365 1040.53 Q871.674 1040.73 870.661 1041.3 Q869.648 1041.87 868.857 1043.28 Q868.092 1044.68 867.721 1046.81 Q867.326 1049.55 867.326 1056.12 Z" fill="#000000" fill-rule="nonzero" fill-opacity="1" /><path clip-path="url(#clip160)" d="M891.51 1072.1 Q890.745 1071.29 890.745 1070.23 Q890.745 1069.16 891.51 1068.4 Q892.276 1067.61 893.437 1067.61 Q894.549 1067.61 895.29 1068.35 Q896.056 1069.07 896.056 1070.25 Q896.056 1071.41 895.241 1072.18 Q894.45 1072.92 893.437 1072.92 Q892.276 1072.92 891.51 1072.1 Z" fill="#000000" fill-rule="nonzero" fill-opacity="1" /><path clip-path="url(#clip160)" d="M902.479 1056.74 Q902.479 1049.3 904.356 1045.25 Q906.975 1039.22 913.15 1039.22 Q914.46 1039.22 915.818 1039.6 Q917.202 1039.94 918.931 1041.3 Q920.685 1042.66 921.747 1044.88 Q923.773 1049.18 923.773 1056.74 Q923.773 1064.13 921.895 1068.15 Q919.153 1074.03 913.101 1074.03 Q910.828 1074.03 908.506 1072.87 Q906.209 1071.71 904.751 1068.92 Q902.479 1064.74 902.479 1056.74 M906.678 1056.12 Q906.678 1063.75 907.222 1066.79 Q907.839 1070.08 909.519 1071.51 Q911.224 1072.92 913.101 1072.92 Q915.127 1072.92 916.807 1071.41 Q918.511 1069.88 919.03 1066.6 Q919.598 1063.36 919.573 1056.12 Q919.573 1049.08 919.079 1046.26 Q918.412 1042.98 916.634 1041.67 Q914.88 1040.34 913.101 1040.34 Q912.434 1040.34 911.718 1040.53 Q911.026 1040.73 910.013 1041.3 Q909 1041.87 908.21 1043.28 Q907.444 1044.68 907.073 1046.81 Q906.678 1049.55 906.678 1056.12 Z" fill="#000000" fill-rule="nonzero" fill-opacity="1" /><path clip-path="url(#clip160)" d="M1040.3 1056.74 Q1040.3 1049.3 1042.18 1045.25 Q1044.8 1039.22 1050.98 1039.22 Q1052.28 1039.22 1053.64 1039.6 Q1055.03 1039.94 1056.76 1041.3 Q1058.51 1042.66 1059.57 1044.88 Q1061.6 1049.18 1061.6 1056.74 Q1061.6 1064.13 1059.72 1068.15 Q1056.98 1074.03 1050.93 1074.03 Q1048.65 1074.03 1046.33 1072.87 Q1044.03 1071.71 1042.58 1068.92 Q1040.3 1064.74 1040.3 1056.74 M1044.5 1056.12 Q1044.5 1063.75 1045.05 1066.79 Q1045.66 1070.08 1047.34 1071.51 Q1049.05 1072.92 1050.93 1072.92 Q1052.95 1072.92 1054.63 1071.41 Q1056.34 1069.88 1056.85 1066.6 Q1057.42 1063.36 1057.4 1056.12 Q1057.4 1049.08 1056.9 1046.26 Q1056.24 1042.98 1054.46 1041.67 Q1052.7 1040.34 1050.93 1040.34 Q1050.26 1040.34 1049.54 1040.53 Q1048.85 1040.73 1047.84 1041.3 Q1046.83 1041.87 1046.03 1043.28 Q1045.27 1044.68 1044.9 1046.81 Q1044.5 1049.55 1044.5 1056.12 Z" fill="#000000" fill-rule="nonzero" fill-opacity="1" /><path clip-path="url(#clip160)" d="M1068.69 1072.1 Q1067.92 1071.29 1067.92 1070.23 Q1067.92 1069.16 1068.69 1068.4 Q1069.45 1067.61 1070.61 1067.61 Q1071.73 1067.61 1072.47 1068.35 Q1073.23 1069.07 1073.23 1070.25 Q1073.23 1071.41 1072.42 1072.18 Q1071.63 1072.92 1070.61 1072.92 Q1069.45 1072.92 1068.69 1072.1 Z" fill="#000000" fill-rule="nonzero" fill-opacity="1" /><path clip-path="url(#clip160)" d="M1080.2 1064.77 Q1080.2 1063.26 1081.01 1062.69 Q1081.83 1062.1 1082.69 1062.1 Q1083.86 1062.1 1084.52 1062.84 Q1085.21 1063.56 1085.21 1064.57 Q1085.21 1065.58 1084.52 1066.32 Q1083.86 1067.04 1082.69 1067.04 Q1082.13 1067.04 1081.83 1066.94 Q1082.5 1069.26 1084.52 1070.94 Q1086.57 1072.62 1089.27 1072.62 Q1092.65 1072.62 1094.68 1069.34 Q1095.89 1067.21 1095.89 1062.4 Q1095.89 1058.15 1094.97 1056.02 Q1093.56 1052.79 1090.67 1052.79 Q1086.57 1052.79 1084.15 1056.32 Q1083.86 1056.76 1083.51 1056.79 Q1083.02 1056.79 1082.89 1056.52 Q1082.79 1056.22 1082.79 1055.45 L1082.79 1040.48 Q1082.79 1039.27 1083.29 1039.27 Q1083.49 1039.27 1083.91 1039.42 Q1087.09 1040.83 1090.62 1040.85 Q1094.26 1040.85 1097.52 1039.37 Q1097.76 1039.22 1097.91 1039.22 Q1098.41 1039.22 1098.43 1039.79 Q1098.43 1039.99 1098.01 1040.58 Q1097.62 1041.15 1096.75 1041.92 Q1095.89 1042.66 1094.77 1043.37 Q1093.66 1044.09 1092.03 1044.59 Q1090.43 1045.05 1088.65 1045.05 Q1086.52 1045.05 1084.35 1044.39 L1084.35 1054.24 Q1086.97 1051.67 1090.77 1051.67 Q1094.82 1051.67 1097.62 1054.94 Q1100.41 1058.2 1100.41 1062.74 Q1100.41 1067.51 1097.1 1070.77 Q1093.81 1074.03 1089.36 1074.03 Q1085.31 1074.03 1082.74 1071.14 Q1080.2 1068.25 1080.2 1064.77 Z" fill="#000000" fill-rule="nonzero" fill-opacity="1" /><path clip-path="url(#clip160)" d="M1218.2 1044.04 L1218.2 1042.46 Q1224.27 1042.46 1227.41 1039.22 Q1228.28 1039.22 1228.42 1039.42 Q1228.57 1039.62 1228.57 1040.53 L1228.57 1068.92 Q1228.57 1070.42 1229.31 1070.89 Q1230.06 1071.36 1233.29 1071.36 L1234.9 1071.36 L1234.9 1072.92 Q1233.12 1072.77 1226.7 1072.77 Q1220.27 1072.77 1218.52 1072.92 L1218.52 1071.36 L1220.12 1071.36 Q1223.31 1071.36 1224.08 1070.92 Q1224.84 1070.45 1224.84 1068.92 L1224.84 1042.71 Q1222.2 1044.04 1218.2 1044.04 Z" fill="#000000" fill-rule="nonzero" fill-opacity="1" /><path clip-path="url(#clip160)" d="M1244.06 1072.1 Q1243.3 1071.29 1243.3 1070.23 Q1243.3 1069.16 1244.06 1068.4 Q1244.83 1067.61 1245.99 1067.61 Q1247.1 1067.61 1247.84 1068.35 Q1248.61 1069.07 1248.61 1070.25 Q1248.61 1071.41 1247.79 1072.18 Q1247 1072.92 1245.99 1072.92 Q1244.83 1072.92 1244.06 1072.1 Z" fill="#000000" fill-rule="nonzero" fill-opacity="1" /><path clip-path="url(#clip160)" d="M1255.03 1056.74 Q1255.03 1049.3 1256.91 1045.25 Q1259.53 1039.22 1265.7 1039.22 Q1267.01 1039.22 1268.37 1039.6 Q1269.75 1039.94 1271.48 1041.3 Q1273.24 1042.66 1274.3 1044.88 Q1276.32 1049.18 1276.32 1056.74 Q1276.32 1064.13 1274.45 1068.15 Q1271.71 1074.03 1265.65 1074.03 Q1263.38 1074.03 1261.06 1072.87 Q1258.76 1071.71 1257.3 1068.92 Q1255.03 1064.74 1255.03 1056.74 M1259.23 1056.12 Q1259.23 1063.75 1259.77 1066.79 Q1260.39 1070.08 1262.07 1071.51 Q1263.78 1072.92 1265.65 1072.92 Q1267.68 1072.92 1269.36 1071.41 Q1271.06 1069.88 1271.58 1066.6 Q1272.15 1063.36 1272.13 1056.12 Q1272.13 1049.08 1271.63 1046.26 Q1270.96 1042.98 1269.19 1041.67 Q1267.43 1040.34 1265.65 1040.34 Q1264.99 1040.34 1264.27 1040.53 Q1263.58 1040.73 1262.56 1041.3 Q1261.55 1041.87 1260.76 1043.28 Q1260 1044.68 1259.63 1046.81 Q1259.23 1049.55 1259.23 1056.12 Z" fill="#000000" fill-rule="nonzero" fill-opacity="1" /><path clip-path="url(#clip160)" d="M1395.38 1044.04 L1395.38 1042.46 Q1401.45 1042.46 1404.59 1039.22 Q1405.45 1039.22 1405.6 1039.42 Q1405.75 1039.62 1405.75 1040.53 L1405.75 1068.92 Q1405.75 1070.42 1406.49 1070.89 Q1407.23 1071.36 1410.47 1071.36 L1412.07 1071.36 L1412.07 1072.92 Q1410.3 1072.77 1403.87 1072.77 Q1397.45 1072.77 1395.7 1072.92 L1395.7 1071.36 L1397.3 1071.36 Q1400.49 1071.36 1401.25 1070.92 Q1402.02 1070.45 1402.02 1068.92 L1402.02 1042.71 Q1399.38 1044.04 1395.38 1044.04 Z" fill="#000000" fill-rule="nonzero" fill-opacity="1" /><path clip-path="url(#clip160)" d="M1421.24 1072.1 Q1420.47 1071.29 1420.47 1070.23 Q1420.47 1069.16 1421.24 1068.4 Q1422.01 1067.61 1423.17 1067.61 Q1424.28 1067.61 1425.02 1068.35 Q1425.79 1069.07 1425.79 1070.25 Q1425.79 1071.41 1424.97 1072.18 Q1424.18 1072.92 1423.17 1072.92 Q1422.01 1072.92 1421.24 1072.1 Z" fill="#000000" fill-rule="nonzero" fill-opacity="1" /><path clip-path="url(#clip160)" d="M1432.75 1064.77 Q1432.75 1063.26 1433.57 1062.69 Q1434.38 1062.1 1435.25 1062.1 Q1436.41 1062.1 1437.07 1062.84 Q1437.77 1063.56 1437.77 1064.57 Q1437.77 1065.58 1437.07 1066.32 Q1436.41 1067.04 1435.25 1067.04 Q1434.68 1067.04 1434.38 1066.94 Q1435.05 1069.26 1437.07 1070.94 Q1439.12 1072.62 1441.82 1072.62 Q1445.2 1072.62 1447.23 1069.34 Q1448.44 1067.21 1448.44 1062.4 Q1448.44 1058.15 1447.52 1056.02 Q1446.12 1052.79 1443.23 1052.79 Q1439.12 1052.79 1436.7 1056.32 Q1436.41 1056.76 1436.06 1056.79 Q1435.57 1056.79 1435.44 1056.52 Q1435.35 1056.22 1435.35 1055.45 L1435.35 1040.48 Q1435.35 1039.27 1435.84 1039.27 Q1436.04 1039.27 1436.46 1039.42 Q1439.64 1040.83 1443.18 1040.85 Q1446.81 1040.85 1450.07 1039.37 Q1450.32 1039.22 1450.46 1039.22 Q1450.96 1039.22 1450.98 1039.79 Q1450.98 1039.99 1450.56 1040.58 Q1450.17 1041.15 1449.3 1041.92 Q1448.44 1042.66 1447.33 1043.37 Q1446.21 1044.09 1444.58 1044.59 Q1442.98 1045.05 1441.2 1045.05 Q1439.08 1045.05 1436.9 1044.39 L1436.9 1054.24 Q1439.52 1051.67 1443.32 1051.67 Q1447.38 1051.67 1450.17 1054.94 Q1452.96 1058.2 1452.96 1062.74 Q1452.96 1067.51 1449.65 1070.77 Q1446.36 1074.03 1441.92 1074.03 Q1437.87 1074.03 1435.3 1071.14 Q1432.75 1068.25 1432.75 1064.77 Z" fill="#000000" fill-rule="nonzero" fill-opacity="1" /><path clip-path="url(#clip160)" d="M753.811 1121.96 L753.811 1119.79 Q756.936 1119.99 760.57 1119.99 Q761.895 1119.99 768.145 1119.79 L768.145 1121.96 Q764.171 1121.96 764.171 1123.77 Q764.171 1124.04 764.578 1124.95 L772.391 1144.35 L779.49 1126.62 Q779.897 1125.43 779.897 1124.95 Q779.897 1123.77 779.082 1122.92 Q778.301 1122.03 776.569 1121.96 L776.569 1119.79 Q780.101 1119.99 782.615 1119.99 Q785.468 1119.99 787.812 1119.79 L787.812 1121.96 Q785.74 1121.96 784.279 1122.92 Q782.819 1123.83 782.343 1124.65 Q781.902 1125.43 781.426 1126.62 L772.323 1149.24 Q771.779 1150.57 770.862 1150.57 Q770.251 1150.57 769.979 1150.29 Q769.741 1150.06 769.402 1149.24 L759.381 1124.55 Q758.702 1122.81 757.819 1122.41 Q756.936 1121.96 753.811 1121.96 Z" fill="#000000" fill-rule="nonzero" fill-opacity="1" /><path clip-path="url(#clip160)" d="M790.122 1143.16 Q790.122 1137.25 797.085 1134.13 Q801.263 1132.12 809.89 1131.61 L809.89 1129.06 Q809.89 1124.75 807.615 1122.47 Q805.373 1120.16 802.52 1120.16 Q797.424 1120.16 794.979 1123.36 Q797.051 1123.43 797.798 1124.48 Q798.545 1125.5 798.545 1126.55 Q798.545 1127.94 797.662 1128.86 Q796.813 1129.74 795.352 1129.74 Q793.96 1129.74 793.043 1128.89 Q792.126 1128.01 792.126 1126.48 Q792.126 1123.09 795.183 1120.84 Q798.274 1118.6 802.655 1118.6 Q808.362 1118.6 812.166 1122.44 Q813.355 1123.63 813.932 1125.16 Q814.544 1126.69 814.612 1127.71 Q814.68 1128.69 814.68 1130.66 L814.68 1144.55 Q814.68 1144.96 814.816 1145.64 Q814.952 1146.32 815.563 1147.2 Q816.208 1148.05 817.261 1148.05 Q819.775 1148.05 819.741 1143.6 L819.741 1139.7 L821.507 1139.7 L821.507 1143.6 Q821.507 1147.3 819.537 1148.76 Q817.601 1150.19 815.801 1150.19 Q813.491 1150.19 812.03 1148.49 Q810.57 1146.79 810.366 1144.48 Q809.313 1147.13 806.901 1148.87 Q804.524 1150.57 801.263 1150.57 Q798.749 1150.57 796.371 1149.92 Q794.028 1149.31 792.058 1147.58 Q790.122 1145.81 790.122 1143.16 M795.488 1143.09 Q795.488 1145.67 797.323 1147.34 Q799.157 1149 801.738 1149 Q804.659 1149 807.275 1146.76 Q809.89 1144.48 809.89 1140.04 L809.89 1133.07 Q802.18 1133.34 798.817 1136.43 Q795.488 1139.49 795.488 1143.09 Z" fill="#000000" fill-rule="nonzero" fill-opacity="1" /><path clip-path="url(#clip160)" d="M824.292 1149.78 L824.292 1147.64 Q827.995 1147.64 828.844 1147.2 Q829.693 1146.73 829.693 1144.48 L829.693 1108.31 Q829.693 1105.73 828.776 1105.08 Q827.893 1104.44 824.292 1104.44 L824.292 1102.26 L834.279 1101.52 L834.279 1144.48 Q834.279 1146.73 835.162 1147.2 Q836.045 1147.64 839.714 1147.64 L839.714 1149.78 Q838.864 1149.78 837.098 1149.72 Q835.332 1149.65 834.041 1149.61 Q832.75 1149.58 832.003 1149.58 Q831.188 1149.58 824.292 1149.78 Z" fill="#000000" fill-rule="nonzero" fill-opacity="1" /><path clip-path="url(#clip160)" d="M843.484 1121.96 L843.484 1119.79 L853.708 1119.04 L853.708 1142.14 Q853.708 1143.81 853.844 1144.79 Q853.98 1145.74 854.523 1146.86 Q855.101 1147.98 856.391 1148.49 Q857.716 1149 859.822 1149 Q863.592 1149 865.902 1145.91 Q868.246 1142.82 868.246 1138.24 L868.246 1125.84 Q868.246 1123.26 867.329 1122.61 Q866.412 1121.96 862.811 1121.96 L862.811 1119.79 L873.035 1119.04 L873.035 1143.74 Q873.035 1146.32 873.918 1147 Q874.836 1147.64 878.47 1147.64 L878.47 1149.78 L868.45 1150.57 L868.45 1144.28 Q865.529 1150.53 859.482 1150.57 Q856.425 1150.57 854.319 1149.78 Q852.247 1149 851.194 1148.05 Q850.141 1147.07 849.564 1145.2 Q849.021 1143.33 848.953 1142.18 Q848.885 1141.02 848.885 1138.78 L848.885 1128.35 Q848.885 1123.63 848.205 1122.81 Q847.526 1121.96 843.484 1121.96 Z" fill="#000000" fill-rule="nonzero" fill-opacity="1" /><path clip-path="url(#clip160)" d="M881.765 1134.46 Q881.765 1127.91 885.977 1123.26 Q890.189 1118.6 896.235 1118.6 Q902.349 1118.6 905.508 1122.58 Q908.701 1126.55 908.701 1132.26 Q908.701 1133.31 908.429 1133.51 Q908.157 1133.72 906.968 1133.72 L887.539 1133.72 Q887.539 1140.82 889.645 1144.15 Q892.566 1148.8 897.492 1148.8 Q898.171 1148.8 898.986 1148.66 Q899.801 1148.53 901.466 1147.95 Q903.13 1147.34 904.591 1145.74 Q906.051 1144.15 906.901 1141.63 Q907.104 1140.65 907.784 1140.68 Q908.701 1140.68 908.701 1141.5 Q908.701 1142.11 908.021 1143.5 Q907.376 1144.86 906.119 1146.49 Q904.862 1148.12 902.417 1149.34 Q900.005 1150.57 897.084 1150.57 Q890.97 1150.57 886.35 1145.95 Q881.765 1141.29 881.765 1134.46 M887.607 1132.26 L904.115 1132.26 Q904.115 1130.8 903.843 1129.17 Q903.606 1127.54 902.858 1125.29 Q902.145 1123.02 900.447 1121.59 Q898.748 1120.16 896.235 1120.16 Q895.114 1120.16 893.891 1120.64 Q892.702 1121.12 891.242 1122.27 Q889.781 1123.43 888.762 1126.04 Q887.743 1128.66 887.607 1132.26 Z" fill="#000000" fill-rule="nonzero" fill-opacity="1" /><path clip-path="url(#clip160)" d="M940.732 1132.39 Q940.732 1120.64 945.114 1111.16 Q946.982 1107.19 949.597 1103.86 Q952.213 1100.53 953.945 1099.07 Q955.677 1097.61 956.153 1097.61 Q956.832 1097.61 956.866 1098.29 Q956.866 1098.63 955.949 1099.48 Q944.74 1110.89 944.774 1132.39 Q944.774 1153.96 955.677 1164.93 Q956.866 1166.12 956.866 1166.5 Q956.866 1167.18 956.153 1167.18 Q955.677 1167.18 954.013 1165.78 Q952.349 1164.39 949.767 1161.2 Q947.186 1158 945.317 1154.1 Q940.732 1144.62 940.732 1132.39 Z" fill="#000000" fill-rule="nonzero" fill-opacity="1" /><path clip-path="url(#clip160)" d="M963.048 1149.78 L963.048 1147.64 Q965.29 1147.58 966.751 1147.17 Q968.245 1146.73 969.094 1145.64 Q969.977 1144.55 970.317 1143.84 Q970.691 1143.09 971.302 1141.36 L983.7 1105.83 Q983.904 1105.05 984.447 1103.55 Q985.025 1102.06 985.229 1101.31 Q980.236 1099.38 980.202 1093.84 Q980.202 1090.92 982.002 1088.61 Q983.836 1086.27 986.825 1086.27 Q989.746 1086.27 991.615 1088.58 Q993.517 1090.85 993.517 1093.84 Q993.517 1099.34 988.49 1101.31 L1003.1 1143.53 Q1004.15 1146.46 1005.13 1147.07 Q1006.15 1147.64 1010.4 1147.64 L1010.67 1147.64 L1010.67 1149.78 Q1006.22 1149.58 1001.77 1149.58 Q996.676 1149.58 991.547 1149.78 L991.547 1147.64 L991.682 1147.64 Q997.185 1147.64 997.185 1145.4 Q997.185 1144.86 993.449 1133.92 L976.193 1133.92 Q975.786 1135.31 974.869 1137.83 Q973.952 1140.31 973.408 1141.97 Q972.899 1143.6 972.899 1144.15 Q972.899 1145.4 974.121 1146.49 Q975.344 1147.54 978.062 1147.64 L978.062 1149.78 Q974.02 1149.58 969.91 1149.58 Q966.513 1149.58 963.048 1149.78 M976.941 1131.78 L992.667 1131.78 L984.821 1109.16 L976.941 1131.78 M981.968 1093.77 Q981.968 1097.24 983.462 1098.6 Q984.957 1099.92 986.893 1099.92 Q988.829 1099.92 990.29 1098.6 Q991.75 1097.27 991.75 1093.91 Q991.75 1090.44 990.256 1089.12 Q988.761 1087.79 986.825 1087.79 Q984.889 1087.79 983.428 1089.12 Q981.968 1090.44 981.968 1093.77 Z" fill="#000000" fill-rule="nonzero" fill-opacity="1" /><path clip-path="url(#clip160)" d="M1016.95 1166.5 Q1016.95 1166.16 1017.84 1165.31 Q1029.05 1153.89 1029.05 1132.39 Q1029.05 1110.82 1018.28 1099.92 Q1016.95 1098.66 1016.95 1098.29 Q1016.95 1097.61 1017.63 1097.61 Q1018.11 1097.61 1019.77 1099 Q1021.47 1100.4 1024.02 1103.59 Q1026.6 1106.78 1028.5 1110.69 Q1033.09 1120.16 1033.09 1132.39 Q1033.09 1144.15 1028.71 1153.62 Q1026.84 1157.6 1024.22 1160.93 Q1021.61 1164.25 1019.88 1165.71 Q1018.14 1167.18 1017.63 1167.18 Q1016.95 1167.18 1016.95 1166.5 Z" fill="#000000" fill-rule="nonzero" fill-opacity="1" /><polyline clip-path="url(#clip160)" style="stroke:#000000; stroke-linecap:round; stroke-linejoin:round; stroke-width:4; stroke-opacity:1; fill:none" points="297.135,1016.92 297.135,47.2441 "/>
<polyline clip-path="url(#clip160)" style="stroke:#000000; stroke-linecap:round; stroke-linejoin:round; stroke-width:4; stroke-opacity:1; fill:none" points="1489.76,1016.92 1489.76,47.2441 "/>
<polyline clip-path="url(#clip160)" style="stroke:#000000; stroke-linecap:round; stroke-linejoin:round; stroke-width:4; stroke-opacity:1; fill:none" points="297.135,1016.92 316.033,1016.92 "/>
<polyline clip-path="url(#clip160)" style="stroke:#000000; stroke-linecap:round; stroke-linejoin:round; stroke-width:4; stroke-opacity:1; fill:none" points="297.135,791.463 316.033,791.463 "/>
<polyline clip-path="url(#clip160)" style="stroke:#000000; stroke-linecap:round; stroke-linejoin:round; stroke-width:4; stroke-opacity:1; fill:none" points="297.135,566.007 316.033,566.007 "/>
<polyline clip-path="url(#clip160)" style="stroke:#000000; stroke-linecap:round; stroke-linejoin:round; stroke-width:4; stroke-opacity:1; fill:none" points="297.135,340.551 316.033,340.551 "/>
<polyline clip-path="url(#clip160)" style="stroke:#000000; stroke-linecap:round; stroke-linejoin:round; stroke-width:4; stroke-opacity:1; fill:none" points="297.135,115.094 316.033,115.094 "/>
<polyline clip-path="url(#clip160)" style="stroke:#000000; stroke-linecap:round; stroke-linejoin:round; stroke-width:4; stroke-opacity:1; fill:none" points="1489.76,1016.92 1470.87,1016.92 "/>
<polyline clip-path="url(#clip160)" style="stroke:#000000; stroke-linecap:round; stroke-linejoin:round; stroke-width:4; stroke-opacity:1; fill:none" points="1489.76,791.463 1470.87,791.463 "/>
<polyline clip-path="url(#clip160)" style="stroke:#000000; stroke-linecap:round; stroke-linejoin:round; stroke-width:4; stroke-opacity:1; fill:none" points="1489.76,566.007 1470.87,566.007 "/>
<polyline clip-path="url(#clip160)" style="stroke:#000000; stroke-linecap:round; stroke-linejoin:round; stroke-width:4; stroke-opacity:1; fill:none" points="1489.76,340.551 1470.87,340.551 "/>
<polyline clip-path="url(#clip160)" style="stroke:#000000; stroke-linecap:round; stroke-linejoin:round; stroke-width:4; stroke-opacity:1; fill:none" points="1489.76,115.094 1470.87,115.094 "/>
<path clip-path="url(#clip160)" d="M187.192 1018.02 Q187.192 1010.58 189.07 1006.53 Q191.688 1000.5 197.864 1000.5 Q199.173 1000.5 200.532 1000.88 Q201.915 1001.22 203.645 1002.58 Q205.399 1003.94 206.461 1006.16 Q208.487 1010.46 208.487 1018.02 Q208.487 1025.41 206.609 1029.43 Q203.867 1035.31 197.815 1035.31 Q195.542 1035.31 193.22 1034.15 Q190.922 1032.99 189.465 1030.2 Q187.192 1026.02 187.192 1018.02 M191.392 1017.4 Q191.392 1025.03 191.935 1028.07 Q192.553 1031.36 194.233 1032.79 Q195.937 1034.2 197.815 1034.2 Q199.84 1034.2 201.52 1032.69 Q203.225 1031.16 203.744 1027.88 Q204.312 1024.64 204.287 1017.4 Q204.287 1010.36 203.793 1007.54 Q203.126 1004.26 201.347 1002.95 Q199.593 1001.62 197.815 1001.62 Q197.148 1001.62 196.431 1001.81 Q195.74 1002.01 194.727 1002.58 Q193.714 1003.15 192.923 1004.56 Q192.158 1005.96 191.787 1008.09 Q191.392 1010.83 191.392 1017.4 Z" fill="#000000" fill-rule="nonzero" fill-opacity="1" /><path clip-path="url(#clip160)" d="M215.576 1033.38 Q214.811 1032.57 214.811 1031.51 Q214.811 1030.44 215.576 1029.68 Q216.342 1028.89 217.503 1028.89 Q218.615 1028.89 219.356 1029.63 Q220.122 1030.35 220.122 1031.53 Q220.122 1032.69 219.307 1033.46 Q218.516 1034.2 217.503 1034.2 Q216.342 1034.2 215.576 1033.38 Z" fill="#000000" fill-rule="nonzero" fill-opacity="1" /><path clip-path="url(#clip160)" d="M226.545 1018.02 Q226.545 1010.58 228.422 1006.53 Q231.041 1000.5 237.217 1000.5 Q238.526 1000.5 239.885 1000.88 Q241.268 1001.22 242.997 1002.58 Q244.751 1003.94 245.813 1006.16 Q247.839 1010.46 247.839 1018.02 Q247.839 1025.41 245.962 1029.43 Q243.22 1035.31 237.167 1035.31 Q234.894 1035.31 232.572 1034.15 Q230.275 1032.99 228.817 1030.2 Q226.545 1026.02 226.545 1018.02 M230.744 1017.4 Q230.744 1025.03 231.288 1028.07 Q231.905 1031.36 233.585 1032.79 Q235.29 1034.2 237.167 1034.2 Q239.193 1034.2 240.873 1032.69 Q242.577 1031.16 243.096 1027.88 Q243.664 1024.64 243.639 1017.4 Q243.639 1010.36 243.145 1007.54 Q242.478 1004.26 240.7 1002.95 Q238.946 1001.62 237.167 1001.62 Q236.5 1001.62 235.784 1001.81 Q235.092 1002.01 234.079 1002.58 Q233.066 1003.15 232.276 1004.56 Q231.51 1005.96 231.14 1008.09 Q230.744 1010.83 230.744 1017.4 Z" fill="#000000" fill-rule="nonzero" fill-opacity="1" /><path clip-path="url(#clip160)" d="M251.841 1018.02 Q251.841 1010.58 253.718 1006.53 Q256.337 1000.5 262.513 1000.5 Q263.822 1000.5 265.181 1000.88 Q266.564 1001.22 268.293 1002.58 Q270.047 1003.94 271.11 1006.16 Q273.135 1010.46 273.135 1018.02 Q273.135 1025.41 271.258 1029.43 Q268.516 1035.31 262.463 1035.31 Q260.191 1035.31 257.869 1034.15 Q255.571 1032.99 254.114 1030.2 Q251.841 1026.02 251.841 1018.02 M256.041 1017.4 Q256.041 1025.03 256.584 1028.07 Q257.202 1031.36 258.881 1032.79 Q260.586 1034.2 262.463 1034.2 Q264.489 1034.2 266.169 1032.69 Q267.873 1031.16 268.392 1027.88 Q268.96 1024.64 268.936 1017.4 Q268.936 1010.36 268.442 1007.54 Q267.775 1004.26 265.996 1002.95 Q264.242 1001.62 262.463 1001.62 Q261.796 1001.62 261.08 1001.81 Q260.388 1002.01 259.376 1002.58 Q258.363 1003.15 257.572 1004.56 Q256.806 1005.96 256.436 1008.09 Q256.041 1010.83 256.041 1017.4 Z" fill="#000000" fill-rule="nonzero" fill-opacity="1" /><path clip-path="url(#clip160)" d="M187.736 792.563 Q187.736 785.127 189.613 781.076 Q192.232 775.048 198.408 775.048 Q199.717 775.048 201.076 775.419 Q202.459 775.764 204.188 777.123 Q205.942 778.482 207.004 780.705 Q209.03 785.004 209.03 792.563 Q209.03 799.949 207.153 803.976 Q204.411 809.855 198.358 809.855 Q196.085 809.855 193.763 808.694 Q191.466 807.533 190.008 804.742 Q187.736 800.567 187.736 792.563 M191.935 791.945 Q191.935 799.579 192.479 802.617 Q193.096 805.903 194.776 807.335 Q196.481 808.743 198.358 808.743 Q200.384 808.743 202.064 807.237 Q203.768 805.705 204.287 802.419 Q204.855 799.183 204.83 791.945 Q204.83 784.905 204.336 782.089 Q203.669 778.803 201.891 777.494 Q200.137 776.16 198.358 776.16 Q197.691 776.16 196.975 776.357 Q196.283 776.555 195.27 777.123 Q194.257 777.691 193.467 779.099 Q192.701 780.508 192.331 782.632 Q191.935 785.374 191.935 791.945 Z" fill="#000000" fill-rule="nonzero" fill-opacity="1" /><path clip-path="url(#clip160)" d="M216.12 807.928 Q215.354 807.113 215.354 806.051 Q215.354 804.989 216.12 804.223 Q216.886 803.432 218.047 803.432 Q219.158 803.432 219.9 804.173 Q220.665 804.89 220.665 806.076 Q220.665 807.237 219.85 808.002 Q219.06 808.743 218.047 808.743 Q216.886 808.743 216.12 807.928 Z" fill="#000000" fill-rule="nonzero" fill-opacity="1" /><path clip-path="url(#clip160)" d="M227.632 808.743 Q227.632 807.829 227.706 807.558 Q227.805 807.286 228.2 806.866 L237.908 796.046 Q243.22 790.068 243.22 784.855 Q243.22 781.471 241.441 779.05 Q239.687 776.629 236.451 776.629 Q234.227 776.629 232.35 777.988 Q230.473 779.346 229.608 781.767 Q229.756 781.718 230.275 781.718 Q231.535 781.718 232.227 782.509 Q232.943 783.299 232.943 784.361 Q232.943 785.72 232.054 786.387 Q231.189 787.029 230.324 787.029 Q229.979 787.029 229.509 786.955 Q229.064 786.881 228.348 786.189 Q227.632 785.473 227.632 784.213 Q227.632 780.68 230.3 777.864 Q232.992 775.048 237.093 775.048 Q241.737 775.048 244.776 777.815 Q247.839 780.557 247.839 784.855 Q247.839 786.362 247.37 787.746 Q246.925 789.104 246.307 790.167 Q245.715 791.229 244.084 792.933 Q242.454 794.638 241.144 795.848 Q239.835 797.059 236.895 799.628 L231.535 804.84 L240.65 804.84 Q245.097 804.84 245.443 804.445 Q245.937 803.729 246.554 799.949 L247.839 799.949 L246.406 808.743 L227.632 808.743 Z" fill="#000000" fill-rule="nonzero" fill-opacity="1" /><path clip-path="url(#clip160)" d="M252.928 800.591 Q252.928 799.084 253.743 798.516 Q254.558 797.923 255.423 797.923 Q256.584 797.923 257.251 798.664 Q257.943 799.381 257.943 800.394 Q257.943 801.407 257.251 802.148 Q256.584 802.864 255.423 802.864 Q254.855 802.864 254.558 802.765 Q255.225 805.087 257.251 806.767 Q259.301 808.447 261.994 808.447 Q265.378 808.447 267.404 805.161 Q268.615 803.037 268.615 798.22 Q268.615 793.971 267.701 791.846 Q266.292 788.61 263.402 788.61 Q259.301 788.61 256.88 792.143 Q256.584 792.587 256.238 792.612 Q255.744 792.612 255.621 792.34 Q255.522 792.044 255.522 791.278 L255.522 776.308 Q255.522 775.097 256.016 775.097 Q256.213 775.097 256.633 775.246 Q259.82 776.654 263.353 776.679 Q266.984 776.679 270.245 775.196 Q270.492 775.048 270.64 775.048 Q271.134 775.048 271.159 775.616 Q271.159 775.814 270.739 776.407 Q270.344 776.975 269.479 777.741 Q268.615 778.482 267.503 779.198 Q266.391 779.915 264.761 780.409 Q263.155 780.878 261.376 780.878 Q259.252 780.878 257.078 780.211 L257.078 790.068 Q259.697 787.499 263.501 787.499 Q267.552 787.499 270.344 790.759 Q273.135 794.02 273.135 798.566 Q273.135 803.333 269.825 806.594 Q266.539 809.855 262.093 809.855 Q258.042 809.855 255.472 806.965 Q252.928 804.075 252.928 800.591 Z" fill="#000000" fill-rule="nonzero" fill-opacity="1" /><path clip-path="url(#clip160)" d="M187.192 567.106 Q187.192 559.671 189.07 555.619 Q191.688 549.592 197.864 549.592 Q199.173 549.592 200.532 549.962 Q201.915 550.308 203.645 551.667 Q205.399 553.025 206.461 555.249 Q208.487 559.547 208.487 567.106 Q208.487 574.493 206.609 578.519 Q203.867 584.399 197.815 584.399 Q195.542 584.399 193.22 583.238 Q190.922 582.077 189.465 579.285 Q187.192 575.11 187.192 567.106 M191.392 566.489 Q191.392 574.122 191.935 577.161 Q192.553 580.446 194.233 581.879 Q195.937 583.287 197.815 583.287 Q199.84 583.287 201.52 581.78 Q203.225 580.249 203.744 576.963 Q204.312 573.727 204.287 566.489 Q204.287 559.448 203.793 556.632 Q203.126 553.347 201.347 552.037 Q199.593 550.703 197.815 550.703 Q197.148 550.703 196.431 550.901 Q195.74 551.099 194.727 551.667 Q193.714 552.235 192.923 553.643 Q192.158 555.051 191.787 557.176 Q191.392 559.918 191.392 566.489 Z" fill="#000000" fill-rule="nonzero" fill-opacity="1" /><path clip-path="url(#clip160)" d="M215.576 582.472 Q214.811 581.657 214.811 580.594 Q214.811 579.532 215.576 578.766 Q216.342 577.976 217.503 577.976 Q218.615 577.976 219.356 578.717 Q220.122 579.433 220.122 580.619 Q220.122 581.78 219.307 582.546 Q218.516 583.287 217.503 583.287 Q216.342 583.287 215.576 582.472 Z" fill="#000000" fill-rule="nonzero" fill-opacity="1" /><path clip-path="url(#clip160)" d="M227.088 575.135 Q227.088 573.628 227.903 573.06 Q228.719 572.467 229.583 572.467 Q230.744 572.467 231.411 573.208 Q232.103 573.925 232.103 574.937 Q232.103 575.95 231.411 576.691 Q230.744 577.408 229.583 577.408 Q229.015 577.408 228.719 577.309 Q229.386 579.631 231.411 581.311 Q233.462 582.991 236.154 582.991 Q239.539 582.991 241.564 579.705 Q242.775 577.581 242.775 572.763 Q242.775 568.514 241.861 566.39 Q240.453 563.154 237.562 563.154 Q233.462 563.154 231.041 566.686 Q230.744 567.131 230.398 567.156 Q229.904 567.156 229.781 566.884 Q229.682 566.588 229.682 565.822 L229.682 550.852 Q229.682 549.641 230.176 549.641 Q230.374 549.641 230.794 549.789 Q233.98 551.197 237.513 551.222 Q241.144 551.222 244.405 549.74 Q244.652 549.592 244.801 549.592 Q245.295 549.592 245.319 550.16 Q245.319 550.358 244.899 550.95 Q244.504 551.519 243.639 552.284 Q242.775 553.025 241.663 553.742 Q240.552 554.458 238.921 554.952 Q237.315 555.422 235.537 555.422 Q233.412 555.422 231.238 554.755 L231.238 564.611 Q233.857 562.042 237.661 562.042 Q241.713 562.042 244.504 565.303 Q247.296 568.564 247.296 573.109 Q247.296 577.877 243.985 581.138 Q240.7 584.399 236.253 584.399 Q232.202 584.399 229.633 581.508 Q227.088 578.618 227.088 575.135 Z" fill="#000000" fill-rule="nonzero" fill-opacity="1" /><path clip-path="url(#clip160)" d="M251.841 567.106 Q251.841 559.671 253.718 555.619 Q256.337 549.592 262.513 549.592 Q263.822 549.592 265.181 549.962 Q266.564 550.308 268.293 551.667 Q270.047 553.025 271.11 555.249 Q273.135 559.547 273.135 567.106 Q273.135 574.493 271.258 578.519 Q268.516 584.399 262.463 584.399 Q260.191 584.399 257.869 583.238 Q255.571 582.077 254.114 579.285 Q251.841 575.11 251.841 567.106 M256.041 566.489 Q256.041 574.122 256.584 577.161 Q257.202 580.446 258.881 581.879 Q260.586 583.287 262.463 583.287 Q264.489 583.287 266.169 581.78 Q267.873 580.249 268.392 576.963 Q268.96 573.727 268.936 566.489 Q268.936 559.448 268.442 556.632 Q267.775 553.347 265.996 552.037 Q264.242 550.703 262.463 550.703 Q261.796 550.703 261.08 550.901 Q260.388 551.099 259.376 551.667 Q258.363 552.235 257.572 553.643 Q256.806 555.051 256.436 557.176 Q256.041 559.918 256.041 566.489 Z" fill="#000000" fill-rule="nonzero" fill-opacity="1" /><path clip-path="url(#clip160)" d="M187.736 341.65 Q187.736 334.214 189.613 330.163 Q192.232 324.135 198.408 324.135 Q199.717 324.135 201.076 324.506 Q202.459 324.852 204.188 326.21 Q205.942 327.569 207.004 329.792 Q209.03 334.091 209.03 341.65 Q209.03 349.036 207.153 353.063 Q204.411 358.942 198.358 358.942 Q196.085 358.942 193.763 357.781 Q191.466 356.62 190.008 353.829 Q187.736 349.654 187.736 341.65 M191.935 341.032 Q191.935 348.666 192.479 351.704 Q193.096 354.99 194.776 356.423 Q196.481 357.831 198.358 357.831 Q200.384 357.831 202.064 356.324 Q203.768 354.792 204.287 351.507 Q204.855 348.271 204.83 341.032 Q204.83 333.992 204.336 331.176 Q203.669 327.89 201.891 326.581 Q200.137 325.247 198.358 325.247 Q197.691 325.247 196.975 325.445 Q196.283 325.642 195.27 326.21 Q194.257 326.779 193.467 328.187 Q192.701 329.595 192.331 331.719 Q191.935 334.461 191.935 341.032 Z" fill="#000000" fill-rule="nonzero" fill-opacity="1" /><path clip-path="url(#clip160)" d="M216.12 357.016 Q215.354 356.2 215.354 355.138 Q215.354 354.076 216.12 353.31 Q216.886 352.52 218.047 352.52 Q219.158 352.52 219.9 353.261 Q220.665 353.977 220.665 355.163 Q220.665 356.324 219.85 357.09 Q219.06 357.831 218.047 357.831 Q216.886 357.831 216.12 357.016 Z" fill="#000000" fill-rule="nonzero" fill-opacity="1" /><path clip-path="url(#clip160)" d="M227.953 334.041 L229.608 323.641 L230.868 323.641 Q231.016 324.259 231.263 324.531 Q231.535 324.802 232.968 325.025 Q234.425 325.247 237.365 325.247 L249.642 325.247 Q249.642 326.408 249.198 327.026 L242.355 336.635 Q240.181 339.674 239.218 345.281 Q238.649 349.036 238.674 353.582 L238.674 356.151 Q238.674 358.942 236.327 358.942 Q234.005 358.942 234.005 356.151 Q234.005 346.492 240.23 337.129 Q240.897 336.166 243.343 332.732 Q245.813 329.298 245.912 329.15 L235.438 329.15 Q230.843 329.15 230.473 329.447 Q229.979 329.891 229.213 334.041 L227.953 334.041 Z" fill="#000000" fill-rule="nonzero" fill-opacity="1" /><path clip-path="url(#clip160)" d="M252.928 349.679 Q252.928 348.172 253.743 347.604 Q254.558 347.011 255.423 347.011 Q256.584 347.011 257.251 347.752 Q257.943 348.468 257.943 349.481 Q257.943 350.494 257.251 351.235 Q256.584 351.951 255.423 351.951 Q254.855 351.951 254.558 351.853 Q255.225 354.175 257.251 355.854 Q259.301 357.534 261.994 357.534 Q265.378 357.534 267.404 354.249 Q268.615 352.124 268.615 347.307 Q268.615 343.058 267.701 340.934 Q266.292 337.697 263.402 337.697 Q259.301 337.697 256.88 341.23 Q256.584 341.675 256.238 341.699 Q255.744 341.699 255.621 341.428 Q255.522 341.131 255.522 340.365 L255.522 325.395 Q255.522 324.185 256.016 324.185 Q256.213 324.185 256.633 324.333 Q259.82 325.741 263.353 325.766 Q266.984 325.766 270.245 324.284 Q270.492 324.135 270.64 324.135 Q271.134 324.135 271.159 324.704 Q271.159 324.901 270.739 325.494 Q270.344 326.062 269.479 326.828 Q268.615 327.569 267.503 328.286 Q266.391 329.002 264.761 329.496 Q263.155 329.965 261.376 329.965 Q259.252 329.965 257.078 329.298 L257.078 339.155 Q259.697 336.586 263.501 336.586 Q267.552 336.586 270.344 339.847 Q273.135 343.108 273.135 347.653 Q273.135 352.421 269.825 355.682 Q266.539 358.942 262.093 358.942 Q258.042 358.942 255.472 356.052 Q252.928 353.162 252.928 349.679 Z" fill="#000000" fill-rule="nonzero" fill-opacity="1" /><path clip-path="url(#clip160)" d="M189.712 103.496 L189.712 101.915 Q195.789 101.915 198.926 98.679 Q199.791 98.679 199.939 98.8766 Q200.087 99.0742 200.087 99.9882 L200.087 128.372 Q200.087 129.879 200.829 130.349 Q201.57 130.818 204.806 130.818 L206.411 130.818 L206.411 132.374 Q204.633 132.226 198.21 132.226 Q191.787 132.226 190.033 132.374 L190.033 130.818 L191.639 130.818 Q194.826 130.818 195.591 130.373 Q196.357 129.904 196.357 128.372 L196.357 102.162 Q193.714 103.496 189.712 103.496 Z" fill="#000000" fill-rule="nonzero" fill-opacity="1" /><path clip-path="url(#clip160)" d="M215.576 131.559 Q214.811 130.744 214.811 129.682 Q214.811 128.619 215.576 127.854 Q216.342 127.063 217.503 127.063 Q218.615 127.063 219.356 127.804 Q220.122 128.521 220.122 129.706 Q220.122 130.867 219.307 131.633 Q218.516 132.374 217.503 132.374 Q216.342 132.374 215.576 131.559 Z" fill="#000000" fill-rule="nonzero" fill-opacity="1" /><path clip-path="url(#clip160)" d="M226.545 116.194 Q226.545 108.758 228.422 104.707 Q231.041 98.679 237.217 98.679 Q238.526 98.679 239.885 99.0495 Q241.268 99.3954 242.997 100.754 Q244.751 102.113 245.813 104.336 Q247.839 108.634 247.839 116.194 Q247.839 123.58 245.962 127.607 Q243.22 133.486 237.167 133.486 Q234.894 133.486 232.572 132.325 Q230.275 131.164 228.817 128.372 Q226.545 124.198 226.545 116.194 M230.744 115.576 Q230.744 123.209 231.288 126.248 Q231.905 129.533 233.585 130.966 Q235.29 132.374 237.167 132.374 Q239.193 132.374 240.873 130.867 Q242.577 129.336 243.096 126.05 Q243.664 122.814 243.639 115.576 Q243.639 108.536 243.145 105.719 Q242.478 102.434 240.7 101.125 Q238.946 99.7906 237.167 99.7906 Q236.5 99.7906 235.784 99.9882 Q235.092 100.186 234.079 100.754 Q233.066 101.322 232.276 102.73 Q231.51 104.138 231.14 106.263 Q230.744 109.005 230.744 115.576 Z" fill="#000000" fill-rule="nonzero" fill-opacity="1" /><path clip-path="url(#clip160)" d="M251.841 116.194 Q251.841 108.758 253.718 104.707 Q256.337 98.679 262.513 98.679 Q263.822 98.679 265.181 99.0495 Q266.564 99.3954 268.293 100.754 Q270.047 102.113 271.11 104.336 Q273.135 108.634 273.135 116.194 Q273.135 123.58 271.258 127.607 Q268.516 133.486 262.463 133.486 Q260.191 133.486 257.869 132.325 Q255.571 131.164 254.114 128.372 Q251.841 124.198 251.841 116.194 M256.041 115.576 Q256.041 123.209 256.584 126.248 Q257.202 129.533 258.881 130.966 Q260.586 132.374 262.463 132.374 Q264.489 132.374 266.169 130.867 Q267.873 129.336 268.392 126.05 Q268.96 122.814 268.936 115.576 Q268.936 108.536 268.442 105.719 Q267.775 102.434 265.996 101.125 Q264.242 99.7906 262.463 99.7906 Q261.796 99.7906 261.08 99.9882 Q260.388 100.186 259.376 100.754 Q258.363 101.322 257.572 102.73 Q256.806 104.138 256.436 106.263 Q256.041 109.005 256.041 115.576 Z" fill="#000000" fill-rule="nonzero" fill-opacity="1" /><path clip-path="url(#clip160)" d="M133.991 750.474 Q127.367 750.474 122.782 745.854 Q118.196 741.235 118.196 734.985 Q118.196 729.686 122.51 726.221 L107.462 726.221 Q104.881 726.221 104.236 727.138 Q103.59 728.021 103.59 731.622 L101.416 731.622 L100.669 721.602 L142.89 721.602 Q145.472 721.602 146.151 720.718 Q146.796 719.801 146.796 716.201 L148.936 716.201 L149.718 726.425 L145.098 726.425 Q149.684 730.025 149.718 735.732 Q149.718 741.71 145.132 746.092 Q140.546 750.474 133.991 750.474 M134.059 744.699 Q140.512 744.699 143.705 742.695 Q148.155 739.91 148.155 735.392 Q148.155 730.229 143.298 727.172 Q142.109 726.391 140.716 726.425 L126.45 726.425 Q125.057 726.425 123.903 727.172 Q119.725 730.025 119.725 734.679 Q119.725 739.536 124.174 742.559 Q127.503 744.699 134.059 744.699 Z" fill="#000000" fill-rule="nonzero" fill-opacity="1" /><path clip-path="url(#clip160)" d="M133.617 712.328 Q127.061 712.328 122.408 708.117 Q117.754 703.905 117.754 697.858 Q117.754 691.744 121.729 688.585 Q125.703 685.393 131.409 685.393 Q132.462 685.393 132.666 685.664 Q132.87 685.936 132.87 687.125 L132.87 706.554 Q139.969 706.554 143.298 704.448 Q147.951 701.527 147.951 696.602 Q147.951 695.922 147.815 695.107 Q147.68 694.292 147.102 692.628 Q146.491 690.963 144.894 689.503 Q143.298 688.042 140.784 687.193 Q139.799 686.989 139.833 686.31 Q139.833 685.393 140.648 685.393 Q141.26 685.393 142.652 686.072 Q144.011 686.717 145.641 687.974 Q147.272 689.231 148.495 691.676 Q149.718 694.088 149.718 697.009 Q149.718 703.123 145.098 707.743 Q140.445 712.328 133.617 712.328 M131.409 706.486 L131.409 689.978 Q129.949 689.978 128.318 690.25 Q126.688 690.488 124.446 691.235 Q122.17 691.948 120.744 693.647 Q119.317 695.345 119.317 697.858 Q119.317 698.979 119.792 700.202 Q120.268 701.391 121.423 702.852 Q122.578 704.312 125.193 705.331 Q127.809 706.35 131.409 706.486 Z" fill="#000000" fill-rule="nonzero" fill-opacity="1" /><path clip-path="url(#clip160)" d="M148.936 681.147 L146.796 681.147 Q146.796 677.444 146.355 676.595 Q145.879 675.746 143.637 675.746 L124.989 675.746 Q122.408 675.746 121.763 676.663 Q121.117 677.546 121.117 681.147 L118.943 681.147 L118.196 671.364 L125.499 671.364 Q118.196 668.103 118.196 661.072 Q118.196 655.841 120.778 653.769 Q122.51 652.241 124.446 651.935 Q126.382 651.595 131.409 651.595 L144.69 651.595 Q146.151 651.527 146.491 650.406 Q146.796 649.286 146.796 646.161 L148.936 646.161 Q148.732 653.26 148.732 653.973 Q148.732 654.516 148.936 661.819 L146.796 661.819 Q146.796 658.117 146.355 657.268 Q145.879 656.385 143.637 656.385 L127.435 656.385 Q123.903 656.385 121.831 657.472 Q119.725 658.559 119.725 661.548 Q119.725 665.148 122.748 668.035 Q125.771 670.923 130.866 670.923 L143.637 670.923 Q145.879 670.923 146.355 670.073 Q146.796 669.19 146.796 665.522 L148.936 665.522 Q148.732 672.621 148.732 673.3 Q148.732 673.844 148.936 681.147 Z" fill="#000000" fill-rule="nonzero" fill-opacity="1" /><path clip-path="url(#clip160)" d="M148.019 642.492 L138.848 642.492 Q138.067 642.492 137.795 642.458 Q137.523 642.424 137.32 642.22 Q137.116 642.017 137.116 641.609 Q137.116 641.133 137.32 640.964 Q137.523 640.76 138.305 640.624 Q143.094 639.571 145.641 637.329 Q148.155 635.053 148.155 630.943 Q148.155 627.037 146.423 625.067 Q144.69 623.097 141.837 623.097 Q136.742 623.097 135.451 630.332 Q134.602 634.51 134.059 636.242 Q133.481 637.974 132.224 639.503 Q129.779 642.492 126.314 642.492 Q122.85 642.492 120.302 639.877 Q117.754 637.227 117.754 631.385 Q117.754 627.479 119.725 624.829 Q119.113 624.048 118.604 623.64 Q117.754 622.723 117.754 622.248 Q117.754 621.704 118.128 621.602 Q118.468 621.5 119.453 621.5 L126.45 621.5 Q127.231 621.5 127.503 621.534 Q127.775 621.568 127.979 621.772 Q128.148 621.976 128.148 622.418 Q128.148 623.199 127.503 623.233 Q119.079 623.776 119.079 631.385 Q119.079 635.495 120.676 637.329 Q122.238 639.163 124.378 639.163 Q125.567 639.163 126.484 638.62 Q127.367 638.042 127.911 637.329 Q128.42 636.582 128.93 635.223 Q129.405 633.864 129.575 633.049 Q129.745 632.2 130.085 630.604 Q131.138 625.033 133.413 622.689 Q136.334 619.768 140.037 619.768 Q144.147 619.768 146.932 622.553 Q149.718 625.339 149.718 630.943 Q149.718 635.461 146.694 638.62 Q147.102 639.027 147.476 639.333 Q147.815 639.639 147.951 639.775 Q148.087 639.877 148.189 639.911 Q148.257 639.945 148.325 640.012 Q149.718 641.405 149.718 641.745 Q149.718 642.288 149.344 642.39 Q149.004 642.492 148.019 642.492 Z" fill="#000000" fill-rule="nonzero" fill-opacity="1" /><path clip-path="url(#clip160)" d="M148.936 615.115 L146.796 615.115 Q146.796 611.412 146.355 610.563 Q145.879 609.714 143.637 609.714 L124.922 609.714 Q122.34 609.714 121.729 610.597 Q121.117 611.446 121.117 614.843 L118.943 614.843 L118.196 605.128 L143.705 605.128 Q145.777 605.128 146.287 604.381 Q146.796 603.634 146.796 600.237 L148.936 600.237 Q148.732 607.336 148.732 607.472 Q148.732 608.423 148.936 615.115 M106.07 612.193 Q104.677 612.193 103.556 611.14 Q102.401 610.053 102.401 608.525 Q102.401 606.996 103.454 605.91 Q104.473 604.823 106.104 604.823 Q107.7 604.823 108.753 605.91 Q109.772 606.996 109.772 608.525 Q109.772 610.121 108.651 611.174 Q107.53 612.193 106.07 612.193 Z" fill="#000000" fill-rule="nonzero" fill-opacity="1" /><path clip-path="url(#clip160)" d="M121.117 596.84 L119.589 596.84 Q119.453 593.647 117.211 591.541 Q114.935 589.401 112.15 588.688 Q109.365 587.941 106.138 587.873 L106.138 586.141 L118.943 586.141 L118.943 576.188 L121.117 576.188 L121.117 586.141 L140.445 586.141 Q147.951 586.141 147.951 581.453 Q147.951 579.449 145.913 578.124 Q143.841 576.8 140.173 576.8 L136.334 576.8 L136.334 575.067 L140.309 575.067 Q144.079 575.067 146.898 576.8 Q149.718 578.532 149.718 581.963 Q149.718 583.219 149.378 584.476 Q149.072 585.699 148.257 587.329 Q147.408 588.926 145.37 589.945 Q143.298 590.93 140.309 590.93 L121.117 590.93 L121.117 596.84 Z" fill="#000000" fill-rule="nonzero" fill-opacity="1" /><path clip-path="url(#clip160)" d="M157.564 571.807 Q156.103 571.807 155.322 570.957 Q154.575 570.074 154.575 568.885 Q154.575 567.629 155.356 566.813 Q156.171 565.964 157.496 565.964 Q160.077 565.964 160.417 568.682 Q161.674 567.357 161.674 565.421 Q161.674 563.349 160.145 561.684 Q158.617 559.986 157.156 559.273 Q155.696 558.525 153.046 557.472 Q150.974 556.487 148.936 555.74 L123.529 566.168 Q121.864 566.847 121.491 567.9 Q121.117 568.953 121.117 571.807 L118.943 571.807 Q119.147 568.682 119.147 565.047 Q119.147 562.907 118.943 557.472 L121.117 557.472 Q121.117 561.379 122.917 561.379 Q123.121 561.379 124.174 560.971 L142.89 553.227 L125.771 546.195 Q124.786 545.788 124.106 545.788 Q121.253 545.788 121.117 549.049 L118.943 549.049 Q119.147 544.463 119.147 543.002 Q119.147 540.149 118.943 537.805 L121.117 537.805 Q121.117 542.459 125.567 544.259 L155.254 556.521 Q163.169 559.85 163.202 565.421 Q163.202 568.07 161.572 569.938 Q159.942 571.807 157.564 571.807 Z" fill="#000000" fill-rule="nonzero" fill-opacity="1" /><path clip-path="url(#clip160)" d="M131.545 506.454 Q119.792 506.454 110.316 502.072 Q106.342 500.204 103.013 497.588 Q99.684 494.973 98.2234 493.241 Q96.7628 491.508 96.7628 491.033 Q96.7628 490.353 97.4421 490.319 Q97.7818 490.319 98.631 491.237 Q110.044 502.446 131.545 502.412 Q153.114 502.412 164.086 491.508 Q165.274 490.319 165.648 490.319 Q166.327 490.319 166.327 491.033 Q166.327 491.508 164.935 493.173 Q163.542 494.837 160.349 497.419 Q157.156 500 153.25 501.868 Q143.773 506.454 131.545 506.454 Z" fill="#000000" fill-rule="nonzero" fill-opacity="1" /><path clip-path="url(#clip160)" d="M148.936 484.137 L146.796 484.137 Q146.728 481.896 146.321 480.435 Q145.879 478.94 144.792 478.091 Q143.705 477.208 142.992 476.868 Q142.245 476.495 140.512 475.883 L104.983 463.485 Q104.202 463.282 102.707 462.738 Q101.212 462.161 100.465 461.957 Q98.5291 466.95 92.9924 466.984 Q90.0713 466.984 87.7615 465.184 Q85.4178 463.35 85.4178 460.36 Q85.4178 457.439 87.7275 455.571 Q90.0033 453.669 92.9924 453.669 Q98.4951 453.669 100.465 458.696 L142.686 444.09 Q145.608 443.037 146.219 442.052 Q146.796 441.033 146.796 436.787 L146.796 436.515 L148.936 436.515 Q148.732 440.965 148.732 445.415 Q148.732 450.51 148.936 455.639 L146.796 455.639 L146.796 455.503 Q146.796 450 144.555 450 Q144.011 450 133.074 453.737 L133.074 470.992 Q134.466 471.4 136.98 472.317 Q139.459 473.234 141.124 473.777 Q142.754 474.287 143.298 474.287 Q144.555 474.287 145.641 473.064 Q146.694 471.841 146.796 469.124 L148.936 469.124 Q148.732 473.166 148.732 477.276 Q148.732 480.673 148.936 484.137 M130.934 470.245 L130.934 454.518 L108.312 462.364 L130.934 470.245 M92.9245 465.218 Q96.3891 465.218 97.7478 463.723 Q99.0726 462.229 99.0726 460.292 Q99.0726 458.356 97.7478 456.896 Q96.4231 455.435 93.0604 455.435 Q89.5957 455.435 88.271 456.93 Q86.9463 458.424 86.9463 460.36 Q86.9463 462.297 88.271 463.757 Q89.5957 465.218 92.9245 465.218 Z" fill="#000000" fill-rule="nonzero" fill-opacity="1" /><path clip-path="url(#clip160)" d="M115.275 426.054 L105.255 413.044 L115.275 399.967 L116.735 401.02 L108.923 413.044 L116.735 425.035 L115.275 426.054 Z" fill="#000000" fill-rule="nonzero" fill-opacity="1" /><path clip-path="url(#clip160)" d="M135.995 391.034 L131.885 391.034 L131.885 372.521 L135.995 372.521 L135.995 391.034 Z" fill="#000000" fill-rule="nonzero" fill-opacity="1" /><path clip-path="url(#clip160)" d="M109.229 362.399 L107.055 362.399 Q107.055 354.043 102.605 349.729 Q102.605 348.541 102.877 348.337 Q103.149 348.133 104.405 348.133 L143.434 348.133 Q145.506 348.133 146.151 347.114 Q146.796 346.095 146.796 341.645 L146.796 339.437 L148.936 339.437 Q148.732 341.883 148.732 350.715 Q148.732 359.546 148.936 361.958 L146.796 361.958 L146.796 359.75 Q146.796 355.368 146.185 354.315 Q145.54 353.262 143.434 353.262 L107.394 353.262 Q109.229 356.897 109.229 362.399 Z" fill="#000000" fill-rule="nonzero" fill-opacity="1" /><path clip-path="url(#clip160)" d="M165.648 329.825 Q165.308 329.825 164.459 328.942 Q153.046 317.732 131.545 317.732 Q109.976 317.732 99.0726 328.5 Q97.8158 329.825 97.4421 329.825 Q96.7628 329.825 96.7628 329.145 Q96.7628 328.67 98.1554 327.005 Q99.5481 325.307 102.741 322.76 Q105.934 320.178 109.84 318.276 Q119.317 313.69 131.545 313.69 Q143.298 313.69 152.775 318.072 Q156.749 319.94 160.077 322.556 Q163.406 325.171 164.867 326.904 Q166.327 328.636 166.327 329.145 Q166.327 329.825 165.648 329.825 Z" fill="#000000" fill-rule="nonzero" fill-opacity="1" /><path clip-path="url(#clip161)" d="M362.732 971.829 L362.732 1016.92 L539.638 1016.92 L539.638 971.829 L362.732 971.829 L362.732 971.829  Z" fill="#808080" fill-rule="evenodd" fill-opacity="1"/>
<polyline clip-path="url(#clip161)" style="stroke:#000000; stroke-linecap:round; stroke-linejoin:round; stroke-width:4; stroke-opacity:1; fill:none" points="362.732,971.829 362.732,1016.92 539.638,1016.92 539.638,971.829 362.732,971.829 "/>
<path clip-path="url(#clip161)" d="M539.638 566.007 L539.638 1016.92 L716.544 1016.92 L716.544 566.007 L539.638 566.007 L539.638 566.007  Z" fill="#808080" fill-rule="evenodd" fill-opacity="1"/>
<polyline clip-path="url(#clip161)" style="stroke:#000000; stroke-linecap:round; stroke-linejoin:round; stroke-width:4; stroke-opacity:1; fill:none" points="539.638,566.007 539.638,1016.92 716.544,1016.92 716.544,566.007 539.638,566.007 "/>
<path clip-path="url(#clip161)" d="M716.544 520.916 L716.544 1016.92 L893.45 1016.92 L893.45 520.916 L716.544 520.916 L716.544 520.916  Z" fill="#808080" fill-rule="evenodd" fill-opacity="1"/>
<polyline clip-path="url(#clip161)" style="stroke:#000000; stroke-linecap:round; stroke-linejoin:round; stroke-width:4; stroke-opacity:1; fill:none" points="716.544,520.916 716.544,1016.92 893.45,1016.92 893.45,520.916 716.544,520.916 "/>
<path clip-path="url(#clip161)" d="M893.45 340.551 L893.45 1016.92 L1070.36 1016.92 L1070.36 340.551 L893.45 340.551 L893.45 340.551  Z" fill="#808080" fill-rule="evenodd" fill-opacity="1"/>
<polyline clip-path="url(#clip161)" style="stroke:#000000; stroke-linecap:round; stroke-linejoin:round; stroke-width:4; stroke-opacity:1; fill:none" points="893.45,340.551 893.45,1016.92 1070.36,1016.92 1070.36,340.551 893.45,340.551 "/>
<path clip-path="url(#clip161)" d="M1070.36 926.737 L1070.36 1016.92 L1247.26 1016.92 L1247.26 926.737 L1070.36 926.737 L1070.36 926.737  Z" fill="#808080" fill-rule="evenodd" fill-opacity="1"/>
<polyline clip-path="url(#clip161)" style="stroke:#000000; stroke-linecap:round; stroke-linejoin:round; stroke-width:4; stroke-opacity:1; fill:none" points="1070.36,926.737 1070.36,1016.92 1247.26,1016.92 1247.26,926.737 1070.36,926.737 "/>
<path clip-path="url(#clip161)" d="M1247.26 971.829 L1247.26 1016.92 L1424.17 1016.92 L1424.17 971.829 L1247.26 971.829 L1247.26 971.829  Z" fill="#808080" fill-rule="evenodd" fill-opacity="1"/>
<polyline clip-path="url(#clip161)" style="stroke:#000000; stroke-linecap:round; stroke-linejoin:round; stroke-width:4; stroke-opacity:1; fill:none" points="1247.26,971.829 1247.26,1016.92 1424.17,1016.92 1424.17,971.829 1247.26,971.829 "/>
<circle clip-path="url(#clip161)" style="fill:#808080; stroke:none; fill-opacity:0" cx="451.185" cy="971.829" r="2"/>
<circle clip-path="url(#clip161)" style="fill:#808080; stroke:none; fill-opacity:0" cx="628.091" cy="566.007" r="2"/>
<circle clip-path="url(#clip161)" style="fill:#808080; stroke:none; fill-opacity:0" cx="804.997" cy="520.916" r="2"/>
<circle clip-path="url(#clip161)" style="fill:#808080; stroke:none; fill-opacity:0" cx="981.902" cy="340.551" r="2"/>
<circle clip-path="url(#clip161)" style="fill:#808080; stroke:none; fill-opacity:0" cx="1158.81" cy="926.737" r="2"/>
<circle clip-path="url(#clip161)" style="fill:#808080; stroke:none; fill-opacity:0" cx="1335.71" cy="971.829" r="2"/>
<polyline clip-path="url(#clip161)" style="stroke:#000000; stroke-linecap:round; stroke-linejoin:round; stroke-width:8; stroke-opacity:1; fill:none" points="330.889,1016.52 336.697,1016.44 342.504,1016.35 376.52,1015.42 410.535,1013.25 426.359,1011.46 442.183,1008.94 463.392,1003.92 484.602,996.294 493.365,992.151 502.128,987.308 510.891,981.676 519.654,975.159 527.803,968.217 535.952,960.34 544.1,951.441 552.249,941.435 562.478,927.172 572.708,910.861 582.937,892.344 593.167,871.48 602.342,850.67 611.518,827.808 620.694,802.851 629.87,775.782 635.121,759.344 640.373,742.225 645.624,724.436 650.876,705.994 656.127,686.918 661.379,667.231 666.63,646.963 671.882,626.146 679.733,594.083 687.584,561.024 695.435,527.136 703.286,492.608 723.369,402.875 743.452,314.425 752.617,275.72 761.782,238.685 770.947,203.774 780.112,171.43 785.327,154.332 790.542,138.276 795.758,123.334 800.973,109.571 806.189,97.0497 811.404,85.8266 816.62,75.9533 821.835,67.4754 825.969,61.7727 830.104,56.9885 834.238,53.1371 838.372,50.2297 842.507,48.275 846.641,47.2788 850.776,47.2441 854.91,48.171 860.046,50.6575 865.183,54.6123 870.319,60.0174 875.456,66.8481 880.592,75.0734 885.729,84.6562 890.865,95.5534 896.002,107.717 903.869,128.677 911.736,152.266 919.604,178.247 927.471,206.365 933.017,227.324 938.563,249.113 944.109,271.632 949.655,294.781 960.747,342.566 971.838,391.669 988.416,465.858 1004.99,538.929 1014.42,579.195 1023.85,618.131 1033.27,655.472 1042.7,691.002 1052.03,724.238 1061.37,755.41 1070.7,784.441 1080.04,811.291 1085.17,825.13 1090.31,838.31 1095.44,850.84 1100.58,862.726 1110.85,884.617 1121.12,904.092 1128.96,917.425 1136.81,929.495 1144.65,940.374 1152.5,950.139 1162.4,960.989 1172.3,970.343 1182.2,978.352 1192.1,985.165 1201.25,990.524 1210.41,995.085 1219.57,998.946 1228.72,1002.2 1247.61,1007.31 1266.49,1010.78 1285.63,1013.1 1304.78,1014.59 1344.75,1016.15 1376.25,1016.62 1447.96,1016.89 1456.01,1016.9 "/>
</svg>
