<?xml version="1.0" encoding="utf-8"?>
<svg xmlns="http://www.w3.org/2000/svg" xmlns:xlink="http://www.w3.org/1999/xlink" width="400" height="300" viewBox="0 0 1600 1200">
<defs>
  <clipPath id="clip070">
    <rect x="0" y="0" width="1600" height="1200"/>
  </clipPath>
</defs>
<path clip-path="url(#clip070)" d="M0 1200 L1600 1200 L1600 0 L0 0  Z" fill="#ffffff" fill-rule="evenodd" fill-opacity="1"/>
<defs>
  <clipPath id="clip071">
    <rect x="320" y="0" width="1121" height="1121"/>
  </clipPath>
</defs>
<path clip-path="url(#clip070)" d="M272.407 1016.92 L1489.76 1016.92 L1489.76 47.2441 L272.407 47.2441  Z" fill="#ffffff" fill-rule="evenodd" fill-opacity="1"/>
<defs>
  <clipPath id="clip072">
    <rect x="272" y="47" width="1218" height="971"/>
  </clipPath>
</defs>
<polyline clip-path="url(#clip072)" style="stroke:#000000; stroke-linecap:round; stroke-linejoin:round; stroke-width:2; stroke-opacity:0.1; fill:none" points="339.364,1016.92 339.364,47.2441 "/>
<polyline clip-path="url(#clip072)" style="stroke:#000000; stroke-linecap:round; stroke-linejoin:round; stroke-width:2; stroke-opacity:0.1; fill:none" points="556.053,1016.92 556.053,47.2441 "/>
<polyline clip-path="url(#clip072)" style="stroke:#000000; stroke-linecap:round; stroke-linejoin:round; stroke-width:2; stroke-opacity:0.1; fill:none" points="772.741,1016.92 772.741,47.2441 "/>
<polyline clip-path="url(#clip072)" style="stroke:#000000; stroke-linecap:round; stroke-linejoin:round; stroke-width:2; stroke-opacity:0.1; fill:none" points="989.43,1016.92 989.43,47.2441 "/>
<polyline clip-path="url(#clip072)" style="stroke:#000000; stroke-linecap:round; stroke-linejoin:round; stroke-width:2; stroke-opacity:0.1; fill:none" points="1206.12,1016.92 1206.12,47.2441 "/>
<polyline clip-path="url(#clip072)" style="stroke:#000000; stroke-linecap:round; stroke-linejoin:round; stroke-width:2; stroke-opacity:0.1; fill:none" points="1422.81,1016.92 1422.81,47.2441 "/>
<polyline clip-path="url(#clip072)" style="stroke:#000000; stroke-linecap:round; stroke-linejoin:round; stroke-width:2; stroke-opacity:0.1; fill:none" points="339.364,1016.92 339.364,47.2441 "/>
<polyline clip-path="url(#clip072)" style="stroke:#000000; stroke-linecap:round; stroke-linejoin:round; stroke-width:2; stroke-opacity:0.1; fill:none" points="556.053,1016.92 556.053,47.2441 "/>
<polyline clip-path="url(#clip072)" style="stroke:#000000; stroke-linecap:round; stroke-linejoin:round; stroke-width:2; stroke-opacity:0.1; fill:none" points="772.741,1016.92 772.741,47.2441 "/>
<polyline clip-path="url(#clip072)" style="stroke:#000000; stroke-linecap:round; stroke-linejoin:round; stroke-width:2; stroke-opacity:0.1; fill:none" points="989.43,1016.92 989.43,47.2441 "/>
<polyline clip-path="url(#clip072)" style="stroke:#000000; stroke-linecap:round; stroke-linejoin:round; stroke-width:2; stroke-opacity:0.1; fill:none" points="1206.12,1016.92 1206.12,47.2441 "/>
<polyline clip-path="url(#clip072)" style="stroke:#000000; stroke-linecap:round; stroke-linejoin:round; stroke-width:2; stroke-opacity:0.1; fill:none" points="1422.81,1016.92 1422.81,47.2441 "/>
<polyline clip-path="url(#clip072)" style="stroke:#000000; stroke-linecap:round; stroke-linejoin:round; stroke-width:2; stroke-opacity:0.1; fill:none" points="272.407,1016.92 1489.76,1016.92 "/>
<polyline clip-path="url(#clip072)" style="stroke:#000000; stroke-linecap:round; stroke-linejoin:round; stroke-width:2; stroke-opacity:0.1; fill:none" points="272.407,821.42 1489.76,821.42 "/>
<polyline clip-path="url(#clip072)" style="stroke:#000000; stroke-linecap:round; stroke-linejoin:round; stroke-width:2; stroke-opacity:0.1; fill:none" points="272.407,625.921 1489.76,625.921 "/>
<polyline clip-path="url(#clip072)" style="stroke:#000000; stroke-linecap:round; stroke-linejoin:round; stroke-width:2; stroke-opacity:0.1; fill:none" points="272.407,430.422 1489.76,430.422 "/>
<polyline clip-path="url(#clip072)" style="stroke:#000000; stroke-linecap:round; stroke-linejoin:round; stroke-width:2; stroke-opacity:0.1; fill:none" points="272.407,234.922 1489.76,234.922 "/>
<polyline clip-path="url(#clip072)" style="stroke:#000000; stroke-linecap:round; stroke-linejoin:round; stroke-width:2; stroke-opacity:0.1; fill:none" points="272.407,1016.92 1489.76,1016.92 "/>
<polyline clip-path="url(#clip072)" style="stroke:#000000; stroke-linecap:round; stroke-linejoin:round; stroke-width:2; stroke-opacity:0.1; fill:none" points="272.407,821.42 1489.76,821.42 "/>
<polyline clip-path="url(#clip072)" style="stroke:#000000; stroke-linecap:round; stroke-linejoin:round; stroke-width:2; stroke-opacity:0.1; fill:none" points="272.407,625.921 1489.76,625.921 "/>
<polyline clip-path="url(#clip072)" style="stroke:#000000; stroke-linecap:round; stroke-linejoin:round; stroke-width:2; stroke-opacity:0.1; fill:none" points="272.407,430.422 1489.76,430.422 "/>
<polyline clip-path="url(#clip072)" style="stroke:#000000; stroke-linecap:round; stroke-linejoin:round; stroke-width:2; stroke-opacity:0.1; fill:none" points="272.407,234.922 1489.76,234.922 "/>
<polyline clip-path="url(#clip070)" style="stroke:#000000; stroke-linecap:round; stroke-linejoin:round; stroke-width:4; stroke-opacity:1; fill:none" points="272.407,1016.92 1489.76,1016.92 "/>
<polyline clip-path="url(#clip070)" style="stroke:#000000; stroke-linecap:round; stroke-linejoin:round; stroke-width:4; stroke-opacity:1; fill:none" points="272.407,47.2441 1489.76,47.2441 "/>
<polyline clip-path="url(#clip070)" style="stroke:#000000; stroke-linecap:round; stroke-linejoin:round; stroke-width:4; stroke-opacity:1; fill:none" points="339.364,1016.92 339.364,998.022 "/>
<polyline clip-path="url(#clip070)" style="stroke:#000000; stroke-linecap:round; stroke-linejoin:round; stroke-width:4; stroke-opacity:1; fill:none" points="556.053,1016.92 556.053,998.022 "/>
<polyline clip-path="url(#clip070)" style="stroke:#000000; stroke-linecap:round; stroke-linejoin:round; stroke-width:4; stroke-opacity:1; fill:none" points="772.741,1016.92 772.741,998.022 "/>
<polyline clip-path="url(#clip070)" style="stroke:#000000; stroke-linecap:round; stroke-linejoin:round; stroke-width:4; stroke-opacity:1; fill:none" points="989.43,1016.92 989.43,998.022 "/>
<polyline clip-path="url(#clip070)" style="stroke:#000000; stroke-linecap:round; stroke-linejoin:round; stroke-width:4; stroke-opacity:1; fill:none" points="1206.12,1016.92 1206.12,998.022 "/>
<polyline clip-path="url(#clip070)" style="stroke:#000000; stroke-linecap:round; stroke-linejoin:round; stroke-width:4; stroke-opacity:1; fill:none" points="1422.81,1016.92 1422.81,998.022 "/>
<polyline clip-path="url(#clip070)" style="stroke:#000000; stroke-linecap:round; stroke-linejoin:round; stroke-width:4; stroke-opacity:1; fill:none" points="339.364,47.2441 339.364,66.1417 "/>
<polyline clip-path="url(#clip070)" style="stroke:#000000; stroke-linecap:round; stroke-linejoin:round; stroke-width:4; stroke-opacity:1; fill:none" points="556.053,47.2441 556.053,66.1417 "/>
<polyline clip-path="url(#clip070)" style="stroke:#000000; stroke-linecap:round; stroke-linejoin:round; stroke-width:4; stroke-opacity:1; fill:none" points="772.741,47.2441 772.741,66.1417 "/>
<polyline clip-path="url(#clip070)" style="stroke:#000000; stroke-linecap:round; stroke-linejoin:round; stroke-width:4; stroke-opacity:1; fill:none" points="989.43,47.2441 989.43,66.1417 "/>
<polyline clip-path="url(#clip070)" style="stroke:#000000; stroke-linecap:round; stroke-linejoin:round; stroke-width:4; stroke-opacity:1; fill:none" points="1206.12,47.2441 1206.12,66.1417 "/>
<polyline clip-path="url(#clip070)" style="stroke:#000000; stroke-linecap:round; stroke-linejoin:round; stroke-width:4; stroke-opacity:1; fill:none" points="1422.81,47.2441 1422.81,66.1417 "/>
<path clip-path="url(#clip070)" d="M323.467 1059.56 Q323.764 1059.85 323.764 1060.27 Q323.764 1060.69 323.467 1060.99 Q323.171 1061.28 322.751 1061.28 L291.081 1061.28 Q290.661 1061.28 290.365 1060.99 Q290.068 1060.69 290.068 1060.27 Q290.068 1059.85 290.365 1059.56 Q290.661 1059.26 291.081 1059.26 L322.751 1059.26 Q323.171 1059.26 323.467 1059.56 Z" fill="#000000" fill-rule="nonzero" fill-opacity="1" /><path clip-path="url(#clip070)" d="M331.076 1044.04 L331.076 1042.46 Q337.153 1042.46 340.29 1039.22 Q341.155 1039.22 341.303 1039.42 Q341.451 1039.62 341.451 1040.53 L341.451 1068.92 Q341.451 1070.42 342.193 1070.89 Q342.934 1071.36 346.17 1071.36 L347.775 1071.36 L347.775 1072.92 Q345.997 1072.77 339.574 1072.77 Q333.151 1072.77 331.397 1072.92 L331.397 1071.36 L333.003 1071.36 Q336.19 1071.36 336.955 1070.92 Q337.721 1070.45 337.721 1068.92 L337.721 1042.71 Q335.078 1044.04 331.076 1044.04 Z" fill="#000000" fill-rule="nonzero" fill-opacity="1" /><path clip-path="url(#clip070)" d="M356.94 1072.1 Q356.175 1071.29 356.175 1070.23 Q356.175 1069.16 356.94 1068.4 Q357.706 1067.61 358.867 1067.61 Q359.979 1067.61 360.72 1068.35 Q361.486 1069.07 361.486 1070.25 Q361.486 1071.41 360.671 1072.18 Q359.88 1072.92 358.867 1072.92 Q357.706 1072.92 356.94 1072.1 Z" fill="#000000" fill-rule="nonzero" fill-opacity="1" /><path clip-path="url(#clip070)" d="M368.452 1064.77 Q368.452 1063.26 369.267 1062.69 Q370.083 1062.1 370.947 1062.1 Q372.108 1062.1 372.775 1062.84 Q373.467 1063.56 373.467 1064.57 Q373.467 1065.58 372.775 1066.32 Q372.108 1067.04 370.947 1067.04 Q370.379 1067.04 370.083 1066.94 Q370.75 1069.26 372.775 1070.94 Q374.826 1072.62 377.518 1072.62 Q380.903 1072.62 382.928 1069.34 Q384.139 1067.21 384.139 1062.4 Q384.139 1058.15 383.225 1056.02 Q381.817 1052.79 378.926 1052.79 Q374.826 1052.79 372.405 1056.32 Q372.108 1056.76 371.762 1056.79 Q371.268 1056.79 371.145 1056.52 Q371.046 1056.22 371.046 1055.45 L371.046 1040.48 Q371.046 1039.27 371.54 1039.27 Q371.738 1039.27 372.158 1039.42 Q375.344 1040.83 378.877 1040.85 Q382.508 1040.85 385.769 1039.37 Q386.016 1039.22 386.165 1039.22 Q386.659 1039.22 386.683 1039.79 Q386.683 1039.99 386.263 1040.58 Q385.868 1041.15 385.003 1041.92 Q384.139 1042.66 383.027 1043.37 Q381.916 1044.09 380.285 1044.59 Q378.679 1045.05 376.901 1045.05 Q374.776 1045.05 372.602 1044.39 L372.602 1054.24 Q375.221 1051.67 379.025 1051.67 Q383.077 1051.67 385.868 1054.94 Q388.66 1058.2 388.66 1062.74 Q388.66 1067.51 385.349 1070.77 Q382.064 1074.03 377.617 1074.03 Q373.566 1074.03 370.997 1071.14 Q368.452 1068.25 368.452 1064.77 Z" fill="#000000" fill-rule="nonzero" fill-opacity="1" /><path clip-path="url(#clip070)" d="M539.884 1059.56 Q540.181 1059.85 540.181 1060.27 Q540.181 1060.69 539.884 1060.99 Q539.588 1061.28 539.168 1061.28 L507.498 1061.28 Q507.078 1061.28 506.782 1060.99 Q506.485 1060.69 506.485 1060.27 Q506.485 1059.85 506.782 1059.56 Q507.078 1059.26 507.498 1059.26 L539.168 1059.26 Q539.588 1059.26 539.884 1059.56 Z" fill="#000000" fill-rule="nonzero" fill-opacity="1" /><path clip-path="url(#clip070)" d="M547.493 1044.04 L547.493 1042.46 Q553.57 1042.46 556.707 1039.22 Q557.572 1039.22 557.72 1039.42 Q557.868 1039.62 557.868 1040.53 L557.868 1068.92 Q557.868 1070.42 558.609 1070.89 Q559.35 1071.36 562.587 1071.36 L564.192 1071.36 L564.192 1072.92 Q562.414 1072.77 555.991 1072.77 Q549.568 1072.77 547.814 1072.92 L547.814 1071.36 L549.42 1071.36 Q552.606 1071.36 553.372 1070.92 Q554.138 1070.45 554.138 1068.92 L554.138 1042.71 Q551.495 1044.04 547.493 1044.04 Z" fill="#000000" fill-rule="nonzero" fill-opacity="1" /><path clip-path="url(#clip070)" d="M573.357 1072.1 Q572.591 1071.29 572.591 1070.23 Q572.591 1069.16 573.357 1068.4 Q574.123 1067.61 575.284 1067.61 Q576.396 1067.61 577.137 1068.35 Q577.903 1069.07 577.903 1070.25 Q577.903 1071.41 577.088 1072.18 Q576.297 1072.92 575.284 1072.92 Q574.123 1072.92 573.357 1072.1 Z" fill="#000000" fill-rule="nonzero" fill-opacity="1" /><path clip-path="url(#clip070)" d="M584.326 1056.74 Q584.326 1049.3 586.203 1045.25 Q588.822 1039.22 594.997 1039.22 Q596.307 1039.22 597.665 1039.6 Q599.049 1039.94 600.778 1041.3 Q602.532 1042.66 603.594 1044.88 Q605.62 1049.18 605.62 1056.74 Q605.62 1064.13 603.742 1068.15 Q601 1074.03 594.948 1074.03 Q592.675 1074.03 590.353 1072.87 Q588.056 1071.71 586.598 1068.92 Q584.326 1064.74 584.326 1056.74 M588.525 1056.12 Q588.525 1063.75 589.069 1066.79 Q589.686 1070.08 591.366 1071.51 Q593.071 1072.92 594.948 1072.92 Q596.974 1072.92 598.654 1071.41 Q600.358 1069.88 600.877 1066.6 Q601.445 1063.36 601.42 1056.12 Q601.42 1049.08 600.926 1046.26 Q600.259 1042.98 598.481 1041.67 Q596.727 1040.34 594.948 1040.34 Q594.281 1040.34 593.565 1040.53 Q592.873 1040.73 591.86 1041.3 Q590.847 1041.87 590.057 1043.28 Q589.291 1044.68 588.92 1046.81 Q588.525 1049.55 588.525 1056.12 Z" fill="#000000" fill-rule="nonzero" fill-opacity="1" /><path clip-path="url(#clip070)" d="M756.845 1059.56 Q757.141 1059.85 757.141 1060.27 Q757.141 1060.69 756.845 1060.99 Q756.548 1061.28 756.128 1061.28 L724.458 1061.28 Q724.039 1061.28 723.742 1060.99 Q723.446 1060.69 723.446 1060.27 Q723.446 1059.85 723.742 1059.56 Q724.039 1059.26 724.458 1059.26 L756.128 1059.26 Q756.548 1059.26 756.845 1059.56 Z" fill="#000000" fill-rule="nonzero" fill-opacity="1" /><path clip-path="url(#clip070)" d="M761.933 1056.74 Q761.933 1049.3 763.811 1045.25 Q766.429 1039.22 772.605 1039.22 Q773.915 1039.22 775.273 1039.6 Q776.657 1039.94 778.386 1041.3 Q780.14 1042.66 781.202 1044.88 Q783.228 1049.18 783.228 1056.74 Q783.228 1064.13 781.35 1068.15 Q778.608 1074.03 772.556 1074.03 Q770.283 1074.03 767.961 1072.87 Q765.664 1071.71 764.206 1068.92 Q761.933 1064.74 761.933 1056.74 M766.133 1056.12 Q766.133 1063.75 766.677 1066.79 Q767.294 1070.08 768.974 1071.51 Q770.678 1072.92 772.556 1072.92 Q774.582 1072.92 776.261 1071.41 Q777.966 1069.88 778.485 1066.6 Q779.053 1063.36 779.028 1056.12 Q779.028 1049.08 778.534 1046.26 Q777.867 1042.98 776.088 1041.67 Q774.335 1040.34 772.556 1040.34 Q771.889 1040.34 771.173 1040.53 Q770.481 1040.73 769.468 1041.3 Q768.455 1041.87 767.665 1043.28 Q766.899 1044.68 766.528 1046.81 Q766.133 1049.55 766.133 1056.12 Z" fill="#000000" fill-rule="nonzero" fill-opacity="1" /><path clip-path="url(#clip070)" d="M790.318 1072.1 Q789.552 1071.29 789.552 1070.23 Q789.552 1069.16 790.318 1068.4 Q791.083 1067.61 792.244 1067.61 Q793.356 1067.61 794.097 1068.35 Q794.863 1069.07 794.863 1070.25 Q794.863 1071.41 794.048 1072.18 Q793.257 1072.92 792.244 1072.92 Q791.083 1072.92 790.318 1072.1 Z" fill="#000000" fill-rule="nonzero" fill-opacity="1" /><path clip-path="url(#clip070)" d="M801.829 1064.77 Q801.829 1063.26 802.645 1062.69 Q803.46 1062.1 804.324 1062.1 Q805.485 1062.1 806.152 1062.84 Q806.844 1063.56 806.844 1064.57 Q806.844 1065.58 806.152 1066.32 Q805.485 1067.04 804.324 1067.04 Q803.756 1067.04 803.46 1066.94 Q804.127 1069.26 806.152 1070.94 Q808.203 1072.62 810.896 1072.62 Q814.28 1072.62 816.306 1069.34 Q817.516 1067.21 817.516 1062.4 Q817.516 1058.15 816.602 1056.02 Q815.194 1052.79 812.304 1052.79 Q808.203 1052.79 805.782 1056.32 Q805.485 1056.76 805.14 1056.79 Q804.646 1056.79 804.522 1056.52 Q804.423 1056.22 804.423 1055.45 L804.423 1040.48 Q804.423 1039.27 804.917 1039.27 Q805.115 1039.27 805.535 1039.42 Q808.722 1040.83 812.254 1040.85 Q815.886 1040.85 819.146 1039.37 Q819.393 1039.22 819.542 1039.22 Q820.036 1039.22 820.06 1039.79 Q820.06 1039.99 819.641 1040.58 Q819.245 1041.15 818.381 1041.92 Q817.516 1042.66 816.404 1043.37 Q815.293 1044.09 813.662 1044.59 Q812.057 1045.05 810.278 1045.05 Q808.153 1045.05 805.98 1044.39 L805.98 1054.24 Q808.598 1051.67 812.402 1051.67 Q816.454 1051.67 819.245 1054.94 Q822.037 1058.2 822.037 1062.74 Q822.037 1067.51 818.726 1070.77 Q815.441 1074.03 810.994 1074.03 Q806.943 1074.03 804.374 1071.14 Q801.829 1068.25 801.829 1064.77 Z" fill="#000000" fill-rule="nonzero" fill-opacity="1" /><path clip-path="url(#clip070)" d="M959.106 1056.74 Q959.106 1049.3 960.984 1045.25 Q963.602 1039.22 969.778 1039.22 Q971.088 1039.22 972.446 1039.6 Q973.83 1039.94 975.559 1041.3 Q977.313 1042.66 978.375 1044.88 Q980.401 1049.18 980.401 1056.74 Q980.401 1064.13 978.523 1068.15 Q975.781 1074.03 969.729 1074.03 Q967.456 1074.03 965.134 1072.87 Q962.837 1071.71 961.379 1068.92 Q959.106 1064.74 959.106 1056.74 M963.306 1056.12 Q963.306 1063.75 963.849 1066.79 Q964.467 1070.08 966.147 1071.51 Q967.851 1072.92 969.729 1072.92 Q971.755 1072.92 973.434 1071.41 Q975.139 1069.88 975.658 1066.6 Q976.226 1063.36 976.201 1056.12 Q976.201 1049.08 975.707 1046.26 Q975.04 1042.98 973.261 1041.67 Q971.508 1040.34 969.729 1040.34 Q969.062 1040.34 968.345 1040.53 Q967.654 1040.73 966.641 1041.3 Q965.628 1041.87 964.838 1043.28 Q964.072 1044.68 963.701 1046.81 Q963.306 1049.55 963.306 1056.12 Z" fill="#000000" fill-rule="nonzero" fill-opacity="1" /><path clip-path="url(#clip070)" d="M987.491 1072.1 Q986.725 1071.29 986.725 1070.23 Q986.725 1069.16 987.491 1068.4 Q988.256 1067.61 989.417 1067.61 Q990.529 1067.61 991.27 1068.35 Q992.036 1069.07 992.036 1070.25 Q992.036 1071.41 991.221 1072.18 Q990.43 1072.92 989.417 1072.92 Q988.256 1072.92 987.491 1072.1 Z" fill="#000000" fill-rule="nonzero" fill-opacity="1" /><path clip-path="url(#clip070)" d="M998.459 1056.74 Q998.459 1049.3 1000.34 1045.25 Q1002.95 1039.22 1009.13 1039.22 Q1010.44 1039.22 1011.8 1039.6 Q1013.18 1039.94 1014.91 1041.3 Q1016.67 1042.66 1017.73 1044.88 Q1019.75 1049.18 1019.75 1056.74 Q1019.75 1064.13 1017.88 1068.15 Q1015.13 1074.03 1009.08 1074.03 Q1006.81 1074.03 1004.49 1072.87 Q1002.19 1071.71 1000.73 1068.92 Q998.459 1064.74 998.459 1056.74 M1002.66 1056.12 Q1002.66 1063.75 1003.2 1066.79 Q1003.82 1070.08 1005.5 1071.51 Q1007.2 1072.92 1009.08 1072.92 Q1011.11 1072.92 1012.79 1071.41 Q1014.49 1069.88 1015.01 1066.6 Q1015.58 1063.36 1015.55 1056.12 Q1015.55 1049.08 1015.06 1046.26 Q1014.39 1042.98 1012.61 1041.67 Q1010.86 1040.34 1009.08 1040.34 Q1008.41 1040.34 1007.7 1040.53 Q1007.01 1040.73 1005.99 1041.3 Q1004.98 1041.87 1004.19 1043.28 Q1003.42 1044.68 1003.05 1046.81 Q1002.66 1049.55 1002.66 1056.12 Z" fill="#000000" fill-rule="nonzero" fill-opacity="1" /><path clip-path="url(#clip070)" d="M1176.07 1056.74 Q1176.07 1049.3 1177.94 1045.25 Q1180.56 1039.22 1186.74 1039.22 Q1188.05 1039.22 1189.41 1039.6 Q1190.79 1039.94 1192.52 1041.3 Q1194.27 1042.66 1195.34 1044.88 Q1197.36 1049.18 1197.36 1056.74 Q1197.36 1064.13 1195.48 1068.15 Q1192.74 1074.03 1186.69 1074.03 Q1184.42 1074.03 1182.09 1072.87 Q1179.8 1071.71 1178.34 1068.92 Q1176.07 1064.74 1176.07 1056.74 M1180.27 1056.12 Q1180.27 1063.75 1180.81 1066.79 Q1181.43 1070.08 1183.11 1071.51 Q1184.81 1072.92 1186.69 1072.92 Q1188.71 1072.92 1190.39 1071.41 Q1192.1 1069.88 1192.62 1066.6 Q1193.19 1063.36 1193.16 1056.12 Q1193.16 1049.08 1192.67 1046.26 Q1192 1042.98 1190.22 1041.67 Q1188.47 1040.34 1186.69 1040.34 Q1186.02 1040.34 1185.31 1040.53 Q1184.61 1040.73 1183.6 1041.3 Q1182.59 1041.87 1181.8 1043.28 Q1181.03 1044.68 1180.66 1046.81 Q1180.27 1049.55 1180.27 1056.12 Z" fill="#000000" fill-rule="nonzero" fill-opacity="1" /><path clip-path="url(#clip070)" d="M1204.45 1072.1 Q1203.69 1071.29 1203.69 1070.23 Q1203.69 1069.16 1204.45 1068.4 Q1205.22 1067.61 1206.38 1067.61 Q1207.49 1067.61 1208.23 1068.35 Q1209 1069.07 1209 1070.25 Q1209 1071.41 1208.18 1072.18 Q1207.39 1072.92 1206.38 1072.92 Q1205.22 1072.92 1204.45 1072.1 Z" fill="#000000" fill-rule="nonzero" fill-opacity="1" /><path clip-path="url(#clip070)" d="M1215.96 1064.77 Q1215.96 1063.26 1216.78 1062.69 Q1217.59 1062.1 1218.46 1062.1 Q1219.62 1062.1 1220.29 1062.84 Q1220.98 1063.56 1220.98 1064.57 Q1220.98 1065.58 1220.29 1066.32 Q1219.62 1067.04 1218.46 1067.04 Q1217.89 1067.04 1217.59 1066.94 Q1218.26 1069.26 1220.29 1070.94 Q1222.34 1072.62 1225.03 1072.62 Q1228.41 1072.62 1230.44 1069.34 Q1231.65 1067.21 1231.65 1062.4 Q1231.65 1058.15 1230.74 1056.02 Q1229.33 1052.79 1226.44 1052.79 Q1222.34 1052.79 1219.92 1056.32 Q1219.62 1056.76 1219.27 1056.79 Q1218.78 1056.79 1218.66 1056.52 Q1218.56 1056.22 1218.56 1055.45 L1218.56 1040.48 Q1218.56 1039.27 1219.05 1039.27 Q1219.25 1039.27 1219.67 1039.42 Q1222.85 1040.83 1226.39 1040.85 Q1230.02 1040.85 1233.28 1039.37 Q1233.53 1039.22 1233.67 1039.22 Q1234.17 1039.22 1234.19 1039.79 Q1234.19 1039.99 1233.77 1040.58 Q1233.38 1041.15 1232.51 1041.92 Q1231.65 1042.66 1230.54 1043.37 Q1229.43 1044.09 1227.8 1044.59 Q1226.19 1045.05 1224.41 1045.05 Q1222.29 1045.05 1220.11 1044.39 L1220.11 1054.24 Q1222.73 1051.67 1226.54 1051.67 Q1230.59 1051.67 1233.38 1054.94 Q1236.17 1058.2 1236.17 1062.74 Q1236.17 1067.51 1232.86 1070.77 Q1229.57 1074.03 1225.13 1074.03 Q1221.08 1074.03 1218.51 1071.14 Q1215.96 1068.25 1215.96 1064.77 Z" fill="#000000" fill-rule="nonzero" fill-opacity="1" /><path clip-path="url(#clip070)" d="M1393.74 1044.04 L1393.74 1042.46 Q1399.82 1042.46 1402.96 1039.22 Q1403.82 1039.22 1403.97 1039.42 Q1404.12 1039.62 1404.12 1040.53 L1404.12 1068.92 Q1404.12 1070.42 1404.86 1070.89 Q1405.6 1071.36 1408.84 1071.36 L1410.44 1071.36 L1410.44 1072.92 Q1408.66 1072.77 1402.24 1072.77 Q1395.82 1072.77 1394.06 1072.92 L1394.06 1071.36 L1395.67 1071.36 Q1398.86 1071.36 1399.62 1070.92 Q1400.39 1070.45 1400.39 1068.92 L1400.39 1042.71 Q1397.75 1044.04 1393.74 1044.04 Z" fill="#000000" fill-rule="nonzero" fill-opacity="1" /><path clip-path="url(#clip070)" d="M1419.61 1072.1 Q1418.84 1071.29 1418.84 1070.23 Q1418.84 1069.16 1419.61 1068.4 Q1420.37 1067.61 1421.53 1067.61 Q1422.65 1067.61 1423.39 1068.35 Q1424.15 1069.07 1424.15 1070.25 Q1424.15 1071.41 1423.34 1072.18 Q1422.55 1072.92 1421.53 1072.92 Q1420.37 1072.92 1419.61 1072.1 Z" fill="#000000" fill-rule="nonzero" fill-opacity="1" /><path clip-path="url(#clip070)" d="M1430.58 1056.74 Q1430.58 1049.3 1432.45 1045.25 Q1435.07 1039.22 1441.25 1039.22 Q1442.56 1039.22 1443.92 1039.6 Q1445.3 1039.94 1447.03 1041.3 Q1448.78 1042.66 1449.84 1044.88 Q1451.87 1049.18 1451.87 1056.74 Q1451.87 1064.13 1449.99 1068.15 Q1447.25 1074.03 1441.2 1074.03 Q1438.93 1074.03 1436.6 1072.87 Q1434.31 1071.71 1432.85 1068.92 Q1430.58 1064.74 1430.58 1056.74 M1434.78 1056.12 Q1434.78 1063.75 1435.32 1066.79 Q1435.94 1070.08 1437.62 1071.51 Q1439.32 1072.92 1441.2 1072.92 Q1443.22 1072.92 1444.9 1071.41 Q1446.61 1069.88 1447.13 1066.6 Q1447.7 1063.36 1447.67 1056.12 Q1447.67 1049.08 1447.18 1046.26 Q1446.51 1042.98 1444.73 1041.67 Q1442.98 1040.34 1441.2 1040.34 Q1440.53 1040.34 1439.82 1040.53 Q1439.12 1040.73 1438.11 1041.3 Q1437.1 1041.87 1436.31 1043.28 Q1435.54 1044.68 1435.17 1046.81 Q1434.78 1049.55 1434.78 1056.12 Z" fill="#000000" fill-rule="nonzero" fill-opacity="1" /><path clip-path="url(#clip070)" d="M803.64 1121.96 L803.64 1119.79 Q806.765 1119.99 810.4 1119.99 Q811.725 1119.99 817.975 1119.79 L817.975 1121.96 Q814 1121.96 814 1123.77 Q814 1124.04 814.408 1124.95 L822.22 1144.35 L829.32 1126.62 Q829.727 1125.43 829.727 1124.95 Q829.727 1123.77 828.912 1122.92 Q828.131 1122.03 826.398 1121.96 L826.398 1119.79 Q829.931 1119.99 832.445 1119.99 Q835.298 1119.99 837.642 1119.79 L837.642 1121.96 Q835.57 1121.96 834.109 1122.92 Q832.648 1123.83 832.173 1124.65 Q831.731 1125.43 831.256 1126.62 L822.153 1149.24 Q821.609 1150.57 820.692 1150.57 Q820.081 1150.57 819.809 1150.29 Q819.571 1150.06 819.231 1149.24 L809.211 1124.55 Q808.532 1122.81 807.649 1122.41 Q806.765 1121.96 803.64 1121.96 Z" fill="#000000" fill-rule="nonzero" fill-opacity="1" /><path clip-path="url(#clip070)" d="M839.951 1143.16 Q839.951 1137.25 846.915 1134.13 Q851.093 1132.12 859.72 1131.61 L859.72 1129.06 Q859.72 1124.75 857.444 1122.47 Q855.203 1120.16 852.349 1120.16 Q847.254 1120.16 844.809 1123.36 Q846.881 1123.43 847.628 1124.48 Q848.375 1125.5 848.375 1126.55 Q848.375 1127.94 847.492 1128.86 Q846.643 1129.74 845.182 1129.74 Q843.79 1129.74 842.872 1128.89 Q841.955 1128.01 841.955 1126.48 Q841.955 1123.09 845.012 1120.84 Q848.103 1118.6 852.485 1118.6 Q858.192 1118.6 861.996 1122.44 Q863.185 1123.63 863.762 1125.16 Q864.374 1126.69 864.442 1127.71 Q864.51 1128.69 864.51 1130.66 L864.51 1144.55 Q864.51 1144.96 864.645 1145.64 Q864.781 1146.32 865.393 1147.2 Q866.038 1148.05 867.091 1148.05 Q869.605 1148.05 869.571 1143.6 L869.571 1139.7 L871.337 1139.7 L871.337 1143.6 Q871.337 1147.3 869.367 1148.76 Q867.431 1150.19 865.63 1150.19 Q863.321 1150.19 861.86 1148.49 Q860.4 1146.79 860.196 1144.48 Q859.143 1147.13 856.731 1148.87 Q854.353 1150.57 851.093 1150.57 Q848.579 1150.57 846.201 1149.92 Q843.858 1149.31 841.887 1147.58 Q839.951 1145.81 839.951 1143.16 M845.318 1143.09 Q845.318 1145.67 847.152 1147.34 Q848.987 1149 851.568 1149 Q854.489 1149 857.105 1146.76 Q859.72 1144.48 859.72 1140.04 L859.72 1133.07 Q852.01 1133.34 848.647 1136.43 Q845.318 1139.49 845.318 1143.09 Z" fill="#000000" fill-rule="nonzero" fill-opacity="1" /><path clip-path="url(#clip070)" d="M874.122 1149.78 L874.122 1147.64 Q877.825 1147.64 878.674 1147.2 Q879.523 1146.73 879.523 1144.48 L879.523 1108.31 Q879.523 1105.73 878.606 1105.08 Q877.723 1104.44 874.122 1104.44 L874.122 1102.26 L884.109 1101.52 L884.109 1144.48 Q884.109 1146.73 884.992 1147.2 Q885.875 1147.64 889.543 1147.64 L889.543 1149.78 Q888.694 1149.78 886.928 1149.72 Q885.162 1149.65 883.871 1149.61 Q882.58 1149.58 881.833 1149.58 Q881.018 1149.58 874.122 1149.78 Z" fill="#000000" fill-rule="nonzero" fill-opacity="1" /><path clip-path="url(#clip070)" d="M893.314 1121.96 L893.314 1119.79 L903.538 1119.04 L903.538 1142.14 Q903.538 1143.81 903.674 1144.79 Q903.809 1145.74 904.353 1146.86 Q904.93 1147.98 906.221 1148.49 Q907.546 1149 909.652 1149 Q913.422 1149 915.732 1145.91 Q918.076 1142.82 918.076 1138.24 L918.076 1125.84 Q918.076 1123.26 917.159 1122.61 Q916.241 1121.96 912.641 1121.96 L912.641 1119.79 L922.865 1119.04 L922.865 1143.74 Q922.865 1146.32 923.748 1147 Q924.665 1147.64 928.3 1147.64 L928.3 1149.78 L918.279 1150.57 L918.279 1144.28 Q915.358 1150.53 909.312 1150.57 Q906.255 1150.57 904.149 1149.78 Q902.077 1149 901.024 1148.05 Q899.971 1147.07 899.394 1145.2 Q898.85 1143.33 898.782 1142.18 Q898.714 1141.02 898.714 1138.78 L898.714 1128.35 Q898.714 1123.63 898.035 1122.81 Q897.356 1121.96 893.314 1121.96 Z" fill="#000000" fill-rule="nonzero" fill-opacity="1" /><path clip-path="url(#clip070)" d="M931.595 1134.46 Q931.595 1127.91 935.807 1123.26 Q940.018 1118.6 946.065 1118.6 Q952.179 1118.6 955.338 1122.58 Q958.531 1126.55 958.531 1132.26 Q958.531 1133.31 958.259 1133.51 Q957.987 1133.72 956.798 1133.72 L937.369 1133.72 Q937.369 1140.82 939.475 1144.15 Q942.396 1148.8 947.321 1148.8 Q948.001 1148.8 948.816 1148.66 Q949.631 1148.53 951.296 1147.95 Q952.96 1147.34 954.421 1145.74 Q955.881 1144.15 956.73 1141.63 Q956.934 1140.65 957.613 1140.68 Q958.531 1140.68 958.531 1141.5 Q958.531 1142.11 957.851 1143.5 Q957.206 1144.86 955.949 1146.49 Q954.692 1148.12 952.247 1149.34 Q949.835 1150.57 946.914 1150.57 Q940.8 1150.57 936.18 1145.95 Q931.595 1141.29 931.595 1134.46 M937.437 1132.26 L953.945 1132.26 Q953.945 1130.8 953.673 1129.17 Q953.435 1127.54 952.688 1125.29 Q951.975 1123.02 950.277 1121.59 Q948.578 1120.16 946.065 1120.16 Q944.944 1120.16 943.721 1120.64 Q942.532 1121.12 941.071 1122.27 Q939.611 1123.43 938.592 1126.04 Q937.573 1128.66 937.437 1132.26 Z" fill="#000000" fill-rule="nonzero" fill-opacity="1" /><polyline clip-path="url(#clip070)" style="stroke:#000000; stroke-linecap:round; stroke-linejoin:round; stroke-width:4; stroke-opacity:1; fill:none" points="272.407,1016.92 272.407,47.2441 "/>
<polyline clip-path="url(#clip070)" style="stroke:#000000; stroke-linecap:round; stroke-linejoin:round; stroke-width:4; stroke-opacity:1; fill:none" points="1489.76,1016.92 1489.76,47.2441 "/>
<polyline clip-path="url(#clip070)" style="stroke:#000000; stroke-linecap:round; stroke-linejoin:round; stroke-width:4; stroke-opacity:1; fill:none" points="272.407,1016.92 291.305,1016.92 "/>
<polyline clip-path="url(#clip070)" style="stroke:#000000; stroke-linecap:round; stroke-linejoin:round; stroke-width:4; stroke-opacity:1; fill:none" points="272.407,821.42 291.305,821.42 "/>
<polyline clip-path="url(#clip070)" style="stroke:#000000; stroke-linecap:round; stroke-linejoin:round; stroke-width:4; stroke-opacity:1; fill:none" points="272.407,625.921 291.305,625.921 "/>
<polyline clip-path="url(#clip070)" style="stroke:#000000; stroke-linecap:round; stroke-linejoin:round; stroke-width:4; stroke-opacity:1; fill:none" points="272.407,430.422 291.305,430.422 "/>
<polyline clip-path="url(#clip070)" style="stroke:#000000; stroke-linecap:round; stroke-linejoin:round; stroke-width:4; stroke-opacity:1; fill:none" points="272.407,234.922 291.305,234.922 "/>
<polyline clip-path="url(#clip070)" style="stroke:#000000; stroke-linecap:round; stroke-linejoin:round; stroke-width:4; stroke-opacity:1; fill:none" points="1489.76,1016.92 1470.87,1016.92 "/>
<polyline clip-path="url(#clip070)" style="stroke:#000000; stroke-linecap:round; stroke-linejoin:round; stroke-width:4; stroke-opacity:1; fill:none" points="1489.76,821.42 1470.87,821.42 "/>
<polyline clip-path="url(#clip070)" style="stroke:#000000; stroke-linecap:round; stroke-linejoin:round; stroke-width:4; stroke-opacity:1; fill:none" points="1489.76,625.921 1470.87,625.921 "/>
<polyline clip-path="url(#clip070)" style="stroke:#000000; stroke-linecap:round; stroke-linejoin:round; stroke-width:4; stroke-opacity:1; fill:none" points="1489.76,430.422 1470.87,430.422 "/>
<polyline clip-path="url(#clip070)" style="stroke:#000000; stroke-linecap:round; stroke-linejoin:round; stroke-width:4; stroke-opacity:1; fill:none" points="1489.76,234.922 1470.87,234.922 "/>
<path clip-path="url(#clip070)" d="M187.76 1018.02 Q187.76 1010.58 189.638 1006.53 Q192.256 1000.5 198.432 1000.5 Q199.742 1000.5 201.1 1000.88 Q202.484 1001.22 204.213 1002.58 Q205.967 1003.94 207.029 1006.16 Q209.055 1010.46 209.055 1018.02 Q209.055 1025.41 207.177 1029.43 Q204.435 1035.31 198.383 1035.31 Q196.11 1035.31 193.788 1034.15 Q191.491 1032.99 190.033 1030.2 Q187.76 1026.02 187.76 1018.02 M191.96 1017.4 Q191.96 1025.03 192.504 1028.07 Q193.121 1031.36 194.801 1032.79 Q196.505 1034.2 198.383 1034.2 Q200.409 1034.2 202.088 1032.69 Q203.793 1031.16 204.312 1027.88 Q204.88 1024.64 204.855 1017.4 Q204.855 1010.36 204.361 1007.54 Q203.694 1004.26 201.915 1002.95 Q200.162 1001.62 198.383 1001.62 Q197.716 1001.62 197 1001.81 Q196.308 1002.01 195.295 1002.58 Q194.282 1003.15 193.492 1004.56 Q192.726 1005.96 192.355 1008.09 Q191.96 1010.83 191.96 1017.4 Z" fill="#000000" fill-rule="nonzero" fill-opacity="1" /><path clip-path="url(#clip070)" d="M216.145 1033.38 Q215.379 1032.57 215.379 1031.51 Q215.379 1030.44 216.145 1029.68 Q216.91 1028.89 218.071 1028.89 Q219.183 1028.89 219.924 1029.63 Q220.69 1030.35 220.69 1031.53 Q220.69 1032.69 219.875 1033.46 Q219.084 1034.2 218.071 1034.2 Q216.91 1034.2 216.145 1033.38 Z" fill="#000000" fill-rule="nonzero" fill-opacity="1" /><path clip-path="url(#clip070)" d="M227.113 1018.02 Q227.113 1010.58 228.99 1006.53 Q231.609 1000.5 237.785 1000.5 Q239.094 1000.5 240.453 1000.88 Q241.836 1001.22 243.565 1002.58 Q245.319 1003.94 246.382 1006.16 Q248.407 1010.46 248.407 1018.02 Q248.407 1025.41 246.53 1029.43 Q243.788 1035.31 237.735 1035.31 Q235.463 1035.31 233.141 1034.15 Q230.843 1032.99 229.386 1030.2 Q227.113 1026.02 227.113 1018.02 M231.312 1017.4 Q231.312 1025.03 231.856 1028.07 Q232.474 1031.36 234.153 1032.79 Q235.858 1034.2 237.735 1034.2 Q239.761 1034.2 241.441 1032.69 Q243.145 1031.16 243.664 1027.88 Q244.232 1024.64 244.208 1017.4 Q244.208 1010.36 243.714 1007.54 Q243.047 1004.26 241.268 1002.95 Q239.514 1001.62 237.735 1001.62 Q237.068 1001.62 236.352 1001.81 Q235.66 1002.01 234.647 1002.58 Q233.635 1003.15 232.844 1004.56 Q232.078 1005.96 231.708 1008.09 Q231.312 1010.83 231.312 1017.4 Z" fill="#000000" fill-rule="nonzero" fill-opacity="1" /><path clip-path="url(#clip070)" d="M188.304 822.52 Q188.304 815.084 190.181 811.033 Q192.8 805.005 198.976 805.005 Q200.285 805.005 201.644 805.376 Q203.027 805.721 204.756 807.08 Q206.51 808.439 207.573 810.662 Q209.598 814.961 209.598 822.52 Q209.598 829.906 207.721 833.933 Q204.979 839.812 198.926 839.812 Q196.654 839.812 194.332 838.651 Q192.034 837.49 190.577 834.698 Q188.304 830.524 188.304 822.52 M192.504 821.902 Q192.504 829.535 193.047 832.574 Q193.665 835.86 195.344 837.292 Q197.049 838.7 198.926 838.7 Q200.952 838.7 202.632 837.194 Q204.336 835.662 204.855 832.376 Q205.423 829.14 205.399 821.902 Q205.399 814.862 204.905 812.046 Q204.238 808.76 202.459 807.451 Q200.705 806.117 198.926 806.117 Q198.259 806.117 197.543 806.314 Q196.851 806.512 195.838 807.08 Q194.826 807.648 194.035 809.056 Q193.269 810.464 192.899 812.589 Q192.504 815.331 192.504 821.902 Z" fill="#000000" fill-rule="nonzero" fill-opacity="1" /><path clip-path="url(#clip070)" d="M216.688 837.885 Q215.922 837.07 215.922 836.008 Q215.922 834.946 216.688 834.18 Q217.454 833.389 218.615 833.389 Q219.727 833.389 220.468 834.13 Q221.234 834.847 221.234 836.032 Q221.234 837.194 220.418 837.959 Q219.628 838.7 218.615 838.7 Q217.454 838.7 216.688 837.885 Z" fill="#000000" fill-rule="nonzero" fill-opacity="1" /><path clip-path="url(#clip070)" d="M228.2 838.7 Q228.2 837.786 228.274 837.515 Q228.373 837.243 228.768 836.823 L238.476 826.003 Q243.788 820.025 243.788 814.812 Q243.788 811.428 242.009 809.007 Q240.255 806.586 237.019 806.586 Q234.796 806.586 232.918 807.945 Q231.041 809.303 230.176 811.724 Q230.324 811.675 230.843 811.675 Q232.103 811.675 232.795 812.465 Q233.511 813.256 233.511 814.318 Q233.511 815.677 232.622 816.344 Q231.757 816.986 230.893 816.986 Q230.547 816.986 230.077 816.912 Q229.633 816.838 228.916 816.146 Q228.2 815.43 228.2 814.17 Q228.2 810.637 230.868 807.821 Q233.56 805.005 237.661 805.005 Q242.305 805.005 245.344 807.772 Q248.407 810.514 248.407 814.812 Q248.407 816.319 247.938 817.703 Q247.493 819.061 246.876 820.124 Q246.283 821.186 244.652 822.89 Q243.022 824.595 241.713 825.805 Q240.403 827.016 237.464 829.585 L232.103 834.797 L241.219 834.797 Q245.665 834.797 246.011 834.402 Q246.505 833.686 247.123 829.906 L248.407 829.906 L246.974 838.7 L228.2 838.7 Z" fill="#000000" fill-rule="nonzero" fill-opacity="1" /><path clip-path="url(#clip070)" d="M187.192 627.02 Q187.192 619.585 189.07 615.533 Q191.688 609.506 197.864 609.506 Q199.173 609.506 200.532 609.876 Q201.915 610.222 203.645 611.581 Q205.399 612.939 206.461 615.163 Q208.487 619.461 208.487 627.02 Q208.487 634.407 206.609 638.433 Q203.867 644.313 197.815 644.313 Q195.542 644.313 193.22 643.152 Q190.922 641.991 189.465 639.199 Q187.192 635.024 187.192 627.02 M191.392 626.403 Q191.392 634.036 191.935 637.075 Q192.553 640.36 194.233 641.793 Q195.937 643.201 197.815 643.201 Q199.84 643.201 201.52 641.694 Q203.225 640.163 203.744 636.877 Q204.312 633.641 204.287 626.403 Q204.287 619.362 203.793 616.546 Q203.126 613.261 201.347 611.951 Q199.593 610.617 197.815 610.617 Q197.148 610.617 196.431 610.815 Q195.74 611.013 194.727 611.581 Q193.714 612.149 192.923 613.557 Q192.158 614.965 191.787 617.09 Q191.392 619.832 191.392 626.403 Z" fill="#000000" fill-rule="nonzero" fill-opacity="1" /><path clip-path="url(#clip070)" d="M215.576 642.386 Q214.811 641.571 214.811 640.508 Q214.811 639.446 215.576 638.68 Q216.342 637.89 217.503 637.89 Q218.615 637.89 219.356 638.631 Q220.122 639.347 220.122 640.533 Q220.122 641.694 219.307 642.46 Q218.516 643.201 217.503 643.201 Q216.342 643.201 215.576 642.386 Z" fill="#000000" fill-rule="nonzero" fill-opacity="1" /><path clip-path="url(#clip070)" d="M225.977 634.851 L225.977 633.295 L241.515 609.555 Q241.91 608.937 242.528 608.962 Q243.096 608.962 243.22 609.185 Q243.343 609.407 243.343 610.271 L243.343 633.295 L248.407 633.295 L248.407 634.851 L243.343 634.851 L243.343 639.248 Q243.343 640.706 243.936 641.175 Q244.553 641.645 247.172 641.645 L248.234 641.645 L248.234 643.201 Q246.159 643.053 241.367 643.053 Q236.599 643.053 234.524 643.201 L234.524 641.645 L235.586 641.645 Q238.205 641.645 238.822 641.2 Q239.44 640.731 239.44 639.248 L239.44 634.851 L225.977 634.851 M227.409 633.295 L239.736 633.295 L239.736 614.422 L227.409 633.295 Z" fill="#000000" fill-rule="nonzero" fill-opacity="1" /><path clip-path="url(#clip070)" d="M187.909 431.521 Q187.909 424.085 189.786 420.034 Q192.405 414.006 198.581 414.006 Q199.89 414.006 201.248 414.377 Q202.632 414.723 204.361 416.081 Q206.115 417.44 207.177 419.663 Q209.203 423.962 209.203 431.521 Q209.203 438.907 207.326 442.934 Q204.583 448.813 198.531 448.813 Q196.258 448.813 193.936 447.652 Q191.639 446.491 190.181 443.7 Q187.909 439.525 187.909 431.521 M192.108 430.903 Q192.108 438.537 192.652 441.575 Q193.269 444.861 194.949 446.294 Q196.654 447.702 198.531 447.702 Q200.557 447.702 202.237 446.195 Q203.941 444.663 204.46 441.378 Q205.028 438.141 205.003 430.903 Q205.003 423.863 204.509 421.047 Q203.842 417.761 202.064 416.452 Q200.31 415.118 198.531 415.118 Q197.864 415.118 197.148 415.316 Q196.456 415.513 195.443 416.081 Q194.43 416.65 193.64 418.058 Q192.874 419.466 192.504 421.59 Q192.108 424.332 192.108 430.903 Z" fill="#000000" fill-rule="nonzero" fill-opacity="1" /><path clip-path="url(#clip070)" d="M216.293 446.886 Q215.527 446.071 215.527 445.009 Q215.527 443.947 216.293 443.181 Q217.059 442.39 218.22 442.39 Q219.331 442.39 220.072 443.132 Q220.838 443.848 220.838 445.034 Q220.838 446.195 220.023 446.961 Q219.233 447.702 218.22 447.702 Q217.059 447.702 216.293 446.886 Z" fill="#000000" fill-rule="nonzero" fill-opacity="1" /><path clip-path="url(#clip070)" d="M227.409 431.719 Q227.409 423.764 231.461 418.898 Q235.512 414.006 240.724 414.006 Q243.763 414.006 245.443 415.563 Q247.147 417.094 247.147 419.466 Q247.147 420.775 246.382 421.343 Q245.616 421.911 244.825 421.911 Q243.911 421.911 243.195 421.294 Q242.478 420.676 242.478 419.565 Q242.478 417.292 245.27 417.292 Q243.961 415.266 240.823 415.266 Q239.86 415.266 238.872 415.563 Q237.884 415.834 236.599 416.773 Q235.314 417.712 234.326 419.194 Q233.338 420.676 232.646 423.468 Q231.955 426.259 231.955 429.891 L231.955 431.101 Q234.03 426.086 238.279 426.111 Q242.528 426.111 245.468 429.347 Q248.407 432.583 248.407 437.376 Q248.407 442.292 245.344 445.552 Q242.281 448.813 237.982 448.813 Q236.056 448.813 234.302 447.998 Q232.572 447.208 230.942 445.38 Q229.336 443.551 228.373 440.044 Q227.409 436.536 227.409 431.719 M232.054 436.264 Q232.054 441.229 232.968 443.601 Q233.116 443.996 233.437 444.54 Q233.783 445.083 234.351 445.799 Q234.944 446.491 235.907 446.961 Q236.871 447.405 237.982 447.405 Q241.367 447.405 242.997 444.12 Q243.862 442.292 243.862 437.326 Q243.862 432.262 242.948 430.409 Q241.391 427.272 238.229 427.272 Q236.105 427.272 234.623 428.729 Q233.165 430.187 232.597 432.139 Q232.054 434.09 232.054 436.264 Z" fill="#000000" fill-rule="nonzero" fill-opacity="1" /><path clip-path="url(#clip070)" d="M187.909 236.022 Q187.909 228.586 189.786 224.534 Q192.405 218.507 198.581 218.507 Q199.89 218.507 201.248 218.877 Q202.632 219.223 204.361 220.582 Q206.115 221.941 207.177 224.164 Q209.203 228.462 209.203 236.022 Q209.203 243.408 207.326 247.434 Q204.583 253.314 198.531 253.314 Q196.258 253.314 193.936 252.153 Q191.639 250.992 190.181 248.2 Q187.909 244.025 187.909 236.022 M192.108 235.404 Q192.108 243.037 192.652 246.076 Q193.269 249.361 194.949 250.794 Q196.654 252.202 198.531 252.202 Q200.557 252.202 202.237 250.695 Q203.941 249.164 204.46 245.878 Q205.028 242.642 205.003 235.404 Q205.003 228.363 204.509 225.547 Q203.842 222.262 202.064 220.952 Q200.31 219.618 198.531 219.618 Q197.864 219.618 197.148 219.816 Q196.456 220.014 195.443 220.582 Q194.43 221.15 193.64 222.558 Q192.874 223.966 192.504 226.091 Q192.108 228.833 192.108 235.404 Z" fill="#000000" fill-rule="nonzero" fill-opacity="1" /><path clip-path="url(#clip070)" d="M216.293 251.387 Q215.527 250.572 215.527 249.51 Q215.527 248.447 216.293 247.682 Q217.059 246.891 218.22 246.891 Q219.331 246.891 220.072 247.632 Q220.838 248.348 220.838 249.534 Q220.838 250.695 220.023 251.461 Q219.233 252.202 218.22 252.202 Q217.059 252.202 216.293 251.387 Z" fill="#000000" fill-rule="nonzero" fill-opacity="1" /><path clip-path="url(#clip070)" d="M227.409 244.569 Q227.409 238.912 234.697 235.256 Q231.56 233.131 230.991 232.514 Q228.768 230.043 228.768 226.955 Q228.768 223.423 231.436 220.977 Q234.129 218.507 237.933 218.507 Q241.564 218.507 244.306 220.607 Q247.049 222.706 247.049 226.041 Q247.049 230.735 240.922 233.897 Q244.973 236.417 245.937 237.479 Q248.407 240.221 248.407 243.704 Q248.407 247.756 245.295 250.547 Q242.182 253.314 237.884 253.314 Q233.684 253.314 230.547 250.868 Q227.409 248.423 227.409 244.569 M229.929 244.569 Q229.929 247.706 232.276 249.806 Q234.647 251.906 237.933 251.906 Q241.12 251.906 243.491 250.078 Q245.887 248.25 245.887 245.532 Q245.887 244.47 245.517 243.556 Q245.171 242.642 244.455 241.926 Q243.763 241.185 243.318 240.863 Q242.898 240.518 242.083 239.949 L235.858 236.022 Q229.929 239.307 229.929 244.569 M230.991 224.979 Q230.991 227.4 233.536 229.08 L239.81 233.131 Q244.825 230.192 244.825 226.041 Q244.825 223.349 242.775 221.57 Q240.724 219.767 237.884 219.767 Q235.092 219.767 233.042 221.249 Q230.991 222.706 230.991 224.979 Z" fill="#000000" fill-rule="nonzero" fill-opacity="1" /><path clip-path="url(#clip070)" d="M133.991 638.416 Q127.367 638.416 122.782 633.797 Q118.196 629.177 118.196 622.927 Q118.196 617.628 122.51 614.164 L107.462 614.164 Q104.881 614.164 104.236 615.081 Q103.59 615.964 103.59 619.564 L101.416 619.564 L100.669 609.544 L142.89 609.544 Q145.472 609.544 146.151 608.661 Q146.796 607.744 146.796 604.143 L148.936 604.143 L149.718 614.367 L145.098 614.367 Q149.684 617.968 149.718 623.674 Q149.718 629.653 145.132 634.034 Q140.546 638.416 133.991 638.416 M134.059 632.642 Q140.512 632.642 143.705 630.638 Q148.155 627.852 148.155 623.335 Q148.155 618.172 143.298 615.115 Q142.109 614.333 140.716 614.367 L126.45 614.367 Q125.057 614.367 123.903 615.115 Q119.725 617.968 119.725 622.621 Q119.725 627.479 124.174 630.502 Q127.503 632.642 134.059 632.642 Z" fill="#000000" fill-rule="nonzero" fill-opacity="1" /><path clip-path="url(#clip070)" d="M133.617 600.271 Q127.061 600.271 122.408 596.059 Q117.754 591.847 117.754 585.801 Q117.754 579.687 121.729 576.528 Q125.703 573.335 131.409 573.335 Q132.462 573.335 132.666 573.607 Q132.87 573.879 132.87 575.067 L132.87 594.497 Q139.969 594.497 143.298 592.391 Q147.951 589.469 147.951 584.544 Q147.951 583.865 147.815 583.05 Q147.68 582.234 147.102 580.57 Q146.491 578.906 144.894 577.445 Q143.298 575.984 140.784 575.135 Q139.799 574.931 139.833 574.252 Q139.833 573.335 140.648 573.335 Q141.26 573.335 142.652 574.014 Q144.011 574.66 145.641 575.917 Q147.272 577.173 148.495 579.619 Q149.718 582.031 149.718 584.952 Q149.718 591.066 145.098 595.685 Q140.445 600.271 133.617 600.271 M131.409 594.429 L131.409 577.921 Q129.949 577.921 128.318 578.192 Q126.688 578.43 124.446 579.177 Q122.17 579.891 120.744 581.589 Q119.317 583.287 119.317 585.801 Q119.317 586.922 119.792 588.145 Q120.268 589.334 121.423 590.794 Q122.578 592.255 125.193 593.274 Q127.809 594.293 131.409 594.429 Z" fill="#000000" fill-rule="nonzero" fill-opacity="1" /><path clip-path="url(#clip070)" d="M148.936 569.089 L146.796 569.089 Q146.796 565.387 146.355 564.538 Q145.879 563.688 143.637 563.688 L124.989 563.688 Q122.408 563.688 121.763 564.605 Q121.117 565.489 121.117 569.089 L118.943 569.089 L118.196 559.307 L125.499 559.307 Q118.196 556.046 118.196 549.015 Q118.196 543.784 120.778 541.712 Q122.51 540.183 124.446 539.877 Q126.382 539.538 131.409 539.538 L144.69 539.538 Q146.151 539.47 146.491 538.349 Q146.796 537.228 146.796 534.103 L148.936 534.103 Q148.732 541.202 148.732 541.915 Q148.732 542.459 148.936 549.762 L146.796 549.762 Q146.796 546.059 146.355 545.21 Q145.879 544.327 143.637 544.327 L127.435 544.327 Q123.903 544.327 121.831 545.414 Q119.725 546.501 119.725 549.49 Q119.725 553.091 122.748 555.978 Q125.771 558.865 130.866 558.865 L143.637 558.865 Q145.879 558.865 146.355 558.016 Q146.796 557.133 146.796 553.464 L148.936 553.464 Q148.732 560.563 148.732 561.243 Q148.732 561.786 148.936 569.089 Z" fill="#000000" fill-rule="nonzero" fill-opacity="1" /><path clip-path="url(#clip070)" d="M148.019 530.435 L138.848 530.435 Q138.067 530.435 137.795 530.401 Q137.523 530.367 137.32 530.163 Q137.116 529.959 137.116 529.551 Q137.116 529.076 137.32 528.906 Q137.523 528.702 138.305 528.566 Q143.094 527.513 145.641 525.272 Q148.155 522.996 148.155 518.886 Q148.155 514.98 146.423 513.009 Q144.69 511.039 141.837 511.039 Q136.742 511.039 135.451 518.274 Q134.602 522.452 134.059 524.185 Q133.481 525.917 132.224 527.445 Q129.779 530.435 126.314 530.435 Q122.85 530.435 120.302 527.819 Q117.754 525.17 117.754 519.327 Q117.754 515.421 119.725 512.772 Q119.113 511.99 118.604 511.583 Q117.754 510.666 117.754 510.19 Q117.754 509.647 118.128 509.545 Q118.468 509.443 119.453 509.443 L126.45 509.443 Q127.231 509.443 127.503 509.477 Q127.775 509.511 127.979 509.715 Q128.148 509.918 128.148 510.36 Q128.148 511.141 127.503 511.175 Q119.079 511.719 119.079 519.327 Q119.079 523.437 120.676 525.272 Q122.238 527.106 124.378 527.106 Q125.567 527.106 126.484 526.562 Q127.367 525.985 127.911 525.272 Q128.42 524.524 128.93 523.166 Q129.405 521.807 129.575 520.992 Q129.745 520.143 130.085 518.546 Q131.138 512.975 133.413 510.632 Q136.334 507.711 140.037 507.711 Q144.147 507.711 146.932 510.496 Q149.718 513.281 149.718 518.886 Q149.718 523.403 146.694 526.562 Q147.102 526.97 147.476 527.276 Q147.815 527.581 147.951 527.717 Q148.087 527.819 148.189 527.853 Q148.257 527.887 148.325 527.955 Q149.718 529.348 149.718 529.687 Q149.718 530.231 149.344 530.333 Q149.004 530.435 148.019 530.435 Z" fill="#000000" fill-rule="nonzero" fill-opacity="1" /><path clip-path="url(#clip070)" d="M148.936 503.057 L146.796 503.057 Q146.796 499.355 146.355 498.505 Q145.879 497.656 143.637 497.656 L124.922 497.656 Q122.34 497.656 121.729 498.539 Q121.117 499.389 121.117 502.785 L118.943 502.785 L118.196 493.071 L143.705 493.071 Q145.777 493.071 146.287 492.323 Q146.796 491.576 146.796 488.179 L148.936 488.179 Q148.732 495.279 148.732 495.414 Q148.732 496.366 148.936 503.057 M106.07 500.136 Q104.677 500.136 103.556 499.083 Q102.401 497.996 102.401 496.467 Q102.401 494.939 103.454 493.852 Q104.473 492.765 106.104 492.765 Q107.7 492.765 108.753 493.852 Q109.772 494.939 109.772 496.467 Q109.772 498.064 108.651 499.117 Q107.53 500.136 106.07 500.136 Z" fill="#000000" fill-rule="nonzero" fill-opacity="1" /><path clip-path="url(#clip070)" d="M121.117 484.783 L119.589 484.783 Q119.453 481.59 117.211 479.484 Q114.935 477.344 112.15 476.631 Q109.365 475.883 106.138 475.815 L106.138 474.083 L118.943 474.083 L118.943 464.131 L121.117 464.131 L121.117 474.083 L140.445 474.083 Q147.951 474.083 147.951 469.396 Q147.951 467.392 145.913 466.067 Q143.841 464.742 140.173 464.742 L136.334 464.742 L136.334 463.01 L140.309 463.01 Q144.079 463.01 146.898 464.742 Q149.718 466.474 149.718 469.905 Q149.718 471.162 149.378 472.419 Q149.072 473.642 148.257 475.272 Q147.408 476.868 145.37 477.887 Q143.298 478.872 140.309 478.872 L121.117 478.872 L121.117 484.783 Z" fill="#000000" fill-rule="nonzero" fill-opacity="1" /><path clip-path="url(#clip070)" d="M157.564 459.749 Q156.103 459.749 155.322 458.9 Q154.575 458.017 154.575 456.828 Q154.575 455.571 155.356 454.756 Q156.171 453.907 157.496 453.907 Q160.077 453.907 160.417 456.624 Q161.674 455.299 161.674 453.363 Q161.674 451.291 160.145 449.627 Q158.617 447.928 157.156 447.215 Q155.696 446.468 153.046 445.415 Q150.974 444.43 148.936 443.683 L123.529 454.11 Q121.864 454.79 121.491 455.843 Q121.117 456.896 121.117 459.749 L118.943 459.749 Q119.147 456.624 119.147 452.99 Q119.147 450.85 118.943 445.415 L121.117 445.415 Q121.117 449.321 122.917 449.321 Q123.121 449.321 124.174 448.913 L142.89 441.169 L125.771 434.138 Q124.786 433.73 124.106 433.73 Q121.253 433.73 121.117 436.991 L118.943 436.991 Q119.147 432.405 119.147 430.945 Q119.147 428.092 118.943 425.748 L121.117 425.748 Q121.117 430.401 125.567 432.202 L155.254 444.464 Q163.169 447.793 163.202 453.363 Q163.202 456.013 161.572 457.881 Q159.942 459.749 157.564 459.749 Z" fill="#000000" fill-rule="nonzero" fill-opacity="1" /><path clip-path="url(#clip072)" d="M339.364 772.546 L339.364 1016.92 L556.053 1016.92 L556.053 772.546 L339.364 772.546 L339.364 772.546  Z" fill="#808080" fill-rule="evenodd" fill-opacity="1"/>
<polyline clip-path="url(#clip072)" style="stroke:#000000; stroke-linecap:round; stroke-linejoin:round; stroke-width:4; stroke-opacity:1; fill:none" points="339.364,772.546 339.364,1016.92 556.053,1016.92 556.053,772.546 339.364,772.546 "/>
<path clip-path="url(#clip072)" d="M556.053 625.921 L556.053 1016.92 L772.741 1016.92 L772.741 625.921 L556.053 625.921 L556.053 625.921  Z" fill="#808080" fill-rule="evenodd" fill-opacity="1"/>
<polyline clip-path="url(#clip072)" style="stroke:#000000; stroke-linecap:round; stroke-linejoin:round; stroke-width:4; stroke-opacity:1; fill:none" points="556.053,625.921 556.053,1016.92 772.741,1016.92 772.741,625.921 556.053,625.921 "/>
<path clip-path="url(#clip072)" d="M772.741 430.422 L772.741 1016.92 L989.43 1016.92 L989.43 430.422 L772.741 430.422 L772.741 430.422  Z" fill="#808080" fill-rule="evenodd" fill-opacity="1"/>
<polyline clip-path="url(#clip072)" style="stroke:#000000; stroke-linecap:round; stroke-linejoin:round; stroke-width:4; stroke-opacity:1; fill:none" points="772.741,430.422 772.741,1016.92 989.43,1016.92 989.43,430.422 772.741,430.422 "/>
<path clip-path="url(#clip072)" d="M989.43 577.046 L989.43 1016.92 L1206.12 1016.92 L1206.12 577.046 L989.43 577.046 L989.43 577.046  Z" fill="#808080" fill-rule="evenodd" fill-opacity="1"/>
<polyline clip-path="url(#clip072)" style="stroke:#000000; stroke-linecap:round; stroke-linejoin:round; stroke-width:4; stroke-opacity:1; fill:none" points="989.43,577.046 989.43,1016.92 1206.12,1016.92 1206.12,577.046 989.43,577.046 "/>
<path clip-path="url(#clip072)" d="M1206.12 723.671 L1206.12 1016.92 L1422.81 1016.92 L1422.81 723.671 L1206.12 723.671 L1206.12 723.671  Z" fill="#808080" fill-rule="evenodd" fill-opacity="1"/>
<polyline clip-path="url(#clip072)" style="stroke:#000000; stroke-linecap:round; stroke-linejoin:round; stroke-width:4; stroke-opacity:1; fill:none" points="1206.12,723.671 1206.12,1016.92 1422.81,1016.92 1422.81,723.671 1206.12,723.671 "/>
<circle clip-path="url(#clip072)" style="fill:#808080; stroke:none; fill-opacity:0" cx="447.708" cy="772.546" r="2"/>
<circle clip-path="url(#clip072)" style="fill:#808080; stroke:none; fill-opacity:0" cx="664.397" cy="625.921" r="2"/>
<circle clip-path="url(#clip072)" style="fill:#808080; stroke:none; fill-opacity:0" cx="881.085" cy="430.422" r="2"/>
<circle clip-path="url(#clip072)" style="fill:#808080; stroke:none; fill-opacity:0" cx="1097.77" cy="577.046" r="2"/>
<circle clip-path="url(#clip072)" style="fill:#808080; stroke:none; fill-opacity:0" cx="1314.46" cy="723.671" r="2"/>
<polyline clip-path="url(#clip072)" style="stroke:#000000; stroke-linecap:round; stroke-linejoin:round; stroke-width:8; stroke-opacity:1; fill:none" points="306.861,1012.98 312.789,1012.51 318.717,1011.99 353.437,1007.68 388.158,1000.29 396.234,997.964 404.31,995.356 412.386,992.442 420.462,989.193 431.287,984.262 442.112,978.602 452.936,972.135 463.761,964.777 472.706,957.966 481.651,950.44 490.595,942.151 499.54,933.049 507.857,923.814 516.175,913.798 524.493,902.964 532.81,891.278 543.252,875.354 553.693,857.984 564.135,839.122 574.576,818.733 583.942,799.13 593.309,778.277 602.675,756.182 612.041,732.863 622.761,704.709 633.482,675.061 644.203,644.011 654.924,611.678 670.951,561.263 686.979,508.892 707.478,440.195 727.978,371.205 737.333,340.155 746.688,309.652 756.043,279.901 765.398,251.108 776.045,219.766 786.692,190.233 797.339,162.799 807.986,137.743 816.426,119.741 824.866,103.516 833.307,89.1751 841.747,76.8169 846.99,70.1761 852.233,64.3509 857.476,59.3568 862.719,55.2073 867.962,51.9135 873.205,49.4844 878.448,47.9265 883.69,47.2441 891.721,47.8997 899.751,50.6087 907.782,55.3538 915.812,62.105 921.473,68.0471 927.134,74.9465 932.795,82.7818 938.456,91.5288 944.117,101.161 949.778,111.648 955.439,122.958 961.1,135.059 969.56,154.537 978.021,175.569 986.482,198.021 994.942,221.75 1004.56,250.1 1014.19,279.69 1023.81,310.295 1033.43,341.69 1052.49,405.344 1071.54,469.582 1092.51,539.133 1113.48,605.84 1121.48,630.263 1129.49,654.002 1137.5,677.001 1145.51,699.215 1155.61,726.064 1165.72,751.538 1175.82,775.594 1185.93,798.205 1195.27,817.825 1204.62,836.205 1213.96,853.359 1223.31,869.31 1232.95,884.532 1242.59,898.547 1252.22,911.402 1261.86,923.148 1271.63,933.979 1281.4,943.79 1291.17,952.642 1300.94,960.6 1311.14,968.025 1321.35,974.615 1331.55,980.443 1341.75,985.576 1357.82,992.408 1373.89,997.913 1392.19,1002.84 1410.49,1006.6 1428.8,1009.44 1447.1,1011.56 1449.15,1011.76 1451.2,1011.95 1453.26,1012.14 1455.31,1012.32 "/>
</svg>
